<?xml version="1.0" encoding="UTF-8" standalone="no"?>
<!-- Created with Inkscape (http://www.inkscape.org/) -->

<svg
   xmlns:dc="http://purl.org/dc/elements/1.1/"
   xmlns:cc="http://creativecommons.org/ns#"
   xmlns:rdf="http://www.w3.org/1999/02/22-rdf-syntax-ns#"
   xmlns:svg="http://www.w3.org/2000/svg"
   xmlns="http://www.w3.org/2000/svg"
   xmlns:xlink="http://www.w3.org/1999/xlink"
   xmlns:sodipodi="http://sodipodi.sourceforge.net/DTD/sodipodi-0.dtd"
   xmlns:inkscape="http://www.inkscape.org/namespaces/inkscape"
   width="24.00042"
   height="24"
   id="svg6389"
   version="1.1"
   inkscape:version="0.48.3.1 r9886"
   sodipodi:docname="icon.svg"
   inkscape:export-filename="/tmp/moodle-theme_anomalyred/pix_core/f/epub-256.png"
   inkscape:export-xdpi="288.02875"
   inkscape:export-ydpi="288.02875" preserveAspectRatio="xMinYMid meet">
  <defs
     id="defs6391">
    <linearGradient
       gradientTransform="matrix(1.1002865,0,0,1.1002865,64.232046,-167.79161)"
       inkscape:collect="always"
       xlink:href="#linearGradient6707"
       id="linearGradient1110"
       x1="262.01361"
       y1="471.95245"
       x2="262.01361"
       y2="442.7843"
       gradientUnits="userSpaceOnUse" />
    <linearGradient
       id="linearGradient6707">
      <stop
         id="stop6709"
         offset="0"
         style="stop-color:#000000;stop-opacity:1;" />
      <stop
         id="stop6711"
         offset="1"
         style="stop-color:#ffffff;stop-opacity:1;" />
    </linearGradient>
    <linearGradient
       y2="468.35892"
       x2="314.34872"
       y1="425.61682"
       x1="314.34872"
       gradientTransform="matrix(1.1002865,0,0,1.1002865,5.0328438,-167.7943)"
       gradientUnits="userSpaceOnUse"
       id="linearGradient887"
       xlink:href="#linearGradient1069-5"
       inkscape:collect="always" />
    <linearGradient
       id="linearGradient1069-5">
      <stop
         style="stop-color:#ffffff;stop-opacity:1"
         offset="0"
         id="stop1071-6" />
      <stop
         style="stop-color:#e6e6e6;stop-opacity:1"
         offset="1"
         id="stop1073-0" />
    </linearGradient>
    <linearGradient
       inkscape:collect="always"
       xlink:href="#linearGradient918-1"
       id="linearGradient912"
       x1="462.37933"
       y1="837.0611"
       x2="463.75925"
       y2="835.67212"
       gradientUnits="userSpaceOnUse" />
    <linearGradient
       id="linearGradient918-1">
      <stop
         id="stop920-5"
         offset="0"
         style="stop-color:#f6f6f6;stop-opacity:1" />
      <stop
         id="stop922-7"
         offset="1"
         style="stop-color:#e2e2e2;stop-opacity:1" />
    </linearGradient>
    <linearGradient
       inkscape:collect="always"
       xlink:href="#linearGradient1069-5"
       id="linearGradient3993"
       gradientUnits="userSpaceOnUse"
       gradientTransform="matrix(1.1002865,0,0,1.1002865,5.0328438,-167.7943)"
       x1="314.34872"
       y1="425.61682"
       x2="314.34872"
       y2="468.35892" />
    <linearGradient
       inkscape:collect="always"
       xlink:href="#linearGradient6707"
       id="linearGradient3995"
       gradientUnits="userSpaceOnUse"
       gradientTransform="matrix(1.1002865,0,0,1.1002865,64.232046,-167.79161)"
       x1="262.01361"
       y1="471.95245"
       x2="262.01361"
       y2="442.7843" />
    <linearGradient
       inkscape:collect="always"
       xlink:href="#linearGradient918-1"
       id="linearGradient3997"
       gradientUnits="userSpaceOnUse"
       x1="462.37933"
       y1="837.0611"
       x2="463.75925"
       y2="835.67212" />
    <linearGradient
       inkscape:collect="always"
       xlink:href="#linearGradient918-1"
       id="linearGradient4029"
       gradientUnits="userSpaceOnUse"
       x1="462.37933"
       y1="837.0611"
       x2="463.75925"
       y2="835.67212" />
    <linearGradient
       inkscape:collect="always"
       xlink:href="#linearGradient6707-9"
       id="linearGradient3077"
       gradientUnits="userSpaceOnUse"
       gradientTransform="matrix(1.8114204,0,0,2.6689195,-211.88361,-765.76882)"
       x1="262.01361"
       y1="471.95245"
       x2="262.01361"
       y2="442.7843" />
    <linearGradient
       id="linearGradient6707-9">
      <stop
         id="stop6709-3"
         offset="0"
         style="stop-color:#000000;stop-opacity:1;" />
      <stop
         id="stop6711-5"
         offset="1"
         style="stop-color:#ffffff;stop-opacity:1;" />
    </linearGradient>
    <linearGradient
       inkscape:collect="always"
       xlink:href="#linearGradient1069-5"
       id="linearGradient3044"
       gradientUnits="userSpaceOnUse"
       gradientTransform="matrix(0.47953204,0,0,0.52249635,200.51975,91.009688)"
       x1="314.34872"
       y1="425.61682"
       x2="314.34872"
       y2="468.35892" />
    <linearGradient
       inkscape:collect="always"
       xlink:href="#linearGradient918-1"
       id="linearGradient3788"
       gradientUnits="userSpaceOnUse"
       x1="462.37933"
       y1="837.0611"
       x2="463.75925"
       y2="835.67212"
       gradientTransform="matrix(0.43041821,-0.04185019,0.05077017,0.56715852,116.81242,-138.26421)" />
  </defs>
  <sodipodi:namedview
     id="base"
     pagecolor="#ffffff"
     bordercolor="#666666"
     borderopacity="1.0"
     inkscape:pageopacity="0.0"
     inkscape:pageshadow="2"
     inkscape:zoom="3.959798"
     inkscape:cx="11.954054"
     inkscape:cy="12.254428"
     inkscape:document-units="px"
     inkscape:current-layer="layer1"
     showgrid="false"
     fit-margin-top="0"
     fit-margin-left="2.5"
     fit-margin-right="2.5"
     fit-margin-bottom="0"
     inkscape:window-width="1881"
     inkscape:window-height="1029"
     inkscape:window-x="0"
     inkscape:window-y="26"
     inkscape:window-maximized="1">
    <inkscape:grid
       type="xygrid"
       id="grid3017"
       empspacing="5"
       visible="true"
       enabled="true"
       snapvisiblegridlinesonly="true"
       originx="-27.99579px"
       originy="-27.999772px" />
  </sodipodi:namedview>
  <metadata
     id="metadata6394">
    <rdf:RDF>
      <cc:Work
         rdf:about="">
        <dc:format>image/svg+xml</dc:format>
        <dc:type
           rdf:resource="http://purl.org/dc/dcmitype/StillImage" />
        <dc:title></dc:title>
      </cc:Work>
    </rdf:RDF>
  </metadata>
  <g
     inkscape:label="Capa 1"
     inkscape:groupmode="layer"
     id="layer1"
     transform="translate(-339.53291,-313.05228)">
    <path
       style="opacity:0.85;fill:#000000;fill-opacity:1;stroke:none"
       d="m 341.3526,313.05228 c -0.45231,0 -0.81948,0.44609 -0.81948,0.98444 l 0,22.03112 c 0,0.53835 0.36717,0.98444 0.81948,0.98444 l 20.36104,0 c 0.45231,0 0.81948,-0.44608 0.81948,-0.98444 l 0,-17.38048 -5.24785,-5.63508 -15.93267,0 z"
       id="rect3922-2"
       inkscape:connector-curvature="0" />
    <path
       style="fill:url(#linearGradient3044);fill-opacity:1;stroke:none"
       d="m 342.03239,313.72279 c -0.41918,0 -0.74927,0.40961 -0.74927,0.91437 l 0,20.67125 c 0,0.50477 0.33009,0.91438 0.74927,0.91438 l 19.00146,0 c 0.41918,0 0.74927,-0.40961 0.74927,-0.91438 l 0,-16.26269 -4.90022,-5.32293 -14.85051,0 z"
       id="path869-2"
       inkscape:connector-curvature="0" />
    <path
       inkscape:connector-curvature="0"
       style="opacity:0.85;fill:#000000;fill-opacity:1;stroke:none"
       d="m 361.7881,319.05514 -4.91418,-5.3462 -0.39385,4.2e-4 0.44547,5.08836 c 0.0578,0.64114 0.4528,1.12772 0.89515,1.08494 l 3.9687,-0.37528 z"
       id="path3940"
       sodipodi:nodetypes="ccccccc" />
    <path
       id="path902"
       d="m 361.78456,319.0592 -4.91555,-5.35027 0.42837,4.78541 c 0.0491,0.54789 0.38514,0.96371 0.76139,0.92714 l 3.72579,-0.36228 z"
       style="fill:url(#linearGradient3788);fill-opacity:1;stroke:none"
       inkscape:connector-curvature="0" />
    <g
       transform="matrix(1.0666667,0,0,1.0666667,339.65791,311.37193)"
       style="overflow:visible"
       id="g3030">
      <g
         style="fill:#ff0000;fill-opacity:1"
         id="g3080">
        <path
           inkscape:connector-curvature="0"
           style="fill:#ff0000;fill-opacity:1"
           d="M 7.5,23.5 C 0.4,23.2 -1.6,15.1 3,11.2 4.8,9.6 6.8,9.5 7.6,9.5 c 0.4,0 0.8,0 1.1,0.1 0.3,0 0.7,0.1 1,0.2 0.3,0.1 0.7,0.3 1,0.4 0.3,0.2 0.6,0.4 0.9,0.6 0.3,0.2 0.6,0.4 0.8,0.7 0.3,0.3 0.5,0.5 0.7,0.8 0.2,0.3 0.4,0.6 0.6,0.9 0.2,0.3 0.3,0.7 0.4,1 0.1,0.3 0.2,0.7 0.3,1.1 0.1,0.4 0.1,0.8 0.1,1.1 0,0.3 0,0.8 -0.1,1.1 -0.1,0.4 -0.1,0.7 -0.3,1.1 -0.1,0.3 -0.3,0.7 -0.4,1 -0.2,0.3 -0.4,0.6 -0.6,0.9 -0.2,0.3 -0.4,0.6 -0.7,0.8 -0.3,0.3 -0.5,0.5 -0.8,0.7 -0.3,0.2 -0.6,0.4 -0.9,0.6 -0.3,0.2 -0.7,0.3 -1,0.4 -0.3,0.1 -0.7,0.2 -1.1,0.3 -0.3,0.2 -0.7,0.2 -1.1,0.2"
           id="path62" />
        <path
           inkscape:connector-curvature="0"
           style="fill:#ff0000;fill-opacity:1"
           d="M 7.5,23 C 1,22.7 -0.9,15.2 3.3,11.6 5,10.1 6.8,10 7.5,10 c 0.4,0 0.7,0 1.1,0.1 0.3,0.1 0.7,0.1 1,0.2 0.3,0.1 0.6,0.2 0.9,0.4 0.3,0.2 0.6,0.3 0.9,0.5 0.3,0.2 0.5,0.4 0.8,0.6 0.2,0.2 0.5,0.5 0.6,0.8 0.2,0.3 0.4,0.6 0.5,0.9 0.1,0.3 0.3,0.6 0.4,0.9 0.1,0.3 0.2,0.7 0.2,1 0.1,0.3 0.1,0.7 0.1,1.1 0,0.4 0,0.7 -0.1,1.1 -0.1,0.3 -0.1,0.7 -0.2,1 -0.1,0.3 -0.2,0.6 -0.4,0.9 -0.2,0.3 -0.3,0.6 -0.5,0.9 -0.2,0.3 -0.4,0.5 -0.6,0.8 -0.2,0.3 -0.5,0.5 -0.8,0.6 -0.3,0.2 -0.6,0.4 -0.9,0.5 -0.3,0.2 -0.6,0.3 -0.9,0.4 -0.3,0.1 -0.7,0.2 -1,0.2 C 8.2,23 7.9,23 7.5,23"
           id="path73" />
        <path
           inkscape:connector-curvature="0"
           style="fill:#ff0000;fill-opacity:1"
           d="m 6.1,10.8 0,0 c 0,-0.1 0,-0.1 0,-0.1 0,0 0,0 0,0 0,0 0,0 0,0 0,0 -0.1,0 0,0.1 -0.1,-0.1 -0.1,0 -0.2,0 0,-0.1 0.1,0 0.2,0 -0.1,0 0,0 0,0 M 3,13 c 0,0 2,0 3.6,0 0,0 0.4,-0.1 0.4,-0.1 l 0,0 v 0 l 0,0 v 0 0 l 0,0 v 0 l 0,0 c 0,-0.1 -0.3,-0.1 -0.4,-0.1 0,-0.1 -0.2,-0.2 -0.1,-0.4 0,0 -0.1,0 -0.1,0 C 6.3,12.3 6.1,12.3 6,12.3 c -0.1,0 -0.2,-0.1 -0.3,-0.2 -0.1,0 -0.1,0 -0.2,0 0,0 0,0 0,0 C 5.6,12 5.6,12 5.4,11.9 c 0,-0.2 0.2,-0.3 0.4,-0.5 0,0 0,0 0,0 0,0 0,0 0,0 l 0,0 c 0,0 0.1,0 0.1,0 0,0 0,0 0,0 0,0 0,0 -0.1,-0.1 0,0 0,0 0,0 v 0 c 0,0 0.1,0.1 0.2,0 0,0 0,0 0,-0.1 0.1,0 0.1,0 0.2,-0.1 0,0 0,0 0,0 C 6.1,11.1 6.1,11 6,11 c 0.1,0 0.1,0 0.2,0.1 0,0 0.1,0 0.2,-0.1 0,0 0,0 0,0 0,0 0,0 0,0 l 0,0 c 0,0 0.1,0 0.1,0 0,0 0,0 0,0 0,0 0.1,0 0.1,0 0,0 0,0 0,-0.1 l 0,0 c 0,0 0,0.1 0.1,0.1 0.1,-0.1 0.1,-0.1 0.2,-0.1 0,-0.1 0,-0.1 0,-0.1 0,0 0,0 0,0 0,0 0,0 0,0 0,0 0,0 0,-0.1 -0.1,0 -0.1,-0.1 -0.2,0 0,0 0,0 0,0 0,0 0,0 0,0 0,0 -0.2,0.2 -0.2,0.2 -0.1,0 0,-0.1 0,-0.1 0.1,0 0.1,0 0,-0.1 -0.1,0 -0.1,0.1 -0.1,0.1 0,0 0,-0.1 0,-0.1 0,0 0,0 0,0 0,0 0,0 -0.1,0 0,0 0,0 0.1,-0.1 0,0 0,-0.1 0,-0.1 0,0 0,0 0,0 -0.1,0 -0.2,0.1 -0.2,0.1 0,0 0,0 0,0 -0.1,0 -0.1,0 -0.1,0.1 0,0 0,0 0.1,0 0,0 0,0 0,0 0,0 0,0 0,0 0,0 0,0 0,0 0,0 0,0 0,0 0,0 0,0 0,0 0,0 0,0 0,0 0,0 0,0 0,0 0,0 0,0 0,0 0,0 0,0 0,0 0,0 0,0 0,0 0,0 0,0 0,0 0,0 0,0 -0.1,0 0,0 0,0 0,0 0,0 0,0 0,0 0,0 0,0 0,0 l -0.3,0.2 c 0,0 0,0 0,0 0,0 0,0 0.1,-0.1 0,0 -0.1,0 -0.1,0 0,0 0,0 0,0 0,0 0,0 0,0 0,0 0,0 0,0 h 0 l 0,0 0,0 h 0 l 0,0 0,0 c 0,0 0,0 0,0 0,0 0,0 0,0 0,0 0,0 0,0 -0.1,0 -0.1,0 -0.3,0 h 0 l 0,0 c 0,0 0,0 0,0 h 0 l 0,0 c 0,0 0,0 0,0 h 0 l 0,0 c -0.2,0.1 -0.2,0.1 -0.3,0.2 0,-0.1 0,-0.1 0.1,-0.1 0,0 0,0 0,0 0,0 0,0 0,0 -0.1,0 -0.2,0 -0.2,0 0.1,0 0.1,0 0.2,-0.1 -0.1,0 -0.1,0 -0.1,-0.1 -0.1,0 -0.1,0 -0.1,0 0,0 0,0 0.1,0 0,0 -0.1,0 -0.1,0 0,0 0,0 0.1,-0.1 0,0 -0.3,0.1 -0.5,0.2 0,0 0,0 0.1,0 0.1,0 0.2,0.1 0.3,0 0,0 -0.1,0.2 -0.1,0.2 0,0 0,0 0,0 -0.1,0 -0.1,0 -0.1,0 -0.1,0 -0.1,0 -0.1,0 0,0 0.4,0 0.4,0 v -0.1 c 0,-0.1 -0.1,-0.2 0,-0.2 0,0 -0.1,0 -0.1,0 0,0 0,0 0,-0.1 -0.1,0 -0.2,0.1 -0.3,0.1 -0.3,0.1 -0.6,0.4 -0.9,0.5 -0.1,0.1 -0.3,0.2 -0.4,0.3 0,0 0,0 -0.1,0 l 0,0 -0.4,0.3 0,0 c 0.1,-0.1 0.1,-0.1 0.2,-0.2 0,0 0,0 0,0 0,0 -0.1,0.1 -0.1,0.1 0,0 0,0 0,0 0,0 0,0 0,0.1 0,0 0,0 0,0 0,0 0,0 0,0 0,0 0,0 0,0 0,0 0,0 0,0 0,0.1 -0.1,0.1 -0.1,0.2 0,0 0,0 0,0 0,0 0,0 0,0 0,0 0,0 0,0 0,0 0,0 0,0 0,0 0,0 0,0.1 0,0 0,0 0,0 0,0 0.1,0 0.1,0 0,0 0,0.1 0,0.1 0,0 0,0 0,0 -0.1,0 -0.1,0 -0.1,0.1 l 0,0 c 0,-0.1 0,-0.1 -0.1,0 0,0 0,0 0,0 v 0 c 0,0.1 -0.1,0.1 -0.1,0.1 0,0 0,0 0.1,0 l 0,0 c 0,0.1 -0.1,0.1 -0.1,0.2 0,0 0,0.2 0,0.2 0,0 0,0.3 -0.1,0.3 0,0 0,0 0,0 0,0 0,0 0,0 0,0 0,0 0,0 0,0 0,0 0,0 0,0 0,0 0,0 0,0 0,0 0,0 0,0 0,0 0,0 h 0 c 0,0 0,-0.1 0,-0.1 0,0 0,-0.1 0,-0.1 0,0 0,0 -0.1,0 0,0 0,0 0,0 0,0 0,0 0,0 0,0 0,0 -0.1,0.1 0,0 0,0 0,0 0,0 0,0 0,0 m 5.8,-2.6 c 0,0 0,0 0,0 l 0,0 c 0,0 0,0 0,0 0,0 0,0 0,0 m 0,0 c 0,0 -0.1,-0.1 -0.1,-0.1 0,0 0,0 0,0 0,0 0,0 0,0 0,0 0,0 0,0 l 0,0 c 0,0 0,0 0,0 0,0 0,0 0,0 0,0 0,0 0,0 l 0,0 c 0,0.1 0,0.1 0.1,0.1 -0.1,0 -0.1,0 0,0 l 0,0 0,0 0,0 c -0.1,0.1 -0.1,0.1 0,0 -0.1,0.1 -0.1,0.1 0,0 -0.1,0.1 0,0.1 0,0 0,0 0,0 0,0 m -2.4,0.3 0,0 c 0.1,-0.1 0.1,-0.1 0,0 0,-0.1 0,-0.1 0,-0.1 0,0 0,0 0.1,-0.1 0,0 0.1,-0.1 0.1,-0.1 0,0 0,0 0,0 0,0 0,0 0,0 0,0 0,0 0,0 -0.1,0 -0.1,0.1 -0.2,0.1 0,0 0,0 0.1,-0.1 0,0 0,0 0,0 0,0 0,0 0,0 0,0 0,0 0,0 -0.1,0.1 -0.1,0.1 -0.1,0.1 0.1,0 0.1,0 0.1,0 0,0 -0.1,0 -0.1,0 0,0 0.1,0 0.1,-0.1 0,0 -0.3,0.1 -0.4,0.1 0,0 0,0 0,0 0,0 0,0 0,0 0,0 0,0 0.1,0 0,0 0,0 0,0 l 0,0 c 0,0 0,0 0,0 0,0 -0.1,0 -0.1,0 0,0 0,0 0.1,0 0.1,0 0.1,0 0.1,0 -0.1,0 -0.1,0 -0.2,0 0,0 0,0 0,0 0,0 0,0 0,0 0,0 0,0 0,0 0,0 0,0 0,0 0,0 0,0 0,0 0,0 0,0 0,0 0,0 0,0 0,0 0,0 0,0 0,0 0,0 0,0 0,0 0,0 0,0 0,0 0,0 0,0 0,0.1 0,0 0,0 0,0 0,0 0,0 0,0 0,0 -0.1,0 -0.1,0.1 0,0 0.1,0 0.2,0 0,0 0,0 0,0 0,0 0.1,0 0.1,0 0,0 0,0 0.1,0 0,0 0,0 0,0 0,0.1 0.1,0.1 0.1,0.1 -0.2,-0.1 -0.2,-0.1 -0.1,-0.1 -0.1,0 -0.1,0 -0.1,0 0,0 0,0 0,0 0,0 0.1,0 0.1,0 0,0 0,0 0,0 m 2.3,0.3 0,0 c 0,0 0,0 0,0 -0.1,0 -0.1,0 -0.1,0 0,0 0,0 0,0 0,0 -0.1,0 -0.1,0 0,0 0,0 0,0 0,0 0,0 0,0 0,0 0,0 0,0 0,0 0,0 0,0 0,0 0,0 0,0 0,0 0,0 0,0 0,0 0,0 0,0 0,0 0,0 0,0 0,0 0,0 0,0 0,0 0,0 0,0 0,0 -0.1,-0.1 -0.1,-0.1 0,0 -0.1,0 -0.1,0 0,-0.1 -0.1,0 -0.1,-0.1 0,0 0,0 0,0 0,0 0,0 0,0 0,0 0,0 0,0 v 0 l 0,0 c 0,0 0.1,0 0.1,0 0,0 -0.1,0 -0.1,-0.1 0,0 0,0 0.1,0 0,0 0,0 -0.1,0 0,0 0,0 -0.1,0 0,0 0,0 0,0 l 0,0 c 0,0 0,0 0.1,0 0,0 -0.1,0 -0.1,0 0,0 0,0 -0.1,0 0,0 0,0 0,0 v 0 c 0,0 0,0 -0.1,0 0,0 0,0 0,0 0,0 0,0 0,0 0,0 0,0 -0.1,0 l 0,0 c 0,0 0,0 0.1,0 0,0 0,0 0,0 -0.1,-0.1 -0.1,-0.1 -0.1,-0.1 0,0 0,0.1 -0.1,0.1 0,0 0,0 0,0 0,0 0,0 0,0 0,0 0,0 0,0 0,0 0,0 -0.1,0 0,0 0,0 0,0 0,0 0,0 0,0 0,0 0,0 0,0 0,0 0,0 0,0 0,0 0,0 0,0 0,0 0,0 0,0 0,0 0,0 0,0 0,0 0,0 0,0 0,0 0,0 0.1,0 0,0 0,-0.1 -0.2,0 0,0 0,0 0,0 -0.1,0 -0.1,0 -0.1,0 0,0 0,0 0,0 0,0 0,0 -0.1,0 0,0 0,0 0,0 0,0 0,0 -0.1,0 0,0 0,0 0,0 0,0 0,0 0,0 0,-0.1 0,-0.1 0,-0.1 0,0 0,0 0,0 0,0 0.1,-0.1 0.1,-0.1 0,0 0,0 -0.1,0 -0.1,0 -0.2,0.1 -0.2,0.1 0,0 0,0 0,0 0,0 -0.1,0 -0.1,0.1 0.1,0 0.1,0 0.1,0 0,0 -0.1,0 -0.1,0 0,0.1 0.1,0.1 0.1,0.1 0,0 0,0 0,0 0,0 0,0 0,0 0,0 0,0 0,0 0,0 0,0 0,0 0,0 0,0 0,0 0,0 0,0 0,0 0,0 0,0 0,0 0,0 0,0 0,0 0,0 0,0 0,0 0,0 0,0 0,0 0,0 0,0 0,0 0,0 0,0 0,0 0,0 0,0 0,0 0,0 0.1,0 0.1,0 0,0 0,0 0,0 0,0 0,0 0,0 l 0,0 c 0,0 0,0 0,0 0.1,0 0.1,0 0.1,0 0,0 -0.1,0 -0.1,0 l 0,0 c 0,0 0,0 0.1,0 0,0 0.1,0 0.1,0.1 0,0 0,0 0,0 0,0 0,0 0.1,0.1 0,0 0,0 0,0 0,0 0,0 -0.1,0 0,0 0,0 0,0 0,0 0,0 0,0 0,0 0,0 0.1,0 0,0 0,0 0,0 0,0 0,0 0,0 0,0 0,0 0,0 0,0 0,0 0,0 0,0 0,0 0,0 0,0 0,0 0,0 0,0 0,0 0,0 0,0 0,0 0,0 0,0 0,0 0,0 0,0 0,0 0,0 0,0 0.1,0 0.1,0 0,0 0,0.1 0,0.1 0,0 -0.1,0.1 -0.1,0.1 0,0 0,0 -0.1,0 0,0 0.1,0 0.1,0.1 0,0 0,0 0,0 0,0 -0.1,0 -0.1,0 0,0 0,0 0,0 h 0 c -0.1,-0.1 -0.1,0 -0.1,0 0,0 0,0 0,0 -0.1,0 -0.1,0 -0.1,0.1 0.1,0 0.2,0 0.2,0 0,0 0.1,0 0.1,0 0,0 0,0 0,0 0,0 0,0 0,0 0,0 0.1,0 0.1,0 0,0 0,0 0,0 h 0 c 0,0 0,0 0,0 l 0,0 h 0 0 0 l 0,0 c 0,0 0,0 0.1,0.1 0,0 0,0 0,0 0,0.1 0.1,0 0.1,0.1 0,0 0.1,0 0.1,0.1 0.1,0 0.1,0 0.2,0 0,0 0,0 0,0 0,-0.1 -0.1,-0.1 -0.2,-0.1 -0.1,0 -0.1,0 -0.1,-0.1 0,0 0.1,0 0.1,0 0,0 0,0 0,0 0,0 0.1,0.1 0.1,0.1 0,0 0,0 0,0 0,0 0,0 0.1,0 0,0 0.1,0 0.1,0.1 0,0 0,0 0,-0.1 0,0 0,0 0,0 0,0 0,0 0,0 0,0 -0.1,-0.1 -0.1,-0.1 0,0 0,0.1 0.1,0.1 0,0 0,0 -0.1,-0.1 0,0 0,0 0,0 l 0,0 c 0,0 0,0 0,0 0,0 -0.1,0 -0.1,-0.1 0,0 0,0 0,0 l 0,0 c 0,0 0,-0.1 -0.1,-0.1 0,0 0,0 0,0 0,0 0,0 0,-0.1 0.1,0 0.1,0 0.1,0 0,0 0,0 0,0 0,0 0,0 0,0 C 7.9,11 7.9,11 8,11.1 c 0,0 0,0.1 0.1,0 0,0.1 0,0.1 0.1,0.1 0,0 0,0 0,0 0,0 0,0 0,-0.1 0,0 0,0 0,0 0,0 0,0 0,0 0,0 0,0 0,-0.1 0,0 0,0 0,0 0,0 0,0 0,0 0,0 0,0 0,0 m -1.8,-0.6 0,0 c 0.1,0 0,0 0,0 0,0 0,0 0,0 0,-0.1 0.1,-0.1 0.1,-0.1 0,0 0,0 0,0 0,0 0,0 0,0 0,0 0,0 0,0 0,0 0,0 -0.1,0 0,0 0,0 0,0 0,0 -0.1,0 -0.1,0 l 0,0 0.1,0.1 c 0,0 0,0 0,0 -0.1,-0.1 -0.1,0 -0.1,0 0,0 0,0 0,0 -0.1,0 -0.1,0.1 -0.1,0.1 0,0 0,0 0,0.1 0,0 0,0 0.1,0 0,0 0,0 0,0 0,0 0,0 0,0 0,-0.1 0,-0.1 0.1,-0.2 -0.1,0.1 0,0.1 0,0 m 1.7,-0.1 c 0,0 0,0 0,0 0,0 0,0 0,0 0,0 0,0 0,0 0,0 0,0 0,0 m -1.3,0 c 0,0 0,0 0,0 0,0 0,0 0,0 0,0 0,0 0,0 0,0 -0.1,0 0,0 -0.1,0 -0.1,0 0,0 -0.1,0 -0.1,0 -0.2,0 0,0 0,0 -0.1,0 0,0 0,0.1 -0.1,0.1 0,0 0,0 0.1,0 0,0 0,0 0,0 0,0 0.1,0 0.1,0 0,0 0.2,-0.1 0.2,-0.1 m 1.3,0 c 0,0 0,0 0,0 l 0,0 c 0,0 0,0 0,0 l 0,0 m -2.2,0 0,0 c 0.1,0 0.1,0 0,0 0.1,0 0.1,0 0,0 0.1,0 0.1,0 0,0 0.1,0 0.1,0 0,0 0.1,0 0.1,0 0,0 0.1,0 0,0 0,0 -0.1,0 -0.1,0 -0.2,0 -0.1,0 -0.1,0 -0.2,0.1 l 0,0 0,0 0,0 h 0 l 0,0 0,0 0,0 0,0 c 0,0 -0.1,0 -0.1,0.1 0,0 0,0 -0.1,0 0,0 0,0 0,0 0,0 0,0 0,0 0,0 0,0 0,0 0,0 -0.1,0 -0.1,0.1 0,0 0,0 0,0 0,0 0,0 0,0 0,0 0.1,0 0.1,0 0.1,0 0.1,-0.1 0.2,-0.1 0,0 0.1,0 0.1,0 0.2,-0.1 0.3,-0.1 0.3,-0.2 m 2,-0.1 c 0,0 0,0 0,0 0,0 0,0 0,0 0,0 0,0 0,0 0,0 0,0 0,0 m -0.7,0 0,0 c 0,0 0,0 0,0 0,0 0,0 0,0 0,0 0,0 0,0 -0.1,0 -0.1,0 -0.2,0 0,0 0,0 0,0 0,0 0,0 0,0 0,0 0,0 0,0 0,0 0,0 0,0 0,0 0,0 0,0 0,0 0,0 0.1,0 0,0 0,0 0,0 0,0 0,0 0,0 0,0 0,0 0,0 0,0 0,0 0,0 0,0 0,0 0,0 0,0 0,0 0,0 0,0 0,0 0,0 0,0 0,0 0,0 0,0 0,0 0,0 0,0 0,0 0,0 0,0 -0.1,0.1 -0.1,0.1 0,0 0,0 0,0 0,0 0,0 0,0 0,0 0,0 0,0 0,0 0,0 0,0 0,0 0,0 0,0 0,0 0,0 0,0 0.1,0 0.1,0 0.1,0 0,0 0,0 0.1,0 0,0 0,0 0,0 0,0 0,0 0,0 0,0 0,0 0,0 -0.1,0 -0.1,0 0,-0.1 0,0 0,0 0,0 m -0.4,0 c 0,-0.1 0,-0.1 0,0 0,-0.1 0,-0.1 0,0 0,-0.1 0,-0.1 0,0 0,0 0,0 0,0 0,-0.1 0,-0.1 0,0 0,-0.1 0,-0.1 0,0 0,-0.1 0,-0.1 0,0 0,0 -0.1,0 0,0 l 0,0 c -0.1,0 -0.1,0 0,0 -0.1,-0.1 -0.1,0 0,0 -0.1,0 -0.1,0 0,0 -0.1,0 -0.1,0 -0.1,0 0,0 0,0 0,0 0,0 0,0 0,0 0,0 0,0 0,0 0,0 0,0 0,0 0,0 0,0 0,0 0,0 0,0 0,0 0,0 0,0 0,0 0,0 0,0 0,0 0,0 0,0 0,0 -0.1,0 0,0 0.1,0 -0.1,0 -0.1,0 0,0 -0.1,0 -0.1,0 -0.1,0 0,0 -0.1,0 -0.1,0 0,0 0,0 0.1,0 0,0 0,0 0.1,0 m -0.3,0 c 0.1,0 0.1,0 0,0 0.1,0 0.1,0 0,0 0.1,0 0,0 0,0 0,0 0,0 0,0 0,0 0.1,0 0.1,-0.1 0,0 0,0 0,0 0,0 0,0 -0.1,0.1 -0.1,0 -0.1,0 -0.1,0 0,0 0,0 0.1,0 -0.1,0 -0.1,0 -0.1,0 0.1,0 0.1,0 0.1,0 -0.1,0 -0.1,0 -0.1,0 0,0 0,0 -0.1,0 0,0 0,0 0,0 0,0 0,0 -0.1,0 0,0 0,0 0,0 0,0 0,0 0,0 0,0 0,0 0,0 0,0 0,0 0,0 0.1,0 0.1,0 0.1,0 0,0 0,0 0,0 0,0 -0.1,0 -0.1,0 0,0 0,0 0,0 0,0 0,0 0,0 0,0 0,0 0,0 0,0 0,0 0,0 0,0 0,0 0,0 0,0 0,0 0,0 0,0 0.1,0 0.1,0 0.1,0 0.1,0 0.1,0 0,0 0,0 0,0 0,0 0,0 0,0 0.1,0 0.1,0 0.1,0 m 0.4,-0.1 c 0.1,0 0.1,0 0,0 0.1,0 0.1,0 0,0 0,0 0,0 0,0 0,0 0,0 0,0 l 0,0 0,0 0,0 c 0,0 0,0 0,0 l 0,0 0,0 0,0 0,0 c 0,0 0,0 0,0 0,0 0,0 0,0 l 0,0 0,0 0,0 0,0 0,0 0,0 0,0 c 0,0 0,0 0,0 l 0,0 c 0,0 0,0 0,0 m -0.3,0 c 0.1,0 0.1,0 0,0 0.1,0 0.1,0 0,0 0.1,0 0,0 0,0 l 0,0 c 0,0 0,0 0,0 l 0,0 c 0,0 0,0 0,0 l 0,0 c 0,0 0,0 0,0 l 0,0 c 0,0 0,0 0,0 -0.1,0 -0.3,0.1 -0.3,0.1 0,0 0,0 0,0 0,0 0,0 -0.1,0 0,0 0.1,0 0.1,0 0,0 0.1,0 0.1,0 0,0 -0.1,0 -0.1,0 0,0 0.1,0 0.1,0 0.2,-0.1 0.2,-0.1 0.2,-0.1 m 0.2,0 0,0 c 0,0 0,0 0,0 0,0 0,0 0,0 l 0,0 0,0 0,0 0,0 0,0 0,0 c 0,0 0,0 0,0 l 0,0 c 0,0 0,0 0,0 -0.1,0 -0.1,0 -0.1,0 0,0 0,0 0,0 0.1,0 0.1,0 0.1,0 m 0.3,0 c 0,0 0,0 0,0 0,-0.1 0,-0.1 0,0 0,-0.1 0,-0.1 0,0 l 0,0 0,0 0,0 0,0 0,0 0,0 0,0 0,0 c 0,-0.1 0,-0.1 0,0 0,0 0,0 0,0 -0.1,0 -0.1,0 0,0 0,0 0,0 0,0 m -0.1,0 c 0,0 0.1,0 0.1,0 0,0 0,0 0,0 0,0 0,0 0.1,0 0,0 0,0 0,0 0,0 0,0 0,0 0,0 0,0 0,0 -0.1,-0.1 -0.2,0 -0.2,0 0,0 0,0 0,0 0,-0.1 0,0 0,0 0,0 0,0 0,0 0,0 0,0 0,0 0,0 0,0 0,0 0,0 0,0 0,0 0,0 0,0 0,0 M 7.3,10 c 0,0 0.1,0 0,0 0.1,0 0,0 0,0 0,0 0.1,0 0,0 0.1,0 0.1,0 0,0 0.1,0 0.1,0 0,0 0.1,0 0.1,0 0,0 0.1,0 0.1,0 0,0 0.1,0 0.1,0 0,0 0.1,0 0.1,0 0,0 0.1,0 0.1,0 0,0 0.1,0 0.1,0 0,0 0.1,0 0.1,0 0,0 0.1,0 0.1,0 0,0 0.1,0 0.1,0 0,0 0.1,0 0.1,0 0.1,0 0,0 0,0 -0.1,0 0.1,0 0.1,0 0.2,0 0,0 0,0 0,0 0,0 0,0 0,0 l 0,0 c 0,0 -0.1,0 -0.2,0 0.1,0 0.1,0 0,0 0,0 0,0 0,0 l 0,0 c 0,0 0,0 0,0 0,0 0,0 0,0 0,0 0,0 0,0 -0.1,0 -0.1,0 -0.2,0 0,0 0,0 0,0 0,0 0,0 0,0 0,0 0,0 0,0 0,0 0,0 0,0 0,0 0,0 0,0 0.1,0.1 0.1,0.1 0.2,0 0,0 0,0 0,0 0,0.1 0,0 0,0 0,0 0,0 0,0 0,0 0,0 0,0 m 0.2,0 c 0,0 0,0 0,0 0,0 0,0 0,0 0,0 0,0 0,0 0,0 0,0 0,0 0,0 0,0 0,0 m 0,0 0,0 0,0 c 0,0 0,0 0,0 0,0 0,0 0,0 0,0 0,0 0,0 0,0 0,0 0,0 0,0 0,0 0,0 0,0 0,0 0,0 0,0 0,0 0,0 l 0,0 c 0,0 0,0 0,0 l 0,0 c 0,0 0,0 0,0 l 0,0 c 0,0 0,0 0,0 l 0,0 c 0,0 0,0 0,0 -0.1,0 -0.1,0 -0.1,0 0,0 0,0 0.1,0 -0.1,0 -0.1,0 0,0 l 0,0 0,0 0,0 0,0 0,0 0,0 0,0 c -0.1,0 -0.1,0 -0.1,0 l 0,0 c 0,0 0,0 0,0 l 0,0 c 0,0 0,0 0,0 0,0 0,0 0,0 0,0 0,0 0,0 0,0 -0.1,0 -0.1,0 0,0 0,0 0,0 0,0 0,0 0,0 0,0 0,0 0,0 0,0 0,0 0,0 0,0 0,0 0,0 0,0 0,0 0,0 l 0,0 0,0 h 0 c 0,0 0,0 0,0 0,0 0,0 0,0 0,0 0,0 0,0 0,0 0,0 0,0 0,0 -0.1,0 -0.1,0 0,0 0,0 0,0 0,0 0,0 0,0 0,0 0,0 0,0 0,0 0,0 0.1,0 0,0 0,0 0,0 0,0 0,0 0,0 l 0,0 c 0,0 0,0 0,0 0,0 0,0 0,0 0,0 0,0 0,0 0,0 0,0 0,0 0,0 0,0 0,0 0,0 0.1,0 0.1,0 0,0 0,0 0,0 l 0,0 c 0,0 0,0 0,0 0,0 0,0 0,0 0,0 0,0 0,0 0,0 0,0 0,0 0,0 0,0 0,0 0,0 0,0 0,0 l 0,0 c 0,0 -0.1,0 -0.1,0 0,0 0,0 0,0 0,0 0.1,0 0.1,0 0,0.1 0,0.1 0.1,0 -0.1,0.1 -0.1,0.1 0,0 -0.1,0.1 -0.1,0.1 0,0 -0.1,0.1 0,0 0,0 0,0 0,0 0,0 0,0 0,0 0,0 l 0,0 c 0,0 0,0 0,0 0,0 0,0 0,0 0,0 0,0 0,0 0,0 0,0 0,0 0,0 0,0 0,0 0,0 0,0 0,0 M 9,11.2 C 8.6,10.5 8.1,10 7.5,10 h 0 0 0 c 0,0 0,0 0,0 l 0,0 h 0 l 0,0 0,0 0,0 c 0,0 0,0 0,0 0,0 0,0 0,0 l 0,0 0,0 0,0 0,0 0,0 c 0,0 0,0 0,0 v 0 c 0,0 0,0 0,0 0,0 0,0 0,0 0,0 0,0 0,0 0,0 0,0 0,0 0,0 0,0 0,0 0,0 0,0 0,0 0,0 0,0 0,0 0,0 0,0 0,0 0,0 0,0 0,0 l 0,0 c 0,0 0,0 0,0 0,0 0,0 0,0 l 0,0 0,0 0,0 c 0,0 0,0 0,0 0,0 0,0 0,0 0,0 0,0 0,0 0,0 0,0 0,0 0,0 0,0 0,0 0,0 0,0 0,0 0,0 0,0 0,0 0,0 0,0 0,0 0,0 0,0 0,0 l 0,0 c 0,0 0,0 0,0 0,0 0,0 0,0 h 0 c 0,0 0,0 0.1,0 0,0 0,0 0.1,0 0,0 0,0 0,0 l 0,0 c 0,0 0,0 0,0 0,0 0,0 0,0 0,0 0,0 0,0 0,0 0,0 0,0 l 0,0 0,0 c 0,0 0,0 0,0 l 0,0 0,0 0,0 c 0,0 0,0 0,0 0,0 0,0 0,0 l 0,0 0,0 0,0 c 0,0 0,0 0,0 0,0 0,0 0,0 0,0 0,0 0,0 l 0,0 h 0 c 0,0 0,0 0,0 h 0 c 0,0 0,0 0,0 h 0 0 c 0,0 0,0 0,0 h 0 c 0,0 0,0 0,0 0,0 0,0 0,0 0,0 0,0 0,0 0,0 0,0 0,0 0,0 0,0 0,0 l 0,0 c 0,0 0,0 0,0 0,0 0,0 0,0 l 0,0 0,0 c 0,0 0,0 0,0 0,0 0,0 0,0 0,0 0,0 0,0 l 0,0 h 0 0 c 0,0 0,0 0,0 0,0 0,0 0,0 0,0 0,0 0,0 l 0,0 0,0 h 0 l 0,0 0,0 h 0 l 0,0 0,0 c 0,0 0,0 0,0 0,0 0,0 0,0 0,0 0,0 0,0 0,0 0,0 0,0 0,0 0,0 0,0 0,0 0,0 0,0 0,0 0,0 0,0 0,0 0,0 0,0 l 0,0 c 0,0 0,0 0,0 0,0 0,0 0,0 0,0 0,0 0,0 0,0 0,0 0,0 0,0 0,0 0,0 h 0 c 0,0 0,0 0.1,0 0,0 0,0 0,0 0,0 0,0 0,0 0,0 0,0 0,0 0,0 0,0 0,0 0,0 0,0 0,0 l 0,0 0,0 c -0.1,0 -0.1,0 -0.2,0 0,0 0,0 0,0 0,0 0,0 0,0 0,0 0,0 0,0 0,0 0,0 0,0 l 0,0 c 0,0 0,0 0,0 0,0 0,0 0,0 0,0 0,0 0,0 0,0 0.1,0 0.1,0 0,0 0,0 0,0 0,0 0,0 0,0 l 0,0 0,0 0,0 c 0,0 0,0 0,0 0,0 0,0 0,0 l 0,0 0,0 0,0 0,0 0,0 0,0 0,0 0,0 0,0 0,0 h 0 c 0,0 0,0 0,0 0,0 0,0 0,0 l 0,0 c 0,0 0,0 0,0 0,0 0,0 0,0 0,0 0,0 0,0 l 0,0 v 0 l 0,0 c 0,0 0,0 0,0 0,0 0,0 0,0 0,0 0,0 0,0 0,0 -0.1,0 -0.1,0 0,0 0,0 0,0 0,0 0,0 0,0 l 0,0 0,0 c 0,0 0,0 0,0 0,0 0,0 0,0 0,0 -0.1,0 -0.1,0 0,0 0,0 0,0 l 0,0 c 0,0 0,0 0,0 0,0 0,0 0,0 0,0 0,0 0,0 0,0 0,0 0,0 0,0 0,0 0,0 0,0 0,0 0,0 0,0 0,0 0,0 0,0 0,0 0,0 0,0 0,0 0,0 0,0 0,0 0,0 v 0 c 0,0 0,0 0,0 0,0 0,0 0,0 0,0 0,0 0,0 -0.1,0 -0.1,0 -0.1,0 l 0,0 c 0,0 0.1,0 0.1,0 l 0,0 0,0 c 0,0 0,0 0,0 -0.1,0 -0.1,0 -0.1,0 0,0 0,0 0,0 l 0,0 0,0 c 0,0 0,0 0,0 0,0 0,0 -0.1,0 h 0 c 0,0 0,0 0,0 0,0 0,0 0,0 0,0 0,0 0,0 0,0 0,0 0,0 l 0,0 c 0,0 0.1,0 0.1,0 0,0 0,0 0.1,-0.1 l 0,0 0,0 c 0,0 0,0 -0.1,0 0,0 0,0 0,0 0,0 0,0 0,0 0,0 0,0 0,0 0,0 0,0 0,0 0,0 0,0 -0.1,0.1 l 0,0 c 0,0 0,0 0,0 0,0 0,0 0,0 0,0 0,0 0,0 0,0 0,0 0,0 0,0 0,0 0,0 0,0 0,0 0,0 l 0,0 0,0 c 0,0 0,0 0,0 0,0 0,0 0,0 0,0 0,0 0,0 l 0,0 0,0 c 0,0 0,0 0.1,0 0,0 0,0 0,0.1 l 0,0 c 0,0 0,0 0,-0.1 l 0,0 0,0 c 0,0 0,0 0,0 h 0 l 0,0 c 0,0 0,0 0,-0.1 l 0,0 0,0 c 0,0 0,0 0,0 0,0 0,0 0.1,0 0,0 0,0 0,0 0,0 0,0 0,0 0,0 -0.1,-0.1 -0.1,0 l 0,0 0,0 c 0,0 0,0 0,0 0,0 0.1,0 0.1,0 0,0 0,0 0,0 0,0 -0.1,0 -0.1,0 0,0 0,0 0,0 l 0,0 c 0,0 0,0 0,0 0,0 0,0 0,0 0,0 0,0 0.1,0 0,0 0,0 0,0 0,0 0,0 0,0 0,0 0,0 0,0 0.1,0 0.1,0 0.1,0 0,0 0,0 0,0 0,0 0,0 0,0 0,0 0,0 0,0 l 0,0 c 0,0 0,0 0,0 1.3,1.2 1.3,1.2 1.4,1.3 -0.1,-0.1 -0.1,-0.1 0,0 l 0,0 c -0.1,0 -0.1,0 0,0 -0.1,0 -0.1,0 0,0 -0.1,0 -0.1,0 0,0 -0.1,0 -0.1,0 0,0 -0.1,0 -0.1,0 0,0 -0.1,0 -0.1,0 0,0 -0.1,0 -0.1,0 0,0 -0.1,0 -0.1,0 0,0 -0.1,0 -0.1,0 0,0 -0.1,0 0,0 0,0 0,0 0,0 0,0"
           id="path75" />
        <path
           inkscape:connector-curvature="0"
           style="fill:#ff0000;fill-opacity:1"
           d="m 7.4,22.9 0,0 c 0,0 0,0 0,0 l 0,0 c 0,0 0,0 0,0 l 0,0 c 0,0 0,0 0,0 0,0 0,0 0,0 m 2,-2.8 c 0,0 0,0 0,0 -0.1,0 -0.1,0 -0.2,0 0,0 0,0.1 0,0.1 0,0 0.1,0 0.2,-0.1 m -0.6,2 c 0.3,-0.5 0.6,-1.2 0.8,-2 0,0 0,0 0,0 0,0 0,0 -0.1,0 -0.1,0 -0.1,0.1 -0.2,0.2 0,0 0,0 0,0 0,0 -0.1,0 -0.1,0 0,0 0,-0.1 0,-0.1 -0.1,0 -0.1,0 -0.1,0 0,0 0,-0.1 0.1,-0.1 -0.5,0 -1.1,0 -1.7,0 -0.5,0 -1,0 -1.4,0 0,0 0,0.1 0,0.1 0,0 0,0.1 0,0.2 l 0,0 c 0.1,0.1 0.1,0 0.1,0 0.1,0.1 -0.1,0.1 -0.1,0.2 0,0 0.1,0.1 0.1,0.1 0,0 0,0 0,0 0.1,0.1 0.2,0.1 0.6,0.7 0,0 0,0 0,0 0,0 0,0 0,0 0,0 0,0 0,0 0,0 0,0 0,0 0,0 0,0 0,0 0,0 0,0 0,0 0,0 0,0 0,0 0,0 0,0 0,0 0.1,0.2 0.4,0.2 0.5,0.3 0.1,0.1 -0.1,0.3 -0.1,0.4 0,0 -0.1,0 -0.1,0 0,0 0,0 0,0 0,0 0,0 0,0 0,0 0,0 0,0 0,0 0,0 0,0 0,0 0,0 0,0 0,0 0,0 0,0 0,0 0,0 0,0 0,0 0,0 0,0 l 0.1,0 c 0,0.1 0.1,0.7 0.1,0.7 0,0 0,0 0,0 0,0 0,0 0,0 0,0 0,0 0,0 0,0 0,0 0,0 0,0 0,0 0,0 0,0 0,0 0,0 0,0 0,0 0,0 0,0 0,0 0,0 0,0 0,0 0,0 0,0 0,0 0,0 0,0 0,0 0,0 0,0 0,0 0,0 0,0 0,0.1 0.1,0.1 0,0 0,0 0,0 0,0 0,0 0,0 l 0,0 0,0 0,0 0,0 0,0 c 0,0 0,0 0,0 l 0,0 c 0,0 0,0 0,0 h 0 c 0,0 0,0 0,0 h 0 0 c 0,0 0,0 0,0 0,0 0,0 0,0 l 0,0 h 0 l 0,0 0,0 0,0 h 0 c 0,0 0,-0.1 0,-0.1 0,0 0,0 0.1,-0.1 0,0 0.1,0 0.2,-0.1 0,0 0,0 0,-0.1 0,0 0,0 0,0 l 0,0 c 0,0 0,0 0,0 0,0 0,0 0,0 0,0 0,0 0,0 0.1,0 0.2,0 0.4,-0.2 0,0 0,0 0,0 0,0 0,0 0,0 0,0 0,0 0,0 0,0 -0.1,0.1 -0.1,0.1 0.2,-0.1 0.2,-0.1 0.4,-0.3 0,0 0,0 0,0 0.3,0 0.4,0 0.4,0 m 4.9,-3.8 c 0,0 0,0 0,0 0,0 0,0 0,0 0,0 0,0 0,0 0,0 0,0.1 0,0 l 0,0 c 0,0.1 0,0 0,0 M 14,15.4 c 0,-0.2 -0.1,-0.5 -0.1,-0.7 v 0 c 0,-0.1 -0.1,-0.1 -0.2,-0.2 0,0 -0.1,0 -0.3,-0.6 0,0 0,0 0,0 0,-0.1 0,-0.1 -0.1,-0.1 0,0 0,0 0,0 0,0 0,0 0,0 0,0 0,0 0,0.1 0,0 0,0 -0.1,0 0,0 0,0 -0.1,0.1 0,0 0,0 0,0.1 0,0 0,0.1 -0.1,0.1 0,0 0,0 -0.1,0 -0.1,0 -0.1,0 -0.1,-0.1 0,0 -0.1,0.5 0,0.7 0.1,0.3 -0.2,0.4 -0.2,0.7 0,0.2 -0.1,0.4 -0.1,0.7 0,0 0,0 0,0 0.1,0.1 0.1,0.7 0,0.8 0,0 0,0.1 0.1,0.1 0,0 0,0 0,0 0,0 0,0.1 0,0.1 0,0 0,0 0,0 l 0,0 0,0 0,0 0,0 h 0 l 0,0 0,0 0,-0.1 c 0,0 0,-0.1 0,-0.1 0,0 0,0 0,0 0,0 0,0.2 0,0.2 0,0 0.1,0.1 0.1,0.1 0,0 0.1,0.1 0.1,0.1 v 0 c 0,0 -0.1,0 -0.1,0 0,0 0,0 0.1,0.2 0,0 0,0 0,0 0,0 0,0 0,0 0,0 0,0 0,0 0,0 0,0 0,0 0,0 0,0 0,0 0,0 0,0 0,0 0,0 0,0 0,0 0,0 0,0 0,0 v 0 0 l 0,0.4 c 0,0 0,0 0,0 0,0 0.2,0.3 0.3,0.3 0.1,0 0.1,-0.2 0.2,-0.2 0,0 0,0 0,-0.1 0,0 0,0 0,0 0.1,0 0.3,-0.2 0.3,-0.2 0,0 0.2,0 0.2,0.1 l 0.2,0 v 0 c 0,0.1 -0.2,0.1 -0.2,0.1 0,0 0,0 0,0 0,0 0.1,0 0.1,0 0,0 0.1,0.1 0.1,0.1 v 0 l -0.1,0 c 0,0.1 -0.1,0.2 -0.2,0.3 l 0,0 c 0,0 0,0.1 0,0.1 0,0 0,0 0,0 0,0 0,0.1 -0.1,0.2 l 0,0 0,0 c 0,0 0,0 0,0.1 -0.1,0.4 -0.5,1 -0.5,1 0,0 0,0 0,0 0,0 0,0 0,0 0.1,0 0.2,-0.3 0.3,-0.6 0.2,-0.3 0.3,-0.6 0.4,-0.9 0.1,-0.3 0.2,-0.6 0.2,-1 0.1,-0.3 0.1,-0.7 0.1,-1 0,-0.2 0,-0.5 -0.1,-0.9 m -0.6,-1.6 c 0,0 0,0 0,0 0,0 0,0 0,0 0,0 0,0 0,0 0,0 0,0 0,0 0,0 0,0 0,0 0,0.1 0,0.1 0.1,0.2 0,-0.1 0,-0.1 -0.1,-0.2 m -0.2,-0.3 c 0,0 0,0 0,0 0,-0.1 0,-0.1 0,0 0,0 0,0 0,0 0,0 0,0 0,0 0,0 0,0 0,0 0,0 0,0.1 0,0.1 0,0 0,0.1 0,0.1 0,0 0,0 0,0 0,0 0,0 0,0 0,0 0,0 0,0 0,0 0,0 0,0 0.1,-0.1 0.1,-0.1 0,-0.2 m -0.1,-0.2 c 0,0 0,-0.1 0,0 l 0,0 0,0 c 0,0 0,0 0,0 l 0,0 c 0,0 0,0 0,0 0,0 0,0 0,0 0,0 0,0 0,0 0,0 0,0 0,0 l 0,0 0,0 0,0 0,0 0,0 0,0 c 0,0.1 0.1,0.1 0.1,0.1 l 0,0 c 0,0 -0.1,-0.1 -0.1,-0.1 m 0.2,0.2 c 0,0 -0.1,0 0,0 l -0.1,-0.1 c 0,0 0,0 0,0 0,0 0,0 0,0 0,0 -0.2,-0.4 -0.3,-0.4 l 0,0 c 0,0 -0.1,0 -0.3,0 0,0 0,0 0,0 0,0 0,0 0,0 0,0 0,0 0,0 0,0 0,0 0,0.1 0,0 0,0 0,0 l 0,0 0,0 c 0,0 0.1,0.1 0.1,0.2 0,0 0,0 -0.1,0 0,0.1 -0.1,0 -0.1,0 0,0 -0.1,0 -0.1,0 0,0 0,0 0,0 0,0 0,0 0,0 0,0 0,0 0,0.1 0,0 0.1,0 0.1,0.1 0.1,0.1 0.1,0.3 0.1,0.4 0,0 0,0 0,0 0,0 0,0 0,0 l 0,0 c 0,0 0,0 0,0 0,0 0,0 0,0 l 0,0 c 0,0 0,0 0,0 0,0 0,0 0,0 0,0 0,0 0,0.1 0,0 0,0.1 0,0.1 0,0 0,0 0,0 0,0 0,0 0.1,0 0,0 0,0 0,0 0,0 0,0.1 0.1,0.1 0,0.1 0.1,0.1 0.1,0.1 0,0 0,0 0,0 0,0 0,0 0,0 l 0,0 h 0 c 0,0 0,-0.1 0,-0.1 0,0 0.1,0 0.1,0 0,0 0,0 0,0 0,0 0,0 0,0 0,0 0,-0.1 0,-0.1 0,0 0,0 0,0 0,0 0,-0.1 0,-0.1 0,0 0,0 0,0 0,0 0,0 -0.1,-0.1 0,-0.1 0,-0.1 0,-0.2 l 0,0 c 0,0 0,-0.1 0,-0.1 0,-0.1 0,-0.1 0,-0.1 -0.1,-0.1 -0.1,-0.1 -0.1,-0.1 0,0 0,0 0,0 0,0 0,0 0,0 0,0 0,0 0,0 0,0 0,0 0,0 0,0 0,-0.1 0,-0.1 0,0 0,0 0,0 0.2,-0.3 0.5,0.2 0.5,0.2 0,0 0,0 0,0 l 0,0 0,0 0,0 0,0 c 0,0 0,0 0,0 0,0 0,0 0,0 0,0 0,0.1 0,0 0,0.1 0,0.1 0,0 0.1,0.1 0.1,0.2 0.1,0.2 0,0 0,0 0,0 l 0,0 0,0 c 0,0 0,0 0,0.1 0,0 0,0 0,0 l 0,0 0,0 c 0,0 0,0 0,-0.1 0,0 -0.1,-0.1 -0.1,-0.2 m -0.4,-0.6 c 0,0 0,0 0,0 0,0 0,0 0,0 0,0 0.1,0.1 0,0 0.1,0.1 0,0 0,0 m 0.2,0.2 C 13.1,13 13,13 13,12.9 c 0,0 0,0 0,0 0,0 0,0 0,0 0,0 0,0 0,0 0,0.1 0,0.1 0.1,0.2 -0.1,-0.1 -0.1,-0.1 0,0 -0.1,0 0,0 0,0 0,0 0,0 0,0 m -3.9,-0.2 0,0 0,0 0,0 0,0 c -0.1,0 -0.1,0 -0.1,0.1 0,-0.1 0,-0.1 0.1,-0.1 0,0 0,0 0,0 0,0 0,0 0,0 M 2.7,12.5 c 0.1,0 0,0 0,0 0,0 0,0 0,0 0,0.1 0,0.1 0,0 0,0.1 0,0.1 0,0 m 0.2,-0.1 c 0,0 0,0 0,0 0,-0.1 0,-0.1 0,0 C 3,12.3 3,12.3 3,12.3 c 0,0 0,0 0,0 -0.2,0 -0.2,0.1 -0.1,0.1 -0.1,0 -0.1,0 0,0 -0.1,0 -0.1,0 0,0 -0.1,0 -0.1,0 0,0 -0.1,0 -0.1,0 0,0 -0.1,0 -0.1,0 0,0 -0.1,0 -0.1,0 0,0 0,0 0,0 0,0 m 0,-0.2 c 0.1,-0.1 0.1,-0.1 0,0 0.1,-0.1 0.1,-0.1 0,0 0.1,-0.1 0.1,-0.1 0,0 0,-0.1 0,0 0,0 0,0 0,0 0,0 l 0,0 c 0,0 0,0 0,0 M 3,12.1 C 3,12 3,12 3,12.1 3.1,12 3.1,12 3,12.1 3.1,12 3.1,12 3,12.1 3,12 3,12 3,12.1 c 0,0 0,0 0,0 0,-0.1 0,0 0,0 M 9,13 c 0,0 0,-0.2 0,-0.2 0,0 0.1,0 0,-0.1 0,-0.2 0,-0.1 0,-0.1 0,0 0,0 0,0 0,0 0,0 0,0 0,0 0,0 0,0 0,0 -0.1,0 -0.1,0 -0.1,0 -0.1,0.1 -0.2,0.1 0,0 0,-0.1 0,-0.1 0.1,0 0.2,-0.1 0.2,-0.1 -0.3,-0.1 -0.3,-0.2 -0.3,-0.2 0,-0.1 0,-0.3 -0.1,-0.3 0,0 0,0 0,0 0,0 0,0 0,0 0,0 0,0 0,0 0,0 0,0 0,0 0,0 0,0 0,0 0,0 0,0 0,0 0,0 0,0 0,0 0,0 0,0 0,0 0,0 0,0.1 -0.1,0 0,0 0,0.1 0,0.1 0,0 0.1,0 0.1,0 0,-0.1 -0.1,0 -0.1,-0.1 0,0 0,0 0,0 0,0 0,0 -0.1,0 0,0 0,0 0,0 0,0 0,0 0,0 -0.1,-0.1 -0.1,-0.1 -0.2,-0.2 0,0 0,0 -0.1,0.1 0,0 0,0 0,0.1 0,-0.1 0,0 0,0 0,0 0,0 0,0 0,0 0,-0.1 -0.1,-0.1 0,0.1 0,0.1 -0.1,0.1 0,0 0,0 0,0 0,-0.1 -0.1,0 -0.2,0 0,0 0,0 0,0 0,0 0,-0.1 0,-0.1 0,0 0,0.2 0,0.2 0,0 0,-0.1 0,-0.1 0,0 0,0 0,0 -0.1,0 -0.2,-0.2 -0.2,-0.2 0,0 0,-0.1 0,-0.1 0,0 -0.1,-0.1 -0.1,-0.1 -0.1,0 -0.1,0 -0.1,0 -0.1,0 -0.1,0 -0.2,-0.1 0,0 0,0 0,0 0,0 -0.1,0 0,0.1 0,0 0,0.1 0,0.1 v 0 c 0,0 0,0 0,0 0,0 0,0.1 0,0.1 l -0.1,0.1 c 0,0.1 0.2,0.1 0.1,0.3 0,0.1 -0.1,0.4 -0.3,0.5 0,0 0.1,0.3 0.1,0.3 0,0 0,0 0,0 0,0 0.3,-0.4 0.3,-0.4 0,0 0,0 0,0 0,0 0,0 0,0 0,0 0,0 0,0 0,0 0,0 0,0 0,0 0,0 0,0 0,0 0,0 0,0 0,0 0,0 0,0 0,0 0,0 0,0 0,0.1 -0.1,0.1 -0.1,0.2 0,0 -0.1,0.1 -0.1,0.1 0,0 -0.1,0 -0.1,-0.1 0,0 0,0 -0.1,0 0,0 0,0.1 0,0.1 0.3,0 0.5,0 0.8,0 0.5,0 1,0 1.5,0 0,0 -0.1,-0.1 -0.1,-0.1 0.1,0.1 0.1,0.1 0.1,0 m 0,-1.5 c 0,-0.1 0,-0.1 0,0 l 0,0 0,0 m -2.2,0 0,0 c 0,0 0,0 -0.1,0 0,0 0,-0.1 0,-0.1 0,0 0,0 0,0 0,0 0,0 -0.1,0 0,0 0,0 -0.1,-0.1 0,0 0,0 0,0 0,0 0,0 0,0 0,0 0,0 0,0 0,0 0,0 0,0 0,0 0,0 0,0 -0.1,0.1 -0.1,0.1 -0.1,0.2 -0.1,0 -0.1,0 -0.1,0.1 0,0 0,0 0,0 0,0 0.1,0 0.1,0 0,0 0,0 0,0.1 0,0 0,0 0,0 0,0 0,0 0.1,0 0,0 0,0 0.1,0 0,0 0,0 0,0 0,0 0,0 0,0 0,0 0,0 0,0 0.1,-0.2 0.1,-0.2 0.2,-0.2 0,0 0,0 0,0 m 0.5,-0.5 c 0,0 0,0 0,0 0,0 -0.1,0 0,0 -0.2,0 -0.2,0.1 -0.1,0.1 -0.1,0 0,0.1 0.1,-0.1"
           id="path77" />
        <path
           inkscape:connector-curvature="0"
           style="fill:#ff0000;fill-opacity:1"
           d="m 9.6,13.4 c 0,0 0,0 0,0 0,0 0,0 0,0 0,0 0,-0.1 0,0 l 0,0 c -0.1,-0.1 -0.1,-0.1 0,0 -0.1,0 -0.1,0 0,0 -0.1,-0.1 -0.1,-0.1 -0.1,-0.1 0,0 0,0 0,0 0,0 0,0 0.1,0 0,0 0,0 0,0 l 0,0 c 0,0 0,0 -0.1,0 0,0 0,0 0.1,-0.1 0,0 -0.1,0 -0.1,0 0,0 0,0 0,0 0,0 -0.1,0 -0.1,0 0,0 0,0 0,0 0,0 0,0 0,0 0,0 0,0 0,0 0,0 0,0 -0.1,0 0,0 0,0 -0.1,0.1 0,-0.1 0,-0.1 0.1,-0.2 0,0 -0.1,0 -0.1,0 C 9,13 9,13 9,13.1 c 0,0 0,0 0,0 0,0 0,0 0,0 0,0 0,0 -0.1,0 0,0 0,0 0,0 0,0 0,0 0.1,0 0,0 -0.1,0 -0.1,0.1 0,0 0,0 0,0.1 0.1,0 0.1,0 0.2,0 0,0 0.1,0 0.1,0 0,0 0,0 0,0 0,0 0,0 0,0 0,0 0,0 0,0 0,0 0,0 0,0 0,0 0,0 0,0 0,0 0,0 0,0 0,0 0,0 0,0 0,0 0,0 0,0 0,0 0,0 0,0 0,0 0,0 0,0 l 0,0 0,0 c 0,0 0,0 0,0 0,0 0,0 0.1,0 0,0 0,0 0,0 0,0 -0.1,0.1 -0.1,0.1 0,0 0,0 0,0 0,0 0,0 0,0 0,0 0.1,-0.1 0.1,-0.1 0,0 0,0 0,0 l 0,0 c 0,0 0,0 0,0.1 0,0 0,0 0,0 l 0,0 0.3,0 c -0.1,0 -0.1,0.1 0,0 0,0.1 0,0.1 0,0 0,0.1 0,0 0,0 m 3,-0.5 c 0,0 0,0 0,0 0,0 0,0 0,0 l 0,0 c 0,0 0,0 0,0 m -1,-1.1 c 0,0 -0.1,-0.2 -0.2,-0.1 0,0 0,0 0,0 0,0 0,0 0,0 0,0 0,0 0,0.1 0,0 0,0 0,0 l 0,0 c 0,0 0,0 0,0 0,0 0,0 0,0 0,0 0,0 0,0 0,0 0,0 0,0 0,0 0,0 0,0 0,0 0,0 0,0 0,0 0,0 0,0 0,0 0,0 0,0 0,0 0,0 0,0 0,0 0,0 0,0 0,0 0,0 -0.1,0 0,0 0,0 0,0 0,0 0,0 0,0 0,0 0,0 0,0 0,0 0,0 0,0 0,0 0,0 0,0 0,0 0,0 0,0 l 0,0 0,0 c 0,0 0.1,0 0.1,0 0,0 0,0 0,0 0,0 0,0 0,0 l 0,0 0,0 c 0,0 0,0 0,0 0,0 0,0 0,0 0,0 0,0 0,0 0,0 0,0 0,0 0,0 0,0 0,0 0,0 0,0 0,0 0,0 0,0 0,0 0,0 0,0 0,0 0,0 0,0 0,0 0,0 0,0 0,0 l 0,0 c 0,0 0,0 0,0 0,0 0,0 0,0 0,0 0,0 0,0 0,0 0,0 0,0 0,0 0,0 0,-0.1 0,0 0,0 0,0 0,0 0,0 0,0 0,0 0,0 0,0 0.3,0.2 0.3,0.2 0.2,0.1 0,0.1 0,0.1 0,0 m -0.1,-0.1 0,0 c 0,0 -0.1,0 0,0 -0.1,0 -0.1,0 0,0 -0.1,0 0,0 0,0 m 0.3,0 c 0,-0.1 0,-0.1 0,0 l 0,0 c 0,0 0,0 0,0 0,0 0,0 0,0 0,0 0,0 0,0 0.1,0 0.1,0 0,0 0.1,0 0.1,0 0,0 0.1,0 0.1,0 0,0 0.1,0 0.1,0 0,0 l 0,0 0,0 c 0.1,0 0,0 0,0 m -0.2,-0.3 c 0,0 0,0 0,0 l 0,0 c 0,0.1 0,0.1 0,0 0,0.1 0,0.1 0,0 0.1,0.1 0.1,0.1 0.1,0.1 0,0 0,0 -0.1,-0.1 0,0.1 0,0.1 0,0 0,0.1 0,0.1 0,0 m -2.2,0 c 0,0 0,0 0,0 0,0 0,0 0,0 0,0 0,0 0,0 0,0 -0.1,0 0,0 -0.1,0 0,0 0,0 0,0 0,0 0,0 m 2.7,0.7 c 0,0 -0.1,-0.1 -0.1,-0.1 0,0 0,0 0.1,0.1 C 11.9,12 11.9,12 11.9,12 c 0,0 -0.1,-0.1 -0.2,-0.2 -0.2,-0.1 -0.2,-0.2 -0.2,-0.2 0,0 0,0 0,0 0,0 0,0 0,0 0,0 0,0 0,0 0,0 0,0 0,0 0,0 0,0 0,0 0,0 0,0 0,0 0,0 -0.1,-0.1 -0.1,-0.1 0,0 -0.1,0 -0.1,0 0,0 0,-0.1 -0.1,-0.1 0,0 0,0 0,0 0,0 0,0 0,0 0,0 0,0 0,0 0,0 0,0 0,0 l 0,0 c 0,0 0,0 0,0 0,0 0,0 0.1,0 0,0 0,0 0,0 0,0 0,0 0.1,0.1 0,0 0.1,0.1 0.1,0.1 l 0,0 c 0,0 0,0 0,0 l 0,0 c 0,0 0,0.1 0.1,0.1 0,0 0,0 0,0 0,0 0,0 0,0 0,0 0,0 0,0 l 0,0 c 0.1,0.1 0.1,0.1 0.1,0.1 0,0 0,0 0,0 0,0 0,0 0,0 0,0 0,0 0,0 0,0 0,0 0,0 0,0 0,0 0,0 0,0 0,0 0,0 0,0 0,0 0,0 0,0 0,0 0,0 0,0 0,0 0,0 0,0 0.1,0.1 0.1,0.1 0,0 0,0 0,0 0,0 0,0 0,0.1 0,0 0,0 0,0 0,0 0,0 0,0 0,0 0,0 0,0 0,0 0,0 0,0 0,0 0,0 0,0 0,0 0,0 0,0 0,0 0,0 0,0 0,0 0,0 0,0 0,0 0,0 0,0 0,0 0,0 0,0 0,0 0,0 0,0 0,0 0,0 0,0.1 l 0,0 c 0.1,0 0.1,0 0.3,0 -0.1,0.1 -0.1,0.1 0,0 -0.1,0.1 -0.1,0.1 0,0 -0.1,0.1 -0.1,0 0,0 -0.1,0.1 -0.1,0.1 -0.1,0.1 0,0 0,0 0,0 0,0 0,0 0,0 0,0 0,0 0,0 0,0 0,0 0,0 0,0.1 0,0.1 0,0.1 0,0 0,0 0,0 0,0 0,0 0,0 0,0 0,0 0,0 0,0 0,0 0,0 0,0 0,0 0,0 0,0 0,0 0,0 0,0 0,0 0,0 0,0 0,0 0,0 0,0 0,0 0.1,0 0,0 0,0 0,0 0,0 0,0 0,0 0,0 0,0 0,0 0,0 0,0 0,0 0,0 0,0 0,0 0,0 0,0 0,0 0,0 0,0 0,0 0,0 0,0 0,0 0,-0.1 0,-0.1 0,-0.2 0,0.1 0,0.1 0,0 0,0.1 0,0.1 0,0 0,0.1 0,0.1 0,0 0,0 0,0 0,0 M 9.9,10.7 c 0,0 -0.1,0 -0.1,0 0,0 0,0 -0.1,0 0,0 -0.1,0 -0.1,0 0,0 0,0 0,0 0,0 0,0 0,0 0,0 0,0 0,0 0,0 0,0 0,0 0,0 0,0 0,0 0,0 0,0 0,0 0,0 0,0 0,0 0,0 0,0 0,0 0,0 0,0 0,0 0,0 0,0 -0.1,0 0,0 0,0 0,0 0,0 0,0 -0.1,0 0,0 0,0 0,0 0,0 0,0 0,0 0,0 0,0 0,0 l 0,0 c 0,0 -0.1,0 -0.1,0 0,0 0,0 0,0 l 0,0 c 0,0 0,0 0.1,0 0,0 0,0 0,0 0,0 0,0 0,0 0,0 0,0 0,0 -0.1,0 -0.1,-0.1 -0.2,-0.1 0,0 0,0 0,0 l 0,0 c 0,0 0,0 0,0 0,0 0,0 0,0 0,0 0,0 0,0 0,0 0,0 0,0 0,0 0,0 0.1,0 0,0 0,0 0,0 0,0 0,0 0,0 0,0 0,0 0.1,0 0,0 0,0 0.1,0 l 0,0 c 0,0 0,0 0,0 0,0 0,0 0,0 0,0 0,0 0,0 l 0,0 c 0,0 0,0 0,0 0.1,0 0.1,0 0.1,0.1 0,0 0,0 0,0 0,0 0.1,0 0.1,0 0,0 0,0 0,0 0,0 0.1,0 0.1,0 0,0 0,0 0,0 0,0 0,0 0,0 0,0 0,0 0,0 0.2,0.1 0.2,0.1 0.1,0 0.1,0.1 0.1,0.1 0,0 0.1,0.1 0.1,0 0,0 0.1,0 0.1,0 0,0 0.1,0 0,0 0,0 M 8.6,10.2 c 0,0 0,0 0,0 -0.1,0 -0.1,0 0,0 0,0 0,0 0,0 l 0,0 c 0.1,0 0,0 0,0 l 0,0 0,0 0,0 0,0 c 0,0 0,0 0,0 m 3.5,1.7 c 0,0 -0.1,-0.1 0,0 l 0,0 c -0.1,0 0,0 0,0 0,0 -0.1,-0.1 -0.1,-0.1 l 0,0 0,0 h 0 c 0,0 0,0.1 0.1,0.1 0,0 0,0 0,0 l 0,0 0,0 0,0 C 12,11.8 12,11.8 12,11.8 c 0,0 0,0 0,0 0,0 -0.1,-0.1 -0.1,-0.1 l 0,0 c 0,0 0,0 -0.1,-0.1 l 0,0 0,0 0,0 c 0,0 0,0 -0.1,0 0,0 0,0 0.1,0 l 0,0 c 0,0 0,0 0,0 0,0 0,0 0,0 0,0 0.1,0.1 0.1,0.1 l 0,0 c 0.1,0 0.1,0.1 0.2,0.2 l 0,0 0,0 0,0 0,0 c -0.1,0 -0.1,0 0,0 -0.1,0 -0.1,0 0,0 0,0 -0.1,0 0,0 0,0 0,0 0,0 l 0,0 0,0 0,0 c 0,0 -0.1,0 0,0 -0.1,0 -0.1,0 0,0 -0.1,0 -0.1,0 0,0 0,0 0,0 0,0 0,0.1 0,0.1 0,0 l 0,0 c -0.1,0 -0.1,0 0,0 -0.1,0 -0.1,0 0,0 -0.1,0.1 0,0.1 0,0 0,0.1 0,0.1 0,0.2 0,0 0,0 0,0 0,0 0,0 0,0 l 0,0 c 0,-0.1 0,-0.1 0,-0.2 0,0.1 0,0.1 0.1,0.3 0,0 0,0 0,0 0,0 0,0 0,0 0,0 0,0 0,0 0,0 0,0 0,0 0,0 0,0 0,0 0,0 0.1,0.1 0.1,0.1 0,0 0,0 0,0.1 l 0,0 c 0,0 0,0 0,0 0,0 0,0 0,0 0,0 0,0 0,0 0,0 0,0 0,0 0,0 0.1,0.1 0.1,0.1 0,0 0,0 0,0 0,0 0,0 0,0 0,0 0,0 0,0 0,0 0,0 0,0 0,0 0,0 0,0 0,0 0,0 0,0 l 0,0 0,0 c 0,0 0,0 0,0 0,0 0,0 0,0 0,0 0,0 0,0 0,0 0,0 0,0 0,0 0,0 0,0 l 0,0 c 0,0 0,0 0,0 0,0 0,0 0,0 0,0 0,0 0,0 0,0 0.1,0 0.1,0 0,0 0,0 0,0 l 0,0 0,0 c 0,0 0,0 0.1,0.1 0.1,0.1 0.1,0.1 0.2,0.2 0.2,0 0.3,0 0.3,0 l 0,0 c 0,0 0,0 0,0 l 0,0 c 0,0 0,0 0,0 0,0 0,0 0,0 0,0 0,0 0,0 0,0 0,0 0,0 0,0 0,0 0,0 0,0 0,0 0,0 C 13,12.7 13,12.6 12.9,12.5 12.6,12.4 12.3,12.1 12.1,11.9 M 10.5,10.7 C 10.3,10.6 10.1,10.5 9.9,10.4 l 0,0 c 0,0 0,0 0,0 0,0 0,0 0,0 0,0 0,0 0.1,0 0,0 0,0 0,0 0,0 0,0 0,0 0,0 0,0 0,0 0,0 0.1,0 0.1,0 0,0 0,0 0,0 0,0 0,0 0,0 0,0 0.1,0 0.1,0 0,0 0,0 0,0 0,0 0.1,0 0.1,0.1 0.1,0.2 0.2,0.2 0.2,0.2 0,0.1 0,0.1 0,0 0.1,0.1 0.2,0.1 0.2,0.1 l 0,0 c 0,0 0.1,0 0.1,0.1 0,0 0,0 0,0 l 0,0 h 0 l 0,0 h 0 c 0,0 0,0 0,0 l 0,0 h 0 l 0,0 0,0 c 0,0 0,0 0.1,0 0,0 0,0 0,0 0,0 0,0 0.1,0.1 0,0 0,0 0,0 0,0 0,0 0,0 0,0 0.1,0.1 0.1,0.1 0,0 0,0 0.1,0 0,0 0,0 0,0 0,0 0.1,0 0.1,0.1 l 0,0 c 0,0 0,0 0,0 0,0 0,0 0,0 0,0 0,0 0,0 l 0,0 0,0 0,0 0,0 0,0 0,0 0,0 0,0 c 0,0 0,0 0,0 0,0 0,0 0,0 l 0,0 c 0,0 0,0 0,0 0,0 0,0 0,0 0,0 0,0 0,0 0,0 0,0 0,0 0,0 0,0 0,0 0,0 0,0 0,0 0,0 0,0 0,0 l 0,0 0,0 c 0,0 0.1,0.1 0.1,0.1 l 0,0 0,0 c 0,0 0,0 0,0 0,0 0,0 0,0 -0.1,-0.1 -0.1,-0.1 -0.2,-0.2 0,0 0,0 0.1,0 0,0 0.1,0.1 0.1,0.1 0,0 0,0 0,0 l 0,0 c 0,0 0.1,0.1 0.1,0.1 0,0 0.1,0.1 0.1,0.1 l 0,0 0,0 0,0 c 0,0 0.1,0.1 0.1,0.1 0,0 0,0 0,0 0,0 0,0 -0.1,-0.1 l 0,0 c 0,0 0,0 0,0 0,0 0,0 0,0 l 0,0 c 0,0 -0.1,-0.1 -0.1,-0.1 -0.1,-0.1 -0.2,-0.2 -0.3,-0.3 -0.1,0.1 -0.4,-0.1 -0.7,-0.3 m -2.2,-0.6 0,0 c 0,0 0,0 0,0 l 0,0 0,0 c 0,0 -0.1,0 0,0 l 0,0 c -0.1,0 0,0 0,0 l 0,0 0,0 c 0,0 0,0 0,0 l 0,0 0,0 0,0 0,0 c 0,0 0,0 0,0 0,0 0,0 0,0 l 0,0 c 0,0 0,0 0,0 m -0.1,0 0,0 0,0 c 0,0 0,0 0,0 0,0 0,0 0,0 0,0 0,0 0,0 0,0 0,0 0,0 l 0,0 c 0,0 0,0 0,0 0,0 0,0 0,0 m 0,0 c 0,0 0,0 0,0 l 0,0 0,0 0,0 c -0.1,0 -0.1,0 0,0 l 0,0 0,0 0,0 0,0 c 0,0 0,0 0,0 0,0 0,0 0,0 M 8,10 8,10 c -0.1,0 -0.1,0 0,0 -0.1,0 0,0 0,0 0,0 0,0 0,0 m -0.1,0 c -0.1,0 -0.1,0 0,0 -0.1,0 -0.1,0 0,0 l 0,0 c -0.1,0 0,0 0,0 0,0 0,0 0,0 m -0.1,0 0,0 c 0,0 -0.1,0 0,0 0,0 0,0 0,0 -0.1,0 -0.1,0 0,0 -0.1,0 -0.1,0 0,0 0,0 0,0 0,0 l 0,0 c 0,0 0,0 0,0 m -0.1,0 0,0 0,0 c -0.1,0 -0.1,0 0,0 -0.1,0 -0.1,0 0,0 -0.1,0 -0.1,0 0,0 -0.1,0 0,0 0,0 l 0,0 m 0.2,0 c -0.1,0 -0.2,0 -0.2,0 h 0 c 0,0 0.1,0 0.1,0 0,0 0,0 0.1,0 m -0.3,0 c 0,0 -0.1,0 0,0 l 0,0 c 0,0 0,0 0,0 0,0 0,0 0,0 m 0.4,0 0,0 0,0 0,0 0,0 m 1,0 H 8.7 c 0,0 0,0.1 0,0.1 0,0 0,0.1 0,0.1 0,0 0,0 0,0 0,0 0.1,0 0.1,0 0,0 0.2,0 0.2,0.1 C 9,10.2 9,10 9,10 H 8.7 l 0,0.1 c 0,0 0,0 0,0 l 0,-0.1 c 0,0 0,-0.1 0,-0.1 0,0 0,0 0,0 0,0 0.2,0.1 0.2,0.1 0,0 0.2,0.1 0.2,0.1 v 0 C 9.1,10.1 8.9,10 8.9,10 8.9,10 8.7,9.9 8.7,9.9 h 0 c 0,0 0,0 0,0 0,0 0,0 0,0 0,0 0,0 0,0 C 8.5,10 9,10.1 9,10 v 0.1 c -1,0 -0.3,0 -0.3,0 0,0 -0.1,-0.1 -0.1,-0.1 0,0 -0.1,-0.1 -0.1,-0.1 0,0 0,0 0,0 0,0 0.1,0 0.1,0 l 0,0 h 0 l 0,0.1 c 0,0 0,0 0,0 0,0 0,0 0,0 0,0 0,0 -0.1,0 0,0 0,0 0.1,0 l 0,0 c 0,0 0,-0.1 0,-0.1 l 0,-0.1 H 8.8 C 8.8,10 9,10.1 9,10 l 0,0 H 8.3 C 8.3,10 8,10.1 8,10.1 V 10 C 8,10 8.5,9.9 8.5,9.9 h 0 l 0,0.1 c 0,0 0,0 0,0 0,0 0,0 0,0 0,0 0,0 0,0 0,0 -0.4,0 -0.4,0 v 0.1 l 0,0 0,0 v 0 l 0,0 0,0 0,0 0.4,0 h 0 l 0,0 h 0 c 0,0 -0.4,0 -0.4,0 l 0,0 v 0.1 0 l 0,0 v 0 0 l 0,0 c 0,0 0.2,-0.1 0.2,-0.1 0,0 0.2,0 0.2,0 h 0 c 0,0 0,0.1 0,0 l 0,0 c 0,0 0,0 0,0 0,0 0,0 0,0 0,0 0,0 0,0 0,0 0,0 -0.1,0 0,0 0,0 0,0 0,0 0,0 0,0 0,0 0,0 0,0 0,0 0,0 0,0 0,0 0,0 -0.1,0 h 0 c 0,0 0,0 0,0 0,0 0,0 0,0 0,0 0,0 0,0 0,0 -0.1,0 -0.1,0 0,0 -0.1,0 -0.1,0 V 10 h 0.1 l 0,0 0,0 c 0,0 0,0 0,0 0,0 0,0 0,0 0,0 -0.2,0 -0.2,0 v 0 0 l 0,0 v 0 l 0,0 v 0 0 c 0,0 0.1,0 0.1,0 0,0 0,0 0,0 0,0 -0.1,0 -0.1,0 0,0 0,0 0,0 v 0 0 0 h 0 0 c 0,0 0,0 0,0 h 0 c 0,0 0,0 0,0 h 0 v 0 c 0,0 0,0 0,0 0,0 0,0 0,0 l 0,0 c 0,0 0,0 0,0 0,0 0,0 0,0 0,0 -0.1,0 -0.1,0 0,0 0,0 0,0 l 0,0 c 0,0 0,0 0,0 0,0 0,0 0,0 0,0 0,0 0,0 0,0 0,0 0,0 h 0 c 0,0 0,0 0,0 h 0 c 0,0 0,0 0,0 h 0 c 0,0 0,0 0,0 0,0 -0.1,0 -0.1,0 h 0 c 0,0 0,0 0,0 0,0 0,0 -0.1,0 0,0 0,0 0,0 0,0 0,0 0,0 0,0 0,0 0,0 0,0 0,0 0,0 h 0 c 0,0 0,0 0,0 0,0 0,0 0,0 0,0 0,0 0,0 0,0 0,0 0,0 h 0 0 c 0,0 0,0 0,0 0,0 0,0 0,0 0.5,0 1,0.5 1.4,1.2 0,0 0,0 0,0 0,0 0,0 0,0 0,0 0,0 0,0 l 0,0 c 0,0 0,0 0,0 0,0 0,0 0,0 l 0,0 c 0,0 0,0 0,0 0,0 0,0 0,0 0,0 0,0 0,0 0,0 0,0 0,0 0,0 0,0 0,0 0,0 0,0 0,0 0,0 0,-0.2 0,-0.1 0,0 0,-0.2 0,-0.2 0,0 0,0 0,0 0,0 0,0 0,0 0,0 0,0 0,0 0,0 0,0.2 0,0.2 0,0 0,0.1 0,0.1 0,0 0.1,0 0.1,0.1 0,0 0,0 0,0 0,0 0,0 0,0 0,0 0,0 0,0 0,0 0,0 0,0 0,0 0,0 0,0 0,0 0,0 0.1,0 0,0 0,0 0,0 0,0 0,0 0,0 l 0,0 0,0 h 0 c 0,0 0,0 0,0 h 0 c 0,0 0,0 0,0 0,0 -0.2,0 -0.2,0 0,0 -0.2,0 -0.2,0 0,0 0,0 0,0 0,0 0,0 0,0 0,0 0,0 0,0 0,0 0.2,0 0.2,0 0,0 0.1,0 0.1,0 0,0 0,0 0,0 0,0 0,0 0,0 l 0,0 0,0 0,0 c 0,0 -0.2,0 -0.2,0 0,0 -0.2,0 -0.2,0 0,0 0,-0.2 0,-0.2 0,0 0.5,-0.2 0.5,-0.2 h 0 c 0,0 0,0.2 0,0.2 0,0 0,0.1 0,0.1 0,0 0,0 0,0 0,0 0,0 0,0.1 0,0 0,0 0,0 0,0 0,0 0,0 0,0 0,0 0,0 0,0 0,0 0,0 0,0 0,0 0,0 0,0 0,0 0,0 0,0 0,0 0.1,0 0,0 0.1,0 0.1,0 0,0 0.2,0 0.2,0 0,0 0,0 0,0 0,0 -0.1,0 -0.2,0 0,0 0.1,0 0,0 0,0 0.1,0 0.1,0 0,0 0,-0.4 0,-0.4 0,0 -0.3,0 -0.3,0 0,0 0,0 0,0 0,0 0,0 0,0 0,0 0,0.2 0,0.2 0,0 0,-0.1 0,-0.1 0,0 0,-0.1 0,-0.1 h 0 l 0,0.2 c 0,0 0,0.1 0,0.1 0,0 0,0 0,0 0,0 0,0 -0.1,0 0,0 0,0 0,0 0,0 0,0 0,0 l 0,0 c 0,0 0,0 0,0 0,0 0,0 0,0 0,0 0,0 0,0 0,0 0,0 -0.1,-0.1 0,0 0,0 0.1,0 l 0,0 c 0,0 0,0 -0.1,0 0,0 0,0 0,0 0,0 0,0 0,0 l 0,0 c 0,0 0.2,0 0.2,0 0,0 -0.7,0 0.3,0 v 0 c -1,0 -0.3,0 -0.3,0 h 0.3 c 0,0 0,0 0,0 0,0 0,0 0,0 l 0,0 c 0,0 0,0 0,0 0,0 -0.5,0 -0.5,0 v 0 l 0,0 v 0 l 0,0 v 0 H 9.3 9 v 0 l 0.3,0 c 0,0 0.1,0 0.1,0 0,0 0.1,0 0.1,0 0,0 0,0 0,0 L 9,11 v 0 c 0,0 0.4,0 0.4,0 0,0 0,0 0,0 0,0 0,0 0,0 0,0 0,0 0,0 0,0 0,0 0,0 0,0 0,0 0,0 0,0 0,0 0,0 0,0 0,0 0,0 0,0 0,0 0,0 l 0,0 c 0,0 0,0 -0.1,0 l 0,0 0,0 c 0,0 0,0 0,0 0,0 0,0 0,0 0,0 0,0 0,0 l 0,0 0,0 c 0,0 0,0 -0.1,0 0,0 0,0 0.1,0 0,0 0,0.1 0,0.1 0,0 0,0.1 -0.1,0.1 0,0 0,0 0,0 0,0 0,0 0,0 0,0 0,0 0,0 0,0 0,0 0,0 0,0 -0.3,-0.1 -0.3,-0.1 V 11 c 0,0 0.1,0 0.1,-0.1 0,0 0.1,0 0.1,0 l 0,0 c 0,0 0,0 0,0 0,0 0,0 0,0 0,0 0,0 0,0 0,0 -0.1,0 -0.1,0 0,0 -0.2,0 -0.2,0 0,0 0,0 0,0 0,0 0.2,0.3 0.2,0.3 h 0 c 0,0 0,-0.2 0,-0.2 0,0 0.1,0.1 0.1,0.1 0,0 0,0.1 0,0.1 0,0 0,0 0,0 0,0 0,-0.2 0,-0.2 0,0 0,-0.1 0,-0.1 0,0 -0.1,0 -0.1,0 0,0 -0.2,0 -0.2,0 V 11 c 0,0 0.2,0 0.2,0 0,0 0.1,-0.2 0,-0.2 0,0 0,-0.1 0,-0.1 0,0 0,-0.1 0.1,0 0,0 0,0.2 0,0.2 l 0,0.2 c 0,0 0,0 0,0 0,0 0,-0.3 0,-0.3 l 0,-0.1 0,-0.1 c 0,0 0,-0.3 0,-0.3 C 9,10.2 9,10 9,10 c 0,0 0,0 0,0 l 0,0.2 c 0,0 0,0.1 -0.1,0.1 l 0,0 c 0,0 0.1,0.1 0.1,0.1 0,0 0,0 0,0 0,0 0,0 0,0 0,0 0,0 0,0 0,0 0,0 0,0 0,0 0,0 0,0 0,0 0,0 0,0 0,0 0,0 0,0 0,0 0,0 0,0 0,0 0,0 0,0 l 0,0 0,0 0,0 0,0 c 0,0 -0.1,0 -0.1,0 0,0 0.1,0 0.1,0 0,0 0,-0.1 0,-0.1 V 10 H 8.8 9 v 0.1 l 0,0 V 10 c 0,0 -0.1,0 -0.1,0 l 0,0 H 9 l 0,0 v 0.2 l -0.1,0 c 0,0 -0.1,-0.1 -0.1,-0.1 0,0 -0.1,-0.1 -0.1,-0.1"
           id="path79" />
        <path
           inkscape:connector-curvature="0"
           style="fill:#ff0000;fill-opacity:1"
           d="m 10.4,20.8 c 0,0 0.1,-0.2 0.1,-0.2 0,0 -0.1,0 -0.1,0 -0.1,-0.2 -0.1,-0.2 -0.1,-0.2 0,0 -0.1,0 -0.1,0 0,0 -0.1,-0.1 -0.1,-0.1 0,0 -0.1,0 -0.2,0.1 0,0 0.1,-0.1 0,-0.1 0,0 0,0 0,0 0,0 0,0 0,0 0,0 0,0 -0.1,-0.1 -0.2,0.8 -0.5,1.5 -0.8,2 0.1,0 0.1,0 0.1,0 0,0 0.1,0 0.1,-0.1 0,0 0.1,0 0.1,0 0,0 0.1,-0.1 0.1,-0.1 0,-0.1 0.2,-0.1 0.2,-0.2 0.1,-0.1 0.1,-0.1 0.2,-0.2 0,-0.1 0.1,-0.1 0.2,-0.3 0,0 0,0 0,0 0,0 0,0 0,0 0,0 0,0 0,0 0,0 0.1,0 0.1,-0.1 0,0 0.1,-0.1 0.1,-0.1 0.1,-0.1 0.1,-0.1 0.2,-0.1 -0.1,-0.2 0,-0.2 0,-0.2 m 2.4,-0.5 c 0.1,-0.1 0.1,-0.2 0.2,-0.3 0,0 0,0 0,0 0,0 0,0 0,0 0,0 0,0 0,0 -0.6,0.9 -1.1,1.3 -1.3,1.5 0.2,-0.2 0.4,-0.3 0.6,-0.5 0,-0.1 0.3,-0.4 0.5,-0.7 M 9.5,20.1 c 0,0 0,0 0,0 0,0 0,0 0,0 0,0 0,0 0,0 M 9.4,20 c 0,0 0,0 0,0 0,0 -0.1,0 -0.2,0 0,0 0,0 0,0 0,0 0,0 0,0 0,0 0,0 0,0 0,0 0,0 0,0 0,0 0,0 0,0 0,0 0,0 0,0 0,0 0,0 0,0 0,0 0,0 0,0 0,0 0,0 0,0.1 0.1,0 0.1,0 0.2,-0.1 0,0.1 0,0.1 0,0 M 8.1,18.8 c 0,0 0,0 0,0 0,0 0,0 0,0 0,0 0,0 0,0 0,0 0,0 0,0 0,0 0,0.1 0,0 0,0.1 0,0.1 0,0 0,0.1 -0.1,0.1 -0.1,0.1 0,0 0,0 0,0 0.1,0 0.1,0 0.1,-0.1 0,0.1 0,0.1 0,0 m -1.3,-1.4 0,0 c 0,-0.1 -0.2,-0.1 -0.2,-0.1 0,0 0,0 0,0 0,0 0,0 0,0 0,0 0,0 0,0 h 0 c 0,0 0,0 0,0 0,0 0,0 0,0 0,0 0,0 0,0 h 0 l 0,0 c 0,0 0.1,0.1 0.1,0.1 0,0.1 0,0 0.1,0 0,0 0,0 0,0 0,0 0,0 0,0 0,0 0,0 0,0 l 0,0 m 1.4,0 c 0,0 0,0 0,0 0,0 -0.1,-0.1 -0.2,0 0,0 0,0 0,0.1 0.1,-0.1 0.2,-0.1 0.2,-0.1 0,0 0,0 0,0 m -0.3,0 c 0,0 0,0 0,0 -0.1,-0.1 -0.2,-0.1 -0.2,-0.1 -0.1,0 -0.1,0 -0.1,0 0,0 0,0 0,0 0,0 0,0 0,0 0,0 0,0 0,0 0,0 0,0 -0.1,0 0,0 0,0 -0.1,0 -0.1,0 -0.1,0 -0.2,0 l 0,0 c 0,0 0,0 0,0 0,0 0.1,0 0.1,0 0,0 0,0 0,0 0,0 0,0 0,0.1 0,0 0,0 0,0 -0.1,0 -0.2,0 -0.3,0 0,0 0,0 0,0 l 0,0 c 0,0 0,0 0.1,0.1 0,0 0,0 0,0 0,0 0,0 0.1,0 0.1,0 0.1,0 0.2,0 0,0 0,0.1 0.1,0.1 0,-0.1 0,-0.1 0.1,-0.1 0,0 0,0 0,0 0,0 0.1,0 0.1,0 0,0 0,0 0,0 0.1,-0.1 0.1,-0.1 0.2,-0.1 -0.1,0 -0.1,0 0,0 0,0 0,0 0,0 m -0.8,-0.3 0,0 c -0.1,0 -0.1,0 -0.2,0 0,0 0,0 0,0 0,0 0,0 0,0 h 0 0 0 0 0 0 l 0,0 0,0 c -0.1,0 -0.2,0 -0.2,-0.1 0,0 0,-0.1 -0.1,-0.1 0,0 -0.1,0 -0.1,0 -0.1,0 -0.1,0 -0.2,-0.1 0,0 0,0 0,0 -0.1,0 -0.1,0 -0.2,0 0,0 0,0 0,0 h 0 c 0,0 0,0 0,0 0,0 0,0 0,0 h 0 c 0,0 0,0 0,0 h 0 c 0,0 0,0 0,0 -0.1,0 -0.3,0 -0.3,0.1 0,0 0,0 0,0 l 0,0 c 0,0 0.1,0 0.1,0 0.2,-0.1 0.2,-0.1 0.3,-0.1 0,0 0,0 0,0 0,0 0,0 0,0 0,0 0,0 0,0 0,0 0,0 0,0 0,0 0,0 0,0 0,0 0,0 0,0 0.1,0 0.1,0 0.2,0 0.1,0 0.1,0 0.1,0.1 0,0 0,0 0,0 0.1,0 0.1,0 0.1,0.1 0.1,0 0.1,0 0.2,0.1 0,0 0,0.1 -0.1,0.1 0,0 0,0 0,0 0,0 0.1,0 0.1,0 0.1,0 0.1,0 0.2,0 0,0 0.1,0 0.1,-0.1 M 7,15 7,15 c 0,0 -0.1,-0.1 0,0 -0.1,-0.1 -0.1,-0.1 0,0 -0.1,0 0,0 0,0 M 6.9,14.9 c 0,0 0,0 0,0 l 0,0 0,0 m 0,0 c 0,0 0,0 0,0 l 0,0 c 0,0 0,0 0,0 m 0,0 c 0,0 0,0 0,0 l 0,0 c 0,0 0,0 0,0 m 0,0 c 0,0 0,0 0,0 l 0,0 c 0,0 0,0 0,0 m 2,-1.3 c 0,0 0,0 0,0 0,0 -0.1,-0.1 0,0 -0.1,0 -0.1,0 -0.1,0 0,0 0,0 0,0 0,0 0,0 0,0 0,0 0,-0.1 0,-0.1 0,0 0,0 -0.1,0 0,0 0,0 0,0 0,0 0,0.1 -0.1,0.1 0,0 0,0 0,0.1 0.1,-0.1 0.2,-0.1 0.3,-0.1 -0.1,0 0,0 0,0 m -6.2,-0.3 0,0 c 0,-0.1 0,-0.1 0,0 0,-0.1 0,-0.1 0,0 0,-0.1 0,-0.1 0,-0.1 0,0 0,-0.1 0,-0.1 0,0 0,0 0,0 0,0 0,0 -0.1,0 0,0 0,0 0,0 l 0,0 c 0,0 0,0.1 0,0.1 0,0 0,0 0,0 0,0 0,0 0,0.1 l 0,0 c 0,0 0,0 0,0 0,-0.1 0,-0.1 0.1,0 -0.1,-0.1 -0.1,-0.1 0,0 0,-0.1 -0.1,-0.1 0,0 -0.1,-0.1 -0.1,-0.1 0,0 -0.1,-0.1 0,0 0,0 0,0 0,0 0,0 0,0 0,0 0,0 m 6.6,6.5 c 0,0 0,0 0,0 -0.1,-0.1 -0.1,-0.1 -0.1,-0.3 0,0 -0.4,-0.3 -0.5,-0.2 0,0 -0.1,0 -0.1,0 0,0 0,0 0,0 l 0,0 C 8.5,19.2 8.3,19.2 8.2,19.2 c 0,0 -0.3,0 -0.3,0 0,0 0,0 0,0 C 7.9,19 8,19 7.8,19 c 0,0 0.1,0 0.1,0 0.1,0 0.2,0 0.2,0 -0.1,0 0,0 -0.1,-0.1 0,0 0,0 -0.1,0 0,0 0,0 0,0 0,0 0,0 0,-0.1 0,0 0,0 0,0 0,0 0.1,0 0.1,0 l 0,0 0,0 c -0.2,0 -0.3,0 -0.5,0 -0.1,0 -0.3,-0.1 -0.4,-0.1 0,0 0,-0.1 0,-0.1 0,0 0,0 0,0 0,0 0,0 0,0 l 0,0 0,0 c 0,0 0,0 -0.2,0.1 0,0 0,0 0,0 0,0.1 0.1,0.1 0.1,0.2 0,0 0,0 -0.1,0 -0.1,-0.1 -0.1,-0.1 0,-0.2 0,-0.1 0,-0.1 0,-0.1 0,0 0.1,0 0.1,0 0,0 0.1,0 0.1,0 0,0 -0.1,0 -0.1,0 0,0 0,0 0,0 0,0 -0.3,0.3 -0.3,0.3 0,0 0,0 0,0 0,0 0,-0.3 -0.2,-0.4 -0.1,0 -0.2,0 -0.3,0 -0.2,0 -0.4,-0.3 -0.3,-0.5 0,0 0,-0.1 0,-0.2 0,0 -0.1,0 -0.1,0 0,-0.1 -0.2,0 -0.2,-0.1 -0.1,0 -0.3,0 -0.3,0 0,0 0,0 0,0 l 0,0 0,0 c 0.1,-0.1 0.1,-0.1 0.1,-0.3 0,0 0,0 0,-0.1 l 0,0 c 0,0 0,0 0,-0.1 l 0,0 c 0,0 0,0 0,0.1 0,-0.1 0,-0.1 0,-0.2 0,0 0,0 0,0 l 0,0 0,-0.1 c 0.1,0 0.1,0 0.1,0 -0.2,-0.1 -0.3,0 -0.4,0 -0.1,0 0,0 -0.1,0 0,0.1 0,0 -0.1,0 0,0 0,0 0,0 0,0 0,0.2 0,0.2 0,0 0,0.1 0,0.1 0,0 0,0 0,0 0,0 0,0 0,0 -0.1,0 -0.3,0 -0.4,0 C 4.2,17 4.2,17 4.2,16.9 c 0,-0.3 0.1,-0.8 0.1,-0.8 l 0,-0.1 c 0,0 0,0 0,0 0,0 0.1,0 0.1,0 0,0 0,0 0,0 0.1,0 0.1,0 0.2,-0.1 0,0 0,0 0,-0.1 l 0,0.1 c 0.1,0 0.2,0.1 0.3,0.1 0,0 0,0 0,0 l 0,-0.1 0,0 0,0 c 0,0 0.1,0.1 0.1,0.1 0,0 0.1,0 0.1,0 0,0 0,0 0,0 L 5,15.9 c 0,0 0,0 0,0 l 0.1,0 0,0 0,0 c 0,0 0.1,0.1 0.1,0.1 0,0 0,0 -0.1,-0.1 0,0 0,0 0,0 0,0 0,0 -0.1,0 0,0 0,0 0,0 0,0 0,0 0.1,0 0.1,0 0.1,0 0.2,0 0,0 0,0 0,0 0,0 0,0 0,0 0,0 0,0 0.1,0.1 0,0 0,0 0,0 0.1,0 0.1,0 0.1,0 0.2,0.1 0.2,0.1 0.2,0.1 0,0 0,0 0.2,0.1 C 6,16 6,16 6,16.1 c 0,0 0,0 0,0 0,0 0,0 0,0 0,0 0,0 0,0 0,0 0,0 0,0 0,0 0,0.1 0,0.1 0,0 0,0 0,0 0,0 0,0 0,0.1 0,0.1 0.1,0.1 0.1,0.2 0,0 0.1,-0.3 0.1,-0.3 0,0 0,-0.2 0,-0.2 0,0 0,0 0,0 C 6.3,16 6,15.7 6.1,15.4 6.2,15.2 6.5,15.2 6.7,15 l 0,0.1 0,0 0,0 0,0 0,0 c 0,0 0,0 0,0 0,0 0,0 0,0 0,0 0,0 0,0 0,0 0,0 0,0 0,0 0.1,0 0.1,0 0,0 0,0 0,0 0,0 0,0 0,0 0,0 0,0 0,0 0,0 0,0 0,0 l 0,0 c 0,0 0,0 0,0 0,0 0,0 0,0 l 0,0 c 0,0 0,0 0,0 0,0 0,0 0,0 0,0 -0.1,0 -0.1,0 0,0 0.1,0 0.1,0 0,0 0.1,0 0.1,0 v 0 l -0.1,0 0,0 0,0 0.1,0 0,0 v 0 l 0,0 c 0,0 0,0.1 0,0.1 0,0 0,0 0,0 0,0 0,-0.1 0,-0.1 0,0 0,0 0,0 l 0,0 0,0 0,0.1 c 0,0 0,0 0,0 0,0 0,-0.1 0,-0.1 0,0 -0.1,-0.1 -0.1,-0.1 l 0,0 c 0,0 0,0 0.1,0 0,0 0,0 0,0 0,0 0,0.1 0,0.1 0,0 0,0.1 0,0.1 0,0 0,0 0,0 l 0,0 0,0 c 0,0 0,0 0,0 l 0,-0.1 c 0,0 0,-0.1 -0.1,-0.1 0,0 0,0 0,0 0,0 0,0 0,0 0,0 -0.1,0 -0.1,-0.1 0,0 0.1,0 0.1,0 l 0.1,0 c 0,0 0,0.4 0,0.4 0,0 -0.2,0 -0.2,0 0,0 0,-0.2 0,-0.2 0,0 0,-0.1 0,-0.1 0,0 0,0.2 0.1,0.2 0,0 0,0.1 0,0.1 0,0 0,0 0,0 h 0 c 0,0 0,0 0,0 0,0 0,-0.3 0,-0.3 0,0 0,-0.1 0,-0.1 l 0,0.2 0,0.2 c 0,0 0,0 0,0 l 0,-0.3 0,-0.1 0,-0.1 0,0.2 0,0.3 h 0 l 0,-0.2 0,-0.2 c 0,0 0,0.5 0,0.5 0,0 -0.1,0 -0.1,0 l 0,-0.2 0.1,-0.1 0,-0.1 c 0,0 0,0 0,0 l 0,0 0,0 0,0 c 0,0 0,0 0,0 0,0 0,0 0,0 0,0 0,0 0,0 l 0,0 0,0 0,0 0,0 0,0 0,0 0,0 c 0,0 0,0.3 0,0.3 0,0 0,0 0,0 0,0 0,0 0,0 0,0 0,-0.1 0,0 l 0,-0.1 c 0,0 0,-0.1 0,-0.1 C 7,14.7 7,14.4 7,14.3 7,14.3 7,14 7,14 h 0 l 0,0.5 c 0,0 0,0.5 0,0.5 0,0 -0.1,0 -0.1,0 0,0 0,-0.4 0,-0.4 l 0,0 c 0,0 0.1,-0.1 0.1,-0.1 0,-0.1 0.1,-0.1 0,-0.2 l 0,0 c 0,0 0,0 0,0 0.1,0 0.2,-0.1 0.3,-0.1 0,0 0,0 0,0 0,0 0,0 0,0 0,0 0,0 0,0 0,0 0,0 0,0 0,0 0,0 0,0 0,0 0,0 0,0 0,0 0,0 0,0 0,0 0,0 0,0 0,0 0.2,0 0.2,0 0,0 0.1,0 0.1,0 0,0 0,0 0,0 L 7.7,14 c 0,0 0.3,0 0.3,0 0,0 0,0.2 0,0.2 l -0.2,0 -0.1,0 c 0,0 -0.1,-0.1 -0.1,-0.1 0,0 0,0 0,0 0,0 0,0 0,0 0,0 0.1,0 0.1,0 0,-0.1 0.2,-0.1 0.2,-0.1 0,0 0,0 0,0 l -0.1,0 -0.1,0.1 0,-0.1 c 0,0 0,0 0,0 l 0,-0.1 0,0 0,0 0,0 0,0 c 0,0 0,0.1 0,0 0,0 0,0.1 0,0.1 h 0 l 0,-0.1 0,0 0,0 0,0 c 0,0 0,0 0,0 0,0 0,0 0,0 0,0 0,0 0,0 0,0 0,0 0,0 0,0 0,0.1 0.1,0.1 0,0 0,0.1 0,0.1 0,0 0,0 0,0 l 0,-0.1 0,-0.1 0,0 c 0,0 0.1,0 0.1,0 0,0 0,0 0,0 l 0,0 c 0,0 0.1,0 0.1,-0.1 l 0,0.2 0,0.2 c 0,0 0,0 0,0 0,0 0,-0.2 -0.1,-0.1 0,0 0,-0.1 0,-0.1 0.1,0 0.2,-0.1 0.2,-0.1 0,0 -0.1,0 -0.1,0 0,0 -0.2,0 -0.2,0 l -0.2,0 V 14 h 0.2 l 0,0 0,0 c 0,0 0.1,0 0.1,0 l 0,0 0,0 0,0 0,0 c 0,0 0,0 -0.1,0 0,0 0,0 0,0 L 8,13.8 c 0,0 0,0 0,0 l 0.1,0 c 0,0 0,0 0,0 l 0,0 0,0 c 0,0 0,0 0,0.1 0,0 0,0 0,0 0,0 0,0 0.1,0 0,0 0,0 0,0 0,0 0,0 0,0 0,0 0,0 0,0 l 0,0 c 0,0 0.1,-0.1 0.1,-0.1 0,0 0,0.1 0,0.1 l 0,0.1 c 0,0 0,0 0,0 L 8.1,13.9 8,13.8 v 0 c 0,0 0.3,0 0.3,0 l 0.1,0 0.1,0 0,0 c 0.1,0 0.1,0 0.2,-0.1 0,0 0,0 0,0 0,0 0,0 0,0 0,0 0,0 0,0 l 0,0 0,0 0,0 c 0,0 0,0 -0.1,0 l 0,0 0,0 0,0 c 0,0 -0.1,0 -0.1,0 0,0 0,0.2 -0.1,0.2 0,0 0,0.2 0,0.2 0,0 0,0 0,0 l 0,-0.2 c 0,0 -0.1,-0.1 -0.1,-0.1 l 0,0.2 c 0,0 0,0.1 0,0.1 0,0 0,0 0,0 C 8.3,14.1 8,14 8,14 8,14 8,13.6 8,13.6 l 0.2,0 -0.1,0 c -0.1,0 -0.2,0 -0.2,-0.1 0,0 0,0 0,0 0,0 0.1,0 0.1,0 0,0 0.1,-0.1 0.1,-0.1 l -0.1,0 -0.1,0 c 0,0 0,0 0,0 0,0 0,0 0,0 0,0 0,0 0,0 0,-0.1 0.3,-0.1 0.3,-0.1 C 8,13.1 7.6,13.4 7.5,13.6 7.8,13 8.2,13 8.6,13 c 0.1,0 0.2,0 0.3,0 -0.5,0 -1,0 -1.5,0 -0.3,0 -0.5,0 -0.8,0 -1.7,0 -3.1,0 -3.9,0 0,0 0,0 0,0 0,0 0,0 0,0 0,0 0,0 0,0 0,0 0,0 0,0 0,0 0,0.3 -0.1,0.4 0,0 0,0 0,0 0,0 0,0 0,-0.1 0,0 0,0 0,0 0,0 -0.1,0 -0.1,0 0,0 0,0.1 0,0.1 0,0 0,0 0,0 l 0,0 0,0 0,0 c 0,0 0,0 0,0 0,0 0,0 0,0 0,0 0,0 0,0 0,0 0,0 0,0 0,0 0,0 0,0 0,0 0,0 0,0 0,0 0,0 0,0 0,0 0,0 0,0 0,0 0,0 0,0 0,0.1 -0.1,0.2 -0.2,0.4 0,0.1 0,0.1 -0.2,0.6 0,0 0,0 0,0 0,0 0,0 0,0 l 0,0.1 0,0 c 0,0 0,0 0,0 0,0 0,0 0,0 0,0 0,0.1 0,0.1 0,0 0,0 0,0 l 0,0 c 0,0.1 0.1,0.3 0,0.4 0,0 0.1,0 0.1,0 0,0 0,0 0,0 0,0 0,0 0,0 l 0,0 c 0,0 0.3,0 0.3,0 0,0.1 -0.7,0.1 0.3,0.2 0,0 0,0 0,0 0,0 0,0 0,0 0,0 0,0 0,0 0,0 0,0 0,0 0,0 0,0 0,0 -1,0 -1,0 -1,0 0,0 0,0 0,0 0,0 0,0 0,0 1,0 0.4,0.6 0.4,0.6 0,0 0.1,0 0.1,0 0,0 0.3,0.5 0.5,0.7 0,0 0.1,-0.1 0.1,-0.1 0,0 0,0 0,-0.1 0,0 0,0 0,0 0,-0.1 -0.1,-0.4 -0.1,-0.4 0,0 0,0 0,0 0,0 0,-0.1 0,-0.1 0,0 0,0 0,0 0,-0.2 -0.1,-0.3 -0.2,-0.5 0,0 0,-0.1 0,-0.1 0,0 0.1,0 0.1,0 l 0,0 c 0,0 0,0 0,0 0,0 0,0 0,0 0.1,0.8 0.1,0.8 0.4,1.1 0,0.1 0,0.1 0,0.1 l 0,0 c 0.1,0.2 0.2,0.3 0.3,0.5 0,0 0,0 0,0 0,0.1 0,0.1 0,0.2 0,0 0,0 0,0 0,0 0,0 0,0 0.1,0.2 0.6,0.5 0.6,0.5 0.1,0 0.2,0.1 0.3,0.1 0.1,0 0.2,-0.1 0.4,0 0.2,0.1 0.2,0.2 0.4,0.3 l 0.3,0 c 0,0 0,0 0,-0.1 0,0 0,0 0.1,0 0,0 0,0 0,0 0,0 0,0 0,0 0.1,0.1 0.2,0.2 0.3,0.2 l 0,0 0,0 0,0 c 0,0 0,0 0,0 0,0 0,0.1 0.1,0.1 l 0.1,0 c 0,0 0.1,0 0.1,-0.1 0,0 0,0 0,0 0,0 0.1,0.1 0.1,0.1 0,0 -0.1,0 -0.1,0 0,0 0,0 0,0 l -0.1,0 v 0.2 c 0,0.4 0,0.6 0,0.6 0,0 0,0 0,0 0.1,0 0.1,0 0.2,0 0,0 0,0 0,0 0,0 0,0 0,0 0,0 0,-0.1 0,-0.1 0,0 0.1,-0.1 0.1,-0.1 0,0 -0.2,-0.1 -0.2,-0.1 0,0 -0.2,-0.1 -0.2,-0.1 0,0 0,0 0,0 0,0 0.2,0 0.3,0 0,0 0.1,0 0.1,0 0.1,0 0.2,0 0.2,0.1 0,0 0.1,0.2 0.1,0.2 0,0 0,0.2 0.1,0.2 0,0 0,0 0,0 0,0 0,-0.1 0,-0.1 0,0 -0.1,-0.1 -0.2,-0.1 0,0 0,0 0,0 0,0 0,0 0,-0.1 -0.2,0 -0.1,0.2 -0.2,0.3 0,0 0,0 0,0 0,0 0,0 0,0 l 0,0 c 0,0 0,0 -0.1,-0.1 0,0 0,0 0,0 0,0 0,0.1 0,0.1 0,0 0,0 0,0 0,0 0,0 0,0 0,0 0,0.1 0,0.1 0.1,0.1 0.1,0.3 0.1,0.3 0,0 0,0 0,0 0,0 0,0 0,0.1 0,0 -0.1,0 -0.1,0 0,0 0,0 0,0.1 0,0 0,0 0,0 0,0 -0.1,0 -0.1,0.1 0,0 0,0 0,0.1 0.4,0 0.9,0 1.4,0 0.6,0 1.2,0 1.7,0 -0.1,0.1 0.1,0 0.1,-0.1"
           id="path81" />
        <path
           inkscape:connector-curvature="0"
           style="fill:#ff0000;fill-opacity:1"
           d="M 7.5,9 C 3.3,9 0,12.4 0,16.5 0,20.6 3.3,24 7.5,24 11.6,24 15,20.7 15,16.5 14.9,12.4 11.6,9 7.5,9 z m 6.2,9.6 c -0.1,0.3 -0.2,0.6 -0.4,0.9 -0.2,0.3 -0.3,0.6 -0.5,0.9 -0.2,0.3 -0.4,0.5 -0.6,0.8 -0.2,0.3 -0.5,0.5 -0.8,0.6 -0.3,0.2 -0.6,0.4 -0.9,0.5 -0.3,0.2 -0.6,0.3 -0.9,0.4 -0.3,0.1 -0.7,0.2 -1,0.2 C 8.2,23 7.9,23 7.5,23 1,22.7 -0.9,15.2 3.3,11.6 5,10.1 6.8,10 7.5,10 c 0.4,0 0.7,0 1.1,0.1 0.3,0.1 0.7,0.1 1,0.2 0.3,0.1 0.6,0.2 0.9,0.4 0.3,0.2 0.6,0.3 0.9,0.5 0.3,0.2 0.5,0.4 0.8,0.6 0.2,0.2 0.5,0.5 0.6,0.8 0.2,0.3 0.4,0.6 0.5,0.9 0.1,0.3 0.3,0.6 0.4,0.9 0.1,0.3 0.2,0.7 0.2,1 0.1,0.3 0.1,0.7 0.1,1.1 0,0.4 0,0.7 -0.1,1.1 0,0.3 -0.1,0.6 -0.2,1 z"
           id="path88" />
      </g>
      <path
         transform="matrix(0.20576921,0,0,0.22103409,-3.6509355,6.2442897)"
         d="m 88.459602,46.422535 c 0,17.605366 -15.342366,31.877335 -34.268135,31.877335 -18.925768,0 -34.268135,-14.271969 -34.268135,-31.877335 0,-17.605366 15.342367,-31.877335 34.268135,-31.877335 18.925769,0 34.268135,14.271969 34.268135,31.877335 z"
         sodipodi:ry="31.877335"
         sodipodi:rx="34.268135"
         sodipodi:cy="46.422535"
         sodipodi:cx="54.191467"
         id="path3765"
         style="fill:#ffffff;fill-opacity:1;fill-rule:evenodd;stroke:#c8c8c8;stroke-width:0.2;stroke-miterlimit:4;stroke-opacity:1;stroke-dasharray:none"
         sodipodi:type="arc" />
      <path
         style="fill:#ff0000;fill-opacity:1"
         id="path3"
         d="m 7.5358737,9.3997372 c -1.078582,0 -2.1003545,0.2412396 -3.0162103,0.6706618 6.418e-4,-0.0036 0.00224,-0.0066 0.00257,-0.01026 -0.092436,0.04296 -0.1839094,0.08784 -0.2745803,0.134806 0.00466,0.0014 0.010109,0.0019 0.015086,0.0031 -0.01669,0.0089 -0.033861,0.01699 -0.05039,0.02597 -0.0016,-0.0027 -0.00385,-0.0044 -0.00514,-0.007 -0.052477,0.02757 -0.104793,0.05498 -0.156307,0.08383 0.00514,9.66e-4 0.00979,0.0024 0.014764,0.0034 -0.054885,0.03061 -0.1094469,0.06171 -0.163368,0.09377 -0.00289,-0.0022 -0.00577,-0.0035 -0.00851,-0.0059 0.030651,-0.01795 0.060822,-0.03655 0.091473,-0.05401 -0.030972,0.01796 -0.062426,0.03574 -0.093239,0.05401 1.604e-4,1.61e-4 4.813e-4,3.22e-4 6.418e-4,4.81e-4 -0.012839,0.0076 -0.025838,0.01539 -0.038675,0.02308 0.00593,-6.4e-4 0.00914,0.0016 0.014283,0.002 -0.027763,0.01667 -0.054723,0.03431 -0.082166,0.0513 0.00193,-0.0056 0.00304,-0.01059 0.00514,-0.01635 0,0 -1.606e-4,0 -3.21e-4,1.6e-4 0,-1.6e-4 1.604e-4,-3.22e-4 1.604e-4,-4.81e-4 -0.00497,0.0033 -0.010109,0.0065 -0.015566,0.0098 0.00304,-0.0019 0.00594,-0.0035 0.00914,-0.0053 -0.010911,0.0068 -0.022147,0.01378 -0.033219,0.02067 0.00337,-0.0022 0.00658,-0.0043 0.00995,-0.0063 -0.031133,0.01923 -0.062587,0.03862 -0.093399,0.0585 0.020541,-0.01314 0.041404,-0.02581 0.062106,-0.03847 -0.020701,0.01314 -0.041083,0.02661 -0.061784,0.04007 0,0.0038 8.024e-4,0.0086 9.562e-4,0.01251 -0.00193,0.0012 -0.00385,0.0025 -0.00594,0.0038 -0.00193,-0.0031 -0.00321,-0.0065 -0.00561,-0.0094 0.00337,-0.0022 0.00658,-0.0045 0.00995,-0.0067 3.209e-4,-6.4e-4 0,-0.0012 0,-0.0018 -0.00369,0.0023 -0.00754,0.0049 -0.011395,0.0074 4.814e-4,1.61e-4 6.42e-4,8.01e-4 8.023e-4,0.0012 -0.1956243,0.126631 -0.3849899,0.261917 -0.5668132,0.406822 0.00145,0.0042 0.00385,0.008 0.00546,0.01186 -1.6274217,1.302212 -2.67085881,3.302977 -2.67085881,5.548349 0,3.924269 3.18375091,7.105746 7.11100291,7.105746 3.9272523,0 7.1111633,-3.181477 7.1111633,-7.105746 0,-3.924431 -3.183911,-7.105747 -7.1111633,-7.105747 z m 5.1051713,2.3700788 c 0.0072,0.01202 0.01573,0.02276 0.02232,0.0351 -0.185835,0.05417 -0.170269,-0.09232 -0.328502,-0.0654 0.06644,0.11461 0.11378,0.35136 0.262705,0.196679 0.01316,0.08752 0.09003,0.02789 0.159837,-0.03751 1.008614,1.140638 1.649569,2.613241 1.735425,4.233633 -0.08521,0 -0.170268,0 -0.25484,0 0.414036,0.642932 -0.469242,0.920077 -0.85311,1.18023 0.116989,0.271376 0.375522,-0.08303 0.524928,0.0654 -0.06451,0.657198 -0.529421,0.913185 -0.853108,1.31151 0.01637,0.498348 0.03482,0.632351 0,1.114511 -0.667273,0.455229 -0.710602,1.859388 -1.772174,1.704385 -0.175887,-0.479914 -0.182787,-1.128936 -0.393977,-1.573427 0.437306,-0.628985 -0.177973,-1.049752 -0.131272,-1.835505 -0.08811,-0.108676 -0.344389,-0.04889 -0.328181,-0.262398 -0.409383,0.141219 -0.703702,0.08352 -1.115813,0.13112 -0.2956031,-0.163652 -0.4140368,-0.504272 -0.6563608,-0.720987 0.221301,-0.635236 -0.1394565,-1.308624 0.5908851,-1.573587 -0.035145,-0.77982 1.2068037,-0.903406 1.7063787,-0.720994 0,0.08735 0,0.17472 0,0.262079 0.257569,0.04905 0.379854,0.232903 0.590885,0.327796 -0.01091,-0.164139 0.10126,-0.205333 0.197229,-0.262398 0.200277,0.127113 0.150688,0.30744 0.459452,0.196999 0.115384,0.03751 0.385472,-0.07934 0.393655,0.06555 0.09741,-0.05562 0.09501,-0.211105 0.131273,-0.327958 -0.06017,-0.223767 -0.404087,-0.164619 -0.591206,-0.262078 -0.08971,-0.08367 -0.08971,-0.309683 0,-0.393517 -0.417889,-0.03046 -0.0674,0.316577 -0.327859,0.393517 -0.04381,0 -0.08746,0 -0.131273,0 0.05649,-0.209341 -0.103189,-0.202769 -0.131271,-0.327797 -0.195304,-0.01619 -0.249224,0.444169 -0.459133,0.196679 0.466995,-0.07678 -0.26447,-0.660083 -0.328179,-0.393357 -0.01123,-0.09809 0.02343,-0.241881 -0.06579,-0.262238 -0.233177,0.07261 -0.384349,0.227935 -0.590885,0.327798 0,0.08736 0,0.174878 0,0.262238 -0.05793,0.02934 -0.1171504,0.0577 -0.1309519,0.130958 -0.1972289,0 -0.3939767,0 -0.5912059,0 -0.00321,-0.08367 -0.08361,-0.09071 -0.065475,-0.196999 0.096608,-0.143943 -0.00754,-0.48841 0.1972292,-0.524316 0.1887238,-0.09136 0.3334762,0.178727 0.393656,0 0.022305,0 0.043493,0 0.065798,0 0.029208,-0.24733 -0.1298277,-0.30776 -0.197229,-0.458754 0.00723,-0.123746 0.2172895,-0.04552 0.197229,-0.19684 0.5594316,-0.03094 0.5758006,-0.604941 0.9190646,-0.852112 -0.05521,0.07614 -0.08683,0.17568 -0.06548,0.327637 0.241681,0.06026 0.119075,-0.34575 0.06548,-0.393357 -0.152293,-0.02084 -0.251952,0.01042 -0.32818,0.06572 -0.09116,-0.084 -0.04011,-0.309524 -0.131272,-0.393678 0.415001,-0.372038 0.539371,-1.034684 1.247085,-1.11435 0.211192,0.05178 0.401521,0.124386 0.564888,0.224249 0.13737,0.126149 0.269766,0.258551 0.397348,0.395761 z m -2.932601,0.756579 c 0.34198,0.07357 0.2472982,0.583782 0.525249,0.721153 0,0.04345 0,0.08735 0,0.131119 -0.157912,-0.02677 -0.142667,0.119898 -0.3281801,0.06571 -0.1240508,-0.01474 -0.1447527,0.07358 -0.262384,0.0654 0.2655934,-0.348796 -0.075746,-0.637162 0.065316,-0.983392 z m -0.065155,0.786552 c -0.1097678,0 -0.2187334,0 -0.3285013,0 -0.025999,-0.244445 0.052638,-0.3847 0.2627047,-0.393356 0.075746,0.07758 0.074302,0.231942 0.065796,0.393356 z M 8.5929517,11.936359 c -0.057933,-0.138492 -0.1999574,-0.193794 -0.1972292,-0.393356 0.2627048,0.06429 0.3942978,0.06429 0.6566817,0 0.012517,0.05307 0.066117,0.0654 0.065475,0.130958 -0.00899,0.253261 -0.2562855,0.268649 -0.5249282,0.262398 z m -0.393977,0.393357 c -0.1006201,0.270893 -0.420777,0.322508 -0.6562002,0.458756 -0.074462,-0.01219 -0.03675,-0.06572 0,-0.06539 -0.00995,-0.121179 -0.222264,-0.04038 -0.2627048,-0.131117 -0.065957,-0.8013 0.9906393,-0.987239 0.918905,-0.262239 z m 4.9886633,8.195251 c -0.164492,-0.503798 0.198673,-0.704483 0.393655,-1.114511 0.19402,0.155644 -0.07896,0.396724 -0.06548,0.589875 -0.07078,0.121502 -0.159195,0.226012 -0.194019,0.384061 -0.0025,0.0034 -0.0047,0.0072 -0.0072,0.01089 -0.06997,0.01539 -0.0987,0.07214 -0.126938,0.129676 z M 8.6051481,9.6249476 c -0.00434,0.00561 -0.00626,0.00994 -0.011875,0.016029 0.041404,0.00849 0.09051,0.00898 0.1420242,0.00722 0.110089,0.019075 0.2190545,0.040554 0.3272176,0.064758 -0.1059164,0.048248 -0.1344818,0.1739174 -0.2716916,0.1902665 -0.047663,0.2003659 0.066759,0.2389959 0.065155,0.3933569 -0.1128171,0.02581 -0.168343,-0.09714 -0.1969083,0 0.2253131,0.290128 -0.3222427,0.542588 0,0.786713 -0.4780683,0.243805 -1.1516002,0.292213 -1.4441542,0.721154 -0.1418638,0.163976 -0.2070185,0.405054 -0.3938164,0.524312 -0.4682789,-0.134646 -0.5587893,-0.906613 -0.4178885,-1.202831 0.013479,-0.0098 0.023109,-0.0234 0.02343,-0.04216 -0.00851,0.01265 -0.016209,0.02677 -0.02343,0.04199 -0.034503,0.0242 -0.095645,0.0165 -0.1072001,-0.04264 0.3077994,-0.870219 -0.7510437,-0.615035 -0.9190657,-1.1145047 0.1094469,-0.08736 0.4178885,0.023882 0.3938164,-0.1966783 -0.0093,0.00128 -0.017492,0.00369 -0.026961,0.0048 0.5717881,-0.1516363 1.1721416,-0.2335455 1.7915922,-0.2335455 0.3639672,0 0.7208735,0.028051 1.0697557,0.08175 z M 4.2616126,10.359566 c 0.1328768,0.04328 0.2429657,0.06844 0.3928535,-0.06219 -0.085696,-0.0051 -0.1879214,0.0061 -0.2740988,0.0014 C 4.689932,10.141395 5.0124955,10.006428 5.3466136,9.8959875 5.0920932,10.027587 4.9237503,10.245263 4.7863799,10.493716 c -0.3066759,0.02982 -0.5456296,0.06011 -0.7393284,-0.01363 0.071093,-0.04135 0.1421847,-0.08207 0.2145611,-0.12054 z M 3.9465914,10.53765 c 0.014764,0.03158 0.042688,0.05002 0.1176313,0.02132 -0.069808,0.14859 -0.1989944,0.238194 -0.3938164,0.262239 0.048787,-0.06412 0.069969,-0.11477 0.080882,-0.160133 0.064673,-0.04183 0.1291858,-0.08383 0.1953034,-0.123425 z m -0.7590676,0.529766 c 0.00787,0.0054 0.015405,0.01138 0.02343,0.01619 -0.015566,0.180808 -0.2439287,0.149711 -0.3280199,0.262396 0.440195,0.130317 0.4583291,-0.392875 0.7219969,-0.06572 0.026962,-0.157726 -0.1198782,-0.142498 -0.065475,-0.327476 0.08377,-0.0035 0.090831,-0.08415 0.1970688,-0.06555 0.032097,0.373639 0.2448914,0.205173 0.3280199,0.458754 0.013962,-0.07358 0.072857,-0.102266 0.1312721,-0.130958 0.069808,-0.244445 -0.246336,-0.103709 -0.1969083,-0.327796 0.00914,-0.362582 0.5541354,-0.189467 0.7876328,-0.327799 0.00112,0.108359 0.1819836,0.03671 0.1969083,0.13112 -0.086178,-0.0086 -0.4748584,-0.01 -0.2625442,0.06555 0.6700014,-0.05257 0.6595702,0.445452 1.0501771,0.786873 -0.1290255,-0.01971 -0.1303092,0.08849 -0.1972291,0.130798 -0.08714,0.01 -0.1978711,-0.266405 -0.2623839,-0.06524 0.1436291,0.0096 0.1410614,0.1651 0.1311117,0.327796 -0.3254523,-0.106915 -0.037071,0.0077 -0.1970689,0.130958 -0.2450524,-0.12679 -0.4337762,-0.309842 -0.7221576,-0.393516 0.1611214,-0.05739 0.3784104,-0.05883 0.3939768,-0.262076 0.048787,-0.201969 -0.1805391,-0.12583 -0.1312721,-0.327798 -0.096288,6.41e-4 -0.5372848,-0.02469 -0.3281802,0.06571 0.053921,0.293977 -0.1884028,0.292693 -0.2627048,0.458917 0.096288,0.0569 0.2081417,0.09826 0.1970686,0.262238 -0.052796,-0.03462 -0.1065583,-0.06828 -0.1970686,-0.06555 -0.082646,0.01635 -0.066117,0.130476 0,0.131118 -0.011875,0.110762 -0.3118115,-0.0303 -0.2627048,-0.196678 -0.3110091,0.104189 -0.463946,0.366909 -0.6562004,0.590035 0.056328,0.249736 0.3060344,0.306317 0.5249282,0.393356 0.052958,0.03478 0.1068793,0.06844 0.1972292,0.0654 -0.047502,0.200526 0.06708,0.238835 0.065475,0.393358 0.2238688,-0.527041 0.416444,-0.391274 0.393977,-1.245631 0.055847,0.01186 0.061945,-0.02564 0.065475,-0.06555 0.064514,-0.0056 0.155986,0.173116 0.3939769,0.130959 0.1667381,0.05194 0.035466,0.401692 0.2623838,0.393518 0.2124747,0.0811 0.050069,-0.212068 0.2627048,-0.131281 0.2055742,0.611995 0.5626408,0.923604 0.6563608,1.50803 -0.2005993,0.04745 -0.2391144,-0.067 -0.393656,-0.0654 -0.2294856,0.0585 -0.1121751,-0.21383 -0.065796,-0.262398 0.094362,-0.03671 0.1601584,-0.102427 0.1970688,-0.196839 -0.2474593,0.06219 -0.4446885,0.406821 -0.6563608,0.13112 0.054242,0.185137 -0.092436,0.169908 -0.065637,0.327796 -0.012196,0.05579 0.025516,0.06187 0.065637,0.06555 0.050872,0.01458 0.1296673,0.0016 0.1311116,0.0654 0,0.02212 0,0.04361 0,0.06572 -0.3121324,0.201648 -1.1260839,0.434231 -1.2470854,1.180071 -0.1924146,0.0042 -0.2437682,0.149873 -0.3280199,0.262237 -0.1391356,0.0585 0.1298278,0.458595 -0.065795,0.590195 -0.1587141,-0.08207 -0.2121538,-0.26897 -0.2627048,-0.458915 -0.5968228,-0.34591 -1.6790959,0.74712 -0.6563607,0.983552 0.021986,0 0.043812,0 0.065795,0 -0.023751,-0.207899 0.3601158,-0.293656 0.3934954,-0.06555 -0.097251,0.05579 -0.1410613,0.16478 -0.1311117,0.327476 -0.011073,0.142499 0.2328558,0.03013 0.3281804,0.06572 -0.018454,0.29045 -0.1392961,0.541626 0.1969083,0.589875 0.051033,0.01474 0.129828,0.0019 0.1314326,0.06571 0.2577299,-0.02661 0.2803575,-0.288044 0.5250886,-0.327797 0.1469992,0.136249 0.4238262,0.192191 0.8531084,0.196679 0.092115,0.410668 0.5905643,0.415476 0.8531087,0.655915 0,0.108999 0,0.218157 0,0.327797 0.4689207,0.121821 0.8149143,0.366268 1.2470854,0.524154 -0.061784,0.616163 -0.4681183,0.887539 -0.4591315,1.573749 -0.1765275,0.0864 -0.3492032,0.176 -0.5252492,0.262077 -0.060821,0.431025 -0.344389,0.951974 -0.7221573,0.852113 -0.026801,0.158047 0.1200385,0.142499 0.065475,0.328116 -0.6722491,0.189785 -0.5226823,0.598209 -0.6303639,1.1315 C 4.771936,22.898894 4.6042351,22.824357 4.4400648,22.743088 4.1796067,22.231917 4.6153082,21.288919 4.4580386,20.356821 4.3355935,19.630537 3.3011432,19.211855 3.4847318,18.347238 3.6017211,18.204741 3.7378076,18.081475 3.8090605,17.893292 3.3367695,17.198586 2.4095197,16.957506 1.732457,16.467334 1.7513934,16.10267 1.6185167,15.889642 1.4079678,15.754356 1.4188803,15.93805 1.5270434,16.024447 1.5381163,16.207982 1.0812315,15.762369 0.91497493,15.05949 0.89555688,14.392354 1.3177783,13.067861 2.1259525,11.916162 3.1875238,11.067416 z m 1.3358305,5.392705 c 0.022628,0.281313 -0.2391142,0.177124 -0.3936559,0.131119 0.060181,-0.114609 0.2049323,-0.144905 0.3936559,-0.131119 z M 3.3419049,16.197723 c 0.1778112,-0.286442 0.6260302,0.114609 0.7877935,0.262559 -0.3573876,0.0068 -0.4105063,-0.28997 -0.7877935,-0.262559 z"
         inkscape:connector-curvature="0" />
    </g>
  </g>
</svg>
