<?xml version="1.0" encoding="UTF-8" standalone="no"?>
<svg
   xmlns:dc="http://purl.org/dc/elements/1.1/"
   xmlns:cc="http://creativecommons.org/ns#"
   xmlns:rdf="http://www.w3.org/1999/02/22-rdf-syntax-ns#"
   xmlns:svg="http://www.w3.org/2000/svg"
   xmlns="http://www.w3.org/2000/svg"
   xmlns:sodipodi="http://sodipodi.sourceforge.net/DTD/sodipodi-0.dtd"
   xmlns:inkscape="http://www.inkscape.org/namespaces/inkscape"
   width="24.000002"
   height="24"
   viewBox="0 0 19.200002 19.2"
   version="1.1"
   id="svg2"
   inkscape:version="0.48.3.1 r9886"
   sodipodi:docname="icon.svg" preserveAspectRatio="xMinYMid meet">
  <metadata
     id="metadata10">
    <rdf:RDF>
      <cc:Work
         rdf:about="">
        <dc:format>image/svg+xml</dc:format>
        <dc:type
           rdf:resource="http://purl.org/dc/dcmitype/StillImage" />
        <dc:title />
      </cc:Work>
    </rdf:RDF>
  </metadata>
  <defs
     id="defs8" />
  <sodipodi:namedview
     pagecolor="#ffffff"
     bordercolor="#666666"
     borderopacity="1"
     objecttolerance="10"
     gridtolerance="10"
     guidetolerance="10"
     inkscape:pageopacity="0"
     inkscape:pageshadow="2"
     inkscape:window-width="1022"
     inkscape:window-height="549"
     id="namedview6"
     showgrid="false"
     inkscape:zoom="0.8167083"
     inkscape:cx="9.366307"
     inkscape:cy="11.156989"
     inkscape:window-x="0"
     inkscape:window-y="26"
     inkscape:window-maximized="0"
     inkscape:current-layer="svg2"
     fit-margin-top="0"
     fit-margin-left="0"
     fit-margin-right="0"
     fit-margin-bottom="0">
    <inkscape:grid
       type="xygrid"
       id="grid3844"
       empspacing="5"
       visible="true"
       enabled="true"
       snapvisiblegridlinesonly="true"
       originx="-5.2001849e-08px"
       originy="-0.50009252px" />
  </sodipodi:namedview>
  <path
     style="font-size:medium;font-style:normal;font-variant:normal;font-weight:normal;font-stretch:normal;text-indent:0;text-align:start;text-decoration:none;line-height:normal;letter-spacing:normal;word-spacing:normal;text-transform:none;direction:ltr;block-progression:tb;writing-mode:lr-tb;text-anchor:start;baseline-shift:baseline;color:#000000;fill:#000000;fill-opacity:1;stroke:#000000;stroke-width:0.80000002000000003;marker:none;visibility:visible;display:inline;overflow:visible;enable-background:accumulate;font-family:Sans;-inkscape-font-specification:Sans;stroke-miterlimit:4;stroke-dasharray:none;stroke-opacity:1"
     d="m 9.9747707,2.3982404 c -0.3578288,-0.00214 -0.7056276,0.035187 -1.0398349,0.074851 -0.00209,2.143e-4 -0.00426,0 -0.00635,0 C 8.00386,2.5632846 7.1307705,2.8508813 6.3611216,3.2445291 l -0.00476,0.00257 -0.00397,0.00257 C 6.171031,3.3514379 6.0129578,3.4571249 5.8558823,3.5465903 l -8.037e-4,0 c -0.440795,0.2524531 -0.7836874,0.5793071 -1.0858385,0.9091184 -0.0022,0.00236 -0.00494,0.0045 -0.00714,0.00708 l 8.037e-4,0 C 4.4949001,4.7318192 4.3172224,5.0296585 4.138687,5.3033691 l -0.00476,0.00708 -0.00317,0.0075 C 3.8708133,5.8135897 3.6947744,6.3394746 3.6056841,6.8697097 l -8.038e-4,0.00643 -8.037e-4,0.00643 c -0.07845,0.9161469 0.095751,1.85908 0.5996302,2.6994332 0.00102,0.00214 0.00214,0.00343 0.00317,0.00515 0.2374028,0.4247201 0.5228123,0.8176601 0.774126,1.2117371 l 8.037e-4,0.0021 8.037e-4,0.0021 c 0.3636904,0.544914 0.7553327,1.065913 1.0564914,1.610141 5.626e-4,0.0021 0.00102,0.0021 0.00158,0.0032 0.1273504,0.241803 0.2032167,0.505292 0.2316033,0.772081 l 0,0.0032 8.038e-4,0.0026 c 0.037695,0.261946 0.032993,0.57665 0.2086017,0.883104 0.00271,0.006 0.00594,0.01136 0.00873,0.01715 0.1523014,0.31944 0.4136413,0.54142 0.549661,0.765738 0.035766,0.07363 0.03055,0.16408 0.00793,0.289932 -0.023048,0.12823 -0.066523,0.287296 -0.013484,0.468198 0.039357,0.13423 0.132921,0.208524 0.1824272,0.262011 0.012849,0.01393 0.014869,0.01757 0.021414,0.02602 -0.027458,0.01393 -0.060564,0.0292 -0.1015248,0.0609 -0.046439,0.03591 -0.1025978,0.09958 -0.1126288,0.17953 -0.01089,0.0868 0.031564,0.164274 0.072971,0.211889 0.027184,0.03127 0.053762,0.05325 0.07773,0.07233 -0.024658,0.01478 -0.050337,0.03197 -0.074557,0.05584 -0.05616,0.05531 -0.090812,0.135902 -0.0928,0.213796 -0.00369,0.144623 0.1054489,0.255496 0.1903587,0.316568 -0.023769,0.01393 -0.049513,0.03054 -0.07773,0.05393 -0.049535,0.04104 -0.1079932,0.114173 -0.1102493,0.201731 -0.00361,0.140231 0.1129675,0.225089 0.1713229,0.265825 0.041234,0.02878 0.06342,0.0489 0.069005,0.05139 0.00121,0.0045 0.00767,0.03444 0.012691,0.0996 0.00531,0.06887 0.016594,0.180859 0.1189742,0.280418 6.43e-4,0 9.377e-4,0.0021 0.00158,0.0021 0.1217372,0.119315 0.2528295,0.199223 0.3458185,0.275317 l 8.037e-4,0.0021 0.00158,0.0021 c 0.1559647,0.123452 0.3342788,0.197788 0.485415,0.268996 0.1511362,0.0712 0.272553,0.137594 0.3426459,0.211909 l 0.011898,0.012 0.013484,0.01071 c -0.0057,-0.0043 0.026135,0.0468 0.068212,0.135151 0.021039,0.04417 0.048309,0.09731 0.1054903,0.152252 0.057181,0.05494 0.154228,0.106352 0.2601572,0.12118 l 0.00793,0.0021 0.00793,0 c 0.5475266,0.04609 1.1039579,0.04626 1.6513629,-0.0064 l 0,-0.0021 c 0.0951,-0.006 0.193807,-0.04294 0.247466,-0.08946 0.06331,-0.05487 0.08591,-0.106286 0.104698,-0.147815 0.03629,-0.08025 0.07852,-0.13153 0.03807,-0.10213 0.233392,-0.181095 0.49901,-0.321004 0.78523,-0.507541 l 0.0016,0 0.0016,-0.0021 c 0.105114,-0.07059 0.278467,-0.145737 0.448136,-0.244888 0.16967,-0.09913 0.355603,-0.240153 0.394994,-0.454226 0.01621,-0.08814 -0.02403,-0.169781 -0.06504,-0.220139 -0.04101,-0.05038 -0.08342,-0.08169 -0.115006,-0.10723 -0.0025,-0.0021 -0.0024,-0.0021 -0.0048,-0.0038 0.03165,-0.01821 0.07164,-0.04113 0.115802,-0.07931 0.04783,-0.04136 0.102537,-0.111044 0.107078,-0.196032 0.0047,-0.08777 -0.0456,-0.16273 -0.09042,-0.207452 -0.03,-0.02991 -0.05724,-0.05035 -0.08249,-0.06788 0.01857,-0.01071 0.032,-0.01543 0.05394,-0.03233 0.04774,-0.03675 0.106856,-0.104551 0.113422,-0.188423 0.0069,-0.08825 -0.04232,-0.16601 -0.08804,-0.212532 -0.04572,-0.04654 -0.08975,-0.07402 -0.122941,-0.09643 -0.0023,-0.0021 -0.0018,-0.0021 -0.004,-0.0032 0.0066,-0.0047 0.0066,-0.0054 0.01428,-0.01071 0.03488,-0.024 0.08007,-0.05385 0.126906,-0.100244 0.04684,-0.04637 0.09789,-0.118587 0.09994,-0.206189 0.0019,-0.0825 -0.04237,-0.152444 -0.08328,-0.196652 -0.04091,-0.04423 -0.08025,-0.07211 -0.109455,-0.0939 -0.0019,-0.0021 -0.0013,-0.0021 -0.0032,-0.0026 0.0029,-0.0024 0.0013,-0.0021 0.0048,-0.0045 0.05708,-0.04212 0.179084,-0.109052 0.210185,-0.25884 0.03216,-0.154866 -0.04108,-0.277117 -0.09121,-0.363518 -0.01883,-0.03247 -0.03188,-0.05708 -0.04442,-0.08184 0.04433,-0.02503 0.09056,-0.05527 0.135629,-0.09707 l 0.0016,-0.0021 0.0016,-0.0021 c 0.22061,-0.213046 0.414662,-0.452471 0.550452,-0.716259 l 0.0032,-0.0058 0.0024,-0.0052 c 0.203064,-0.473342 0.112594,-0.930848 0.224465,-1.303088 l 8.04e-4,-0.0021 0,-0.0021 c 0.125467,-0.457163 0.447719,-0.879611 0.738433,-1.340503 l 8.03e-4,0 0,0 c 0.146292,-0.235974 0.320409,-0.470534 0.479861,-0.723244 5.36e-4,0 0.0011,-0.0021 0.0016,-0.0026 0.416396,-0.637786 0.898046,-1.2905511 1.117563,-2.0402604 5.36e-4,-0.00214 0.0011,-0.003 0.0016,-0.0045 0.462583,-1.4436821 0.08362,-3.0430446 -1.050148,-4.2347236 -0.0019,-0.00214 -0.0044,-0.00407 -0.0063,-0.00643 C 14.408092,3.8792086 13.809269,3.480418 13.180861,3.1543355 l 0,0 C 12.792907,2.9526258 12.375535,2.8382172 11.991915,2.7146801 l -8.04e-4,0 -8.04e-4,0 C 11.453189,2.5449851 10.891581,2.4637055 10.339736,2.4139692 l -8.03e-4,0 -8.04e-4,0 c -0.122145,-0.0105 -0.24325,-0.015429 -0.3632706,-0.015857 z m -0.00238,0.3901548 c 0.1056333,2.143e-4 0.2103413,0.0045 0.3140913,0.013286 l 0,0 c 0.52825,0.047658 1.046456,0.1247587 1.523664,0.2753392 l 0,0 c 0.39812,0.1282087 0.782159,0.2369814 1.104875,0.4047477 l 8.04e-4,0 c 0.59729,0.3099467 1.147774,0.6809013 1.544285,1.1355997 l 0.0032,0.00322 0.0032,0.00386 c 1.043054,1.0923563 1.397814,2.5814032 0.970036,3.9111696 l -8.04e-4,0.00257 -8.04e-4,0.00214 c -0.197147,0.6766126 -0.652146,1.3046063 -1.077197,1.9558919 l -8.04e-4,0.0021 -8.04e-4,0.0021 c -0.149501,0.237196 -0.324668,0.472378 -0.482242,0.726395 -2.65e-4,0 -5.36e-4,0 -8.03e-4,0.0021 -0.277029,0.439012 -0.628165,0.888696 -0.777299,1.428061 -2.68e-4,0.0021 -0.0013,0.0026 -0.0016,0.0038 l 8.04e-4,0 c -0.139953,0.469505 -0.06087,0.906482 -0.210981,1.259951 -0.112225,0.215295 -0.27525,0.419383 -0.467171,0.605235 -0.02287,0.02122 -0.08091,0.04863 -0.175289,0.09579 l -0.118181,0.05901 0.0032,0.111023 c 0.0042,0.147838 0.08024,0.254082 0.12532,0.331783 0.03904,0.06729 0.05006,0.102708 0.05076,0.123087 -0.0066,0.0054 -0.02239,0.022 -0.0579,0.04821 -0.06312,0.04659 -0.193682,0.131444 -0.196704,0.289289 -0.0016,0.08246 0.04237,0.151931 0.08328,0.196032 0.04091,0.0441 0.08031,0.07151 0.109456,0.09326 9.11e-4,0 6.97e-4,0 0.0016,0.0021 -0.0087,0.0062 -0.0097,0.0077 -0.02062,0.01522 -0.0352,0.02421 -0.08089,0.05388 -0.127699,0.100866 -0.04681,0.04701 -0.09664,0.120859 -0.09677,0.208739 -1.27e-4,0.08758 0.05106,0.159859 0.09677,0.204281 0.03489,0.0339 0.06456,0.052 0.0928,0.07104 -0.01938,0.01093 -0.0339,0.0165 -0.05711,0.03426 -0.0477,0.03662 -0.107266,0.103972 -0.114215,0.18778 -0.0073,0.08797 0.04161,0.165109 0.08646,0.210624 0.03633,0.0369 0.07036,0.05985 0.09915,0.07931 -0.02856,0.0165 -0.05874,0.03285 -0.09597,0.06407 -0.04764,0.03997 -0.103075,0.10678 -0.111835,0.190975 -0.0091,0.0879 0.03407,0.163694 0.07535,0.211888 0.04128,0.04819 0.08282,0.07931 0.113422,0.104037 0.01863,0.01501 0.02266,0.0195 0.03173,0.02793 -0.02346,0.05117 -0.08012,0.101915 -0.18798,0.164937 -0.129097,0.07545 -0.308715,0.150366 -0.471931,0.259482 -8.57e-4,0 -0.0015,0.0021 -0.0024,0.0021 -0.260611,0.169609 -0.539529,0.315369 -0.812198,0.52657 -6.96e-4,0 -0.0017,0 -0.0024,0.0021 l 8.04e-4,0 c -0.133659,0.102301 -0.136324,0.188745 -0.153081,0.236639 -0.481506,0.0436 -0.972731,0.04384 -1.4586238,0.0052 -0.00398,-0.0058 -0.00786,-0.009 -0.017449,-0.02917 -0.025371,-0.05327 -0.049212,-0.154437 -0.1610116,-0.253139 l 8.037e-4,0 c -0.00526,-0.0056 -0.011287,-0.0099 -0.016656,-0.01522 -0.00287,-0.003 -0.00583,-0.0054 -0.00873,-0.0084 C 8.7861065,18.34393 8.616016,18.260057 8.4645151,18.188678 8.3037984,18.112948 8.1619742,18.047461 8.0742797,17.978054 7.9507657,17.87736 7.8351832,17.803816 7.7601876,17.729994 l -0.00158,-0.0021 -8.037e-4,0 c 0.00268,0.0026 -0.00463,-0.004 -0.00873,-0.05711 -0.00409,-0.05306 0.00388,-0.142716 -0.059487,-0.249325 -0.039202,-0.06593 -0.084486,-0.101616 -0.1245265,-0.128766 0.025028,-0.01436 0.052704,-0.0311 0.083282,-0.05584 0.049334,-0.0399 0.1083227,-0.109609 0.1142154,-0.196653 0.00601,-0.08884 -0.053967,-0.179016 -0.1086633,-0.223331 -0.054697,-0.04429 -0.099527,-0.06379 -0.1269057,-0.07929 -0.015715,-0.0088 -0.015967,-0.0064 -0.021417,-0.0075 0.020948,-0.0073 0.04339,-0.0135 0.088041,-0.0387 0.057424,-0.03238 0.1358437,-0.113037 0.1443552,-0.197938 0.00869,-0.08668 -0.035481,-0.162431 -0.076937,-0.209359 -0.033802,-0.03825 -0.065294,-0.06326 -0.0928,-0.08439 0.020018,-0.01115 0.035727,-0.01779 0.06028,-0.03615 0.046006,-0.03444 0.1031461,-0.09428 0.1173879,-0.173188 0.028021,-0.155273 -0.073768,-0.26771 -0.137217,-0.336239 -0.063448,-0.06855 -0.098691,-0.115651 -0.099938,-0.119916 -0.022298,-0.07605 -0.00356,-0.183967 0.021414,-0.322911 0.024974,-0.138945 0.052669,-0.314554 -0.041244,-0.498007 l -0.00238,-0.0052 -0.00317,-0.0052 C 7.301018,14.39736 7.0459857,14.181314 6.9392501,13.948618 l -0.00396,-0.0088 -0.00476,-0.0084 C 6.8074966,13.724987 6.7996742,13.455884 6.7576178,13.160681 6.7574147,13.158568 6.7570283,13.15684 6.756814,13.15492 6.7239394,12.852234 6.6378296,12.550087 6.4879322,12.266712 l -8.038e-4,-0.0021 -8.037e-4,-0.0021 C 6.1690517,11.688366 5.7706609,11.15931 5.4147634,10.626331 c -6.966e-4,-0.0021 -0.00166,-0.0021 -0.00238,-0.0032 C 5.1526119,10.216015 4.8719161,9.8276819 4.6485644,9.427177 l -0.00158,-0.00257 -0.00158,-0.00257 C 4.1833382,8.6538532 4.0179982,7.778721 4.0901898,6.920539 4.1736918,6.4273115 4.3369563,5.9378769 4.5771912,5.4785284 4.7600077,5.197832 4.9262642,4.9257501 5.1490605,4.7038974 l 0.00317,-0.00386 0.00317,-0.00322 C 5.4453439,4.3797006 5.760188,4.084304 6.1381318,3.8676586 c 2.947e-4,-1.715e-4 4.822e-4,0 8.037e-4,0 0.1769201,-0.1008227 0.3338935,-0.2050312 0.4917602,-0.2937251 5.626e-4,0 0.00102,0 0.00158,-0.00214 0.718806,-0.3664565 1.5251756,-0.628574 2.361243,-0.709275 l 0.00317,0 0.00317,0 C 9.3299914,2.8232817 9.6553748,2.7904741 9.9722748,2.791459 z"
     id="path4"
     inkscape:connector-curvature="0" />
  <path
     style="font-size:medium;font-style:normal;font-variant:normal;font-weight:normal;font-stretch:normal;text-indent:0;text-align:start;text-decoration:none;line-height:normal;letter-spacing:normal;word-spacing:normal;text-transform:none;direction:ltr;block-progression:tb;writing-mode:lr-tb;text-anchor:start;baseline-shift:baseline;color:#000000;fill:#000000;fill-opacity:1;stroke:none;stroke-width:25;marker:none;visibility:visible;display:inline;overflow:visible;enable-background:accumulate;font-family:Sans;-inkscape-font-specification:Sans"
     d="m 7.2383629,14.54434 -0.1015248,0.397891 c 0,0 1.7553549,0.290124 2.7132476,0.308575 0.9377753,0.018 2.6681953,-0.19946 2.6681953,-0.19946 l -0.07741,-0.401447 c 0,0 -1.760256,0.210666 -2.5787273,0.194895 C 9.0235535,14.828722 7.2383629,14.54434 7.2383629,14.54434 z"
     id="path3755"
     inkscape:connector-curvature="0" />
  <path
     style="font-size:medium;font-style:normal;font-variant:normal;font-weight:normal;font-stretch:normal;text-indent:0;text-align:start;text-decoration:none;line-height:normal;letter-spacing:normal;word-spacing:normal;text-transform:none;direction:ltr;block-progression:tb;writing-mode:lr-tb;text-anchor:start;baseline-shift:baseline;color:#000000;fill:#000000;fill-opacity:1;stroke:none;stroke-width:25;marker:none;visibility:visible;display:inline;overflow:visible;enable-background:accumulate;font-family:Sans;-inkscape-font-specification:Sans"
     d="m 12.260663,17.485469 c 0,0 -0.389414,0.09795 -0.880093,0.197938 -0.490678,0.09999 -1.089279,0.199438 -1.4505337,0.205546 -0.3601436,0.0062 -0.9620785,-0.07277 -1.4562448,-0.15581 -0.4941663,-0.08303 -0.887072,-0.167487 -0.887072,-0.167487 l -0.1319821,0.391826 c 0,0 0.4059007,0.08751 0.9149914,0.173059 0.5090904,0.08555 1.1148329,0.171667 1.5710946,0.163931 0.4573726,-0.0077 1.0592936,-0.11473 1.5647496,-0.217739 0.505455,-0.102986 0.907377,-0.204023 0.907377,-0.204023 l -0.152287,-0.387241 z"
     id="path3757"
     inkscape:connector-curvature="0" />
  <path
     style="font-size:medium;font-style:normal;font-variant:normal;font-weight:normal;font-stretch:normal;text-indent:0;text-align:start;text-decoration:none;line-height:normal;letter-spacing:normal;word-spacing:normal;text-transform:none;direction:ltr;block-progression:tb;writing-mode:lr-tb;text-anchor:start;baseline-shift:baseline;color:#000000;fill:#000000;fill-opacity:1;stroke:none;stroke-width:25;marker:none;visibility:visible;display:inline;overflow:visible;enable-background:accumulate;font-family:Sans;-inkscape-font-specification:Sans"
     d="m 12.205458,16.72976 c 0,0 -1.607023,0.182252 -2.370601,0.195388 -0.7651617,0.01329 -2.3839268,-0.114195 -2.3839268,-0.114195 l -0.050762,0.404513 c 0,0 1.5983657,0.129794 2.445476,0.115201 0.8455258,-0.01457 2.4321508,-0.198945 2.4321508,-0.198945 l -0.07234,-0.401962 z"
     id="path3759"
     inkscape:connector-curvature="0" />
  <path
     style="font-size:medium;font-style:normal;font-variant:normal;font-weight:normal;font-stretch:normal;text-indent:0;text-align:start;text-decoration:none;line-height:normal;letter-spacing:normal;word-spacing:normal;text-transform:none;direction:ltr;block-progression:tb;writing-mode:lr-tb;text-anchor:start;baseline-shift:baseline;color:#000000;fill:#000000;fill-opacity:1;stroke:none;stroke-width:20;marker:none;visibility:visible;display:inline;overflow:visible;enable-background:accumulate;font-family:Sans;-inkscape-font-specification:Sans"
     d="m 12.33284,16.120602 c 0,0 -1.607976,0.182253 -2.3715531,0.195389 -0.765162,0.01308 -2.3834507,-0.113552 -2.3834507,-0.113552 l -0.050762,0.404105 c 0,0 1.5982068,0.130052 2.4453174,0.11548 0.8455254,-0.01457 2.4326264,-0.199203 2.4326264,-0.199203 l -0.07218,-0.402219 z"
     id="path3761"
     inkscape:connector-curvature="0" />
  <path
     style="font-size:medium;font-style:normal;font-variant:normal;font-weight:normal;font-stretch:normal;text-indent:0;text-align:start;text-decoration:none;line-height:normal;letter-spacing:normal;word-spacing:normal;text-transform:none;direction:ltr;block-progression:tb;writing-mode:lr-tb;text-anchor:start;baseline-shift:baseline;color:#000000;fill:#000000;fill-opacity:1;stroke:none;stroke-width:25;marker:none;visibility:visible;display:inline;overflow:visible;enable-background:accumulate;font-family:Sans;-inkscape-font-specification:Sans"
     d="m 12.221322,15.512194 c 0,0 -1.607024,0.182253 -2.3706019,0.195389 -0.7651617,0.01329 -2.3839267,-0.113681 -2.3839267,-0.113681 l -0.050762,0.403999 c 0,0 1.5983659,0.129794 2.4454762,0.115202 0.8455254,-0.01457 2.4321504,-0.198947 2.4321504,-0.198947 l -0.07234,-0.401962 z"
     id="path3763"
     inkscape:connector-curvature="0" />
  <path
     sodipodi:type="spiral"
     style="fill:none;stroke:#ff0000;stroke-width:1px;stroke-linecap:butt;stroke-linejoin:miter;stroke-opacity:1"
     id="path3011"
     sodipodi:cx="35.714287"
     sodipodi:cy="39.826839"
     sodipodi:expansion="1"
     sodipodi:revolution="0.95476151"
     sodipodi:radius="3.2464273"
     sodipodi:argument="-18.547937"
     sodipodi:t0="0.32881901"
     d="m 35.02383,40.640963 c -0.889806,-0.212282 -1.107678,-1.319165 -0.771971,-2.054406 0.560747,-1.228105 2.148376,-1.488491 3.252535,-0.87045 0.796031,0.44557 1.322507,1.271674 1.45583,2.167142"
     transform="matrix(-0.36842738,0.01081166,-0.07768459,-0.17383153,25.106561,16.064375)"
     inkscape:transform-center-x="5.2489208"
     inkscape:transform-center-y="-5.3564026" />
  <path
     inkscape:transform-center-y="-5.5254076"
     inkscape:transform-center-x="-2.9118884"
     transform="matrix(0.23582719,0.06044568,0.0687813,-0.16246038,-1.8033592,13.844985)"
     d="m 34.618524,40.445966 c -0.803623,-0.61144 -0.598391,-1.823733 0.05847,-2.454986 0.407486,-0.391599 0.965254,-0.600564 1.527285,-0.609513"
     sodipodi:t0="0.50464582"
     sodipodi:argument="-18.547937"
     sodipodi:radius="2.4939799"
     sodipodi:revolution="0.73346972"
     sodipodi:expansion="1"
     sodipodi:cy="39.826839"
     sodipodi:cx="35.714287"
     id="path3013"
     style="fill:none;stroke:#ff0000;stroke-width:1px;stroke-linecap:butt;stroke-linejoin:miter;stroke-opacity:1"
     sodipodi:type="spiral" />
  <path
     inkscape:transform-center-y="-5.3564026"
     inkscape:transform-center-x="5.2489208"
     transform="matrix(0.36865396,-0.00317009,0.06729484,-0.17658165,-4.876499,16.631416)"
     d="m 35.02383,40.640963 c -0.889806,-0.212282 -1.107678,-1.319165 -0.771971,-2.054406 0.560747,-1.228105 2.148376,-1.488491 3.252535,-0.87045 0.796031,0.44557 1.322507,1.271674 1.45583,2.167142"
     sodipodi:t0="0.32881901"
     sodipodi:argument="-18.547937"
     sodipodi:radius="3.2464273"
     sodipodi:revolution="0.95476151"
     sodipodi:expansion="1"
     sodipodi:cy="39.826839"
     sodipodi:cx="35.714287"
     id="path3027"
     style="fill:none;stroke:#ff0000;stroke-width:1px;stroke-linecap:butt;stroke-linejoin:miter;stroke-opacity:1"
     sodipodi:type="spiral" />
  <path
     sodipodi:type="spiral"
     style="fill:none;stroke:#ff0000;stroke-width:1px;stroke-linecap:butt;stroke-linejoin:miter;stroke-opacity:1"
     id="path3029"
     sodipodi:cx="35.714287"
     sodipodi:cy="39.826839"
     sodipodi:expansion="1"
     sodipodi:revolution="0.7381317"
     sodipodi:radius="2.5098312"
     sodipodi:argument="-18.547937"
     sodipodi:t0="0.5014587"
     d="m 34.618523,40.445965 c -0.803622,-0.611441 -0.598389,-1.823733 0.05847,-2.454985 0.426025,-0.409416 1.015049,-0.618179 1.602261,-0.609557"
     transform="matrix(-0.23197965,0.06931955,-0.07833246,-0.15966977,21.871632,13.394182)"
     inkscape:transform-center-x="-2.9118884"
     inkscape:transform-center-y="-5.5254076" />
  <path
     sodipodi:type="spiral"
     style="fill:none;stroke:#ff0000;stroke-width:1px;stroke-linecap:butt;stroke-linejoin:miter;stroke-opacity:1"
     id="path3035"
     sodipodi:cx="34.972706"
     sodipodi:cy="43.599815"
     sodipodi:expansion="1"
     sodipodi:revolution="0.7381317"
     sodipodi:radius="3.4129539"
     sodipodi:argument="-1.8392495"
     sodipodi:t0="0.5014587"
     d="m 36.485649,44.399867 c -0.110201,1.368713 -1.648644,2.023455 -2.853362,1.734757 -0.781352,-0.187243 -1.452622,-0.708345 -1.873703,-1.386908"
     transform="matrix(0.29519018,0,0,0.17143068,-0.13368896,2.2401378)" />
  <path
     style="fill:#ff0000;fill-opacity:1;fill-rule:evenodd;stroke:none"
     id="path3039"
     d="m 7.7899437,9.5334638 c 0.04455,0.1603149 0.1213603,0.3141922 0.1998202,0.4654428 0.1005622,0.1938574 0.2022413,0.3728504 0.3094051,0.5655584 0.3734715,0.666583 0.7726489,1.32377 1.1984766,1.96992 0.1718111,0.246451 0.088938,0.132093 0.246923,0.343859 0,0 -0.1799906,0.08286 -0.1799906,0.08286 l 0,0 C 9.4211321,12.742058 9.496937,12.859924 9.3381774,12.607092 8.9393046,11.94976 8.5493248,11.289014 8.1518405,10.631146 8.088903,10.528342 8.0256365,10.425668 7.9630276,10.322736 7.8239897,10.09415 7.6795645,9.8659222 7.5775591,9.6245865 c 0,0 0.2123846,-0.091123 0.2123846,-0.091123 z"
     inkscape:connector-curvature="0" />
  <path
     inkscape:connector-curvature="0"
     d="m 12.074459,9.4809878 c -0.04455,0.1603145 -0.12136,0.3141927 -0.19982,0.4654433 -0.100562,0.1938559 -0.202241,0.3728499 -0.309405,0.5655579 -0.373471,0.666583 -0.772649,1.32377 -1.198477,1.969919 -0.171811,0.246453 -0.08894,0.132094 -0.246922,0.343859 0,0 0.17999,0.08286 0.17999,0.08286 l 0,0 c 0.143446,-0.219048 0.06764,-0.101182 0.226401,-0.354014 0.398873,-0.657333 0.788852,-1.318078 1.186337,-1.975946 0.06294,-0.102804 0.126204,-0.205479 0.188812,-0.308411 0.139038,-0.228585 0.283464,-0.4568121 0.385469,-0.6981479 0,0 -0.212385,-0.091123 -0.212385,-0.091123 z"
     id="path3809"
     style="fill:#ff0000;fill-opacity:1;fill-rule:evenodd;stroke:none" />
  <path
     style="fill:#ff0000;fill-opacity:1;fill-rule:evenodd;stroke:none"
     id="path3822"
     d="m 12.074459,9.4809878 c -0.04455,0.1603145 -0.12136,0.3141927 -0.19982,0.4654433 -0.100562,0.1938559 -0.202241,0.3728499 -0.309405,0.5655579 -0.373471,0.666583 -0.772649,1.32377 -1.198477,1.969919 -0.171811,0.246453 -0.08894,0.132094 -0.246922,0.343859 0,0 0.17999,0.08286 0.17999,0.08286 l 0,0 c 0.143446,-0.219048 0.06764,-0.101182 0.226401,-0.354014 0.398873,-0.657333 0.788852,-1.318078 1.186337,-1.975946 0.06294,-0.102804 0.126204,-0.205479 0.188812,-0.308411 0.139038,-0.228585 0.283464,-0.4568121 0.385469,-0.6981479 0,0 -0.212385,-0.091123 -0.212385,-0.091123 z"
     inkscape:connector-curvature="0" />
  <path
     style="fill:#000000;fill-opacity:1;fill-rule:evenodd;stroke:none"
     id="path3838"
     d="M 13.659476,-9.0553538e-7 C 13.464916,0.28048948 13.290422,0.56889225 13.121729,0.8597709 12.986473,1.095877 12.866404,1.3371376 12.74779,1.5787863 c 0,0 -0.314644,0.025963 -0.314644,0.025963 l 0,0 c 0.13308,-0.239425 0.265102,-0.4792289 0.391492,-0.72097938 0.150474,-0.28362028 0.306511,-0.56543796 0.450802,-0.85111284 0,0 0.384037,-0.0326575449637 0.384037,-0.0326575449637 z"
     inkscape:connector-curvature="0" />
  <path
     inkscape:connector-curvature="0"
     d="M 17.347654,2.1472449 C 16.992897,2.2968308 16.649519,2.4618226 16.309303,2.6314258 16.034549,2.769825 15.768979,2.9191859 15.50436,3.069509 c 0,0 -0.281104,-0.1160065 -0.281104,-0.1160065 l 0,0 c 0.275204,-0.1421294 0.549781,-0.2850389 0.820977,-0.4320431 0.320002,-0.1715039 0.643426,-0.3390639 0.959658,-0.5149941 0,0 0.343764,0.1407805 0.343764,0.1407805 z"
     id="path3840"
     style="fill:#000000;fill-opacity:1;fill-rule:evenodd;stroke:none"
     inkscape:transform-center-x="-5.8118887"
     inkscape:transform-center-y="-5.3239505" />
  <g
     style="fill:#000000;fill-opacity:1"
     id="g3848"
     transform="matrix(0.26790935,0,0,0.21428835,-2.8437387,-2.7448089)">
    <path
       inkscape:connector-curvature="0"
       d="m 16.124244,22.549465 c 1.324169,0.698059 2.605863,1.468011 3.875755,2.259483 1.025549,0.645855 2.016818,1.342864 3.004534,2.044363 0,0 1.049251,-0.541357 1.049251,-0.541357 l 0,0 c -1.027228,-0.663262 -2.052117,-1.330165 -3.064384,-2.016176 -1.194439,-0.800342 -2.401655,-1.582279 -3.582026,-2.403276 0,0 -1.283132,0.656967 -1.283132,0.656967 z"
       id="path3842"
       style="fill:#000000;fill-opacity:1;fill-rule:evenodd;stroke:none"
       inkscape:transform-center-x="5.8118887"
       inkscape:transform-center-y="-5.3239505" />
    <path
       style="fill:#000000;fill-opacity:1;fill-rule:evenodd;stroke:none"
       id="path3846"
       d="m 31.422592,12.808946 c 0.726215,1.308939 1.377534,2.654802 2.007197,4.012219 0.504859,1.101815 0.953029,2.227684 1.395768,3.355364 0,0 1.174443,0.121159 1.174443,0.121159 l 0,0 c -0.496736,-1.117303 -0.989522,-2.236374 -1.461286,-3.364529 -0.56166,-1.323545 -1.144084,-2.638678 -1.682666,-3.971811 0,0 -1.43346,-0.1524 -1.43346,-0.1524 z"
       inkscape:connector-curvature="0" />
  </g>
  <g
     style="fill:#000000;fill-opacity:1;stroke-width:6.00992821999999993;stroke-miterlimit:4;stroke-dasharray:none;stroke:none;stroke-opacity:1"
     id="g3852"
     transform="matrix(0.10934785,-0.19562679,0.24457814,0.08746232,-6.5687811,11.923199)">
    <path
       inkscape:transform-center-y="-5.3239505"
       inkscape:transform-center-x="5.8118887"
       style="fill:#000000;fill-opacity:1;fill-rule:evenodd;stroke:none;stroke-width:6.00992821999999993;stroke-miterlimit:4;stroke-dasharray:none;stroke-opacity:1"
       id="path3854"
       d="m 16.124244,22.549465 c 1.324169,0.698059 2.605863,1.468011 3.875755,2.259483 1.025549,0.645855 2.016818,1.342864 3.004534,2.044363 0,0 1.049251,-0.541357 1.049251,-0.541357 l 0,0 c -1.027228,-0.663262 -2.052117,-1.330165 -3.064384,-2.016176 -1.194439,-0.800342 -2.401655,-1.582279 -3.582026,-2.403276 0,0 -1.283132,0.656967 -1.283132,0.656967 z"
       inkscape:connector-curvature="0" />
    <path
       inkscape:connector-curvature="0"
       d="m 31.422592,12.808946 c 0.726215,1.308939 1.377534,2.654802 2.007197,4.012219 0.504859,1.101815 0.953029,2.227684 1.395768,3.355364 0,0 1.174443,0.121159 1.174443,0.121159 l 0,0 c -0.496736,-1.117303 -0.989522,-2.236374 -1.461286,-3.364529 -0.56166,-1.323545 -1.144084,-2.638678 -1.682666,-3.971811 0,0 -1.43346,-0.1524 -1.43346,-0.1524 z"
       id="path3856"
       style="fill:#000000;fill-opacity:1;fill-rule:evenodd;stroke:none;stroke-width:6.00992821999999993;stroke-miterlimit:4;stroke-dasharray:none;stroke-opacity:1" />
  </g>
  <g
     style="fill:#000000;fill-opacity:1"
     transform="matrix(-0.10934785,-0.19562679,-0.24457814,0.08746232,25.768782,11.837419)"
     id="g3858">
    <path
       inkscape:connector-curvature="0"
       d="m 16.124244,22.549465 c 1.324169,0.698059 2.605863,1.468011 3.875755,2.259483 1.025549,0.645855 2.016818,1.342864 3.004534,2.044363 0,0 1.049251,-0.541357 1.049251,-0.541357 l 0,0 c -1.027228,-0.663262 -2.052117,-1.330165 -3.064384,-2.016176 -1.194439,-0.800342 -2.401655,-1.582279 -3.582026,-2.403276 0,0 -1.283132,0.656967 -1.283132,0.656967 z"
       id="path3860"
       style="fill:#000000;fill-opacity:1;fill-rule:evenodd;stroke:none"
       inkscape:transform-center-x="5.8118887"
       inkscape:transform-center-y="-5.3239505" />
    <path
       style="fill:#000000;fill-opacity:1;fill-rule:evenodd;stroke:none"
       id="path3862"
       d="m 31.422592,12.808946 c 0.726215,1.308939 1.377534,2.654802 2.007197,4.012219 0.504859,1.101815 0.953029,2.227684 1.395768,3.355364 0,0 1.174443,0.121159 1.174443,0.121159 l 0,0 c -0.496736,-1.117303 -0.989522,-2.236374 -1.461286,-3.364529 -0.56166,-1.323545 -1.144084,-2.638678 -1.682666,-3.971811 0,0 -1.43346,-0.1524 -1.43346,-0.1524 z"
       inkscape:connector-curvature="0" />
  </g>
</svg>
