<?xml version="1.0" encoding="UTF-8" standalone="no"?>
<svg
   xmlns:dc="http://purl.org/dc/elements/1.1/"
   xmlns:cc="http://creativecommons.org/ns#"
   xmlns:rdf="http://www.w3.org/1999/02/22-rdf-syntax-ns#"
   xmlns:svg="http://www.w3.org/2000/svg"
   xmlns="http://www.w3.org/2000/svg"
   xmlns:xlink="http://www.w3.org/1999/xlink"
   xmlns:sodipodi="http://sodipodi.sourceforge.net/DTD/sodipodi-0.dtd"
   xmlns:inkscape="http://www.inkscape.org/namespaces/inkscape"
   version="1.1"
   id="Layer_1"
   x="0px"
   y="0px"
   width="24.001999"
   height="24.000164"
   viewBox="0 0 24.001998 24.000164"
   enable-background="new 0 0 97.341 100"
   xml:space="preserve"
   inkscape:version="0.48.3.1 r9886"
   sodipodi:docname="icon.svg" preserveAspectRatio="xMinYMid meet"><metadata
   id="metadata13"><rdf:RDF><cc:Work
       rdf:about=""><dc:format>image/svg+xml</dc:format><dc:type
         rdf:resource="http://purl.org/dc/dcmitype/StillImage" /><dc:title></dc:title></cc:Work></rdf:RDF></metadata><defs
   id="defs11">
	
	
<linearGradient
   y2="-174.9679"
   x2="149.98465"
   y1="-104.23534"
   x1="149.98465"
   gradientTransform="matrix(0.60671098,0,0,0.61075136,184.28404,521.27557)"
   gradientUnits="userSpaceOnUse"
   id="linearGradient3904"
   xlink:href="#linearGradient3707-319-631-407-324-616-674-812-821-107-178-392-400-7-3-5-8-8"
   inkscape:collect="always" /><linearGradient
   id="linearGradient3707-319-631-407-324-616-674-812-821-107-178-392-400-7-3-5-8-8"><stop
     id="stop5440-9-8-4-9-7"
     style="stop-color:#272727;stop-opacity:1;"
     offset="0" /><stop
     id="stop5442-0-9-2-7-8"
     style="stop-color:#454545;stop-opacity:1;"
     offset="1" /></linearGradient><linearGradient
   y2="-174.9679"
   x2="149.98465"
   y1="-104.23534"
   x1="149.98465"
   gradientTransform="matrix(0.60671098,0,0,0.61075136,184.28404,521.27557)"
   gradientUnits="userSpaceOnUse"
   id="linearGradient3087"
   xlink:href="#linearGradient3707-319-631-407-324-616-674-812-821-107-178-392-400-7-3-5-8-8"
   inkscape:collect="always" /><linearGradient
   inkscape:collect="always"
   xlink:href="#linearGradient3707-319-631-407-324-616-674-812-821-107-178-392-400-7-3-5-8-8"
   id="linearGradient3798"
   gradientUnits="userSpaceOnUse"
   gradientTransform="matrix(0.60671098,0,0,0.61075136,184.28404,521.27557)"
   x1="149.98465"
   y1="-104.23534"
   x2="149.98465"
   y2="-174.9679" /></defs><sodipodi:namedview
   pagecolor="#ffffff"
   bordercolor="#666666"
   borderopacity="1"
   objecttolerance="10"
   gridtolerance="10"
   guidetolerance="10"
   inkscape:pageopacity="0"
   inkscape:pageshadow="2"
   inkscape:window-width="1538"
   inkscape:window-height="721"
   id="namedview9"
   showgrid="false"
   fit-margin-top="0"
   fit-margin-left="0.32"
   fit-margin-right="0.32"
   fit-margin-bottom="0"
   inkscape:zoom="6.675088"
   inkscape:cx="20.941349"
   inkscape:cy="6.5242855"
   inkscape:window-x="0"
   inkscape:window-y="26"
   inkscape:window-maximized="0"
   inkscape:current-layer="Layer_1" />
<path
   inkscape:connector-curvature="0"
   style="fill:#000000;fill-opacity:1;stroke:none"
   id="path5"
   d="M 0.31999957,24.000164 H 16.851474 V 4.1249741 H 0.31999957 V 24.000164 z M 1.4505851,5.4842016 H 15.720889 V 19.444755 H 1.4505851 V 5.4842016 z" /><polygon
   style="fill:#000000;fill-opacity:1"
   id="polygon7"
   points="85.929,68.65 68.781,66.743 68.781,85.336 88.431,87.522 97.341,7.387 30.898,0 28.983,17.223 33.583,17.223 34.833,5.986 92.188,12.363 "
   transform="matrix(0.24000164,0,0,0.24000164,0.31999957,0)" />
<rect
   style="fill:#ff0000;fill-opacity:1;stroke:none"
   id="rect3775"
   width="14.306928"
   height="14.157117"
   x="1.4232022"
   y="5.3487244" /><g
   transform="matrix(0.425,0,0,0.425,-102.97706,-179.21357)"
   id="g3845"><path
     id="path4019-3"
     d="m 263.31136,434.30369 c -1.59057,0 -2.88,2.57884 -2.88,5.76 0,0.5293 0.0232,1.04315 0.09,1.53 -0.34183,-0.34537 -0.6656,-0.71617 -1.08,-1.035 -2.52126,-1.93985 -5.37506,-2.47564 -6.345,-1.215 -0.96992,1.26064 0.31374,3.86515 2.835,5.805 0.47841,0.36808 0.95419,0.63484 1.44,0.9 -0.55033,0.0703 -1.12896,0.19056 -1.71,0.36 -3.05395,0.89062 -5.17029,2.88302 -4.725,4.41 0.44531,1.52698 3.29105,2.01562 6.345,1.125 0.57262,-0.16698 1.12411,-0.35273 1.62,-0.585 -0.1211,0.22037 -0.25045,0.43639 -0.36,0.675 -6.00101,5.35588 -10.935,15.615 -10.935,15.615 l 2.07,0.0449 c 1.12404,-2.69854 3.90383,-8.62418 8.19,-13.59 -0.60663,2.52382 -0.21428,4.75324 1.08,5.22 1.49626,0.53962 3.60079,-1.46249 4.68,-4.455 0.0971,-0.26916 0.15067,-0.54452 0.225,-0.81 0.11652,0.25685 0.21928,0.50797 0.36,0.765 1.5277,2.79031 3.91485,4.45385 5.31,3.69 1.39517,-0.76385 1.2577,-3.64469 -0.27,-6.435 -0.0871,-0.15918 -0.17771,-0.29852 -0.27,-0.45 0.16925,0.0526 0.31956,0.0893 0.495,0.13493 3.07812,0.80311 5.89845,0.23406 6.3,-1.305 0.40157,-1.53906 -1.78188,-3.42689 -4.86,-4.23 -0.047,-0.013 -0.088,-0.0334 -0.13493,-0.0449 0.0415,-0.0233 0.0936,-0.021 0.13493,-0.0449 2.75497,-1.59058 4.35029,-4.02251 3.555,-5.4 -0.79529,-1.37749 -3.68003,-1.18558 -6.435,0.405 -0.88244,0.50948 -1.60189,1.09377 -2.205,1.71 0.22872,-0.82585 0.36,-1.77906 0.36,-2.79 0,-3.18117 -1.28941,-5.76 -2.88,-5.76 z m 0.09,9.63 c 1.98823,0 3.6,1.61178 3.6,3.6 0,1.98822 -1.61177,3.6 -3.6,3.6 -1.98822,0 -3.6,-1.61178 -3.6,-3.6 0,-1.98822 1.61178,-3.6 3.6,-3.6 z"
     style="color:#000000;fill:url(#linearGradient3798);fill-opacity:1;fill-rule:nonzero;stroke:none;stroke-width:1;marker:none;visibility:visible;display:inline;overflow:visible;enable-background:accumulate"
     inkscape:connector-curvature="0" /></g><path
   inkscape:connector-curvature="0"
   style="fill:#ffffff;fill-opacity:1;stroke:none"
   d="m 9.2052942,5.3732626 c -0.6759922,0 -1.224,1.096007 -1.224,2.448 0,0.2249525 0.00986,0.4433388 0.03825,0.65025 -0.1452777,-0.1467822 -0.28288,-0.3043722 -0.459,-0.439875 -1.0715361,-0.8244362 -2.2844011,-1.052147 -2.6966256,-0.516375 -0.412216,0.535772 0.1333395,1.6426888 1.204875,2.4671247 0.2033243,0.1564337 0.4055308,0.2698067 0.6120002,0.3824997 -0.2338904,0.02988 -0.4798082,0.08099 -0.7267502,0.153 -1.2979287,0.378515 -2.1973732,1.225284 -2.008125,1.87425 0.1892568,0.648967 1.3986963,0.856639 2.6966252,0.478125 0.2433639,-0.07097 0.4777472,-0.14991 0.6885004,-0.248625 -0.051467,0.09366 -0.1064412,0.185466 -0.153,0.286875 -2.5504298,2.276249 -4.6473756,6.636375 -4.6473756,6.636375 l 0.8797501,0.01908 c 0.4777169,-1.14688 1.6591277,-3.665277 3.4807505,-5.77575 -0.2578181,1.072623 -0.091069,2.020127 0.459,2.2185 0.6359105,0.229338 1.5303358,-0.621558 1.989,-1.893375 0.041268,-0.114393 0.064031,-0.231421 0.095625,-0.34425 0.049521,0.109161 0.093194,0.215887 0.153,0.325125 0.6492738,1.185882 1.6638118,1.892886 2.2567508,1.56825 0.592947,-0.324636 0.534523,-1.548993 -0.11475,-2.734875 -0.03702,-0.06765 -0.07553,-0.126871 -0.11475,-0.19125 0.07194,0.02236 0.135813,0.03795 0.210375,0.05735 1.308201,0.341322 2.506841,0.09948 2.6775,-0.554625 0.170667,-0.6541 -0.757299,-1.456428 -2.0655,-1.79775 -0.01998,-0.0055 -0.0374,-0.01419 -0.05734,-0.01908 0.01764,-0.0099 0.03978,-0.0089 0.05734,-0.01908 1.170862,-0.6759942 1.848873,-1.7095641 1.510875,-2.2949974 -0.337998,-0.5854332 -1.564013,-0.5038715 -2.734875,0.172125 -0.375037,0.216529 -0.680803,0.4648523 -0.937125,0.72675 0.09721,-0.3509862 0.153,-0.7561005 0.153,-1.18575 0,-1.3519972 -0.5479996,-2.448 -1.2240008,-2.448 z m 0.03825,4.0927497 c 0.8449988,0 1.5300008,0.6850067 1.5300008,1.5300007 0,0.844993 -0.685002,1.529999 -1.5300008,1.529999 -0.8449935,0 -1.53,-0.685006 -1.53,-1.529999 0,-0.844994 0.6850065,-1.5300007 1.53,-1.5300007 z"
   id="path4019" /><path
   style="fill:#ff0000;fill-opacity:1;stroke:none"
   d="m 8.6334746,1.4101216 -0.3972458,2.7542374 8.5088162,0.040666 0.0717,11.8767075 4.198505,0.442455 1.603165,-13.5515654 z"
   id="path3800"
   inkscape:connector-curvature="0"
   sodipodi:nodetypes="ccccccc" /></svg>