<?xml version="1.0" encoding="UTF-8" standalone="no"?>
<svg
   xmlns:dc="http://purl.org/dc/elements/1.1/"
   xmlns:cc="http://creativecommons.org/ns#"
   xmlns:rdf="http://www.w3.org/1999/02/22-rdf-syntax-ns#"
   xmlns:svg="http://www.w3.org/2000/svg"
   xmlns="http://www.w3.org/2000/svg"
   xmlns:sodipodi="http://sodipodi.sourceforge.net/DTD/sodipodi-0.dtd"
   xmlns:inkscape="http://www.inkscape.org/namespaces/inkscape"
   version="1.1"
   id="question-layer"
   x="0px"
   y="0px"
   width="15.988997"
   height="15.999414"
   viewBox="0 0 15.988997 15.999414"
   xml:space="preserve"
   inkscape:version="0.48.3.1 r9886"
   sodipodi:docname="help.svg"
   preserveAspectRatio="xMinYMid meet"
   inkscape:export-filename="/tmp/moodle-theme_anomalyblackred/pix_core/a/help.png"
   inkscape:export-xdpi="90"
   inkscape:export-ydpi="90"><metadata
   id="metadata10"><rdf:RDF><cc:Work
       rdf:about=""><dc:format>image/svg+xml</dc:format><dc:type
         rdf:resource="http://purl.org/dc/dcmitype/StillImage" /><dc:title></dc:title></cc:Work></rdf:RDF></metadata><defs
   id="defs8" /><sodipodi:namedview
   pagecolor="#ffffff"
   bordercolor="#666666"
   borderopacity="1"
   objecttolerance="10"
   gridtolerance="10"
   guidetolerance="10"
   inkscape:pageopacity="0"
   inkscape:pageshadow="2"
   inkscape:window-width="878"
   inkscape:window-height="480"
   id="namedview6"
   showgrid="false"
   fit-margin-top="0"
   fit-margin-left="2.86"
   fit-margin-right="2.86"
   fit-margin-bottom="0"
   inkscape:zoom="2.36"
   inkscape:cx="9.07149"
   inkscape:cy="8.7282068"
   inkscape:window-x="883"
   inkscape:window-y="178"
   inkscape:window-maximized="0"
   inkscape:current-layer="question-layer" />
<rect
   id="frame_70_"
   style="fill:none"
   width="100"
   height="100"
   x="-40.928509"
   y="-42.728794" />
<path
   style="fill:#999999;fill-opacity:1"
   d="m 6.0304839,12.528987 h 3.718315 v 3.470427 H 6.0304839 V 12.528987 z M 12.886561,2.6563639 C 12.718989,2.1705039 12.441603,1.7240589 12.060847,1.3291739 11.681083,0.93528 11.176384,0.611291 10.559639,0.365882 9.9481,0.1232 9.1915469,0 8.3117939,0 7.7309929,0 7.1799389,0.06569 6.6715209,0.195087 6.1683089,0.325228 5.7077339,0.49404 5.3026849,0.696812 c -0.410254,0.205499 -0.778119,0.4382649 -1.092441,0.6911109 -0.316056,0.254581 -0.585262,0.50693 -0.789274,0.759528 -0.204755,0.254085 -0.56097,0.716643 -0.56097,1.179201 0,0.829433 0.672519,1.502448 1.502447,1.502448 0.22657,0 0.451652,-0.03074 0.633353,-0.141296 0.180463,-0.109319 0.408023,-0.314322 0.634345,-0.556508 0.281848,-0.301679 0.667066,-0.48933 1.046086,-0.670041 0.475201,-0.226569 0.980644,-0.341341 1.502199,-0.341341 0.465285,0 0.810345,0.111302 1.025264,0.330434 0.220868,0.225578 0.327707,0.459584 0.327707,0.716148 0,0.12667 -0.02652,0.244665 -0.08131,0.358445 -0.06867,0.141544 -0.156417,0.276395 -0.261274,0.402322 -0.111301,0.134355 -0.240451,0.265984 -0.384225,0.392158 -0.156418,0.138074 -0.309364,0.269702 -0.461815,0.396125 -0.330682,0.277634 -0.629139,0.55626 -0.886942,0.827697 -0.270446,0.284079 -0.503212,0.591212 -0.692598,0.913218 -0.194097,0.330682 -0.732756,1.966245 -0.732756,2.497221 v 0.5922031 h 3.718315 V 9.9536819 c 0,-0.320519 0.107583,-1.269929 0.2416901,-1.451383 0.139313,-0.191121 0.298209,-0.364147 0.472474,-0.51511 0.185172,-0.161623 0.383482,-0.317049 0.592204,-0.464046 0.238716,-0.17253 0.480406,-0.363899 0.718378,-0.56915 0.252846,-0.217893 0.480407,-0.46355 0.677725,-0.731269 0.203268,-0.275403 0.368857,-0.594434 0.491066,-0.947922 0.123944,-0.355967 0.186659,-0.774154 0.186659,-1.242661 7.44e-4,-0.440992 -0.08106,-0.903551 -0.242434,-1.375777 z"
   id="path4"
   inkscape:connector-curvature="0" />
</svg>