<?xml version="1.0" encoding="UTF-8" standalone="no"?>
<!-- Created with Inkscape (http://www.inkscape.org/) -->

<svg
   xmlns:dc="http://purl.org/dc/elements/1.1/"
   xmlns:cc="http://creativecommons.org/ns#"
   xmlns:rdf="http://www.w3.org/1999/02/22-rdf-syntax-ns#"
   xmlns:svg="http://www.w3.org/2000/svg"
   xmlns="http://www.w3.org/2000/svg"
   xmlns:xlink="http://www.w3.org/1999/xlink"
   xmlns:sodipodi="http://sodipodi.sourceforge.net/DTD/sodipodi-0.dtd"
   xmlns:inkscape="http://www.inkscape.org/namespaces/inkscape"
   width="16.009993"
   height="15.999433"
   id="svg3225"
   version="1.1"
   inkscape:version="0.48.3.1 r9886"
   sodipodi:docname="search.svg"
   preserveAspectRatio="xMinYMid meet">
  <defs
     id="defs3227">
    <linearGradient
       inkscape:collect="always"
       xlink:href="#linearGradient1069-5"
       id="linearGradient3166"
       gradientUnits="userSpaceOnUse"
       gradientTransform="translate(190.7961,107.43992)"
       x1="314.34872"
       y1="425.61682"
       x2="314.34872"
       y2="468.35892" />
    <linearGradient
       id="linearGradient1069-5">
      <stop
         id="stop1071-6"
         offset="0"
         style="stop-color:#ffffff;stop-opacity:1" />
      <stop
         id="stop1073-0"
         offset="1"
         style="stop-color:#e6e6e6;stop-opacity:1" />
    </linearGradient>
    <linearGradient
       inkscape:collect="always"
       xlink:href="#linearGradient918-1"
       id="linearGradient3168"
       gradientUnits="userSpaceOnUse"
       gradientTransform="translate(57.14285,-297.14288)"
       x1="462.37933"
       y1="837.0611"
       x2="463.75925"
       y2="835.67212" />
    <linearGradient
       id="linearGradient918-1">
      <stop
         style="stop-color:#f6f6f6;stop-opacity:1"
         offset="0"
         id="stop920-5" />
      <stop
         style="stop-color:#e2e2e2;stop-opacity:1"
         offset="1"
         id="stop922-7" />
    </linearGradient>
    <linearGradient
       inkscape:collect="always"
       xlink:href="#linearGradient4532"
       id="linearGradient3170"
       gradientUnits="userSpaceOnUse"
       gradientTransform="translate(-331.68431,465.1938)"
       x1="352.89233"
       y1="549.32648"
       x2="352.89233"
       y2="578.09912" />
    <linearGradient
       id="linearGradient4532">
      <stop
         id="stop4534"
         offset="0"
         style="stop-color:#858585;stop-opacity:1;" />
      <stop
         id="stop4536"
         offset="1"
         style="stop-color:#000000;stop-opacity:1;" />
    </linearGradient>
    <linearGradient
       inkscape:collect="always"
       xlink:href="#linearGradient4532"
       id="linearGradient3013"
       gradientUnits="userSpaceOnUse"
       gradientTransform="translate(-331.68431,465.1938)"
       x1="352.89233"
       y1="549.32648"
       x2="352.89233"
       y2="578.09912" />
  </defs>
  <sodipodi:namedview
     id="base"
     pagecolor="#ffffff"
     bordercolor="#666666"
     borderopacity="1.0"
     inkscape:pageopacity="0.0"
     inkscape:pageshadow="2"
     inkscape:zoom="3.959798"
     inkscape:cx="-191.82806"
     inkscape:cy="-34.327324"
     inkscape:document-units="px"
     inkscape:current-layer="layer1"
     showgrid="false"
     fit-margin-top="0"
     fit-margin-left="2"
     fit-margin-right="2"
     fit-margin-bottom="0"
     inkscape:window-width="878"
     inkscape:window-height="400"
     inkscape:window-x="1"
     inkscape:window-y="51"
     inkscape:window-maximized="0" />
  <metadata
     id="metadata3230">
    <rdf:RDF>
      <cc:Work
         rdf:about="">
        <dc:format>image/svg+xml</dc:format>
        <dc:type
           rdf:resource="http://purl.org/dc/dcmitype/StillImage" />
        <dc:title />
      </cc:Work>
    </rdf:RDF>
  </metadata>
  <g
     inkscape:label="Capa 1"
     inkscape:groupmode="layer"
     id="layer1"
     transform="translate(-457.70928,-471.9339)">
    <rect
       style="fill:none;stroke:none"
       id="rect4146-5"
       width="48"
       height="48"
       x="441.71429"
       y="456.93362" />
    <path
       style="fill:#999999;fill-opacity:1;stroke:none"
       d="m 462.17948,472.51132 c 0.66928,-0.36358 1.44312,-0.57742 2.25835,-0.57742 2.60872,0 4.71798,2.12831 4.71798,4.73703 0,1.41672 -0.62304,2.6739 -1.60822,3.53986 l 0.9267,1.6051 c 0.3236,-0.12657 0.70793,0 0.8872,0.31237 l 2.26149,3.91705 c 0.19782,0.34263 0.0812,0.77771 -0.2614,0.97555 l -1.41366,0.81617 c -0.34263,0.19784 -0.77773,0.0812 -0.97555,-0.26139 l -2.26149,-3.91699 c -0.18133,-0.31412 -0.10594,-0.7091 0.17305,-0.92457 l -0.92671,-1.60509 c -0.47701,0.16258 -0.9826,0.26618 -1.51523,0.26618 -2.60872,0 -4.73271,-2.11982 -4.73271,-4.72854 0,-1.79352 0.99776,-3.35546 2.4702,-4.15531 z m 0.78672,1.43064 c -0.96367,0.5235 -1.62661,1.55204 -1.62661,2.72581 0,1.70734 1.38773,3.08232 3.09507,3.08232 1.70735,0 3.09084,-1.37297 3.09084,-3.0803 0,-1.70739 -1.373,-3.09086 -3.08035,-3.09086 -0.53355,0 -1.04091,0.12509 -1.47895,0.36303 z"
       id="rect3910"
       inkscape:connector-curvature="0" />
  </g>
</svg>
