<?xml version="1.0" encoding="UTF-8" standalone="no"?>
<!-- Generator: Adobe Illustrator 15.1.0, SVG Export Plug-In  -->

<svg
   xmlns:dc="http://purl.org/dc/elements/1.1/"
   xmlns:cc="http://creativecommons.org/ns#"
   xmlns:rdf="http://www.w3.org/1999/02/22-rdf-syntax-ns#"
   xmlns:svg="http://www.w3.org/2000/svg"
   xmlns="http://www.w3.org/2000/svg"
   xmlns:sodipodi="http://sodipodi.sourceforge.net/DTD/sodipodi-0.dtd"
   xmlns:inkscape="http://www.inkscape.org/namespaces/inkscape"
   version="1.1"
   x="0px"
   y="0px"
   width="16px"
   height="16px"
   viewBox="0 0 16 16"
   style="overflow:visible;enable-background:new 0 0 16 16;"
   xml:space="preserve"
   preserveAspectRatio="xMinYMid meet"
   id="svg2"
   inkscape:version="0.48.3.1 r9886"
   sodipodi:docname="settings.svg"><metadata
   id="metadata10"><rdf:RDF><cc:Work
       rdf:about=""><dc:format>image/svg+xml</dc:format><dc:type
         rdf:resource="http://purl.org/dc/dcmitype/StillImage" /><dc:title /></cc:Work></rdf:RDF></metadata><sodipodi:namedview
   pagecolor="#ffffff"
   bordercolor="#666666"
   borderopacity="1"
   objecttolerance="10"
   gridtolerance="10"
   guidetolerance="10"
   inkscape:pageopacity="0"
   inkscape:pageshadow="2"
   inkscape:window-width="834"
   inkscape:window-height="480"
   id="namedview8"
   showgrid="false"
   inkscape:zoom="14.75"
   inkscape:cx="8"
   inkscape:cy="8"
   inkscape:window-x="0"
   inkscape:window-y="24"
   inkscape:window-maximized="0"
   inkscape:current-layer="svg2" />
<defs
   id="defs4"><linearGradient
   id="linearGradient3755"><stop
     style="stop-color:#000000;stop-opacity:1;"
     offset="0"
     id="stop3757" /><stop
     style="stop-color:#000000;stop-opacity:0.37254903;"
     offset="1"
     id="stop3759" /></linearGradient>
</defs>
<path
   style="fill:#2e2e2e;fill-opacity:1"
   d="M 9.3,0.1 C 8.9,0 8.4,0 8,0 7.6,0 7.1,0 6.7,0.1 L 6.3,2.2 C 5.9,2.3 5.5,2.5 5.1,2.7 L 3.3,1.5 C 2.6,2 2,2.6 1.5,3.4 L 2.7,5.2 C 2.5,5.6 2.3,6 2.2,6.4 L 0.1,6.7 C 0,7.1 0,7.6 0,8 0,8.4 0,8.9 0.1,9.3 l 2.1,0.4 c 0.2,0.4 0.3,0.8 0.5,1.2 L 1.5,12.6 C 2,13.4 2.6,14 3.4,14.5 l 1.8,-1.2 c 0.3,0.2 0.7,0.3 1.1,0.5 l 0.4,2.1 C 7.1,16 7.6,16 8,16 c 0.4,0 0.9,0 1.3,-0.1 l 0.4,-2.1 c 0.4,-0.1 0.8,-0.3 1.2,-0.5 l 1.8,1.2 C 13.4,14 14,13.4 14.5,12.6 L 13.3,10.8 C 13.5,10.4 13.7,10 13.8,9.6 L 15.9,9.2 C 16,8.9 16,8.4 16,8 16,7.6 16,7.1 15.9,6.7 L 13.8,6.3 C 13.7,5.9 13.5,5.5 13.3,5.1 L 14.5,3.3 C 14,2.6 13.4,2 12.6,1.4 L 10.8,2.6 C 10.4,2.4 10,2.2 9.6,2.1 L 9.3,0.1 z M 10,8 C 10,9.1 9.1,10 8,10 6.9,10 6,9.1 6,8 6,6.9 6.9,6 8,6 c 1.1,0 2,0.9 2,2 z"
   id="path6"
   inkscape:connector-curvature="0" />
</svg>