<?xml version="1.0" encoding="UTF-8" standalone="no"?>
<svg
   xmlns:dc="http://purl.org/dc/elements/1.1/"
   xmlns:cc="http://creativecommons.org/ns#"
   xmlns:rdf="http://www.w3.org/1999/02/22-rdf-syntax-ns#"
   xmlns:svg="http://www.w3.org/2000/svg"
   xmlns="http://www.w3.org/2000/svg"
   xmlns:sodipodi="http://sodipodi.sourceforge.net/DTD/sodipodi-0.dtd"
   xmlns:inkscape="http://www.inkscape.org/namespaces/inkscape"
   version="1.1"
   id="Layer_1"
   x="0px"
   y="0px"
   width="24"
   height="24"
   viewBox="0 0 24 24"
   enable-background="new 0 0 100 100"
   xml:space="preserve"
   inkscape:version="0.48.3.1 r9886"
   sodipodi:docname="icon.svg" preserveAspectRatio="xMinYMid meet"><metadata
   id="metadata17"><rdf:RDF><cc:Work
       rdf:about=""><dc:format>image/svg+xml</dc:format><dc:type
         rdf:resource="http://purl.org/dc/dcmitype/StillImage" /><dc:title /></cc:Work></rdf:RDF></metadata><defs
   id="defs15" /><sodipodi:namedview
   pagecolor="#ffffff"
   bordercolor="#666666"
   borderopacity="1"
   objecttolerance="10"
   gridtolerance="10"
   guidetolerance="10"
   inkscape:pageopacity="0"
   inkscape:pageshadow="2"
   inkscape:window-width="1920"
   inkscape:window-height="1029"
   id="namedview13"
   showgrid="false"
   fit-margin-top="0"
   fit-margin-left="0"
   fit-margin-right="0"
   fit-margin-bottom="0"
   inkscape:zoom="6.675088"
   inkscape:cx="-55.939179"
   inkscape:cy="12"
   inkscape:window-x="0"
   inkscape:window-y="26"
   inkscape:window-maximized="1"
   inkscape:current-layer="Layer_1" />


<g
   id="g2994"
   transform="scale(0.24,0.24)"
   style="fill:#000000;fill-opacity:1"><path
     id="path3"
     d="M 50,0 C 22.386,0 0,3.214 0,7.179 v 21.886 c 0,3.964 22.386,7.179 50,7.179 27.612,0 50,-3.215 50,-7.179 V 7.179 C 100,3.214 77.612,0 50,0 z"
     inkscape:connector-curvature="0"
     style="fill:#000000;fill-opacity:1" /><g
     id="g5"
     style="fill:#000000;fill-opacity:1">
	<path
   id="path7"
   d="M 50,46.24 C 22.386,46.24 0,43.025 0,39.061 v 21.885 c 0,3.964 22.386,7.18 50,7.18 27.612,0 50,-3.216 50,-7.18 V 39.061 c 0,3.964 -22.388,7.179 -50,7.179 z"
   inkscape:connector-curvature="0"
   style="fill:#000000;fill-opacity:1" />
</g><g
     id="g9"
     style="fill:#000000;fill-opacity:1">
	<path
   id="path11"
   d="M 50,78.116 C 22.386,78.116 0,74.9 0,70.935 V 92.821 C 0,96.787 22.386,100 50,100 c 27.612,0 50,-3.213 50,-7.179 V 70.936 c 0,3.964 -22.388,7.18 -50,7.18 z"
   inkscape:connector-curvature="0"
   style="fill:#000000;fill-opacity:1" />
</g></g>
</svg>