<?xml version="1.0" encoding="UTF-8" standalone="no"?>
<svg
   xmlns:dc="http://purl.org/dc/elements/1.1/"
   xmlns:cc="http://creativecommons.org/ns#"
   xmlns:rdf="http://www.w3.org/1999/02/22-rdf-syntax-ns#"
   xmlns:svg="http://www.w3.org/2000/svg"
   xmlns="http://www.w3.org/2000/svg"
   xmlns:xlink="http://www.w3.org/1999/xlink"
   xmlns:sodipodi="http://sodipodi.sourceforge.net/DTD/sodipodi-0.dtd"
   xmlns:inkscape="http://www.inkscape.org/namespaces/inkscape"
   version="1.1"
   id="Layer_1"
   x="0px"
   y="0px"
   width="24.000086"
   height="24"
   viewBox="0 0 24.000086 24"
   enable-background="new 0 0 22 23"
   xml:space="preserve"
   inkscape:version="0.48.3.1 r9886"
   sodipodi:docname="icon.svg"
   preserveAspectRatio="xMinYMid meet"
   inkscape:export-filename="/home/christian/Dokumente/eLearning/Moodle/theme/moodle-theme_anomalyblackred/pix_plugins/mod/adobeconnect/icon.png"
   inkscape:export-xdpi="89.99968"
   inkscape:export-ydpi="89.99968"><metadata
   id="metadata17"><rdf:RDF><cc:Work
       rdf:about=""><dc:format>image/svg+xml</dc:format><dc:type
         rdf:resource="http://purl.org/dc/dcmitype/StillImage" /><dc:title></dc:title></cc:Work></rdf:RDF></metadata><defs
   id="defs15"><linearGradient
   id="linearGradient5462"><stop
     style="stop-color:#000000;stop-opacity:0.92156863;"
     offset="0"
     id="stop5464" /><stop
     style="stop-color:#000000;stop-opacity:0.78431374;"
     offset="1"
     id="stop5466" /></linearGradient>
	
	
	
	
<filter
   inkscape:collect="always"
   id="filter4056"><feGaussianBlur
     inkscape:collect="always"
     stdDeviation="0.022108572"
     id="feGaussianBlur4058" /></filter><linearGradient
   inkscape:collect="always"
   xlink:href="#linearGradient5462"
   id="linearGradient5468"
   x1="3.3704567"
   y1="8.2323678"
   x2="20.604134"
   y2="8.2323678"
   gradientUnits="userSpaceOnUse"
   gradientTransform="matrix(0.69631114,0,0,1.3647756,-0.28688585,-23.205333)" /></defs><sodipodi:namedview
   pagecolor="#ffffff"
   bordercolor="#666666"
   borderopacity="1"
   objecttolerance="10"
   gridtolerance="10"
   guidetolerance="10"
   inkscape:pageopacity="0"
   inkscape:pageshadow="2"
   inkscape:window-width="1881"
   inkscape:window-height="1027"
   id="namedview13"
   showgrid="false"
   fit-margin-top="0"
   fit-margin-left="0"
   fit-margin-right="0"
   fit-margin-bottom="0"
   inkscape:zoom="2.5652175"
   inkscape:cx="-3.1951912"
   inkscape:cy="18.556873"
   inkscape:window-x="0"
   inkscape:window-y="28"
   inkscape:window-maximized="1"
   inkscape:current-layer="Layer_1"><inkscape:grid
     type="xygrid"
     id="grid4635"
     empspacing="5"
     visible="true"
     enabled="true"
     snapvisiblegridlinesonly="true" /></sodipodi:namedview>

<rect
   ry="0"
   y="-20.469999"
   x="2.0599999"
   height="17"
   width="12"
   id="rect5460"
   style="fill:url(#linearGradient5468);fill-opacity:1;fill-rule:nonzero;stroke:#000000;stroke-opacity:1"
   transform="matrix(0,1,-1,0,0,0)" /><g
   id="g5329"
   transform="matrix(1.0828067,0,0,1.1229393,-0.36485218,-1.8465977)"><g
     style="fill:#ff0000;fill-opacity:1;stroke:#ffffff;stroke-width:3.97534657;stroke-linecap:round;stroke-linejoin:round;stroke-miterlimit:4;stroke-opacity:1;stroke-dasharray:none;filter:url(#filter4056)"
     transform="matrix(0.3773256,0,0,0.3773256,-0.68460222,1.3371058)"
     id="g4255"><g
       style="fill:#ff0000;fill-opacity:1;stroke:#ffffff;stroke-width:3.97534657;stroke-linecap:round;stroke-linejoin:round;stroke-miterlimit:4;stroke-opacity:1;stroke-dasharray:none"
       id="g4257"><path
         d="m 10.307,27.863 2.499,-0.273 0.256,0 5.188,0 c 11.041,0 11.853,4.536 11.853,4.536 l 0.079,0.649 0.146047,10.025132 c -4.717884,0.02479 -0.02079,0.06829 -4.777466,0.06582 L 25.114,35.004"
         id="path4259"
         inkscape:connector-curvature="0"
         style="fill:#ff0000;fill-opacity:1;stroke:#ffffff;stroke-width:3.97534657;stroke-linecap:round;stroke-linejoin:round;stroke-miterlimit:4;stroke-opacity:1;stroke-dasharray:none"
         sodipodi:nodetypes="cccsccccc" /></g><path
       style="fill:#ff0000;fill-opacity:1;stroke:#ffffff;stroke-width:3.97534657;stroke-linecap:round;stroke-linejoin:round;stroke-miterlimit:4;stroke-opacity:1;stroke-dasharray:none"
       inkscape:connector-curvature="0"
       d="M 11.759,47.31"
       id="path4261" /><path
       style="fill:#ff0000;fill-opacity:1;stroke:#ffffff;stroke-width:3.97534657;stroke-linecap:round;stroke-linejoin:round;stroke-miterlimit:4;stroke-opacity:1;stroke-dasharray:none"
       inkscape:connector-curvature="0"
       d="m 21.237,47.31 0,0"
       id="path4263" /><path
       style="fill:#ff0000;fill-opacity:1;stroke:#ffffff;stroke-width:3.97534657;stroke-linecap:round;stroke-linejoin:round;stroke-miterlimit:4;stroke-opacity:1;stroke-dasharray:none"
       inkscape:connector-curvature="0"
       d="M 7.732,35.41"
       id="path4265" /><path
       d="m 25.112,35.004 -1.592,-0.25 0.164905,7.993449 c -14.4085794,0.123508 -0.02651,-0.01692 -14.2859996,0 L 9.324,34.911 l -1.592,0.094 0,-0.229 0.074905,8.038896 c -5.0712133,0.135399 -0.075219,0.03661 -5.067,0.07491 L 2.665,32.775 2.744,32.126 c 0,0 0.812,-4.536 11.852,-4.536 l 5.187,0 0.257,0"
       id="path4267"
       inkscape:connector-curvature="0"
       style="fill:#ff0000;fill-opacity:1;stroke:#ffffff;stroke-width:3.97534657;stroke-linecap:round;stroke-linejoin:round;stroke-miterlimit:4;stroke-opacity:1;stroke-dasharray:none"
       sodipodi:nodetypes="cccccccccccscc" /></g><g
     style="fill:#ffffff;fill-opacity:1"
     id="g4323"
     transform="matrix(0.25435453,0,0,0.33515559,1.3961875,3.3421827)"><g
       style="fill:#ffffff;fill-opacity:1"
       id="g4325"><path
         sodipodi:nodetypes="cccsccccc"
         style="fill:#ffffff;fill-opacity:1"
         inkscape:connector-curvature="0"
         id="path4327"
         d="m 10.307,27.863 2.499,-0.273 0.256,0 5.188,0 c 11.041,0 11.853,4.536 11.853,4.536 l 0.079,0.649 0.146047,10.025132 c -4.717884,0.02479 -0.02079,0.06829 -4.777466,0.06582 L 25.114,35.004" /></g><path
       id="path4329"
       d="M 11.759,47.31"
       inkscape:connector-curvature="0"
       style="fill:#ffffff;fill-opacity:1" /><path
       id="path4331"
       d="m 21.237,47.31 0,0"
       inkscape:connector-curvature="0"
       style="fill:#ffffff;fill-opacity:1" /><path
       id="path4333"
       d="M 7.732,35.41"
       inkscape:connector-curvature="0"
       style="fill:#ffffff;fill-opacity:1" /><path
       sodipodi:nodetypes="cccccccccccscc"
       style="fill:#ffffff;fill-opacity:1"
       inkscape:connector-curvature="0"
       id="path4335"
       d="m 25.112,35.004 -1.592,-0.25 0.164905,7.993449 c -14.4085794,0.123508 -0.02651,-0.01692 -14.2859996,0 L 9.324,34.911 l -1.592,0.094 0,-0.229 0.074905,8.038896 c -5.0712133,0.135399 -0.075219,0.03661 -5.067,0.07491 L 2.665,32.775 2.744,32.126 c 0,0 0.812,-4.536 11.852,-4.536 l 5.187,0 0.257,0" /></g><g
     transform="matrix(0.36649082,0,0,0.37847113,-0.50359767,1.472752)"
     id="g4269"><g
       id="g4271"><path
         d="m 10.307,27.863 2.499,-0.273 0.256,0 5.188,0 c 11.041,0 11.853,4.536 11.853,4.536 l 0.079,0.649 0.146047,10.025132 c -4.717884,0.02479 -0.02079,0.06829 -4.777466,0.06582 L 25.114,35.004"
         id="path4273"
         inkscape:connector-curvature="0"
         style="fill:#000000"
         sodipodi:nodetypes="cccsccccc" /></g><path
       style="fill:#000000"
       inkscape:connector-curvature="0"
       d="M 11.759,47.31"
       id="path4275" /><path
       style="fill:#000000"
       inkscape:connector-curvature="0"
       d="m 21.237,47.31 0,0"
       id="path4277" /><path
       style="fill:#000000"
       inkscape:connector-curvature="0"
       d="M 7.732,35.41"
       id="path4279" /><path
       d="m 25.112,35.004 -1.592,-0.25 0.164905,7.993449 c -14.4085794,0.123508 -0.02651,-0.01692 -14.2859996,0 L 9.324,34.911 l -1.592,0.094 0,-0.229 0.074905,8.038896 c -5.0712133,0.135399 -0.075219,0.03661 -5.067,0.07491 L 2.665,32.775 2.744,32.126 c 0,0 0.812,-4.536 11.852,-4.536 l 5.187,0 0.257,0"
       id="path4281"
       inkscape:connector-curvature="0"
       style="fill:#000000"
       sodipodi:nodetypes="cccccccccccscc" /></g><g
     style="stroke:#ffffff;stroke-width:3.97534657;stroke-linecap:round;stroke-linejoin:round;stroke-miterlimit:4;stroke-opacity:1;stroke-dasharray:none;filter:url(#filter4056)"
     transform="matrix(0.3773256,0,0,0.3773256,-0.68460222,2.4179449)"
     id="g4283"><circle
       d="m 22.757001,20.149 c 0,3.498724 -2.836276,6.335 -6.335,6.335 -3.498724,0 -6.335,-2.836276 -6.335,-6.335 0,-3.498724 2.836276,-6.335 6.335,-6.335 3.498724,0 6.335,2.836276 6.335,6.335 z"
       style="fill:#000000;stroke:#ffffff;stroke-width:3.97534657;stroke-linecap:round;stroke-linejoin:round;stroke-miterlimit:4;stroke-opacity:1;stroke-dasharray:none"
       sodipodi:ry="6.335"
       sodipodi:rx="6.335"
       sodipodi:cy="20.149"
       sodipodi:cx="16.422001"
       cx="16.422001"
       cy="20.149"
       r="6.335"
       id="circle4285" /></g><g
     id="g5304"
     transform="matrix(0.32873827,0,0,0.32873827,0.11345986,3.5972526)"
     style="stroke:none;filter:url(#filter4056)"><circle
       id="circle5306"
       r="6.335"
       cy="20.149"
       cx="16.422001"
       sodipodi:cx="16.422001"
       sodipodi:cy="20.149"
       sodipodi:rx="6.335"
       sodipodi:ry="6.335"
       style="fill:#000000;stroke:none"
       d="m 22.757001,20.149 c 0,3.498724 -2.836276,6.335 -6.335,6.335 -3.498724,0 -6.335,-2.836276 -6.335,-6.335 0,-3.498724 2.836276,-6.335 6.335,-6.335 3.498724,0 6.335,2.836276 6.335,6.335 z" /></g></g><g
   transform="matrix(1.0828067,0,0,1.1229393,12.435148,-1.8465977)"
   id="g5653"><g
     id="g5655"
     transform="matrix(0.3773256,0,0,0.3773256,-0.68460222,1.3371058)"
     style="fill:#ff0000;fill-opacity:1;stroke:#ffffff;stroke-width:3.97534657;stroke-linecap:round;stroke-linejoin:round;stroke-miterlimit:4;stroke-opacity:1;stroke-dasharray:none;filter:url(#filter4056)"><g
       id="g5657"
       style="fill:#ff0000;fill-opacity:1;stroke:#ffffff;stroke-width:3.97534657;stroke-linecap:round;stroke-linejoin:round;stroke-miterlimit:4;stroke-opacity:1;stroke-dasharray:none"><path
         sodipodi:nodetypes="cccsccccc"
         style="fill:#ff0000;fill-opacity:1;stroke:#ffffff;stroke-width:3.97534657;stroke-linecap:round;stroke-linejoin:round;stroke-miterlimit:4;stroke-opacity:1;stroke-dasharray:none"
         inkscape:connector-curvature="0"
         id="path5659"
         d="m 10.307,27.863 2.499,-0.273 0.256,0 5.188,0 c 11.041,0 11.853,4.536 11.853,4.536 l 0.079,0.649 0.146047,10.025132 c -4.717884,0.02479 -0.02079,0.06829 -4.777466,0.06582 L 25.114,35.004" /></g><path
       id="path5661"
       d="M 11.759,47.31"
       inkscape:connector-curvature="0"
       style="fill:#ff0000;fill-opacity:1;stroke:#ffffff;stroke-width:3.97534657;stroke-linecap:round;stroke-linejoin:round;stroke-miterlimit:4;stroke-opacity:1;stroke-dasharray:none" /><path
       id="path5663"
       d="m 21.237,47.31 0,0"
       inkscape:connector-curvature="0"
       style="fill:#ff0000;fill-opacity:1;stroke:#ffffff;stroke-width:3.97534657;stroke-linecap:round;stroke-linejoin:round;stroke-miterlimit:4;stroke-opacity:1;stroke-dasharray:none" /><path
       id="path5665"
       d="M 7.732,35.41"
       inkscape:connector-curvature="0"
       style="fill:#ff0000;fill-opacity:1;stroke:#ffffff;stroke-width:3.97534657;stroke-linecap:round;stroke-linejoin:round;stroke-miterlimit:4;stroke-opacity:1;stroke-dasharray:none" /><path
       sodipodi:nodetypes="cccccccccccscc"
       style="fill:#ff0000;fill-opacity:1;stroke:#ffffff;stroke-width:3.97534657;stroke-linecap:round;stroke-linejoin:round;stroke-miterlimit:4;stroke-opacity:1;stroke-dasharray:none"
       inkscape:connector-curvature="0"
       id="path5667"
       d="m 25.112,35.004 -1.592,-0.25 0.164905,7.993449 c -14.4085794,0.123508 -0.02651,-0.01692 -14.2859996,0 L 9.324,34.911 l -1.592,0.094 0,-0.229 0.074905,8.038896 c -5.0712133,0.135399 -0.075219,0.03661 -5.067,0.07491 L 2.665,32.775 2.744,32.126 c 0,0 0.812,-4.536 11.852,-4.536 l 5.187,0 0.257,0" /></g><g
     transform="matrix(0.25435453,0,0,0.33515559,1.3961875,3.3421827)"
     id="g5669"
     style="fill:#ffffff;fill-opacity:1"><g
       id="g5671"
       style="fill:#ffffff;fill-opacity:1"><path
         d="m 10.307,27.863 2.499,-0.273 0.256,0 5.188,0 c 11.041,0 11.853,4.536 11.853,4.536 l 0.079,0.649 0.146047,10.025132 c -4.717884,0.02479 -0.02079,0.06829 -4.777466,0.06582 L 25.114,35.004"
         id="path5673"
         inkscape:connector-curvature="0"
         style="fill:#ffffff;fill-opacity:1"
         sodipodi:nodetypes="cccsccccc" /></g><path
       style="fill:#ffffff;fill-opacity:1"
       inkscape:connector-curvature="0"
       d="M 11.759,47.31"
       id="path5675" /><path
       style="fill:#ffffff;fill-opacity:1"
       inkscape:connector-curvature="0"
       d="m 21.237,47.31 0,0"
       id="path5677" /><path
       style="fill:#ffffff;fill-opacity:1"
       inkscape:connector-curvature="0"
       d="M 7.732,35.41"
       id="path5679" /><path
       d="m 25.112,35.004 -1.592,-0.25 0.164905,7.993449 c -14.4085794,0.123508 -0.02651,-0.01692 -14.2859996,0 L 9.324,34.911 l -1.592,0.094 0,-0.229 0.074905,8.038896 c -5.0712133,0.135399 -0.075219,0.03661 -5.067,0.07491 L 2.665,32.775 2.744,32.126 c 0,0 0.812,-4.536 11.852,-4.536 l 5.187,0 0.257,0"
       id="path5681"
       inkscape:connector-curvature="0"
       style="fill:#ffffff;fill-opacity:1"
       sodipodi:nodetypes="cccccccccccscc" /></g><g
     id="g5683"
     transform="matrix(0.36649082,0,0,0.37847113,-0.50359767,1.472752)"><g
       id="g5685"><path
         sodipodi:nodetypes="cccsccccc"
         style="fill:#000000"
         inkscape:connector-curvature="0"
         id="path5687"
         d="m 10.307,27.863 2.499,-0.273 0.256,0 5.188,0 c 11.041,0 11.853,4.536 11.853,4.536 l 0.079,0.649 0.146047,10.025132 c -4.717884,0.02479 -0.02079,0.06829 -4.777466,0.06582 L 25.114,35.004" /></g><path
       id="path5689"
       d="M 11.759,47.31"
       inkscape:connector-curvature="0"
       style="fill:#000000" /><path
       id="path5691"
       d="m 21.237,47.31 0,0"
       inkscape:connector-curvature="0"
       style="fill:#000000" /><path
       id="path5693"
       d="M 7.732,35.41"
       inkscape:connector-curvature="0"
       style="fill:#000000" /><path
       sodipodi:nodetypes="cccccccccccscc"
       style="fill:#000000"
       inkscape:connector-curvature="0"
       id="path5695"
       d="m 25.112,35.004 -1.592,-0.25 0.164905,7.993449 c -14.4085794,0.123508 -0.02651,-0.01692 -14.2859996,0 L 9.324,34.911 l -1.592,0.094 0,-0.229 0.074905,8.038896 c -5.0712133,0.135399 -0.075219,0.03661 -5.067,0.07491 L 2.665,32.775 2.744,32.126 c 0,0 0.812,-4.536 11.852,-4.536 l 5.187,0 0.257,0" /></g><g
     id="g5697"
     transform="matrix(0.3773256,0,0,0.3773256,-0.68460222,2.4179449)"
     style="stroke:#ffffff;stroke-width:3.97534657;stroke-linecap:round;stroke-linejoin:round;stroke-miterlimit:4;stroke-opacity:1;stroke-dasharray:none;filter:url(#filter4056)"><circle
       id="circle5699"
       r="6.335"
       cy="20.149"
       cx="16.422001"
       sodipodi:cx="16.422001"
       sodipodi:cy="20.149"
       sodipodi:rx="6.335"
       sodipodi:ry="6.335"
       style="fill:#000000;stroke:#ffffff;stroke-width:3.97534657;stroke-linecap:round;stroke-linejoin:round;stroke-miterlimit:4;stroke-opacity:1;stroke-dasharray:none"
       d="m 22.757001,20.149 c 0,3.498724 -2.836276,6.335 -6.335,6.335 -3.498724,0 -6.335,-2.836276 -6.335,-6.335 0,-3.498724 2.836276,-6.335 6.335,-6.335 3.498724,0 6.335,2.836276 6.335,6.335 z" /></g><g
     style="stroke:none;filter:url(#filter4056)"
     transform="matrix(0.32873827,0,0,0.32873827,0.11345986,3.5972526)"
     id="g5701"><circle
       d="m 22.757001,20.149 c 0,3.498724 -2.836276,6.335 -6.335,6.335 -3.498724,0 -6.335,-2.836276 -6.335,-6.335 0,-3.498724 2.836276,-6.335 6.335,-6.335 3.498724,0 6.335,2.836276 6.335,6.335 z"
       style="fill:#000000;stroke:none"
       sodipodi:ry="6.335"
       sodipodi:rx="6.335"
       sodipodi:cy="20.149"
       sodipodi:cx="16.422001"
       cx="16.422001"
       cy="20.149"
       r="6.335"
       id="circle5703" /></g></g><g
   transform="matrix(1.0828067,0,0,1.1229393,6.0351479,4.0531138)"
   id="g5705"><g
     id="g5707"
     transform="matrix(0.3773256,0,0,0.3773256,-0.68460222,1.3371058)"
     style="fill:#ff0000;fill-opacity:1;stroke:#ffffff;stroke-width:3.97534657;stroke-linecap:round;stroke-linejoin:round;stroke-miterlimit:4;stroke-opacity:1;stroke-dasharray:none;filter:url(#filter4056)"><g
       id="g5709"
       style="fill:#ff0000;fill-opacity:1;stroke:#ffffff;stroke-width:3.97534657;stroke-linecap:round;stroke-linejoin:round;stroke-miterlimit:4;stroke-opacity:1;stroke-dasharray:none"><path
         sodipodi:nodetypes="cccsccccc"
         style="fill:#ff0000;fill-opacity:1;stroke:#ffffff;stroke-width:3.97534657;stroke-linecap:round;stroke-linejoin:round;stroke-miterlimit:4;stroke-opacity:1;stroke-dasharray:none"
         inkscape:connector-curvature="0"
         id="path5711"
         d="m 10.307,27.863 2.499,-0.273 0.256,0 5.188,0 c 11.041,0 11.853,4.536 11.853,4.536 l 0.079,0.649 0.146047,10.025132 c -4.717884,0.02479 -0.02079,0.06829 -4.777466,0.06582 L 25.114,35.004" /></g><path
       id="path5713"
       d="M 11.759,47.31"
       inkscape:connector-curvature="0"
       style="fill:#ff0000;fill-opacity:1;stroke:#ffffff;stroke-width:3.97534657;stroke-linecap:round;stroke-linejoin:round;stroke-miterlimit:4;stroke-opacity:1;stroke-dasharray:none" /><path
       id="path5715"
       d="m 21.237,47.31 0,0"
       inkscape:connector-curvature="0"
       style="fill:#ff0000;fill-opacity:1;stroke:#ffffff;stroke-width:3.97534657;stroke-linecap:round;stroke-linejoin:round;stroke-miterlimit:4;stroke-opacity:1;stroke-dasharray:none" /><path
       id="path5717"
       d="M 7.732,35.41"
       inkscape:connector-curvature="0"
       style="fill:#ff0000;fill-opacity:1;stroke:#ffffff;stroke-width:3.97534657;stroke-linecap:round;stroke-linejoin:round;stroke-miterlimit:4;stroke-opacity:1;stroke-dasharray:none" /><path
       sodipodi:nodetypes="cccccccccccscc"
       style="fill:#ff0000;fill-opacity:1;stroke:#ffffff;stroke-width:3.97534657;stroke-linecap:round;stroke-linejoin:round;stroke-miterlimit:4;stroke-opacity:1;stroke-dasharray:none"
       inkscape:connector-curvature="0"
       id="path5719"
       d="m 25.112,35.004 -1.592,-0.25 0.164905,7.993449 c -14.4085794,0.123508 -0.02651,-0.01692 -14.2859996,0 L 9.324,34.911 l -1.592,0.094 0,-0.229 0.074905,8.038896 c -5.0712133,0.135399 -0.075219,0.03661 -5.067,0.07491 L 2.665,32.775 2.744,32.126 c 0,0 0.812,-4.536 11.852,-4.536 l 5.187,0 0.257,0" /></g><g
     transform="matrix(0.25435453,0,0,0.33515559,1.3961875,3.3421827)"
     id="g5721"
     style="fill:#ffffff;fill-opacity:1"><g
       id="g5723"
       style="fill:#ffffff;fill-opacity:1"><path
         d="m 10.307,27.863 2.499,-0.273 0.256,0 5.188,0 c 11.041,0 11.853,4.536 11.853,4.536 l 0.079,0.649 0.146047,10.025132 c -4.717884,0.02479 -0.02079,0.06829 -4.777466,0.06582 L 25.114,35.004"
         id="path5725"
         inkscape:connector-curvature="0"
         style="fill:#ffffff;fill-opacity:1"
         sodipodi:nodetypes="cccsccccc" /></g><path
       style="fill:#ffffff;fill-opacity:1"
       inkscape:connector-curvature="0"
       d="M 11.759,47.31"
       id="path5727" /><path
       style="fill:#ffffff;fill-opacity:1"
       inkscape:connector-curvature="0"
       d="m 21.237,47.31 0,0"
       id="path5729" /><path
       style="fill:#ffffff;fill-opacity:1"
       inkscape:connector-curvature="0"
       d="M 7.732,35.41"
       id="path5731" /><path
       d="m 25.112,35.004 -1.592,-0.25 0.164905,7.993449 c -14.4085794,0.123508 -0.02651,-0.01692 -14.2859996,0 L 9.324,34.911 l -1.592,0.094 0,-0.229 0.074905,8.038896 c -5.0712133,0.135399 -0.075219,0.03661 -5.067,0.07491 L 2.665,32.775 2.744,32.126 c 0,0 0.812,-4.536 11.852,-4.536 l 5.187,0 0.257,0"
       id="path5733"
       inkscape:connector-curvature="0"
       style="fill:#ffffff;fill-opacity:1"
       sodipodi:nodetypes="cccccccccccscc" /></g><g
     id="g5735"
     transform="matrix(0.36649082,0,0,0.37847113,-0.50359767,1.472752)"><g
       id="g5737"><path
         sodipodi:nodetypes="cccsccccc"
         style="fill:#000000"
         inkscape:connector-curvature="0"
         id="path5739"
         d="m 10.307,27.863 2.499,-0.273 0.256,0 5.188,0 c 11.041,0 11.853,4.536 11.853,4.536 l 0.079,0.649 0.146047,10.025132 c -4.717884,0.02479 -0.02079,0.06829 -4.777466,0.06582 L 25.114,35.004" /></g><path
       id="path5741"
       d="M 11.759,47.31"
       inkscape:connector-curvature="0"
       style="fill:#000000" /><path
       id="path5743"
       d="m 21.237,47.31 0,0"
       inkscape:connector-curvature="0"
       style="fill:#000000" /><path
       id="path5745"
       d="M 7.732,35.41"
       inkscape:connector-curvature="0"
       style="fill:#000000" /><path
       sodipodi:nodetypes="cccccccccccscc"
       style="fill:#000000"
       inkscape:connector-curvature="0"
       id="path5747"
       d="m 25.112,35.004 -1.592,-0.25 0.164905,7.993449 c -14.4085794,0.123508 -0.02651,-0.01692 -14.2859996,0 L 9.324,34.911 l -1.592,0.094 0,-0.229 0.074905,8.038896 c -5.0712133,0.135399 -0.075219,0.03661 -5.067,0.07491 L 2.665,32.775 2.744,32.126 c 0,0 0.812,-4.536 11.852,-4.536 l 5.187,0 0.257,0" /></g><g
     id="g5749"
     transform="matrix(0.3773256,0,0,0.3773256,-0.68460222,2.4179449)"
     style="stroke:#ffffff;stroke-width:3.97534657;stroke-linecap:round;stroke-linejoin:round;stroke-miterlimit:4;stroke-opacity:1;stroke-dasharray:none;filter:url(#filter4056)"><circle
       id="circle5751"
       r="6.335"
       cy="20.149"
       cx="16.422001"
       sodipodi:cx="16.422001"
       sodipodi:cy="20.149"
       sodipodi:rx="6.335"
       sodipodi:ry="6.335"
       style="fill:#000000;stroke:#ffffff;stroke-width:3.97534657;stroke-linecap:round;stroke-linejoin:round;stroke-miterlimit:4;stroke-opacity:1;stroke-dasharray:none"
       d="m 22.757001,20.149 c 0,3.498724 -2.836276,6.335 -6.335,6.335 -3.498724,0 -6.335,-2.836276 -6.335,-6.335 0,-3.498724 2.836276,-6.335 6.335,-6.335 3.498724,0 6.335,2.836276 6.335,6.335 z" /></g><g
     style="stroke:none;filter:url(#filter4056)"
     transform="matrix(0.32873827,0,0,0.32873827,0.11345986,3.5972526)"
     id="g5753"><circle
       d="m 22.757001,20.149 c 0,3.498724 -2.836276,6.335 -6.335,6.335 -3.498724,0 -6.335,-2.836276 -6.335,-6.335 0,-3.498724 2.836276,-6.335 6.335,-6.335 3.498724,0 6.335,2.836276 6.335,6.335 z"
       style="fill:#000000;stroke:none"
       sodipodi:ry="6.335"
       sodipodi:rx="6.335"
       sodipodi:cy="20.149"
       sodipodi:cx="16.422001"
       cx="16.422001"
       cy="20.149"
       r="6.335"
       id="circle5755" /></g></g></svg>