<?xml version="1.0" encoding="UTF-8" standalone="no"?>
<!-- Created with Inkscape (http://www.inkscape.org/) -->

<svg
   xmlns:dc="http://purl.org/dc/elements/1.1/"
   xmlns:cc="http://creativecommons.org/ns#"
   xmlns:rdf="http://www.w3.org/1999/02/22-rdf-syntax-ns#"
   xmlns:svg="http://www.w3.org/2000/svg"
   xmlns="http://www.w3.org/2000/svg"
   xmlns:xlink="http://www.w3.org/1999/xlink"
   xmlns:sodipodi="http://sodipodi.sourceforge.net/DTD/sodipodi-0.dtd"
   xmlns:inkscape="http://www.inkscape.org/namespaces/inkscape"
   width="79.991997"
   height="79.999535"
   id="svg4768"
   version="1.1"
   inkscape:version="0.48.3.1 r9886"
   sodipodi:docname="audio.svg"
   inkscape:export-filename="/home/uri/mintscicon.png"
   inkscape:export-xdpi="13.719384"
   inkscape:export-ydpi="13.719384" preserveAspectRatio="xMinYMid meet">
  <defs
     id="defs4770">
    <linearGradient
       id="linearGradient3824">
      <stop
         style="stop-color:#468800;stop-opacity:1;"
         offset="0"
         id="stop3826" />
      <stop
         style="stop-color:#9fff00;stop-opacity:1;"
         offset="1"
         id="stop3828" />
    </linearGradient>
    <linearGradient
       id="linearGradient4136">
      <stop
         id="stop4150"
         offset="0"
         style="stop-color:#9d9d9d;stop-opacity:1;" />
      <stop
         id="stop4148"
         offset="0.5"
         style="stop-color:#e3e3e3;stop-opacity:1;" />
      <stop
         style="stop-color:#ffffff;stop-opacity:1;"
         offset="1"
         id="stop4140" />
    </linearGradient>
    <linearGradient
       id="linearGradient4126">
      <stop
         style="stop-color:#d9c183;stop-opacity:1"
         offset="0"
         id="stop4128" />
      <stop
         id="stop4130"
         offset="0.5"
         style="stop-color:#f5e4b7;stop-opacity:1" />
      <stop
         id="stop4132"
         offset="1"
         style="stop-color:#cfb469;stop-opacity:1" />
    </linearGradient>
    <linearGradient
       id="linearGradient4108">
      <stop
         id="stop4114"
         offset="0"
         style="stop-color:#e5d5ab;stop-opacity:1;" />
      <stop
         style="stop-color:#f9f0d9;stop-opacity:1;"
         offset="0.5"
         id="stop4120" />
      <stop
         style="stop-color:#e5d5ab;stop-opacity:1;"
         offset="1"
         id="stop4116" />
    </linearGradient>
    <linearGradient
       id="linearGradient3811">
      <stop
         id="stop3813"
         offset="0"
         style="stop-color:#8a7440;stop-opacity:1;" />
      <stop
         style="stop-color:#9c7a28;stop-opacity:1;"
         offset="0.32327268"
         id="stop3815" />
      <stop
         style="stop-color:#b49851;stop-opacity:1;"
         offset="0.69999999"
         id="stop3817" />
      <stop
         id="stop3819"
         offset="1"
         style="stop-color:#d6ba6e;stop-opacity:1;" />
    </linearGradient>
    <linearGradient
       id="linearGradient5412">
      <stop
         id="stop5414"
         offset="0"
         style="stop-color:#8a7440;stop-opacity:1;" />
      <stop
         style="stop-color:#9c7a28;stop-opacity:1;"
         offset="0.28"
         id="stop5416" />
      <stop
         style="stop-color:#b49851;stop-opacity:1;"
         offset="0.78399998"
         id="stop5418" />
      <stop
         id="stop5420"
         offset="1"
         style="stop-color:#d6ba6e;stop-opacity:1;" />
    </linearGradient>
    <linearGradient
       id="linearGradient5354">
      <stop
         style="stop-color:#8a7440;stop-opacity:1;"
         offset="0"
         id="stop5356" />
      <stop
         id="stop5364"
         offset="0.17296876"
         style="stop-color:#9c7a28;stop-opacity:1;" />
      <stop
         id="stop5362"
         offset="0.57656252"
         style="stop-color:#b49851;stop-opacity:1;" />
      <stop
         style="stop-color:#d6ba6e;stop-opacity:1;"
         offset="1"
         id="stop5358" />
    </linearGradient>
    <linearGradient
       id="linearGradient5336">
      <stop
         style="stop-color:#f4ff5a;stop-opacity:1;"
         offset="0"
         id="stop5338" />
      <stop
         style="stop-color:#74a61a;stop-opacity:1;"
         offset="1"
         id="stop5340" />
    </linearGradient>
    <inkscape:perspective
       sodipodi:type="inkscape:persp3d"
       inkscape:vp_x="3.045074e-06 : 526.18109 : 1"
       inkscape:vp_y="0 : 1000 : 0"
       inkscape:vp_z="744.09448 : 526.18109 : 1"
       inkscape:persp3d-origin="372.04724 : 350.78739 : 1"
       id="perspective4778" />
    <linearGradient
       inkscape:collect="always"
       xlink:href="#linearGradient5412"
       id="linearGradient5410"
       x1="495.4935"
       y1="768.9303"
       x2="495.4935"
       y2="497.69806"
       gradientUnits="userSpaceOnUse" />
    <linearGradient
       y2="400.39584"
       x2="317.6174"
       y1="521.40619"
       x1="317.6174"
       gradientUnits="userSpaceOnUse"
       id="linearGradient3011"
       xlink:href="#linearGradient3023"
       inkscape:collect="always" />
    <linearGradient
       gradientUnits="userSpaceOnUse"
       y2="400.39584"
       x2="317.6174"
       y1="521.40619"
       x1="317.6174"
       id="linearGradient3029"
       xlink:href="#linearGradient3023"
       inkscape:collect="always" />
    <linearGradient
       id="linearGradient3023"
       inkscape:collect="always">
      <stop
         id="stop3025"
         offset="0"
         style="stop-color:#333333;stop-opacity:1" />
      <stop
         id="stop3027"
         offset="1"
         style="stop-color:#000000;stop-opacity:0;" />
    </linearGradient>
    <linearGradient
       y2="400.39584"
       x2="317.6174"
       y1="521.40619"
       x1="317.6174"
       gradientUnits="userSpaceOnUse"
       id="linearGradient3011-2"
       xlink:href="#linearGradient3023-8"
       inkscape:collect="always" />
    <linearGradient
       gradientUnits="userSpaceOnUse"
       y2="400.39584"
       x2="317.6174"
       y1="521.40619"
       x1="317.6174"
       id="linearGradient3029-8"
       xlink:href="#linearGradient3023-8"
       inkscape:collect="always" />
    <linearGradient
       id="linearGradient3023-8"
       inkscape:collect="always">
      <stop
         id="stop3025-0"
         offset="0"
         style="stop-color:#333333;stop-opacity:1" />
      <stop
         id="stop3027-8"
         offset="1"
         style="stop-color:#000000;stop-opacity:0;" />
    </linearGradient>
    <linearGradient
       inkscape:collect="always"
       xlink:href="#linearGradient5412"
       id="linearGradient3076"
       gradientUnits="userSpaceOnUse"
       x1="495.4935"
       y1="768.9303"
       x2="495.4935"
       y2="497.69806" />
    <linearGradient
       inkscape:collect="always"
       xlink:href="#linearGradient5412"
       id="linearGradient3078"
       gradientUnits="userSpaceOnUse"
       x1="495.4935"
       y1="768.9303"
       x2="495.4935"
       y2="497.69806" />
    <linearGradient
       inkscape:collect="always"
       xlink:href="#linearGradient5412"
       id="linearGradient3080"
       gradientUnits="userSpaceOnUse"
       x1="495.4935"
       y1="768.9303"
       x2="495.4935"
       y2="497.69806" />
    <linearGradient
       inkscape:collect="always"
       xlink:href="#linearGradient4126"
       id="linearGradient3862"
       gradientUnits="userSpaceOnUse"
       gradientTransform="matrix(0,0.18474369,0.84549028,0,133.55983,134.09617)"
       x1="181.44475"
       y1="458.73257"
       x2="511.7583"
       y2="486.30695" />
    <linearGradient
       inkscape:collect="always"
       xlink:href="#linearGradient4108"
       id="linearGradient3865"
       gradientUnits="userSpaceOnUse"
       gradientTransform="matrix(0.98772205,0,0,0.37980987,48.750454,-7.7167911)"
       x1="238.6882"
       y1="473.97665"
       x2="492.97528"
       y2="482.39819" />
    <linearGradient
       inkscape:collect="always"
       xlink:href="#linearGradient3811"
       id="linearGradient3868"
       gradientUnits="userSpaceOnUse"
       gradientTransform="matrix(0.98772205,0,0,0.98772205,48.750454,-295.62807)"
       x1="348.09857"
       y1="516.61255"
       x2="348.09857"
       y2="476.30734" />
    <linearGradient
       inkscape:collect="always"
       xlink:href="#linearGradient5354"
       id="linearGradient3874"
       gradientUnits="userSpaceOnUse"
       gradientTransform="matrix(0.96844992,0,0,1.0052832,52.715728,-304.22172)"
       x1="342.17322"
       y1="857.11627"
       x2="342.17322"
       y2="499.80078" />
    <linearGradient
       inkscape:collect="always"
       xlink:href="#linearGradient4126"
       id="linearGradient3879"
       gradientUnits="userSpaceOnUse"
       gradientTransform="matrix(0,0.18474369,0.84549028,0,133.55983,341.27846)"
       x1="181.44475"
       y1="458.73257"
       x2="511.7583"
       y2="486.30695" />
    <linearGradient
       inkscape:collect="always"
       xlink:href="#linearGradient5412"
       id="linearGradient3833"
       gradientUnits="userSpaceOnUse"
       x1="495.4935"
       y1="768.9303"
       x2="495.4935"
       y2="497.69806" />
    <linearGradient
       inkscape:collect="always"
       xlink:href="#linearGradient3811"
       id="linearGradient3830"
       x1="261.1684"
       y1="468.59735"
       x2="261.1684"
       y2="426.41534"
       gradientUnits="userSpaceOnUse"
       gradientTransform="matrix(1.0693277,0,0,1.0693277,-18.103341,-31.043504)" />
    <linearGradient
       inkscape:collect="always"
       xlink:href="#linearGradient4136"
       id="linearGradient3853"
       x1="265.84116"
       y1="456.62814"
       x2="265.84116"
       y2="435.47223"
       gradientUnits="userSpaceOnUse"
       gradientTransform="translate(-3.9594688,0.16258621)" />
    <linearGradient
       inkscape:collect="always"
       xlink:href="#linearGradient4136"
       id="linearGradient3873"
       gradientUnits="userSpaceOnUse"
       gradientTransform="translate(1.9625505,0.16258621)"
       x1="265.84116"
       y1="456.62814"
       x2="265.84116"
       y2="435.47223" />
    <linearGradient
       inkscape:collect="always"
       xlink:href="#linearGradient4136"
       id="linearGradient3977"
       gradientUnits="userSpaceOnUse"
       gradientTransform="translate(-7.3041158,-0.10258103)"
       x1="265.84116"
       y1="456.62814"
       x2="265.84116"
       y2="435.47223" />
    <linearGradient
       inkscape:collect="always"
       xlink:href="#linearGradient4136"
       id="linearGradient3987"
       gradientUnits="userSpaceOnUse"
       gradientTransform="translate(-7.3041158,-0.10258103)"
       x1="265.84116"
       y1="456.62814"
       x2="265.84116"
       y2="435.47223" />
    <linearGradient
       y2="1002.9312"
       x2="24.113745"
       y1="1065.1559"
       x1="24.113745"
       gradientTransform="matrix(0.96799712,0,0,1.0252613,237.8948,-606.5607)"
       gradientUnits="userSpaceOnUse"
       id="linearGradient3321"
       xlink:href="#linearGradient3811-2"
       inkscape:collect="always" />
    <linearGradient
       id="linearGradient3811-2">
      <stop
         id="stop3813-1"
         offset="0"
         style="stop-color:#8a6c40;stop-opacity:1;" />
      <stop
         style="stop-color:#9c7728;stop-opacity:1;"
         offset="0.32327268"
         id="stop3815-6" />
      <stop
         style="stop-color:#b49851;stop-opacity:1;"
         offset="0.69999999"
         id="stop3817-5" />
      <stop
         id="stop3819-6"
         offset="1"
         style="stop-color:#d6ba6e;stop-opacity:1;" />
    </linearGradient>
    <linearGradient
       id="linearGradient6707">
      <stop
         id="stop6709"
         offset="0"
         style="stop-color:#000000;stop-opacity:1;" />
      <stop
         id="stop6711"
         offset="1"
         style="stop-color:#ffffff;stop-opacity:1;" />
    </linearGradient>
    <linearGradient
       y2="468.35892"
       x2="314.34872"
       y1="425.61682"
       x1="314.34872"
       gradientTransform="translate(-53.785477,-0.003684)"
       gradientUnits="userSpaceOnUse"
       id="linearGradient1187"
       xlink:href="#linearGradient1069"
       inkscape:collect="always" />
    <linearGradient
       id="linearGradient1069">
      <stop
         style="stop-color:#ffffff;stop-opacity:1"
         offset="0"
         id="stop1071" />
      <stop
         style="stop-color:#e6e6e6;stop-opacity:1"
         offset="1"
         id="stop1073" />
    </linearGradient>
    <linearGradient
       inkscape:collect="always"
       xlink:href="#linearGradient6707"
       id="linearGradient3107"
       gradientUnits="userSpaceOnUse"
       gradientTransform="matrix(5.7965821,0,0,8.5405965,-1252.516,-3435.5993)"
       x1="262.01361"
       y1="471.95245"
       x2="262.01361"
       y2="442.7843" />
    <linearGradient
       inkscape:collect="always"
       xlink:href="#linearGradient6707"
       id="linearGradient3079"
       gradientUnits="userSpaceOnUse"
       gradientTransform="matrix(5.7965821,0,0,8.5405965,-1252.516,-3435.5993)"
       x1="262.01361"
       y1="471.95245"
       x2="262.01361"
       y2="442.7843" />
    <linearGradient
       inkscape:collect="always"
       xlink:href="#linearGradient6707"
       id="linearGradient3077"
       gradientUnits="userSpaceOnUse"
       gradientTransform="matrix(1.8114204,0,0,2.6689195,-211.88361,-765.76882)"
       x1="262.01361"
       y1="471.95245"
       x2="262.01361"
       y2="442.7843" />
  </defs>
  <sodipodi:namedview
     id="base"
     pagecolor="#ffffff"
     bordercolor="#666666"
     borderopacity="1.0"
     inkscape:pageopacity="0.0"
     inkscape:pageshadow="2"
     inkscape:zoom="3.9999998"
     inkscape:cx="-79.5909"
     inkscape:cy="41.724467"
     inkscape:document-units="px"
     inkscape:current-layer="layer1"
     showgrid="false"
     inkscape:window-width="1920"
     inkscape:window-height="1029"
     inkscape:window-x="0"
     inkscape:window-y="26"
     inkscape:window-maximized="1"
     showguides="true"
     inkscape:guide-bbox="true"
     fit-margin-top="0"
     fit-margin-left="0.47"
     fit-margin-right="0.47"
     fit-margin-bottom="0">
    <inkscape:grid
       type="xygrid"
       id="grid3230"
       empspacing="5"
       visible="true"
       enabled="true"
       snapvisiblegridlinesonly="true"
       originx="-87.997976px"
       originy="-88.000276px" />
  </sodipodi:namedview>
  <metadata
     id="metadata4773">
    <rdf:RDF>
      <cc:Work
         rdf:about="">
        <dc:format>image/svg+xml</dc:format>
        <dc:type
           rdf:resource="http://purl.org/dc/dcmitype/StillImage" />
        <dc:title />
      </cc:Work>
    </rdf:RDF>
  </metadata>
  <g
     inkscape:label="Capa 1"
     inkscape:groupmode="layer"
     id="layer1"
     transform="translate(-221.13076,-407.77954)">
    <path
       style="opacity:0.5;fill:#000000;fill-opacity:1;stroke:none"
       d="m 224.53343,407.77954 73.18664,0 c 1.62472,0 2.93269,1.44542 2.93269,3.24087 l 0,73.51778 c 0,1.79548 -1.30797,3.24089 -2.93269,3.24089 l -73.18664,0 c -1.6247,0 -2.93267,-1.44543 -2.93267,-3.24089 l 0,-73.51778 c 0,-1.79545 1.30797,-3.24087 2.93267,-3.24087 z"
       id="rect3922"
       inkscape:connector-curvature="0" />
    <path
       inkscape:connector-curvature="0"
       id="path869"
       d="m 225.26564,408.79475 71.72221,0 c 1.58347,0 2.85826,1.36484 2.85826,3.06018 l 0,69.41809 c 0,1.69536 -1.27479,3.06018 -2.85826,3.06018 l -71.72221,0 c -1.58347,0 -2.85824,-1.36482 -2.85824,-3.06018 l 0,-69.41809 c 0,-1.69534 1.27479,-3.06018 2.85824,-3.06018 z"
       style="fill:#ff0000;fill-opacity:1;stroke:none" />
    <path
       inkscape:connector-curvature="0"
       style="fill:url(#linearGradient3077);fill-opacity:1;stroke:none"
       d="m 222.38589,464.09107 0,18.01521 c 0,2.57828 1.24689,4.67061 2.83035,4.67061 l 71.77753,0 c 1.58349,0 2.83034,-2.09233 2.83034,-4.67061 l 0,-18.01521 -77.43822,0 z"
       id="path874" />
    <path
       sodipodi:nodetypes="ccccsssccccssscccccc"
       inkscape:connector-curvature="0"
       id="path3081"
       d="m 248.29241,421.33016 0,0.6124 0,4.9755 0,18.23021 c -1.21265,-0.13867 -2.53179,-0.0898 -3.86561,0.26807 -4.28991,1.14941 -7.07853,4.63444 -6.2385,7.76932 0.84,3.135 5.01043,4.74724 9.3004,3.59773 3.77146,-1.01054 6.38482,-3.82745 6.3916,-6.62124 l 0,-24.71254 20.74406,-3.43039 0,21.90445 c -1.21766,-0.14219 -2.52498,-0.0533 -3.86556,0.30615 -4.28995,1.14945 -7.07856,4.59616 -6.23857,7.73114 0.84004,3.135 4.97223,4.74714 9.26215,3.59774 3.50226,-0.93851 6.00787,-3.42141 6.35338,-6.00895 l 0.0391,0 0,-0.57406 c 0.004,-0.19873 0.0244,-0.37597 0,-0.57412 l -1.9e-4,-31.97027 z"
       style="fill:#000000;fill-opacity:1;stroke:none;opacity:0.5" />
    <path
       style="fill:#ffffff;fill-opacity:1;stroke:none"
       d="m 250.29241,421.33016 0,0.6124 0,4.9755 0,18.23021 c -1.21265,-0.13867 -2.53179,-0.0898 -3.86561,0.26807 -4.28991,1.14941 -7.07853,4.63444 -6.2385,7.76932 0.84,3.135 5.01043,4.74724 9.3004,3.59773 3.77146,-1.01054 6.38482,-3.82745 6.3916,-6.62124 l 0,-24.71254 20.74406,-3.43039 0,21.90445 c -1.21766,-0.14219 -2.52498,-0.0533 -3.86556,0.30615 -4.28995,1.14945 -7.07856,4.59616 -6.23857,7.73114 0.84004,3.135 4.97223,4.74714 9.26215,3.59774 3.50226,-0.93851 6.00787,-3.42141 6.35338,-6.00895 l 0.0391,0 0,-0.57406 c 0.004,-0.19873 0.0244,-0.37597 0,-0.57412 l -1.9e-4,-31.97027 z"
       id="path1798"
       inkscape:connector-curvature="0"
       sodipodi:nodetypes="ccccsssccccssscccccc" />
    <g
       id="g3954"
       transform="matrix(0.46176754,0,0,0.44502762,175.86026,63.620745)">
      <path
         d="m 210.07816,909.89214 0,31.6211 -8.22266,0 0,-31.6211 8.22266,0 z"
         id="path4056"
         inkscape:connector-curvature="0"
         style="font-size:7.5px;font-style:normal;font-variant:normal;font-weight:bold;font-stretch:normal;line-height:125%;letter-spacing:0px;word-spacing:0px;fill:#ffffff;fill-opacity:1;stroke:none;font-family:Impact;-inkscape-font-specification:Impact Bold" />
      <path
         d="m 179.84657,909.89214 6.15234,0 q 5.95703,0 8.04688,0.54688 2.10937,0.54688 3.20312,1.79688 1.09375,1.25 1.36719,2.79296 0.27344,1.52344 0.27344,6.01563 l 0,11.07422 q 0,4.25781 -0.41013,5.70312 -0.39061,1.42578 -1.38672,2.24609 -0.9961,0.80079 -2.46094,1.13282 -1.46484,0.31248 -4.41406,0.31248 l -10.3711,0 -2e-5,-31.62108 z m 8.22265,5.41016 0,20.80078 q 1.77735,0 2.18751,-0.70313 0.41013,-0.72265 0.41013,-3.88671 l 0,-12.28516 q 0,-2.14843 -0.13675,-2.75391 -0.13674,-0.60546 -0.62499,-0.8789 -0.48822,-0.29296 -1.8359,-0.29296 z"
         id="path4058"
         inkscape:connector-curvature="0"
         style="font-size:7.5px;font-style:normal;font-variant:normal;font-weight:bold;font-stretch:normal;line-height:125%;letter-spacing:0px;word-spacing:0px;fill:#ffffff;fill-opacity:1;stroke:none;font-family:Impact;-inkscape-font-specification:Impact Bold" />
      <path
         d="m 232.02849,927.74377 q 0,4.76562 -0.2344,6.75781 -0.21482,1.97266 -1.40625,3.61328 -1.17187,1.64063 -3.18359,2.51953 -2.01172,0.87891 -4.6875,0.87891 -2.53906,0 -4.57031,-0.82031 -2.01172,-0.83985 -3.24219,-2.5 -1.23047,-1.66016 -1.46484,-3.61329 -0.23435,-1.95312 -0.23435,-6.83593 l 0,-5.41016 q 0,-4.76562 0.21483,-6.73828 0.2344,-1.99219 1.40625,-3.63281 1.1914,-1.64062 3.20312,-2.51953 2.01172,-0.87891 4.6875,-0.87891 2.53907,0 4.55078,0.83984 2.03125,0.82032 3.26172,2.48047 1.23047,1.66016 1.46484,3.61329 0.2344,1.95312 0.2344,6.83593 l -1e-5,5.41016 z m -8.22265,-10.39063 q 0,-2.20703 -0.25392,-2.8125 -0.2344,-0.62499 -0.99609,-0.62499 -0.64454,0 -0.9961,0.50784 -0.33205,0.48826 -0.33205,2.92968 l 0,14.76563 q 0,2.7539 0.21482,3.39843 0.2344,0.64453 1.05469,0.64453 0.83985,0 1.07422,-0.74218 0.2344,-0.74219 0.2344,-3.53516 l 3e-5,-14.53128 z"
         id="path4062"
         inkscape:connector-curvature="0"
         style="font-size:7.5px;font-style:normal;font-variant:normal;font-weight:bold;font-stretch:normal;line-height:125%;letter-spacing:0px;word-spacing:0px;fill:#ffffff;fill-opacity:1;stroke:none;font-family:Impact;-inkscape-font-specification:Impact Bold" />
      <path
         d="m 176.97001,910.24944 0,20.69808 q 0,3.51984 -0.23706,4.95456 -0.23759,1.41555 -1.40401,2.9268 -1.16674,1.49207 -3.08487,2.2764 -1.89837,0.76516 -4.48889,0.76516 -2.8673,0 -5.06233,-0.91821 -2.19498,-0.91821 -3.28261,-2.39117 -1.08759,-1.47296 -1.28538,-3.09897 -0.19764,-1.64512 -0.19764,-6.88661 l 0,-18.32604 8.3252,0 0,23.22318 q 0,2.02771 0.2176,2.60158 0.23706,0.5548 0.92943,0.5548 0.79102,0 1.00852,-0.61216 0.23705,-0.63127 0.23705,-2.94596 l 0,-22.82144 8.3252,0 z"
         id="path917"
         inkscape:connector-curvature="0"
         style="font-size:7.5px;font-style:normal;font-variant:normal;font-weight:bold;font-stretch:normal;line-height:125%;letter-spacing:0px;word-spacing:0px;fill:#ffffff;fill-opacity:1;stroke:none;font-family:Impact;-inkscape-font-specification:Impact Bold" />
      <path
         d="m 152.01408,909.8923 4.31338,31.621 -7.71396,0 -0.37583,-5.68356 -2.70257,0 -0.4472,5.68356 -7.80344,0 3.83017,-31.621 10.8997,0 z m -3.9912,20.33196 q -0.57275,-5.37109 -1.14544,-13.26168 -1.14548,9.06248 -1.43183,13.26168 l 2.57727,0 z"
         id="path921"
         inkscape:connector-curvature="0"
         style="font-size:7.5px;font-style:normal;font-variant:normal;font-weight:bold;font-stretch:normal;line-height:125%;letter-spacing:0px;word-spacing:0px;fill:#ffffff;fill-opacity:1;stroke:none;font-family:Impact;-inkscape-font-specification:Impact Bold" />
    </g>
  </g>
</svg>
