<?xml version="1.0" encoding="UTF-8" standalone="no"?>
<!-- Created with Inkscape (http://www.inkscape.org/) -->

<svg
   xmlns:dc="http://purl.org/dc/elements/1.1/"
   xmlns:cc="http://creativecommons.org/ns#"
   xmlns:rdf="http://www.w3.org/1999/02/22-rdf-syntax-ns#"
   xmlns:svg="http://www.w3.org/2000/svg"
   xmlns="http://www.w3.org/2000/svg"
   xmlns:xlink="http://www.w3.org/1999/xlink"
   xmlns:sodipodi="http://sodipodi.sourceforge.net/DTD/sodipodi-0.dtd"
   xmlns:inkscape="http://www.inkscape.org/namespaces/inkscape"
   width="79.992012"
   height="79.999542"
   id="svg6389"
   version="1.1"
   inkscape:version="0.48.3.1 r9886"
   sodipodi:docname="document.svg"
   inkscape:export-filename="/home/christian/Arbeitsfläche/anomaly_red/pix_core/f/chart.png"
   inkscape:export-xdpi="4.9218779"
   inkscape:export-ydpi="4.9218779" preserveAspectRatio="xMinYMid meet">
  <defs
     id="defs6391">
    <linearGradient
       gradientTransform="matrix(1.1002865,0,0,1.1002865,64.232046,-167.79161)"
       inkscape:collect="always"
       xlink:href="#linearGradient6707"
       id="linearGradient1110"
       x1="262.01361"
       y1="471.95245"
       x2="262.01361"
       y2="442.7843"
       gradientUnits="userSpaceOnUse" />
    <linearGradient
       id="linearGradient6707">
      <stop
         id="stop6709"
         offset="0"
         style="stop-color:#000000;stop-opacity:1;" />
      <stop
         id="stop6711"
         offset="1"
         style="stop-color:#ffffff;stop-opacity:1;" />
    </linearGradient>
    <linearGradient
       y2="468.35892"
       x2="314.34872"
       y1="425.61682"
       x1="314.34872"
       gradientTransform="matrix(1.1002865,0,0,1.1002865,5.0328438,-167.7943)"
       gradientUnits="userSpaceOnUse"
       id="linearGradient887"
       xlink:href="#linearGradient1069-5"
       inkscape:collect="always" />
    <linearGradient
       id="linearGradient1069-5">
      <stop
         style="stop-color:#ffffff;stop-opacity:1"
         offset="0"
         id="stop1071-6" />
      <stop
         style="stop-color:#e6e6e6;stop-opacity:1"
         offset="1"
         id="stop1073-0" />
    </linearGradient>
    <linearGradient
       inkscape:collect="always"
       xlink:href="#linearGradient918-1"
       id="linearGradient912"
       x1="462.37933"
       y1="837.0611"
       x2="463.75925"
       y2="835.67212"
       gradientUnits="userSpaceOnUse" />
    <linearGradient
       id="linearGradient918-1">
      <stop
         id="stop920-5"
         offset="0"
         style="stop-color:#f6f6f6;stop-opacity:1" />
      <stop
         id="stop922-7"
         offset="1"
         style="stop-color:#e2e2e2;stop-opacity:1" />
    </linearGradient>
    <linearGradient
       inkscape:collect="always"
       xlink:href="#linearGradient1069-5"
       id="linearGradient3993"
       gradientUnits="userSpaceOnUse"
       gradientTransform="matrix(1.1002865,0,0,1.1002865,5.0328438,-167.7943)"
       x1="314.34872"
       y1="425.61682"
       x2="314.34872"
       y2="468.35892" />
    <linearGradient
       inkscape:collect="always"
       xlink:href="#linearGradient6707"
       id="linearGradient3995"
       gradientUnits="userSpaceOnUse"
       gradientTransform="matrix(1.1002865,0,0,1.1002865,64.232046,-167.79161)"
       x1="262.01361"
       y1="471.95245"
       x2="262.01361"
       y2="442.7843" />
    <linearGradient
       inkscape:collect="always"
       xlink:href="#linearGradient918-1"
       id="linearGradient3997"
       gradientUnits="userSpaceOnUse"
       x1="462.37933"
       y1="837.0611"
       x2="463.75925"
       y2="835.67212" />
    <linearGradient
       inkscape:collect="always"
       xlink:href="#linearGradient1069-5"
       id="linearGradient4026"
       gradientUnits="userSpaceOnUse"
       gradientTransform="matrix(1.8111633,0,0,1.8104558,-218.83516,-485.8975)"
       x1="314.34872"
       y1="425.61682"
       x2="314.34872"
       y2="468.35892" />
    <linearGradient
       inkscape:collect="always"
       xlink:href="#linearGradient918-1"
       id="linearGradient4029"
       gradientUnits="userSpaceOnUse"
       x1="462.37933"
       y1="837.0611"
       x2="463.75925"
       y2="835.67212" />
    <linearGradient
       inkscape:collect="always"
       xlink:href="#linearGradient6707-9"
       id="linearGradient3077"
       gradientUnits="userSpaceOnUse"
       gradientTransform="matrix(1.8114204,0,0,2.6689195,-211.88361,-765.76882)"
       x1="262.01361"
       y1="471.95245"
       x2="262.01361"
       y2="442.7843" />
    <linearGradient
       id="linearGradient6707-9">
      <stop
         id="stop6709-3"
         offset="0"
         style="stop-color:#000000;stop-opacity:1;" />
      <stop
         id="stop6711-5"
         offset="1"
         style="stop-color:#ffffff;stop-opacity:1;" />
    </linearGradient>
    <linearGradient
       inkscape:collect="always"
       xlink:href="#linearGradient6707-9"
       id="linearGradient3071"
       gradientUnits="userSpaceOnUse"
       gradientTransform="matrix(1.81343,0,0,2.6689407,-121.99112,-888.31727)"
       x1="262.01361"
       y1="471.95245"
       x2="262.01361"
       y2="442.7843" />
  </defs>
  <sodipodi:namedview
     id="base"
     pagecolor="#ffffff"
     bordercolor="#666666"
     borderopacity="1.0"
     inkscape:pageopacity="0.0"
     inkscape:pageshadow="2"
     inkscape:zoom="2.8"
     inkscape:cx="99.065823"
     inkscape:cy="35.378499"
     inkscape:document-units="px"
     inkscape:current-layer="layer1"
     showgrid="false"
     fit-margin-top="0"
     fit-margin-left="0.49"
     fit-margin-right="0.49"
     fit-margin-bottom="0"
     inkscape:window-width="834"
     inkscape:window-height="528"
     inkscape:window-x="29"
     inkscape:window-y="28"
     inkscape:window-maximized="0" />
  <metadata
     id="metadata6394">
    <rdf:RDF>
      <cc:Work
         rdf:about="">
        <dc:format>image/svg+xml</dc:format>
        <dc:type
           rdf:resource="http://purl.org/dc/dcmitype/StillImage" />
        <dc:title></dc:title>
      </cc:Work>
    </rdf:RDF>
  </metadata>
  <g
     inkscape:label="Capa 1"
     inkscape:groupmode="layer"
     id="layer1"
     transform="translate(-311.53712,-285.05251)">
    <g
       id="g3144">
      <path
         inkscape:connector-curvature="0"
         id="rect3922-2"
         d="m 314.97027,285.05251 c -1.62447,0 -2.94315,1.48697 -2.94315,3.28146 l 0,73.43662 c 0,1.7945 1.31868,3.28146 2.94315,3.28146 l 73.12571,0 c 1.62448,0 2.94315,-1.48694 2.94315,-3.28146 l 0,-57.93458 -18.84743,-18.7835 -57.22143,0 z"
         style="opacity:0.5;fill:#000000;fill-opacity:1;stroke:none" />
      <path
         inkscape:connector-curvature="0"
         id="path869-2"
         d="m 315.64944,285.80593 c -1.58321,0 -2.82993,1.41934 -2.82993,3.16829 l 0,71.62617 c 0,1.74897 1.2467,3.1683 2.82993,3.1683 l 71.76737,0 c 1.58323,0 2.82992,-1.41933 2.82992,-3.1683 l 0,-56.35044 -18.50782,-18.44402 -56.08947,0 z"
         style="fill:url(#linearGradient4026);fill-opacity:1;stroke:none" />
      <g
         id="g851"
         transform="matrix(1.8111633,0,0,1.8104558,-460.90303,-1218.1119)">
        <path
           inkscape:connector-curvature="0"
           style="opacity:0.5;fill:#000000;fill-opacity:1;stroke:none"
           d="m 470.05693,841.16048 -10.53539,-10.50317 0,8.69895 c 0,0.99596 0.70967,1.80422 1.61092,1.80422 l 8.92447,0 z"
           id="path914" />
        <path
           id="path902"
           d="m 469.94644,841.01843 -10.21875,-10.1875 0,8.4375 c 0,0.96603 0.68834,1.75 1.5625,1.75 l 8.65625,0 z"
           style="fill:url(#linearGradient4029);fill-opacity:1;stroke:none"
           inkscape:connector-curvature="0" />
      </g>
      <path
         id="path874-6"
         d="m 312.76019,341.55237 0,18.01535 c 0,2.5783 1.24827,4.67065 2.83349,4.67065 l 71.85717,0 c 1.58525,0 2.83347,-2.09235 2.83347,-4.67065 l 0,-18.01535 -77.52413,0 z"
         style="fill:url(#linearGradient3071);fill-opacity:1;stroke:none"
         inkscape:connector-curvature="0" />
      <g
         style="fill:#ff0000;fill-opacity:1"
         transform="matrix(1.8104756,0,0,1.8104756,-285.67114,-270.90922)"
         id="g951">
        <rect
           style="fill:#ff0000;fill-opacity:1;stroke:none"
           id="rect9904"
           width="8.1405792"
           height="8.1405792"
           x="342.37354"
           y="311.98218" />
        <rect
           y="322.651"
           x="342.14951"
           height="0.73148519"
           width="18.767199"
           id="rect934"
           style="fill:#ff0000;fill-opacity:1;stroke:none" />
        <rect
           style="fill:#ff0000;fill-opacity:1;stroke:none"
           id="rect936"
           width="18.767199"
           height="0.73148519"
           x="342.14951"
           y="326.46051" />
        <rect
           y="330.27002"
           x="342.14951"
           height="0.73148519"
           width="18.767199"
           id="rect938"
           style="fill:#ff0000;fill-opacity:1;stroke:none" />
        <rect
           style="fill:#ff0000;fill-opacity:1;stroke:none"
           id="rect940"
           width="18.767199"
           height="0.73148519"
           x="342.14951"
           y="334.07953" />
        <rect
           y="319.55798"
           x="353.16364"
           height="0.84608436"
           width="7.810369"
           id="rect942"
           style="fill:#ff0000;fill-opacity:1;stroke:none" />
        <rect
           style="fill:#ff0000;fill-opacity:1;stroke:none"
           id="rect944"
           width="7.810369"
           height="0.84608436"
           x="353.16364"
           y="315.62946" />
        <rect
           y="311.70087"
           x="353.16364"
           height="0.84608436"
           width="7.810369"
           id="rect946"
           style="fill:#ff0000;fill-opacity:1;stroke:none" />
      </g>
      <g
         transform="matrix(2.3991583,0,0,2.3991583,322.06861,-2158.1758)"
         style="font-size:7.5px;font-style:normal;font-variant:normal;font-weight:bold;font-stretch:normal;line-height:125%;letter-spacing:0px;word-spacing:0px;fill:#ffffff;fill-opacity:1;stroke:none;font-family:Impact;-inkscape-font-specification:Impact Bold"
         id="text2729">
        <path
           d="m 6.0306602,1043.2415 1.1535644,0 q 1.1169434,0 1.5087891,0.1025 0.3955078,0.1025 0.6005859,0.3369 0.2050781,0.2344 0.2563477,0.5237 0.05127,0.2856 0.05127,1.1279 l 0,2.0764 q 0,0.7984 -0.076904,1.0694 -0.073242,0.2673 -0.2600098,0.4211 -0.1867675,0.1502 -0.4614258,0.2124 -0.2746582,0.059 -0.8276367,0.059 l -1.94458,0 -8e-7,-5.9293 z m 1.541748,1.0144 0,3.9001 q 0.333252,0 0.4101562,-0.1318 0.076904,-0.1355 0.076904,-0.7288 l 0,-2.3035 q 0,-0.4028 -0.025635,-0.5163 -0.025635,-0.1135 -0.1171875,-0.1648 -0.091552,-0.055 -0.3442377,-0.055 z"
           id="path2753"
           inkscape:connector-curvature="0" />
        <path
           d="m 13.699117,1046.7131 q 0,0.8936 -0.04394,1.2671 -0.04028,0.3699 -0.263672,0.6775 -0.219727,0.3076 -0.596924,0.4724 -0.377197,0.1648 -0.878906,0.1648 -0.476074,0 -0.856934,-0.1538 -0.377197,-0.1575 -0.60791,-0.4687 -0.230713,-0.3113 -0.274658,-0.6775 -0.04395,-0.3662 -0.04395,-1.2818 l 0,-1.0144 q 0,-0.8935 0.04028,-1.2634 0.04394,-0.3735 0.263672,-0.6811 0.223388,-0.3077 0.600586,-0.4725 0.377197,-0.1648 0.878906,-0.1648 0.476074,0 0.853271,0.1575 0.38086,0.1538 0.611573,0.4651 0.230713,0.3113 0.274658,0.6775 0.04394,0.3662 0.04394,1.2817 l 8e-6,1.0144 z m -1.541748,-1.9482 q 0,-0.4138 -0.04761,-0.5274 -0.04395,-0.1171 -0.186768,-0.1171 -0.120849,0 -0.186767,0.095 -0.06226,0.091 -0.06226,0.5493 l 0,2.7685 q 0,0.5164 0.04028,0.6373 0.04394,0.1208 0.197754,0.1208 0.157471,0 0.201416,-0.1392 0.04394,-0.1391 0.04394,-0.6628 l 1.5e-5,-2.7244 z"
           id="path2755"
           inkscape:connector-curvature="0" />
        <path
           d="m 17.877584,1045.8269 -1.541748,0 0,-1.0327 q 0,-0.4504 -0.05127,-0.5603 -0.04761,-0.1135 -0.216064,-0.1135 -0.19043,0 -0.241699,0.1355 -0.05127,0.1355 -0.05127,0.5859 l 0,2.7539 q 0,0.4321 0.05127,0.564 0.05127,0.1318 0.230713,0.1318 0.172119,0 0.223388,-0.1318 0.05493,-0.1319 0.05493,-0.6189 l 0,-0.7434 1.541748,0 0,0.2307 q 0,0.9192 -0.131836,1.3037 -0.128174,0.3845 -0.574951,0.6738 -0.443115,0.2893 -1.094971,0.2893 -0.67749,0 -1.116943,-0.2453 -0.439453,-0.2454 -0.582276,-0.6775 -0.142822,-0.4358 -0.142822,-1.3074 l 0,-1.7322 q 0,-0.6408 0.04395,-0.9595 0.04395,-0.3222 0.26001,-0.6188 0.219727,-0.2967 0.604248,-0.4651 0.388184,-0.1722 0.889893,-0.1722 0.681152,0 1.124267,0.2637 0.443116,0.2637 0.582276,0.6592 0.13916,0.3918 0.13916,1.2231 l -3e-6,0.564 z"
           id="path2757"
           inkscape:connector-curvature="0" />
      </g>
    </g>
  </g>
</svg>
