<?xml version="1.0" encoding="UTF-8" standalone="no"?>
<!-- Created with Inkscape (http://www.inkscape.org/) -->

<svg
   xmlns:dc="http://purl.org/dc/elements/1.1/"
   xmlns:cc="http://creativecommons.org/ns#"
   xmlns:rdf="http://www.w3.org/1999/02/22-rdf-syntax-ns#"
   xmlns:svg="http://www.w3.org/2000/svg"
   xmlns="http://www.w3.org/2000/svg"
   xmlns:xlink="http://www.w3.org/1999/xlink"
   xmlns:sodipodi="http://sodipodi.sourceforge.net/DTD/sodipodi-0.dtd"
   xmlns:inkscape="http://www.inkscape.org/namespaces/inkscape"
   width="80.001999"
   height="80.000214"
   id="svg4214"
   version="1.1"
   inkscape:version="0.48.3.1 r9886"
   sodipodi:docname="html.svg"
   inkscape:export-filename="/tmp/moodle-theme_anomalyred/pix_core/f/pdf-32.png"
   inkscape:export-xdpi="35.9991"
   inkscape:export-ydpi="35.9991"
   preserveAspectRatio="xMinYMid meet">
  <defs
     id="defs4216">
    <linearGradient
       id="linearGradient4790">
      <stop
         style="stop-color:#cd0000;stop-opacity:1;"
         offset="0"
         id="stop4792" />
      <stop
         style="stop-color:#ff0000;stop-opacity:1;"
         offset="1"
         id="stop4794" />
    </linearGradient>
    <linearGradient
       id="linearGradient6707-5">
      <stop
         id="stop6709-0"
         offset="0"
         style="stop-color:#000000;stop-opacity:1;" />
      <stop
         id="stop6711-5"
         offset="1"
         style="stop-color:#ffffff;stop-opacity:1;" />
    </linearGradient>
    <linearGradient
       inkscape:collect="always"
       xlink:href="#linearGradient4790"
       id="linearGradient4788"
       x1="25.253813"
       y1="1049.8368"
       x2="25.253813"
       y2="1003.8749"
       gradientUnits="userSpaceOnUse"
       gradientTransform="matrix(1.8104756,0,0,1.7482736,-19.451415,-770.83584)" />
    <linearGradient
       inkscape:collect="always"
       xlink:href="#linearGradient918-1"
       id="linearGradient912"
       x1="462.37933"
       y1="837.0611"
       x2="463.75925"
       y2="835.67212"
       gradientUnits="userSpaceOnUse"
       gradientTransform="matrix(1.8102357,-0.02946975,0.02946975,1.8102357,-812.8496,-500.88944)" />
    <linearGradient
       id="linearGradient918-1">
      <stop
         id="stop920-5"
         offset="0"
         style="stop-color:#f6f6f6;stop-opacity:1" />
      <stop
         id="stop922-7"
         offset="1"
         style="stop-color:#e2e2e2;stop-opacity:1" />
    </linearGradient>
    <linearGradient
       inkscape:collect="always"
       xlink:href="#linearGradient6707"
       id="linearGradient3077"
       gradientUnits="userSpaceOnUse"
       gradientTransform="matrix(1.8114204,0,0,2.6689195,-211.88361,-765.76882)"
       x1="262.01361"
       y1="471.95245"
       x2="262.01361"
       y2="442.7843" />
    <linearGradient
       id="linearGradient6707">
      <stop
         id="stop6709"
         offset="0"
         style="stop-color:#000000;stop-opacity:1;" />
      <stop
         id="stop6711"
         offset="1"
         style="stop-color:#ffffff;stop-opacity:1;" />
    </linearGradient>
    <linearGradient
       inkscape:collect="always"
       xlink:href="#linearGradient6707"
       id="linearGradient3806"
       gradientUnits="userSpaceOnUse"
       gradientTransform="matrix(1.8114204,0,0,2.6689195,-448.9685,-185.20458)"
       x1="262.01361"
       y1="471.95245"
       x2="262.01361"
       y2="442.7843" />
    <linearGradient
       inkscape:collect="always"
       xlink:href="#linearGradient4790"
       id="linearGradient3795"
       gradientUnits="userSpaceOnUse"
       gradientTransform="matrix(1.8104756,0,0,1.7482736,-19.451415,-770.83584)"
       x1="25.253813"
       y1="1049.8368"
       x2="25.253813"
       y2="1003.8749" />
    <linearGradient
       inkscape:collect="always"
       xlink:href="#linearGradient918-1"
       id="linearGradient3797"
       gradientUnits="userSpaceOnUse"
       gradientTransform="matrix(1.8102357,-0.02946975,0.02946975,1.8102357,-812.8496,-500.88944)"
       x1="462.37933"
       y1="837.0611"
       x2="463.75925"
       y2="835.67212" />
    <linearGradient
       inkscape:collect="always"
       xlink:href="#linearGradient6707"
       id="linearGradient3799"
       gradientUnits="userSpaceOnUse"
       gradientTransform="matrix(1.8114204,0,0,2.6689195,-448.9685,-185.20458)"
       x1="262.01361"
       y1="471.95245"
       x2="262.01361"
       y2="442.7843" />
    <linearGradient
       inkscape:collect="always"
       xlink:href="#linearGradient6707"
       id="linearGradient3020"
       gradientUnits="userSpaceOnUse"
       gradientTransform="matrix(1.698152,0,0,2.6689195,-419.41556,-185.20458)"
       x1="262.01361"
       y1="471.95245"
       x2="262.01361"
       y2="442.7843" />
    <linearGradient
       inkscape:collect="always"
       xlink:href="#linearGradient918-1"
       id="linearGradient3023"
       gradientUnits="userSpaceOnUse"
       gradientTransform="matrix(1.6226917,-0.02781917,0.02641663,1.7088458,-724.59467,-416.89522)"
       x1="462.37933"
       y1="837.0611"
       x2="463.75925"
       y2="835.67212" />
    <linearGradient
       inkscape:collect="always"
       xlink:href="#linearGradient918-1"
       id="linearGradient3790"
       gradientUnits="userSpaceOnUse"
       gradientTransform="matrix(1.6226917,-0.02781917,0.02641663,1.7088458,-724.59467,-416.89522)"
       x1="462.37933"
       y1="837.0611"
       x2="463.75925"
       y2="835.67212" />
    <linearGradient
       inkscape:collect="always"
       xlink:href="#linearGradient1069-5"
       id="linearGradient3044"
       gradientUnits="userSpaceOnUse"
       gradientTransform="matrix(1.5984329,0,0,1.7416466,-151.84249,-455.08615)"
       x1="314.34872"
       y1="425.61682"
       x2="314.34872"
       y2="468.35892" />
    <linearGradient
       id="linearGradient1069-5">
      <stop
         style="stop-color:#ffffff;stop-opacity:1"
         offset="0"
         id="stop1071-6" />
      <stop
         style="stop-color:#e6e6e6;stop-opacity:1"
         offset="1"
         id="stop1073-0" />
    </linearGradient>
    <linearGradient
       y2="468.35892"
       x2="314.34872"
       y1="425.61682"
       x1="314.34872"
       gradientTransform="matrix(1.6958125,0,0,1.7244906,-510.04221,254.83137)"
       gradientUnits="userSpaceOnUse"
       id="linearGradient3043"
       xlink:href="#linearGradient1069-5"
       inkscape:collect="always" />
    <linearGradient
       inkscape:collect="always"
       xlink:href="#linearGradient918-1"
       id="linearGradient3038"
       gradientUnits="userSpaceOnUse"
       gradientTransform="matrix(1.6738623,-0.02853947,0.02724966,1.7530916,-749.30463,-453.57139)"
       x1="462.37933"
       y1="837.0611"
       x2="463.75925"
       y2="835.67212" />
  </defs>
  <sodipodi:namedview
     id="base"
     pagecolor="#ffffff"
     bordercolor="#666666"
     borderopacity="1.0"
     inkscape:pageopacity="0.0"
     inkscape:pageshadow="2"
     inkscape:zoom="7.919596"
     inkscape:cx="27.088099"
     inkscape:cy="33.075948"
     inkscape:document-units="px"
     inkscape:current-layer="layer1"
     showgrid="true"
     width="0px"
     height="0px"
     fit-margin-top="0"
     fit-margin-left="0.51"
     fit-margin-right="0.51"
     fit-margin-bottom="0"
     inkscape:window-width="1881"
     inkscape:window-height="1029"
     inkscape:window-x="0"
     inkscape:window-y="26"
     inkscape:window-maximized="1">
    <inkscape:grid
       type="xygrid"
       id="grid3016" />
  </sodipodi:namedview>
  <metadata
     id="metadata4219">
    <rdf:RDF>
      <cc:Work
         rdf:about="">
        <dc:format>image/svg+xml</dc:format>
        <dc:type
           rdf:resource="http://purl.org/dc/dcmitype/StillImage" />
        <dc:title></dc:title>
      </cc:Work>
    </rdf:RDF>
  </metadata>
  <g
     inkscape:label="Capa 1"
     inkscape:groupmode="layer"
     id="layer1"
     transform="translate(16.001,-988.36209)">
    <path
       style="opacity:0.7;fill:#000000;fill-opacity:1;stroke:none"
       d="m -10.706304,988.36209 c -1.541983,0 -2.793696,1.48695 -2.793696,3.28149 l 0,73.43722 c 0,1.7946 1.251713,3.2815 2.793696,3.2815 l 69.412608,0 c 1.542,0 2.793696,-1.4869 2.793696,-3.2815 l 0,-57.935 -17.890401,-18.78371 -54.315903,0 z"
       id="rect3922-2"
       inkscape:connector-curvature="0" />
    <path
       style="fill:url(#linearGradient3043);fill-opacity:1;stroke:none"
       d="m -9.598294,989.8923 c -1.482384,0 -2.649706,1.35192 -2.649706,3.01787 l 0,68.22513 c 0,1.666 1.167322,3.018 2.649706,3.018 l 67.196586,0 c 1.48239,0 2.64971,-1.352 2.64971,-3.018 l 0,-53.6748 -17.32909,-17.5682 -52.517206,0 z"
       id="path869-2"
       inkscape:connector-curvature="0" />
    <path
       inkscape:connector-curvature="0"
       style="opacity:0.7;fill:#000000;fill-opacity:1;stroke:none"
       d="m 60.284548,1008.3518 -0.0083,-0.9539 -17.413476,-17.60803 -0.623677,0.0456 0.02657,15.26083 c 0.0032,1.8498 1.310453,3.3293 2.908529,3.302 z"
       id="path914"
       sodipodi:nodetypes="ccccscc" />
    <path
       id="path902"
       d="m 60.238501,1007.3988 -17.382386,-17.56783 0.229917,14.79163 c 0.02633,1.6935 1.199874,3.0483 2.663099,3.0233 l 14.48937,-0.2471 z"
       style="fill:url(#linearGradient3038);fill-opacity:1;stroke:none"
       inkscape:connector-curvature="0" />
    <path
       inkscape:connector-curvature="0"
       style="fill:url(#linearGradient3020);fill-opacity:1;stroke:none"
       d="m -12.301,1044.6554 0,18.0152 c 0,2.5783 1.168922,4.6706 2.6533683,4.6706 l 67.2892747,0 c 1.484473,0 2.653357,-2.0923 2.653357,-4.6706 l 0,-18.0152 -72.596,0 z"
       id="path874" />
    <path
       style="fill:#ff0000;fill-opacity:1"
       inkscape:connector-curvature="0"
       d="M 23.93492,1031.0889 9.7941392,1016.947 23.93492,1002.8072 l 4.71406,4.7132 -9.42804,9.4266 4.71364,4.7138 14.14095,-14.1397 -12.318571,-12.31812 c -1.005769,-1.00677 -2.63731,-1.00677 -3.644079,0 L 2.1893887,1015.1265 c -1.005849,1.0058 -1.005849,2.6374 0,3.644 l 19.9234913,19.923 c 1.00677,1.0064 2.63831,1.0064 3.644079,0 l 19.923651,-19.923 c 1.00585,-1.0066 1.00585,-2.6382 0,-3.644 l -2.892191,-2.8914 -18.8535,18.8538 z"
       id="path13" />
    <g
       id="g3835"
       transform="translate(-328.27634,703.31025)">
      <path
         d="m 343.42102,344.42685 3.88167,0 q 1.57463,0 2.4169,0.24724 0.85139,0.24723 1.27252,0.71409 0.43028,0.46691 0.57675,1.1352 0.15575,0.65915 0.15575,2.0507 l 0,1.29084 q 0,1.41902 -0.29294,2.06902 -0.29297,0.65 -1.08028,0.99788 -0.77817,0.34789 -2.04154,0.34789 l -1.03451,0 0,5.96898 -3.85422,0 0,-14.82179 z m 3.85419,2.53592 0,3.77182 q 0.16475,0.01 0.28382,0.01 0.53097,0 0.73239,-0.25634 0.2105,-0.26549 0.2105,-1.08943 l 0,-1.2176 q 0,-0.75987 -0.238,-0.98873 -0.23799,-0.22899 -0.98876,-0.22899 z"
         id="path1006-5"
         inkscape:connector-curvature="0"
         style="font-size:7.5px;font-style:normal;font-variant:normal;font-weight:bold;font-stretch:normal;line-height:125%;letter-spacing:0px;word-spacing:0px;fill:#ffffff;fill-opacity:1;stroke:none;font-family:Impact;-inkscape-font-specification:Impact Bold" />
      <path
         d="m 363.21217,344.42726 3.84483,0 q 1.82171,0 2.75546,0.28397 0.9429,0.28372 1.51962,1.15338 0.57673,0.86042 0.57673,2.78298 0,1.29986 -0.41195,1.81256 -0.40279,0.51245 -1.60201,0.78717 1.33653,0.30197 1.81256,1.0069 0.47603,0.69593 0.47603,2.14229 l 0,1.37311 q 0,1.50135 -0.34787,2.22453 -0.33871,0.72318 -1.08937,0.98865 -0.75066,0.26547 -3.07586,0.26547 l -4.45817,0 0,-14.82101 z m 3.85398,2.53574 0,3.29567 q 0.24718,0 0.38448,0 0.56757,0 0.7232,-0.27472 0.15563,-0.28372 0.15563,-1.60184 0,-0.69593 -0.12816,-0.9704 -0.12816,-0.28372 -0.33871,-0.35697 -0.20141,-0.0825 -0.79644,-0.0925 z m 0,5.60244 0,4.14709 q 0.81474,-0.0275 1.03444,-0.25648 0.22885,-0.22747 0.22885,-1.12588 l 0,-1.38237 q 0,-0.9519 -0.2014,-1.15338 -0.20138,-0.20248 -1.06189,-0.22998 z"
         id="path843"
         inkscape:connector-curvature="0"
         style="font-size:7.5px;font-style:normal;font-variant:normal;font-weight:bold;font-stretch:normal;line-height:125%;letter-spacing:0px;word-spacing:0px;fill:#ffffff;fill-opacity:1;stroke:none;font-family:Impact;-inkscape-font-specification:Impact Bold" />
      <path
         d="m 361.84448,344.42705 0,9.70199 q 0,1.64989 -0.10947,2.3224 -0.10971,0.66353 -0.64833,1.37191 -0.53876,0.69939 -1.42449,1.06704 -0.87661,0.35866 -2.07282,0.35866 -1.32403,0 -2.33762,-0.4304 -1.01357,-0.4304 -1.51581,-1.12084 -0.50221,-0.69044 -0.59354,-1.45261 -0.0913,-0.77113 -0.0913,-3.22802 l 0,-8.59013 3.84431,0 0,10.88561 q 0,0.95047 0.10048,1.21946 0.10947,0.26006 0.42918,0.26006 0.36527,0 0.4657,-0.28695 0.10947,-0.2959 0.10947,-1.38088 l 0,-10.6973 3.8443,0 z"
         id="path917-8"
         inkscape:connector-curvature="0"
         style="font-size:7.5px;font-style:normal;font-variant:normal;font-weight:bold;font-stretch:normal;line-height:125%;letter-spacing:0px;word-spacing:0px;fill:#ffffff;fill-opacity:1;stroke:none;font-family:Impact;-inkscape-font-specification:Impact Bold" />
      <g
         id="text3816"
         style="font-size:40px;font-style:normal;font-weight:bold;line-height:125%;letter-spacing:0px;word-spacing:0px;fill:#ffffff;fill-opacity:1;stroke:none;font-family:Sans;-inkscape-font-specification:Sans Bold"
         transform="matrix(0.43537037,0,0,0.47891156,324.74794,329.25207)">
        <path
           inkscape:connector-curvature="0"
           id="path3821"
           style="fill:#ffffff;fill-opacity:1"
           d="m 39.842525,51.073242 0,1.992188 -16.347657,0 c 0.169262,1.640632 0.761709,2.8711 1.777344,3.691406 1.015613,0.820317 2.434883,1.230473 4.257813,1.230469 1.471337,4e-6 2.975242,-0.21484 4.511718,-0.644532 1.549459,-0.442703 3.137999,-1.106765 4.765625,-1.992187 l 0,5.390625 c -1.653668,0.625001 -3.307312,1.09375 -4.960937,1.40625 -1.653664,0.32552 -3.307308,0.488281 -4.960938,0.488281 -3.958343,0 -7.037767,-1.002604 -9.238281,-3.007812 -2.187503,-2.018225 -3.281252,-4.843743 -3.28125,-8.476563 -2e-6,-3.567694 1.074216,-6.37368 3.222656,-8.417969 2.161452,-2.044249 5.130199,-3.066383 8.90625,-3.066406 3.437483,2.3e-5 6.184876,1.035178 8.242188,3.105469 2.070288,2.07033 3.105443,4.837254 3.105469,8.300781 m -7.1875,-2.324219 c -1.8e-5,-1.32811 -0.390643,-2.395817 -1.171875,-3.203125 -0.768246,-0.820295 -1.777359,-1.230451 -3.027344,-1.230468 -1.354179,1.7e-5 -2.454439,0.384132 -3.300781,1.152343 -0.846364,0.755225 -1.373708,1.848974 -1.582032,3.28125 l 9.082032,0" />
      </g>
    </g>
  </g>
</svg>
