<?xml version="1.0" encoding="UTF-8" standalone="no"?>
<!-- Created with Inkscape (http://www.inkscape.org/) -->

<svg
   xmlns:dc="http://purl.org/dc/elements/1.1/"
   xmlns:cc="http://creativecommons.org/ns#"
   xmlns:rdf="http://www.w3.org/1999/02/22-rdf-syntax-ns#"
   xmlns:svg="http://www.w3.org/2000/svg"
   xmlns="http://www.w3.org/2000/svg"
   xmlns:xlink="http://www.w3.org/1999/xlink"
   xmlns:sodipodi="http://sodipodi.sourceforge.net/DTD/sodipodi-0.dtd"
   xmlns:inkscape="http://www.inkscape.org/namespaces/inkscape"
   width="80.001999"
   height="80.000214"
   id="svg4214"
   version="1.1"
   inkscape:version="0.48.3.1 r9886"
   sodipodi:docname="pdf.svg"
   inkscape:export-filename="/tmp/moodle-theme_anomalyred/pix_core/f/pdf-32.png"
   inkscape:export-xdpi="35.9991"
   inkscape:export-ydpi="35.9991"
   preserveAspectRatio="xMinYMid meet">
  <defs
     id="defs4216">
    <linearGradient
       id="linearGradient4790">
      <stop
         style="stop-color:#cd0000;stop-opacity:1;"
         offset="0"
         id="stop4792" />
      <stop
         style="stop-color:#ff0000;stop-opacity:1;"
         offset="1"
         id="stop4794" />
    </linearGradient>
    <linearGradient
       id="linearGradient6707-5">
      <stop
         id="stop6709-0"
         offset="0"
         style="stop-color:#000000;stop-opacity:1;" />
      <stop
         id="stop6711-5"
         offset="1"
         style="stop-color:#ffffff;stop-opacity:1;" />
    </linearGradient>
    <linearGradient
       inkscape:collect="always"
       xlink:href="#linearGradient4790"
       id="linearGradient4788"
       x1="25.253813"
       y1="1049.8368"
       x2="25.253813"
       y2="1003.8749"
       gradientUnits="userSpaceOnUse"
       gradientTransform="matrix(1.8104756,0,0,1.7482736,-19.451415,-770.83584)" />
    <linearGradient
       inkscape:collect="always"
       xlink:href="#linearGradient918-1"
       id="linearGradient912"
       x1="462.37933"
       y1="837.0611"
       x2="463.75925"
       y2="835.67212"
       gradientUnits="userSpaceOnUse"
       gradientTransform="matrix(1.8102357,-0.02946975,0.02946975,1.8102357,-812.8496,-500.88944)" />
    <linearGradient
       id="linearGradient918-1">
      <stop
         id="stop920-5"
         offset="0"
         style="stop-color:#f6f6f6;stop-opacity:1" />
      <stop
         id="stop922-7"
         offset="1"
         style="stop-color:#e2e2e2;stop-opacity:1" />
    </linearGradient>
    <linearGradient
       inkscape:collect="always"
       xlink:href="#linearGradient6707"
       id="linearGradient3077"
       gradientUnits="userSpaceOnUse"
       gradientTransform="matrix(1.8114204,0,0,2.6689195,-211.88361,-765.76882)"
       x1="262.01361"
       y1="471.95245"
       x2="262.01361"
       y2="442.7843" />
    <linearGradient
       id="linearGradient6707">
      <stop
         id="stop6709"
         offset="0"
         style="stop-color:#000000;stop-opacity:1;" />
      <stop
         id="stop6711"
         offset="1"
         style="stop-color:#ffffff;stop-opacity:1;" />
    </linearGradient>
    <linearGradient
       inkscape:collect="always"
       xlink:href="#linearGradient6707"
       id="linearGradient3806"
       gradientUnits="userSpaceOnUse"
       gradientTransform="matrix(1.8114204,0,0,2.6689195,-448.9685,-185.20458)"
       x1="262.01361"
       y1="471.95245"
       x2="262.01361"
       y2="442.7843" />
    <filter
       inkscape:collect="always"
       id="filter3778"
       color-interpolation-filters="sRGB">
      <feGaussianBlur
         inkscape:collect="always"
         stdDeviation="0.65051148"
         id="feGaussianBlur3780" />
    </filter>
    <linearGradient
       inkscape:collect="always"
       xlink:href="#linearGradient4790"
       id="linearGradient3795"
       gradientUnits="userSpaceOnUse"
       gradientTransform="matrix(1.8104756,0,0,1.7482736,-19.451415,-770.83584)"
       x1="25.253813"
       y1="1049.8368"
       x2="25.253813"
       y2="1003.8749" />
    <linearGradient
       inkscape:collect="always"
       xlink:href="#linearGradient918-1"
       id="linearGradient3797"
       gradientUnits="userSpaceOnUse"
       gradientTransform="matrix(1.8102357,-0.02946975,0.02946975,1.8102357,-812.8496,-500.88944)"
       x1="462.37933"
       y1="837.0611"
       x2="463.75925"
       y2="835.67212" />
    <linearGradient
       inkscape:collect="always"
       xlink:href="#linearGradient6707"
       id="linearGradient3799"
       gradientUnits="userSpaceOnUse"
       gradientTransform="matrix(1.8114204,0,0,2.6689195,-448.9685,-185.20458)"
       x1="262.01361"
       y1="471.95245"
       x2="262.01361"
       y2="442.7843" />
    <linearGradient
       inkscape:collect="always"
       xlink:href="#linearGradient6707"
       id="linearGradient3020"
       gradientUnits="userSpaceOnUse"
       gradientTransform="matrix(1.698152,0,0,2.6689195,-419.41556,-185.20458)"
       x1="262.01361"
       y1="471.95245"
       x2="262.01361"
       y2="442.7843" />
    <linearGradient
       inkscape:collect="always"
       xlink:href="#linearGradient918-1"
       id="linearGradient3023"
       gradientUnits="userSpaceOnUse"
       gradientTransform="matrix(1.6226917,-0.02781917,0.02641663,1.7088458,-724.59467,-416.89522)"
       x1="462.37933"
       y1="837.0611"
       x2="463.75925"
       y2="835.67212" />
    <linearGradient
       inkscape:collect="always"
       xlink:href="#linearGradient918-1"
       id="linearGradient3790"
       gradientUnits="userSpaceOnUse"
       gradientTransform="matrix(1.6226917,-0.02781917,0.02641663,1.7088458,-724.59467,-416.89522)"
       x1="462.37933"
       y1="837.0611"
       x2="463.75925"
       y2="835.67212" />
    <linearGradient
       inkscape:collect="always"
       xlink:href="#linearGradient1069-5"
       id="linearGradient3044"
       gradientUnits="userSpaceOnUse"
       gradientTransform="matrix(1.5984329,0,0,1.7416466,-151.84249,-455.08615)"
       x1="314.34872"
       y1="425.61682"
       x2="314.34872"
       y2="468.35892" />
    <linearGradient
       id="linearGradient1069-5">
      <stop
         style="stop-color:#ffffff;stop-opacity:1"
         offset="0"
         id="stop1071-6" />
      <stop
         style="stop-color:#e6e6e6;stop-opacity:1"
         offset="1"
         id="stop1073-0" />
    </linearGradient>
    <linearGradient
       y2="468.35892"
       x2="314.34872"
       y1="425.61682"
       x1="314.34872"
       gradientTransform="matrix(1.6958125,0,0,1.7244906,-510.04221,254.83137)"
       gradientUnits="userSpaceOnUse"
       id="linearGradient3043"
       xlink:href="#linearGradient1069-5"
       inkscape:collect="always" />
    <linearGradient
       inkscape:collect="always"
       xlink:href="#linearGradient918-1"
       id="linearGradient3038"
       gradientUnits="userSpaceOnUse"
       gradientTransform="matrix(1.6738623,-0.02853947,0.02724966,1.7530916,-749.30463,-453.57139)"
       x1="462.37933"
       y1="837.0611"
       x2="463.75925"
       y2="835.67212" />
  </defs>
  <sodipodi:namedview
     id="base"
     pagecolor="#ffffff"
     bordercolor="#666666"
     borderopacity="1.0"
     inkscape:pageopacity="0.0"
     inkscape:pageshadow="2"
     inkscape:zoom="1.979899"
     inkscape:cx="27.088099"
     inkscape:cy="33.075948"
     inkscape:document-units="px"
     inkscape:current-layer="layer1"
     showgrid="true"
     width="0px"
     height="0px"
     fit-margin-top="0"
     fit-margin-left="0.51"
     fit-margin-right="0.51"
     fit-margin-bottom="0"
     inkscape:window-width="1881"
     inkscape:window-height="1029"
     inkscape:window-x="0"
     inkscape:window-y="26"
     inkscape:window-maximized="1">
    <inkscape:grid
       type="xygrid"
       id="grid3016" />
  </sodipodi:namedview>
  <metadata
     id="metadata4219">
    <rdf:RDF>
      <cc:Work
         rdf:about="">
        <dc:format>image/svg+xml</dc:format>
        <dc:type
           rdf:resource="http://purl.org/dc/dcmitype/StillImage" />
        <dc:title></dc:title>
      </cc:Work>
    </rdf:RDF>
  </metadata>
  <g
     inkscape:label="Capa 1"
     inkscape:groupmode="layer"
     id="layer1"
     transform="translate(16.001,-988.36209)">
    <path
       style="opacity:0.7;fill:#000000;fill-opacity:1;stroke:none"
       d="m -10.706304,988.36209 c -1.541983,0 -2.793696,1.48695 -2.793696,3.28149 l 0,73.43722 c 0,1.7946 1.251713,3.2815 2.793696,3.2815 l 69.412608,0 c 1.542,0 2.793696,-1.4869 2.793696,-3.2815 l 0,-57.935 -17.890401,-18.78371 -54.315903,0 z"
       id="rect3922-2"
       inkscape:connector-curvature="0" />
    <path
       style="fill:url(#linearGradient3043);fill-opacity:1;stroke:none"
       d="m -9.598294,989.8923 c -1.482384,0 -2.649706,1.35192 -2.649706,3.01787 l 0,68.22513 c 0,1.666 1.167322,3.018 2.649706,3.018 l 67.196586,0 c 1.48239,0 2.64971,-1.352 2.64971,-3.018 l 0,-53.6748 -17.32909,-17.5682 -52.517206,0 z"
       id="path869-2"
       inkscape:connector-curvature="0" />
    <path
       inkscape:connector-curvature="0"
       style="opacity:0.7;fill:#000000;fill-opacity:1;stroke:none"
       d="m 60.284548,1008.3518 -0.0083,-0.9539 -17.413476,-17.60803 -0.623677,0.0456 0.02657,15.26083 c 0.0032,1.8498 1.310453,3.3293 2.908529,3.302 z"
       id="path914"
       sodipodi:nodetypes="ccccscc" />
    <path
       id="path902"
       d="m 60.238501,1007.3988 -17.382386,-17.56783 0.229917,14.79163 c 0.02633,1.6935 1.199874,3.0483 2.663099,3.0233 l 14.48937,-0.2471 z"
       style="fill:url(#linearGradient3038);fill-opacity:1;stroke:none"
       inkscape:connector-curvature="0" />
    <path
       inkscape:connector-curvature="0"
       style="fill:url(#linearGradient3020);fill-opacity:1;stroke:none"
       d="m -12.301,1044.6554 0,18.0152 c 0,2.5783 1.168922,4.6706 2.6533683,4.6706 l 67.2892747,0 c 1.484473,0 2.653357,-2.0923 2.653357,-4.6706 l 0,-18.0152 -72.596,0 z"
       id="path874" />
    <g
       transform="matrix(1.3945172,0,0,1.3945172,-645.22115,141.59974)"
       style="font-size:23.05916786px;font-style:normal;font-variant:normal;font-weight:bold;font-stretch:normal;line-height:125%;letter-spacing:0px;word-spacing:0px;fill:#ff0000;fill-opacity:1;stroke:none;font-family:Impact;-inkscape-font-specification:Impact Bold"
       id="text837">
      <path
         inkscape:connector-curvature="0"
         d="m 474.69682,632.73704 -10.83151,-4.515 0,-2.28565 10.83151,-4.52627 0,2.97247 -6.68806,2.69099 6.68806,2.67973 0,2.98373 z"
         id="path834"
         style="fill:#ff0000;fill-opacity:1" />
      <path
         inkscape:connector-curvature="0"
         d="m 484.41364,617.80713 -5.40449,18.92698 -3.44536,0 5.43827,-18.92698 3.41158,0 z"
         id="path836"
         style="fill:#ff0000;fill-opacity:1" />
      <path
         inkscape:connector-curvature="0"
         d="m 485.30313,621.41012 10.83151,4.50375 0,2.29691 -10.83151,4.52626 0,-2.97247 6.68806,-2.69099 -6.68806,-2.67973 0,-2.98373 z"
         id="path838"
         style="fill:#ff0000;fill-opacity:1" />
    </g>
    <g
       transform="matrix(2.4999461,0,0,2.4999461,-33.324578,952.6632)"
       style="font-size:7.5px;font-style:normal;font-variant:normal;font-weight:bold;font-stretch:normal;line-height:125%;letter-spacing:0px;word-spacing:0px;fill:#ffffff;fill-opacity:1;stroke:none;font-family:Impact;-inkscape-font-specification:Impact Bold"
       id="text850">
      <path
         d="m 19.871726,38.030434 -0.684814,5.928955 -1.92627,0 q -0.263672,-1.365967 -0.465088,-3.105469 -0.09155,0.743408 -0.428467,3.105469 l -1.915283,0 -0.688476,-5.928955 1.497802,0 0.157471,2.069091 0.161133,1.99585 q 0.08423,-1.549072 0.424805,-4.064941 l 1.604003,0 q 0.03296,0.260009 0.168457,1.955566 l 0.168458,2.252197 q 0.128173,-2.149658 0.428466,-4.207763 l 1.497803,0 z"
         id="path855"
         inkscape:connector-curvature="0" />
      <path
         d="m 25.980124,38.030434 -0.684814,5.928955 -1.92627,0 q -0.263671,-1.365967 -0.465087,-3.105469 -0.09155,0.743408 -0.428467,3.105469 l -1.915283,0 -0.688477,-5.928955 1.497803,0 0.15747,2.069091 0.161133,1.99585 q 0.08423,-1.549072 0.424805,-4.064941 l 1.604004,0 q 0.03296,0.260009 0.168457,1.955566 l 0.168457,2.252197 q 0.128174,-2.149658 0.428467,-4.207763 l 1.497802,0 z"
         id="path857"
         inkscape:connector-curvature="0" />
      <path
         d="m 32.088523,38.030434 -0.684815,5.928955 -1.926269,0 q -0.263672,-1.365967 -0.465088,-3.105469 -0.09155,0.743408 -0.428467,3.105469 l -1.915283,0 -0.688477,-5.928955 1.497803,0 0.157471,2.069091 0.161133,1.99585 q 0.08423,-1.549072 0.424804,-4.064941 l 1.604004,0 q 0.03296,0.260009 0.168457,1.955566 l 0.168457,2.252197 q 0.128174,-2.149658 0.428467,-4.207763 l 1.497803,0 z"
         id="path859"
         inkscape:connector-curvature="0" />
    </g>
  </g>
</svg>
