<?xml version="1.0" encoding="UTF-8" standalone="no"?>
<!-- Created with Inkscape (http://www.inkscape.org/) -->

<svg
   xmlns:dc="http://purl.org/dc/elements/1.1/"
   xmlns:cc="http://creativecommons.org/ns#"
   xmlns:rdf="http://www.w3.org/1999/02/22-rdf-syntax-ns#"
   xmlns:svg="http://www.w3.org/2000/svg"
   xmlns="http://www.w3.org/2000/svg"
   xmlns:xlink="http://www.w3.org/1999/xlink"
   xmlns:sodipodi="http://sodipodi.sourceforge.net/DTD/sodipodi-0.dtd"
   xmlns:inkscape="http://www.inkscape.org/namespaces/inkscape"
   width="24"
   height="24"
   id="svg6399"
   version="1.1"
   inkscape:version="0.48.3.1 r9886"
   sodipodi:docname="video-small.svg"
   inkscape:export-filename="/tmp/moodle-theme_anomalyred/pix_core/f/video.png"
   inkscape:export-xdpi="60"
   inkscape:export-ydpi="60"
   preserveAspectRatio="xMinYMid meet">
  <defs
     id="defs6401">
    <linearGradient
       y2="468.35892"
       x2="314.34872"
       y1="425.61682"
       x1="314.34872"
       gradientTransform="translate(-53.785477,-0.003684)"
       gradientUnits="userSpaceOnUse"
       id="linearGradient1187"
       xlink:href="#linearGradient1069"
       inkscape:collect="always" />
    <linearGradient
       id="linearGradient1069">
      <stop
         style="stop-color:#ffffff;stop-opacity:1"
         offset="0"
         id="stop1071" />
      <stop
         style="stop-color:#e6e6e6;stop-opacity:1"
         offset="1"
         id="stop1073" />
    </linearGradient>
    <linearGradient
       gradientTransform="translate(218.88524,181.71843)"
       inkscape:collect="always"
       xlink:href="#linearGradient6707"
       id="linearGradient1110"
       x1="262.01361"
       y1="471.95245"
       x2="262.01361"
       y2="442.7843"
       gradientUnits="userSpaceOnUse" />
    <linearGradient
       id="linearGradient6707">
      <stop
         id="stop6709"
         offset="0"
         style="stop-color:#000000;stop-opacity:1;" />
      <stop
         id="stop6711"
         offset="1"
         style="stop-color:#ffffff;stop-opacity:1;" />
    </linearGradient>
    <linearGradient
       y2="468.35892"
       x2="314.34872"
       y1="425.61682"
       x1="314.34872"
       gradientTransform="translate(-53.785477,-0.003684)"
       gradientUnits="userSpaceOnUse"
       id="linearGradient1758"
       xlink:href="#linearGradient1069-4"
       inkscape:collect="always" />
    <linearGradient
       id="linearGradient1069-4">
      <stop
         style="stop-color:#ffffff;stop-opacity:1"
         offset="0"
         id="stop1071-6" />
      <stop
         style="stop-color:#e6e6e6;stop-opacity:1"
         offset="1"
         id="stop1073-5" />
    </linearGradient>
    <linearGradient
       x1="64"
       y1="60"
       x2="62"
       y2="7"
       id="linearGradient3769"
       xlink:href="#linearGradient3763"
       gradientUnits="userSpaceOnUse"
       gradientTransform="matrix(1.231823,0,0,1.231823,-27.816151,7.1708322)" />
    <linearGradient
       id="linearGradient3763">
      <stop
         id="stop3765"
         style="stop-color:#ff7700;stop-opacity:1"
         offset="0" />
      <stop
         id="stop3767"
         style="stop-color:#ffb15d;stop-opacity:1"
         offset="1" />
    </linearGradient>
    <filter
       color-interpolation-filters="sRGB"
       inkscape:collect="always"
       id="filter3861">
      <feGaussianBlur
         inkscape:collect="always"
         stdDeviation="0.34341048"
         id="feGaussianBlur3863" />
    </filter>
    <filter
       color-interpolation-filters="sRGB"
       inkscape:collect="always"
       id="filter3838">
      <feGaussianBlur
         inkscape:collect="always"
         stdDeviation="0.46205633"
         id="feGaussianBlur3840" />
    </filter>
    <linearGradient
       y2="-174.9679"
       x2="149.98465"
       y1="-104.23534"
       x1="149.98465"
       gradientTransform="matrix(0.60671098,0,0,0.61075136,184.28404,521.27557)"
       gradientUnits="userSpaceOnUse"
       id="linearGradient3904"
       xlink:href="#linearGradient3707-319-631-407-324-616-674-812-821-107-178-392-400-7-3-5-8-8"
       inkscape:collect="always" />
    <linearGradient
       id="linearGradient3707-319-631-407-324-616-674-812-821-107-178-392-400-7-3-5-8-8">
      <stop
         id="stop5440-9-8-4-9-7"
         style="stop-color:#272727;stop-opacity:1;"
         offset="0" />
      <stop
         id="stop5442-0-9-2-7-8"
         style="stop-color:#454545;stop-opacity:1;"
         offset="1" />
    </linearGradient>
  </defs>
  <sodipodi:namedview
     id="base"
     pagecolor="#ffffff"
     bordercolor="#666666"
     borderopacity="1.0"
     inkscape:pageopacity="0.0"
     inkscape:pageshadow="2"
     inkscape:zoom="15.839192"
     inkscape:cx="2.0507501"
     inkscape:cy="-2.1521145"
     inkscape:document-units="px"
     inkscape:current-layer="layer1"
     showgrid="true"
     fit-margin-top="0"
     fit-margin-left="1"
     fit-margin-right="1"
     fit-margin-bottom="0"
     inkscape:window-width="1881"
     inkscape:window-height="1029"
     inkscape:window-x="0"
     inkscape:window-y="26"
     inkscape:window-maximized="1"
     showguides="false">
    <inkscape:grid
       type="xygrid"
       id="grid3013" />
  </sodipodi:namedview>
  <metadata
     id="metadata6404">
    <rdf:RDF>
      <cc:Work
         rdf:about="">
        <dc:format>image/svg+xml</dc:format>
        <dc:type
           rdf:resource="http://purl.org/dc/dcmitype/StillImage" />
        <dc:title></dc:title>
      </cc:Work>
    </rdf:RDF>
  </metadata>
  <g
     inkscape:label="Capa 1"
     inkscape:groupmode="layer"
     id="layer1"
     transform="translate(-468,-617.50507)">
    <path
       style="opacity:0.85;fill:#000000;fill-opacity:1;stroke:none"
       d="m 468.89035,617.50507 22.21928,0 c 0.49327,0 0.89037,0.43363 0.89037,0.97227 l 0,22.05546 c 0,0.53865 -0.3971,0.97227 -0.89037,0.97227 l -22.21928,0 c -0.49326,0 -0.89035,-0.43363 -0.89035,-0.97227 l 0,-22.05546 c 0,-0.53864 0.39709,-0.97227 0.89035,-0.97227 z"
       id="rect3922"
       inkscape:connector-curvature="0" />
    <path
       inkscape:connector-curvature="0"
       id="path869"
       d="m 469.34892,618.00507 21.30215,0 c 0.47031,0 0.84893,0.41557 0.84893,0.93176 l 0,21.13648 c 0,0.51619 -0.37862,0.93176 -0.84893,0.93176 l -21.30215,0 c -0.47031,0 -0.84892,-0.41557 -0.84892,-0.93176 l 0,-21.13648 c 0,-0.51619 0.37861,-0.93176 0.84892,-0.93176 z"
       style="fill:#ff0000;fill-opacity:1;stroke:none" />
    <g
       transform="matrix(0.65713185,0,0,0.65713185,308.22875,332.85041)"
       id="g3083">
      <g
         style="opacity:0.75;filter:url(#filter3838)"
         id="g3845"
         transform="translate(-0.70918712,1.2624341)">
        <path
           inkscape:connector-curvature="0"
           style="color:#000000;fill:url(#linearGradient3904);fill-opacity:1;fill-rule:nonzero;stroke:none;stroke-width:1;marker:none;visibility:visible;display:inline;overflow:visible;enable-background:accumulate"
           d="m 263.31136,434.30369 c -1.59057,0 -2.88,2.57884 -2.88,5.76 0,0.5293 0.0232,1.04315 0.09,1.53 -0.34183,-0.34537 -0.6656,-0.71617 -1.08,-1.035 -2.52126,-1.93985 -5.37506,-2.47564 -6.345,-1.215 -0.96992,1.26064 0.31374,3.86515 2.835,5.805 0.47841,0.36808 0.95419,0.63484 1.44,0.9 -0.55033,0.0703 -1.12896,0.19056 -1.71,0.36 -3.05395,0.89062 -5.17029,2.88302 -4.725,4.41 0.44531,1.52698 3.29105,2.01562 6.345,1.125 0.57262,-0.16698 1.12411,-0.35273 1.62,-0.585 -0.1211,0.22037 -0.25045,0.43639 -0.36,0.675 -6.00101,5.35588 -10.935,15.615 -10.935,15.615 l 2.07,0.0449 c 1.12404,-2.69854 3.90383,-8.62418 8.19,-13.59 -0.60663,2.52382 -0.21428,4.75324 1.08,5.22 1.49626,0.53962 3.60079,-1.46249 4.68,-4.455 0.0971,-0.26916 0.15067,-0.54452 0.225,-0.81 0.11652,0.25685 0.21928,0.50797 0.36,0.765 1.5277,2.79031 3.91485,4.45385 5.31,3.69 1.39517,-0.76385 1.2577,-3.64469 -0.27,-6.435 -0.0871,-0.15918 -0.17771,-0.29852 -0.27,-0.45 0.16925,0.0526 0.31956,0.0893 0.495,0.13493 3.07812,0.80311 5.89845,0.23406 6.3,-1.305 0.40157,-1.53906 -1.78188,-3.42689 -4.86,-4.23 -0.047,-0.013 -0.088,-0.0334 -0.13493,-0.0449 0.0415,-0.0233 0.0936,-0.021 0.13493,-0.0449 2.75497,-1.59058 4.35029,-4.02251 3.555,-5.4 -0.79529,-1.37749 -3.68003,-1.18558 -6.435,0.405 -0.88244,0.50948 -1.60189,1.09377 -2.205,1.71 0.22872,-0.82585 0.36,-1.77906 0.36,-2.79 0,-3.18117 -1.28941,-5.76 -2.88,-5.76 z m 0.09,9.63 c 1.98823,0 3.6,1.61178 3.6,3.6 0,1.98822 -1.61177,3.6 -3.6,3.6 -1.98822,0 -3.6,-1.61178 -3.6,-3.6 0,-1.98822 1.61178,-3.6 3.6,-3.6 z"
           id="path4019-3" />
      </g>
      <path
         id="path4019"
         d="m 263.24927,435.58438 c -1.59057,0 -2.88,2.57884 -2.88,5.76 0,0.5293 0.0232,1.04315 0.09,1.53 -0.34183,-0.34537 -0.6656,-0.71617 -1.08,-1.035 -2.52126,-1.93985 -5.37506,-2.47564 -6.345,-1.215 -0.96992,1.26064 0.31374,3.86515 2.835,5.805 0.47841,0.36808 0.95419,0.63484 1.44,0.9 -0.55033,0.0703 -1.12896,0.19056 -1.71,0.36 -3.05395,0.89062 -5.17029,2.88302 -4.725,4.41 0.44531,1.52698 3.29105,2.01562 6.345,1.125 0.57262,-0.16698 1.12411,-0.35273 1.62,-0.585 -0.1211,0.22037 -0.25045,0.43639 -0.36,0.675 -6.00101,5.35588 -10.935,15.615 -10.935,15.615 l 2.07,0.0449 c 1.12404,-2.69854 3.90383,-8.62418 8.19,-13.59 -0.60663,2.52382 -0.21428,4.75324 1.08,5.22 1.49626,0.53962 3.60079,-1.46249 4.68,-4.455 0.0971,-0.26916 0.15067,-0.54452 0.225,-0.81 0.11652,0.25685 0.21928,0.50797 0.36,0.765 1.5277,2.79031 3.91485,4.45385 5.31,3.69 1.39517,-0.76385 1.2577,-3.64469 -0.27,-6.435 -0.0871,-0.15918 -0.17771,-0.29852 -0.27,-0.45 0.16925,0.0526 0.31956,0.0893 0.495,0.13493 3.07812,0.80311 5.89845,0.23406 6.3,-1.305 0.40157,-1.53906 -1.78188,-3.42689 -4.86,-4.23 -0.047,-0.013 -0.088,-0.0334 -0.13493,-0.0449 0.0415,-0.0233 0.0936,-0.021 0.13493,-0.0449 2.75497,-1.59058 4.35029,-4.02251 3.555,-5.4 -0.79529,-1.37749 -3.68003,-1.18558 -6.435,0.405 -0.88244,0.50948 -1.60189,1.09377 -2.205,1.71 0.22872,-0.82585 0.36,-1.77906 0.36,-2.79 0,-3.18117 -1.28941,-5.76 -2.88,-5.76 z m 0.09,9.63 c 1.98823,0 3.6,1.61178 3.6,3.6 0,1.98822 -1.61177,3.6 -3.6,3.6 -1.98822,0 -3.6,-1.61178 -3.6,-3.6 0,-1.98822 1.61178,-3.6 3.6,-3.6 z"
         style="fill:#ffffff;fill-opacity:1;stroke:none"
         inkscape:connector-curvature="0" />
    </g>
  </g>
</svg>
