<?xml version="1.0" encoding="UTF-8" standalone="no"?>
<!-- Created with Inkscape (http://www.inkscape.org/) -->

<svg
   xmlns:dc="http://purl.org/dc/elements/1.1/"
   xmlns:cc="http://creativecommons.org/ns#"
   xmlns:rdf="http://www.w3.org/1999/02/22-rdf-syntax-ns#"
   xmlns:svg="http://www.w3.org/2000/svg"
   xmlns="http://www.w3.org/2000/svg"
   xmlns:xlink="http://www.w3.org/1999/xlink"
   xmlns:sodipodi="http://sodipodi.sourceforge.net/DTD/sodipodi-0.dtd"
   xmlns:inkscape="http://www.inkscape.org/namespaces/inkscape"
   width="80"
   height="80"
   id="svg6654"
   version="1.1"
   inkscape:version="0.48.3.1 r9886"
   sodipodi:docname="wma.svg"
   inkscape:export-filename="/tmp/moodle-theme_anomalyred/pix_core/f/mp3-32.png"
   inkscape:export-xdpi="36"
   inkscape:export-ydpi="36"
   preserveAspectRatio="xMinYMid meet">
  <defs
     id="defs6656">
    <linearGradient
       id="linearGradient998">
      <stop
         id="stop1000"
         offset="0"
         style="stop-color:#2ad4ff;stop-opacity:1" />
      <stop
         id="stop1002"
         offset="1"
         style="stop-color:#00aad4;stop-opacity:1" />
    </linearGradient>
    <linearGradient
       id="linearGradient6707">
      <stop
         id="stop6709"
         offset="0"
         style="stop-color:#000000;stop-opacity:1;" />
      <stop
         id="stop6711"
         offset="1"
         style="stop-color:#ffffff;stop-opacity:1;" />
    </linearGradient>
    <linearGradient
       y2="442.7843"
       x2="262.01361"
       y1="471.95245"
       x1="262.01361"
       gradientTransform="matrix(1.7924358,0,0,2.6778847,-276.57484,-383.59784)"
       gradientUnits="userSpaceOnUse"
       id="linearGradient1696"
       xlink:href="#linearGradient6707"
       inkscape:collect="always" />
    <linearGradient
       y2="468.35892"
       x2="314.34872"
       y1="425.61682"
       x1="314.34872"
       gradientTransform="matrix(0.52631247,0,0,0.52273211,314.25463,395.43641)"
       gradientUnits="userSpaceOnUse"
       id="linearGradient1660"
       xlink:href="#linearGradient1069"
       inkscape:collect="always" />
    <linearGradient
       id="linearGradient1069">
      <stop
         style="stop-color:#ffffff;stop-opacity:1"
         offset="0"
         id="stop1071" />
      <stop
         style="stop-color:#e6e6e6;stop-opacity:1"
         offset="1"
         id="stop1073" />
    </linearGradient>
    <linearGradient
       y2="468.35892"
       x2="314.34872"
       y1="425.61682"
       x1="314.34872"
       gradientTransform="matrix(1.79059,0,0,1.6675619,-372.46096,85.680969)"
       gradientUnits="userSpaceOnUse"
       id="linearGradient3017"
       xlink:href="#linearGradient1069"
       inkscape:collect="always" />
  </defs>
  <sodipodi:namedview
     id="base"
     pagecolor="#ffffff"
     bordercolor="#666666"
     borderopacity="1.0"
     inkscape:pageopacity="0.0"
     inkscape:pageshadow="2"
     inkscape:zoom="3.959798"
     inkscape:cx="25.311779"
     inkscape:cy="36.79457"
     inkscape:document-units="px"
     inkscape:current-layer="layer1"
     showgrid="true"
     fit-margin-top="0"
     fit-margin-left="0"
     fit-margin-right="0"
     fit-margin-bottom="0"
     inkscape:window-width="1881"
     inkscape:window-height="1029"
     inkscape:window-x="0"
     inkscape:window-y="26"
     inkscape:window-maximized="1">
    <inkscape:grid
       type="xygrid"
       id="grid3783" />
  </sodipodi:namedview>
  <metadata
     id="metadata6659">
    <rdf:RDF>
      <cc:Work
         rdf:about="">
        <dc:format>image/svg+xml</dc:format>
        <dc:type
           rdf:resource="http://purl.org/dc/dcmitype/StillImage" />
        <dc:title></dc:title>
      </cc:Work>
    </rdf:RDF>
  </metadata>
  <g
     inkscape:label="Capa 1"
     inkscape:groupmode="layer"
     id="layer1"
     transform="translate(-151.42857,-795.2193)">
    <path
       style="opacity:0.65;fill:#000000;fill-opacity:1;stroke:none"
       d="m 154.3964,795.05987 74.06432,0 c 1.64418,0 2.96785,1.44542 2.96785,3.24087 l 0,73.5178 c 0,1.79548 -1.32366,3.24088 -2.96785,3.24088 l -74.06432,0 c -1.64416,0 -2.96783,-1.44542 -2.96783,-3.24088 l 0,-73.5178 c 0,-1.79545 1.32364,-3.24087 2.96783,-3.24087 z"
       id="rect3922"
       inkscape:connector-curvature="0" />
    <rect
       style="opacity:0.35648151;fill:none;stroke:none"
       id="rect4543"
       width="79.05191"
       height="79.05191"
       x="151.90262"
       y="795.69147" />
    <path
       inkscape:connector-curvature="0"
       id="path869-3"
       d="m 155.97966,796.4923 70.89745,0 c 1.5653,0 2.82542,1.29686 2.82542,2.9078 l 0,65.9614 c 0,1.61094 -1.26012,2.9078 -2.82542,2.9078 l -70.89745,0 c -1.56526,0 -2.82535,-1.29686 -2.82535,-2.9078 l 0,-65.9614 c 0,-1.61094 1.26008,-2.9078 2.82535,-2.9078 z"
       style="fill:url(#linearGradient3017);fill-opacity:1;stroke:none" />
    <path
       inkscape:connector-curvature="0"
       style="fill:url(#linearGradient1696);fill-opacity:1;stroke:none"
       d="m 153.14326,850.3933 0,18.07571 c 0,2.58694 1.23382,4.68629 2.80068,4.68629 l 71.02525,0 c 1.5669,0 2.80069,-2.09935 2.80069,-4.68629 l 0,-18.07571 -76.62662,0 z"
       id="path874" />
    <g
       id="g3836"
       transform="translate(10.072061,-0.855)">
      <g
         id="g2997"
         style="font-size:7.5px;font-style:normal;font-variant:normal;font-weight:bold;font-stretch:normal;line-height:125%;letter-spacing:0px;word-spacing:0px;fill:#ffffff;fill-opacity:1;stroke:none;font-family:Impact;-inkscape-font-specification:Impact Bold"
         transform="matrix(2.4999325,0,0,2.4999325,237.14482,765.40069)">
        <path
           d="m -26.556396,35.999615 0,3.962402 q 0,0.889893 -0.01831,1.14624 -0.01831,0.252686 -0.168457,0.457764 -0.146484,0.205078 -0.402832,0.285644 -0.252686,0.07691 -0.765381,0.07691 l -0.772705,0 0,-1.036377 q 0.13916,0.01099 0.201416,0.01099 0.164795,0 0.26001,-0.08057 0.09521,-0.08057 0.109863,-0.197754 0.01465,-0.117188 0.01465,-0.454102 l 0,-4.171142 1.541746,-5e-6 z"
           id="path837"
           inkscape:connector-curvature="0" />
      </g>
      <path
         d="m 172.02552,855.39746 3.88167,0 q 1.57463,0 2.4169,0.24724 0.85139,0.24723 1.27252,0.71409 0.43028,0.46691 0.57675,1.1352 0.15575,0.65915 0.15575,2.0507 l 0,1.29084 q 0,1.41902 -0.29294,2.06902 -0.29297,0.65 -1.08028,0.99788 -0.77817,0.34789 -2.04154,0.34789 l -1.03451,0 0,5.96898 -3.85422,0 0,-14.82179 z m 3.85419,2.53592 0,3.77182 q 0.16475,0.01 0.28382,0.01 0.53097,0 0.73239,-0.25634 0.2105,-0.26549 0.2105,-1.08943 l 0,-1.2176 q 0,-0.75987 -0.238,-0.98873 -0.23799,-0.22899 -0.98876,-0.22899 z"
         id="path1006"
         inkscape:connector-curvature="0"
         style="font-size:7.5px;font-style:normal;font-variant:normal;font-weight:bold;font-stretch:normal;line-height:125%;letter-spacing:0px;word-spacing:0px;fill:#ffffff;fill-opacity:1;stroke:none;font-family:Impact;-inkscape-font-specification:Impact Bold" />
      <path
         d="m 181.79673,855.3973 6.16774,0 0,2.96622 -2.46885,0 0,2.81061 2.3107,0 0,2.81975 -2.3107,0 0,3.2592 2.71486,0 0,2.96622 -6.41375,0 0,-14.822 z"
         style="font-size:7.5px;font-style:normal;font-variant:normal;font-weight:bold;font-stretch:normal;line-height:125%;letter-spacing:0px;word-spacing:0px;fill:#ffffff;fill-opacity:1;stroke:none;font-family:Impact;-inkscape-font-specification:Impact Bold"
         id="path1011"
         inkscape:connector-curvature="0" />
      <path
         d="m 197.99032,860.93254 -3.69889,0 0,-1.29153 q 0,-1.22124 -0.10533,-1.52874 -0.10532,-0.30752 -0.50079,-0.30752 -0.34265,0 -0.46566,0.26357 -0.12307,0.26359 -0.12307,1.35305 l 0,6.82669 q 0,0.95767 0.12307,1.26517 0.12308,0.29871 0.49202,0.29871 0.40416,0 0.54473,-0.34264 0.14947,-0.34265 0.14947,-1.33547 l 0,-1.68689 -0.74681,0 0,-2.16135 4.33148,0 0,7.63499 -2.32829,0 -0.34264,-1.01916 q -0.3778,0.65893 -0.95767,0.9928 -0.5711,0.32508 -1.35303,0.32508 -0.93132,0 -1.7484,-0.44809 -0.80832,-0.45687 -1.23005,-1.1246 -0.42172,-0.66773 -0.52716,-1.39696 -0.10533,-0.73802 -0.10533,-2.20527 l 0,-4.22606 q 0,-2.03832 0.21977,-2.96086 0.21952,-0.92253 1.25641,-1.68689 1.04552,-0.77318 2.69727,-0.77318 1.6254,0 2.69729,0.66773 1.0719,0.66773 1.39698,1.59028 0.32506,0.91372 0.32506,2.66212 l 0,0.61502 z"
         id="path849"
         inkscape:connector-curvature="0"
         style="font-size:7.5px;font-style:normal;font-weight:normal;line-height:125%;letter-spacing:0px;word-spacing:0px;fill:#ffffff;fill-opacity:1;stroke:none;font-family:Impact;-inkscape-font-specification:Impact" />
    </g>
    <g
       id="g3015"
       style="fill:#ff0000;fill-opacity:1"
       transform="matrix(1.1111248,0,0,1.1111248,-20.162497,-90.252997)">
      <path
         d="m 195.2999,812.96914 c 3.57971,0 6.68782,1.97143 8.40365,4.87524 l 10.11407,0.0117 v -5.48138 c 0,-2.03983 -1.64113,-3.69446 -3.6544,-3.69446 h -37.69019 c -2.01957,0 -3.64315,1.65463 -3.64315,3.69446 l 0.0104,5.43503 18.05017,0.0122 c 1.72798,-2.89346 4.8235,-4.85274 8.4095,-4.85274"
         id="path2780"
         inkscape:connector-curvature="0"
         style="fill:#ff0000;fill-opacity:1" />
      <path
         d="m 178.28246,806.94011 h -3.35291 l -0.38744,1.22174 h 4.0189 l -0.27855,-1.22174 z"
         id="path2782"
         inkscape:connector-curvature="0"
         style="fill:#ff0000;fill-opacity:1" />
      <path
         d="m 208.51534,806.28852 h -4.4644 l -0.79199,1.88458 h 5.98043 l -0.72404,-1.88458 z"
         id="path2784"
         inkscape:connector-curvature="0"
         style="fill:#ff0000;fill-opacity:1" />
      <path
         d="m 193.19123,807.52241 h -3.84251 v -1.87918 h 3.84251 v 1.87918 z m 3.52255,-2.63427 h -10.84936 l -2.23513,3.30836 h 15.13107 l -2.04658,-3.30836 z"
         id="path2786"
         inkscape:connector-curvature="0"
         style="fill:#ff0000;fill-opacity:1" />
      <path
         d="m 204.22779,818.82447 c 0.55934,1.24513 0.88964,2.61582 0.88964,4.0747 0,5.48093 -4.39645,9.93003 -9.81708,9.93003 -5.42783,0 -9.82293,-4.44955 -9.82293,-9.93003 0,-1.45888 0.32535,-2.82957 0.88919,-4.081 h -17.53673 v 14.96322 c 0,2.02812 1.62358,3.68275 3.64315,3.68275 h 37.68974 c 2.01327,0 3.6544,-1.65463 3.6544,-3.68275 l 0.0121,-14.95692 h -9.60153 z"
         id="path2788"
         inkscape:connector-curvature="0"
         style="fill:#ff0000;fill-opacity:1" />
      <path
         d="m 200.65349,819.63671 c -0.1539,-0.27675 -0.34785,-0.53639 -0.5589,-0.78344 -1.14613,-1.39498 -2.86151,-2.31207 -4.79424,-2.31207 -1.93902,0 -3.6544,0.91169 -4.80054,2.30037 -0.2106,0.25335 -0.40499,0.51299 -0.57014,0.79514 -0.5751,0.95714 -0.92339,2.06322 -0.92339,3.26246 0,3.50456 2.81696,6.35122 6.29407,6.35122 3.46001,0 6.27742,-2.84666 6.27742,-6.35122 -4.5e-4,-1.19879 -0.34244,-2.30487 -0.92428,-3.26246"
         id="path2790"
         inkscape:connector-curvature="0"
         style="fill:#ff0000;fill-opacity:1" />
    </g>
  </g>
</svg>
