<?xml version="1.0" encoding="UTF-8" standalone="no"?>
<!-- Created with Inkscape (http://www.inkscape.org/) -->

<svg
   xmlns:dc="http://purl.org/dc/elements/1.1/"
   xmlns:cc="http://creativecommons.org/ns#"
   xmlns:rdf="http://www.w3.org/1999/02/22-rdf-syntax-ns#"
   xmlns:svg="http://www.w3.org/2000/svg"
   xmlns="http://www.w3.org/2000/svg"
   xmlns:xlink="http://www.w3.org/1999/xlink"
   xmlns:sodipodi="http://sodipodi.sourceforge.net/DTD/sodipodi-0.dtd"
   xmlns:inkscape="http://www.inkscape.org/namespaces/inkscape"
   width="80.001999"
   height="80.000214"
   id="svg4214"
   version="1.1"
   inkscape:version="0.48.3.1 r9886"
   sodipodi:docname="pdf.svg"
   inkscape:export-filename="/tmp/moodle-theme_anomalyred/pix_core/f/pdf-32.png"
   inkscape:export-xdpi="35.999905"
   inkscape:export-ydpi="35.999905" preserveAspectRatio="xMinYMid meet">
  <defs
     id="defs4216">
    <linearGradient
       id="linearGradient4790">
      <stop
         style="stop-color:#cd0000;stop-opacity:1;"
         offset="0"
         id="stop4792" />
      <stop
         style="stop-color:#ff0000;stop-opacity:1;"
         offset="1"
         id="stop4794" />
    </linearGradient>
    <linearGradient
       id="linearGradient6707-5">
      <stop
         id="stop6709-0"
         offset="0"
         style="stop-color:#000000;stop-opacity:1;" />
      <stop
         id="stop6711-5"
         offset="1"
         style="stop-color:#ffffff;stop-opacity:1;" />
    </linearGradient>
    <linearGradient
       inkscape:collect="always"
       xlink:href="#linearGradient4790"
       id="linearGradient4788"
       x1="25.253813"
       y1="1049.8368"
       x2="25.253813"
       y2="1003.8749"
       gradientUnits="userSpaceOnUse"
       gradientTransform="matrix(1.8104756,0,0,1.7482736,-19.451415,-770.83584)" />
    <linearGradient
       inkscape:collect="always"
       xlink:href="#linearGradient918-1"
       id="linearGradient912"
       x1="462.37933"
       y1="837.0611"
       x2="463.75925"
       y2="835.67212"
       gradientUnits="userSpaceOnUse"
       gradientTransform="matrix(1.8102357,-0.02946975,0.02946975,1.8102357,-812.8496,-500.88944)" />
    <linearGradient
       id="linearGradient918-1">
      <stop
         id="stop920-5"
         offset="0"
         style="stop-color:#f6f6f6;stop-opacity:1" />
      <stop
         id="stop922-7"
         offset="1"
         style="stop-color:#e2e2e2;stop-opacity:1" />
    </linearGradient>
    <linearGradient
       inkscape:collect="always"
       xlink:href="#linearGradient6707"
       id="linearGradient3077"
       gradientUnits="userSpaceOnUse"
       gradientTransform="matrix(1.8114204,0,0,2.6689195,-211.88361,-765.76882)"
       x1="262.01361"
       y1="471.95245"
       x2="262.01361"
       y2="442.7843" />
    <linearGradient
       id="linearGradient6707">
      <stop
         id="stop6709"
         offset="0"
         style="stop-color:#000000;stop-opacity:1;" />
      <stop
         id="stop6711"
         offset="1"
         style="stop-color:#ffffff;stop-opacity:1;" />
    </linearGradient>
    <linearGradient
       inkscape:collect="always"
       xlink:href="#linearGradient6707"
       id="linearGradient3806"
       gradientUnits="userSpaceOnUse"
       gradientTransform="matrix(1.8114204,0,0,2.6689195,-448.9685,-185.20458)"
       x1="262.01361"
       y1="471.95245"
       x2="262.01361"
       y2="442.7843" />
    <filter
       inkscape:collect="always"
       id="filter3778"
       color-interpolation-filters="sRGB">
      <feGaussianBlur
         inkscape:collect="always"
         stdDeviation="0.65051148"
         id="feGaussianBlur3780" />
    </filter>
    <linearGradient
       inkscape:collect="always"
       xlink:href="#linearGradient4790"
       id="linearGradient3795"
       gradientUnits="userSpaceOnUse"
       gradientTransform="matrix(1.8104756,0,0,1.7482736,-19.451415,-770.83584)"
       x1="25.253813"
       y1="1049.8368"
       x2="25.253813"
       y2="1003.8749" />
    <linearGradient
       inkscape:collect="always"
       xlink:href="#linearGradient918-1"
       id="linearGradient3797"
       gradientUnits="userSpaceOnUse"
       gradientTransform="matrix(1.8102357,-0.02946975,0.02946975,1.8102357,-812.8496,-500.88944)"
       x1="462.37933"
       y1="837.0611"
       x2="463.75925"
       y2="835.67212" />
    <linearGradient
       inkscape:collect="always"
       xlink:href="#linearGradient6707"
       id="linearGradient3799"
       gradientUnits="userSpaceOnUse"
       gradientTransform="matrix(1.8114204,0,0,2.6689195,-448.9685,-185.20458)"
       x1="262.01361"
       y1="471.95245"
       x2="262.01361"
       y2="442.7843" />
    <linearGradient
       inkscape:collect="always"
       xlink:href="#linearGradient6707"
       id="linearGradient3020"
       gradientUnits="userSpaceOnUse"
       gradientTransform="matrix(1.698152,0,0,2.6689195,-419.41556,-185.20458)"
       x1="262.01361"
       y1="471.95245"
       x2="262.01361"
       y2="442.7843" />
    <linearGradient
       inkscape:collect="always"
       xlink:href="#linearGradient918-1"
       id="linearGradient3023"
       gradientUnits="userSpaceOnUse"
       gradientTransform="matrix(1.6226917,-0.02781917,0.02641663,1.7088458,-724.59467,-416.89522)"
       x1="462.37933"
       y1="837.0611"
       x2="463.75925"
       y2="835.67212" />
    <linearGradient
       inkscape:collect="always"
       xlink:href="#linearGradient918-1"
       id="linearGradient3790"
       gradientUnits="userSpaceOnUse"
       gradientTransform="matrix(1.6226917,-0.02781917,0.02641663,1.7088458,-724.59467,-416.89522)"
       x1="462.37933"
       y1="837.0611"
       x2="463.75925"
       y2="835.67212" />
    <filter
       inkscape:collect="always"
       id="filter3790">
      <feGaussianBlur
         inkscape:collect="always"
         stdDeviation="0.8673802"
         id="feGaussianBlur3792" />
    </filter>
    <filter
       color-interpolation-filters="sRGB"
       inkscape:collect="always"
       id="filter3834">
      <feGaussianBlur
         inkscape:collect="always"
         stdDeviation="0.50763"
         id="feGaussianBlur3836" />
    </filter>
    <filter
       color-interpolation-filters="sRGB"
       inkscape:collect="always"
       id="filter3848">
      <feGaussianBlur
         inkscape:collect="always"
         stdDeviation="0.37972629"
         id="feGaussianBlur3850" />
    </filter>
  </defs>
  <sodipodi:namedview
     id="base"
     pagecolor="#ffffff"
     bordercolor="#666666"
     borderopacity="1.0"
     inkscape:pageopacity="0.0"
     inkscape:pageshadow="2"
     inkscape:zoom="4"
     inkscape:cx="27.089368"
     inkscape:cy="60.734395"
     inkscape:document-units="px"
     inkscape:current-layer="layer1"
     showgrid="true"
     width="0px"
     height="0px"
     fit-margin-top="0"
     fit-margin-left="0.51"
     fit-margin-right="0.51"
     fit-margin-bottom="0"
     inkscape:window-width="1881"
     inkscape:window-height="1029"
     inkscape:window-x="0"
     inkscape:window-y="26"
     inkscape:window-maximized="1">
    <inkscape:grid
       type="xygrid"
       id="grid3016" />
  </sodipodi:namedview>
  <metadata
     id="metadata4219">
    <rdf:RDF>
      <cc:Work
         rdf:about="">
        <dc:format>image/svg+xml</dc:format>
        <dc:type
           rdf:resource="http://purl.org/dc/dcmitype/StillImage" />
        <dc:title></dc:title>
      </cc:Work>
    </rdf:RDF>
  </metadata>
  <g
     inkscape:label="Capa 1"
     inkscape:groupmode="layer"
     id="layer1"
     transform="translate(16.001,-988.36209)">
    <path
       style="opacity:0.7;fill:#000000;fill-opacity:1;stroke:none"
       d="m -10.706304,988.36209 c -1.541983,0 -2.793696,1.48695 -2.793696,3.28149 l 0,73.43722 c 0,1.7946 1.251713,3.2815 2.793696,3.2815 l 69.412608,0 c 1.542,0 2.793696,-1.4869 2.793696,-3.2815 l 0,-57.935 -17.890401,-18.78371 -54.315903,0 z"
       id="rect3922-2"
       inkscape:connector-curvature="0" />
    <path
       style="fill:#ff0000;fill-opacity:1;stroke:none"
       d="m -9.5982928,989.89242 c -1.4824112,0 -2.6497072,1.35217 -2.6497072,3.01786 l 0,68.22532 c 0,1.6658 1.167296,3.0178 2.6497072,3.0178 l 67.1965858,0 c 1.482411,0 2.649707,-1.3518 2.649707,-3.0178 l 0,-53.0821 -17.912024,-18.16108 -51.9342688,0 z"
       id="path869"
       inkscape:connector-curvature="0" />
    <g
       id="g3786"
       transform="translate(-0.50507627,0.25253814)">
      <path
         id="path914"
         d="m 60.894229,1007.9568 -18.40394,-18.70263 0.24343,15.74693 c 0.02787,1.803 1.270392,3.2453 2.819614,3.2187 l 15.340896,-0.263 z"
         style="opacity:0.7;fill:#000000;fill-opacity:1;stroke:none"
         inkscape:connector-curvature="0" />
      <path
         inkscape:connector-curvature="0"
         style="fill:url(#linearGradient3790);fill-opacity:1;stroke:none"
         d="m 60.200418,1007.202 -16.851,-17.12448 0.222888,14.41828 c 0.02553,1.6508 1.163194,2.9714 2.581687,2.947 l 14.046425,-0.2408 z"
         id="path902" />
    </g>
    <path
       inkscape:connector-curvature="0"
       style="fill:url(#linearGradient3020);fill-opacity:1;stroke:none"
       d="m -12.301,1044.6554 0,18.0152 c 0,2.5783 1.168922,4.6706 2.6533683,4.6706 l 67.2892747,0 c 1.484473,0 2.653357,-2.0923 2.653357,-4.6706 l 0,-18.0152 -72.596,0 z"
       id="path874" />
    <g
       style="font-size:7.5px;font-style:normal;font-variant:normal;font-weight:bold;font-stretch:normal;line-height:125%;letter-spacing:0px;word-spacing:0px;fill:#ffffff;fill-opacity:1;stroke:none;font-family:Impact;-inkscape-font-specification:Impact Bold"
       id="text4483"
       transform="matrix(2.3991503,0,0,2.3991503,-33.655566,-1454.8576)">
      <path
         inkscape:connector-curvature="0"
         d="m 21.723984,1046.7133 q 0,0.8935 -0.04395,1.267 -0.04028,0.3699 -0.263671,0.6775 -0.219727,0.3077 -0.596924,0.4724 -0.377198,0.1648 -0.878907,0.1648 -0.476074,0 -0.856933,-0.1538 -0.377197,-0.1574 -0.60791,-0.4687 -0.230713,-0.3113 -0.274658,-0.6775 -0.04395,-0.3662 -0.04395,-1.2817 l 0,-1.0144 q 0,-0.8936 0.04028,-1.2635 0.04395,-0.3735 0.263672,-0.6811 0.223389,-0.3076 0.600586,-0.4724 0.377198,-0.1648 0.878906,-0.1648 0.476075,0 0.853272,0.1574 0.380859,0.1538 0.611572,0.4651 0.230713,0.3113 0.274658,0.6775 0.04395,0.3662 0.04395,1.2818 l 7e-6,1.0144 z m -1.541748,-1.9483 q 0,-0.4138 -0.04761,-0.5273 -0.04395,-0.1172 -0.186767,-0.1172 -0.12085,0 -0.186768,0.095 -0.06226,0.092 -0.06226,0.5493 l 0,2.7686 q 0,0.5163 0.04028,0.6372 0.04395,0.1208 0.197754,0.1208 0.157471,0 0.201416,-0.1391 0.04395,-0.1392 0.04395,-0.6629 l 5e-6,-2.7244 z"
         id="path4488" />
      <path
         inkscape:connector-curvature="0"
         d="m 22.302597,1043.2416 1.153564,0 q 1.116944,0 1.50879,0.1025 0.395507,0.1026 0.600585,0.3369 0.205079,0.2344 0.256348,0.5237 0.05127,0.2857 0.05127,1.1279 l 0,2.0765 q 0,0.7983 -0.07691,1.0693 -0.07324,0.2673 -0.260009,0.4211 -0.186768,0.1502 -0.461426,0.2124 -0.274658,0.059 -0.827637,0.059 l -1.94458,0 5e-6,-5.9293 z m 1.541748,1.0144 0,3.9001 q 0.333252,0 0.410156,-0.1318 0.07691,-0.1355 0.07691,-0.7288 l 0,-2.3034 q 0,-0.4029 -0.02564,-0.5164 -0.02564,-0.1135 -0.117188,-0.1648 -0.09155,-0.055 -0.344238,-0.055 z"
         id="path4490" />
      <path
         inkscape:connector-curvature="0"
         d="m 29.714706,1045.036 -1.431884,0 0,-0.4394 q 0,-0.3077 -0.05493,-0.3919 -0.05493,-0.084 -0.183105,-0.084 -0.139161,0 -0.212403,0.1135 -0.06958,0.1135 -0.06958,0.3442 0,0.2967 0.08057,0.4468 0.0769,0.1502 0.435791,0.3626 1.029052,0.6115 1.296386,1.0034 0.267334,0.3918 0.267334,1.2634 0,0.6336 -0.150146,0.9339 -0.146485,0.3002 -0.571289,0.5053 -0.424805,0.2014 -0.98877,0.2014 -0.618896,0 -1.058349,-0.2343 -0.435791,-0.2344 -0.57129,-0.597 -0.135498,-0.3625 -0.135498,-1.029 l 0,-0.3882 1.431885,0 0,0.7214 q 0,0.3333 0.05859,0.4285 0.06226,0.095 0.216064,0.095 0.153809,0 0.227051,-0.1208 0.0769,-0.1209 0.0769,-0.3589 0,-0.5237 -0.142822,-0.6848 -0.146484,-0.1612 -0.721435,-0.5384 -0.574951,-0.3808 -0.761719,-0.5529 -0.186768,-0.1722 -0.311279,-0.4761 -0.12085,-0.304 -0.12085,-0.7764 0,-0.6811 0.172119,-0.9961 0.175781,-0.3149 0.563965,-0.4907 0.388184,-0.1794 0.9375,-0.1794 0.600586,0 1.021729,0.1941 0.424804,0.194 0.560302,0.4907 0.13916,0.2929 0.13916,0.9997 l 3e-6,0.2344 z"
         id="path4492" />
    </g>
    <g
       id="g3834"
       transform="matrix(0.88826572,0,0,0.88826572,3.1185142,113.09608)">
      <path
         style="opacity:0.75;fill:#000000;fill-opacity:1;stroke:none;filter:url(#filter3848)"
         d="m 38.949154,1009.6651 -10.346019,-11.3028 10.395865,0 0,11.3028 z"
         id="path3838"
         inkscape:connector-curvature="0"
         sodipodi:nodetypes="ccccc" />
      <path
         style="opacity:0.75;fill:none;stroke:#000000;stroke-width:3.60940886;stroke-linecap:butt;stroke-linejoin:miter;stroke-miterlimit:4;stroke-opacity:1;stroke-dasharray:none;filter:url(#filter3834)"
         d="m 6.0885746,1000.2312 0,36.5145 31.1054014,0 0,-22.2475 -13.23701,-14.3311 z"
         id="path3816"
         inkscape:connector-curvature="0"
         sodipodi:nodetypes="cccccc" />
      <path
         sodipodi:nodetypes="cccccc"
         inkscape:connector-curvature="0"
         id="path6396"
         d="m 7.0888576,999.23158 0,36.51452 31.1054004,0 0,-22.2475 -13.23701,-14.33112 z"
         style="fill:none;stroke:#ffffff;stroke-width:3.60940886;stroke-linecap:butt;stroke-linejoin:miter;stroke-miterlimit:4;stroke-opacity:1;stroke-dasharray:none" />
      <path
         sodipodi:nodetypes="ccccc"
         inkscape:connector-curvature="0"
         id="path7166"
         d="m 39.949117,1008.6656 -10.346019,-11.30283 10.395865,0 0,11.30283 z"
         style="fill:#ffffff;stroke:none" />
    </g>
  </g>
</svg>
