<?xml version="1.0" encoding="UTF-8" standalone="no"?>
<!-- Created with Inkscape (http://www.inkscape.org/) -->

<svg
   xmlns:dc="http://purl.org/dc/elements/1.1/"
   xmlns:cc="http://creativecommons.org/ns#"
   xmlns:rdf="http://www.w3.org/1999/02/22-rdf-syntax-ns#"
   xmlns:svg="http://www.w3.org/2000/svg"
   xmlns="http://www.w3.org/2000/svg"
   xmlns:xlink="http://www.w3.org/1999/xlink"
   xmlns:sodipodi="http://sodipodi.sourceforge.net/DTD/sodipodi-0.dtd"
   xmlns:inkscape="http://www.inkscape.org/namespaces/inkscape"
   width="24.00042"
   height="24"
   id="svg6389"
   version="1.1"
   inkscape:version="0.48.3.1 r9886"
   sodipodi:docname="pdf-small.svg"
   inkscape:export-filename="/tmp/moodle-theme_anomalyred/pix_core/f/pdf.png"
   inkscape:export-xdpi="59.998951"
   inkscape:export-ydpi="59.998951" preserveAspectRatio="xMinYMid meet">
  <defs
     id="defs6391">
    <linearGradient
       gradientTransform="matrix(1.1002865,0,0,1.1002865,64.232046,-167.79161)"
       inkscape:collect="always"
       xlink:href="#linearGradient6707"
       id="linearGradient1110"
       x1="262.01361"
       y1="471.95245"
       x2="262.01361"
       y2="442.7843"
       gradientUnits="userSpaceOnUse" />
    <linearGradient
       id="linearGradient6707">
      <stop
         id="stop6709"
         offset="0"
         style="stop-color:#000000;stop-opacity:1;" />
      <stop
         id="stop6711"
         offset="1"
         style="stop-color:#ffffff;stop-opacity:1;" />
    </linearGradient>
    <linearGradient
       y2="468.35892"
       x2="314.34872"
       y1="425.61682"
       x1="314.34872"
       gradientTransform="matrix(1.1002865,0,0,1.1002865,5.0328438,-167.7943)"
       gradientUnits="userSpaceOnUse"
       id="linearGradient887"
       xlink:href="#linearGradient1069-5"
       inkscape:collect="always" />
    <linearGradient
       id="linearGradient1069-5">
      <stop
         style="stop-color:#ffffff;stop-opacity:1"
         offset="0"
         id="stop1071-6" />
      <stop
         style="stop-color:#e6e6e6;stop-opacity:1"
         offset="1"
         id="stop1073-0" />
    </linearGradient>
    <linearGradient
       inkscape:collect="always"
       xlink:href="#linearGradient918-1"
       id="linearGradient912"
       x1="462.37933"
       y1="837.0611"
       x2="463.75925"
       y2="835.67212"
       gradientUnits="userSpaceOnUse" />
    <linearGradient
       id="linearGradient918-1">
      <stop
         id="stop920-5"
         offset="0"
         style="stop-color:#f6f6f6;stop-opacity:1" />
      <stop
         id="stop922-7"
         offset="1"
         style="stop-color:#e2e2e2;stop-opacity:1" />
    </linearGradient>
    <linearGradient
       inkscape:collect="always"
       xlink:href="#linearGradient1069-5"
       id="linearGradient3993"
       gradientUnits="userSpaceOnUse"
       gradientTransform="matrix(1.1002865,0,0,1.1002865,5.0328438,-167.7943)"
       x1="314.34872"
       y1="425.61682"
       x2="314.34872"
       y2="468.35892" />
    <linearGradient
       inkscape:collect="always"
       xlink:href="#linearGradient6707"
       id="linearGradient3995"
       gradientUnits="userSpaceOnUse"
       gradientTransform="matrix(1.1002865,0,0,1.1002865,64.232046,-167.79161)"
       x1="262.01361"
       y1="471.95245"
       x2="262.01361"
       y2="442.7843" />
    <linearGradient
       inkscape:collect="always"
       xlink:href="#linearGradient918-1"
       id="linearGradient3997"
       gradientUnits="userSpaceOnUse"
       x1="462.37933"
       y1="837.0611"
       x2="463.75925"
       y2="835.67212" />
    <linearGradient
       inkscape:collect="always"
       xlink:href="#linearGradient918-1"
       id="linearGradient4029"
       gradientUnits="userSpaceOnUse"
       x1="462.37933"
       y1="837.0611"
       x2="463.75925"
       y2="835.67212" />
    <linearGradient
       inkscape:collect="always"
       xlink:href="#linearGradient6707-9"
       id="linearGradient3077"
       gradientUnits="userSpaceOnUse"
       gradientTransform="matrix(1.8114204,0,0,2.6689195,-211.88361,-765.76882)"
       x1="262.01361"
       y1="471.95245"
       x2="262.01361"
       y2="442.7843" />
    <linearGradient
       id="linearGradient6707-9">
      <stop
         id="stop6709-3"
         offset="0"
         style="stop-color:#000000;stop-opacity:1;" />
      <stop
         id="stop6711-5"
         offset="1"
         style="stop-color:#ffffff;stop-opacity:1;" />
    </linearGradient>
    <linearGradient
       inkscape:collect="always"
       xlink:href="#linearGradient918-1"
       id="linearGradient3788"
       gradientUnits="userSpaceOnUse"
       x1="462.37933"
       y1="837.0611"
       x2="463.75925"
       y2="835.67212"
       gradientTransform="matrix(0.44235814,-0.04284892,0.05217855,0.58069344,110.25299,-149.34984)" />
    <filter
       inkscape:collect="always"
       id="filter3778"
       color-interpolation-filters="sRGB">
      <feGaussianBlur
         inkscape:collect="always"
         stdDeviation="0.65051148"
         id="feGaussianBlur3780" />
    </filter>
    <linearGradient
       id="linearGradient918-1-2">
      <stop
         id="stop920-5-3"
         offset="0"
         style="stop-color:#f6f6f6;stop-opacity:1" />
      <stop
         id="stop922-7-7"
         offset="1"
         style="stop-color:#e2e2e2;stop-opacity:1" />
    </linearGradient>
    <filter
       inkscape:collect="always"
       id="filter3874">
      <feGaussianBlur
         inkscape:collect="always"
         stdDeviation="1.0842252"
         id="feGaussianBlur3876" />
    </filter>
  </defs>
  <sodipodi:namedview
     id="base"
     pagecolor="#ffffff"
     bordercolor="#666666"
     borderopacity="1.0"
     inkscape:pageopacity="0.0"
     inkscape:pageshadow="2"
     inkscape:zoom="11.2"
     inkscape:cx="20.006667"
     inkscape:cy="18.351238"
     inkscape:document-units="px"
     inkscape:current-layer="layer1"
     showgrid="false"
     fit-margin-top="0"
     fit-margin-left="2.5"
     fit-margin-right="2.5"
     fit-margin-bottom="0"
     inkscape:window-width="1881"
     inkscape:window-height="1029"
     inkscape:window-x="0"
     inkscape:window-y="26"
     inkscape:window-maximized="1">
    <inkscape:grid
       type="xygrid"
       id="grid3017"
       empspacing="5"
       visible="true"
       enabled="true"
       snapvisiblegridlinesonly="true"
       originx="-27.99579px"
       originy="-27.999772px" />
  </sodipodi:namedview>
  <metadata
     id="metadata6394">
    <rdf:RDF>
      <cc:Work
         rdf:about="">
        <dc:format>image/svg+xml</dc:format>
        <dc:type
           rdf:resource="http://purl.org/dc/dcmitype/StillImage" />
        <dc:title></dc:title>
      </cc:Work>
    </rdf:RDF>
  </metadata>
  <g
     inkscape:label="Capa 1"
     inkscape:groupmode="layer"
     id="layer1"
     transform="translate(-339.53291,-313.05228)">
    <path
       style="opacity:0.85;fill:#000000;fill-opacity:1;stroke:none"
       d="m 341.3526,313.05228 c -0.45231,0 -0.81948,0.44609 -0.81948,0.98444 l 0,22.03112 c 0,0.53835 0.36717,0.98444 0.81948,0.98444 l 20.36104,0 c 0.45231,0 0.81948,-0.44608 0.81948,-0.98444 l 0,-17.38048 -5.24785,-5.63508 -15.93267,0 z"
       id="rect3922-2"
       inkscape:connector-curvature="0" />
    <path
       style="fill:#ff0000;fill-opacity:1;stroke:none"
       d="m 341.80066,313.4484 c -0.4294,0 -0.76754,0.4196 -0.76754,0.93667 l 0,21.17543 c 0,0.51708 0.33814,0.93668 0.76754,0.93668 l 19.46492,0 c 0.4294,0 0.76754,-0.4196 0.76754,-0.93668 l 0,-16.65934 -5.01974,-5.45276 -15.21272,0 z"
       id="path869-2"
       inkscape:connector-curvature="0" />
    <path
       inkscape:connector-curvature="0"
       style="opacity:0.85;fill:#000000;fill-opacity:1;stroke:none"
       d="m 362.04117,318.91497 -5.03541,-5.48871 -0.22625,0.001 0.42252,5.03425 c 0.0548,0.60582 0.42947,1.06558 0.84902,1.02516 l 3.99132,-0.28996 z"
       id="path3940"
       sodipodi:nodetypes="ccccccc" />
    <path
       id="path902"
       d="m 362.05231,318.92679 -5.05192,-5.50163 0.40868,4.88384 c 0.0505,0.56097 0.39583,0.98671 0.78251,0.94927 z"
       style="fill:url(#linearGradient3788);fill-opacity:1;stroke:none"
       inkscape:connector-curvature="0"
       sodipodi:nodetypes="ccccc" />
    <path
       sodipodi:nodetypes="ssscssssssscssssscssssssscssssscsssscssssssscsssssscscsscsssccc"
       inkscape:connector-curvature="0"
       id="path3008"
       d="m 1.7184495,1038.392 c -0.94290112,-0.4456 -1.13538552,-0.6196 -1.22710052,-1.1082 -0.2867812,-1.529 1.90551652,-4.1889 5.36256732,-6.5072 1.0611619,-0.7114 3.3891509,-2.0341 3.4583849,-1.9649 0.02017,0.034 -0.442397,0.451 -1.027544,0.9579 -2.0162076,1.7458 -4.2826316,4.1235 -5.0929734,5.3432 -0.7892968,1.1875 -1.2416513,2.1578 -1.2416513,2.6629 0,0.3192 0.073668,0.3159 0.9102673,-0.033 0.9245483,-0.3786 2.5984037,-1.9392 4.0239794,-3.752 1.611847,-2.0491 4.0359398,-5.9427 6.2384918,-10.0201 1.556955,-2.8819 4.496932,-8.8389 5.373975,-10.8887 l 0.793023,-1.8534 -0.382827,-1.4482 c -0.87534,-3.3108 -1.495167,-6.7379 -1.617108,-8.9411 -0.08569,-1.54774 0.07754,-3.26216 0.363221,-3.81436 0.462256,-0.89399 1.956896,-1.37086 3.207444,-1.02325 0.868491,0.24185 1.709031,1.55355 1.709031,2.66915 0,0.476 -0.239089,2.10516 -0.300021,2.04426 -0.0185,-0.034 -0.08784,-0.4653 -0.153872,-0.99214 -0.0971,-0.77432 -0.223697,-1.15892 -0.658349,-2.00062 -0.337349,-0.6532 -0.68503,-1.154 -0.93179,-1.3423 -0.368437,-0.28204 -0.407158,-0.28873 -0.60501,-0.1122 -0.754902,0.6834 -0.845435,4.45706 -0.194053,8.08926 0.287821,1.6048 0.682785,3.2983 0.795511,3.4109 0.08339,0.085 0.286946,-0.5951 0.960555,-3.2036 0.33731,-1.3061 0.615578,-2.2445 0.618375,-2.085 0.0092,0.5323 -0.334637,4.7962 -0.457907,5.6761 -0.06699,0.4778 -0.191062,1.1022 -0.275821,1.3879 -0.149219,0.5031 -0.139642,0.554 0.303581,1.6218 1.099295,2.6482 2.589845,5.086 4.335019,7.0902 1.136046,1.3043 2.40064,2.3621 3.932673,3.29 l 1.055578,0.6393 1.356908,-0.1775 c 6.039812,-0.7922 10.800858,-0.2958 11.696872,1.2223 0.215966,0.3657 0.381423,1.3758 0.225346,1.3758 -0.05823,0 -0.199366,-0.1123 -0.313667,-0.2415 -0.276494,-0.323 -1.514805,-0.8756 -2.481353,-1.1075 -0.623743,-0.1467 -1.370137,-0.1814 -3.733508,-0.1684 -3.133689,0.034 -4.493269,0.1123 -4.408304,0.3024 0.131097,0.2958 4.125661,1.8157 6.095497,2.3208 2.458747,0.6306 3.857026,0.6482 4.393952,0.054 0.332957,-0.3682 0.405813,-0.2721 0.216741,0.2823 -0.361918,1.062 -1.030369,1.404 -2.706851,1.385 -2.612077,-0.033 -6.42358,-1.1585 -10.016955,-2.9648 l -1.38688,-0.6976 -1.045754,0.1394 c -1.521676,0.1984 -5.933901,1.0988 -8.343668,1.7033 -1.865337,0.4678 -6.318567,1.7283 -6.971081,1.9723 -0.15695,0.06 -0.668154,0.7812 -1.352197,1.9102 -2.2946178,3.7881 -3.8330088,5.8649 -5.5591398,7.5045 -1.8370493,1.7404 -3.3103854,2.1537 -4.9415823,1.3828 z m 13.6691095,-12.3035 c 2.779386,-1.0819 6.865443,-2.2352 10.452887,-2.951 1.193692,-0.2383 2.17109,-0.465 2.172003,-0.5039 8.07e-4,-0.04 -0.376273,-0.3507 -0.838182,-0.6921 -2.369825,-1.7533 -4.835478,-4.6644 -6.397612,-7.5541 -0.303045,-0.5607 -0.564961,-1.0039 -0.582012,-0.9847 -0.0172,0.033 -0.349672,0.8334 -0.73915,1.8096 -1.18494,2.9704 -2.469364,5.6007 -4.606982,9.4336 -0.595487,1.0679 -1.082708,1.9724 -1.082708,2.0106 0,0.036 0.0651,0.043 0.144838,0 0.07963,-0.034 0.744256,-0.2926 1.476941,-0.5777 z"
       style="opacity:1;fill:#000d0d;fill-opacity:1;filter:url(#filter3874)"
       transform="matrix(0.40400049,0,0,0.42545022,342.47093,-107.88306)" />
    <path
       style="fill:#ffffff;stroke-width:0.3;stroke-miterlimit:4;stroke-dasharray:none;stroke:#ffffff;stroke-opacity:1"
       d="m 343.81141,333.81591 c -0.38093,-0.18958 -0.4587,-0.26361 -0.49575,-0.47148 -0.11586,-0.65052 0.76983,-1.78217 2.16648,-2.76849 0.42871,-0.30267 1.36922,-0.86541 1.39719,-0.83597 0.008,0.0145 -0.17873,0.19188 -0.41513,0.40754 -0.81455,0.74275 -1.73018,1.75434 -2.05756,2.27327 -0.31888,0.50522 -0.50163,0.91803 -0.50163,1.13293 0,0.1358 0.0298,0.1344 0.36775,-0.014 0.37352,-0.16108 1.04975,-0.82504 1.62569,-1.59629 0.65118,-0.87179 1.63052,-2.52832 2.52035,-4.26306 0.62901,-1.2261 1.81676,-3.76051 2.17109,-4.6326 l 0.32038,-0.78852 -0.15466,-0.61614 c -0.35364,-1.40858 -0.60405,-2.86664 -0.65331,-3.80399 -0.0346,-0.65847 0.0313,-1.38787 0.14674,-1.6228 0.18675,-0.38035 0.79058,-0.58323 1.29581,-0.43534 0.35087,0.10289 0.69045,0.66096 0.69045,1.13559 0,0.20251 -0.0966,0.89561 -0.12121,0.8697 -0.007,-0.0145 -0.0355,-0.19796 -0.0622,-0.42208 -0.0392,-0.32943 -0.0904,-0.49306 -0.26597,-0.85116 -0.13629,-0.2779 -0.27675,-0.49097 -0.37644,-0.57108 -0.14885,-0.12 -0.1645,-0.12284 -0.24443,-0.0477 -0.30498,0.29075 -0.34155,1.89623 -0.0784,3.44155 0.11628,0.68277 0.27585,1.40327 0.32139,1.45117 0.0337,0.0362 0.11593,-0.25318 0.38807,-1.36297 0.13627,-0.55568 0.24869,-0.95492 0.24982,-0.88706 0.004,0.22646 -0.13519,2.04054 -0.185,2.41489 -0.0271,0.20328 -0.0772,0.46894 -0.11143,0.59049 -0.0603,0.21404 -0.0564,0.2357 0.12265,0.68999 0.44412,1.12668 1.0463,2.16384 1.75135,3.01653 0.45896,0.55491 0.96986,1.00495 1.5888,1.39973 l 0.42646,0.27199 0.54819,-0.0755 c 2.44008,-0.33704 4.36355,-0.12585 4.72554,0.52003 0.0873,0.15559 0.15409,0.58534 0.091,0.58534 -0.0235,0 -0.0805,-0.0478 -0.12672,-0.10275 -0.11171,-0.13742 -0.61198,-0.37253 -1.00247,-0.47119 -0.25199,-0.0624 -0.55354,-0.0772 -1.50834,-0.0716 -1.26601,0.0145 -1.81528,0.0478 -1.78096,0.12865 0.053,0.12585 1.66677,0.77249 2.46259,0.98739 0.99333,0.26829 1.55824,0.27577 1.77516,0.023 0.13451,-0.15665 0.16394,-0.11576 0.0876,0.12011 -0.14622,0.45183 -0.41627,0.59733 -1.09357,0.58925 -1.05528,-0.014 -2.59513,-0.49289 -4.04685,-1.26138 l -0.5603,-0.29679 -0.42249,0.0593 c -0.61476,0.0844 -2.3973,0.46749 -3.37085,0.72467 -0.75359,0.19903 -2.5527,0.73531 -2.81632,0.83912 -0.0634,0.0255 -0.26993,0.33236 -0.54628,0.81269 -0.92703,1.61165 -1.54854,2.49523 -2.2459,3.1928 -0.74217,0.74045 -1.3374,0.91629 -1.9964,0.58831 z m 5.52233,-5.23452 c 1.12287,-0.4603 2.77364,-0.95097 4.22297,-1.25551 0.48225,-0.10138 0.87712,-0.19783 0.87749,-0.21438 3.2e-4,-0.017 -0.15202,-0.14921 -0.33863,-0.29446 -0.95741,-0.74594 -1.95353,-1.98447 -2.58464,-3.21389 -0.12243,-0.23855 -0.22824,-0.42711 -0.23513,-0.41894 -0.007,0.014 -0.14127,0.35457 -0.29862,0.76989 -0.47871,1.26376 -0.99762,2.38282 -1.86122,4.01353 -0.24058,0.45434 -0.43741,0.83916 -0.43741,0.85541 0,0.0153 0.0263,0.0183 0.0585,0 0.0322,-0.0145 0.30068,-0.12449 0.59669,-0.24578 z"
       id="path6388"
       inkscape:connector-curvature="0"
       sodipodi:nodetypes="ssscssssssscssssscssssssscssssscsssscssssssscsssssscscsscsssccc" />
  </g>
</svg>
