<?xml version="1.0" encoding="UTF-8" standalone="no"?>
<!-- Created with Inkscape (http://www.inkscape.org/) -->

<svg
   xmlns:dc="http://purl.org/dc/elements/1.1/"
   xmlns:cc="http://creativecommons.org/ns#"
   xmlns:rdf="http://www.w3.org/1999/02/22-rdf-syntax-ns#"
   xmlns:svg="http://www.w3.org/2000/svg"
   xmlns="http://www.w3.org/2000/svg"
   xmlns:xlink="http://www.w3.org/1999/xlink"
   xmlns:sodipodi="http://sodipodi.sourceforge.net/DTD/sodipodi-0.dtd"
   xmlns:inkscape="http://www.inkscape.org/namespaces/inkscape"
   width="80.001999"
   height="80.000214"
   id="svg4214"
   version="1.1"
   inkscape:version="0.48.3.1 r9886"
   sodipodi:docname="text.svg"
   inkscape:export-filename="/tmp/moodle-theme_anomalyblackred/pix_core/f/text-32.png"
   inkscape:export-xdpi="35.9991"
   inkscape:export-ydpi="35.9991"
   preserveAspectRatio="xMinYMid meet">
  <defs
     id="defs4216">
    <linearGradient
       id="linearGradient4790">
      <stop
         style="stop-color:#cd0000;stop-opacity:1;"
         offset="0"
         id="stop4792" />
      <stop
         style="stop-color:#ff0000;stop-opacity:1;"
         offset="1"
         id="stop4794" />
    </linearGradient>
    <linearGradient
       id="linearGradient6707-5">
      <stop
         id="stop6709-0"
         offset="0"
         style="stop-color:#000000;stop-opacity:1;" />
      <stop
         id="stop6711-5"
         offset="1"
         style="stop-color:#ffffff;stop-opacity:1;" />
    </linearGradient>
    <linearGradient
       inkscape:collect="always"
       xlink:href="#linearGradient4790"
       id="linearGradient4788"
       x1="25.253813"
       y1="1049.8368"
       x2="25.253813"
       y2="1003.8749"
       gradientUnits="userSpaceOnUse"
       gradientTransform="matrix(1.8104756,0,0,1.7482736,-19.451415,-770.83584)" />
    <linearGradient
       inkscape:collect="always"
       xlink:href="#linearGradient918-1"
       id="linearGradient912"
       x1="462.37933"
       y1="837.0611"
       x2="463.75925"
       y2="835.67212"
       gradientUnits="userSpaceOnUse"
       gradientTransform="matrix(1.8102357,-0.02946975,0.02946975,1.8102357,-812.8496,-500.88944)" />
    <linearGradient
       id="linearGradient918-1">
      <stop
         id="stop920-5"
         offset="0"
         style="stop-color:#f6f6f6;stop-opacity:1" />
      <stop
         id="stop922-7"
         offset="1"
         style="stop-color:#e2e2e2;stop-opacity:1" />
    </linearGradient>
    <linearGradient
       inkscape:collect="always"
       xlink:href="#linearGradient6707"
       id="linearGradient3077"
       gradientUnits="userSpaceOnUse"
       gradientTransform="matrix(1.8114204,0,0,2.6689195,-211.88361,-765.76882)"
       x1="262.01361"
       y1="471.95245"
       x2="262.01361"
       y2="442.7843" />
    <linearGradient
       id="linearGradient6707">
      <stop
         id="stop6709"
         offset="0"
         style="stop-color:#000000;stop-opacity:1;" />
      <stop
         id="stop6711"
         offset="1"
         style="stop-color:#ffffff;stop-opacity:1;" />
    </linearGradient>
    <linearGradient
       inkscape:collect="always"
       xlink:href="#linearGradient6707"
       id="linearGradient3806"
       gradientUnits="userSpaceOnUse"
       gradientTransform="matrix(1.8114204,0,0,2.6689195,-448.9685,-185.20458)"
       x1="262.01361"
       y1="471.95245"
       x2="262.01361"
       y2="442.7843" />
    <linearGradient
       inkscape:collect="always"
       xlink:href="#linearGradient4790"
       id="linearGradient3795"
       gradientUnits="userSpaceOnUse"
       gradientTransform="matrix(1.8104756,0,0,1.7482736,-19.451415,-770.83584)"
       x1="25.253813"
       y1="1049.8368"
       x2="25.253813"
       y2="1003.8749" />
    <linearGradient
       inkscape:collect="always"
       xlink:href="#linearGradient918-1"
       id="linearGradient3797"
       gradientUnits="userSpaceOnUse"
       gradientTransform="matrix(1.8102357,-0.02946975,0.02946975,1.8102357,-812.8496,-500.88944)"
       x1="462.37933"
       y1="837.0611"
       x2="463.75925"
       y2="835.67212" />
    <linearGradient
       inkscape:collect="always"
       xlink:href="#linearGradient6707"
       id="linearGradient3799"
       gradientUnits="userSpaceOnUse"
       gradientTransform="matrix(1.8114204,0,0,2.6689195,-448.9685,-185.20458)"
       x1="262.01361"
       y1="471.95245"
       x2="262.01361"
       y2="442.7843" />
    <linearGradient
       inkscape:collect="always"
       xlink:href="#linearGradient6707"
       id="linearGradient3020"
       gradientUnits="userSpaceOnUse"
       gradientTransform="matrix(1.698152,0,0,2.6689195,-419.41556,-185.20458)"
       x1="262.01361"
       y1="471.95245"
       x2="262.01361"
       y2="442.7843" />
    <linearGradient
       inkscape:collect="always"
       xlink:href="#linearGradient918-1"
       id="linearGradient3023"
       gradientUnits="userSpaceOnUse"
       gradientTransform="matrix(1.6226917,-0.02781917,0.02641663,1.7088458,-724.59467,-416.89522)"
       x1="462.37933"
       y1="837.0611"
       x2="463.75925"
       y2="835.67212" />
    <linearGradient
       inkscape:collect="always"
       xlink:href="#linearGradient918-1"
       id="linearGradient3790"
       gradientUnits="userSpaceOnUse"
       gradientTransform="matrix(1.6226917,-0.02781917,0.02641663,1.7088458,-724.59467,-416.89522)"
       x1="462.37933"
       y1="837.0611"
       x2="463.75925"
       y2="835.67212" />
    <linearGradient
       inkscape:collect="always"
       xlink:href="#linearGradient1069-5"
       id="linearGradient3044"
       gradientUnits="userSpaceOnUse"
       gradientTransform="matrix(1.5984329,0,0,1.7416466,-151.84249,-455.08615)"
       x1="314.34872"
       y1="425.61682"
       x2="314.34872"
       y2="468.35892" />
    <linearGradient
       id="linearGradient1069-5">
      <stop
         style="stop-color:#ffffff;stop-opacity:1"
         offset="0"
         id="stop1071-6" />
      <stop
         style="stop-color:#e6e6e6;stop-opacity:1"
         offset="1"
         id="stop1073-0" />
    </linearGradient>
    <linearGradient
       y2="468.35892"
       x2="314.34872"
       y1="425.61682"
       x1="314.34872"
       gradientTransform="matrix(1.6958125,0,0,1.7244906,-510.04221,254.83137)"
       gradientUnits="userSpaceOnUse"
       id="linearGradient3043"
       xlink:href="#linearGradient1069-5"
       inkscape:collect="always" />
    <linearGradient
       inkscape:collect="always"
       xlink:href="#linearGradient918-1"
       id="linearGradient3038"
       gradientUnits="userSpaceOnUse"
       gradientTransform="matrix(1.6738623,-0.02853947,0.02724966,1.7530916,-749.30463,-453.57139)"
       x1="462.37933"
       y1="837.0611"
       x2="463.75925"
       y2="835.67212" />
  </defs>
  <sodipodi:namedview
     id="base"
     pagecolor="#ffffff"
     bordercolor="#666666"
     borderopacity="1.0"
     inkscape:pageopacity="0.0"
     inkscape:pageshadow="2"
     inkscape:zoom="5.6"
     inkscape:cx="27.088099"
     inkscape:cy="33.075948"
     inkscape:document-units="px"
     inkscape:current-layer="layer1"
     showgrid="true"
     width="0px"
     height="0px"
     fit-margin-top="0"
     fit-margin-left="0.51"
     fit-margin-right="0.51"
     fit-margin-bottom="0"
     inkscape:window-width="1881"
     inkscape:window-height="1029"
     inkscape:window-x="0"
     inkscape:window-y="26"
     inkscape:window-maximized="1">
    <inkscape:grid
       type="xygrid"
       id="grid3016" />
  </sodipodi:namedview>
  <metadata
     id="metadata4219">
    <rdf:RDF>
      <cc:Work
         rdf:about="">
        <dc:format>image/svg+xml</dc:format>
        <dc:type
           rdf:resource="http://purl.org/dc/dcmitype/StillImage" />
        <dc:title></dc:title>
      </cc:Work>
    </rdf:RDF>
  </metadata>
  <g
     inkscape:label="Capa 1"
     inkscape:groupmode="layer"
     id="layer1"
     transform="translate(16.001,-988.36209)">
    <path
       style="opacity:0.7;fill:#000000;fill-opacity:1;stroke:none"
       d="m -10.706304,988.36209 c -1.541983,0 -2.793696,1.48695 -2.793696,3.28149 l 0,73.43722 c 0,1.7946 1.251713,3.2815 2.793696,3.2815 l 69.412608,0 c 1.542,0 2.793696,-1.4869 2.793696,-3.2815 l 0,-57.935 -17.890401,-18.78371 -54.315903,0 z"
       id="rect3922-2"
       inkscape:connector-curvature="0" />
    <path
       style="fill:url(#linearGradient3043);fill-opacity:1;stroke:none"
       d="m -9.598294,989.8923 c -1.482384,0 -2.649706,1.35192 -2.649706,3.01787 l 0,68.22513 c 0,1.666 1.167322,3.018 2.649706,3.018 l 67.196586,0 c 1.48239,0 2.64971,-1.352 2.64971,-3.018 l 0,-53.6748 -17.32909,-17.5682 -52.517206,0 z"
       id="path869-2"
       inkscape:connector-curvature="0" />
    <g
       id="g951"
       transform="matrix(2.0186461,0,0,1.6442993,-685.96477,484.68479)"
       style="fill:#ff0000;fill-opacity:1">
      <rect
         y="311.98218"
         x="342.37354"
         height="8.1405792"
         width="8.1405792"
         id="rect9904"
         style="fill:#ff0000;fill-opacity:1;stroke:none" />
      <rect
         style="fill:#ff0000;fill-opacity:1;stroke:none"
         id="rect934"
         width="18.767199"
         height="0.73148519"
         x="342.14951"
         y="322.651" />
      <rect
         y="326.46051"
         x="342.14951"
         height="0.73148519"
         width="18.767199"
         id="rect936"
         style="fill:#ff0000;fill-opacity:1;stroke:none" />
      <rect
         style="fill:#ff0000;fill-opacity:1;stroke:none"
         id="rect938"
         width="18.767199"
         height="0.73148519"
         x="342.14951"
         y="330.27002" />
      <rect
         y="334.07953"
         x="342.14951"
         height="0.73148519"
         width="18.767199"
         id="rect940"
         style="fill:#ff0000;fill-opacity:1;stroke:none" />
      <rect
         style="fill:#ff0000;fill-opacity:1;stroke:none"
         id="rect942"
         width="7.810369"
         height="0.84608436"
         x="353.16364"
         y="319.55798" />
      <rect
         y="315.62946"
         x="353.16364"
         height="0.84608436"
         width="7.810369"
         id="rect944"
         style="fill:#ff0000;fill-opacity:1;stroke:none" />
      <rect
         style="fill:#ff0000;fill-opacity:1;stroke:none"
         id="rect946"
         width="7.810369"
         height="0.84608436"
         x="353.16364"
         y="311.70087" />
    </g>
    <path
       inkscape:connector-curvature="0"
       style="opacity:0.7;fill:#000000;fill-opacity:1;stroke:none"
       d="m 60.284548,1008.3518 -0.0083,-0.9539 -17.413476,-17.60803 -0.623677,0.0456 0.02657,15.26083 c 0.0032,1.8498 1.310453,3.3293 2.908529,3.302 z"
       id="path914"
       sodipodi:nodetypes="ccccscc" />
    <path
       id="path902"
       d="m 60.238501,1007.3988 -17.382386,-17.56783 0.229917,14.79163 c 0.02633,1.6935 1.199874,3.0483 2.663099,3.0233 l 14.48937,-0.2471 z"
       style="fill:url(#linearGradient3038);fill-opacity:1;stroke:none"
       inkscape:connector-curvature="0" />
    <path
       inkscape:connector-curvature="0"
       style="fill:url(#linearGradient3020);fill-opacity:1;stroke:none"
       d="m -12.301,1044.6554 0,18.0152 c 0,2.5783 1.168922,4.6706 2.6533683,4.6706 l 67.2892747,0 c 1.484473,0 2.653357,-2.0923 2.653357,-4.6706 l 0,-18.0152 -72.596,0 z"
       id="path874" />
    <g
       style="font-size:7.5px;font-style:normal;font-variant:normal;font-weight:bold;font-stretch:normal;line-height:125%;letter-spacing:0px;word-spacing:0px;fill:#ffffff;fill-opacity:1;stroke:none;font-family:Impact;-inkscape-font-specification:Impact Bold"
       id="text872"
       transform="matrix(2.4999308,0,0,2.4999308,-854.48687,197.93181)">
      <path
         inkscape:connector-curvature="0"
         d="m 346.47754,339.93161 1.09131,0 q 1.09131,0 1.47583,0.0842 0.38818,0.0842 0.62988,0.43213 0.24536,0.34424 0.24536,1.10229 0,0.69214 -0.17212,0.93018 -0.17212,0.23804 -0.67749,0.28564 0.45777,0.11353 0.61524,0.30396 0.15747,0.19043 0.19409,0.35156 0.0403,0.15747 0.0403,0.87524 l 0,1.56373 -1.43188,0 0,-1.97022 q 0,-0.47607 -0.0769,-0.5896 -0.0732,-0.11352 -0.39184,-0.11352 l 0,2.67334 -1.54175,0 -3e-5,-5.92893 z m 1.54175,1.0144 0,1.31836 q 0.26001,0 0.36255,-0.0696 0.1062,-0.0732 0.1062,-0.46508 l 0,-0.32593 q 0,-0.28198 -0.10254,-0.36987 -0.0989,-0.0879 -0.36621,-0.0879 z"
         id="path893" />
      <path
         inkscape:connector-curvature="0"
         d="m 353.62598,339.93161 0,1.18652 -0.91553,0 0,4.74244 -1.54175,0 0,-4.74244 -0.91186,0 0,-1.18652 3.36914,0 z"
         id="path895" />
      <path
         inkscape:connector-curvature="0"
         d="m 353.97754,339.93161 2.61108,0 0,1.18652 -1.06933,0 0,1.12427 0.95215,0 0,1.12793 -0.95215,0 0,2.49024 -1.54175,0 0,-5.92896 z"
         id="path897" />
    </g>
  </g>
</svg>
