<?xml version="1.0" encoding="UTF-8" standalone="no"?>
<!-- Generator: Adobe Illustrator 15.1.0, SVG Export Plug-In  -->

<svg
   xmlns:a="http://ns.adobe.com/AdobeSVGViewerExtensions/3.0/"
   xmlns:dc="http://purl.org/dc/elements/1.1/"
   xmlns:cc="http://creativecommons.org/ns#"
   xmlns:rdf="http://www.w3.org/1999/02/22-rdf-syntax-ns#"
   xmlns:svg="http://www.w3.org/2000/svg"
   xmlns="http://www.w3.org/2000/svg"
   xmlns:xlink="http://www.w3.org/1999/xlink"
   xmlns:sodipodi="http://sodipodi.sourceforge.net/DTD/sodipodi-0.dtd"
   xmlns:inkscape="http://www.inkscape.org/namespaces/inkscape"
   version="1.1"
   x="0px"
   y="0px"
   width="24px"
   height="24px"
   viewBox="-0.1 -0.1 24 24"
   style="overflow:visible;enable-background:new -0.1 -0.1 24 24;"
   xml:space="preserve"
   preserveAspectRatio="xMinYMid meet"
   id="svg2"
   inkscape:version="0.48.3.1 r9886"
   sodipodi:docname="icon.svg"
   inkscape:export-filename="/home/christian/Arbeitsfläche/anomalybalckred_red/pix_plugins/mod/chat/icon.png"
   inkscape:export-xdpi="90"
   inkscape:export-ydpi="90"><metadata
   id="metadata56"><rdf:RDF><cc:Work
       rdf:about=""><dc:format>image/svg+xml</dc:format><dc:type
         rdf:resource="http://purl.org/dc/dcmitype/StillImage" /><dc:title></dc:title></cc:Work></rdf:RDF></metadata><sodipodi:namedview
   pagecolor="#ffffff"
   bordercolor="#666666"
   borderopacity="1"
   objecttolerance="10"
   gridtolerance="10"
   guidetolerance="10"
   inkscape:pageopacity="0"
   inkscape:pageshadow="2"
   inkscape:window-width="1920"
   inkscape:window-height="1029"
   id="namedview54"
   showgrid="false"
   inkscape:zoom="9.8333333"
   inkscape:cx="-11.745763"
   inkscape:cy="12"
   inkscape:window-x="0"
   inkscape:window-y="26"
   inkscape:window-maximized="1"
   inkscape:current-layer="svg2" />
<defs
   id="defs4">
<linearGradient
   inkscape:collect="always"
   xlink:href="#SVGID_5_"
   id="linearGradient3808"
   gradientUnits="userSpaceOnUse"
   x1="14.1436"
   y1="7.667"
   x2="14.1436"
   y2="22.1943" /></defs>
<linearGradient
   id="SVGID_1_"
   gradientUnits="userSpaceOnUse"
   x1="10.9429"
   y1="0"
   x2="10.9429"
   y2="19.7881">
	<stop
   offset="0"
   style="stop-color:#76A1F0"
   id="stop7" />
	<stop
   offset="1"
   style="stop-color:#6B90D5"
   id="stop9" />
	<a:midPointStop
   offset="0"
   style="stop-color:#76A1F0" />
	<a:midPointStop
   offset="0.5"
   style="stop-color:#76A1F0" />
	<a:midPointStop
   offset="1"
   style="stop-color:#6B90D5" />
</linearGradient>
<path
   style="fill:#000000;fill-opacity:1"
   d="M10.8,0C4.7,0.1-0.1,4.3,0,9.3c0,2.6,1.5,5,3.7,6.6c0,0.1,0,0.2,0.1,0.3  c0.3,2-0.9,3.6-0.9,3.6s2.2-0.5,3.5-1.5c0.2-0.2,0.5-0.4,0.7-0.7c1.3,0.4,2.6,0.6,4.1,0.6c6-0.1,10.9-4.3,10.8-9.3  C21.8,3.9,16.8-0.1,10.8,0z"
   id="path11" />
<linearGradient
   id="SVGID_2_"
   gradientUnits="userSpaceOnUse"
   x1="10.9434"
   y1="1"
   x2="10.9434"
   y2="18.1289">
	<stop
   offset="0"
   style="stop-color:#f5f5f5;stop-opacity:1;"
   id="stop14" />
	<stop
   offset="1"
   style="stop-color:#c8c8c8;stop-opacity:1;"
   id="stop16" />
	<a:midPointStop
   offset="0"
   style="stop-color:#BBE0F7" />
	<a:midPointStop
   offset="0.5"
   style="stop-color:#BBE0F7" />
	<a:midPointStop
   offset="1"
   style="stop-color:#82B4FB" />
</linearGradient>
<path
   style="fill:#000000;stroke:none;stroke-opacity:1;fill-opacity:1"
   d="M4.6,18.1c0.1-0.6,0.2-1.3,0.1-2.1c0-0.1,0-0.2-0.1-0.3l-0.1-0.4l-0.3-0.3  C2.2,13.6,1,11.5,1,9.3C0.9,4.8,5.3,1.1,10.8,1L11,1c5.4,0,9.8,3.5,9.9,7.9c0.1,4.5-4.3,8.2-9.8,8.3l-0.2,0c-1.2,0-2.4-0.2-3.5-0.5  l-0.6-0.2l-0.4,0.5c-0.2,0.2-0.4,0.4-0.5,0.6C5.4,17.7,5,17.9,4.6,18.1z"
   id="path18" />
<linearGradient
   id="SVGID_3_"
   gradientUnits="userSpaceOnUse"
   x1="10.9434"
   y1="2"
   x2="10.9434"
   y2="16.1631">
	<stop
   offset="0"
   style="stop-color:#ffffff;stop-opacity:1;"
   id="stop21" />
	<stop
   offset="0.55690002"
   style="stop-color:#ffffff;stop-opacity:1;"
   id="stop23" />
	<stop
   offset="1"
   style="stop-color:#c8c8c8;stop-opacity:1;"
   id="stop25" />
	<a:midPointStop
   offset="0"
   style="stop-color:#95BFF8" />
	<a:midPointStop
   offset="0.4"
   style="stop-color:#95BFF8" />
	<a:midPointStop
   offset="1"
   style="stop-color:#7CA4EB" />
</linearGradient>


<linearGradient
   id="SVGID_4_"
   gradientUnits="userSpaceOnUse"
   x1="14.0254"
   y1="6.667"
   x2="14.0254"
   y2="23.8398">
	<stop
   offset="0"
   style="stop-color:#F0A829"
   id="stop32" />
	<stop
   offset="1"
   style="stop-color:#C7671A"
   id="stop34" />
	<a:midPointStop
   offset="0"
   style="stop-color:#F0A829" />
	<a:midPointStop
   offset="0.5"
   style="stop-color:#F0A829" />
	<a:midPointStop
   offset="1"
   style="stop-color:#C7671A" />
</linearGradient>

<linearGradient
   id="SVGID_5_"
   gradientUnits="userSpaceOnUse"
   x1="14.1436"
   y1="7.667"
   x2="14.1436"
   y2="22.1943">
	<stop
   offset="0"
   style="stop-color:#ff0000;stop-opacity:1;"
   id="stop39" />
	<stop
   offset="1"
   style="stop-color:#ff0000;stop-opacity:1;"
   id="stop41" />
	<a:midPointStop
   offset="0"
   style="stop-color:#FFEBA8" />
	<a:midPointStop
   offset="0.5"
   style="stop-color:#FFEBA8" />
	<a:midPointStop
   offset="1"
   style="stop-color:#F8BE27" />
</linearGradient>

<linearGradient
   id="SVGID_6_"
   gradientUnits="userSpaceOnUse"
   x1="14.0234"
   y1="8.6689"
   x2="14.0234"
   y2="20.5176">
	<stop
   offset="0"
   style="stop-color:#FFC30F"
   id="stop46" />
	<stop
   offset="1"
   style="stop-color:#F5AE0D"
   id="stop48" />
	<a:midPointStop
   offset="0"
   style="stop-color:#FFC30F" />
	<a:midPointStop
   offset="0.5"
   style="stop-color:#FFC30F" />
	<a:midPointStop
   offset="1"
   style="stop-color:#F5AE0D" />
</linearGradient>

<g
   id="g3801"
   transform="matrix(0.92178571,0,0,0.96089119,2.1119492,0.64917018)"><path
     id="path29"
     d="m 16.6,9.6 c 0,0.7 -0.6,1.3 -1.2,1.3 -0.7,0 -1.3,-0.6 -1.3,-1.3 0,-0.7 0.6,-1.2 1.3,-1.2 0.6,0 1.2,0.5 1.2,1.2 z M 11.5,8.4 c -0.7,0 -1.2,0.6 -1.2,1.2 0,0.7 0.6,1.3 1.2,1.3 0.7,0 1.3,-0.6 1.3,-1.3 C 12.7,8.9 12.2,8.4 11.5,8.4 z m -4,0 C 6.8,8.4 6.2,9 6.2,9.6 c 0,0.7 0.6,1.3 1.3,1.3 0.7,0 1.3,-0.6 1.3,-1.3 C 8.8,8.9 8.2,8.4 7.5,8.4 z"
     style="fill:#ffffff"
     inkscape:connector-curvature="0" /><path
     id="path36"
     d="m 20.7,20.5 c 1.9,-1.4 3.2,-3.4 3.2,-5.7 0.1,-4.4 -4.3,-8 -9.8,-8.1 -5.4,-0.1 -9.9,3.3 -10,7.7 -0.1,4.4 4.3,8 9.8,8.1 1.4,0 2.7,-0.2 3.9,-0.5 1,1.3 3.7,1.9 3.7,1.9 0,0 -1.2,-1.7 -0.8,-3.4 z"
     style="fill:#ff0000;fill-opacity:1;stroke:#ffffff;stroke-opacity:1"
     inkscape:connector-curvature="0" /><path
     id="path43"
     d="m 19.9,22.2 c -0.5,-0.2 -1,-0.5 -1.7,-1.4 -0.4,0.1 -1.7,0.7 -4.2,0.7 -5,0 -8.9,-3.3 -8.8,-7.1 0.1,-3.7 4,-6.8 9,-6.8 2.3,0 4.7,0.8 6.3,2.2 1.6,1.3 2.5,3.1 2.4,4.9 0,1.9 -1,3.7 -3.1,5.1 -0.1,0.9 -0.1,1.8 0.1,2.4 z"
     style="fill:url(#linearGradient3808)"
     inkscape:connector-curvature="0" /><path
     id="path50"
     d="M 13.9,20.5 C 7.8,20.3 6,16.3 6.1,14.4 c 0.2,-3.2 3.3,-5.8 8,-5.8 2.1,0 4.3,0.8 5.7,2 1.4,1.1 2.1,2.6 2.1,4.1 -0.1,2.9 -2.9,4.5 -2.9,4.5 0,0 -0.2,0.7 -0.2,0.9 l -0.4,-0.5 c 0,0 -1.9,1 -4.5,0.9 z"
     style="fill:#ff0000;fill-opacity:1"
     inkscape:connector-curvature="0" /><path
     id="path52"
     d="m 19.4,14.9 c 0,0.7 -0.6,1.3 -1.2,1.3 -0.7,0 -1.3,-0.6 -1.3,-1.3 0,-0.7 0.6,-1.2 1.3,-1.2 0.6,0 1.2,0.5 1.2,1.2 z m -5.1,-1.2 c -0.7,0 -1.2,0.6 -1.2,1.2 0,0.7 0.6,1.3 1.2,1.3 0.7,0 1.3,-0.6 1.3,-1.3 -0.1,-0.7 -0.6,-1.2 -1.3,-1.2 z m -4,0 c -0.7,0 -1.3,0.6 -1.3,1.2 0,0.7 0.6,1.3 1.3,1.3 0.7,0 1.3,-0.6 1.3,-1.3 0,-0.7 -0.6,-1.2 -1.3,-1.2 z"
     style="fill:#ffffff"
     inkscape:connector-curvature="0" /></g>
</svg>