<?xml version="1.0" encoding="UTF-8" standalone="no"?>
<svg
   xmlns:dc="http://purl.org/dc/elements/1.1/"
   xmlns:cc="http://creativecommons.org/ns#"
   xmlns:rdf="http://www.w3.org/1999/02/22-rdf-syntax-ns#"
   xmlns:svg="http://www.w3.org/2000/svg"
   xmlns="http://www.w3.org/2000/svg"
   xmlns:xlink="http://www.w3.org/1999/xlink"
   xmlns:sodipodi="http://sodipodi.sourceforge.net/DTD/sodipodi-0.dtd"
   xmlns:inkscape="http://www.inkscape.org/namespaces/inkscape"
   id="Layer_1"
   version="1.1"
   x="0px"
   y="0px"
   width="23.989"
   height="24"
   viewBox="0 0 23.989 24"
   enable-background="new 0 0 100 100"
   xml:space="preserve"
   inkscape:version="0.48.3.1 r9886"
   sodipodi:docname="icon.svg"
   inkscape:export-filename="/home/christian/Dokumente/ownCloud/eLearning/Moodle/moodle-theme_anomalyblackred/pix_plugins/mod/glossary/icon.png"
   inkscape:export-xdpi="90"
   inkscape:export-ydpi="90" preserveAspectRatio="xMinYMid meet"><metadata
   id="metadata22"><rdf:RDF><cc:Work
       rdf:about=""><dc:format>image/svg+xml</dc:format><dc:type
         rdf:resource="http://purl.org/dc/dcmitype/StillImage" /><dc:title /></cc:Work></rdf:RDF></metadata><sodipodi:namedview
   pagecolor="#ffffff"
   bordercolor="#666666"
   borderopacity="1"
   objecttolerance="10"
   gridtolerance="10"
   guidetolerance="10"
   inkscape:pageopacity="0"
   inkscape:pageshadow="2"
   inkscape:window-width="1920"
   inkscape:window-height="1029"
   id="namedview20"
   showgrid="false"
   fit-margin-top="0"
   fit-margin-left="1.26"
   fit-margin-right="1.26"
   fit-margin-bottom="0"
   inkscape:zoom="1.668772"
   inkscape:cx="-9.3267648"
   inkscape:cy="8.1905873"
   inkscape:window-x="0"
   inkscape:window-y="26"
   inkscape:window-maximized="1"
   inkscape:current-layer="g3795" />
    <defs
   id="defs3">
		<path
   id="label"
   d="m 0,0 h 2 q 5,0 5,5 v 3.2 q 0,5 -5,5 H 0 z"
   inkscape:connector-curvature="0" />
	</defs>
	
	
	
	
	
	
	
<flowRoot
   xml:space="preserve"
   id="flowRoot3003"
   style="font-size:40px;font-style:normal;font-weight:normal;line-height:125%;letter-spacing:0px;word-spacing:0px;fill:#000000;fill-opacity:1;stroke:none;font-family:Sans"
   transform="translate(-37.755499,-38.000001)"><flowRegion
     id="flowRegion3005"><rect
       id="rect3007"
       width="38.135593"
       height="44.915253"
       x="31.779661"
       y="31.779661" /></flowRegion><flowPara
     id="flowPara3009">Aaaa</flowPara></flowRoot><flowRoot
   xml:space="preserve"
   id="flowRoot3011"
   style="font-size:40px;font-style:normal;font-weight:normal;line-height:125%;letter-spacing:0px;word-spacing:0px;fill:#000000;fill-opacity:1;stroke:none;font-family:Sans"
   transform="translate(-37.755499,-38.000001)"><flowRegion
     id="flowRegion3013"><rect
       id="rect3015"
       width="84.745766"
       height="63.135593"
       x="28.38983"
       y="23.305084" /></flowRegion><flowPara
     id="flowPara3017" /></flowRoot><g
   id="g3795"
   transform="matrix(0.31250365,0,0,0.31250365,-3.5525562,-3.6251824)"><path
   style="fill:#000000;fill-opacity:1"
   id="path6"
   d="m 15.4,16.400392 q 0,-4.799944 3.999953,-4.799944 h 2.399972 V 88.399552 H 19.399953 Q 15.4,88.399552 15.4,83.599608 z"
   inkscape:connector-curvature="0" /><path
   style="fill:#ff0000;fill-opacity:1"
   id="path8"
   d="m 25.4,11.600448 h 44.711477 q 4.967943,0 4.967943,4.799944 v 67.199216 q 0,4.799944 -4.967943,4.799944 H 25.4 z"
   inkscape:connector-curvature="0" /><use
   style="fill:#000000;fill-opacity:1;stroke:#000000;stroke-opacity:1"
   id="use10"
   y="15"
   x="77.099998"
   xlink:href="#label"
   width="100"
   height="100"
   transform="matrix(1,0,0,0.83877808,0.372876,5.4187021)" /><use
   style="fill:#ff0000;fill-opacity:1;stroke:none;stroke-opacity:1"
   id="use12"
   y="29.200001"
   x="77.099998"
   xlink:href="#label"
   width="100"
   height="100"
   transform="matrix(1,0,0,0.83877808,0.372876,7.1398944)" /><use
   style="fill:#000000;fill-opacity:1;stroke:#000000;stroke-opacity:1"
   id="use14"
   y="43.400002"
   x="77.099998"
   xlink:href="#label"
   width="100"
   height="100"
   transform="matrix(1,0,0,0.83877808,0.372876,8.8610866)" /><use
   style="fill:#ff0000;fill-opacity:1;stroke:none;stroke-opacity:1"
   id="use16"
   y="57.599998"
   x="77.099998"
   xlink:href="#label"
   width="100"
   height="100"
   transform="matrix(1,0,0,0.83877808,0.372876,10.582278)" /><use
   style="fill:#000000;fill-opacity:1;stroke:#000000;stroke-opacity:1"
   id="use18"
   y="71.800003"
   x="77.099998"
   xlink:href="#label"
   width="100"
   height="100"
   transform="matrix(1,0,0,0.83877808,0.372876,12.303471)" /><g
   transform="scale(1.0229604,0.97755492)"
   style="font-size:33.65171051000000091px;font-style:normal;font-variant:normal;font-weight:bold;font-stretch:normal;line-height:125%;letter-spacing:0px;word-spacing:0px;fill:#ffffff;fill-opacity:1;stroke:none;font-family:Ubuntu Mono;-inkscape-font-specification:Ubuntu Mono Bold"
   id="text2999"><path
     d="m 44.015445,59.276997 -1.17108,-5.774634 -6.663039,0 -1.130697,5.774634 -5.168903,0 c 1.184539,-4.926606 2.382539,-9.409009 3.594003,-13.447224 1.211456,-4.065109 2.382535,-7.914861 3.513239,-11.549267 l 5.411195,0 c 1.184526,3.661327 2.355604,7.551461 3.513238,11.670413 1.184523,4.092057 2.32868,8.534079 3.432475,13.326078 l -5.330431,0 M 39.573419,39.126352 c -0.269224,0.942267 -0.524976,1.844132 -0.767259,2.705598 -0.21538,0.834579 -0.430751,1.66914 -0.646113,2.503687 -0.188458,0.807655 -0.376907,1.628756 -0.565349,2.463305 -0.161536,0.834574 -0.323064,1.696057 -0.484584,2.584452 l 4.886228,0 c -0.16154,-0.888395 -0.323068,-1.749878 -0.484584,-2.584452 -0.161541,-0.834549 -0.34999,-1.65565 -0.565349,-2.463305 -0.188461,-0.834547 -0.403832,-1.669108 -0.646113,-2.503687 -0.215382,-0.861466 -0.457674,-1.763331 -0.726877,-2.705598"
     style="font-size:40.38205338000000211px;fill:#ffffff;fill-opacity:1"
     id="path3779" /><path
     d="m 59.84521,55.723376 c 0.538416,3e-6 1.063383,3e-6 1.5749,0 0.511494,-0.02692 0.955696,-0.0673 1.332608,-0.121146 l 0,-4.361262 c -0.32307,-0.05383 -0.713429,-0.09422 -1.17108,-0.121146 -0.457675,-0.05383 -0.874955,-0.08076 -1.251844,-0.08076 -0.511516,8e-6 -1.009561,0.04039 -1.494136,0.121146 -0.484593,0.05385 -0.915334,0.161536 -1.292225,0.323056 -0.349986,0.161536 -0.63266,0.390368 -0.848023,0.686495 -0.215378,0.296142 -0.323064,0.686502 -0.323057,1.17108 -7e-6,0.861489 0.32305,1.48068 0.969169,1.857574 0.646105,0.349982 1.480667,0.52497 2.503688,0.524967 M 59.401007,39.812847 c 1.561428,1.9e-5 2.853653,0.188469 3.876677,0.565349 1.049919,0.349996 1.884481,0.861501 2.503688,1.534518 0.619174,0.646129 1.063377,1.453769 1.332607,2.422923 0.269196,0.942262 0.403803,2.005655 0.403821,3.190182 l 0,11.306975 c -0.726894,0.161529 -1.803748,0.349978 -3.230564,0.565349 -1.426846,0.21537 -3.028666,0.323056 -4.805465,0.323056 -1.21147,0 -2.315245,-0.107686 -3.311328,-0.323056 -0.969175,-0.215371 -1.803736,-0.565349 -2.503687,-1.049934 -0.699959,-0.511504 -1.238386,-1.157616 -1.615283,-1.938338 -0.376901,-0.807638 -0.56535,-1.790267 -0.565348,-2.94789 -2e-6,-1.103769 0.215369,-2.032556 0.646113,-2.786362 0.430739,-0.753789 1.009547,-1.359519 1.736428,-1.817192 0.726872,-0.457653 1.561434,-0.780709 2.503687,-0.969169 0.94224,-0.21536 1.924869,-0.323045 2.94789,-0.323057 1.292215,1.2e-5 2.436372,0.107697 3.432475,0.323057 l 0,-0.605731 c -1.3e-5,-0.942235 -0.296148,-1.722954 -0.888406,-2.342159 -0.592281,-0.646098 -1.615292,-0.969154 -3.069036,-0.96917 -0.942256,1.6e-5 -1.857581,0.06732 -2.745979,0.201911 -0.86149,0.134621 -1.561444,0.29615 -2.099867,0.484584 L 53.262935,40.66087 c 0.619187,-0.215352 1.494131,-0.403802 2.624834,-0.565349 1.13069,-0.18843 2.301768,-0.282655 3.513238,-0.282674"
     style="font-size:40.38205338000000211px;fill:#ffffff;fill-opacity:1"
     id="path3781" /></g>
</g></svg>