<?xml version="1.0" encoding="UTF-8" standalone="no"?>
<svg
   xmlns:a="http://ns.adobe.com/AdobeSVGViewerExtensions/3.0/"
   xmlns:dc="http://purl.org/dc/elements/1.1/"
   xmlns:cc="http://creativecommons.org/ns#"
   xmlns:rdf="http://www.w3.org/1999/02/22-rdf-syntax-ns#"
   xmlns:svg="http://www.w3.org/2000/svg"
   xmlns="http://www.w3.org/2000/svg"
   xmlns:sodipodi="http://sodipodi.sourceforge.net/DTD/sodipodi-0.dtd"
   xmlns:inkscape="http://www.inkscape.org/namespaces/inkscape"
   version="1.1"
   id="Layer_1"
   x="0px"
   y="0px"
   width="24.000429"
   height="23.999916"
   viewBox="0 0 24.00043 23.999915"
   enable-background="new 0 0 72.223 100"
   xml:space="preserve"
   inkscape:version="0.48.3.1 r9886"
   sodipodi:docname="icon.svg" preserveAspectRatio="xMinYMid meet"><metadata
   id="metadata21"><rdf:RDF><cc:Work
       rdf:about=""><dc:format>image/svg+xml</dc:format><dc:type
         rdf:resource="http://purl.org/dc/dcmitype/StillImage" /><dc:title /></cc:Work></rdf:RDF></metadata><defs
   id="defs19" /><sodipodi:namedview
   pagecolor="#ffffff"
   bordercolor="#666666"
   borderopacity="1"
   objecttolerance="10"
   gridtolerance="10"
   guidetolerance="10"
   inkscape:pageopacity="0"
   inkscape:pageshadow="2"
   inkscape:window-width="1920"
   inkscape:window-height="1029"
   id="namedview17"
   showgrid="true"
   fit-margin-top="0"
   fit-margin-left="1.2"
   fit-margin-right="1.2"
   fit-margin-bottom="0"
   inkscape:zoom="18.88"
   inkscape:cx="21.093539"
   inkscape:cy="4.9406961"
   inkscape:window-x="0"
   inkscape:window-y="26"
   inkscape:window-maximized="1"
   inkscape:current-layer="Layer_1"><inkscape:grid
     type="xygrid"
     id="grid3766"
     empspacing="5"
     visible="true"
     enabled="true"
     snapvisiblegridlinesonly="true"
     originx="-0.45849794px"
     originy="-1.0000031px" /></sodipodi:namedview>







<circle
   d="m 41.667,45.833 c 0,3.068494 -2.487506,5.556 -5.556,5.556 -3.068494,0 -5.556,-2.487506 -5.556,-5.556 0,-3.068494 2.487506,-5.556 5.556,-5.556 3.068494,0 5.556,2.487506 5.556,5.556 z"
   cx="36.111"
   cy="45.833"
   r="5.5560002"
   id="circle3"
   style="fill:#000000;fill-opacity:1"
   sodipodi:cx="36.111"
   sodipodi:cy="45.833"
   sodipodi:rx="5.5560002"
   sodipodi:ry="5.5560002"
   transform="matrix(0.31878249,0,0,0.22631903,0.53204651,0.82465847)" /><circle
   d="m 14.584,52.083 c 0,2.684656 -2.176344,4.861 -4.8610004,4.861 -2.6846562,0 -4.8610001,-2.176344 -4.8610001,-4.861 0,-2.684656 2.1763439,-4.861 4.8610001,-4.861 2.6846564,0 4.8610004,2.176344 4.8610004,4.861 z"
   cx="9.7229996"
   cy="52.083"
   r="4.8610001"
   id="circle5"
   style="fill:#000000;fill-opacity:1"
   sodipodi:cx="9.7229996"
   sodipodi:cy="52.083"
   sodipodi:rx="4.8610001"
   sodipodi:ry="4.8610001"
   transform="matrix(0.31878249,0,0.04355063,0.22631903,-1.5737599,0.82465847)" /><path
   d="M 14.257545,13.083682 H 9.8299757 c -0.7335188,0 -1.328367,0.444671 -1.328367,0.992471 v 3.308 c 0,0.548276 0.5945294,0.992472 1.328367,0.992472 l 0.4427883,5.62329 h 3.541992 l 0.442789,-5.623529 c 0.733838,0 1.328367,-0.444194 1.328367,-0.992472 v -3.308 c 0,-0.547801 -0.595166,-0.992232 -1.328367,-0.992232 z"
   id="path9"
   style="fill:#000000;fill-opacity:1"
   inkscape:connector-curvature="0" /><path
   d="M 5.8975306,14.340884 H 2.3555385 c -0.641709,0 -1.2345588,0.516549 -1.1468913,0.999284 l 0.5141589,2.831187 c 0.08771,0.482975 0.6790393,0.874344 1.321067,0.874344 l 1.2870331,4.954216 H 7.4304285 L 6.9179929,19.045459 c 0.6420279,0 1.0912062,-0.391369 1.0034955,-0.874344 L 7.4073727,15.340168 C 7.3193879,14.857433 6.5392399,14.340884 5.8975306,14.340884 z"
   id="path13"
   style="fill:#000000;fill-opacity:1"
   inkscape:connector-curvature="0" /><circle
   transform="matrix(0.31878249,0,0.04355063,0.22631903,-1.5737599,0.82465847)"
   sodipodi:ry="4.8610001"
   sodipodi:rx="4.8610001"
   sodipodi:cy="52.083"
   sodipodi:cx="9.7229996"
   style="fill:#000000;fill-opacity:1"
   id="circle2997"
   r="4.8610001"
   cy="52.083"
   cx="9.7229996"
   d="m 14.584,52.083 c 0,2.684656 -2.176344,4.861 -4.8610004,4.861 -2.6846562,0 -4.8610001,-2.176344 -4.8610001,-4.861 0,-2.684656 2.1763439,-4.861 4.8610001,-4.861 2.6846564,0 4.8610004,2.176344 4.8610004,4.861 z" /><circle
   transform="matrix(-0.31878249,0,-0.04355063,0.22631903,25.57419,0.82465847)"
   sodipodi:ry="4.8610001"
   sodipodi:rx="4.8610001"
   sodipodi:cy="52.083"
   sodipodi:cx="9.7229996"
   style="fill:#000000;fill-opacity:1"
   id="circle3001"
   r="4.8610001"
   cy="52.083"
   cx="9.7229996"
   d="m 14.584,52.083 c 0,2.684656 -2.176344,4.861 -4.8610004,4.861 -2.6846562,0 -4.8610001,-2.176344 -4.8610001,-4.861 0,-2.684656 2.1763439,-4.861 4.8610001,-4.861 2.6846564,0 4.8610004,2.176344 4.8610004,4.861 z" /><path
   inkscape:connector-curvature="0"
   style="fill:#000000;fill-opacity:1"
   id="path3003"
   d="m 18.1029,14.340884 h 3.541992 c 0.641709,0 1.234559,0.487491 1.146891,0.943071 l -0.514159,2.671923 c -0.08771,0.455806 -0.679039,0.825159 -1.321067,0.825159 l -1.287033,4.675525 h -3.099522 l 0.512435,-4.675751 c -0.642028,0 -1.091205,-0.369353 -1.003495,-0.825159 l 0.514115,-2.671697 c 0.08799,-0.45558 0.868133,-0.943071 1.509843,-0.943071 z" /><circle
   d="m 14.584,52.083 c 0,2.684656 -2.176344,4.861 -4.8610004,4.861 -2.6846562,0 -4.8610001,-2.176344 -4.8610001,-4.861 0,-2.684656 2.1763439,-4.861 4.8610001,-4.861 2.6846564,0 4.8610004,2.176344 4.8610004,4.861 z"
   cx="9.7229996"
   cy="52.083"
   r="4.8610001"
   id="circle3005"
   style="fill:#000000;fill-opacity:1"
   sodipodi:cx="9.7229996"
   sodipodi:cy="52.083"
   sodipodi:rx="4.8610001"
   sodipodi:ry="4.8610001"
   transform="matrix(-0.31878249,0,-0.04355063,0.22631903,25.57419,0.82465847)" /><path
   d="m 18.1029,14.340884 h 3.541992 c 0.641709,0 1.234559,0.516549 1.146891,0.999284 l -0.514159,2.831187 c -0.08771,0.482975 -0.679039,0.874344 -1.321067,0.874344 l -1.287033,4.954216 h -3.099522 l 0.512435,-4.954456 c -0.642028,0 -1.091205,-0.391369 -1.003495,-0.874344 l 0.514115,-2.830947 c 0.08799,-0.482735 0.868133,-0.999284 1.509843,-0.999284 z"
   id="path3007"
   style="fill:#000000;fill-opacity:1"
   inkscape:connector-curvature="0" /><g
   transform="matrix(0.41838927,0,0,0.40908707,8.1,-0.77726621)"
   id="g53"
   style="fill:#ff0000;fill-opacity:1;stroke:none;overflow:visible"><linearGradient
     id="SVGID_6_"
     gradientUnits="userSpaceOnUse"
     x1="11.8569"
     y1="1.8521"
     x2="11.8569"
     y2="23.9487"><stop
       offset="0"
       style="stop-color:#DB6D17"
       id="stop56" /><stop
       offset="1"
       style="stop-color:#BF3B08"
       id="stop58" /><a:midPointStop
       offset="0"
       style="stop-color:#DB6D17" /><a:midPointStop
       offset="0.5"
       style="stop-color:#DB6D17" /><a:midPointStop
       offset="1"
       style="stop-color:#BF3B08" /></linearGradient><polygon
     style="fill:#ff0000;fill-opacity:1;stroke:none"
     points="8.8,23.9 23.7,1.9 8,16.9 3.2,11.9 0,15.1 "
     id="polygon60" /></g></svg>