<?xml version="1.0" encoding="UTF-8" standalone="no"?>
<svg
   xmlns:dc="http://purl.org/dc/elements/1.1/"
   xmlns:cc="http://creativecommons.org/ns#"
   xmlns:rdf="http://www.w3.org/1999/02/22-rdf-syntax-ns#"
   xmlns:svg="http://www.w3.org/2000/svg"
   xmlns="http://www.w3.org/2000/svg"
   xmlns:sodipodi="http://sodipodi.sourceforge.net/DTD/sodipodi-0.dtd"
   xmlns:inkscape="http://www.inkscape.org/namespaces/inkscape"
   version="1.1"
   id="Download"
   x="0px"
   y="0px"
   width="15.589567"
   height="16"
   viewBox="0 0 15.589567 16"
   enable-background="new 0 0 100 100"
   xml:space="preserve"
   inkscape:version="0.48.3.1 r9886"
   sodipodi:docname="download_all.svg"
   inkscape:export-filename="/home/christian/Arbeitsfläche/anomaly_red/pix_core/a/download_all.png"
   inkscape:export-xdpi="90"
   inkscape:export-ydpi="90"
   preserveAspectRatio="xMinYMid meet"><metadata
   id="metadata9"><rdf:RDF><cc:Work
       rdf:about=""><dc:format>image/svg+xml</dc:format><dc:type
         rdf:resource="http://purl.org/dc/dcmitype/StillImage" /><dc:title /></cc:Work></rdf:RDF></metadata><defs
   id="defs7" /><sodipodi:namedview
   pagecolor="#ffffff"
   bordercolor="#666666"
   borderopacity="1"
   objecttolerance="10"
   gridtolerance="10"
   guidetolerance="10"
   inkscape:pageopacity="0"
   inkscape:pageshadow="2"
   inkscape:window-width="938"
   inkscape:window-height="1028"
   id="namedview5"
   showgrid="false"
   fit-margin-top="0"
   fit-margin-left="0.5"
   fit-margin-right="0.5"
   fit-margin-bottom="0"
   inkscape:zoom="2.36"
   inkscape:cx="-117.25981"
   inkscape:cy="11.458972"
   inkscape:window-x="940"
   inkscape:window-y="26"
   inkscape:window-maximized="0"
   inkscape:current-layer="Download" />

<g
   id="g2986"
   style="fill:#999999;fill-opacity:1"
   transform="matrix(0.16121069,0,0,0.16121069,-0.26591208,-0.12106923)"><path
     d="M 52.669,99.454 C 51.83,99.815 50.927,100 49.961,100 48.995,100 48.106,99.815 47.294,99.454 46.378,98.987 45.59,98.44 44.931,97.817 L 22.06,74.449 C 21.449,73.826 20.941,73.046 20.536,72.112 20.178,71.229 20,70.281 20,69.268 c 0,-1.01 0.178,-1.946 0.535,-2.804 0.354,-0.857 0.863,-1.623 1.524,-2.296 0.762,-0.729 1.549,-1.275 2.363,-1.637 0.812,-0.364 1.701,-0.545 2.668,-0.545 1.017,0 1.931,0.181 2.744,0.545 0.915,0.416 1.701,0.96 2.364,1.637 L 42.871,74.993 V 37.245 c 0,-0.986 0.176,-1.908 0.533,-2.766 0.354,-0.856 0.864,-1.636 1.525,-2.336 0.659,-0.702 1.447,-1.262 2.363,-1.676 0.813,-0.31 1.703,-0.467 2.669,-0.467 0.966,0 1.855,0.157 2.67,0.468 0.915,0.414 1.701,0.974 2.363,1.676 0.661,0.7 1.183,1.479 1.562,2.336 0.383,0.857 0.573,1.779 0.573,2.766 V 74.994 L 67.726,64.169 c 0.66,-0.677 1.449,-1.221 2.364,-1.637 0.863,-0.364 1.779,-0.545 2.743,-0.545 0.965,0 1.855,0.181 2.669,0.545 0.864,0.361 1.65,0.907 2.365,1.637 0.657,0.673 1.179,1.438 1.562,2.296 0.379,0.856 0.571,1.793 0.571,2.803 0,1.014 -0.179,1.961 -0.535,2.845 -0.457,0.934 -0.99,1.714 -1.598,2.337 L 54.994,97.817 c -0.713,0.727 -1.486,1.273 -2.325,1.637 z"
     id="Arrow"
     style="fill:#999999;fill-opacity:1"
     inkscape:connector-curvature="0" /><path
     d="m 87.016,31.02 c -1.181,-4.091 -4.487,-7.272 -8.65,-8.285 0.049,-0.434 0.078,-0.875 0.078,-1.322 0,-6.603 -5.355,-11.955 -11.96,-11.955 -1.373,0 -2.686,0.241 -3.913,0.668 -3.8,-5.655 -10.253,-9.375 -17.58,-9.375 -10.978,0 -20.002,8.355 -21.063,19.053 -0.036,-10e-4 -0.071,-0.005 -0.106,-0.005 -6.458,0 -11.707,5.12 -11.937,11.52 -4.14,1.35 -7.134,5.12 -7.134,9.709 0,5.711 4.63,10.223 10.344,10.223 H 38.373 V 37.245 c 0,-1.584 0.296,-3.097 0.88,-4.497 0.559,-1.35 1.37,-2.597 2.408,-3.695 1.056,-1.124 2.331,-2.03 3.781,-2.686 l 0.245,-0.102 c 2.65,-1.015 5.89,-1.016 8.549,-0.002 l 0.252,0.105 c 1.441,0.652 2.714,1.557 3.78,2.687 1.01,1.068 1.819,2.282 2.404,3.604 0.634,1.419 0.958,2.967 0.958,4.586 V 51.25 h 23.278 c 5.712,0 10.343,-4.512 10.343,-10.223 C 95.25,36.038 91.717,31.994 87.016,31.02 z"
     id="Cloud"
     style="fill:#999999;fill-opacity:1"
     inkscape:connector-curvature="0" /></g>
</svg>