<?xml version="1.0" encoding="UTF-8" standalone="no"?>
<svg
   xmlns:dc="http://purl.org/dc/elements/1.1/"
   xmlns:cc="http://creativecommons.org/ns#"
   xmlns:rdf="http://www.w3.org/1999/02/22-rdf-syntax-ns#"
   xmlns:svg="http://www.w3.org/2000/svg"
   xmlns="http://www.w3.org/2000/svg"
   xmlns:sodipodi="http://sodipodi.sourceforge.net/DTD/sodipodi-0.dtd"
   xmlns:inkscape="http://www.inkscape.org/namespaces/inkscape"
   version="1.1"
   id="Layer_1"
   x="0px"
   y="0px"
   width="15.999977"
   height="15.988"
   viewBox="0 0 15.999977 15.988001"
   enable-background="new 0 0 100 100"
   xml:space="preserve"
   inkscape:version="0.48.3.1 r9886"
   sodipodi:docname="logout.svg"
   preserveAspectRatio="xMinYMid meet"><metadata
   id="metadata15"><rdf:RDF><cc:Work
       rdf:about=""><dc:format>image/svg+xml</dc:format><dc:type
         rdf:resource="http://purl.org/dc/dcmitype/StillImage" /><dc:title /></cc:Work></rdf:RDF></metadata><defs
   id="defs13"><linearGradient
     id="linearGradient3802"><stop
       style="stop-color:#000000;stop-opacity:1;"
       offset="0"
       id="stop3804" /><stop
       style="stop-color:#000000;stop-opacity:0.76785713;"
       offset="1"
       id="stop3806" /></linearGradient><linearGradient
     id="linearGradient3760"><stop
       style="stop-color:#000000;stop-opacity:1;"
       offset="0"
       id="stop3762" /><stop
       style="stop-color:#000000;stop-opacity:0;"
       offset="1"
       id="stop3764" /></linearGradient></defs><sodipodi:namedview
   pagecolor="#ffffff"
   bordercolor="#666666"
   borderopacity="1"
   objecttolerance="10"
   gridtolerance="10"
   guidetolerance="10"
   inkscape:pageopacity="0"
   inkscape:pageshadow="2"
   inkscape:window-width="938"
   inkscape:window-height="1028"
   id="namedview11"
   showgrid="false"
   inkscape:zoom="2.36"
   inkscape:cx="-74.617952"
   inkscape:cy="3.5774998"
   inkscape:window-x="940"
   inkscape:window-y="26"
   inkscape:window-maximized="0"
   inkscape:current-layer="Layer_1"
   fit-margin-top="1.62"
   fit-margin-left="0"
   fit-margin-right="0"
   fit-margin-bottom="1.62" />



<g
   id="g3788"
   style="fill:#999999;fill-opacity:1;fill-rule:evenodd"
   transform="matrix(0.18793213,0,0,0.18793213,-1.1958122,-0.5726041)"><path
     style="fill:#999999;fill-opacity:1;fill-rule:evenodd"
     id="path3"
     d="m 91.5,18.417 c 0,3.728 -3.022,6.75 -6.75,6.75 h -43 c -3.728,0 -6.75,-3.022 -6.75,-6.75 l 0,0 c 0,-3.728 3.022,-6.75 6.75,-6.75 h 43 c 3.728,0 6.75,3.022 6.75,6.75 l 0,0 z"
     inkscape:connector-curvature="0" /><path
     style="fill:#999999;fill-opacity:1;fill-rule:evenodd"
     id="path5"
     d="m 91.5,72.75 c 0,3.729 -3.022,6.75 -6.75,6.75 h -43 C 38.022,79.5 35,76.479 35,72.75 l 0,0 C 35,69.021 38.022,66 41.75,66 h 43 c 3.728,0 6.75,3.021 6.75,6.75 l 0,0 z"
     inkscape:connector-curvature="0" /><path
     style="fill:#999999;fill-opacity:1;fill-rule:evenodd"
     id="path7"
     d="m 84.75,79.333 c -3.729,0 -6.75,-3.022 -6.75,-6.75 v -53 c 0,-3.728 3.021,-6.75 6.75,-6.75 l 0,0 c 3.729,0 6.75,3.022 6.75,6.75 v 53 c 0,3.728 -3.021,6.75 -6.75,6.75 l 0,0 z"
     inkscape:connector-curvature="0" /><path
     style="fill:#999999;fill-opacity:1;fill-rule:evenodd"
     id="path9"
     d="M 7.936,49.11 22.99,64.164 c 2.097,2.097 5.497,2.097 7.594,0 2.097,-2.097 2.097,-5.497 0,-7.594 l -5.877,-5.877 h 26.079 c 2.967,0 5.371,-2.404 5.371,-5.369 0,-2.966 -2.404,-5.369 -5.371,-5.369 H 24.698 L 30.58,34.08 c 2.099,-2.096 2.101,-5.495 0.005,-7.594 -1.049,-1.05 -2.424,-1.575 -3.799,-1.575 -1.374,0 -2.747,0.523 -3.795,1.57 L 7.938,41.515 c -1.008,1.007 -1.574,2.373 -1.575,3.797 -0.001,1.425 0.566,2.792 1.573,3.798 z"
     inkscape:connector-curvature="0" /></g>
</svg>