<?xml version="1.0" encoding="UTF-8" standalone="no"?>
<!-- Generator: Adobe Illustrator 15.1.0, SVG Export Plug-In  -->

<svg
   xmlns:dc="http://purl.org/dc/elements/1.1/"
   xmlns:cc="http://creativecommons.org/ns#"
   xmlns:rdf="http://www.w3.org/1999/02/22-rdf-syntax-ns#"
   xmlns:svg="http://www.w3.org/2000/svg"
   xmlns="http://www.w3.org/2000/svg"
   xmlns:sodipodi="http://sodipodi.sourceforge.net/DTD/sodipodi-0.dtd"
   xmlns:inkscape="http://www.inkscape.org/namespaces/inkscape"
   version="1.1"
   x="0px"
   y="0px"
   width="12px"
   height="12px"
   viewBox="0 0 12 12"
   style="overflow:visible;enable-background:new 0 0 12 12;"
   xml:space="preserve"
   preserveAspectRatio="xMinYMid meet"
   id="svg2"
   inkscape:version="0.48.3.1 r9886"
   sodipodi:docname="settings.svg"><metadata
   id="metadata10"><rdf:RDF><cc:Work
       rdf:about=""><dc:format>image/svg+xml</dc:format><dc:type
         rdf:resource="http://purl.org/dc/dcmitype/StillImage" /><dc:title></dc:title></cc:Work></rdf:RDF></metadata><sodipodi:namedview
   pagecolor="#ffffff"
   bordercolor="#666666"
   borderopacity="1"
   objecttolerance="10"
   gridtolerance="10"
   guidetolerance="10"
   inkscape:pageopacity="0"
   inkscape:pageshadow="2"
   inkscape:window-width="665"
   inkscape:window-height="480"
   id="namedview8"
   showgrid="false"
   inkscape:zoom="19.666667"
   inkscape:cx="6.0000001"
   inkscape:cy="6.0000001"
   inkscape:window-x="0"
   inkscape:window-y="26"
   inkscape:window-maximized="0"
   inkscape:current-layer="svg2" />
<defs
   id="defs4">
</defs>
<path
   style="fill:#999999;"
   d="M11.9,7C12,6.7,12,6.3,12,6c0-0.3,0-0.7-0.1-1l-1.6-0.3c-0.1-0.3-0.2-0.6-0.4-0.9l0.9-1.3  C10.5,2,10,1.5,9.5,1.1L8.1,2C7.9,1.9,7.6,1.8,7.3,1.7L7,0.1C6.7,0,6.3,0,6,0C5.7,0,5.3,0,5,0.1L4.7,1.7C4.4,1.8,4.1,1.9,3.8,2  L2.5,1.1C2,1.5,1.5,2,1.1,2.5L2,3.8C1.9,4.1,1.8,4.4,1.7,4.7L0.1,5C0,5.3,0,5.7,0,6c0,0.3,0,0.7,0.1,1l1.6,0.3  C1.8,7.6,1.9,7.9,2,8.1L1.1,9.5c0.4,0.5,0.9,1,1.4,1.4l1.3-0.9c0.3,0.1,0.6,0.3,0.9,0.4L5,11.9C5.3,12,5.7,12,6,12  c0.3,0,0.7,0,1-0.1l0.3-1.6c0.3-0.1,0.6-0.2,0.9-0.4l1.3,0.9c0.5-0.4,1-0.9,1.4-1.4L9.9,8.1c0.1-0.3,0.3-0.6,0.4-0.9L11.9,7z M6,7.5  C5.2,7.5,4.5,6.8,4.5,6c0-0.8,0.7-1.5,1.5-1.5c0.8,0,1.5,0.7,1.5,1.5C7.5,6.8,6.8,7.5,6,7.5z"
   id="path6" />
</svg>