<?xml version="1.0" encoding="UTF-8" standalone="no"?>
<!-- Generator: Adobe Illustrator 15.1.0, SVG Export Plug-In  -->

<svg
   xmlns:a="http://ns.adobe.com/AdobeSVGViewerExtensions/3.0/"
   xmlns:dc="http://purl.org/dc/elements/1.1/"
   xmlns:cc="http://creativecommons.org/ns#"
   xmlns:rdf="http://www.w3.org/1999/02/22-rdf-syntax-ns#"
   xmlns:svg="http://www.w3.org/2000/svg"
   xmlns="http://www.w3.org/2000/svg"
   xmlns:sodipodi="http://sodipodi.sourceforge.net/DTD/sodipodi-0.dtd"
   xmlns:inkscape="http://www.inkscape.org/namespaces/inkscape"
   version="1.1"
   x="0px"
   y="0px"
   width="24px"
   height="24px"
   viewBox="0 0 24 24"
   style="overflow:visible;enable-background:new 0 0 24 24;"
   xml:space="preserve"
   preserveAspectRatio="xMinYMid meet"
   id="svg2"
   inkscape:version="0.48.3.1 r9886"
   sodipodi:docname="icon.svg"><metadata
   id="metadata37"><rdf:RDF><cc:Work
       rdf:about=""><dc:format>image/svg+xml</dc:format><dc:type
         rdf:resource="http://purl.org/dc/dcmitype/StillImage" /><dc:title></dc:title></cc:Work></rdf:RDF></metadata><sodipodi:namedview
   pagecolor="#ffffff"
   bordercolor="#666666"
   borderopacity="1"
   objecttolerance="10"
   gridtolerance="10"
   guidetolerance="10"
   inkscape:pageopacity="0"
   inkscape:pageshadow="2"
   inkscape:window-width="1024"
   inkscape:window-height="550"
   id="namedview35"
   showgrid="false"
   inkscape:zoom="9.8333333"
   inkscape:cx="12"
   inkscape:cy="12"
   inkscape:window-x="0"
   inkscape:window-y="24"
   inkscape:window-maximized="1"
   inkscape:current-layer="svg2" />
<defs
   id="defs4">
</defs>
<linearGradient
   id="SVGID_1_"
   gradientUnits="userSpaceOnUse"
   x1="11.9995"
   y1="0"
   x2="11.9995"
   y2="24.001">
	<stop
   offset="0"
   style="stop-color:#90C50E"
   id="stop7" />
	<stop
   offset="1"
   style="stop-color:#70A034"
   id="stop9" />
	<a:midPointStop
   offset="0"
   style="stop-color:#90C50E" />
	<a:midPointStop
   offset="0.5"
   style="stop-color:#90C50E" />
	<a:midPointStop
   offset="1"
   style="stop-color:#70A034" />
</linearGradient>
<path
   style="fill:#ff0000;fill-opacity:1"
   d="M21.1,12.3c1,0,1.7,0.9,1.7,0.9c0.3,0.4,0.7,0.8,0.9,0.8s0.3-0.5,0.3-1V8c0-0.5-0.5-1-1-1h-3  c-0.5,0-1-0.1-1-0.3c0-0.2,0.3-0.7,0.7-1.1c0,0,0.8-0.9,0.8-2.1C20.5,1.6,18.9,0,17,0s-3.5,1.6-3.5,3.5c0,1.2,0.8,2.1,0.8,2.1  C14.7,6,15,6.5,15,6.7C15,6.9,14.5,7,14,7H8C7.5,7,7,7.5,7,8v6c0,0.5-0.1,1-0.3,1S6,14.7,5.6,14.3c0,0-0.9-0.8-2.1-0.8  C1.6,13.5,0,15.1,0,17s1.6,3.5,3.5,3.5c1.2,0,2.1-0.8,2.1-0.8C6,19.3,6.5,19,6.7,19S7,19.5,7,20v3c0,0.5,0.5,1,1,1h4  c0.5,0,1-0.1,1-0.3s-0.3-0.6-0.7-1c0,0-0.6-0.6-0.6-1.6c0-1.4,1.3-2.5,2.7-2.5c1.4,0,2.4,1.1,2.4,2.5c0,1-0.9,1.7-0.9,1.7  c-0.4,0.3-0.8,0.7-0.8,0.9s0.5,0.3,1,0.3h7c0.5,0,1-0.5,1-1v-6c0-0.5-0.1-1-0.3-1s-0.6,0.3-1,0.7c0,0-0.6,0.6-1.6,0.6  c-1.4,0-2.5-1.3-2.5-2.7S19.7,12.3,21.1,12.3z"
   id="path11" />
<linearGradient
   id="SVGID_2_"
   gradientUnits="userSpaceOnUse"
   x1="11.9995"
   y1="1"
   x2="11.9995"
   y2="23.001">
	<stop
   offset="0"
   style="stop-color:#D9F991"
   id="stop14" />
	<stop
   offset="0.2388"
   style="stop-color:#D7F88D"
   id="stop16" />
	<stop
   offset="0.4501"
   style="stop-color:#D1F383"
   id="stop18" />
	<stop
   offset="0.6509"
   style="stop-color:#C6EC71"
   id="stop20" />
	<stop
   offset="0.844"
   style="stop-color:#B7E257"
   id="stop22" />
	<stop
   offset="1"
   style="stop-color:#A8D73D"
   id="stop24" />
	<a:midPointStop
   offset="0"
   style="stop-color:#D9F991" />
	<a:midPointStop
   offset="0.7317"
   style="stop-color:#D9F991" />
	<a:midPointStop
   offset="1"
   style="stop-color:#A8D73D" />
</linearGradient>
<path
   style="fill:#ff0000;fill-opacity:1"
   d="M17,23c0.4-0.4,0.7-1.1,0.7-1.9c0-2-1.5-3.5-3.4-3.5c-2,0-3.7,1.6-3.7,3.5  c0,0.9,0.3,1.5,0.6,1.9H8v-3c0-1.5-0.7-2-1.3-2c-0.6,0-1.3,0.6-1.7,0.9c0,0-0.7,0.6-1.5,0.6C2.1,19.5,1,18.4,1,17s1.1-2.5,2.5-2.5  c0.8,0,1.4,0.6,1.5,0.6C5.3,15.4,6.1,16,6.7,16C7.3,16,8,15.5,8,14V8h6c1.5,0,2-0.7,2-1.3c0-0.6-0.5-1.3-0.9-1.7  c0,0-0.6-0.7-0.6-1.5C14.5,2.1,15.6,1,17,1s2.5,1.1,2.5,2.5c0,0.8-0.6,1.5-0.6,1.5C18.5,5.4,18,6.1,18,6.7C18,7.3,18.5,8,20,8h3v4  c-0.4-0.4-1.1-0.7-1.9-0.7c-2,0-3.5,1.5-3.5,3.4c0,2,1.6,3.7,3.5,3.7c0.9,0,1.5-0.3,1.9-0.6V23H17z"
   id="path26" />
<linearGradient
   id="SVGID_3_"
   gradientUnits="userSpaceOnUse"
   x1="11.9995"
   y1="2"
   x2="11.9995"
   y2="22.001">
	<stop
   offset="0"
   style="stop-color:#B3E810"
   id="stop29" />
	<stop
   offset="1"
   style="stop-color:#90C60D"
   id="stop31" />
	<a:midPointStop
   offset="0"
   style="stop-color:#B3E810" />
	<a:midPointStop
   offset="0.5"
   style="stop-color:#B3E810" />
	<a:midPointStop
   offset="1"
   style="stop-color:#90C60D" />
</linearGradient>
<path
   style="fill:#ff0000;fill-opacity:1"
   d="M18.6,22c0.1-0.3,0.1-0.6,0.1-0.9c0-2.5-1.9-4.5-4.4-4.5c-2.5,0-4.7,2.1-4.7,4.5  c0,0.3,0,0.6,0.1,0.9H9v-2c0-2.1-1.2-3-2.3-3C7.8,17,9,16.1,9,14V9h5c2.1,0,3-1.2,3-2.3c0-0.7-0.4-1.5-1.2-2.4  c-0.1-0.1-0.3-0.5-0.3-0.8C15.5,2.7,16.2,2,17,2s1.5,0.7,1.5,1.5c0,0.3-0.3,0.7-0.3,0.8C17.4,5.2,17,6,17,6.7C17,7.8,17.9,9,20,9h2  v1.4c-0.3-0.1-0.6-0.1-0.9-0.1c-2.5,0-4.5,1.9-4.5,4.4c0,2.5,2.1,4.7,4.5,4.7c0.3,0,0.6,0,0.9-0.1V22H18.6z M3.5,18.5  C2.7,18.5,2,17.8,2,17s0.7-1.5,1.5-1.5c0.3,0,0.7,0.3,0.8,0.3C5.2,16.6,6,17,6.7,17c-0.7,0-1.5,0.4-2.4,1.2  C4.2,18.3,3.8,18.5,3.5,18.5z"
   id="path33" />
</svg>