<?xml version="1.0" encoding="UTF-8" standalone="no"?>
<svg
   xmlns:dc="http://purl.org/dc/elements/1.1/"
   xmlns:cc="http://creativecommons.org/ns#"
   xmlns:rdf="http://www.w3.org/1999/02/22-rdf-syntax-ns#"
   xmlns:svg="http://www.w3.org/2000/svg"
   xmlns="http://www.w3.org/2000/svg"
   xmlns:sodipodi="http://sodipodi.sourceforge.net/DTD/sodipodi-0.dtd"
   xmlns:inkscape="http://www.inkscape.org/namespaces/inkscape"
   version="1.1"
   id="Layer_1"
   x="0px"
   y="0px"
   width="24.000086"
   height="24"
   viewBox="0 0 24.000086 24"
   enable-background="new 0 0 22 23"
   xml:space="preserve"
   inkscape:version="0.48.3.1 r9886"
   sodipodi:docname="icon.svg" preserveAspectRatio="xMinYMid meet"><metadata
   id="metadata17"><rdf:RDF><cc:Work
       rdf:about=""><dc:format>image/svg+xml</dc:format><dc:type
         rdf:resource="http://purl.org/dc/dcmitype/StillImage" /><dc:title /></cc:Work></rdf:RDF></metadata><defs
   id="defs15">
	
	
	
	
</defs><sodipodi:namedview
   pagecolor="#ffffff"
   bordercolor="#666666"
   borderopacity="1"
   objecttolerance="10"
   gridtolerance="10"
   guidetolerance="10"
   inkscape:pageopacity="0"
   inkscape:pageshadow="2"
   inkscape:window-width="1920"
   inkscape:window-height="1029"
   id="namedview13"
   showgrid="false"
   fit-margin-top="0"
   fit-margin-left="0"
   fit-margin-right="0"
   fit-margin-bottom="0"
   inkscape:zoom="10.26087"
   inkscape:cx="-5.6397865"
   inkscape:cy="12"
   inkscape:window-x="0"
   inkscape:window-y="26"
   inkscape:window-maximized="1"
   inkscape:current-layer="Layer_1" />
<path
   inkscape:connector-curvature="0"
   style="fill:#000000;fill-opacity:1"
   id="path5"
   d="m 15.272782,11.478261 c 0,-1.7259128 -1.468369,-3.1304346 -3.272739,-3.1304346 -1.80437,0 -3.272739,1.4045218 -3.272739,3.1304346 0,1.725913 1.468369,3.130435 3.272739,3.130435 1.80437,0 3.272739,-1.404522 3.272739,-3.130435 z m -4.363652,0 c 0,-0.576 0.48982,-1.043478 1.090913,-1.043478 0.601093,0 1.090913,0.467478 1.090913,1.043478 0,0.576 -0.48982,1.043479 -1.090913,1.043479 -0.601093,0 -1.090913,-0.467479 -1.090913,-1.043479 z" /><path
   inkscape:connector-curvature="0"
   style="fill:#ff0000;fill-opacity:1"
   id="path7"
   d="M 12.000043,0 C 5.3836557,0 0,5.1495654 0,11.478261 c 0,3.589566 1.7072788,6.90574 4.6832895,9.098088 0.1985462,0.14713 0.4320016,0.217043 0.6654569,0.217043 0.326183,0 0.6501842,-0.139826 0.865094,-0.406956 C 6.5814781,19.929392 6.4920233,19.275131 6.0152943,18.923479 3.5792856,17.128696 2.181826,14.414609 2.181826,11.478261 c 0,-5.1787825 4.4051067,-9.3913044 9.818217,-9.3913044 5.414201,0 9.818217,4.2125219 9.818217,9.3913044 0,2.935305 -1.396369,5.649392 -3.832377,7.445218 -0.47782,0.351652 -0.566184,1.006957 -0.198547,1.462957 0.367638,0.457043 1.053822,0.542608 1.52946,0.189913 2.977102,-2.194435 4.68329,-5.510609 4.68329,-9.098088 C 24.000086,5.1495654 18.61643,0 12.000043,0 z" /><path
   inkscape:connector-curvature="0"
   style="fill:#ff0000;fill-opacity:1"
   id="path9"
   d="m 12.000043,4.4347828 c -4.0603782,0 -7.3636628,3.1596523 -7.3636628,7.0434782 0,2.20174 1.0472765,4.237566 2.8734649,5.583653 0.3589104,0.265043 0.8716395,0.200348 1.1476405,-0.141913 0.27491,-0.342261 0.2094553,-0.83374 -0.1483642,-1.09774 -1.4214596,-1.047652 -2.2363717,-2.630608 -2.2363717,-4.344 0,-3.0208694 2.5691002,-5.4782608 5.7272933,-5.4782608 3.158193,0 5.727293,2.4573914 5.727293,5.4782608 0,1.713392 -0.814912,3.296348 -2.23528,4.344 -0.35782,0.264 -0.424366,0.755479 -0.149456,1.09774 0.161456,0.199304 0.403638,0.304695 0.649094,0.304695 0.173455,0 0.350183,-0.05322 0.499638,-0.162782 1.825097,-1.346087 2.872374,-3.38087 2.872374,-5.583653 0,-3.8838259 -3.302194,-7.0434782 -7.363663,-7.0434782 z" /><path
   inkscape:connector-curvature="0"
   style="fill:#000000;fill-opacity:1"
   id="path11"
   d="m 13.090956,16.695653 c -0.246546,-0.630261 -0.488729,-1.043478 -1.090913,-1.043478 -0.602184,0 -0.927276,0.492521 -1.090913,1.043478 l -2.181826,6.26087 c -0.2552736,0.554087 0.488729,1.043478 1.090913,1.043478 h 4.363652 c 0.603275,0 1.329823,-0.538435 1.090913,-1.043478 l -2.181826,-6.26087 z" />
</svg>