<?xml version="1.0" encoding="UTF-8" standalone="no"?>
<svg
   xmlns:dc="http://purl.org/dc/elements/1.1/"
   xmlns:cc="http://creativecommons.org/ns#"
   xmlns:rdf="http://www.w3.org/1999/02/22-rdf-syntax-ns#"
   xmlns:svg="http://www.w3.org/2000/svg"
   xmlns="http://www.w3.org/2000/svg"
   xmlns:sodipodi="http://sodipodi.sourceforge.net/DTD/sodipodi-0.dtd"
   xmlns:inkscape="http://www.inkscape.org/namespaces/inkscape"
   version="1.1"
   id="Layer_1"
   x="0px"
   y="0px"
   width="24.001844"
   height="24"
   viewBox="0 0 24.001844 24"
   enable-background="new 0 0 100 100"
   xml:space="preserve"
   inkscape:version="0.48.3.1 r9886"
   sodipodi:docname="icon.svg" preserveAspectRatio="xMinYMid meet"><metadata
   id="metadata13"><rdf:RDF><cc:Work
       rdf:about=""><dc:format>image/svg+xml</dc:format><dc:type
         rdf:resource="http://purl.org/dc/dcmitype/StillImage" /><dc:title /></cc:Work></rdf:RDF></metadata><defs
   id="defs11" /><sodipodi:namedview
   pagecolor="#ffffff"
   bordercolor="#666666"
   borderopacity="1"
   objecttolerance="10"
   gridtolerance="10"
   guidetolerance="10"
   inkscape:pageopacity="0"
   inkscape:pageshadow="2"
   inkscape:window-width="1920"
   inkscape:window-height="1029"
   id="namedview9"
   showgrid="false"
   fit-margin-top="0"
   fit-margin-left="0.27"
   fit-margin-right="0.27"
   fit-margin-bottom="0"
   inkscape:zoom="13.350176"
   inkscape:cx="18.163603"
   inkscape:cy="11.671717"
   inkscape:window-x="0"
   inkscape:window-y="26"
   inkscape:window-maximized="1"
   inkscape:current-layer="Layer_1" />


<path
   style="fill:#000000"
   inkscape:connector-curvature="0"
   d="m 4.4530216,9.8987723 h -0.036421 c 0,0 -0.012636,0.00991 -0.030971,0.024281 0.022299,-0.00793 0.04435,-0.015609 0.066649,-0.023538 0,0 2.477e-4,-4.955e-4 7.433e-4,-7.433e-4 z"
   id="path3" /><path
   inkscape:connector-curvature="0"
   d="M 23.207368,8.8061274 C 22.154366,3.5973575 19.866996,-0.33517337 18.097952,0.02259972 17.329136,0.1777008 16.785292,1.1187134 16.502096,2.5597164 15.571737,3.6208952 11.807687,7.5194822 4.9772929,9.7231067 4.8036095,9.7791017 4.6281916,9.8383176 4.4522783,9.9000112 0.62579097,13.542409 4.6544547,16.802752 4.6544547,16.802752 h -0.00396 c 0.034192,0.0025 0.068383,0.005 0.1035659,0.0082 0.5577197,0.05451 1.6330211,0.12859 1.9172079,0.723722 0,0 1.129562,1.481141 1.283672,4.304922 0,0 0.4107949,2.566849 3.7479457,2.104766 0,0 0.487602,-0.615944 -0.102823,-0.923916 0,0 -0.179629,-0.539138 0.15411,-0.436315 0,0 0.334236,-1.053003 -0.564657,-1.335207 l -0.179877,-1.232137 c 0,0 -0.539138,-0.436315 -0.795822,-1.052507 l 0.02577,-0.949932 c 0,0 -1.2066169,-0.744287 -0.102822,-1.796794 0,0 6.85294,-0.141722 10.386816,2.185537 0.124626,0.102823 0.248509,0.190532 0.372144,0.262632 0.0072,0.0057 0.01561,0.01041 0.02279,0.0161 0.08077,0.06269 0.171949,0.101336 0.267835,0.124626 0.247765,0.09539 0.490327,0.124874 0.723474,0.07755 1.769045,-0.357278 2.349806,-4.869579 1.297547,-10.0778536 z M 17.790723,16.632042 C 17.047923,16.415991 16.284806,16.274765 15.519954,16.165748 13.956803,15.943255 12.361194,15.861244 10.782682,15.8994 10.335218,15.910302 9.5775513,15.426912 9.2143273,15.185836 8.7752872,14.893969 8.4061169,14.515631 8.127381,14.067919 7.4053929,12.907882 7.3647594,11.552358 7.9566707,10.33583 8.2507681,9.7317785 8.5996216,9.135903 9.1561025,8.7407173 9.8974163,8.2142161 10.752702,7.8618938 11.520279,7.3762738 12.812127,6.5596394 14.04476,5.6515796 15.230812,4.6880203 15.470401,4.493029 16.615325,3.1870581 16.671815,2.8434077 c -0.01511,0.091425 -0.02577,0.1823552 -0.03915,0.2737806 0.0072,-0.020317 0.01462,-0.040138 0.0171,-0.055995 -0.06541,0.3951856 -0.111494,0.7893802 -0.146429,1.1820882 -0.392213,5.0526778 1.504431,9.7721114 2.544797,11.9318814 0.314662,0.637996 0.528731,0.999485 0.528731,0.999485 -0.01387,-0.02056 -0.03122,-0.04088 -0.04906,-0.0607 0.103318,0.190531 0.164764,0.294345 0.164764,0.294345 -0.267091,-0.406831 -1.461816,-0.647906 -1.901847,-0.776249 z m 2.424631,-1.111723 c -0.06392,0.01487 -0.131563,0.005 -0.201185,-0.01611 -0.0015,2.48e-4 -0.0025,0.0015 -0.004,0.002 -0.731899,0.17071 -1.889458,-2.104023 -2.585927,-5.081419 -0.69622,-2.9773955 -0.667232,-5.5293781 0.06417,-5.7008317 0.06367,-0.014866 0.131563,-0.00496 0.201185,0.016105 0.0017,-2.477e-4 0.0027,-0.00149 0.004,-0.00173 0.731651,-0.1707103 1.889211,2.1040229 2.585927,5.0816663 0.69622,2.977148 0.666984,5.52913 -0.06417,5.700336 z"
   id="path5"
   style="fill:#000000;fill-opacity:1" /><path
   inkscape:connector-curvature="0"
   d="m 4.4312182,16.788878 c -1.396653,0 -2.5286926,-1.539118 -2.5286926,-3.437744 0,-1.824048 1.0458173,-3.312374 2.3664063,-3.4265941 C 3.9678971,9.8023916 3.647041,9.7335129 3.3125579,9.7335129 1.6322136,9.7335129 0.27,11.403947 0.27,13.464115 c 0,2.060416 1.3622136,3.73085 3.0425579,3.73085 0.5133697,0 0.9962643,-0.157579 1.4204384,-0.432598 -0.099106,0.01586 -0.199451,0.02651 -0.3017781,0.02651 z"
   id="path7"
   style="fill:#000000;fill-opacity:1" />
</svg>