<?xml version="1.0" encoding="UTF-8" standalone="no"?>
<!-- Generator: Adobe Illustrator 15.1.0, SVG Export Plug-In  -->

<svg
   xmlns:a="http://ns.adobe.com/AdobeSVGViewerExtensions/3.0/"
   xmlns:dc="http://purl.org/dc/elements/1.1/"
   xmlns:cc="http://creativecommons.org/ns#"
   xmlns:rdf="http://www.w3.org/1999/02/22-rdf-syntax-ns#"
   xmlns:svg="http://www.w3.org/2000/svg"
   xmlns="http://www.w3.org/2000/svg"
   xmlns:sodipodi="http://sodipodi.sourceforge.net/DTD/sodipodi-0.dtd"
   xmlns:inkscape="http://www.inkscape.org/namespaces/inkscape"
   version="1.1"
   x="0px"
   y="0px"
   width="24px"
   height="24px"
   viewBox="0 0 24 24"
   style="overflow:visible;enable-background:new 0 0 24 24;"
   xml:space="preserve"
   preserveAspectRatio="xMinYMid meet"
   id="svg2"
   inkscape:version="0.48.3.1 r9886"
   sodipodi:docname="icon.svg"
   inkscape:export-filename="/home/christian/Arbeitsfläche/anomalybalckred_red/pix_plugins/mod/forum/icon.png"
   inkscape:export-xdpi="90"
   inkscape:export-ydpi="90"><metadata
   id="metadata64"><rdf:RDF><cc:Work
       rdf:about=""><dc:format>image/svg+xml</dc:format><dc:type
         rdf:resource="http://purl.org/dc/dcmitype/StillImage" /><dc:title /></cc:Work></rdf:RDF></metadata><sodipodi:namedview
   pagecolor="#ffffff"
   bordercolor="#666666"
   borderopacity="1"
   objecttolerance="10"
   gridtolerance="10"
   guidetolerance="10"
   inkscape:pageopacity="0"
   inkscape:pageshadow="2"
   inkscape:window-width="1920"
   inkscape:window-height="1029"
   id="namedview62"
   showgrid="false"
   inkscape:zoom="27.812867"
   inkscape:cx="9.3462595"
   inkscape:cy="14.033898"
   inkscape:window-x="0"
   inkscape:window-y="26"
   inkscape:window-maximized="1"
   inkscape:current-layer="svg2" />
<defs
   id="defs4">
</defs>
<linearGradient
   id="SVGID_1_"
   gradientUnits="userSpaceOnUse"
   x1="10.4995"
   y1="0"
   x2="10.4995"
   y2="19.4312">
	<stop
   offset="0"
   style="stop-color:#76A1F0"
   id="stop7" />
	<stop
   offset="1"
   style="stop-color:#6B90D5"
   id="stop9" />
	<a:midPointStop
   offset="0"
   style="stop-color:#76A1F0" />
	<a:midPointStop
   offset="0.5"
   style="stop-color:#76A1F0" />
	<a:midPointStop
   offset="1"
   style="stop-color:#6B90D5" />
</linearGradient>
<path
   style="fill:#000000;fill-opacity:1"
   d="M19,0H2C0.9,0,0,0.9,0,2v11.3C0,14.4,0.9,15,2,15h0v4.4L6.1,15H19c1.1,0,2-0.5,2-1.6V2  C21,0.9,20,0,19,0z"
   id="path11" />
<linearGradient
   id="SVGID_2_"
   gradientUnits="userSpaceOnUse"
   x1="10.4995"
   y1="0.9531"
   x2="10.4995"
   y2="16.8384">
	<stop
   offset="0"
   style="stop-color:#BBE0F7"
   id="stop14" />
	<stop
   offset="1"
   style="stop-color:#82B4FB"
   id="stop16" />
	<a:midPointStop
   offset="0"
   style="stop-color:#BBE0F7" />
	<a:midPointStop
   offset="0.5"
   style="stop-color:#BBE0F7" />
	<a:midPointStop
   offset="1"
   style="stop-color:#82B4FB" />
</linearGradient>
<path
   style="fill:#000000;fill-opacity:1"
   d="M3,14H2c-0.4,0-1-0.1-1-0.6V2c0-0.6,0.5-1,1-1H19c0.5,0,1,0.5,1,1v11.3c0,0.6-0.8,0.6-1,0.6  H5.7L3,16.8V14z"
   id="path18" />
<linearGradient
   id="SVGID_3_"
   gradientUnits="userSpaceOnUse"
   x1="10.4985"
   y1="1.9775"
   x2="10.4985"
   y2="14.314">
	<stop
   offset="0"
   style="stop-color:#95BFF8"
   id="stop21" />
	<stop
   offset="0.5569"
   style="stop-color:#84ADEF"
   id="stop23" />
	<stop
   offset="1"
   style="stop-color:#7CA4EB"
   id="stop25" />
	<a:midPointStop
   offset="0"
   style="stop-color:#95BFF8" />
	<a:midPointStop
   offset="0.4"
   style="stop-color:#95BFF8" />
	<a:midPointStop
   offset="1"
   style="stop-color:#7CA4EB" />
</linearGradient>
<path
   style="fill:#000000;fill-opacity:1"
   d="M4,13c0,0-2,0-2,0V2l17,0l0,11c0,0-13.8,0-13.8,0L4,14.3V13z"
   id="path27" />
<path
   style="fill:#FFFFFF;"
   d="M17,11H4v-1h13V11z M17,8H4v1h13V8z M17,6H4v1h13V6z M17,4H4v1h13V4z"
   id="path29" />
<linearGradient
   id="SVGID_4_"
   gradientUnits="userSpaceOnUse"
   x1="15"
   y1="7.8955"
   x2="15"
   y2="23.897">
	<stop
   offset="0"
   style="stop-color:#ffffff;stop-opacity:1;"
   id="stop32" />
	<stop
   offset="1"
   style="stop-color:#c8c8c8;stop-opacity:1;"
   id="stop34" />
	<a:midPointStop
   offset="0"
   style="stop-color:#90C50E" />
	<a:midPointStop
   offset="0.5"
   style="stop-color:#90C50E" />
	<a:midPointStop
   offset="1"
   style="stop-color:#70A034" />
</linearGradient>

<linearGradient
   id="SVGID_5_"
   gradientUnits="userSpaceOnUse"
   x1="15"
   y1="8.8955"
   x2="15"
   y2="21.3911">
	<stop
   offset="0"
   style="stop-color:#D9F991"
   id="stop39" />
	<stop
   offset="0.2388"
   style="stop-color:#D7F88D"
   id="stop41" />
	<stop
   offset="0.4501"
   style="stop-color:#D1F383"
   id="stop43" />
	<stop
   offset="0.6509"
   style="stop-color:#C6EC71"
   id="stop45" />
	<stop
   offset="0.844"
   style="stop-color:#B7E257"
   id="stop47" />
	<stop
   offset="1"
   style="stop-color:#A8D73D"
   id="stop49" />
	<a:midPointStop
   offset="0"
   style="stop-color:#D9F991" />
	<a:midPointStop
   offset="0.7317"
   style="stop-color:#D9F991" />
	<a:midPointStop
   offset="1"
   style="stop-color:#A8D73D" />
</linearGradient>

<linearGradient
   id="SVGID_6_"
   gradientUnits="userSpaceOnUse"
   x1="15"
   y1="9.8955"
   x2="15"
   y2="18.896">
	<stop
   offset="0"
   style="stop-color:#B3E810"
   id="stop54" />
	<stop
   offset="1"
   style="stop-color:#90C60D"
   id="stop56" />
	<a:midPointStop
   offset="0"
   style="stop-color:#B3E810" />
	<a:midPointStop
   offset="0.5"
   style="stop-color:#B3E810" />
	<a:midPointStop
   offset="1"
   style="stop-color:#90C60D" />
</linearGradient>

<g
   id="g3817"
   transform="matrix(-1,0,0,1,30.508475,0.59)"><path
     id="path36"
     d="M 22,7.9 H 8 C 6.9,7.9 6,8.6 6,9.7 v 9 c 0,1.1 0.9,2 2,2 v 3.2 l 3.1,-3 H 22 c 1.1,0 2,-1.1 2,-2.2 v -9 C 24,8.6 23.1,7.9 22,7.9 z"
     style="fill:#ff0000;fill-opacity:1;stroke:#ffffff;stroke-opacity:1"
     inkscape:connector-curvature="0" /><path
     id="path51"
     d="M 9,19.9 H 8 c -0.6,0 -1,-0.7 -1,-1.2 v -9 C 7,9.1 7.4,8.9 8,8.9 h 14 c 0.6,0 1,0.2 1,0.8 v 9 c 0,0.6 -0.4,1.2 -1,1.2 H 10.6 L 9,21.4 v -1.5 z"
     style="fill:#ff0000;fill-opacity:1"
     inkscape:connector-curvature="0" /><polygon
     id="polygon58"
     points="22,9.9 22,18.9 10.2,18.9 10,18.9 10,18.9 8,18.9 8,9.9 "
     style="fill:#ff0000;fill-opacity:1" /><path
     id="path60"
     d="M 20,16.9 H 10 v -1 h 10 v 1 z m 0,-3 H 10 v 1 h 10 v -1 z m 0,-2 H 10 v 1 h 10 v -1 z"
     style="fill:#ffffff"
     inkscape:connector-curvature="0" /></g>
</svg>