<?xml version="1.0" encoding="UTF-8" standalone="no"?>
<!-- Created with Inkscape (http://www.inkscape.org/) -->

<svg
   xmlns:dc="http://purl.org/dc/elements/1.1/"
   xmlns:cc="http://creativecommons.org/ns#"
   xmlns:rdf="http://www.w3.org/1999/02/22-rdf-syntax-ns#"
   xmlns:svg="http://www.w3.org/2000/svg"
   xmlns="http://www.w3.org/2000/svg"
   xmlns:xlink="http://www.w3.org/1999/xlink"
   xmlns:sodipodi="http://sodipodi.sourceforge.net/DTD/sodipodi-0.dtd"
   xmlns:inkscape="http://www.inkscape.org/namespaces/inkscape"
   width="24"
   height="24"
   id="svg2"
   version="1.1"
   inkscape:version="0.48.3.1 r9886"
   sodipodi:docname="archive-small.svg"
   inkscape:export-filename="/tmp/moodle-theme_anomalyred/pix_core/f/archive-24.png"
   inkscape:export-xdpi="90"
   inkscape:export-ydpi="90" preserveAspectRatio="xMinYMid meet">
  <defs
     id="defs4">
    <linearGradient
       id="linearGradient3795">
      <stop
         style="stop-color:#d09917;stop-opacity:1;"
         offset="0"
         id="stop3797" />
      <stop
         style="stop-color:#dfab0f;stop-opacity:1;"
         offset="1"
         id="stop3799" />
    </linearGradient>
    <linearGradient
       id="linearGradient3698">
      <stop
         id="stop3700"
         offset="0"
         style="stop-color:#96d0e1;stop-opacity:1" />
      <stop
         style="stop-color:#89b7e1;stop-opacity:1"
         offset="0.67819428"
         id="stop3706" />
      <stop
         id="stop3702"
         offset="1"
         style="stop-color:#699dd3;stop-opacity:1" />
    </linearGradient>
    <linearGradient
       id="linearGradient3708">
      <stop
         id="stop3710"
         offset="0"
         style="stop-color:#658db6;stop-opacity:1" />
      <stop
         style="stop-color:#527fab;stop-opacity:1;"
         offset="0.76777935"
         id="stop3716" />
      <stop
         id="stop3712"
         offset="1"
         style="stop-color:#4071a0;stop-opacity:1" />
    </linearGradient>
    <linearGradient
       id="linearGradient3750">
      <stop
         style="stop-color:#d0e2f1;stop-opacity:1"
         offset="0"
         id="stop3752" />
      <stop
         id="stop3756"
         offset="0.85580856"
         style="stop-color:#cadef0;stop-opacity:1" />
      <stop
         style="stop-color:#95bee3;stop-opacity:1"
         offset="1"
         id="stop3754" />
    </linearGradient>
    <linearGradient
       id="linearGradient3803">
      <stop
         id="stop3805"
         offset="0"
         style="stop-color:#d7def0;stop-opacity:1;" />
      <stop
         style="stop-color:#ffffff;stop-opacity:1"
         offset="0.5"
         id="stop3811" />
      <stop
         id="stop3807"
         offset="1"
         style="stop-color:#d5def0;stop-opacity:1" />
    </linearGradient>
    <linearGradient
       inkscape:collect="always"
       xlink:href="#linearGradient3795"
       id="linearGradient3832"
       gradientUnits="userSpaceOnUse"
       x1="21.424297"
       y1="4.1364279"
       x2="30.480757"
       y2="11.095446" />
    <linearGradient
       inkscape:collect="always"
       xlink:href="#linearGradient3795"
       id="linearGradient3834"
       gradientUnits="userSpaceOnUse"
       gradientTransform="matrix(1,0,0,0.7051282,0,1008.7244)"
       x1="24.6875"
       y1="14.6875"
       x2="29.625"
       y2="14.6875" />
    <linearGradient
       inkscape:collect="always"
       xlink:href="#linearGradient3795"
       id="linearGradient4082"
       gradientUnits="userSpaceOnUse"
       x1="21.424297"
       y1="4.1364279"
       x2="30.480757"
       y2="11.095446" />
    <linearGradient
       inkscape:collect="always"
       xlink:href="#linearGradient3795"
       id="linearGradient4084"
       gradientUnits="userSpaceOnUse"
       gradientTransform="matrix(1,0,0,0.7051282,0,1008.7244)"
       x1="24.6875"
       y1="14.6875"
       x2="29.625"
       y2="14.6875" />
    <linearGradient
       inkscape:collect="always"
       xlink:href="#linearGradient3795"
       id="linearGradient4090"
       gradientUnits="userSpaceOnUse"
       x1="21.424297"
       y1="4.1364279"
       x2="30.480757"
       y2="11.095446" />
    <linearGradient
       inkscape:collect="always"
       xlink:href="#linearGradient3795"
       id="linearGradient4092"
       gradientUnits="userSpaceOnUse"
       gradientTransform="matrix(1,0,0,0.7051282,0,1008.7244)"
       x1="24.6875"
       y1="14.6875"
       x2="29.625"
       y2="14.6875" />
    <linearGradient
       inkscape:collect="always"
       xlink:href="#linearGradient3795"
       id="linearGradient4095"
       gradientUnits="userSpaceOnUse"
       gradientTransform="matrix(1,0,0,0.7051282,-513.45427,887.43594)"
       x1="24.6875"
       y1="14.6875"
       x2="29.625"
       y2="14.6875" />
    <filter
       inkscape:collect="always"
       id="filter3976">
      <feGaussianBlur
         inkscape:collect="always"
         stdDeviation="0.42679491"
         id="feGaussianBlur3978" />
    </filter>
  </defs>
  <sodipodi:namedview
     id="base"
     pagecolor="#ffffff"
     bordercolor="#666666"
     borderopacity="1.0"
     inkscape:pageopacity="0.0"
     inkscape:pageshadow="2"
     inkscape:zoom="16.000001"
     inkscape:cx="14.399725"
     inkscape:cy="0.40609118"
     inkscape:document-units="px"
     inkscape:current-layer="layer1"
     showgrid="false"
     inkscape:window-width="1881"
     inkscape:window-height="1029"
     inkscape:window-x="0"
     inkscape:window-y="26"
     inkscape:window-maximized="1"
     fit-margin-top="0"
     fit-margin-left="0"
     fit-margin-right="0"
     fit-margin-bottom="0" />
  <metadata
     id="metadata7">
    <rdf:RDF>
      <cc:Work
         rdf:about="">
        <dc:format>image/svg+xml</dc:format>
        <dc:type
           rdf:resource="http://purl.org/dc/dcmitype/StillImage" />
        <dc:title></dc:title>
      </cc:Work>
    </rdf:RDF>
  </metadata>
  <g
     inkscape:label="Capa 1"
     inkscape:groupmode="layer"
     id="layer1"
     transform="translate(-14.500003,-1033.322)">
    <rect
       style="fill:#ff0000;fill-opacity:1;stroke:none"
       id="rect2991"
       width="23.999998"
       height="23.999729"
       x="14.500004"
       y="1033.3621"
       ry="0.97226083" />
    <path
       inkscape:connector-curvature="0"
       id="path3974"
       d="m 30.249796,1034.416 0,1.8786 1.807805,0 0,1.8079 1.878698,0 0,-1.8433 -1.807804,0 0,-1.8432 -1.878699,0 z m 0,3.7218 0,1.8788 1.807805,0 0,1.8432 -1.346992,0 0.07089,-0.6026 -3.261136,-1.4179 -2.339512,2.6586 -6.912192,4.0764 c -0.306565,0.1805 -0.428662,0.5795 -0.24813,0.8862 l 1.169756,1.9495 c 0.180532,0.3066 0.544166,0.3933 0.850731,0.2127 l 6.983087,-4.1119 3.402925,-0.7089 0.106341,-1.0634 1.524228,0 0,1.8432 -1.807805,0 0,1.8788 1.807805,0 0,1.8432 -1.807805,0 0,1.8787 1.807805,0 0,1.8432 -1.807805,0 0,1.8788 1.807805,0 0,1.8432 -1.807805,0 0,1.8787 1.807805,0 0,1.8432 -1.807805,0 0,1.8788 1.807805,0 0,1.8432 -1.807805,0 0,1.8787 1.807805,0 0,1.8079 1.878698,0 0,-1.8788 -1.807804,0 0,-1.8078 1.807804,0 0,-1.8787 -1.807804,0 0,-1.8433 1.807804,0 0,-1.8786 -1.807804,0 0,-1.8433 1.807804,0 0,-1.8787 -1.807804,0 0,-1.8433 1.807804,0 0,-1.8786 -1.807804,0 0,-1.8433 1.807804,0 0,-1.8787 -1.807804,0 0,-1.8433 1.807804,0 0,-1.8786 -1.807804,0 0,-1.8433 1.807804,0 0,-1.8787 -1.807804,0 0,-1.8433 -1.878699,0 z m -8.79089,7.1604 c 0.248084,-0.033 0.502649,0.088 0.638048,0.319 l 0.602601,1.028 c 0.180532,0.3066 0.09389,0.7055 -0.212682,0.8862 l -1.98504,1.1697 c -0.306565,0.1806 -0.705647,0.058 -0.886179,-0.2481 l -0.602601,-1.028 c -0.180532,-0.3066 -0.05844,-0.7058 0.24813,-0.8861 l 1.949593,-1.1343 c 0.07665,-0.045 0.165435,-0.095 0.24813,-0.1067 z m 8.79089,22.6152 0,1.8788 1.807805,0 0,1.8077 -1.807805,0 0,1.8788 1.807805,0 0,1.8433 1.878698,0 0,-1.8788 -1.807804,0 0,-1.8078 1.807804,0 0,-1.8787 -1.807804,0 0,-1.8433 -1.878699,0 z"
       style="opacity:0.75;fill:#000000;fill-opacity:1;stroke:none;filter:url(#filter3976)"
       transform="matrix(1.000022,0,0,1,-0.20037215,-0.5003078)" />
    <path
       style="fill:#ffffff;fill-opacity:1;stroke:none"
       d="m 30.249101,1033.416 0,1.8786 1.807805,0 0,1.8079 1.878698,0 0,-1.8433 -1.807804,0 0,-1.8432 -1.878699,0 z m 0,3.7218 0,1.8788 1.807805,0 0,1.8432 -1.346992,0 0.07089,-0.6026 -3.261136,-1.4179 -2.339512,2.6586 -6.912192,4.0764 c -0.306565,0.1805 -0.428662,0.5795 -0.24813,0.8862 l 1.169756,1.9495 c 0.180532,0.3066 0.544166,0.3933 0.850731,0.2127 l 6.983087,-4.1119 3.402925,-0.7089 0.106341,-1.0634 1.524228,0 0,1.8432 -1.807805,0 0,1.8788 1.807805,0 0,1.8432 -1.807805,0 0,1.8787 1.807805,0 0,1.8432 -1.807805,0 0,1.8788 1.807805,0 0,1.8432 -1.807805,0 0,1.8787 1.807805,0 0,1.8432 -1.807805,0 0,1.8788 1.807805,0 0,1.8432 -1.807805,0 0,1.8787 1.807805,0 0,1.8079 1.878698,0 0,-1.8788 -1.807804,0 0,-1.8078 1.807804,0 0,-1.8787 -1.807804,0 0,-1.8433 1.807804,0 0,-1.8786 -1.807804,0 0,-1.8433 1.807804,0 0,-1.8787 -1.807804,0 0,-1.8433 1.807804,0 0,-1.8786 -1.807804,0 0,-1.8433 1.807804,0 0,-1.8787 -1.807804,0 0,-1.8433 1.807804,0 0,-1.8786 -1.807804,0 0,-1.8433 1.807804,0 0,-1.8787 -1.807804,0 0,-1.8433 -1.878699,0 z m -8.79089,7.1604 c 0.248084,-0.033 0.502649,0.088 0.638048,0.319 l 0.602601,1.028 c 0.180532,0.3066 0.09389,0.7055 -0.212682,0.8862 l -1.98504,1.1697 c -0.306565,0.1806 -0.705647,0.058 -0.886179,-0.2481 l -0.602601,-1.028 c -0.180532,-0.3066 -0.05844,-0.7058 0.24813,-0.8861 l 1.949593,-1.1343 c 0.07665,-0.045 0.165435,-0.095 0.24813,-0.1067 z m 8.79089,22.6152 0,1.8788 1.807805,0 0,1.8077 -1.807805,0 0,1.8788 1.807805,0 0,1.8433 1.878698,0 0,-1.8788 -1.807804,0 0,-1.8078 1.807804,0 0,-1.8787 -1.807804,0 0,-1.8433 -1.878699,0 z"
       id="path3798"
       inkscape:connector-curvature="0" />
    <g
       style="fill:#000000"
       id="g4098"
       transform="matrix(1.817774,-0.01565008,0.01565008,1.817774,-34.284591,-834.10997)" />
    <path
       inkscape:connector-curvature="0"
       style="fill:#000000;fill-opacity:0.25490196;stroke:none"
       d="m 15.468753,1033.3623 c -0.538638,0 -0.96875,0.4301 -0.96875,0.9687 l 0,22.0623 c 0,0.5387 0.430112,0.9688 0.96875,0.9688 l 22.0625,0 c 0.538638,0 0.96875,-0.4301 0.96875,-0.9688 l 0,-22.0623 c 0,-0.5386 -0.430112,-0.9687 -0.96875,-0.9687 l -22.0625,0 z m 0.296875,0.3281 21.46875,0 c 0.52405,0 0.937499,0.4134 0.937499,0.9375 l 0,21.4686 c 0,0.524 -0.413449,0.9375 -0.937499,0.9375 l -21.46875,0 c -0.52405,0 -0.937499,-0.4135 -0.937499,-0.9375 l 0,-21.4686 c 0,-0.5241 0.413449,-0.9375 0.937499,-0.9375 z"
       id="rect4280" />
  </g>
</svg>
