<?xml version="1.0" encoding="UTF-8" standalone="no"?>
<!-- Created with Inkscape (http://www.inkscape.org/) -->

<svg
   xmlns:dc="http://purl.org/dc/elements/1.1/"
   xmlns:cc="http://creativecommons.org/ns#"
   xmlns:rdf="http://www.w3.org/1999/02/22-rdf-syntax-ns#"
   xmlns:svg="http://www.w3.org/2000/svg"
   xmlns="http://www.w3.org/2000/svg"
   xmlns:xlink="http://www.w3.org/1999/xlink"
   xmlns:sodipodi="http://sodipodi.sourceforge.net/DTD/sodipodi-0.dtd"
   xmlns:inkscape="http://www.inkscape.org/namespaces/inkscape"
   width="79.991997"
   height="79.999535"
   id="svg4768"
   version="1.1"
   inkscape:version="0.48.3.1 r9886"
   sodipodi:docname="avi.svg"
   inkscape:export-filename="/home/christian/Dokumente/Arbeit/FH D/eLearning/Moodle/moodle-theme_anomalyred/pix_core/f/avi-256.png"
   inkscape:export-xdpi="288.00168"
   inkscape:export-ydpi="288.00168" preserveAspectRatio="xMinYMid meet">
  <defs
     id="defs4770">
    <linearGradient
       id="linearGradient3824">
      <stop
         style="stop-color:#468800;stop-opacity:1;"
         offset="0"
         id="stop3826" />
      <stop
         style="stop-color:#9fff00;stop-opacity:1;"
         offset="1"
         id="stop3828" />
    </linearGradient>
    <linearGradient
       id="linearGradient4136">
      <stop
         id="stop4150"
         offset="0"
         style="stop-color:#9d9d9d;stop-opacity:1;" />
      <stop
         id="stop4148"
         offset="0.5"
         style="stop-color:#e3e3e3;stop-opacity:1;" />
      <stop
         style="stop-color:#ffffff;stop-opacity:1;"
         offset="1"
         id="stop4140" />
    </linearGradient>
    <linearGradient
       id="linearGradient4126">
      <stop
         style="stop-color:#d9c183;stop-opacity:1"
         offset="0"
         id="stop4128" />
      <stop
         id="stop4130"
         offset="0.5"
         style="stop-color:#f5e4b7;stop-opacity:1" />
      <stop
         id="stop4132"
         offset="1"
         style="stop-color:#cfb469;stop-opacity:1" />
    </linearGradient>
    <linearGradient
       id="linearGradient4108">
      <stop
         id="stop4114"
         offset="0"
         style="stop-color:#e5d5ab;stop-opacity:1;" />
      <stop
         style="stop-color:#f9f0d9;stop-opacity:1;"
         offset="0.5"
         id="stop4120" />
      <stop
         style="stop-color:#e5d5ab;stop-opacity:1;"
         offset="1"
         id="stop4116" />
    </linearGradient>
    <linearGradient
       id="linearGradient3811">
      <stop
         id="stop3813"
         offset="0"
         style="stop-color:#8a7440;stop-opacity:1;" />
      <stop
         style="stop-color:#9c7a28;stop-opacity:1;"
         offset="0.32327268"
         id="stop3815" />
      <stop
         style="stop-color:#b49851;stop-opacity:1;"
         offset="0.69999999"
         id="stop3817" />
      <stop
         id="stop3819"
         offset="1"
         style="stop-color:#d6ba6e;stop-opacity:1;" />
    </linearGradient>
    <linearGradient
       id="linearGradient5412">
      <stop
         id="stop5414"
         offset="0"
         style="stop-color:#8a7440;stop-opacity:1;" />
      <stop
         style="stop-color:#9c7a28;stop-opacity:1;"
         offset="0.28"
         id="stop5416" />
      <stop
         style="stop-color:#b49851;stop-opacity:1;"
         offset="0.78399998"
         id="stop5418" />
      <stop
         id="stop5420"
         offset="1"
         style="stop-color:#d6ba6e;stop-opacity:1;" />
    </linearGradient>
    <linearGradient
       id="linearGradient5354">
      <stop
         style="stop-color:#8a7440;stop-opacity:1;"
         offset="0"
         id="stop5356" />
      <stop
         id="stop5364"
         offset="0.17296876"
         style="stop-color:#9c7a28;stop-opacity:1;" />
      <stop
         id="stop5362"
         offset="0.57656252"
         style="stop-color:#b49851;stop-opacity:1;" />
      <stop
         style="stop-color:#d6ba6e;stop-opacity:1;"
         offset="1"
         id="stop5358" />
    </linearGradient>
    <linearGradient
       id="linearGradient5336">
      <stop
         style="stop-color:#f4ff5a;stop-opacity:1;"
         offset="0"
         id="stop5338" />
      <stop
         style="stop-color:#74a61a;stop-opacity:1;"
         offset="1"
         id="stop5340" />
    </linearGradient>
    <inkscape:perspective
       sodipodi:type="inkscape:persp3d"
       inkscape:vp_x="3.045074e-06 : 526.18109 : 1"
       inkscape:vp_y="0 : 1000 : 0"
       inkscape:vp_z="744.09448 : 526.18109 : 1"
       inkscape:persp3d-origin="372.04724 : 350.78739 : 1"
       id="perspective4778" />
    <linearGradient
       inkscape:collect="always"
       xlink:href="#linearGradient5412"
       id="linearGradient5410"
       x1="495.4935"
       y1="768.9303"
       x2="495.4935"
       y2="497.69806"
       gradientUnits="userSpaceOnUse" />
    <linearGradient
       y2="400.39584"
       x2="317.6174"
       y1="521.40619"
       x1="317.6174"
       gradientUnits="userSpaceOnUse"
       id="linearGradient3011"
       xlink:href="#linearGradient3023"
       inkscape:collect="always" />
    <linearGradient
       gradientUnits="userSpaceOnUse"
       y2="400.39584"
       x2="317.6174"
       y1="521.40619"
       x1="317.6174"
       id="linearGradient3029"
       xlink:href="#linearGradient3023"
       inkscape:collect="always" />
    <linearGradient
       id="linearGradient3023"
       inkscape:collect="always">
      <stop
         id="stop3025"
         offset="0"
         style="stop-color:#333333;stop-opacity:1" />
      <stop
         id="stop3027"
         offset="1"
         style="stop-color:#000000;stop-opacity:0;" />
    </linearGradient>
    <linearGradient
       y2="400.39584"
       x2="317.6174"
       y1="521.40619"
       x1="317.6174"
       gradientUnits="userSpaceOnUse"
       id="linearGradient3011-2"
       xlink:href="#linearGradient3023-8"
       inkscape:collect="always" />
    <linearGradient
       gradientUnits="userSpaceOnUse"
       y2="400.39584"
       x2="317.6174"
       y1="521.40619"
       x1="317.6174"
       id="linearGradient3029-8"
       xlink:href="#linearGradient3023-8"
       inkscape:collect="always" />
    <linearGradient
       id="linearGradient3023-8"
       inkscape:collect="always">
      <stop
         id="stop3025-0"
         offset="0"
         style="stop-color:#333333;stop-opacity:1" />
      <stop
         id="stop3027-8"
         offset="1"
         style="stop-color:#000000;stop-opacity:0;" />
    </linearGradient>
    <linearGradient
       inkscape:collect="always"
       xlink:href="#linearGradient5412"
       id="linearGradient3076"
       gradientUnits="userSpaceOnUse"
       x1="495.4935"
       y1="768.9303"
       x2="495.4935"
       y2="497.69806" />
    <linearGradient
       inkscape:collect="always"
       xlink:href="#linearGradient5412"
       id="linearGradient3078"
       gradientUnits="userSpaceOnUse"
       x1="495.4935"
       y1="768.9303"
       x2="495.4935"
       y2="497.69806" />
    <linearGradient
       inkscape:collect="always"
       xlink:href="#linearGradient5412"
       id="linearGradient3080"
       gradientUnits="userSpaceOnUse"
       x1="495.4935"
       y1="768.9303"
       x2="495.4935"
       y2="497.69806" />
    <linearGradient
       inkscape:collect="always"
       xlink:href="#linearGradient4126"
       id="linearGradient3862"
       gradientUnits="userSpaceOnUse"
       gradientTransform="matrix(0,0.18474369,0.84549028,0,133.55983,134.09617)"
       x1="181.44475"
       y1="458.73257"
       x2="511.7583"
       y2="486.30695" />
    <linearGradient
       inkscape:collect="always"
       xlink:href="#linearGradient4108"
       id="linearGradient3865"
       gradientUnits="userSpaceOnUse"
       gradientTransform="matrix(0.98772205,0,0,0.37980987,48.750454,-7.7167911)"
       x1="238.6882"
       y1="473.97665"
       x2="492.97528"
       y2="482.39819" />
    <linearGradient
       inkscape:collect="always"
       xlink:href="#linearGradient3811"
       id="linearGradient3868"
       gradientUnits="userSpaceOnUse"
       gradientTransform="matrix(0.98772205,0,0,0.98772205,48.750454,-295.62807)"
       x1="348.09857"
       y1="516.61255"
       x2="348.09857"
       y2="476.30734" />
    <linearGradient
       inkscape:collect="always"
       xlink:href="#linearGradient5354"
       id="linearGradient3874"
       gradientUnits="userSpaceOnUse"
       gradientTransform="matrix(0.96844992,0,0,1.0052832,52.715728,-304.22172)"
       x1="342.17322"
       y1="857.11627"
       x2="342.17322"
       y2="499.80078" />
    <linearGradient
       inkscape:collect="always"
       xlink:href="#linearGradient4126"
       id="linearGradient3879"
       gradientUnits="userSpaceOnUse"
       gradientTransform="matrix(0,0.18474369,0.84549028,0,133.55983,341.27846)"
       x1="181.44475"
       y1="458.73257"
       x2="511.7583"
       y2="486.30695" />
    <linearGradient
       inkscape:collect="always"
       xlink:href="#linearGradient5412"
       id="linearGradient3833"
       gradientUnits="userSpaceOnUse"
       x1="495.4935"
       y1="768.9303"
       x2="495.4935"
       y2="497.69806" />
    <linearGradient
       inkscape:collect="always"
       xlink:href="#linearGradient3811"
       id="linearGradient3830"
       x1="261.1684"
       y1="468.59735"
       x2="261.1684"
       y2="426.41534"
       gradientUnits="userSpaceOnUse"
       gradientTransform="matrix(1.0693277,0,0,1.0693277,-18.103341,-31.043504)" />
    <linearGradient
       inkscape:collect="always"
       xlink:href="#linearGradient4136"
       id="linearGradient3853"
       x1="265.84116"
       y1="456.62814"
       x2="265.84116"
       y2="435.47223"
       gradientUnits="userSpaceOnUse"
       gradientTransform="translate(-3.9594688,0.16258621)" />
    <linearGradient
       inkscape:collect="always"
       xlink:href="#linearGradient4136"
       id="linearGradient3873"
       gradientUnits="userSpaceOnUse"
       gradientTransform="translate(1.9625505,0.16258621)"
       x1="265.84116"
       y1="456.62814"
       x2="265.84116"
       y2="435.47223" />
    <linearGradient
       inkscape:collect="always"
       xlink:href="#linearGradient4136"
       id="linearGradient3977"
       gradientUnits="userSpaceOnUse"
       gradientTransform="translate(-7.3041158,-0.10258103)"
       x1="265.84116"
       y1="456.62814"
       x2="265.84116"
       y2="435.47223" />
    <linearGradient
       inkscape:collect="always"
       xlink:href="#linearGradient4136"
       id="linearGradient3987"
       gradientUnits="userSpaceOnUse"
       gradientTransform="translate(-7.3041158,-0.10258103)"
       x1="265.84116"
       y1="456.62814"
       x2="265.84116"
       y2="435.47223" />
    <linearGradient
       y2="1002.9312"
       x2="24.113745"
       y1="1065.1559"
       x1="24.113745"
       gradientTransform="matrix(0.96799712,0,0,1.0252613,237.8948,-606.5607)"
       gradientUnits="userSpaceOnUse"
       id="linearGradient3321"
       xlink:href="#linearGradient3811-2"
       inkscape:collect="always" />
    <linearGradient
       id="linearGradient3811-2">
      <stop
         id="stop3813-1"
         offset="0"
         style="stop-color:#8a6c40;stop-opacity:1;" />
      <stop
         style="stop-color:#9c7728;stop-opacity:1;"
         offset="0.32327268"
         id="stop3815-6" />
      <stop
         style="stop-color:#b49851;stop-opacity:1;"
         offset="0.69999999"
         id="stop3817-5" />
      <stop
         id="stop3819-6"
         offset="1"
         style="stop-color:#d6ba6e;stop-opacity:1;" />
    </linearGradient>
    <linearGradient
       id="linearGradient6707">
      <stop
         id="stop6709"
         offset="0"
         style="stop-color:#000000;stop-opacity:1;" />
      <stop
         id="stop6711"
         offset="1"
         style="stop-color:#ffffff;stop-opacity:1;" />
    </linearGradient>
    <linearGradient
       y2="468.35892"
       x2="314.34872"
       y1="425.61682"
       x1="314.34872"
       gradientTransform="translate(-53.785477,-0.003684)"
       gradientUnits="userSpaceOnUse"
       id="linearGradient1187"
       xlink:href="#linearGradient1069"
       inkscape:collect="always" />
    <linearGradient
       id="linearGradient1069">
      <stop
         style="stop-color:#ffffff;stop-opacity:1"
         offset="0"
         id="stop1071" />
      <stop
         style="stop-color:#e6e6e6;stop-opacity:1"
         offset="1"
         id="stop1073" />
    </linearGradient>
    <linearGradient
       inkscape:collect="always"
       xlink:href="#linearGradient6707"
       id="linearGradient3107"
       gradientUnits="userSpaceOnUse"
       gradientTransform="matrix(5.7965821,0,0,8.5405965,-1252.516,-3435.5993)"
       x1="262.01361"
       y1="471.95245"
       x2="262.01361"
       y2="442.7843" />
    <linearGradient
       inkscape:collect="always"
       xlink:href="#linearGradient6707"
       id="linearGradient3079"
       gradientUnits="userSpaceOnUse"
       gradientTransform="matrix(5.7965821,0,0,8.5405965,-1252.516,-3435.5993)"
       x1="262.01361"
       y1="471.95245"
       x2="262.01361"
       y2="442.7843" />
    <linearGradient
       inkscape:collect="always"
       xlink:href="#linearGradient6707"
       id="linearGradient3077"
       gradientUnits="userSpaceOnUse"
       gradientTransform="matrix(1.8114204,0,0,2.6689195,-211.88361,-765.76882)"
       x1="262.01361"
       y1="471.95245"
       x2="262.01361"
       y2="442.7843" />
    <linearGradient
       inkscape:collect="always"
       xlink:href="#linearGradient6707"
       id="linearGradient3941"
       gradientUnits="userSpaceOnUse"
       gradientTransform="matrix(1.8114204,0,0,2.6689195,-211.88361,-765.76882)"
       x1="262.01361"
       y1="471.95245"
       x2="262.01361"
       y2="442.7843" />
  </defs>
  <sodipodi:namedview
     id="base"
     pagecolor="#ffffff"
     bordercolor="#666666"
     borderopacity="1.0"
     inkscape:pageopacity="0.0"
     inkscape:pageshadow="2"
     inkscape:zoom="45.254832"
     inkscape:cx="20.119829"
     inkscape:cy="38.084856"
     inkscape:document-units="px"
     inkscape:current-layer="layer1"
     showgrid="false"
     inkscape:window-width="1920"
     inkscape:window-height="1029"
     inkscape:window-x="0"
     inkscape:window-y="26"
     inkscape:window-maximized="1"
     showguides="true"
     inkscape:guide-bbox="true"
     fit-margin-top="0"
     fit-margin-left="0.47"
     fit-margin-right="0.47"
     fit-margin-bottom="0">
    <inkscape:grid
       type="xygrid"
       id="grid3230"
       empspacing="5"
       visible="true"
       enabled="true"
       snapvisiblegridlinesonly="true"
       originx="-87.997976px"
       originy="-88.000276px" />
  </sodipodi:namedview>
  <metadata
     id="metadata4773">
    <rdf:RDF>
      <cc:Work
         rdf:about="">
        <dc:format>image/svg+xml</dc:format>
        <dc:type
           rdf:resource="http://purl.org/dc/dcmitype/StillImage" />
        <dc:title></dc:title>
      </cc:Work>
    </rdf:RDF>
  </metadata>
  <g
     inkscape:label="Capa 1"
     inkscape:groupmode="layer"
     id="layer1"
     transform="translate(-221.13076,-407.77954)">
    <path
       style="opacity:0.5;fill:#000000;fill-opacity:1;stroke:none"
       d="m 224.53343,407.77954 73.18664,0 c 1.62472,0 2.93269,1.44542 2.93269,3.24087 l 0,73.51778 c 0,1.79548 -1.30797,3.24089 -2.93269,3.24089 l -73.18664,0 c -1.6247,0 -2.93267,-1.44543 -2.93267,-3.24089 l 0,-73.51778 c 0,-1.79545 1.30797,-3.24087 2.93267,-3.24087 z"
       id="rect3922"
       inkscape:connector-curvature="0" />
    <path
       inkscape:connector-curvature="0"
       id="path869"
       d="m 225.26564,408.79475 71.72221,0 c 1.58347,0 2.85826,1.36484 2.85826,3.06018 l 0,69.41809 c 0,1.69536 -1.27479,3.06018 -2.85826,3.06018 l -71.72221,0 c -1.58347,0 -2.85824,-1.36482 -2.85824,-3.06018 l 0,-69.41809 c 0,-1.69534 1.27479,-3.06018 2.85824,-3.06018 z"
       style="fill:#ffffff;fill-opacity:1;stroke:none" />
    <path
       inkscape:connector-curvature="0"
       style="fill:url(#linearGradient3941);fill-opacity:1;stroke:none"
       d="m 222.38589,464.09107 0,18.01521 c 0,2.57828 1.24689,4.67061 2.83035,4.67061 l 71.77753,0 c 1.58349,0 2.83034,-2.09233 2.83034,-4.67061 l 0,-18.01521 -77.43822,0 z"
       id="path874" />
    <g
       id="g3877"
       transform="translate(-0.50015,0)"
       style="fill:#000000;fill-opacity:1">
      <path
         style="fill:#000000;fill-opacity:1;stroke:none"
         d="m 237.63091,449.5 1.24261,0.69903 0,5.28153 c 0,0.7483 -0.67334,0.81233 -1.16511,1.08737 0.0426,0.48189 0.0568,0.80177 0.3108,1.39805 0.29397,0.56174 1.13469,0.80111 1.94172,1.00971 l 43.49486,0 c 0.48041,-0.0855 1.02067,0.13386 1.39801,-0.54369 l 0.77681,-1.7864 -1.47571,-0.77669 0,-5.82522 1.24261,-0.62136 0,-26.09696 -1.08721,-0.62136 0,-5.28153 0.93201,-0.85437 0,-1.63106 c -0.28098,-0.52086 -0.79669,-0.83729 -1.55342,-0.85436 l -44.03876,0 c -0.82104,0.0726 -1.45746,0.34456 -1.78632,1.08737 -0.15418,0.43831 -0.22377,0.84478 0,1.16505 0.67902,0.31366 0.61694,0.60338 1.08741,1.08737 l 0,5.12619 c -0.32926,0.88421 -0.58245,0.90933 -1.32031,1.24271 l 0,2.25242 c 0,-0.19937 0.18867,-0.31068 0.3883,-0.31068 l 7.84459,0 c 0.19881,0 0.3106,0.1113 0.3106,0.31068 l 0,21.35913 c 0,0.19936 -0.11158,0.38834 -0.3106,0.38834 l -7.84459,0 c -0.19881,0 -0.3883,-0.18898 -0.3883,-0.38834 l 0,2.09707 z m 3.72804,5.90289 0,-4.66017 c 0,-0.5444 0.46539,-1.00971 1.00971,-1.00971 l 1.39801,0 c 0.54452,0 1.00971,0.46531 1.00971,1.00971 l 0,4.66017 c 0,0.5444 -0.46519,1.0097 -1.00971,1.0097 l -1.39801,0 c -0.54432,0 -1.00971,-0.4653 -1.00971,-1.0097 z m 0,-33.1649 0,-4.66017 c 0,-0.5444 0.46539,-0.93204 1.00971,-0.93204 l 1.39801,0 c 0.54452,0 1.00971,0.38764 1.00971,0.93204 l 0,4.66017 c 0,0.5444 -0.46519,1.0097 -1.00971,1.0097 l -1.39801,0 c -0.54432,0 -1.00971,-0.4653 -1.00971,-1.0097 z m 6.05826,33.1649 0,-4.66017 c 0,-0.5444 0.4654,-1.00971 1.00971,-1.00971 l 1.39802,0 c 0.54431,0 1.00971,0.46531 1.00971,1.00971 l 0,4.66017 c 0,0.5444 -0.4654,1.0097 -1.00971,1.0097 l -1.39802,0 c -0.54431,0 -1.00971,-0.4653 -1.00971,-1.0097 z m 0,-33.1649 0,-4.66017 c 0,-0.5444 0.4654,-0.93204 1.00971,-0.93204 l 1.39802,0 c 0.54431,0 1.00971,0.38764 1.00971,0.93204 l 0,4.66017 c 0,0.5444 -0.4654,1.0097 -1.00971,1.0097 l -1.39802,0 c -0.54431,0 -1.00971,-0.4653 -1.00971,-1.0097 z m 1.16491,24.46591 0,-19.96107 c 0,-0.58021 0.50719,-1.00971 1.08741,-1.00971 l 22.83484,0 c 0.58023,0 1.00971,0.4295 1.00971,1.00971 l 0,19.96107 c 0,0.5802 -0.42948,1.08737 -1.00971,1.08737 l -22.83484,0 c -0.58022,0 -1.08741,-0.50717 -1.08741,-1.08737 z m 4.81565,8.69899 0,-4.66017 c 0,-0.5444 0.4654,-1.00971 1.00972,-1.00971 l 1.39801,0 c 0.54431,0 1.00971,0.46531 1.00971,1.00971 l 0,4.66017 c 0,0.5444 -0.4654,1.0097 -1.00971,1.0097 l -1.39801,0 c -0.54432,0 -1.00972,-0.4653 -1.00972,-1.0097 z m 0,-33.1649 0,-4.66017 c 0,-0.5444 0.4654,-0.93204 1.00972,-0.93204 l 1.39801,0 c 0.54431,0 1.00971,0.38764 1.00971,0.93204 l 0,4.66017 c 0,0.5444 -0.4654,1.0097 -1.00971,1.0097 l -1.39801,0 c -0.54432,0 -1.00972,-0.4653 -1.00972,-1.0097 z m 6.05827,33.1649 0,-4.66017 c 0,-0.5444 0.4654,-1.00971 1.00971,-1.00971 l 1.39801,0 c 0.54452,0 1.00971,0.46531 1.00971,1.00971 l 0,4.66017 c 0,0.5444 -0.46519,1.0097 -1.00971,1.0097 l -1.39801,0 c -0.54431,0 -1.00971,-0.4653 -1.00971,-1.0097 z m 0,-33.1649 0,-4.66017 c 0,-0.5444 0.4654,-0.93204 1.00971,-0.93204 l 1.39801,0 c 0.54452,0 1.00971,0.38764 1.00971,0.93204 l 0,4.66017 c 0,0.5444 -0.46519,1.0097 -1.00971,1.0097 l -1.39801,0 c -0.54431,0 -1.00971,-0.4653 -1.00971,-1.0097 z m 5.98056,33.1649 0,-4.66017 c 0,-0.5444 0.46499,-1.00971 1.00951,-1.00971 l 1.39822,0 c 0.54431,0 1.00971,0.46531 1.00971,1.00971 l 0,4.66017 c 0,0.5444 -0.4654,1.0097 -1.00971,1.0097 l -1.39822,0 c -0.54452,0 -1.00951,-0.4653 -1.00951,-1.0097 z m 0,-33.1649 0,-4.66017 c 0,-0.5444 0.46499,-0.93204 1.00951,-0.93204 l 1.39822,0 c 0.54431,0 1.00971,0.38764 1.00971,0.93204 l 0,4.66017 c 0,0.5444 -0.4654,1.0097 -1.00971,1.0097 l -1.39822,0 c -0.54452,0 -1.00951,-0.4653 -1.00951,-1.0097 z m 6.05806,33.1649 0,-4.66017 c 0,-0.5444 0.3877,-1.00971 0.93201,-1.00971 l 1.47572,0 c 0.54431,0 1.00971,0.46531 1.00971,1.00971 l 0,4.66017 c 0,0.5444 -0.4654,1.0097 -1.00971,1.0097 l -1.47572,0 c -0.54431,0 -0.93201,-0.4653 -0.93201,-1.0097 z m 0,-33.1649 0,-4.66017 c 0,-0.5444 0.3877,-0.93204 0.93201,-0.93204 l 1.47572,0 c 0.54431,0 1.00971,0.38764 1.00971,0.93204 l 0,4.66017 c 0,0.5444 -0.4654,1.0097 -1.00971,1.0097 l -1.47572,0 c -0.54431,0 -0.93201,-0.4653 -0.93201,-1.0097 z m 5.04856,25.16494 0,-21.35913 c 0,-0.19937 0.18867,-0.31068 0.3883,-0.31068 l 7.84479,0 c 0.19881,0 0.3106,0.1113 0.3106,0.31068 l 0,21.35913 c 0,0.19936 -0.11158,0.38834 -0.3106,0.38834 l -7.84479,0 c -0.19882,0 -0.3883,-0.18898 -0.3883,-0.38834 z m 0.93201,7.99996 0,-4.66017 c 0,-0.5444 0.46539,-1.00971 1.00971,-1.00971 l 1.39801,0 c 0.54472,0 1.00971,0.46531 1.00971,1.00971 l 0,4.66017 c 0,0.5444 -0.46499,1.0097 -1.00971,1.0097 l -1.39801,0 c -0.54432,0 -1.00971,-0.4653 -1.00971,-1.0097 z m 0,-33.1649 0,-4.66017 c 0,-0.5444 0.46539,-0.93204 1.00971,-0.93204 l 1.39801,0 c 0.54472,0 1.00971,0.38764 1.00971,0.93204 l 0,4.66017 c 0,0.5444 -0.46499,1.0097 -1.00971,1.0097 l -1.39801,0 c -0.54432,0 -1.00971,-0.4653 -1.00971,-1.0097 z"
         id="path3879"
         inkscape:connector-curvature="0" />
      <path
         sodipodi:type="star"
         style="fill:#000000;fill-opacity:1;stroke:none"
         id="path3881"
         sodipodi:sides="3"
         sodipodi:cx="15.875"
         sodipodi:cy="19.125"
         sodipodi:r1="15.525181"
         sodipodi:r2="7.7625904"
         sodipodi:arg1="1.0471976"
         sodipodi:arg2="2.0943951"
         inkscape:flatsided="false"
         inkscape:rounded="0"
         inkscape:randomized="0"
         d="M 23.63759,32.570201 11.993705,25.847601 0.34981918,19.124999 11.993705,12.4024 23.637591,5.6797994 23.63759,19.125 z"
         transform="matrix(0.30749487,0.53259668,-0.53259668,0.30749487,265.59219,422.12708)"
         inkscape:transform-center-x="-2.1622796"
         inkscape:transform-center-y="3.3692568e-05" />
    </g>
    <g
       id="g3873">
      <path
         inkscape:connector-curvature="0"
         id="path3803-3"
         d="m 237.63091,449.5 1.24261,0.69903 0,5.28153 c 0,0.7483 -0.67334,0.81233 -1.16511,1.08737 0.0426,0.48189 0.0568,0.80177 0.3108,1.39805 0.29397,0.56174 1.13469,0.80111 1.94172,1.00971 l 43.49486,0 c 0.48041,-0.0855 1.02067,0.13386 1.39801,-0.54369 l 0.77681,-1.7864 -1.47571,-0.77669 0,-5.82522 1.24261,-0.62136 0,-26.09696 -1.08721,-0.62136 0,-5.28153 0.93201,-0.85437 0,-1.63106 c -0.28098,-0.52086 -0.79669,-0.83729 -1.55342,-0.85436 l -44.03876,0 c -0.82104,0.0726 -1.45746,0.34456 -1.78632,1.08737 -0.15418,0.43831 -0.22377,0.84478 0,1.16505 0.67902,0.31366 0.61694,0.60338 1.08741,1.08737 l 0,5.12619 c -0.32926,0.88421 -0.58245,0.90933 -1.32031,1.24271 l 0,2.25242 c 0,-0.19937 0.18867,-0.31068 0.3883,-0.31068 l 7.84459,0 c 0.19881,0 0.3106,0.1113 0.3106,0.31068 l 0,21.35913 c 0,0.19936 -0.11158,0.38834 -0.3106,0.38834 l -7.84459,0 c -0.19881,0 -0.3883,-0.18898 -0.3883,-0.38834 l 0,2.09707 z m 3.72804,5.90289 0,-4.66017 c 0,-0.5444 0.46539,-1.00971 1.00971,-1.00971 l 1.39801,0 c 0.54452,0 1.00971,0.46531 1.00971,1.00971 l 0,4.66017 c 0,0.5444 -0.46519,1.0097 -1.00971,1.0097 l -1.39801,0 c -0.54432,0 -1.00971,-0.4653 -1.00971,-1.0097 z m 0,-33.1649 0,-4.66017 c 0,-0.5444 0.46539,-0.93204 1.00971,-0.93204 l 1.39801,0 c 0.54452,0 1.00971,0.38764 1.00971,0.93204 l 0,4.66017 c 0,0.5444 -0.46519,1.0097 -1.00971,1.0097 l -1.39801,0 c -0.54432,0 -1.00971,-0.4653 -1.00971,-1.0097 z m 6.05826,33.1649 0,-4.66017 c 0,-0.5444 0.4654,-1.00971 1.00971,-1.00971 l 1.39802,0 c 0.54431,0 1.00971,0.46531 1.00971,1.00971 l 0,4.66017 c 0,0.5444 -0.4654,1.0097 -1.00971,1.0097 l -1.39802,0 c -0.54431,0 -1.00971,-0.4653 -1.00971,-1.0097 z m 0,-33.1649 0,-4.66017 c 0,-0.5444 0.4654,-0.93204 1.00971,-0.93204 l 1.39802,0 c 0.54431,0 1.00971,0.38764 1.00971,0.93204 l 0,4.66017 c 0,0.5444 -0.4654,1.0097 -1.00971,1.0097 l -1.39802,0 c -0.54431,0 -1.00971,-0.4653 -1.00971,-1.0097 z m 1.16491,24.46591 0,-19.96107 c 0,-0.58021 0.50719,-1.00971 1.08741,-1.00971 l 22.83484,0 c 0.58023,0 1.00971,0.4295 1.00971,1.00971 l 0,19.96107 c 0,0.5802 -0.42948,1.08737 -1.00971,1.08737 l -22.83484,0 c -0.58022,0 -1.08741,-0.50717 -1.08741,-1.08737 z m 4.81565,8.69899 0,-4.66017 c 0,-0.5444 0.4654,-1.00971 1.00972,-1.00971 l 1.39801,0 c 0.54431,0 1.00971,0.46531 1.00971,1.00971 l 0,4.66017 c 0,0.5444 -0.4654,1.0097 -1.00971,1.0097 l -1.39801,0 c -0.54432,0 -1.00972,-0.4653 -1.00972,-1.0097 z m 0,-33.1649 0,-4.66017 c 0,-0.5444 0.4654,-0.93204 1.00972,-0.93204 l 1.39801,0 c 0.54431,0 1.00971,0.38764 1.00971,0.93204 l 0,4.66017 c 0,0.5444 -0.4654,1.0097 -1.00971,1.0097 l -1.39801,0 c -0.54432,0 -1.00972,-0.4653 -1.00972,-1.0097 z m 6.05827,33.1649 0,-4.66017 c 0,-0.5444 0.4654,-1.00971 1.00971,-1.00971 l 1.39801,0 c 0.54452,0 1.00971,0.46531 1.00971,1.00971 l 0,4.66017 c 0,0.5444 -0.46519,1.0097 -1.00971,1.0097 l -1.39801,0 c -0.54431,0 -1.00971,-0.4653 -1.00971,-1.0097 z m 0,-33.1649 0,-4.66017 c 0,-0.5444 0.4654,-0.93204 1.00971,-0.93204 l 1.39801,0 c 0.54452,0 1.00971,0.38764 1.00971,0.93204 l 0,4.66017 c 0,0.5444 -0.46519,1.0097 -1.00971,1.0097 l -1.39801,0 c -0.54431,0 -1.00971,-0.4653 -1.00971,-1.0097 z m 5.98056,33.1649 0,-4.66017 c 0,-0.5444 0.46499,-1.00971 1.00951,-1.00971 l 1.39822,0 c 0.54431,0 1.00971,0.46531 1.00971,1.00971 l 0,4.66017 c 0,0.5444 -0.4654,1.0097 -1.00971,1.0097 l -1.39822,0 c -0.54452,0 -1.00951,-0.4653 -1.00951,-1.0097 z m 0,-33.1649 0,-4.66017 c 0,-0.5444 0.46499,-0.93204 1.00951,-0.93204 l 1.39822,0 c 0.54431,0 1.00971,0.38764 1.00971,0.93204 l 0,4.66017 c 0,0.5444 -0.4654,1.0097 -1.00971,1.0097 l -1.39822,0 c -0.54452,0 -1.00951,-0.4653 -1.00951,-1.0097 z m 6.05806,33.1649 0,-4.66017 c 0,-0.5444 0.3877,-1.00971 0.93201,-1.00971 l 1.47572,0 c 0.54431,0 1.00971,0.46531 1.00971,1.00971 l 0,4.66017 c 0,0.5444 -0.4654,1.0097 -1.00971,1.0097 l -1.47572,0 c -0.54431,0 -0.93201,-0.4653 -0.93201,-1.0097 z m 0,-33.1649 0,-4.66017 c 0,-0.5444 0.3877,-0.93204 0.93201,-0.93204 l 1.47572,0 c 0.54431,0 1.00971,0.38764 1.00971,0.93204 l 0,4.66017 c 0,0.5444 -0.4654,1.0097 -1.00971,1.0097 l -1.47572,0 c -0.54431,0 -0.93201,-0.4653 -0.93201,-1.0097 z m 5.04856,25.16494 0,-21.35913 c 0,-0.19937 0.18867,-0.31068 0.3883,-0.31068 l 7.84479,0 c 0.19881,0 0.3106,0.1113 0.3106,0.31068 l 0,21.35913 c 0,0.19936 -0.11158,0.38834 -0.3106,0.38834 l -7.84479,0 c -0.19882,0 -0.3883,-0.18898 -0.3883,-0.38834 z m 0.93201,7.99996 0,-4.66017 c 0,-0.5444 0.46539,-1.00971 1.00971,-1.00971 l 1.39801,0 c 0.54472,0 1.00971,0.46531 1.00971,1.00971 l 0,4.66017 c 0,0.5444 -0.46499,1.0097 -1.00971,1.0097 l -1.39801,0 c -0.54432,0 -1.00971,-0.4653 -1.00971,-1.0097 z m 0,-33.1649 0,-4.66017 c 0,-0.5444 0.46539,-0.93204 1.00971,-0.93204 l 1.39801,0 c 0.54472,0 1.00971,0.38764 1.00971,0.93204 l 0,4.66017 c 0,0.5444 -0.46499,1.0097 -1.00971,1.0097 l -1.39801,0 c -0.54432,0 -1.00971,-0.4653 -1.00971,-1.0097 z"
         style="fill:#ff0000;fill-opacity:1;stroke:none" />
      <path
         inkscape:transform-center-y="3.3692568e-05"
         inkscape:transform-center-x="-2.1622796"
         transform="matrix(0.30749487,0.53259668,-0.53259668,0.30749487,265.59219,422.12708)"
         d="M 23.63759,32.570201 11.993705,25.847601 0.34981918,19.124999 11.993705,12.4024 23.637591,5.6797994 23.63759,19.125 z"
         inkscape:randomized="0"
         inkscape:rounded="0"
         inkscape:flatsided="false"
         sodipodi:arg2="2.0943951"
         sodipodi:arg1="1.0471976"
         sodipodi:r2="7.7625904"
         sodipodi:r1="15.525181"
         sodipodi:cy="19.125"
         sodipodi:cx="15.875"
         sodipodi:sides="3"
         id="path3817-8"
         style="fill:#ff0000;fill-opacity:1;stroke:none"
         sodipodi:type="star" />
    </g>
    <g
       id="g3831"
       transform="matrix(3.1422296,0,0,2.0239526,209.94276,-1640.534)">
      <path
         d="m 19.396723,1042.6692 -0.783693,5.929 -2.340088,0 -0.889891,-5.929 1.625976,0 q 0.281982,2.45 0.402831,4.1418 0.120851,-1.7102 0.252687,-3.0395 l 0.106201,-1.1023 1.625977,0 z"
         id="path4054"
         inkscape:connector-curvature="0"
         style="font-size:7.5px;font-style:normal;font-variant:normal;font-weight:bold;font-stretch:normal;line-height:125%;letter-spacing:0px;word-spacing:0px;fill:#ffffff;fill-opacity:1;stroke:none;font-family:Impact;-inkscape-font-specification:Impact Bold" />
      <path
         d="m 21.202142,1042.6692 0,5.929 -1.541747,0 0,-5.929 1.541747,0 z"
         id="path4056-8"
         inkscape:connector-curvature="0"
         style="font-size:7.5px;font-style:normal;font-variant:normal;font-weight:bold;font-stretch:normal;line-height:125%;letter-spacing:0px;word-spacing:0px;fill:#ffffff;fill-opacity:1;stroke:none;font-family:Impact;-inkscape-font-specification:Impact Bold" />
      <path
         d="m 14.93971,1042.6692 0.909202,5.929 -1.626,0 -0.07922,-1.0657 -0.56967,0 -0.09426,1.0657 -1.644854,0 0.80733,-5.929 2.297468,0 z m -0.84129,3.8123 q -0.120724,-1.0071 -0.241451,-2.4866 -0.241453,1.6992 -0.301815,2.4866 l 0.543266,0 z"
         id="path857"
         inkscape:connector-curvature="0"
         style="font-size:7.5px;font-style:normal;font-variant:normal;font-weight:bold;font-stretch:normal;line-height:125%;letter-spacing:0px;word-spacing:0px;fill:#ffffff;fill-opacity:1;stroke:none;font-family:Impact;-inkscape-font-specification:Impact Bold" />
    </g>
  </g>
</svg>
