<?xml version="1.0" encoding="UTF-8" standalone="no"?>
<!-- Created with Inkscape (http://www.inkscape.org/) -->

<svg
   xmlns:dc="http://purl.org/dc/elements/1.1/"
   xmlns:cc="http://creativecommons.org/ns#"
   xmlns:rdf="http://www.w3.org/1999/02/22-rdf-syntax-ns#"
   xmlns:svg="http://www.w3.org/2000/svg"
   xmlns="http://www.w3.org/2000/svg"
   xmlns:xlink="http://www.w3.org/1999/xlink"
   xmlns:sodipodi="http://sodipodi.sourceforge.net/DTD/sodipodi-0.dtd"
   xmlns:inkscape="http://www.inkscape.org/namespaces/inkscape"
   width="79.992012"
   height="79.999542"
   id="svg6389"
   version="1.1"
   inkscape:version="0.48.3.1 r9886"
   sodipodi:docname="chart.svg"
   inkscape:export-filename="/home/christian/Arbeitsfläche/anomaly_red/pix_core/f/chart.png"
   inkscape:export-xdpi="4.9218779"
   inkscape:export-ydpi="4.9218779" preserveAspectRatio="xMinYMid meet">
  <defs
     id="defs6391">
    <linearGradient
       gradientTransform="matrix(1.1002865,0,0,1.1002865,64.232046,-167.79161)"
       inkscape:collect="always"
       xlink:href="#linearGradient6707"
       id="linearGradient1110"
       x1="262.01361"
       y1="471.95245"
       x2="262.01361"
       y2="442.7843"
       gradientUnits="userSpaceOnUse" />
    <linearGradient
       id="linearGradient6707">
      <stop
         id="stop6709"
         offset="0"
         style="stop-color:#000000;stop-opacity:1;" />
      <stop
         id="stop6711"
         offset="1"
         style="stop-color:#ffffff;stop-opacity:1;" />
    </linearGradient>
    <linearGradient
       y2="468.35892"
       x2="314.34872"
       y1="425.61682"
       x1="314.34872"
       gradientTransform="matrix(1.1002865,0,0,1.1002865,5.0328438,-167.7943)"
       gradientUnits="userSpaceOnUse"
       id="linearGradient887"
       xlink:href="#linearGradient1069-5"
       inkscape:collect="always" />
    <linearGradient
       id="linearGradient1069-5">
      <stop
         style="stop-color:#ffffff;stop-opacity:1"
         offset="0"
         id="stop1071-6" />
      <stop
         style="stop-color:#e6e6e6;stop-opacity:1"
         offset="1"
         id="stop1073-0" />
    </linearGradient>
    <linearGradient
       inkscape:collect="always"
       xlink:href="#linearGradient918-1"
       id="linearGradient912"
       x1="462.37933"
       y1="837.0611"
       x2="463.75925"
       y2="835.67212"
       gradientUnits="userSpaceOnUse" />
    <linearGradient
       id="linearGradient918-1">
      <stop
         id="stop920-5"
         offset="0"
         style="stop-color:#f6f6f6;stop-opacity:1" />
      <stop
         id="stop922-7"
         offset="1"
         style="stop-color:#e2e2e2;stop-opacity:1" />
    </linearGradient>
    <linearGradient
       inkscape:collect="always"
       xlink:href="#linearGradient1069-5"
       id="linearGradient3993"
       gradientUnits="userSpaceOnUse"
       gradientTransform="matrix(1.1002865,0,0,1.1002865,5.0328438,-167.7943)"
       x1="314.34872"
       y1="425.61682"
       x2="314.34872"
       y2="468.35892" />
    <linearGradient
       inkscape:collect="always"
       xlink:href="#linearGradient6707"
       id="linearGradient3995"
       gradientUnits="userSpaceOnUse"
       gradientTransform="matrix(1.1002865,0,0,1.1002865,64.232046,-167.79161)"
       x1="262.01361"
       y1="471.95245"
       x2="262.01361"
       y2="442.7843" />
    <linearGradient
       inkscape:collect="always"
       xlink:href="#linearGradient918-1"
       id="linearGradient3997"
       gradientUnits="userSpaceOnUse"
       x1="462.37933"
       y1="837.0611"
       x2="463.75925"
       y2="835.67212" />
    <linearGradient
       inkscape:collect="always"
       xlink:href="#linearGradient1069-5"
       id="linearGradient4026"
       gradientUnits="userSpaceOnUse"
       gradientTransform="matrix(1.8111633,0,0,1.8104558,-218.83516,-485.8975)"
       x1="314.34872"
       y1="425.61682"
       x2="314.34872"
       y2="468.35892" />
    <linearGradient
       inkscape:collect="always"
       xlink:href="#linearGradient918-1"
       id="linearGradient4029"
       gradientUnits="userSpaceOnUse"
       x1="462.37933"
       y1="837.0611"
       x2="463.75925"
       y2="835.67212" />
    <linearGradient
       inkscape:collect="always"
       xlink:href="#linearGradient6707-9"
       id="linearGradient3077"
       gradientUnits="userSpaceOnUse"
       gradientTransform="matrix(1.8114204,0,0,2.6689195,-211.88361,-765.76882)"
       x1="262.01361"
       y1="471.95245"
       x2="262.01361"
       y2="442.7843" />
    <linearGradient
       id="linearGradient6707-9">
      <stop
         id="stop6709-3"
         offset="0"
         style="stop-color:#000000;stop-opacity:1;" />
      <stop
         id="stop6711-5"
         offset="1"
         style="stop-color:#ffffff;stop-opacity:1;" />
    </linearGradient>
    <linearGradient
       inkscape:collect="always"
       xlink:href="#linearGradient6707-9"
       id="linearGradient3071"
       gradientUnits="userSpaceOnUse"
       gradientTransform="matrix(1.81343,0,0,2.6689407,-121.99112,-888.31727)"
       x1="262.01361"
       y1="471.95245"
       x2="262.01361"
       y2="442.7843" />
  </defs>
  <sodipodi:namedview
     id="base"
     pagecolor="#ffffff"
     bordercolor="#666666"
     borderopacity="1.0"
     inkscape:pageopacity="0.0"
     inkscape:pageshadow="2"
     inkscape:zoom="2.8"
     inkscape:cx="74.850964"
     inkscape:cy="21.092785"
     inkscape:document-units="px"
     inkscape:current-layer="layer1"
     showgrid="false"
     fit-margin-top="0"
     fit-margin-left="0.49"
     fit-margin-right="0.49"
     fit-margin-bottom="0"
     inkscape:window-width="834"
     inkscape:window-height="528"
     inkscape:window-x="162"
     inkscape:window-y="28"
     inkscape:window-maximized="0" />
  <metadata
     id="metadata6394">
    <rdf:RDF>
      <cc:Work
         rdf:about="">
        <dc:format>image/svg+xml</dc:format>
        <dc:type
           rdf:resource="http://purl.org/dc/dcmitype/StillImage" />
        <dc:title></dc:title>
      </cc:Work>
    </rdf:RDF>
  </metadata>
  <g
     inkscape:label="Capa 1"
     inkscape:groupmode="layer"
     id="layer1"
     transform="translate(-311.53712,-285.05251)">
    <path
       style="opacity:0.5;fill:#000000;fill-opacity:1;stroke:none"
       d="m 314.97027,285.05251 c -1.62447,0 -2.94315,1.48697 -2.94315,3.28146 l 0,73.43662 c 0,1.7945 1.31868,3.28146 2.94315,3.28146 l 73.12571,0 c 1.62448,0 2.94315,-1.48694 2.94315,-3.28146 l 0,-57.93458 -18.84743,-18.7835 -57.22143,0 z"
       id="rect3922-2"
       inkscape:connector-curvature="0" />
    <path
       style="fill:url(#linearGradient4026);fill-opacity:1;stroke:none"
       d="m 315.64944,285.80593 c -1.58321,0 -2.82993,1.41934 -2.82993,3.16829 l 0,71.62617 c 0,1.74897 1.2467,3.1683 2.82993,3.1683 l 71.76737,0 c 1.58323,0 2.82992,-1.41933 2.82992,-3.1683 l 0,-56.35044 -18.50782,-18.44402 -56.08947,0 z"
       id="path869-2"
       inkscape:connector-curvature="0" />
    <g
       transform="translate(0.43924709,1.7569102)"
       id="g3814">
      <rect
         style="fill:#ff0000;fill-opacity:1;stroke:#ff0000;stroke-width:0.78786474;stroke-opacity:1"
         id="rect3033-3"
         width="5.3985848"
         height="4.2548709"
         x="324.63681"
         y="302.15631" />
      <rect
         y="296.77539"
         x="331.0441"
         height="4.7504749"
         width="48.202499"
         id="rect4239"
         style="fill:#ff0000;fill-opacity:1;stroke:#ff0000;stroke-width:0.90152484;stroke-opacity:1" />
      <path
         id="rect3435"
         d="m 323.88954,296.34277 0,0.16045 0,35.94117 0,0.12025 0.14596,0 55.29692,0 0.14597,0 0,-0.12025 0,-35.94117 0,-0.16045 -0.14597,0 -55.29692,0 z m 0.29214,0.2808 6.13496,0 0,4.89377 -6.13496,0 z m 6.42709,0 12.17255,0 0,4.89377 -12.17255,0 z m 12.46469,0 12.17254,0 0,4.89377 -12.17254,0 z m 12.46468,0 23.64834,0 0,4.89377 -23.64834,0 z m -31.35646,5.13445 6.13496,0 0,4.89377 -6.13496,0 z m 6.42709,0 12.17255,0 0,4.89377 -12.17255,0 z m 12.46469,0 12.17254,0 0,4.89377 -12.17254,0 z m 12.46468,0 23.64834,0 0,4.89377 -23.64834,0 z m -31.35646,5.13445 6.13496,0 0,4.89378 -6.13496,0 z m 6.42709,0 12.17255,0 0,4.89378 -12.17255,0 z m 12.46469,0 12.17254,0 0,4.89378 -12.17254,0 z m 12.46468,0 23.64834,0 0,4.89378 -23.64834,0 z m -31.35646,5.13445 6.13496,0 0,4.89378 -6.13496,0 z m 6.42709,0 12.17255,0 0,4.89378 -12.17255,0 z m 12.46469,0 12.17254,0 0,4.89378 -12.17254,0 z m 12.46468,0 23.64834,0 0,4.89378 -23.64834,0 z m -31.35646,5.13445 6.13496,0 0,4.89378 -6.13496,0 z m 6.42709,0 12.17255,0 0,4.89378 -12.17255,0 z m 12.46469,0 12.17254,0 0,4.89378 -12.17254,0 z m 12.46468,0 23.64834,0 0,4.89378 -23.64834,0 z m -31.35646,5.13445 6.13496,0 0,4.89378 -6.13496,0 z m 6.42709,0 12.17255,0 0,4.89378 -12.17255,0 z m 12.46469,0 12.17254,0 0,4.89378 -12.17254,0 z m 12.46468,0 23.64834,0 0,4.89378 -23.64834,0 z m -31.35646,5.13445 6.13496,0 0,4.85367 -6.13496,0 z m 6.42709,0 12.17255,0 0,4.85367 -12.17255,0 z m 12.46469,0 12.17254,0 0,4.85367 -12.17254,0 z m 12.46468,0 23.64834,0 0,4.85367 -23.64834,0 z"
         style="font-size:xx-small;font-style:normal;font-variant:normal;font-weight:normal;font-stretch:normal;text-indent:0;text-align:start;text-decoration:none;line-height:normal;letter-spacing:normal;word-spacing:normal;text-transform:none;direction:ltr;block-progression:tb;writing-mode:lr-tb;text-anchor:start;color:#000000;fill:#ff0000;fill-opacity:1;stroke:#ff0000;stroke-width:0.32955569;stroke-opacity:1;marker:none;visibility:visible;display:inline;overflow:visible;enable-background:accumulate;font-family:'A.C.M.E. Secret Agent';-inkscape-font-specification:'A.C.M.E. Secret Agent'"
         inkscape:connector-curvature="0"
         sodipodi:nodetypes="ccccccccccccccccccccccccccccccccccccccccccccccccccccccccccccccccccccccccccccccccccccccccccccccccccccccccccccccccccccccccccccccccccccccccccccccccccccccccc" />
      <path
         inkscape:connector-curvature="0"
         id="path3805"
         d="m 330.72562,306.70857 -7.05097,-0.0668"
         style="fill:#ff0000;fill-opacity:1;stroke:#ff0000;stroke-width:0.92394602;stroke-opacity:1" />
      <rect
         y="307.15625"
         x="324.63681"
         height="4.2548709"
         width="5.3985848"
         id="rect3804"
         style="fill:#ff0000;fill-opacity:1;stroke:#ff0000;stroke-width:0.78786474;stroke-opacity:1" />
      <path
         inkscape:connector-curvature="0"
         id="path3809"
         d="m 330.72562,306.77534 -6.99532,-0.0205"
         style="fill:#ff0000;fill-opacity:1;stroke:#ffffff;stroke-width:0.49433357;stroke-linecap:butt;stroke-linejoin:miter;stroke-miterlimit:4;stroke-opacity:1;stroke-dasharray:none" />
      <path
         inkscape:connector-curvature="0"
         id="path3819"
         d="m 355.36023,301.86918 0.0287,-5.61829"
         style="fill:#ff0000;fill-opacity:1;stroke:#ff0000;stroke-width:0.49433357;stroke-linecap:butt;stroke-linejoin:miter;stroke-miterlimit:4;stroke-opacity:1;stroke-dasharray:none" />
      <path
         style="fill:#ffffff;fill-opacity:1;stroke:#ffffff;stroke-width:0.49433357;stroke-linecap:butt;stroke-linejoin:miter;stroke-miterlimit:4;stroke-opacity:1;stroke-dasharray:none"
         d="m 342.9246,301.86918 0.0287,-5.61829"
         id="path3823"
         inkscape:connector-curvature="0" />
      <path
         style="fill:#ff0000;fill-opacity:1;stroke:#ffffff;stroke-width:0.49433357;stroke-linecap:butt;stroke-linejoin:miter;stroke-miterlimit:4;stroke-opacity:1;stroke-dasharray:none"
         d="m 355.36023,301.86918 0.0287,-5.61829"
         id="path3825"
         inkscape:connector-curvature="0" />
      <rect
         style="fill:#ff0000;fill-opacity:1;stroke:#ff0000;stroke-width:0.78786474;stroke-opacity:1"
         id="rect3806"
         width="5.3985848"
         height="4.2548709"
         x="324.63681"
         y="312.25626" />
      <path
         style="fill:#ff0000;fill-opacity:1;stroke:#ffffff;stroke-width:0.49433357;stroke-linecap:butt;stroke-linejoin:miter;stroke-miterlimit:4;stroke-opacity:1;stroke-dasharray:none"
         d="m 330.72562,311.85991 -6.99532,-0.0205"
         id="path3829"
         inkscape:connector-curvature="0" />
      <rect
         y="317.35626"
         x="324.63681"
         height="4.2548709"
         width="5.3985848"
         id="rect3808"
         style="fill:#ff0000;fill-opacity:1;stroke:#ff0000;stroke-width:0.78786474;stroke-opacity:1" />
      <path
         inkscape:connector-curvature="0"
         id="path3831"
         d="m 330.72562,316.945 -6.99532,-0.0205"
         style="fill:#ff0000;fill-opacity:1;stroke:#ffffff;stroke-width:0.49433357;stroke-linecap:butt;stroke-linejoin:miter;stroke-miterlimit:4;stroke-opacity:1;stroke-dasharray:none" />
      <rect
         style="fill:#ff0000;fill-opacity:1;stroke:#ff0000;stroke-width:0.78786474;stroke-opacity:1"
         id="rect3810"
         width="5.3985848"
         height="4.2548709"
         x="324.63681"
         y="322.55624" />
      <path
         style="fill:#ff0000;fill-opacity:1;stroke:#ffffff;stroke-width:0.49433357;stroke-linecap:butt;stroke-linejoin:miter;stroke-miterlimit:4;stroke-opacity:1;stroke-dasharray:none"
         d="m 330.72562,322.17966 -6.99532,-0.0205"
         id="path3833"
         inkscape:connector-curvature="0" />
      <rect
         y="327.65625"
         x="324.63681"
         height="4.2548709"
         width="5.3985848"
         id="rect3812"
         style="fill:#ff0000;fill-opacity:1;stroke:#ff0000;stroke-width:0.78786474;stroke-opacity:1" />
      <path
         inkscape:connector-curvature="0"
         id="path3835"
         d="m 330.72562,327.26475 -6.99532,-0.0205"
         style="fill:#ff0000;fill-opacity:1;stroke:#ffffff;stroke-width:0.49433357;stroke-linecap:butt;stroke-linejoin:miter;stroke-miterlimit:4;stroke-opacity:1;stroke-dasharray:none" />
    </g>
    <g
       transform="matrix(1.8111633,0,0,1.8104558,-460.90303,-1218.1119)"
       id="g851">
      <path
         id="path914"
         d="m 470.05693,841.16048 -10.53539,-10.50317 0,8.69895 c 0,0.99596 0.70967,1.80422 1.61092,1.80422 l 8.92447,0 z"
         style="opacity:0.5;fill:#000000;fill-opacity:1;stroke:none"
         inkscape:connector-curvature="0" />
      <path
         inkscape:connector-curvature="0"
         style="fill:url(#linearGradient4029);fill-opacity:1;stroke:none"
         d="m 469.94644,841.01843 -10.21875,-10.1875 0,8.4375 c 0,0.96603 0.68834,1.75 1.5625,1.75 l 8.65625,0 z"
         id="path902" />
    </g>
    <path
       inkscape:connector-curvature="0"
       style="fill:url(#linearGradient3071);fill-opacity:1;stroke:none"
       d="m 312.76019,341.55237 0,18.01535 c 0,2.5783 1.24827,4.67065 2.83349,4.67065 l 71.85717,0 c 1.58525,0 2.83347,-2.09235 2.83347,-4.67065 l 0,-18.01535 -77.52413,0 z"
       id="path874-6" />
    <g
       transform="matrix(2.39917,0,0,2.39917,-490.42186,-466.9847)"
       style="font-size:7.5px;font-style:normal;font-variant:normal;font-weight:bold;font-stretch:normal;line-height:125%;letter-spacing:0px;word-spacing:0px;fill:#ffffff;fill-opacity:1;stroke:none;font-family:Impact;-inkscape-font-specification:Impact Bold"
       id="text850">
      <path
         inkscape:connector-curvature="0"
         d="m 348.00098,341.8082 -1.54175,0 0,-1.03272 q 0,-0.45044 -0.0513,-0.5603 -0.0476,-0.11353 -0.21607,-0.11353 -0.19043,0 -0.24169,0.1355 -0.0513,0.1355 -0.0513,0.58594 l 0,2.75391 q 0,0.43212 0.0513,0.56396 0.0513,0.13184 0.23071,0.13184 0.17212,0 0.22339,-0.13184 0.0549,-0.13184 0.0549,-0.6189 l 0,-0.7434 1.54175,0 0,0.23071 q 0,0.91919 -0.13184,1.30371 -0.12817,0.38452 -0.57495,0.67383 -0.44312,0.2893 -1.09497,0.2893 -0.67749,0 -1.11694,-0.24536 -0.43946,-0.24536 -0.58228,-0.67749 -0.14282,-0.43579 -0.14282,-1.30737 l 0,-1.73218 q 0,-0.64087 0.0439,-0.95947 0.0439,-0.32227 0.26001,-0.6189 0.21973,-0.29663 0.60425,-0.46508 0.38818,-0.17212 0.88989,-0.17212 0.68116,0 1.12427,0.26367 0.44312,0.26367 0.58228,0.65918 0.13916,0.39184 0.13916,1.22314 l 1e-4,0.56397 z"
         id="path855" />
      <path
         inkscape:connector-curvature="0"
         d="m 351.22363,339.22275 0.88257,5.92895 -1.57837,0 -0.0769,-1.06567 -0.55298,0 -0.0915,1.06567 -1.59668,0 0.78369,-5.92895 2.23017,0 z m -0.81665,3.81225 q -0.11719,-1.00708 -0.23437,-2.48657 -0.23438,1.69922 -0.29297,2.48657 l 0.52734,0 z"
         id="path857" />
      <path
         inkscape:connector-curvature="0"
         d="m 353.91162,339.22275 0,4.74243 0.9375,0 0,1.18652 -2.47925,0 0,-5.92895 1.54175,0 z"
         id="path859" />
      <path
         inkscape:connector-curvature="0"
         d="m 358.70898,341.8082 -1.54174,0 0,-1.03272 q 0,-0.45044 -0.0513,-0.5603 -0.0476,-0.11353 -0.21607,-0.11353 -0.19043,0 -0.2417,0.1355 -0.0513,0.1355 -0.0513,0.58594 l 0,2.75391 q 0,0.43212 0.0513,0.56396 0.0513,0.13184 0.23072,0.13184 0.17212,0 0.22338,-0.13184 0.0549,-0.13184 0.0549,-0.6189 l 0,-0.7434 1.54174,0 0,0.23071 q 0,0.91919 -0.13183,1.30371 -0.12818,0.38452 -0.57495,0.67383 -0.44312,0.2893 -1.09497,0.2893 -0.67749,0 -1.11695,-0.24536 -0.43945,-0.24536 -0.58227,-0.67749 -0.14282,-0.43579 -0.14282,-1.30737 l 0,-1.73218 q 0,-0.64087 0.0439,-0.95947 0.0439,-0.32227 0.26001,-0.6189 0.21973,-0.29663 0.60425,-0.46508 0.38818,-0.17212 0.88989,-0.17212 0.68115,0 1.12427,0.26367 0.44311,0.26367 0.58227,0.65918 0.13916,0.39184 0.13916,1.22314 l 1.1e-4,0.56397 z"
         id="path861" />
    </g>
  </g>
</svg>
