<?xml version="1.0" encoding="UTF-8" standalone="no"?>
<!-- Created with Inkscape (http://www.inkscape.org/) -->

<svg
   xmlns:dc="http://purl.org/dc/elements/1.1/"
   xmlns:cc="http://creativecommons.org/ns#"
   xmlns:rdf="http://www.w3.org/1999/02/22-rdf-syntax-ns#"
   xmlns:svg="http://www.w3.org/2000/svg"
   xmlns="http://www.w3.org/2000/svg"
   xmlns:xlink="http://www.w3.org/1999/xlink"
   xmlns:sodipodi="http://sodipodi.sourceforge.net/DTD/sodipodi-0.dtd"
   xmlns:inkscape="http://www.inkscape.org/namespaces/inkscape"
   width="79.992012"
   height="79.999542"
   id="svg6389"
   version="1.1"
   inkscape:version="0.48.3.1 r9886"
   sodipodi:docname="database.svg"
   inkscape:export-filename="/home/christian/Arbeitsfläche/anomaly_red/pix_core/f/chart.png"
   inkscape:export-xdpi="4.9218779"
   inkscape:export-ydpi="4.9218779" preserveAspectRatio="xMinYMid meet">
  <defs
     id="defs6391">
    <linearGradient
       gradientTransform="matrix(1.1002865,0,0,1.1002865,64.232046,-167.79161)"
       inkscape:collect="always"
       xlink:href="#linearGradient6707"
       id="linearGradient1110"
       x1="262.01361"
       y1="471.95245"
       x2="262.01361"
       y2="442.7843"
       gradientUnits="userSpaceOnUse" />
    <linearGradient
       id="linearGradient6707">
      <stop
         id="stop6709"
         offset="0"
         style="stop-color:#000000;stop-opacity:1;" />
      <stop
         id="stop6711"
         offset="1"
         style="stop-color:#ffffff;stop-opacity:1;" />
    </linearGradient>
    <linearGradient
       y2="468.35892"
       x2="314.34872"
       y1="425.61682"
       x1="314.34872"
       gradientTransform="matrix(1.1002865,0,0,1.1002865,5.0328438,-167.7943)"
       gradientUnits="userSpaceOnUse"
       id="linearGradient887"
       xlink:href="#linearGradient1069-5"
       inkscape:collect="always" />
    <linearGradient
       id="linearGradient1069-5">
      <stop
         style="stop-color:#ffffff;stop-opacity:1"
         offset="0"
         id="stop1071-6" />
      <stop
         style="stop-color:#e6e6e6;stop-opacity:1"
         offset="1"
         id="stop1073-0" />
    </linearGradient>
    <linearGradient
       inkscape:collect="always"
       xlink:href="#linearGradient918-1"
       id="linearGradient912"
       x1="462.37933"
       y1="837.0611"
       x2="463.75925"
       y2="835.67212"
       gradientUnits="userSpaceOnUse" />
    <linearGradient
       id="linearGradient918-1">
      <stop
         id="stop920-5"
         offset="0"
         style="stop-color:#f6f6f6;stop-opacity:1" />
      <stop
         id="stop922-7"
         offset="1"
         style="stop-color:#e2e2e2;stop-opacity:1" />
    </linearGradient>
    <linearGradient
       inkscape:collect="always"
       xlink:href="#linearGradient1069-5"
       id="linearGradient3993"
       gradientUnits="userSpaceOnUse"
       gradientTransform="matrix(1.1002865,0,0,1.1002865,5.0328438,-167.7943)"
       x1="314.34872"
       y1="425.61682"
       x2="314.34872"
       y2="468.35892" />
    <linearGradient
       inkscape:collect="always"
       xlink:href="#linearGradient6707"
       id="linearGradient3995"
       gradientUnits="userSpaceOnUse"
       gradientTransform="matrix(1.1002865,0,0,1.1002865,64.232046,-167.79161)"
       x1="262.01361"
       y1="471.95245"
       x2="262.01361"
       y2="442.7843" />
    <linearGradient
       inkscape:collect="always"
       xlink:href="#linearGradient918-1"
       id="linearGradient3997"
       gradientUnits="userSpaceOnUse"
       x1="462.37933"
       y1="837.0611"
       x2="463.75925"
       y2="835.67212" />
    <linearGradient
       inkscape:collect="always"
       xlink:href="#linearGradient918-1"
       id="linearGradient4029"
       gradientUnits="userSpaceOnUse"
       x1="462.37933"
       y1="837.0611"
       x2="463.75925"
       y2="835.67212" />
    <linearGradient
       inkscape:collect="always"
       xlink:href="#linearGradient6707-9"
       id="linearGradient3077"
       gradientUnits="userSpaceOnUse"
       gradientTransform="matrix(1.8114204,0,0,2.6689195,-211.88361,-765.76882)"
       x1="262.01361"
       y1="471.95245"
       x2="262.01361"
       y2="442.7843" />
    <linearGradient
       id="linearGradient6707-9">
      <stop
         id="stop6709-3"
         offset="0"
         style="stop-color:#000000;stop-opacity:1;" />
      <stop
         id="stop6711-5"
         offset="1"
         style="stop-color:#ffffff;stop-opacity:1;" />
    </linearGradient>
    <linearGradient
       inkscape:collect="always"
       xlink:href="#linearGradient6707-9"
       id="linearGradient3071"
       gradientUnits="userSpaceOnUse"
       gradientTransform="matrix(1.81343,0,0,2.6689407,-121.99112,-888.31727)"
       x1="262.01361"
       y1="471.95245"
       x2="262.01361"
       y2="442.7843" />
    <filter
       inkscape:collect="always"
       id="filter3908">
      <feGaussianBlur
         inkscape:collect="always"
         stdDeviation="0.86860235"
         id="feGaussianBlur3910" />
    </filter>
  </defs>
  <sodipodi:namedview
     id="base"
     pagecolor="#ffffff"
     bordercolor="#666666"
     borderopacity="1.0"
     inkscape:pageopacity="0.0"
     inkscape:pageshadow="2"
     inkscape:zoom="3.959798"
     inkscape:cx="30.195867"
     inkscape:cy="51.52517"
     inkscape:document-units="px"
     inkscape:current-layer="layer1"
     showgrid="false"
     fit-margin-top="0"
     fit-margin-left="0.49"
     fit-margin-right="0.49"
     fit-margin-bottom="0"
     inkscape:window-width="1024"
     inkscape:window-height="547"
     inkscape:window-x="0"
     inkscape:window-y="28"
     inkscape:window-maximized="1" />
  <metadata
     id="metadata6394">
    <rdf:RDF>
      <cc:Work
         rdf:about="">
        <dc:format>image/svg+xml</dc:format>
        <dc:type
           rdf:resource="http://purl.org/dc/dcmitype/StillImage" />
        <dc:title />
      </cc:Work>
    </rdf:RDF>
  </metadata>
  <g
     inkscape:label="Capa 1"
     inkscape:groupmode="layer"
     id="layer1"
     transform="translate(-311.53712,-285.05251)">
    <path
       style="opacity:0.5;fill:#000000;fill-opacity:1;stroke:none"
       d="m 314.97027,285.05251 c -1.62447,0 -2.94315,1.48697 -2.94315,3.28146 l 0,73.43662 c 0,1.7945 1.31868,3.28146 2.94315,3.28146 l 73.12571,0 c 1.62448,0 2.94315,-1.48694 2.94315,-3.28146 l 0,-57.93458 -18.84743,-18.7835 -57.22143,0 z"
       id="rect3922-2"
       inkscape:connector-curvature="0" />
    <path
       style="fill:#ff0000;fill-opacity:1;stroke:none"
       d="m 315.64944,285.80593 c -1.58321,0 -2.82993,1.41934 -2.82993,3.16829 l 0,71.62617 c 0,1.74897 1.2467,3.1683 2.82993,3.1683 l 71.76737,0 c 1.58323,0 2.82992,-1.41933 2.82992,-3.1683 l 0,-56.35044 -18.50782,-18.44402 -56.08947,0 z"
       id="path869-2"
       inkscape:connector-curvature="0" />
    <g
       transform="matrix(1.8111633,0,0,1.8104558,-460.90303,-1218.1119)"
       id="g851">
      <path
         id="path914"
         d="m 470.05693,841.16048 -10.53539,-10.50317 0,8.69895 c 0,0.99596 0.70967,1.80422 1.61092,1.80422 l 8.92447,0 z"
         style="opacity:0.5;fill:#000000;fill-opacity:1;stroke:none"
         inkscape:connector-curvature="0" />
      <path
         inkscape:connector-curvature="0"
         style="fill:url(#linearGradient4029);fill-opacity:1;stroke:none"
         d="m 469.94644,841.01843 -10.21875,-10.1875 0,8.4375 c 0,0.96603 0.68834,1.75 1.5625,1.75 l 8.65625,0 z"
         id="path902" />
    </g>
    <path
       inkscape:connector-curvature="0"
       style="fill:url(#linearGradient3071);fill-opacity:1;stroke:none"
       d="m 312.76019,341.55237 0,18.01535 c 0,2.5783 1.24827,4.67065 2.83349,4.67065 l 71.85717,0 c 1.58525,0 2.83347,-2.09235 2.83347,-4.67065 l 0,-18.01535 -77.52413,0 z"
       id="path874-6" />
    <g
       id="g2642"
       transform="matrix(2.4997495,0,0,2.4997495,286.02879,-2262.3059)">
      <path
         d="m 22.205555,1043.2415 1.153564,0 q 1.116944,0 1.508789,0.1026 0.395508,0.1025 0.600586,0.3369 0.205078,0.2344 0.256348,0.5237 0.05127,0.2856 0.05127,1.1279 l 0,2.0764 q 0,0.7983 -0.0769,1.0693 -0.07324,0.2674 -0.26001,0.4212 -0.186767,0.1501 -0.461425,0.2124 -0.274659,0.059 -0.827637,0.059 l -1.94458,0 -5e-6,-5.9294 z m 1.541748,1.0144 0,3.9002 q 0.333252,0 0.410156,-0.1319 0.0769,-0.1355 0.0769,-0.7287 l 0,-2.3035 q 0,-0.4028 -0.02563,-0.5163 -0.02564,-0.1136 -0.117188,-0.1648 -0.09155,-0.055 -0.344238,-0.055 z"
         id="path841"
         inkscape:connector-curvature="0"
         style="font-size:7.5px;font-style:normal;font-variant:normal;font-weight:bold;font-stretch:normal;line-height:125%;letter-spacing:0px;word-spacing:0px;fill:#ffffff;fill-opacity:1;stroke:none;font-family:Impact;-inkscape-font-specification:Impact Bold" />
      <path
         d="m 26.351063,1043.2415 1.538086,0 q 0.728759,0 1.102295,0.1136 0.377197,0.1135 0.60791,0.4614 0.230713,0.3442 0.230713,1.1133 0,0.52 -0.164795,0.7251 -0.161133,0.205 -0.640869,0.3149 0.534667,0.1208 0.725097,0.4028 0.19043,0.2784 0.19043,0.857 l 0,0.5493 q 0,0.6006 -0.13916,0.8899 -0.135498,0.2893 -0.435791,0.3955 -0.300293,0.1062 -1.230469,0.1062 l -1.783447,0 0,-5.929 z m 1.541748,1.0144 0,1.3184 q 0.09888,0 0.153808,0 0.227051,0 0.289307,-0.1099 0.06226,-0.1135 0.06226,-0.6408 0,-0.2784 -0.05127,-0.3882 -0.05127,-0.1135 -0.135498,-0.1428 -0.08057,-0.033 -0.318607,-0.037 z m 0,2.2412 0,1.659 q 0.325927,-0.011 0.413818,-0.1026 0.09155,-0.091 0.09155,-0.4504 l 0,-0.553 q 0,-0.3808 -0.08057,-0.4614 -0.08056,-0.081 -0.424798,-0.092 z"
         id="path843"
         inkscape:connector-curvature="0"
         style="font-size:7.5px;font-style:normal;font-variant:normal;font-weight:bold;font-stretch:normal;line-height:125%;letter-spacing:0px;word-spacing:0px;fill:#ffffff;fill-opacity:1;stroke:none;font-family:Impact;-inkscape-font-specification:Impact Bold" />
    </g>
    <g
       style="opacity:0.75;fill:#000000;fill-opacity:1;filter:url(#filter3908)"
       transform="matrix(1.5724344,0,0,1.5724344,315.30304,-1272.4513)"
       id="g3017">
      <path
         style="fill:#000000;fill-opacity:1;stroke:none"
         d="m 10.182967,1008.2634 0,-11.92117 11.6336,0 c 0.38608,0.081 0.71327,0.2592 0.81154,0.8115 l 0,10.23277 -2.95231,-2.9523 0,-5.20027 -6.59023,0 0.003,6.64617 5.07258,0 2.89738,2.9137 -10.23556,0 c -0.27465,-0.095 -0.45733,-0.2607 -0.63954,-0.5304 z"
         id="path3019"
         inkscape:connector-curvature="0"
         sodipodi:nodetypes="ccccccccccccc" />
      <path
         sodipodi:nodetypes="cccccccccccccc"
         inkscape:connector-curvature="0"
         id="path3021"
         d="m 11.940767,1011.42 0,10.2788 9.8758,0 c 0.38608,-0.081 0.71327,-0.2592 0.81154,-0.8116 l 0.005,-8.3841 -2.84637,2.8474 0,3.4522 -5.05911,0 0.003,-5.0323 3.56786,0 2.89738,-2.8412 -8.61462,0 c -0.28728,0.056 -0.4753,0.1647 -0.63954,0.4908 z"
         style="fill:#000000;fill-opacity:1;stroke:none" />
      <path
         style="fill:#000000;fill-opacity:1;stroke:none"
         d="m 34.460817,1011.42 0,9.1245 -8.76289,0 c -0.38608,-0.081 -0.71327,-0.2592 -0.81153,-0.8115 l -0.005,-7.2299 2.84636,2.8474 0,2.3573 3.88504,0 -0.003,-3.9374 -2.47774,0 -2.89737,-2.8412 7.58566,0 c 0.28727,0.056 0.4753,0.1647 0.63954,0.4908 z"
         id="path3023"
         inkscape:connector-curvature="0"
         sodipodi:nodetypes="cccccccccccccc" />
      <path
         sodipodi:nodetypes="cccccccccccccc"
         inkscape:connector-curvature="0"
         id="path3025"
         d="m 33.094267,1008.26 0,-7.66 -7.39634,0 c -0.38608,0.082 -0.71327,0.2592 -0.81153,0.8116 l -0.005,5.8118 2.84636,-2.8475 0,-0.9391 2.53715,0 -0.003,2.5242 -0.93862,0 -3.0886,2.7899 6.21911,0 c 0.28727,-0.056 0.4753,-0.1647 0.63954,-0.4909 z"
         style="fill:#000000;fill-opacity:1;stroke:none" />
    </g>
    <g
       id="g7278"
       transform="matrix(1.5724344,0,0,1.5724344,316.02507,-1273.1733)"
       style="fill:#ffffff">
      <path
         sodipodi:nodetypes="ccccccccccccc"
         inkscape:connector-curvature="0"
         id="path7232"
         d="m 10.182967,1008.2634 0,-11.92117 11.6336,0 c 0.38608,0.081 0.71327,0.2592 0.81154,0.8115 l 0,10.23277 -2.95231,-2.9523 0,-5.20027 -6.59023,0 0.003,6.64617 5.07258,0 2.89738,2.9137 -10.23556,0 c -0.27465,-0.095 -0.45733,-0.2607 -0.63954,-0.5304 z"
         style="fill:#ffffff;fill-opacity:1;stroke:none" />
      <path
         style="fill:#ffffff;fill-opacity:1;stroke:none"
         d="m 11.940767,1011.42 0,10.2788 9.8758,0 c 0.38608,-0.081 0.71327,-0.2592 0.81154,-0.8116 l 0.005,-8.3841 -2.84637,2.8474 0,3.4522 -5.05911,0 0.003,-5.0323 3.56786,0 2.89738,-2.8412 -8.61462,0 c -0.28728,0.056 -0.4753,0.1647 -0.63954,0.4908 z"
         id="path7234"
         inkscape:connector-curvature="0"
         sodipodi:nodetypes="cccccccccccccc" />
      <path
         sodipodi:nodetypes="cccccccccccccc"
         inkscape:connector-curvature="0"
         id="path7236"
         d="m 34.460817,1011.42 0,9.1245 -8.76289,0 c -0.38608,-0.081 -0.71327,-0.2592 -0.81153,-0.8115 l -0.005,-7.2299 2.84636,2.8474 0,2.3573 3.88504,0 -0.003,-3.9374 -2.47774,0 -2.89737,-2.8412 7.58566,0 c 0.28727,0.056 0.4753,0.1647 0.63954,0.4908 z"
         style="fill:#ffffff;fill-opacity:1;stroke:none" />
      <path
         style="fill:#ffffff;fill-opacity:1;stroke:none"
         d="m 33.094267,1008.26 0,-7.66 -7.39634,0 c -0.38608,0.082 -0.71327,0.2592 -0.81153,0.8116 l -0.005,5.8118 2.84636,-2.8475 0,-0.9391 2.53715,0 -0.003,2.5242 -0.93862,0 -3.0886,2.7899 6.21911,0 c 0.28727,-0.056 0.4753,-0.1647 0.63954,-0.4909 z"
         id="path7238"
         inkscape:connector-curvature="0"
         sodipodi:nodetypes="cccccccccccccc" />
    </g>
  </g>
</svg>
