<?xml version="1.0" encoding="UTF-8" standalone="no"?>
<!-- Created with Inkscape (http://www.inkscape.org/) -->

<svg
   xmlns:dc="http://purl.org/dc/elements/1.1/"
   xmlns:cc="http://creativecommons.org/ns#"
   xmlns:rdf="http://www.w3.org/1999/02/22-rdf-syntax-ns#"
   xmlns:svg="http://www.w3.org/2000/svg"
   xmlns="http://www.w3.org/2000/svg"
   xmlns:xlink="http://www.w3.org/1999/xlink"
   xmlns:sodipodi="http://sodipodi.sourceforge.net/DTD/sodipodi-0.dtd"
   xmlns:inkscape="http://www.inkscape.org/namespaces/inkscape"
   width="79.991997"
   height="79.999535"
   id="svg4768"
   version="1.1"
   inkscape:version="0.48.3.1 r9886"
   sodipodi:docname="video.svg"
   inkscape:export-filename="/home/christian/Dokumente/Arbeit/FH D/eLearning/Moodle/moodle-theme_anomalyred/pix_core/f/avi-256.png"
   inkscape:export-xdpi="288.00168"
   inkscape:export-ydpi="288.00168"
   preserveAspectRatio="xMinYMid meet">
  <defs
     id="defs4770">
    <linearGradient
       id="linearGradient3824">
      <stop
         style="stop-color:#468800;stop-opacity:1;"
         offset="0"
         id="stop3826" />
      <stop
         style="stop-color:#9fff00;stop-opacity:1;"
         offset="1"
         id="stop3828" />
    </linearGradient>
    <linearGradient
       id="linearGradient4136">
      <stop
         id="stop4150"
         offset="0"
         style="stop-color:#9d9d9d;stop-opacity:1;" />
      <stop
         id="stop4148"
         offset="0.5"
         style="stop-color:#e3e3e3;stop-opacity:1;" />
      <stop
         style="stop-color:#ffffff;stop-opacity:1;"
         offset="1"
         id="stop4140" />
    </linearGradient>
    <linearGradient
       id="linearGradient4126">
      <stop
         style="stop-color:#d9c183;stop-opacity:1"
         offset="0"
         id="stop4128" />
      <stop
         id="stop4130"
         offset="0.5"
         style="stop-color:#f5e4b7;stop-opacity:1" />
      <stop
         id="stop4132"
         offset="1"
         style="stop-color:#cfb469;stop-opacity:1" />
    </linearGradient>
    <linearGradient
       id="linearGradient4108">
      <stop
         id="stop4114"
         offset="0"
         style="stop-color:#e5d5ab;stop-opacity:1;" />
      <stop
         style="stop-color:#f9f0d9;stop-opacity:1;"
         offset="0.5"
         id="stop4120" />
      <stop
         style="stop-color:#e5d5ab;stop-opacity:1;"
         offset="1"
         id="stop4116" />
    </linearGradient>
    <linearGradient
       id="linearGradient3811">
      <stop
         id="stop3813"
         offset="0"
         style="stop-color:#8a7440;stop-opacity:1;" />
      <stop
         style="stop-color:#9c7a28;stop-opacity:1;"
         offset="0.32327268"
         id="stop3815" />
      <stop
         style="stop-color:#b49851;stop-opacity:1;"
         offset="0.69999999"
         id="stop3817" />
      <stop
         id="stop3819"
         offset="1"
         style="stop-color:#d6ba6e;stop-opacity:1;" />
    </linearGradient>
    <linearGradient
       id="linearGradient5412">
      <stop
         id="stop5414"
         offset="0"
         style="stop-color:#8a7440;stop-opacity:1;" />
      <stop
         style="stop-color:#9c7a28;stop-opacity:1;"
         offset="0.28"
         id="stop5416" />
      <stop
         style="stop-color:#b49851;stop-opacity:1;"
         offset="0.78399998"
         id="stop5418" />
      <stop
         id="stop5420"
         offset="1"
         style="stop-color:#d6ba6e;stop-opacity:1;" />
    </linearGradient>
    <linearGradient
       id="linearGradient5354">
      <stop
         style="stop-color:#8a7440;stop-opacity:1;"
         offset="0"
         id="stop5356" />
      <stop
         id="stop5364"
         offset="0.17296876"
         style="stop-color:#9c7a28;stop-opacity:1;" />
      <stop
         id="stop5362"
         offset="0.57656252"
         style="stop-color:#b49851;stop-opacity:1;" />
      <stop
         style="stop-color:#d6ba6e;stop-opacity:1;"
         offset="1"
         id="stop5358" />
    </linearGradient>
    <linearGradient
       id="linearGradient5336">
      <stop
         style="stop-color:#f4ff5a;stop-opacity:1;"
         offset="0"
         id="stop5338" />
      <stop
         style="stop-color:#74a61a;stop-opacity:1;"
         offset="1"
         id="stop5340" />
    </linearGradient>
    <inkscape:perspective
       sodipodi:type="inkscape:persp3d"
       inkscape:vp_x="3.045074e-06 : 526.18109 : 1"
       inkscape:vp_y="0 : 1000 : 0"
       inkscape:vp_z="744.09448 : 526.18109 : 1"
       inkscape:persp3d-origin="372.04724 : 350.78739 : 1"
       id="perspective4778" />
    <linearGradient
       inkscape:collect="always"
       xlink:href="#linearGradient5412"
       id="linearGradient5410"
       x1="495.4935"
       y1="768.9303"
       x2="495.4935"
       y2="497.69806"
       gradientUnits="userSpaceOnUse" />
    <linearGradient
       y2="400.39584"
       x2="317.6174"
       y1="521.40619"
       x1="317.6174"
       gradientUnits="userSpaceOnUse"
       id="linearGradient3011"
       xlink:href="#linearGradient3023"
       inkscape:collect="always" />
    <linearGradient
       gradientUnits="userSpaceOnUse"
       y2="400.39584"
       x2="317.6174"
       y1="521.40619"
       x1="317.6174"
       id="linearGradient3029"
       xlink:href="#linearGradient3023"
       inkscape:collect="always" />
    <linearGradient
       id="linearGradient3023"
       inkscape:collect="always">
      <stop
         id="stop3025"
         offset="0"
         style="stop-color:#333333;stop-opacity:1" />
      <stop
         id="stop3027"
         offset="1"
         style="stop-color:#000000;stop-opacity:0;" />
    </linearGradient>
    <linearGradient
       y2="400.39584"
       x2="317.6174"
       y1="521.40619"
       x1="317.6174"
       gradientUnits="userSpaceOnUse"
       id="linearGradient3011-2"
       xlink:href="#linearGradient3023-8"
       inkscape:collect="always" />
    <linearGradient
       gradientUnits="userSpaceOnUse"
       y2="400.39584"
       x2="317.6174"
       y1="521.40619"
       x1="317.6174"
       id="linearGradient3029-8"
       xlink:href="#linearGradient3023-8"
       inkscape:collect="always" />
    <linearGradient
       id="linearGradient3023-8"
       inkscape:collect="always">
      <stop
         id="stop3025-0"
         offset="0"
         style="stop-color:#333333;stop-opacity:1" />
      <stop
         id="stop3027-8"
         offset="1"
         style="stop-color:#000000;stop-opacity:0;" />
    </linearGradient>
    <linearGradient
       inkscape:collect="always"
       xlink:href="#linearGradient5412"
       id="linearGradient3076"
       gradientUnits="userSpaceOnUse"
       x1="495.4935"
       y1="768.9303"
       x2="495.4935"
       y2="497.69806" />
    <linearGradient
       inkscape:collect="always"
       xlink:href="#linearGradient5412"
       id="linearGradient3078"
       gradientUnits="userSpaceOnUse"
       x1="495.4935"
       y1="768.9303"
       x2="495.4935"
       y2="497.69806" />
    <linearGradient
       inkscape:collect="always"
       xlink:href="#linearGradient5412"
       id="linearGradient3080"
       gradientUnits="userSpaceOnUse"
       x1="495.4935"
       y1="768.9303"
       x2="495.4935"
       y2="497.69806" />
    <linearGradient
       inkscape:collect="always"
       xlink:href="#linearGradient4126"
       id="linearGradient3862"
       gradientUnits="userSpaceOnUse"
       gradientTransform="matrix(0,0.18474369,0.84549028,0,133.55983,134.09617)"
       x1="181.44475"
       y1="458.73257"
       x2="511.7583"
       y2="486.30695" />
    <linearGradient
       inkscape:collect="always"
       xlink:href="#linearGradient4108"
       id="linearGradient3865"
       gradientUnits="userSpaceOnUse"
       gradientTransform="matrix(0.98772205,0,0,0.37980987,48.750454,-7.7167911)"
       x1="238.6882"
       y1="473.97665"
       x2="492.97528"
       y2="482.39819" />
    <linearGradient
       inkscape:collect="always"
       xlink:href="#linearGradient3811"
       id="linearGradient3868"
       gradientUnits="userSpaceOnUse"
       gradientTransform="matrix(0.98772205,0,0,0.98772205,48.750454,-295.62807)"
       x1="348.09857"
       y1="516.61255"
       x2="348.09857"
       y2="476.30734" />
    <linearGradient
       inkscape:collect="always"
       xlink:href="#linearGradient5354"
       id="linearGradient3874"
       gradientUnits="userSpaceOnUse"
       gradientTransform="matrix(0.96844992,0,0,1.0052832,52.715728,-304.22172)"
       x1="342.17322"
       y1="857.11627"
       x2="342.17322"
       y2="499.80078" />
    <linearGradient
       inkscape:collect="always"
       xlink:href="#linearGradient4126"
       id="linearGradient3879"
       gradientUnits="userSpaceOnUse"
       gradientTransform="matrix(0,0.18474369,0.84549028,0,133.55983,341.27846)"
       x1="181.44475"
       y1="458.73257"
       x2="511.7583"
       y2="486.30695" />
    <linearGradient
       inkscape:collect="always"
       xlink:href="#linearGradient5412"
       id="linearGradient3833"
       gradientUnits="userSpaceOnUse"
       x1="495.4935"
       y1="768.9303"
       x2="495.4935"
       y2="497.69806" />
    <linearGradient
       inkscape:collect="always"
       xlink:href="#linearGradient3811"
       id="linearGradient3830"
       x1="261.1684"
       y1="468.59735"
       x2="261.1684"
       y2="426.41534"
       gradientUnits="userSpaceOnUse"
       gradientTransform="matrix(1.0693277,0,0,1.0693277,-18.103341,-31.043504)" />
    <linearGradient
       inkscape:collect="always"
       xlink:href="#linearGradient4136"
       id="linearGradient3853"
       x1="265.84116"
       y1="456.62814"
       x2="265.84116"
       y2="435.47223"
       gradientUnits="userSpaceOnUse"
       gradientTransform="translate(-3.9594688,0.16258621)" />
    <linearGradient
       inkscape:collect="always"
       xlink:href="#linearGradient4136"
       id="linearGradient3873"
       gradientUnits="userSpaceOnUse"
       gradientTransform="translate(1.9625505,0.16258621)"
       x1="265.84116"
       y1="456.62814"
       x2="265.84116"
       y2="435.47223" />
    <linearGradient
       inkscape:collect="always"
       xlink:href="#linearGradient4136"
       id="linearGradient3977"
       gradientUnits="userSpaceOnUse"
       gradientTransform="translate(-7.3041158,-0.10258103)"
       x1="265.84116"
       y1="456.62814"
       x2="265.84116"
       y2="435.47223" />
    <linearGradient
       inkscape:collect="always"
       xlink:href="#linearGradient4136"
       id="linearGradient3987"
       gradientUnits="userSpaceOnUse"
       gradientTransform="translate(-7.3041158,-0.10258103)"
       x1="265.84116"
       y1="456.62814"
       x2="265.84116"
       y2="435.47223" />
    <linearGradient
       y2="1002.9312"
       x2="24.113745"
       y1="1065.1559"
       x1="24.113745"
       gradientTransform="matrix(0.96799712,0,0,1.0252613,237.8948,-606.5607)"
       gradientUnits="userSpaceOnUse"
       id="linearGradient3321"
       xlink:href="#linearGradient3811-2"
       inkscape:collect="always" />
    <linearGradient
       id="linearGradient3811-2">
      <stop
         id="stop3813-1"
         offset="0"
         style="stop-color:#8a6c40;stop-opacity:1;" />
      <stop
         style="stop-color:#9c7728;stop-opacity:1;"
         offset="0.32327268"
         id="stop3815-6" />
      <stop
         style="stop-color:#b49851;stop-opacity:1;"
         offset="0.69999999"
         id="stop3817-5" />
      <stop
         id="stop3819-6"
         offset="1"
         style="stop-color:#d6ba6e;stop-opacity:1;" />
    </linearGradient>
    <linearGradient
       id="linearGradient6707">
      <stop
         id="stop6709"
         offset="0"
         style="stop-color:#000000;stop-opacity:1;" />
      <stop
         id="stop6711"
         offset="1"
         style="stop-color:#ffffff;stop-opacity:1;" />
    </linearGradient>
    <linearGradient
       y2="468.35892"
       x2="314.34872"
       y1="425.61682"
       x1="314.34872"
       gradientTransform="translate(-53.785477,-0.003684)"
       gradientUnits="userSpaceOnUse"
       id="linearGradient1187"
       xlink:href="#linearGradient1069"
       inkscape:collect="always" />
    <linearGradient
       id="linearGradient1069">
      <stop
         style="stop-color:#ffffff;stop-opacity:1"
         offset="0"
         id="stop1071" />
      <stop
         style="stop-color:#e6e6e6;stop-opacity:1"
         offset="1"
         id="stop1073" />
    </linearGradient>
    <linearGradient
       inkscape:collect="always"
       xlink:href="#linearGradient6707"
       id="linearGradient3107"
       gradientUnits="userSpaceOnUse"
       gradientTransform="matrix(5.7965821,0,0,8.5405965,-1252.516,-3435.5993)"
       x1="262.01361"
       y1="471.95245"
       x2="262.01361"
       y2="442.7843" />
    <linearGradient
       inkscape:collect="always"
       xlink:href="#linearGradient6707"
       id="linearGradient3079"
       gradientUnits="userSpaceOnUse"
       gradientTransform="matrix(5.7965821,0,0,8.5405965,-1252.516,-3435.5993)"
       x1="262.01361"
       y1="471.95245"
       x2="262.01361"
       y2="442.7843" />
    <linearGradient
       inkscape:collect="always"
       xlink:href="#linearGradient6707"
       id="linearGradient3077"
       gradientUnits="userSpaceOnUse"
       gradientTransform="matrix(1.8114204,0,0,2.6689195,-211.88361,-765.76882)"
       x1="262.01361"
       y1="471.95245"
       x2="262.01361"
       y2="442.7843" />
    <linearGradient
       inkscape:collect="always"
       xlink:href="#linearGradient6707"
       id="linearGradient3941"
       gradientUnits="userSpaceOnUse"
       gradientTransform="matrix(1.7924446,0,0,2.6778818,-206.92869,-769.93674)"
       x1="262.01361"
       y1="471.95245"
       x2="262.01361"
       y2="442.7843" />
    <filter
       inkscape:collect="always"
       id="filter3861">
      <feGaussianBlur
         inkscape:collect="always"
         stdDeviation="0.34341048"
         id="feGaussianBlur3863" />
    </filter>
    <linearGradient
       inkscape:collect="always"
       xlink:href="#linearGradient6707-0"
       id="linearGradient3020"
       gradientUnits="userSpaceOnUse"
       gradientTransform="matrix(1.698152,0,0,2.6689195,-419.41556,-185.20458)"
       x1="262.01361"
       y1="471.95245"
       x2="262.01361"
       y2="442.7843" />
    <linearGradient
       id="linearGradient6707-0">
      <stop
         id="stop6709-7"
         offset="0"
         style="stop-color:#000000;stop-opacity:1;" />
      <stop
         id="stop6711-8"
         offset="1"
         style="stop-color:#ffffff;stop-opacity:1;" />
    </linearGradient>
    <linearGradient
       y2="442.7843"
       x2="262.01361"
       y1="471.95245"
       x1="262.01361"
       gradientTransform="matrix(1.698152,0,0,2.6689195,-195.23497,-731.85707)"
       gradientUnits="userSpaceOnUse"
       id="linearGradient3035"
       xlink:href="#linearGradient6707-0"
       inkscape:collect="always" />
    <filter
       color-interpolation-filters="sRGB"
       inkscape:collect="always"
       id="filter3844">
      <feGaussianBlur
         inkscape:collect="always"
         stdDeviation="0.46205633"
         id="feGaussianBlur3846" />
    </filter>
    <filter
       color-interpolation-filters="sRGB"
       inkscape:collect="always"
       id="filter3844-3">
      <feGaussianBlur
         inkscape:collect="always"
         stdDeviation="0.46205633"
         id="feGaussianBlur3846-1" />
    </filter>
  </defs>
  <sodipodi:namedview
     id="base"
     pagecolor="#ffffff"
     bordercolor="#666666"
     borderopacity="1.0"
     inkscape:pageopacity="0.0"
     inkscape:pageshadow="2"
     inkscape:zoom="3.9999998"
     inkscape:cx="41.430249"
     inkscape:cy="36.087382"
     inkscape:document-units="px"
     inkscape:current-layer="layer1"
     showgrid="true"
     inkscape:window-width="1881"
     inkscape:window-height="1029"
     inkscape:window-x="0"
     inkscape:window-y="26"
     inkscape:window-maximized="1"
     showguides="true"
     inkscape:guide-bbox="true"
     fit-margin-top="0"
     fit-margin-left="0.47"
     fit-margin-right="0.47"
     fit-margin-bottom="0">
    <inkscape:grid
       type="xygrid"
       id="grid3230"
       empspacing="5"
       visible="true"
       enabled="true"
       snapvisiblegridlinesonly="true"
       originx="-87.997976px"
       originy="-88.000276px" />
  </sodipodi:namedview>
  <metadata
     id="metadata4773">
    <rdf:RDF>
      <cc:Work
         rdf:about="">
        <dc:format>image/svg+xml</dc:format>
        <dc:type
           rdf:resource="http://purl.org/dc/dcmitype/StillImage" />
        <dc:title></dc:title>
      </cc:Work>
    </rdf:RDF>
  </metadata>
  <g
     inkscape:label="Capa 1"
     inkscape:groupmode="layer"
     id="layer1"
     transform="translate(-221.13076,-407.77954)">
    <path
       style="opacity:0.65;fill:#000000;fill-opacity:1;stroke:none"
       d="m 224.53343,407.77954 73.18664,0 c 1.62472,0 2.93269,1.44542 2.93269,3.24087 l 0,73.51778 c 0,1.79548 -1.30797,3.24089 -2.93269,3.24089 l -73.18664,0 c -1.6247,0 -2.93267,-1.44543 -2.93267,-3.24089 l 0,-73.51778 c 0,-1.79545 1.30797,-3.24087 2.93267,-3.24087 z"
       id="rect3922"
       inkscape:connector-curvature="0" />
    <path
       inkscape:connector-curvature="0"
       id="path869"
       d="m 225.67812,409.22917 70.89725,0 c 1.56526,0 2.82538,1.34914 2.82538,3.02499 l 0,68.61963 c 0,1.67587 -1.26012,3.02498 -2.82538,3.02498 l -70.89725,0 c -1.56526,0 -2.82537,-1.34911 -2.82537,-3.02498 l 0,-68.61963 c 0,-1.67585 1.26013,-3.02499 2.82537,-3.02499 z"
       style="fill:#ff0000;fill-opacity:1;stroke:none" />
    <path
       inkscape:connector-curvature="0"
       style="fill:url(#linearGradient3941);fill-opacity:1;stroke:none"
       d="m 222.7915,464.05307 0,18.0757 c 0,2.58695 1.23383,4.6863 2.80069,4.6863 l 71.02563,0 c 1.56689,0 2.80068,-2.09935 2.80068,-4.6863 l 0,-18.0757 -76.627,0 z"
       id="path874" />
    <g
       transform="matrix(2.3991514,0,0,2.3991514,-947.6749,-897.70431)"
       id="g3824">
      <path
         d="m 495.84804,569.53607 0,5.92896 -1.54175,0 0,-5.92896 1.54175,0 z"
         style="font-size:7.5px;font-style:normal;font-variant:normal;font-weight:bold;font-stretch:normal;line-height:125%;letter-spacing:0px;word-spacing:0px;fill:#ffffff;fill-opacity:1;stroke:none;font-family:Impact;-inkscape-font-specification:Impact Bold"
         id="path863"
         inkscape:connector-curvature="0" />
      <path
         d="m 504.92015,569.53607 0.88256,5.92896 -1.57836,0 -0.0769,-1.06568 -0.55298,0 -0.0915,1.06568 -1.59668,0 0.78369,-5.92896 2.23017,0 z m -0.81665,3.81226 q -0.11719,-1.00708 -0.23438,-2.48657 -0.23437,1.69921 -0.29297,2.48657 l 0.52735,0 z"
         style="font-size:7.5px;font-style:normal;font-variant:normal;font-weight:bold;font-stretch:normal;line-height:125%;letter-spacing:0px;word-spacing:0px;fill:#ffffff;fill-opacity:1;stroke:none;font-family:Impact;-inkscape-font-specification:Impact Bold"
         id="path871"
         inkscape:connector-curvature="0" />
      <path
         d="m 510.50629,569.53635 2.5708,0 0,1.18652 -1.02905,0 0,1.12427 0.96313,0 0,1.12793 -0.96313,0 0,1.30371 1.13159,0 0,1.18652 -2.67334,0 0,-5.92895 z"
         style="font-size:7.5px;font-style:normal;font-variant:normal;font-weight:bold;font-stretch:normal;line-height:125%;letter-spacing:0px;word-spacing:0px;fill:#ffffff;fill-opacity:1;stroke:none;font-family:Impact;-inkscape-font-specification:Impact Bold"
         id="path1011-9"
         inkscape:connector-curvature="0" />
      <path
         d="m 509.8877,571.59445 -1.54175,0 0,-0.53833 q 0,-0.50903 -0.0439,-0.6372 -0.0439,-0.12818 -0.20874,-0.12818 -0.14282,0 -0.19409,0.10986 -0.0513,0.10987 -0.0513,0.56397 l 0,2.84546 q 0,0.39917 0.0513,0.52734 0.0513,0.12451 0.20508,0.12451 0.16846,0 0.22705,-0.14282 0.0623,-0.14282 0.0623,-0.55664 l 0,-0.70312 -0.31128,0 0,-0.90088 1.80542,0 0,3.18237 -0.97046,0 -0.14282,-0.4248 q -0.15747,0.27465 -0.39917,0.41381 -0.23804,0.1355 -0.56396,0.1355 -0.38819,0 -0.72876,-0.18677 -0.33692,-0.19043 -0.5127,-0.46875 -0.17578,-0.27832 -0.21973,-0.58227 -0.0439,-0.30762 -0.0439,-0.91919 l 0,-1.76148 q 0,-0.8496 0.0916,-1.23413 0.0915,-0.38452 0.52369,-0.70312 0.43579,-0.32227 1.12426,-0.32227 0.67749,0 1.12427,0.27832 0.44678,0.27832 0.58228,0.66285 0.13549,0.38085 0.13549,1.10961 l 0,0.25635 z"
         id="path849"
         inkscape:connector-curvature="0"
         style="font-size:7.5px;font-style:normal;font-weight:normal;line-height:125%;letter-spacing:0px;word-spacing:0px;fill:#ffffff;fill-opacity:1;stroke:none;font-family:Impact;-inkscape-font-specification:Impact" />
      <path
         d="m 501.26337,569.53635 0,5.92895 -1.34765,0 0,-4.00268 -0.53833,4.00268 -0.95581,0 -0.56763,-3.91113 0,3.91113 -1.34766,0 0,-5.92895 1.99585,0 q 0.0879,0.53467 0.18677,1.25976 l 0.2124,1.50879 0.35157,-2.76855 2.01049,0 z"
         style="font-size:7.5px;font-style:normal;font-variant:normal;font-weight:bold;font-stretch:normal;line-height:125%;letter-spacing:0px;word-spacing:0px;fill:#ffffff;fill-opacity:1;stroke:none;font-family:Impact;-inkscape-font-specification:Impact Bold"
         id="path1009"
         inkscape:connector-curvature="0" />
    </g>
    <g
       transform="translate(-2.2246172,-0.13270321)"
       id="g3094">
      <g
         style="opacity:0.75;fill:#000000;fill-opacity:1;filter:url(#filter3844)"
         id="g3845"
         transform="matrix(1.5,0,0,1.5,-130.38176,-237.39101)">
        <path
           inkscape:connector-curvature="0"
           style="color:#000000;fill:#000000;fill-opacity:1;fill-rule:nonzero;stroke:none;stroke-width:1;marker:none;visibility:visible;display:inline;overflow:visible;enable-background:accumulate"
           d="m 263.31136,434.30369 c -1.59057,0 -2.88,2.57884 -2.88,5.76 0,0.5293 0.0232,1.04315 0.09,1.53 -0.34183,-0.34537 -0.6656,-0.71617 -1.08,-1.035 -2.52126,-1.93985 -5.37506,-2.47564 -6.345,-1.215 -0.96992,1.26064 0.31374,3.86515 2.835,5.805 0.47841,0.36808 0.95419,0.63484 1.44,0.9 -0.55033,0.0703 -1.12896,0.19056 -1.71,0.36 -3.05395,0.89062 -5.17029,2.88302 -4.725,4.41 0.44531,1.52698 3.29105,2.01562 6.345,1.125 0.57262,-0.16698 1.12411,-0.35273 1.62,-0.585 -0.1211,0.22037 -0.25045,0.43639 -0.36,0.675 -6.00101,5.35588 -10.935,15.615 -10.935,15.615 l 2.07,0.0449 c 1.12404,-2.69854 3.90383,-8.62418 8.19,-13.59 -0.60663,2.52382 -0.21428,4.75324 1.08,5.22 1.49626,0.53962 3.60079,-1.46249 4.68,-4.455 0.0971,-0.26916 0.15067,-0.54452 0.225,-0.81 0.11652,0.25685 0.21928,0.50797 0.36,0.765 1.5277,2.79031 3.91485,4.45385 5.31,3.69 1.39517,-0.76385 1.2577,-3.64469 -0.27,-6.435 -0.0871,-0.15918 -0.17771,-0.29852 -0.27,-0.45 0.16925,0.0526 0.31956,0.0893 0.495,0.13493 3.07812,0.80311 5.89845,0.23406 6.3,-1.305 0.40157,-1.53906 -1.78188,-3.42689 -4.86,-4.23 -0.047,-0.013 -0.088,-0.0334 -0.13493,-0.0449 0.0415,-0.0233 0.0936,-0.021 0.13493,-0.0449 2.75497,-1.59058 4.35029,-4.02251 3.555,-5.4 -0.79529,-1.37749 -3.68003,-1.18558 -6.435,0.405 -0.88244,0.50948 -1.60189,1.09377 -2.205,1.71 0.22872,-0.82585 0.36,-1.77906 0.36,-2.79 0,-3.18117 -1.28941,-5.76 -2.88,-5.76 z m 0.09,9.63 c 1.98823,0 3.6,1.61178 3.6,3.6 0,1.98822 -1.61177,3.6 -3.6,3.6 -1.98822,0 -3.6,-1.61178 -3.6,-3.6 0,-1.98822 1.61178,-3.6 3.6,-3.6 z"
           id="path4019-3" />
      </g>
      <path
         id="path4019"
         d="m 265.55592,414.0919 c -2.38585,0 -4.32,3.86827 -4.32,8.64 0,0.79395 0.0348,1.56472 0.135,2.295 -0.51274,-0.51806 -0.9984,-1.07425 -1.62,-1.5525 -3.78189,-2.90978 -8.06259,-3.71346 -9.5175,-1.8225 -1.45488,1.89096 0.47061,5.79773 4.2525,8.7075 0.71762,0.55212 1.43129,0.95226 2.16,1.35 -0.82549,0.10546 -1.69344,0.28584 -2.565,0.54001 -4.58092,1.33593 -7.75543,4.32452 -7.0875,6.615 0.66797,2.29047 4.93658,3.02343 9.5175,1.6875 0.85893,-0.25047 1.68617,-0.52911 2.43,-0.8775 -0.18165,0.33055 -0.37567,0.65458 -0.54,1.0125 -9.00151,8.03382 -16.4025,23.4225 -16.4025,23.4225 l 3.105,0.0674 c 1.68606,-4.04781 5.85575,-12.93627 12.285,-20.385 -0.90994,3.78573 -0.32142,7.12986 1.62,7.83 2.24439,0.80943 5.40119,-2.19374 7.02,-6.6825 0.14565,-0.40374 0.22601,-0.81678 0.3375,-1.215 0.17478,0.38527 0.32892,0.76195 0.54,1.1475 2.29155,4.18546 5.87228,6.68077 7.965,5.535 2.09276,-1.14578 1.88655,-5.46704 -0.405,-9.6525 -0.13065,-0.23877 -0.26656,-0.44778 -0.405,-0.675 0.25388,0.0789 0.47934,0.13395 0.7425,0.20239 4.61718,1.20467 8.84768,0.35109 9.45,-1.9575 0.60236,-2.30859 -2.67282,-5.14033 -7.29,-6.345 -0.0705,-0.0195 -0.132,-0.0501 -0.20239,-0.0674 0.0623,-0.0349 0.1404,-0.0315 0.20239,-0.0673 4.13246,-2.38587 6.52544,-6.03376 5.3325,-8.1 -1.19293,-2.06624 -5.52004,-1.77837 -9.6525,0.6075 -1.32366,0.76422 -2.40283,1.64066 -3.3075,2.565 0.34308,-1.23877 0.54,-2.66859 0.54,-4.185 0,-4.77175 -1.93411,-8.64 -4.32,-8.64 z m 0.135,14.445 c 2.98235,0 5.4,2.41767 5.4,5.4 0,2.98233 -2.41765,5.4 -5.4,5.4 -2.98233,0 -5.4,-2.41767 -5.4,-5.4 0,-2.98233 2.41767,-5.4 5.4,-5.4 z"
         style="fill:#ffffff;fill-opacity:1;stroke:none"
         inkscape:connector-curvature="0" />
    </g>
  </g>
</svg>
