<?xml version="1.0" encoding="UTF-8" standalone="no"?>
<!-- Created with Inkscape (http://www.inkscape.org/) -->

<svg
   xmlns:dc="http://purl.org/dc/elements/1.1/"
   xmlns:cc="http://creativecommons.org/ns#"
   xmlns:rdf="http://www.w3.org/1999/02/22-rdf-syntax-ns#"
   xmlns:svg="http://www.w3.org/2000/svg"
   xmlns="http://www.w3.org/2000/svg"
   xmlns:xlink="http://www.w3.org/1999/xlink"
   xmlns:sodipodi="http://sodipodi.sourceforge.net/DTD/sodipodi-0.dtd"
   xmlns:inkscape="http://www.inkscape.org/namespaces/inkscape"
   width="24"
   height="24"
   id="svg6399"
   version="1.1"
   inkscape:version="0.48.3.1 r9886"
   sodipodi:docname="wma-small.svg"
   preserveAspectRatio="xMinYMid meet">
  <defs
     id="defs6401">
    <linearGradient
       y2="468.35892"
       x2="314.34872"
       y1="425.61682"
       x1="314.34872"
       gradientTransform="translate(-53.785477,-0.003684)"
       gradientUnits="userSpaceOnUse"
       id="linearGradient1187"
       xlink:href="#linearGradient1069"
       inkscape:collect="always" />
    <linearGradient
       id="linearGradient1069">
      <stop
         style="stop-color:#ffffff;stop-opacity:1"
         offset="0"
         id="stop1071" />
      <stop
         style="stop-color:#e6e6e6;stop-opacity:1"
         offset="1"
         id="stop1073" />
    </linearGradient>
    <linearGradient
       y2="468.35892"
       x2="314.34872"
       y1="425.61682"
       x1="314.34872"
       gradientTransform="matrix(0.5380083,0,0,0.53434838,310.5714,390.23488)"
       gradientUnits="userSpaceOnUse"
       id="linearGradient1660"
       xlink:href="#linearGradient1069"
       inkscape:collect="always" />
    <linearGradient
       gradientTransform="translate(218.88524,181.71843)"
       inkscape:collect="always"
       xlink:href="#linearGradient6707"
       id="linearGradient1110"
       x1="262.01361"
       y1="471.95245"
       x2="262.01361"
       y2="442.7843"
       gradientUnits="userSpaceOnUse" />
    <linearGradient
       id="linearGradient6707">
      <stop
         id="stop6709"
         offset="0"
         style="stop-color:#000000;stop-opacity:1;" />
      <stop
         id="stop6711"
         offset="1"
         style="stop-color:#ffffff;stop-opacity:1;" />
    </linearGradient>
    <linearGradient
       y2="468.35892"
       x2="314.34872"
       y1="425.61682"
       x1="314.34872"
       gradientTransform="translate(-53.785477,-0.003684)"
       gradientUnits="userSpaceOnUse"
       id="linearGradient1758"
       xlink:href="#linearGradient1069-4"
       inkscape:collect="always" />
    <linearGradient
       id="linearGradient1069-4">
      <stop
         style="stop-color:#ffffff;stop-opacity:1"
         offset="0"
         id="stop1071-6" />
      <stop
         style="stop-color:#e6e6e6;stop-opacity:1"
         offset="1"
         id="stop1073-5" />
    </linearGradient>
    <linearGradient
       x1="64"
       y1="60"
       x2="62"
       y2="7"
       id="linearGradient3769"
       xlink:href="#linearGradient3763"
       gradientUnits="userSpaceOnUse"
       gradientTransform="matrix(1.231823,0,0,1.231823,-27.816151,7.1708322)" />
    <linearGradient
       id="linearGradient3763">
      <stop
         id="stop3765"
         style="stop-color:#ff7700;stop-opacity:1"
         offset="0" />
      <stop
         id="stop3767"
         style="stop-color:#ffb15d;stop-opacity:1"
         offset="1" />
    </linearGradient>
  </defs>
  <sodipodi:namedview
     id="base"
     pagecolor="#ffffff"
     bordercolor="#666666"
     borderopacity="1.0"
     inkscape:pageopacity="0.0"
     inkscape:pageshadow="2"
     inkscape:zoom="22.4"
     inkscape:cx="-2.7806712"
     inkscape:cy="17.401005"
     inkscape:document-units="px"
     inkscape:current-layer="layer1"
     showgrid="false"
     fit-margin-top="0"
     fit-margin-left="1"
     fit-margin-right="1"
     fit-margin-bottom="0"
     inkscape:window-width="1881"
     inkscape:window-height="1029"
     inkscape:window-x="0"
     inkscape:window-y="26"
     inkscape:window-maximized="1"
     showguides="false">
    <inkscape:grid
       type="xygrid"
       id="grid3021" />
  </sodipodi:namedview>
  <metadata
     id="metadata6404">
    <rdf:RDF>
      <cc:Work
         rdf:about="">
        <dc:format>image/svg+xml</dc:format>
        <dc:type
           rdf:resource="http://purl.org/dc/dcmitype/StillImage" />
        <dc:title></dc:title>
      </cc:Work>
    </rdf:RDF>
  </metadata>
  <g
     inkscape:label="Capa 1"
     inkscape:groupmode="layer"
     id="layer1"
     transform="translate(-468,-617.50507)">
    <path
       style="opacity:0.85;fill:#000000;fill-opacity:1;stroke:none"
       d="m 468.89035,617.50507 22.21928,0 c 0.49327,0 0.89037,0.43363 0.89037,0.97227 l 0,22.05546 c 0,0.53865 -0.3971,0.97227 -0.89037,0.97227 l -22.21928,0 c -0.49326,0 -0.89035,-0.43363 -0.89035,-0.97227 l 0,-22.05546 c 0,-0.53864 0.39709,-0.97227 0.89035,-0.97227 z"
       id="rect3922"
       inkscape:connector-curvature="0" />
    <path
       inkscape:connector-curvature="0"
       id="path869"
       d="m 469.34891,618.00507 21.30215,0 c 0.47032,0 0.84894,0.41556 0.84894,0.93177 l 0,21.13646 c 0,0.51621 -0.37862,0.93177 -0.84894,0.93177 l -21.30215,0 c -0.4703,0 -0.84891,-0.41556 -0.84891,-0.93177 l 0,-21.13646 c 0,-0.51621 0.37861,-0.93177 0.84891,-0.93177 z"
       style="fill:url(#linearGradient1660);fill-opacity:1;stroke:none" />
    <g
       id="g3015"
       style="fill:#ff0000;fill-opacity:1"
       transform="matrix(0.42222795,0,0,0.42222795,399.18631,282.7543)">
      <path
         d="m 195.2999,812.96914 c 3.57971,0 6.68782,1.97143 8.40365,4.87524 l 10.11407,0.0117 v -5.48138 c 0,-2.03983 -1.64113,-3.69446 -3.6544,-3.69446 h -37.69019 c -2.01957,0 -3.64315,1.65463 -3.64315,3.69446 l 0.0104,5.43503 18.05017,0.0122 c 1.72798,-2.89346 4.8235,-4.85274 8.4095,-4.85274"
         id="path2780"
         inkscape:connector-curvature="0"
         style="fill:#ff0000;fill-opacity:1" />
      <path
         d="m 178.28246,806.94011 h -3.35291 l -0.38744,1.22174 h 4.0189 l -0.27855,-1.22174 z"
         id="path2782"
         inkscape:connector-curvature="0"
         style="fill:#ff0000;fill-opacity:1" />
      <path
         d="m 208.51534,806.28852 h -4.4644 l -0.79199,1.88458 h 5.98043 l -0.72404,-1.88458 z"
         id="path2784"
         inkscape:connector-curvature="0"
         style="fill:#ff0000;fill-opacity:1" />
      <path
         d="m 193.19123,807.52241 h -3.84251 v -1.87918 h 3.84251 v 1.87918 z m 3.52255,-2.63427 h -10.84936 l -2.23513,3.30836 h 15.13107 l -2.04658,-3.30836 z"
         id="path2786"
         inkscape:connector-curvature="0"
         style="fill:#ff0000;fill-opacity:1" />
      <path
         d="m 204.22779,818.82447 c 0.55934,1.24513 0.88964,2.61582 0.88964,4.0747 0,5.48093 -4.39645,9.93003 -9.81708,9.93003 -5.42783,0 -9.82293,-4.44955 -9.82293,-9.93003 0,-1.45888 0.32535,-2.82957 0.88919,-4.081 h -17.53673 v 14.96322 c 0,2.02812 1.62358,3.68275 3.64315,3.68275 h 37.68974 c 2.01327,0 3.6544,-1.65463 3.6544,-3.68275 l 0.0121,-14.95692 h -9.60153 z"
         id="path2788"
         inkscape:connector-curvature="0"
         style="fill:#ff0000;fill-opacity:1" />
      <path
         d="m 200.65349,819.63671 c -0.1539,-0.27675 -0.34785,-0.53639 -0.5589,-0.78344 -1.14613,-1.39498 -2.86151,-2.31207 -4.79424,-2.31207 -1.93902,0 -3.6544,0.91169 -4.80054,2.30037 -0.2106,0.25335 -0.40499,0.51299 -0.57014,0.79514 -0.5751,0.95714 -0.92339,2.06322 -0.92339,3.26246 0,3.50456 2.81696,6.35122 6.29407,6.35122 3.46001,0 6.27742,-2.84666 6.27742,-6.35122 -4.5e-4,-1.19879 -0.34244,-2.30487 -0.92428,-3.26246"
         id="path2790"
         inkscape:connector-curvature="0"
         style="fill:#ff0000;fill-opacity:1" />
    </g>
  </g>
</svg>
