<?xml version="1.0" encoding="UTF-8" standalone="no"?>
<!-- Created with Inkscape (http://www.inkscape.org/) -->

<svg
   xmlns:dc="http://purl.org/dc/elements/1.1/"
   xmlns:cc="http://creativecommons.org/ns#"
   xmlns:rdf="http://www.w3.org/1999/02/22-rdf-syntax-ns#"
   xmlns:svg="http://www.w3.org/2000/svg"
   xmlns="http://www.w3.org/2000/svg"
   xmlns:xlink="http://www.w3.org/1999/xlink"
   xmlns:sodipodi="http://sodipodi.sourceforge.net/DTD/sodipodi-0.dtd"
   xmlns:inkscape="http://www.inkscape.org/namespaces/inkscape"
   width="24"
   height="24"
   id="svg6399"
   version="1.1"
   inkscape:version="0.48.3.1 r9886"
   sodipodi:docname="wma-small.svg" preserveAspectRatio="xMinYMid meet">
  <defs
     id="defs6401">
    <linearGradient
       y2="468.35892"
       x2="314.34872"
       y1="425.61682"
       x1="314.34872"
       gradientTransform="translate(-53.785477,-0.003684)"
       gradientUnits="userSpaceOnUse"
       id="linearGradient1187"
       xlink:href="#linearGradient1069"
       inkscape:collect="always" />
    <linearGradient
       id="linearGradient1069">
      <stop
         style="stop-color:#ffffff;stop-opacity:1"
         offset="0"
         id="stop1071" />
      <stop
         style="stop-color:#e6e6e6;stop-opacity:1"
         offset="1"
         id="stop1073" />
    </linearGradient>
    <linearGradient
       y2="468.35892"
       x2="314.34872"
       y1="425.61682"
       x1="314.34872"
       gradientTransform="matrix(0.5380083,0,0,0.53434838,310.5714,390.23488)"
       gradientUnits="userSpaceOnUse"
       id="linearGradient1660"
       xlink:href="#linearGradient1069"
       inkscape:collect="always" />
    <linearGradient
       gradientTransform="translate(218.88524,181.71843)"
       inkscape:collect="always"
       xlink:href="#linearGradient6707"
       id="linearGradient1110"
       x1="262.01361"
       y1="471.95245"
       x2="262.01361"
       y2="442.7843"
       gradientUnits="userSpaceOnUse" />
    <linearGradient
       id="linearGradient6707">
      <stop
         id="stop6709"
         offset="0"
         style="stop-color:#000000;stop-opacity:1;" />
      <stop
         id="stop6711"
         offset="1"
         style="stop-color:#ffffff;stop-opacity:1;" />
    </linearGradient>
    <linearGradient
       y2="468.35892"
       x2="314.34872"
       y1="425.61682"
       x1="314.34872"
       gradientTransform="translate(-53.785477,-0.003684)"
       gradientUnits="userSpaceOnUse"
       id="linearGradient1758"
       xlink:href="#linearGradient1069-4"
       inkscape:collect="always" />
    <linearGradient
       id="linearGradient1069-4">
      <stop
         style="stop-color:#ffffff;stop-opacity:1"
         offset="0"
         id="stop1071-6" />
      <stop
         style="stop-color:#e6e6e6;stop-opacity:1"
         offset="1"
         id="stop1073-5" />
    </linearGradient>
    <linearGradient
       x1="64"
       y1="60"
       x2="62"
       y2="7"
       id="linearGradient3769"
       xlink:href="#linearGradient3763"
       gradientUnits="userSpaceOnUse"
       gradientTransform="matrix(1.231823,0,0,1.231823,-27.816151,7.1708322)" />
    <linearGradient
       id="linearGradient3763">
      <stop
         id="stop3765"
         style="stop-color:#ff7700;stop-opacity:1"
         offset="0" />
      <stop
         id="stop3767"
         style="stop-color:#ffb15d;stop-opacity:1"
         offset="1" />
    </linearGradient>
  </defs>
  <sodipodi:namedview
     id="base"
     pagecolor="#ffffff"
     bordercolor="#666666"
     borderopacity="1.0"
     inkscape:pageopacity="0.0"
     inkscape:pageshadow="2"
     inkscape:zoom="15.839192"
     inkscape:cx="-11.764989"
     inkscape:cy="17.401005"
     inkscape:document-units="px"
     inkscape:current-layer="layer1"
     showgrid="false"
     fit-margin-top="0"
     fit-margin-left="1"
     fit-margin-right="1"
     fit-margin-bottom="0"
     inkscape:window-width="1881"
     inkscape:window-height="1029"
     inkscape:window-x="0"
     inkscape:window-y="26"
     inkscape:window-maximized="1"
     showguides="false" />
  <metadata
     id="metadata6404">
    <rdf:RDF>
      <cc:Work
         rdf:about="">
        <dc:format>image/svg+xml</dc:format>
        <dc:type
           rdf:resource="http://purl.org/dc/dcmitype/StillImage" />
        <dc:title></dc:title>
      </cc:Work>
    </rdf:RDF>
  </metadata>
  <g
     inkscape:label="Capa 1"
     inkscape:groupmode="layer"
     id="layer1"
     transform="translate(-468,-617.50507)">
    <path
       style="opacity:0.85;fill:#000000;fill-opacity:1;stroke:none"
       d="m 468.89035,617.50507 22.21928,0 c 0.49327,0 0.89037,0.43363 0.89037,0.97227 l 0,22.05546 c 0,0.53865 -0.3971,0.97227 -0.89037,0.97227 l -22.21928,0 c -0.49326,0 -0.89035,-0.43363 -0.89035,-0.97227 l 0,-22.05546 c 0,-0.53864 0.39709,-0.97227 0.89035,-0.97227 z"
       id="rect3922"
       inkscape:connector-curvature="0" />
    <path
       inkscape:connector-curvature="0"
       id="path869"
       d="m 469.34891,618.00507 21.30215,0 c 0.47032,0 0.84894,0.41556 0.84894,0.93177 l 0,21.13646 c 0,0.51621 -0.37862,0.93177 -0.84894,0.93177 l -21.30215,0 c -0.4703,0 -0.84891,-0.41556 -0.84891,-0.93177 l 0,-21.13646 c 0,-0.51621 0.37861,-0.93177 0.84891,-0.93177 z"
       style="fill:url(#linearGradient1660);fill-opacity:1;stroke:none" />
    <path
       style="fill:#ff0000;fill-opacity:1;stroke:none"
       d="m 474.99576,622.77949 0,0.26155 0,2.12494 0,7.78577 c -0.51788,-0.0592 -1.08128,-0.0383 -1.65092,0.11444 -1.83214,0.49089 -3.0231,1.97929 -2.66436,3.31814 0.35875,1.3389 2.13987,2.02744 3.97202,1.53652 1.61073,-0.43157 2.72686,-1.63463 2.72973,-2.8278 l 0,-10.55427 8.85941,-1.46505 0,9.35497 c -0.52005,-0.0607 -1.07838,-0.0226 -1.65091,0.13075 -1.83216,0.49091 -3.02312,1.96294 -2.66437,3.30184 0.35875,1.33888 2.12353,2.02741 3.95567,1.5365 1.49577,-0.40079 2.56584,-1.46119 2.71341,-2.56629 l 0.0164,0 0,-0.24518 c 9e-4,-0.0848 0.0105,-0.16065 0,-0.24517 l -1e-4,-13.65391 z"
       id="path1798"
       inkscape:connector-curvature="0"
       sodipodi:nodetypes="ccccsssccccssscccccc" />
  </g>
</svg>
