<?xml version="1.0" encoding="UTF-8" standalone="no"?>
<!-- Created with Inkscape (http://www.inkscape.org/) -->

<svg
   xmlns:dc="http://purl.org/dc/elements/1.1/"
   xmlns:cc="http://creativecommons.org/ns#"
   xmlns:rdf="http://www.w3.org/1999/02/22-rdf-syntax-ns#"
   xmlns:svg="http://www.w3.org/2000/svg"
   xmlns="http://www.w3.org/2000/svg"
   xmlns:xlink="http://www.w3.org/1999/xlink"
   xmlns:sodipodi="http://sodipodi.sourceforge.net/DTD/sodipodi-0.dtd"
   xmlns:inkscape="http://www.inkscape.org/namespaces/inkscape"
   width="80.001999"
   height="80.000214"
   id="svg4214"
   version="1.1"
   inkscape:version="0.48.3.1 r9886"
   sodipodi:docname="pdf.svg"
   inkscape:export-filename="pdf.png"
   inkscape:export-xdpi="17.999952"
   inkscape:export-ydpi="17.999952"
   preserveAspectRatio="xMinYMid meet">
  <defs
     id="defs4216">
    <linearGradient
       id="linearGradient4790">
      <stop
         style="stop-color:#cd0000;stop-opacity:1;"
         offset="0"
         id="stop4792" />
      <stop
         style="stop-color:#ff0000;stop-opacity:1;"
         offset="1"
         id="stop4794" />
    </linearGradient>
    <linearGradient
       id="linearGradient6707-5">
      <stop
         id="stop6709-0"
         offset="0"
         style="stop-color:#000000;stop-opacity:1;" />
      <stop
         id="stop6711-5"
         offset="1"
         style="stop-color:#ffffff;stop-opacity:1;" />
    </linearGradient>
    <linearGradient
       inkscape:collect="always"
       xlink:href="#linearGradient4790"
       id="linearGradient4788"
       x1="25.253813"
       y1="1049.8368"
       x2="25.253813"
       y2="1003.8749"
       gradientUnits="userSpaceOnUse"
       gradientTransform="matrix(1.8104756,0,0,1.7482736,-19.451415,-770.83584)" />
    <linearGradient
       inkscape:collect="always"
       xlink:href="#linearGradient918-1"
       id="linearGradient912"
       x1="462.37933"
       y1="837.0611"
       x2="463.75925"
       y2="835.67212"
       gradientUnits="userSpaceOnUse"
       gradientTransform="matrix(1.8102357,-0.02946975,0.02946975,1.8102357,-812.8496,-500.88944)" />
    <linearGradient
       id="linearGradient918-1">
      <stop
         id="stop920-5"
         offset="0"
         style="stop-color:#f6f6f6;stop-opacity:1" />
      <stop
         id="stop922-7"
         offset="1"
         style="stop-color:#e2e2e2;stop-opacity:1" />
    </linearGradient>
    <linearGradient
       inkscape:collect="always"
       xlink:href="#linearGradient6707"
       id="linearGradient3077"
       gradientUnits="userSpaceOnUse"
       gradientTransform="matrix(1.8114204,0,0,2.6689195,-211.88361,-765.76882)"
       x1="262.01361"
       y1="471.95245"
       x2="262.01361"
       y2="442.7843" />
    <linearGradient
       id="linearGradient6707">
      <stop
         id="stop6709"
         offset="0"
         style="stop-color:#000000;stop-opacity:1;" />
      <stop
         id="stop6711"
         offset="1"
         style="stop-color:#ffffff;stop-opacity:1;" />
    </linearGradient>
    <linearGradient
       inkscape:collect="always"
       xlink:href="#linearGradient6707"
       id="linearGradient3806"
       gradientUnits="userSpaceOnUse"
       gradientTransform="matrix(1.8114204,0,0,2.6689195,-448.9685,-185.20458)"
       x1="262.01361"
       y1="471.95245"
       x2="262.01361"
       y2="442.7843" />
    <filter
       inkscape:collect="always"
       id="filter3778"
       color-interpolation-filters="sRGB">
      <feGaussianBlur
         inkscape:collect="always"
         stdDeviation="0.65051148"
         id="feGaussianBlur3780" />
    </filter>
    <linearGradient
       inkscape:collect="always"
       xlink:href="#linearGradient4790"
       id="linearGradient3795"
       gradientUnits="userSpaceOnUse"
       gradientTransform="matrix(1.8104756,0,0,1.7482736,-19.451415,-770.83584)"
       x1="25.253813"
       y1="1049.8368"
       x2="25.253813"
       y2="1003.8749" />
    <linearGradient
       inkscape:collect="always"
       xlink:href="#linearGradient918-1"
       id="linearGradient3797"
       gradientUnits="userSpaceOnUse"
       gradientTransform="matrix(1.8102357,-0.02946975,0.02946975,1.8102357,-812.8496,-500.88944)"
       x1="462.37933"
       y1="837.0611"
       x2="463.75925"
       y2="835.67212" />
    <linearGradient
       inkscape:collect="always"
       xlink:href="#linearGradient6707"
       id="linearGradient3799"
       gradientUnits="userSpaceOnUse"
       gradientTransform="matrix(1.8114204,0,0,2.6689195,-448.9685,-185.20458)"
       x1="262.01361"
       y1="471.95245"
       x2="262.01361"
       y2="442.7843" />
    <linearGradient
       inkscape:collect="always"
       xlink:href="#linearGradient6707"
       id="linearGradient3020"
       gradientUnits="userSpaceOnUse"
       gradientTransform="matrix(1.698152,0,0,2.6689195,-419.41556,-185.20458)"
       x1="262.01361"
       y1="471.95245"
       x2="262.01361"
       y2="442.7843" />
    <linearGradient
       inkscape:collect="always"
       xlink:href="#linearGradient918-1"
       id="linearGradient3023"
       gradientUnits="userSpaceOnUse"
       gradientTransform="matrix(1.6226917,-0.02781917,0.02641663,1.7088458,-724.59467,-416.89522)"
       x1="462.37933"
       y1="837.0611"
       x2="463.75925"
       y2="835.67212" />
    <linearGradient
       inkscape:collect="always"
       xlink:href="#linearGradient918-1"
       id="linearGradient3790"
       gradientUnits="userSpaceOnUse"
       gradientTransform="matrix(1.6226917,-0.02781917,0.02641663,1.7088458,-724.59467,-416.89522)"
       x1="462.37933"
       y1="837.0611"
       x2="463.75925"
       y2="835.67212" />
  </defs>
  <sodipodi:namedview
     id="base"
     pagecolor="#ffffff"
     bordercolor="#666666"
     borderopacity="1.0"
     inkscape:pageopacity="0.0"
     inkscape:pageshadow="2"
     inkscape:zoom="5.5999999"
     inkscape:cx="27.088099"
     inkscape:cy="54.018666"
     inkscape:document-units="px"
     inkscape:current-layer="layer1"
     showgrid="false"
     width="0px"
     height="0px"
     fit-margin-top="0"
     fit-margin-left="0.51"
     fit-margin-right="0.51"
     fit-margin-bottom="0"
     inkscape:window-width="1881"
     inkscape:window-height="1027"
     inkscape:window-x="0"
     inkscape:window-y="28"
     inkscape:window-maximized="1">
    <inkscape:grid
       type="xygrid"
       id="grid3016" />
  </sodipodi:namedview>
  <metadata
     id="metadata4219">
    <rdf:RDF>
      <cc:Work
         rdf:about="">
        <dc:format>image/svg+xml</dc:format>
        <dc:type
           rdf:resource="http://purl.org/dc/dcmitype/StillImage" />
        <dc:title></dc:title>
      </cc:Work>
    </rdf:RDF>
  </metadata>
  <g
     inkscape:label="Capa 1"
     inkscape:groupmode="layer"
     id="layer1"
     transform="translate(16.001,-988.36209)">
    <path
       style="opacity:0.7;fill:#000000;fill-opacity:1;stroke:none"
       d="m -10.706304,988.36209 c -1.541983,0 -2.793696,1.48695 -2.793696,3.28149 l 0,73.43722 c 0,1.7946 1.251713,3.2815 2.793696,3.2815 l 69.412608,0 c 1.542,0 2.793696,-1.4869 2.793696,-3.2815 l 0,-57.935 -17.890401,-18.78371 -54.315903,0 z"
       id="rect3922-2"
       inkscape:connector-curvature="0" />
    <path
       style="fill:#ff0000;fill-opacity:1;stroke:none"
       d="m -9.5982928,989.89242 c -1.4824112,0 -2.6497072,1.35217 -2.6497072,3.01786 l 0,68.22532 c 0,1.6658 1.167296,3.0178 2.6497072,3.0178 l 67.1965858,0 c 1.482411,0 2.649707,-1.3518 2.649707,-3.0178 l 0,-53.0821 -17.912024,-18.16108 -51.9342688,0 z"
       id="path869"
       inkscape:connector-curvature="0" />
    <path
       sodipodi:nodetypes="ssscssssssscssssscssssssscssssscsssscssssssscsssssscscsscsssccc"
       inkscape:connector-curvature="0"
       id="path3008"
       d="m 1.7184495,1038.392 c -0.94290112,-0.4456 -1.13538552,-0.6196 -1.22710052,-1.1082 -0.2867812,-1.529 1.90551652,-4.1889 5.36256732,-6.5072 1.0611619,-0.7114 3.3891509,-2.0341 3.4583849,-1.9649 0.02017,0.034 -0.442397,0.451 -1.027544,0.9579 -2.0162076,1.7458 -4.2826316,4.1235 -5.0929734,5.3432 -0.7892968,1.1875 -1.2416513,2.1578 -1.2416513,2.6629 0,0.3192 0.073668,0.3159 0.9102673,-0.033 0.9245483,-0.3786 2.5984037,-1.9392 4.0239794,-3.752 1.611847,-2.0491 4.0359398,-5.9427 6.2384918,-10.0201 1.556955,-2.8819 4.496932,-8.8389 5.373975,-10.8887 l 0.793023,-1.8534 -0.382827,-1.4482 c -0.87534,-3.3108 -1.495167,-6.7379 -1.617108,-8.9411 -0.08569,-1.54774 0.07754,-3.26216 0.363221,-3.81436 0.462256,-0.89399 1.956896,-1.37086 3.207444,-1.02325 0.868491,0.24185 1.709031,1.55355 1.709031,2.66915 0,0.476 -0.239089,2.10516 -0.300021,2.04426 -0.0185,-0.034 -0.08784,-0.4653 -0.153872,-0.99214 -0.0971,-0.77432 -0.223697,-1.15892 -0.658349,-2.00062 -0.337349,-0.6532 -0.68503,-1.154 -0.93179,-1.3423 -0.368437,-0.28204 -0.407158,-0.28873 -0.60501,-0.1122 -0.754902,0.6834 -0.845435,4.45706 -0.194053,8.08926 0.287821,1.6048 0.682785,3.2983 0.795511,3.4109 0.08339,0.085 0.286946,-0.5951 0.960555,-3.2036 0.33731,-1.3061 0.615578,-2.2445 0.618375,-2.085 0.0092,0.5323 -0.334637,4.7962 -0.457907,5.6761 -0.06699,0.4778 -0.191062,1.1022 -0.275821,1.3879 -0.149219,0.5031 -0.139642,0.554 0.303581,1.6218 1.099295,2.6482 2.589845,5.086 4.335019,7.0902 1.136046,1.3043 2.40064,2.3621 3.932673,3.29 l 1.055578,0.6393 1.356908,-0.1775 c 6.039812,-0.7922 10.800858,-0.2958 11.696872,1.2223 0.215966,0.3657 0.381423,1.3758 0.225346,1.3758 -0.05823,0 -0.199366,-0.1123 -0.313667,-0.2415 -0.276494,-0.323 -1.514805,-0.8756 -2.481353,-1.1075 -0.623743,-0.1467 -1.370137,-0.1814 -3.733508,-0.1684 -3.133689,0.034 -4.493269,0.1123 -4.408304,0.3024 0.131097,0.2958 4.125661,1.8157 6.095497,2.3208 2.458747,0.6306 3.857026,0.6482 4.393952,0.054 0.332957,-0.3682 0.405813,-0.2721 0.216741,0.2823 -0.361918,1.062 -1.030369,1.404 -2.706851,1.385 -2.612077,-0.033 -6.42358,-1.1585 -10.016955,-2.9648 l -1.38688,-0.6976 -1.045754,0.1394 c -1.521676,0.1984 -5.933901,1.0988 -8.343668,1.7033 -1.865337,0.4678 -6.318567,1.7283 -6.971081,1.9723 -0.15695,0.06 -0.668154,0.7812 -1.352197,1.9102 -2.2946178,3.7881 -3.8330088,5.8649 -5.5591398,7.5045 -1.8370493,1.7404 -3.3103854,2.1537 -4.9415823,1.3828 z m 13.6691095,-12.3035 c 2.779386,-1.0819 6.865443,-2.2352 10.452887,-2.951 1.193692,-0.2383 2.17109,-0.465 2.172003,-0.5039 8.07e-4,-0.04 -0.376273,-0.3507 -0.838182,-0.6921 -2.369825,-1.7533 -4.835478,-4.6644 -6.397612,-7.5541 -0.303045,-0.5607 -0.564961,-1.0039 -0.582012,-0.9847 -0.0172,0.033 -0.349672,0.8334 -0.73915,1.8096 -1.18494,2.9704 -2.469364,5.6007 -4.606982,9.4336 -0.595487,1.0679 -1.082708,1.9724 -1.082708,2.0106 0,0.036 0.0651,0.043 0.144838,0 0.07963,-0.034 0.744256,-0.2926 1.476941,-0.5777 z"
       style="opacity:0.80000000000000004;fill:#000d0d;fill-opacity:1;filter:url(#filter3778);stroke-width:0.3818783;stroke-miterlimit:4;stroke-dasharray:none;stroke:#000000;stroke-opacity:1"
       transform="matrix(1.0207082,0,0,1.0749009,-0.38458882,-76.829583)" />
    <path
       style="fill:#ffffff;stroke:#ffffff;stroke-opacity:1;stroke-width:0.8;stroke-miterlimit:4;stroke-dasharray:none"
       d="m 3.0035213,1039.1223 c -0.9623579,-0.479 -1.1588142,-0.666 -1.2524217,-1.1912 -0.2926989,-1.6434 1.9448368,-4.5023 5.4732238,-6.9941 1.0830584,-0.7646 3.4590866,-2.1863 3.5297486,-2.1119 0.02058,0.037 -0.451526,0.4848 -1.0487477,1.0296 -2.0578117,1.8764 -4.3710033,4.432 -5.1980665,5.743 -0.8055839,1.2764 -1.2672728,2.3193 -1.2672728,2.8621 0,0.3431 0.075188,0.3396 0.9290507,-0.035 0.9436264,-0.4069 2.6520217,-2.0843 4.1070142,-4.0328 1.6451077,-2.2024 4.1192211,-6.3873 6.3672231,-10.7698 1.589083,-3.0975 4.589726,-9.5003 5.484867,-11.7034 l 0.809388,-1.9921 -0.390728,-1.5566 c -0.893402,-3.5585 -1.52602,-7.242 -1.650477,-9.61008 -0.08746,-1.66351 0.07914,-3.50619 0.370716,-4.0997 0.471795,-0.96089 1.997277,-1.47344 3.27363,-1.09982 0.886412,0.25995 1.744297,1.66979 1.744297,2.86887 0,0.51161 -0.244023,2.26261 -0.306212,2.19715 -0.01888,-0.0365 -0.08965,-0.50011 -0.157047,-1.06633 -0.0991,-0.83224 -0.228313,-1.24561 -0.671934,-2.15029 -0.34431,-0.70208 -0.699165,-1.24035 -0.951018,-1.44274 -0.376039,-0.30314 -0.415559,-0.31033 -0.617494,-0.12059 -0.77048,0.73453 -0.86288,4.79049 -0.198058,8.69443 0.29376,1.7249 0.696875,3.5451 0.811927,3.6661 0.08512,0.091 0.292868,-0.6396 0.980377,-3.4433 0.34427,-1.4038 0.628279,-2.4124 0.631134,-2.241 0.0094,0.5722 -0.341543,5.1551 -0.467356,6.1008 -0.06837,0.5136 -0.195004,1.1847 -0.281513,1.4918 -0.152298,0.5407 -0.142523,0.5954 0.309846,1.7431 1.121979,2.8464 2.643287,5.4666 4.424472,7.6208 1.159488,1.4018 2.450177,2.5388 4.013824,3.5361 l 1.07736,0.6872 1.384907,-0.1908 c 6.164444,-0.8515 11.023734,-0.318 11.938237,1.3137 0.220423,0.3931 0.389294,1.4788 0.229996,1.4788 -0.05943,0 -0.20348,-0.1207 -0.320139,-0.2596 -0.282199,-0.3472 -1.546063,-0.9411 -2.532556,-1.1904 -0.636614,-0.1576 -1.398409,-0.1949 -3.810549,-0.181 -3.198352,0.037 -4.585987,0.1207 -4.499269,0.3251 0.133802,0.3179 4.210794,1.9515 6.221277,2.4944 2.509484,0.6778 3.936616,0.6967 4.484621,0.058 0.339828,-0.3958 0.414188,-0.2925 0.221214,0.3034 -0.369386,1.1414 -1.05163,1.509 -2.762707,1.4886 -2.665977,-0.035 -6.55613,-1.2452 -10.223655,-3.1866 l -1.415498,-0.7498 -1.067334,0.1498 c -1.553075,0.2133 -6.056346,1.181 -8.515839,1.8308 -1.903828,0.5028 -6.44895,1.8576 -7.114929,2.1198 -0.160188,0.064 -0.681941,0.8397 -1.3801,2.0532 -2.341967,4.0715 -3.9121018,6.3037 -5.6738515,8.066 -1.8749572,1.8706 -3.3786956,2.3148 -5.0435523,1.4862 z m 13.9511717,-13.2241 c 2.836738,-1.1629 7.007112,-2.4025 10.668582,-3.1718 1.218324,-0.2562 2.21589,-0.4998 2.216822,-0.5416 8.24e-4,-0.043 -0.384037,-0.377 -0.855478,-0.7439 -2.418726,-1.8845 -4.935258,-5.0134 -6.529626,-8.1194 -0.309299,-0.6026 -0.576619,-1.079 -0.594022,-1.0583 -0.01755,0.035 -0.356888,0.8957 -0.754403,1.945 -1.20939,3.1926 -2.520319,6.0197 -4.702047,10.1394 -0.607774,1.1478 -1.105049,2.12 -1.105049,2.1611 0,0.039 0.06645,0.046 0.147827,0 0.08127,-0.037 0.759614,-0.3145 1.507417,-0.621 z"
       id="path6388"
       inkscape:connector-curvature="0"
       sodipodi:nodetypes="ssscssssssscssssscssssssscssssscsssscssssssscsssssscscsscsssccc" />
    <g
       id="g3786"
       transform="translate(-0.50507627,0.25253814)">
      <path
         id="path914"
         d="m 60.894229,1007.9568 -18.40394,-18.70263 0.24343,15.74693 c 0.02787,1.803 1.270392,3.2453 2.819614,3.2187 l 15.340896,-0.263 z"
         style="opacity:0.7;fill:#000000;fill-opacity:1;stroke:none"
         inkscape:connector-curvature="0" />
      <path
         inkscape:connector-curvature="0"
         style="fill:url(#linearGradient3790);fill-opacity:1;stroke:none"
         d="m 60.200418,1007.202 -16.851,-17.12448 0.222888,14.41828 c 0.02553,1.6508 1.163194,2.9714 2.581687,2.947 l 14.046425,-0.2408 z"
         id="path902" />
    </g>
    <path
       inkscape:connector-curvature="0"
       style="fill:url(#linearGradient3020);fill-opacity:1;stroke:none"
       d="m -12.301,1044.6554 0,18.0152 c 0,2.5783 1.168922,4.6706 2.6533683,4.6706 l 67.2892747,0 c 1.484473,0 2.653357,-2.0923 2.653357,-4.6706 l 0,-18.0152 -72.596,0 z"
       id="path874" />
    <g
       style="font-size:7.5px;font-style:normal;font-variant:normal;font-weight:bold;font-stretch:normal;line-height:125%;letter-spacing:0px;word-spacing:0px;fill:#ffffff;fill-opacity:1;stroke:none;font-family:Impact;-inkscape-font-specification:Impact Bold"
       id="text4796"
       transform="matrix(2.4998004,0,0,2.4998004,-35.845725,-1558.7521)">
      <path
         d="m 18.739386,1042.679 1.552734,0 q 0.629883,0 0.966797,0.099 0.340576,0.099 0.509033,0.2857 0.172119,0.1867 0.230713,0.4541 0.06226,0.2637 0.06226,0.8203 l 0,0.5163 q 0,0.5677 -0.117188,0.8277 -0.117187,0.26 -0.432129,0.3992 -0.311279,0.1391 -0.81665,0.1391 l -0.413818,0 0,2.3877 -1.541748,0 -4e-6,-5.9291 z m 1.541748,1.0144 0,1.5087 q 0.06592,0 0.113525,0 0.212402,0 0.292969,-0.1025 0.08423,-0.1062 0.08423,-0.4358 l 0,-0.4871 q 0,-0.3039 -0.09521,-0.3955 -0.09522,-0.088 -0.395514,-0.088 z"
         id="path831"
         inkscape:connector-curvature="0" />
      <path
         d="m 22.504034,1042.679 1.153564,0 q 1.116944,0 1.50879,0.1025 0.395507,0.1025 0.600585,0.3369 0.205079,0.2344 0.256348,0.5237 0.05127,0.2856 0.05127,1.1279 l 0,2.0764 q 0,0.7984 -0.07691,1.0694 -0.07324,0.2673 -0.260009,0.4211 -0.186768,0.1502 -0.461426,0.2124 -0.274658,0.059 -0.827637,0.059 l -1.94458,0 5e-6,-5.9293 z m 1.541748,1.0144 0,3.9001 q 0.333252,0 0.410156,-0.1318 0.07691,-0.1355 0.07691,-0.7288 l 0,-2.3035 q 0,-0.4028 -0.02564,-0.5163 -0.02563,-0.1135 -0.117188,-0.1648 -0.09155,-0.055 -0.344238,-0.055 z"
         id="path833"
         inkscape:connector-curvature="0" />
      <path
         d="m 26.649542,1042.679 2.611084,0 0,1.1865 -1.069336,0 0,1.1242 0.952148,0 0,1.128 -0.952148,0 0,2.4902 -1.541748,0 0,-5.9289 z"
         id="path835"
         inkscape:connector-curvature="0" />
    </g>
  </g>
</svg>
