<?xml version="1.0" encoding="UTF-8" standalone="no"?>
<!-- Created with Inkscape (http://www.inkscape.org/) -->

<svg
   xmlns:dc="http://purl.org/dc/elements/1.1/"
   xmlns:cc="http://creativecommons.org/ns#"
   xmlns:rdf="http://www.w3.org/1999/02/22-rdf-syntax-ns#"
   xmlns:svg="http://www.w3.org/2000/svg"
   xmlns="http://www.w3.org/2000/svg"
   xmlns:xlink="http://www.w3.org/1999/xlink"
   xmlns:sodipodi="http://sodipodi.sourceforge.net/DTD/sodipodi-0.dtd"
   xmlns:inkscape="http://www.inkscape.org/namespaces/inkscape"
   width="24"
   height="24"
   id="svg6399"
   version="1.1"
   inkscape:version="0.48.3.1 r9886"
   sodipodi:docname="png-small.svg" preserveAspectRatio="xMinYMid meet">
  <defs
     id="defs6401">
    <linearGradient
       y2="468.35892"
       x2="314.34872"
       y1="425.61682"
       x1="314.34872"
       gradientTransform="translate(-53.785477,-0.003684)"
       gradientUnits="userSpaceOnUse"
       id="linearGradient1187"
       xlink:href="#linearGradient1069"
       inkscape:collect="always" />
    <linearGradient
       id="linearGradient1069">
      <stop
         style="stop-color:#ffffff;stop-opacity:1"
         offset="0"
         id="stop1071" />
      <stop
         style="stop-color:#e6e6e6;stop-opacity:1"
         offset="1"
         id="stop1073" />
    </linearGradient>
    <linearGradient
       y2="468.35892"
       x2="314.34872"
       y1="425.61682"
       x1="314.34872"
       gradientTransform="matrix(0.5380083,0,0,0.53434838,310.5714,390.23488)"
       gradientUnits="userSpaceOnUse"
       id="linearGradient1660"
       xlink:href="#linearGradient1069"
       inkscape:collect="always" />
    <linearGradient
       gradientTransform="translate(218.88524,181.71843)"
       inkscape:collect="always"
       xlink:href="#linearGradient6707"
       id="linearGradient1110"
       x1="262.01361"
       y1="471.95245"
       x2="262.01361"
       y2="442.7843"
       gradientUnits="userSpaceOnUse" />
    <linearGradient
       id="linearGradient6707">
      <stop
         id="stop6709"
         offset="0"
         style="stop-color:#000000;stop-opacity:1;" />
      <stop
         id="stop6711"
         offset="1"
         style="stop-color:#ffffff;stop-opacity:1;" />
    </linearGradient>
    <linearGradient
       y2="468.35892"
       x2="314.34872"
       y1="425.61682"
       x1="314.34872"
       gradientTransform="translate(-53.785477,-0.003684)"
       gradientUnits="userSpaceOnUse"
       id="linearGradient1758"
       xlink:href="#linearGradient1069-4"
       inkscape:collect="always" />
    <linearGradient
       id="linearGradient1069-4">
      <stop
         style="stop-color:#ffffff;stop-opacity:1"
         offset="0"
         id="stop1071-6" />
      <stop
         style="stop-color:#e6e6e6;stop-opacity:1"
         offset="1"
         id="stop1073-5" />
    </linearGradient>
    <linearGradient
       x1="64"
       y1="60"
       x2="62"
       y2="7"
       id="linearGradient3769"
       xlink:href="#linearGradient3763"
       gradientUnits="userSpaceOnUse"
       gradientTransform="matrix(1.231823,0,0,1.231823,-27.816151,7.1708322)" />
    <linearGradient
       id="linearGradient3763">
      <stop
         id="stop3765"
         style="stop-color:#ff7700;stop-opacity:1"
         offset="0" />
      <stop
         id="stop3767"
         style="stop-color:#ffb15d;stop-opacity:1"
         offset="1" />
    </linearGradient>
    <linearGradient
       inkscape:collect="always"
       xlink:href="#linearGradient3986"
       id="linearGradient3063"
       gradientUnits="userSpaceOnUse"
       gradientTransform="matrix(1,0,0,0.99732177,88.950233,1.8621695)"
       x1="122.09729"
       y1="812.36353"
       x2="137.64491"
       y2="812.36353" />
    <linearGradient
       inkscape:collect="always"
       id="linearGradient3986">
      <stop
         style="stop-color:#000000;stop-opacity:1;"
         offset="0"
         id="stop3988" />
      <stop
         style="stop-color:#000000;stop-opacity:0;"
         offset="1"
         id="stop3990" />
    </linearGradient>
    <linearGradient
       inkscape:collect="always"
       xlink:href="#linearGradient3986"
       id="linearGradient3065"
       gradientUnits="userSpaceOnUse"
       gradientTransform="matrix(1,0,0,0.99732177,88.860947,22.556596)"
       x1="122.09729"
       y1="812.36353"
       x2="137.64491"
       y2="812.36353" />
    <linearGradient
       inkscape:collect="always"
       xlink:href="#linearGradient3986"
       id="linearGradient3067"
       gradientUnits="userSpaceOnUse"
       gradientTransform="matrix(-0.99999709,-0.00240444,0.0024109,-0.99731887,292.15947,1643.3682)"
       x1="122.09729"
       y1="812.36353"
       x2="137.64491"
       y2="812.36353" />
    <linearGradient
       inkscape:collect="always"
       xlink:href="#linearGradient3986"
       id="linearGradient3069"
       gradientUnits="userSpaceOnUse"
       gradientTransform="matrix(-0.99999709,-0.00240444,0.0024109,-0.99731887,292.15947,1622.4346)"
       x1="122.09729"
       y1="812.36353"
       x2="137.64491"
       y2="812.36353" />
    <linearGradient
       y2="812.36353"
       x2="137.64491"
       y1="812.36353"
       x1="122.09729"
       gradientTransform="matrix(-0.99999709,-0.00240444,0.0024109,-0.99731887,292.15947,1622.4346)"
       gradientUnits="userSpaceOnUse"
       id="linearGradient3084"
       xlink:href="#linearGradient3986"
       inkscape:collect="always" />
  </defs>
  <sodipodi:namedview
     id="base"
     pagecolor="#ffffff"
     bordercolor="#666666"
     borderopacity="1.0"
     inkscape:pageopacity="0.0"
     inkscape:pageshadow="2"
     inkscape:zoom="15.839192"
     inkscape:cx="-3.3541985"
     inkscape:cy="13.612933"
     inkscape:document-units="px"
     inkscape:current-layer="layer1"
     showgrid="false"
     fit-margin-top="0"
     fit-margin-left="1"
     fit-margin-right="1"
     fit-margin-bottom="0"
     inkscape:window-width="1881"
     inkscape:window-height="1029"
     inkscape:window-x="0"
     inkscape:window-y="26"
     inkscape:window-maximized="1"
     showguides="false">
    <inkscape:grid
       type="xygrid"
       id="grid3069" />
  </sodipodi:namedview>
  <metadata
     id="metadata6404">
    <rdf:RDF>
      <cc:Work
         rdf:about="">
        <dc:format>image/svg+xml</dc:format>
        <dc:type
           rdf:resource="http://purl.org/dc/dcmitype/StillImage" />
        <dc:title />
      </cc:Work>
    </rdf:RDF>
  </metadata>
  <g
     inkscape:label="Capa 1"
     inkscape:groupmode="layer"
     id="layer1"
     transform="translate(-468,-617.50507)">
    <path
       style="opacity:0.85;fill:#000000;fill-opacity:1;stroke:none"
       d="m 468.89035,617.50507 22.21928,0 c 0.49327,0 0.89037,0.43363 0.89037,0.97227 l 0,22.05546 c 0,0.53865 -0.3971,0.97227 -0.89037,0.97227 l -22.21928,0 c -0.49326,0 -0.89035,-0.43363 -0.89035,-0.97227 l 0,-22.05546 c 0,-0.53864 0.39709,-0.97227 0.89035,-0.97227 z"
       id="rect3922"
       inkscape:connector-curvature="0" />
    <path
       inkscape:connector-curvature="0"
       id="path869"
       d="m 469.34891,618.00507 21.30215,0 c 0.47032,0 0.84894,0.41556 0.84894,0.93177 l 0,21.13646 c 0,0.51621 -0.37862,0.93177 -0.84894,0.93177 l -21.30215,0 c -0.4703,0 -0.84891,-0.41556 -0.84891,-0.93177 l 0,-21.13646 c 0,-0.51621 0.37861,-0.93177 0.84891,-0.93177 z"
       style="fill:url(#linearGradient1660);fill-opacity:1;stroke:none" />
    <g
       id="g3048"
       transform="matrix(0.29939872,0,0,0.50186575,422.6577,216.76868)">
      <g
         transform="matrix(0.54365078,0,0,0.65226626,86.999765,279.83371)"
         id="g3095">
        <path
           inkscape:connector-curvature="0"
           id="rect3137-6-5-5-1"
           style="opacity:0.3;color:#000000;fill:#ffffff;fill-opacity:1;fill-rule:nonzero;stroke:none;stroke-width:0.98542744;marker:none;visibility:visible;display:inline;overflow:visible;enable-background:accumulate"
           d="m 176.22229,828.75638 4,0 0,4 -4,0 z m -8,0 4,0 0,4 -4,0 z m -8,0 4,0 0,4 -4,0 z m 12,-4 4,0 0,4 -4,0 z m -8,0 4,0 0,4 -4,0 z m -8,0 4,0 0,4 -4,0 z m 20,-4 4,0 0,4 -4,0 z m -8,0 4,0 0,4 -4,0 z m -8,0 4,0 0,4 -4,0 z m 12,-4 4,0 0,4 -4,0 z m -8,0 4,0 0,4 -4,0 z m -8,0 4,0 0,4 -4,0 z m 20,-4 4,0 0,4 -4,0 z m -8,0 4,0 0,4 -4,0 z m -8,0 4,0 0,4 -4,0 z m 12,-4 4,0 0,4 -4,0 z m -8,0 4,0 0,4 -4,0 z m -8,0 4,0 0,4 -4,0 z m 20,-4 4,0 0,4 -4,0 z m -8,0 4,0 0,4 -4,0 z m -8,0 4,0 0,4 -4,0 z m 12,-4 4,0 0,4 -4,0 z m -8,0 4,0 0,4 -4,0 z m -8,0 4,0 0,4 -4,0 z" />
        <path
           inkscape:connector-curvature="0"
           id="rect3137-6-5-5"
           style="opacity:0.2;color:#000000;fill:#000000;fill-opacity:1;fill-rule:nonzero;stroke:none;stroke-width:0.98542744;marker:none;visibility:visible;display:inline;overflow:visible;enable-background:accumulate"
           d="m 176.22229,827.75638 4,0 0,4 -4,0 z m -8,0 4,0 0,4 -4,0 z m -8,0 4,0 0,4 -4,0 z m 12,-4 4,0 0,4 -4,0 z m -8,0 4,0 0,4 -4,0 z m -8,0 4,0 0,4 -4,0 z m 20,-4 4,0 0,4 -4,0 z m -8,0 4,0 0,4 -4,0 z m -8,0 4,0 0,4 -4,0 z m 12,-4 4,0 0,4 -4,0 z m -8,0 4,0 0,4 -4,0 z m -8,0 4,0 0,4 -4,0 z m 20,-4 4,0 0,4 -4,0 z m -8,0 4,0 0,4 -4,0 z m -8,0 4,0 0,4 -4,0 z m 12,-4 4,0 0,4 -4,0 z m -8,0 4,0 0,4 -4,0 z m -8,0 4,0 0,4 -4,0 z m 20,-4 4,0 0,4 -4,0 z m -8,0 4,0 0,4 -4,0 z m -8,0 4,0 0,4 -4,0 z m 12,-4 4,0 0,4 -4,0 z m -8,0 4,0 0,4 -4,0 z m -8,0 4,0 0,4 -4,0 z" />
        <path
           d="m 200.22229,828.75638 4,0 0,4 -4,0 z m -8,0 4,0 0,4 -4,0 z m -8,0 4,0 0,4 -4,0 z m 12,-4 4,0 0,4 -4,0 z m -8,0 4,0 0,4 -4,0 z m -8,0 4,0 0,4 -4,0 z m 20,-4 4,0 0,4 -4,0 z m -8,0 4,0 0,4 -4,0 z m -8,0 4,0 0,4 -4,0 z m 12,-4 4,0 0,4 -4,0 z m -8,0 4,0 0,4 -4,0 z m -8,0 4,0 0,4 -4,0 z m 20,-4 4,0 0,4 -4,0 z m -8,0 4,0 0,4 -4,0 z m -8,0 4,0 0,4 -4,0 z m 12,-4 4,0 0,4 -4,0 z m -8,0 4,0 0,4 -4,0 z m -8,0 4,0 0,4 -4,0 z m 20,-4 4,0 0,4 -4,0 z m -8,0 4,0 0,4 -4,0 z m -8,0 4,0 0,4 -4,0 z m 12,-4 4,0 0,4 -4,0 z m -8,0 4,0 0,4 -4,0 z m -8,0 4,0 0,4 -4,0 z"
           style="opacity:0.3;color:#000000;fill:#ffffff;fill-opacity:1;fill-rule:nonzero;stroke:none;stroke-width:0.98542744;marker:none;visibility:visible;display:inline;overflow:visible;enable-background:accumulate"
           id="path3081"
           inkscape:connector-curvature="0" />
        <path
           d="m 200.22229,827.75638 4,0 0,4 -4,0 z m -8,0 4,0 0,4 -4,0 z m -8,0 4,0 0,4 -4,0 z m 12,-4 4,0 0,4 -4,0 z m -8,0 4,0 0,4 -4,0 z m -8,0 4,0 0,4 -4,0 z m 20,-4 4,0 0,4 -4,0 z m -8,0 4,0 0,4 -4,0 z m -8,0 4,0 0,4 -4,0 z m 12,-4 4,0 0,4 -4,0 z m -8,0 4,0 0,4 -4,0 z m -8,0 4,0 0,4 -4,0 z m 20,-4 4,0 0,4 -4,0 z m -8,0 4,0 0,4 -4,0 z m -8,0 4,0 0,4 -4,0 z m 12,-4 4,0 0,4 -4,0 z m -8,0 4,0 0,4 -4,0 z m -8,0 4,0 0,4 -4,0 z m 20,-4 4,0 0,4 -4,0 z m -8,0 4,0 0,4 -4,0 z m -8,0 4,0 0,4 -4,0 z m 12,-4 4,0 0,4 -4,0 z m -8,0 4,0 0,4 -4,0 z m -8,0 4,0 0,4 -4,0 z"
           style="opacity:0.2;color:#000000;fill:#000000;fill-opacity:1;fill-rule:nonzero;stroke:none;stroke-width:0.98542744;marker:none;visibility:visible;display:inline;overflow:visible;enable-background:accumulate"
           id="path3083"
           inkscape:connector-curvature="0" />
        <path
           inkscape:connector-curvature="0"
           id="path3087"
           style="opacity:0.2;color:#000000;fill:#000000;fill-opacity:1;fill-rule:nonzero;stroke:none;stroke-width:0.98542744;marker:none;visibility:visible;display:inline;overflow:visible;enable-background:accumulate"
           d="m 224.22229,827.75638 4,0 0,4 -4,0 z m -8,0 4,0 0,4 -4,0 z m -8,0 4,0 0,4 -4,0 z m 12,-4 4,0 0,4 -4,0 z m -8,0 4,0 0,4 -4,0 z m -8,0 4,0 0,4 -4,0 z m 20,-4 4,0 0,4 -4,0 z m -8,0 4,0 0,4 -4,0 z m -8,0 4,0 0,4 -4,0 z m 12,-4 4,0 0,4 -4,0 z m -8,0 4,0 0,4 -4,0 z m -8,0 4,0 0,4 -4,0 z m 20,-4 4,0 0,4 -4,0 z m -8,0 4,0 0,4 -4,0 z m -8,0 4,0 0,4 -4,0 z m 12,-4 4,0 0,4 -4,0 z m -8,0 4,0 0,4 -4,0 z m -8,0 4,0 0,4 -4,0 z m 20,-4 4,0 0,4 -4,0 z m -8,0 4,0 0,4 -4,0 z m -8,0 4,0 0,4 -4,0 z m 12,-4 4,0 0,4 -4,0 z m -8,0 4,0 0,4 -4,0 z m -8,0 4,0 0,4 -4,0 z" />
        <path
           d="m 224.22229,859.75638 4,0 0,4 -4,0 z m -8,0 4,0 0,4 -4,0 z m -8,0 4,0 0,4 -4,0 z m 12,-4 4,0 0,4 -4,0 z m -8,0 4,0 0,4 -4,0 z m -8,0 4,0 0,4 -4,0 z m 20,-4 4,0 0,4 -4,0 z m -8,0 4,0 0,4 -4,0 z m -8,0 4,0 0,4 -4,0 z m 12,-4 4,0 0,4 -4,0 z m -8,0 4,0 0,4 -4,0 z m -8,0 4,0 0,4 -4,0 z m 20,-4 4,0 0,4 -4,0 z m -8,0 4,0 0,4 -4,0 z m -8,0 4,0 0,4 -4,0 z m 12,-4 4,0 0,4 -4,0 z m -8,0 4,0 0,4 -4,0 z m -8,0 4,0 0,4 -4,0 z m 20,-4 4,0 0,4 -4,0 z m -8,0 4,0 0,4 -4,0 z m -8,0 4,0 0,4 -4,0 z m 12,-4 4,0 0,4 -4,0 z m -8,0 4,0 0,4 -4,0 z m -8,0 4,0 0,4 -4,0 z"
           style="opacity:0.2;color:#000000;fill:#000000;fill-opacity:1;fill-rule:nonzero;stroke:none;stroke-width:0.98542744;marker:none;visibility:visible;display:inline;overflow:visible;enable-background:accumulate"
           id="path3089"
           inkscape:connector-curvature="0" />
        <path
           inkscape:connector-curvature="0"
           id="path3091"
           style="opacity:0.2;color:#000000;fill:#000000;fill-opacity:1;fill-rule:nonzero;stroke:none;stroke-width:0.98542744;marker:none;visibility:visible;display:inline;overflow:visible;enable-background:accumulate"
           d="m 200.22229,859.75638 4,0 0,4 -4,0 z m -8,0 4,0 0,4 -4,0 z m -8,0 4,0 0,4 -4,0 z m 12,-4 4,0 0,4 -4,0 z m -8,0 4,0 0,4 -4,0 z m -8,0 4,0 0,4 -4,0 z m 20,-4 4,0 0,4 -4,0 z m -8,0 4,0 0,4 -4,0 z m -8,0 4,0 0,4 -4,0 z m 12,-4 4,0 0,4 -4,0 z m -8,0 4,0 0,4 -4,0 z m -8,0 4,0 0,4 -4,0 z m 20,-4 4,0 0,4 -4,0 z m -8,0 4,0 0,4 -4,0 z m -8,0 4,0 0,4 -4,0 z m 12,-4 4,0 0,4 -4,0 z m -8,0 4,0 0,4 -4,0 z m -8,0 4,0 0,4 -4,0 z m 20,-4 4,0 0,4 -4,0 z m -8,0 4,0 0,4 -4,0 z m -8,0 4,0 0,4 -4,0 z m 12,-4 4,0 0,4 -4,0 z m -8,0 4,0 0,4 -4,0 z m -8,0 4,0 0,4 -4,0 z" />
        <path
           d="m 176.22229,859.75638 4,0 0,4 -4,0 z m -8,0 4,0 0,4 -4,0 z m -8,0 4,0 0,4 -4,0 z m 12,-4 4,0 0,4 -4,0 z m -8,0 4,0 0,4 -4,0 z m -8,0 4,0 0,4 -4,0 z m 20,-4 4,0 0,4 -4,0 z m -8,0 4,0 0,4 -4,0 z m -8,0 4,0 0,4 -4,0 z m 12,-4 4,0 0,4 -4,0 z m -8,0 4,0 0,4 -4,0 z m -8,0 4,0 0,4 -4,0 z m 20,-4 4,0 0,4 -4,0 z m -8,0 4,0 0,4 -4,0 z m -8,0 4,0 0,4 -4,0 z m 12,-4 4,0 0,4 -4,0 z m -8,0 4,0 0,4 -4,0 z m -8,0 4,0 0,4 -4,0 z m 20,-4 4,0 0,4 -4,0 z m -8,0 4,0 0,4 -4,0 z m -8,0 4,0 0,4 -4,0 z m 12,-4 4,0 0,4 -4,0 z m -8,0 4,0 0,4 -4,0 z m -8,0 4,0 0,4 -4,0 z"
           style="opacity:0.2;color:#000000;fill:#000000;fill-opacity:1;fill-rule:nonzero;stroke:none;stroke-width:0.98542744;marker:none;visibility:visible;display:inline;overflow:visible;enable-background:accumulate"
           id="path3093"
           inkscape:connector-curvature="0" />
      </g>
      <path
         inkscape:connector-curvature="0"
         id="path3964"
         style="opacity:0.2;color:#000000;fill:url(#linearGradient3063);fill-opacity:1;fill-rule:nonzero;stroke:none;stroke-width:0.98542744;marker:none;visibility:visible;display:inline;overflow:visible;enable-background:accumulate"
         d="m 224.00388,819.87719 2.59127,0 0,2.60907 -2.59127,0 z m -5.18254,0 2.59127,0 0,2.60907 -2.59127,0 z m -5.18254,0 2.59127,0 0,2.60907 -2.59127,0 z m 7.77381,-2.60906 2.59127,0 0,2.60906 -2.59127,0 z m -5.18254,0 2.59127,0 0,2.60906 -2.59127,0 z m -5.18254,0 2.59127,0 0,2.60906 -2.59127,0 z m 12.95635,-2.60907 2.59127,0 0,2.60907 -2.59127,0 z m -5.18254,0 2.59127,0 0,2.60907 -2.59127,0 z m -5.18254,0 2.59127,0 0,2.60907 -2.59127,0 z m 7.77381,-2.60906 2.59127,0 0,2.60906 -2.59127,0 z m -5.18254,0 2.59127,0 0,2.60906 -2.59127,0 z m -5.18254,0 2.59127,0 0,2.60906 -2.59127,0 z m 12.95635,-2.60906 2.59127,0 0,2.60906 -2.59127,0 z m -5.18254,0 2.59127,0 0,2.60906 -2.59127,0 z m -5.18254,0 2.59127,0 0,2.60906 -2.59127,0 z m 7.77381,-2.60907 2.59127,0 0,2.60907 -2.59127,0 z m -5.18254,0 2.59127,0 0,2.60907 -2.59127,0 z m -5.18254,0 2.59127,0 0,2.60907 -2.59127,0 z m 12.95635,-2.60906 2.59127,0 0,2.60906 -2.59127,0 z m -5.18254,0 2.59127,0 0,2.60906 -2.59127,0 z m -5.18254,0 2.59127,0 0,2.60906 -2.59127,0 z m 7.77381,-2.60907 2.59127,0 0,2.60907 -2.59127,0 z m -5.18254,0 2.59127,0 0,2.60907 -2.59127,0 z m -5.18254,0 2.59127,0 0,2.60907 -2.59127,0 z" />
      <path
         d="m 223.91459,840.57162 2.59127,0 0,2.60907 -2.59127,0 z m -5.18254,0 2.59127,0 0,2.60907 -2.59127,0 z m -5.18254,0 2.59127,0 0,2.60907 -2.59127,0 z m 7.77381,-2.60907 2.59127,0 0,2.60907 -2.59127,0 z m -5.18254,0 2.59127,0 0,2.60907 -2.59127,0 z m -5.18254,0 2.59127,0 0,2.60907 -2.59127,0 z m 12.95635,-2.60906 2.59127,0 0,2.60906 -2.59127,0 z m -5.18254,0 2.59127,0 0,2.60906 -2.59127,0 z m -5.18254,0 2.59127,0 0,2.60906 -2.59127,0 z m 7.77381,-2.60906 2.59127,0 0,2.60906 -2.59127,0 z m -5.18254,0 2.59127,0 0,2.60906 -2.59127,0 z m -5.18254,0 2.59127,0 0,2.60906 -2.59127,0 z m 12.95635,-2.60907 2.59127,0 0,2.60907 -2.59127,0 z m -5.18254,0 2.59127,0 0,2.60907 -2.59127,0 z m -5.18254,0 2.59127,0 0,2.60907 -2.59127,0 z m 7.77381,-2.60906 2.59127,0 0,2.60906 -2.59127,0 z m -5.18254,0 2.59127,0 0,2.60906 -2.59127,0 z m -5.18254,0 2.59127,0 0,2.60906 -2.59127,0 z m 12.95635,-2.60906 2.59127,0 0,2.60906 -2.59127,0 z m -5.18254,0 2.59127,0 0,2.60906 -2.59127,0 z m -5.18254,0 2.59127,0 0,2.60906 -2.59127,0 z m 7.77381,-2.60908 2.59127,0 0,2.60908 -2.59127,0 z m -5.18254,0 2.59127,0 0,2.60908 -2.59127,0 z m -5.18254,0 2.59127,0 0,2.60908 -2.59127,0 z"
         style="opacity:0.2;color:#000000;fill:url(#linearGradient3065);fill-opacity:1;fill-rule:nonzero;stroke:none;stroke-width:0.98542744;marker:none;visibility:visible;display:inline;overflow:visible;enable-background:accumulate"
         id="path3994"
         inkscape:connector-curvature="0" />
      <path
         inkscape:connector-curvature="0"
         id="path3998"
         style="opacity:0.2;color:#000000;fill:url(#linearGradient3067);fill-opacity:1;fill-rule:nonzero;stroke:none;stroke-width:0.98542744;marker:none;visibility:visible;display:inline;overflow:visible;enable-background:accumulate"
         d="m 159.08367,825.03073 -2.59126,-0.006 0.006,-2.60907 2.59126,0.006 z m 5.18254,0.0125 -2.59127,-0.006 0.006,-2.60907 2.59127,0.006 z m 5.18251,0.0125 -2.59126,-0.006 0.006,-2.60906 2.59126,0.006 z m -7.78008,2.59037 -2.59127,-0.006 0.006,-2.60905 2.59127,0.006 z m 5.18251,0.0125 -2.59126,-0.006 0.006,-2.60905 2.59125,0.006 z m 5.18254,0.0125 -2.59127,-0.006 0.006,-2.60906 2.59127,0.006 z m -12.96262,2.5779 -2.59127,-0.006 0.006,-2.60905 2.59126,0.006 z m 5.18251,0.0125 -2.59126,-0.006 0.006,-2.60905 2.59125,0.006 z m 5.18254,0.0125 -2.59127,-0.006 0.006,-2.60907 2.59127,0.006 z m -7.78011,2.59037 -2.59126,-0.006 0.006,-2.60906 2.59125,0.006 z m 5.18254,0.0125 -2.59127,-0.006 0.006,-2.60906 2.59127,0.006 z m 5.18251,0.0125 -2.59125,-0.006 0.006,-2.60905 2.59126,0.006 z m -12.96262,2.57791 -2.59126,-0.006 0.006,-2.60906 2.59125,0.006 z m 5.18254,0.0125 -2.59127,-0.006 0.006,-2.60906 2.59127,0.006 z m 5.18251,0.0125 -2.59125,-0.006 0.006,-2.60905 2.59126,0.006 z m -7.78008,2.59036 -2.59127,-0.006 0.006,-2.60906 2.59127,0.006 z m 5.18251,0.0125 -2.59125,-0.006 0.006,-2.60906 2.59126,0.006 z m 5.18253,0.0125 -2.59126,-0.006 0.006,-2.60905 2.59127,0.006 z m -12.96261,2.57789 -2.59127,-0.006 0.006,-2.60906 2.59127,0.006 z m 5.18251,0.0125 -2.59125,-0.006 0.006,-2.60905 2.59126,0.006 z m 5.18254,0.0125 -2.59127,-0.006 0.006,-2.60905 2.59127,0.006 z m -7.7801,2.59037 -2.59126,-0.006 0.006,-2.60908 2.59126,0.006 z m 5.18253,0.0125 -2.59127,-0.006 0.006,-2.60906 2.59127,0.006 z m 5.18252,0.0125 -2.59126,-0.006 0.006,-2.60908 2.59126,0.006 z" />
      <path
         d="m 159.08367,804.0971 -2.59126,-0.006 0.006,-2.60906 2.59126,0.006 z m 5.18254,0.0125 -2.59127,-0.006 0.006,-2.60907 2.59127,0.006 z m 5.18251,0.0125 -2.59126,-0.006 0.006,-2.60907 2.59126,0.006 z m -7.78008,2.59036 -2.59127,-0.006 0.006,-2.60905 2.59127,0.006 z m 5.18251,0.0125 -2.59126,-0.006 0.006,-2.60906 2.59125,0.006 z m 5.18254,0.0125 -2.59127,-0.006 0.006,-2.60905 2.59127,0.006 z m -12.96262,2.57789 -2.59127,-0.006 0.006,-2.60905 2.59126,0.006 z m 5.18251,0.0125 -2.59126,-0.006 0.006,-2.60906 2.59125,0.006 z m 5.18254,0.0125 -2.59127,-0.006 0.006,-2.60906 2.59127,0.006 z m -7.78011,2.59036 -2.59126,-0.006 0.006,-2.60907 2.59125,0.006 z m 5.18254,0.0125 -2.59127,-0.006 0.006,-2.60905 2.59127,0.006 z m 5.18251,0.0125 -2.59125,-0.006 0.006,-2.60905 2.59126,0.006 z m -12.96262,2.57791 -2.59126,-0.006 0.006,-2.60907 2.59125,0.006 z m 5.18254,0.0125 -2.59127,-0.006 0.006,-2.60905 2.59127,0.006 z m 5.18251,0.0125 -2.59125,-0.006 0.006,-2.60905 2.59126,0.006 z m -7.78008,2.59037 -2.59127,-0.006 0.006,-2.60905 2.59127,0.006 z m 5.18251,0.0125 -2.59125,-0.006 0.006,-2.60906 2.59126,0.006 z m 5.18253,0.0125 -2.59126,-0.006 0.006,-2.60906 2.59127,0.006 z m -12.96261,2.5779 -2.59127,-0.006 0.006,-2.60905 2.59127,0.006 z m 5.18251,0.0125 -2.59125,-0.006 0.006,-2.60905 2.59126,0.006 z m 5.18254,0.0125 -2.59127,-0.006 0.006,-2.60906 2.59127,0.006 z m -7.7801,2.59037 -2.59126,-0.006 0.006,-2.60907 2.59126,0.006 z m 5.18253,0.0125 -2.59127,-0.006 0.006,-2.60907 2.59127,0.006 z m 5.18252,0.0125 -2.59126,-0.006 0.006,-2.60907 2.59126,0.006 z"
         style="opacity:0.2;color:#000000;fill:url(#linearGradient3084);fill-opacity:1;fill-rule:nonzero;stroke:none;stroke-width:0.98542744;marker:none;visibility:visible;display:inline;overflow:visible;enable-background:accumulate"
         id="path4002"
         inkscape:connector-curvature="0" />
    </g>
    <path
       inkscape:connector-curvature="0"
       style="opacity:0.75;fill:#ff0000;fill-opacity:1;stroke:#ffffff;stroke-width:0.25959718;stroke-miterlimit:4;stroke-opacity:1;stroke-dasharray:none"
       d="m 480.98969,618.88691 c -0.99064,0 -1.7937,1.60184 -1.7937,3.57781 0,0.32877 0.0144,0.64795 0.056,0.95034 -0.2129,-0.21452 -0.41455,-0.44483 -0.67265,-0.64287 -1.57028,-1.20494 -3.34767,-1.53774 -3.95176,-0.7547 -0.6041,0.78304 0.1954,2.40085 1.76568,3.60577 0.29796,0.22863 0.59429,0.39432 0.89685,0.55903 -0.34275,0.0437 -0.70313,0.11837 -1.06501,0.22362 -1.90205,0.55321 -3.22016,1.79077 -2.9428,2.73927 0.27735,0.94848 2.04971,1.25199 3.95176,0.69879 0.35663,-0.10373 0.70012,-0.21912 1.00897,-0.36339 -0.0754,0.1369 -0.15599,0.27107 -0.22422,0.41928 -3.73753,3.32681 -6.8105,9.69925 -6.8105,9.69925 l 1.28923,0.0279 c 0.70007,-1.67618 2.43136,-5.35689 5.10086,-8.44139 -0.37781,1.56767 -0.13345,2.95247 0.67265,3.24239 0.9319,0.33518 2.24263,-0.90844 2.91478,-2.76722 0.0604,-0.16718 0.0938,-0.33823 0.14014,-0.50313 0.0724,0.15953 0.13656,0.31552 0.22421,0.47518 0.95147,1.73319 2.43823,2.7665 3.30716,2.29205 0.86893,-0.47448 0.78332,-2.26391 -0.16817,-3.9971 -0.0542,-0.0989 -0.11068,-0.18544 -0.16815,-0.27953 0.10541,0.0327 0.19902,0.0555 0.30829,0.0838 1.91711,0.49886 3.67366,0.14539 3.92375,-0.8106 0.2501,-0.95598 -1.10979,-2.1286 -3.02689,-2.62745 -0.0293,-0.009 -0.0548,-0.0207 -0.0841,-0.0279 0.026,-0.0144 0.0582,-0.0131 0.0841,-0.028 1.71583,-0.98799 2.70943,-2.49856 2.2141,-3.3542 -0.49531,-0.85563 -2.29198,-0.73641 -4.00781,0.25157 -0.54961,0.31646 -0.99769,0.6794 -1.37331,1.06215 0.14244,-0.51296 0.22421,-1.10505 0.22421,-1.733 0,-1.97597 -0.80307,-3.5778 -1.79372,-3.5778 z m 0.056,5.98166 c 1.23829,0 2.24214,1.00115 2.24214,2.23613 0,1.23498 -1.00385,2.23614 -2.24214,2.23614 -1.23829,0 -2.24214,-1.00116 -2.24214,-2.23614 0,-1.23498 1.00385,-2.23613 2.24214,-2.23613 z"
       id="path4019" />
  </g>
</svg>
