<?xml version="1.0" encoding="UTF-8" standalone="no"?>
<!-- Created with Inkscape (http://www.inkscape.org/) -->

<svg
   xmlns:dc="http://purl.org/dc/elements/1.1/"
   xmlns:cc="http://creativecommons.org/ns#"
   xmlns:rdf="http://www.w3.org/1999/02/22-rdf-syntax-ns#"
   xmlns:svg="http://www.w3.org/2000/svg"
   xmlns="http://www.w3.org/2000/svg"
   xmlns:xlink="http://www.w3.org/1999/xlink"
   xmlns:sodipodi="http://sodipodi.sourceforge.net/DTD/sodipodi-0.dtd"
   xmlns:inkscape="http://www.inkscape.org/namespaces/inkscape"
   width="80"
   height="80"
   id="svg6654"
   version="1.1"
   inkscape:version="0.48.3.1 r9886"
   sodipodi:docname="png.svg" preserveAspectRatio="xMinYMid meet">
  <defs
     id="defs6656">
    <linearGradient
       id="linearGradient998">
      <stop
         id="stop1000"
         offset="0"
         style="stop-color:#2ad4ff;stop-opacity:1" />
      <stop
         id="stop1002"
         offset="1"
         style="stop-color:#00aad4;stop-opacity:1" />
    </linearGradient>
    <linearGradient
       id="linearGradient6707">
      <stop
         id="stop6709"
         offset="0"
         style="stop-color:#000000;stop-opacity:1;" />
      <stop
         id="stop6711"
         offset="1"
         style="stop-color:#ffffff;stop-opacity:1;" />
    </linearGradient>
    <linearGradient
       y2="442.7843"
       x2="262.01361"
       y1="471.95245"
       x1="262.01361"
       gradientTransform="matrix(1.780117,0,0,2.6779188,-273.35823,-384.51367)"
       gradientUnits="userSpaceOnUse"
       id="linearGradient1696"
       xlink:href="#linearGradient6707"
       inkscape:collect="always" />
    <linearGradient
       y2="468.35892"
       x2="314.34872"
       y1="425.61682"
       x1="314.34872"
       gradientTransform="matrix(0.52631247,0,0,0.52273211,314.25463,395.43641)"
       gradientUnits="userSpaceOnUse"
       id="linearGradient1660"
       xlink:href="#linearGradient1069"
       inkscape:collect="always" />
    <linearGradient
       id="linearGradient1069">
      <stop
         style="stop-color:#ffffff;stop-opacity:1"
         offset="0"
         id="stop1071" />
      <stop
         style="stop-color:#e6e6e6;stop-opacity:1"
         offset="1"
         id="stop1073" />
    </linearGradient>
    <linearGradient
       y2="468.35892"
       x2="314.34872"
       y1="425.61682"
       x1="314.34872"
       gradientTransform="matrix(1.7777663,0,0,1.6556193,-368.42253,91.02864)"
       gradientUnits="userSpaceOnUse"
       id="linearGradient3017"
       xlink:href="#linearGradient1069"
       inkscape:collect="always" />
    <linearGradient
       inkscape:collect="always"
       xlink:href="#linearGradient3986"
       id="linearGradient3173"
       gradientUnits="userSpaceOnUse"
       gradientTransform="translate(89.149813,-0.29622671)"
       x1="122.09729"
       y1="812.36353"
       x2="137.64491"
       y2="812.36353" />
    <linearGradient
       inkscape:collect="always"
       id="linearGradient3986">
      <stop
         style="stop-color:#000000;stop-opacity:1;"
         offset="0"
         id="stop3988" />
      <stop
         style="stop-color:#000000;stop-opacity:0;"
         offset="1"
         id="stop3990" />
    </linearGradient>
    <linearGradient
       inkscape:collect="always"
       xlink:href="#linearGradient3986"
       id="linearGradient3170"
       gradientUnits="userSpaceOnUse"
       gradientTransform="translate(89.060527,20.453773)"
       x1="122.09729"
       y1="812.36353"
       x2="137.64491"
       y2="812.36353" />
    <linearGradient
       inkscape:collect="always"
       xlink:href="#linearGradient3986"
       id="linearGradient3167"
       gradientUnits="userSpaceOnUse"
       gradientTransform="matrix(-0.99999709,-0.0024109,0.0024109,-0.99999709,292.35905,1645.6179)"
       x1="122.09729"
       y1="812.36353"
       x2="137.64491"
       y2="812.36353" />
    <linearGradient
       inkscape:collect="always"
       xlink:href="#linearGradient3986"
       id="linearGradient3164"
       gradientUnits="userSpaceOnUse"
       gradientTransform="matrix(-0.99999709,-0.0024109,0.0024109,-0.99999709,292.35905,1624.6281)"
       x1="122.09729"
       y1="812.36353"
       x2="137.64491"
       y2="812.36353" />
    <linearGradient
       inkscape:collect="always"
       xlink:href="#linearGradient3986"
       id="linearGradient3028"
       gradientUnits="userSpaceOnUse"
       gradientTransform="matrix(-0.99999709,-0.00240444,0.0024109,-0.99731887,292.15947,1622.4346)"
       x1="122.09729"
       y1="812.36353"
       x2="137.64491"
       y2="812.36353" />
    <linearGradient
       inkscape:collect="always"
       xlink:href="#linearGradient3986"
       id="linearGradient3031"
       gradientUnits="userSpaceOnUse"
       gradientTransform="matrix(-0.99999709,-0.00240444,0.0024109,-0.99731887,292.15947,1643.3682)"
       x1="122.09729"
       y1="812.36353"
       x2="137.64491"
       y2="812.36353" />
    <linearGradient
       inkscape:collect="always"
       xlink:href="#linearGradient3986"
       id="linearGradient3034"
       gradientUnits="userSpaceOnUse"
       gradientTransform="matrix(1,0,0,0.99732177,88.860947,22.556596)"
       x1="122.09729"
       y1="812.36353"
       x2="137.64491"
       y2="812.36353" />
    <linearGradient
       inkscape:collect="always"
       xlink:href="#linearGradient3986"
       id="linearGradient3037"
       gradientUnits="userSpaceOnUse"
       gradientTransform="matrix(1,0,0,0.99732177,88.950233,1.8621695)"
       x1="122.09729"
       y1="812.36353"
       x2="137.64491"
       y2="812.36353" />
    <linearGradient
       inkscape:collect="always"
       xlink:href="#linearGradient3986"
       id="linearGradient3063"
       gradientUnits="userSpaceOnUse"
       gradientTransform="matrix(1,0,0,0.99732177,88.950233,1.8621695)"
       x1="122.09729"
       y1="812.36353"
       x2="137.64491"
       y2="812.36353" />
    <linearGradient
       inkscape:collect="always"
       xlink:href="#linearGradient3986"
       id="linearGradient3065"
       gradientUnits="userSpaceOnUse"
       gradientTransform="matrix(1,0,0,0.99732177,88.860947,22.556596)"
       x1="122.09729"
       y1="812.36353"
       x2="137.64491"
       y2="812.36353" />
    <linearGradient
       inkscape:collect="always"
       xlink:href="#linearGradient3986"
       id="linearGradient3067"
       gradientUnits="userSpaceOnUse"
       gradientTransform="matrix(-0.99999709,-0.00240444,0.0024109,-0.99731887,292.15947,1643.3682)"
       x1="122.09729"
       y1="812.36353"
       x2="137.64491"
       y2="812.36353" />
    <linearGradient
       inkscape:collect="always"
       xlink:href="#linearGradient3986"
       id="linearGradient3069"
       gradientUnits="userSpaceOnUse"
       gradientTransform="matrix(-0.99999709,-0.00240444,0.0024109,-0.99731887,292.15947,1622.4346)"
       x1="122.09729"
       y1="812.36353"
       x2="137.64491"
       y2="812.36353" />
  </defs>
  <sodipodi:namedview
     id="base"
     pagecolor="#ffffff"
     bordercolor="#666666"
     borderopacity="1.0"
     inkscape:pageopacity="0.0"
     inkscape:pageshadow="2"
     inkscape:zoom="5.6"
     inkscape:cx="-49.687985"
     inkscape:cy="51.946859"
     inkscape:document-units="px"
     inkscape:current-layer="layer1"
     showgrid="false"
     fit-margin-top="0"
     fit-margin-left="0"
     fit-margin-right="0"
     fit-margin-bottom="0"
     inkscape:window-width="1881"
     inkscape:window-height="1029"
     inkscape:window-x="0"
     inkscape:window-y="26"
     inkscape:window-maximized="1">
    <inkscape:grid
       type="xygrid"
       id="grid3783" />
  </sodipodi:namedview>
  <metadata
     id="metadata6659">
    <rdf:RDF>
      <cc:Work
         rdf:about="">
        <dc:format>image/svg+xml</dc:format>
        <dc:type
           rdf:resource="http://purl.org/dc/dcmitype/StillImage" />
        <dc:title />
      </cc:Work>
    </rdf:RDF>
  </metadata>
  <g
     inkscape:label="Capa 1"
     inkscape:groupmode="layer"
     id="layer1"
     transform="translate(-151.42857,-795.2193)">
    <path
       style="opacity:0.65;fill:#000000;fill-opacity:1;stroke:none"
       d="m 154.3964,795.05987 74.06432,0 c 1.64418,0 2.96785,1.44542 2.96785,3.24087 l 0,73.5178 c 0,1.79548 -1.32366,3.24088 -2.96785,3.24088 l -74.06432,0 c -1.64416,0 -2.96783,-1.44542 -2.96783,-3.24088 l 0,-73.5178 c 0,-1.79545 1.32364,-3.24087 2.96783,-3.24087 z"
       id="rect3922"
       inkscape:connector-curvature="0" />
    <rect
       style="opacity:0.35648151;fill:none;stroke:none"
       id="rect4543"
       width="79.05191"
       height="79.05191"
       x="151.90262"
       y="795.69147" />
    <path
       inkscape:connector-curvature="0"
       id="path869-3"
       d="m 156.23353,796.74932 70.38971,0 c 1.55408,0 2.80518,1.28758 2.80518,2.88698 l 0,65.489 c 0,1.5994 -1.2511,2.88698 -2.80518,2.88698 l -70.38971,0 c -1.55404,0 -2.80511,-1.28758 -2.80511,-2.88698 l 0,-65.489 c 0,-1.5994 1.25106,-2.88698 2.80511,-2.88698 z"
       style="fill:url(#linearGradient3017);fill-opacity:1;stroke:none" />
    <g
       id="g3048"
       transform="matrix(1,0,0,1.2501944,0,-204.87893)">
      <g
         transform="matrix(0.54365078,0,0,0.65226626,86.999765,279.83371)"
         id="g3095">
        <path
           inkscape:connector-curvature="0"
           id="rect3137-6-5-5-1"
           style="opacity:0.3;color:#000000;fill:#ffffff;fill-opacity:1;fill-rule:nonzero;stroke:none;stroke-width:0.98542744;marker:none;visibility:visible;display:inline;overflow:visible;enable-background:accumulate"
           d="m 176.22229,828.75638 4,0 0,4 -4,0 z m -8,0 4,0 0,4 -4,0 z m -8,0 4,0 0,4 -4,0 z m 12,-4 4,0 0,4 -4,0 z m -8,0 4,0 0,4 -4,0 z m -8,0 4,0 0,4 -4,0 z m 20,-4 4,0 0,4 -4,0 z m -8,0 4,0 0,4 -4,0 z m -8,0 4,0 0,4 -4,0 z m 12,-4 4,0 0,4 -4,0 z m -8,0 4,0 0,4 -4,0 z m -8,0 4,0 0,4 -4,0 z m 20,-4 4,0 0,4 -4,0 z m -8,0 4,0 0,4 -4,0 z m -8,0 4,0 0,4 -4,0 z m 12,-4 4,0 0,4 -4,0 z m -8,0 4,0 0,4 -4,0 z m -8,0 4,0 0,4 -4,0 z m 20,-4 4,0 0,4 -4,0 z m -8,0 4,0 0,4 -4,0 z m -8,0 4,0 0,4 -4,0 z m 12,-4 4,0 0,4 -4,0 z m -8,0 4,0 0,4 -4,0 z m -8,0 4,0 0,4 -4,0 z" />
        <path
           inkscape:connector-curvature="0"
           id="rect3137-6-5-5"
           style="opacity:0.2;color:#000000;fill:#000000;fill-opacity:1;fill-rule:nonzero;stroke:none;stroke-width:0.98542744;marker:none;visibility:visible;display:inline;overflow:visible;enable-background:accumulate"
           d="m 176.22229,827.75638 4,0 0,4 -4,0 z m -8,0 4,0 0,4 -4,0 z m -8,0 4,0 0,4 -4,0 z m 12,-4 4,0 0,4 -4,0 z m -8,0 4,0 0,4 -4,0 z m -8,0 4,0 0,4 -4,0 z m 20,-4 4,0 0,4 -4,0 z m -8,0 4,0 0,4 -4,0 z m -8,0 4,0 0,4 -4,0 z m 12,-4 4,0 0,4 -4,0 z m -8,0 4,0 0,4 -4,0 z m -8,0 4,0 0,4 -4,0 z m 20,-4 4,0 0,4 -4,0 z m -8,0 4,0 0,4 -4,0 z m -8,0 4,0 0,4 -4,0 z m 12,-4 4,0 0,4 -4,0 z m -8,0 4,0 0,4 -4,0 z m -8,0 4,0 0,4 -4,0 z m 20,-4 4,0 0,4 -4,0 z m -8,0 4,0 0,4 -4,0 z m -8,0 4,0 0,4 -4,0 z m 12,-4 4,0 0,4 -4,0 z m -8,0 4,0 0,4 -4,0 z m -8,0 4,0 0,4 -4,0 z" />
        <path
           d="m 200.22229,828.75638 4,0 0,4 -4,0 z m -8,0 4,0 0,4 -4,0 z m -8,0 4,0 0,4 -4,0 z m 12,-4 4,0 0,4 -4,0 z m -8,0 4,0 0,4 -4,0 z m -8,0 4,0 0,4 -4,0 z m 20,-4 4,0 0,4 -4,0 z m -8,0 4,0 0,4 -4,0 z m -8,0 4,0 0,4 -4,0 z m 12,-4 4,0 0,4 -4,0 z m -8,0 4,0 0,4 -4,0 z m -8,0 4,0 0,4 -4,0 z m 20,-4 4,0 0,4 -4,0 z m -8,0 4,0 0,4 -4,0 z m -8,0 4,0 0,4 -4,0 z m 12,-4 4,0 0,4 -4,0 z m -8,0 4,0 0,4 -4,0 z m -8,0 4,0 0,4 -4,0 z m 20,-4 4,0 0,4 -4,0 z m -8,0 4,0 0,4 -4,0 z m -8,0 4,0 0,4 -4,0 z m 12,-4 4,0 0,4 -4,0 z m -8,0 4,0 0,4 -4,0 z m -8,0 4,0 0,4 -4,0 z"
           style="opacity:0.3;color:#000000;fill:#ffffff;fill-opacity:1;fill-rule:nonzero;stroke:none;stroke-width:0.98542744;marker:none;visibility:visible;display:inline;overflow:visible;enable-background:accumulate"
           id="path3081"
           inkscape:connector-curvature="0" />
        <path
           d="m 200.22229,827.75638 4,0 0,4 -4,0 z m -8,0 4,0 0,4 -4,0 z m -8,0 4,0 0,4 -4,0 z m 12,-4 4,0 0,4 -4,0 z m -8,0 4,0 0,4 -4,0 z m -8,0 4,0 0,4 -4,0 z m 20,-4 4,0 0,4 -4,0 z m -8,0 4,0 0,4 -4,0 z m -8,0 4,0 0,4 -4,0 z m 12,-4 4,0 0,4 -4,0 z m -8,0 4,0 0,4 -4,0 z m -8,0 4,0 0,4 -4,0 z m 20,-4 4,0 0,4 -4,0 z m -8,0 4,0 0,4 -4,0 z m -8,0 4,0 0,4 -4,0 z m 12,-4 4,0 0,4 -4,0 z m -8,0 4,0 0,4 -4,0 z m -8,0 4,0 0,4 -4,0 z m 20,-4 4,0 0,4 -4,0 z m -8,0 4,0 0,4 -4,0 z m -8,0 4,0 0,4 -4,0 z m 12,-4 4,0 0,4 -4,0 z m -8,0 4,0 0,4 -4,0 z m -8,0 4,0 0,4 -4,0 z"
           style="opacity:0.2;color:#000000;fill:#000000;fill-opacity:1;fill-rule:nonzero;stroke:none;stroke-width:0.98542744;marker:none;visibility:visible;display:inline;overflow:visible;enable-background:accumulate"
           id="path3083"
           inkscape:connector-curvature="0" />
        <path
           inkscape:connector-curvature="0"
           id="path3087"
           style="opacity:0.2;color:#000000;fill:#000000;fill-opacity:1;fill-rule:nonzero;stroke:none;stroke-width:0.98542744;marker:none;visibility:visible;display:inline;overflow:visible;enable-background:accumulate"
           d="m 224.22229,827.75638 4,0 0,4 -4,0 z m -8,0 4,0 0,4 -4,0 z m -8,0 4,0 0,4 -4,0 z m 12,-4 4,0 0,4 -4,0 z m -8,0 4,0 0,4 -4,0 z m -8,0 4,0 0,4 -4,0 z m 20,-4 4,0 0,4 -4,0 z m -8,0 4,0 0,4 -4,0 z m -8,0 4,0 0,4 -4,0 z m 12,-4 4,0 0,4 -4,0 z m -8,0 4,0 0,4 -4,0 z m -8,0 4,0 0,4 -4,0 z m 20,-4 4,0 0,4 -4,0 z m -8,0 4,0 0,4 -4,0 z m -8,0 4,0 0,4 -4,0 z m 12,-4 4,0 0,4 -4,0 z m -8,0 4,0 0,4 -4,0 z m -8,0 4,0 0,4 -4,0 z m 20,-4 4,0 0,4 -4,0 z m -8,0 4,0 0,4 -4,0 z m -8,0 4,0 0,4 -4,0 z m 12,-4 4,0 0,4 -4,0 z m -8,0 4,0 0,4 -4,0 z m -8,0 4,0 0,4 -4,0 z" />
        <path
           d="m 224.22229,859.75638 4,0 0,4 -4,0 z m -8,0 4,0 0,4 -4,0 z m -8,0 4,0 0,4 -4,0 z m 12,-4 4,0 0,4 -4,0 z m -8,0 4,0 0,4 -4,0 z m -8,0 4,0 0,4 -4,0 z m 20,-4 4,0 0,4 -4,0 z m -8,0 4,0 0,4 -4,0 z m -8,0 4,0 0,4 -4,0 z m 12,-4 4,0 0,4 -4,0 z m -8,0 4,0 0,4 -4,0 z m -8,0 4,0 0,4 -4,0 z m 20,-4 4,0 0,4 -4,0 z m -8,0 4,0 0,4 -4,0 z m -8,0 4,0 0,4 -4,0 z m 12,-4 4,0 0,4 -4,0 z m -8,0 4,0 0,4 -4,0 z m -8,0 4,0 0,4 -4,0 z m 20,-4 4,0 0,4 -4,0 z m -8,0 4,0 0,4 -4,0 z m -8,0 4,0 0,4 -4,0 z m 12,-4 4,0 0,4 -4,0 z m -8,0 4,0 0,4 -4,0 z m -8,0 4,0 0,4 -4,0 z"
           style="opacity:0.2;color:#000000;fill:#000000;fill-opacity:1;fill-rule:nonzero;stroke:none;stroke-width:0.98542744;marker:none;visibility:visible;display:inline;overflow:visible;enable-background:accumulate"
           id="path3089"
           inkscape:connector-curvature="0" />
        <path
           inkscape:connector-curvature="0"
           id="path3091"
           style="opacity:0.2;color:#000000;fill:#000000;fill-opacity:1;fill-rule:nonzero;stroke:none;stroke-width:0.98542744;marker:none;visibility:visible;display:inline;overflow:visible;enable-background:accumulate"
           d="m 200.22229,859.75638 4,0 0,4 -4,0 z m -8,0 4,0 0,4 -4,0 z m -8,0 4,0 0,4 -4,0 z m 12,-4 4,0 0,4 -4,0 z m -8,0 4,0 0,4 -4,0 z m -8,0 4,0 0,4 -4,0 z m 20,-4 4,0 0,4 -4,0 z m -8,0 4,0 0,4 -4,0 z m -8,0 4,0 0,4 -4,0 z m 12,-4 4,0 0,4 -4,0 z m -8,0 4,0 0,4 -4,0 z m -8,0 4,0 0,4 -4,0 z m 20,-4 4,0 0,4 -4,0 z m -8,0 4,0 0,4 -4,0 z m -8,0 4,0 0,4 -4,0 z m 12,-4 4,0 0,4 -4,0 z m -8,0 4,0 0,4 -4,0 z m -8,0 4,0 0,4 -4,0 z m 20,-4 4,0 0,4 -4,0 z m -8,0 4,0 0,4 -4,0 z m -8,0 4,0 0,4 -4,0 z m 12,-4 4,0 0,4 -4,0 z m -8,0 4,0 0,4 -4,0 z m -8,0 4,0 0,4 -4,0 z" />
        <path
           d="m 176.22229,859.75638 4,0 0,4 -4,0 z m -8,0 4,0 0,4 -4,0 z m -8,0 4,0 0,4 -4,0 z m 12,-4 4,0 0,4 -4,0 z m -8,0 4,0 0,4 -4,0 z m -8,0 4,0 0,4 -4,0 z m 20,-4 4,0 0,4 -4,0 z m -8,0 4,0 0,4 -4,0 z m -8,0 4,0 0,4 -4,0 z m 12,-4 4,0 0,4 -4,0 z m -8,0 4,0 0,4 -4,0 z m -8,0 4,0 0,4 -4,0 z m 20,-4 4,0 0,4 -4,0 z m -8,0 4,0 0,4 -4,0 z m -8,0 4,0 0,4 -4,0 z m 12,-4 4,0 0,4 -4,0 z m -8,0 4,0 0,4 -4,0 z m -8,0 4,0 0,4 -4,0 z m 20,-4 4,0 0,4 -4,0 z m -8,0 4,0 0,4 -4,0 z m -8,0 4,0 0,4 -4,0 z m 12,-4 4,0 0,4 -4,0 z m -8,0 4,0 0,4 -4,0 z m -8,0 4,0 0,4 -4,0 z"
           style="opacity:0.2;color:#000000;fill:#000000;fill-opacity:1;fill-rule:nonzero;stroke:none;stroke-width:0.98542744;marker:none;visibility:visible;display:inline;overflow:visible;enable-background:accumulate"
           id="path3093"
           inkscape:connector-curvature="0" />
      </g>
      <path
         inkscape:connector-curvature="0"
         id="path3964"
         style="opacity:0.2;color:#000000;fill:url(#linearGradient3063);fill-opacity:1;fill-rule:nonzero;stroke:none;stroke-width:0.98542744;marker:none;visibility:visible;display:inline;overflow:visible;enable-background:accumulate"
         d="m 224.00388,819.87719 2.59127,0 0,2.60907 -2.59127,0 z m -5.18254,0 2.59127,0 0,2.60907 -2.59127,0 z m -5.18254,0 2.59127,0 0,2.60907 -2.59127,0 z m 7.77381,-2.60906 2.59127,0 0,2.60906 -2.59127,0 z m -5.18254,0 2.59127,0 0,2.60906 -2.59127,0 z m -5.18254,0 2.59127,0 0,2.60906 -2.59127,0 z m 12.95635,-2.60907 2.59127,0 0,2.60907 -2.59127,0 z m -5.18254,0 2.59127,0 0,2.60907 -2.59127,0 z m -5.18254,0 2.59127,0 0,2.60907 -2.59127,0 z m 7.77381,-2.60906 2.59127,0 0,2.60906 -2.59127,0 z m -5.18254,0 2.59127,0 0,2.60906 -2.59127,0 z m -5.18254,0 2.59127,0 0,2.60906 -2.59127,0 z m 12.95635,-2.60906 2.59127,0 0,2.60906 -2.59127,0 z m -5.18254,0 2.59127,0 0,2.60906 -2.59127,0 z m -5.18254,0 2.59127,0 0,2.60906 -2.59127,0 z m 7.77381,-2.60907 2.59127,0 0,2.60907 -2.59127,0 z m -5.18254,0 2.59127,0 0,2.60907 -2.59127,0 z m -5.18254,0 2.59127,0 0,2.60907 -2.59127,0 z m 12.95635,-2.60906 2.59127,0 0,2.60906 -2.59127,0 z m -5.18254,0 2.59127,0 0,2.60906 -2.59127,0 z m -5.18254,0 2.59127,0 0,2.60906 -2.59127,0 z m 7.77381,-2.60907 2.59127,0 0,2.60907 -2.59127,0 z m -5.18254,0 2.59127,0 0,2.60907 -2.59127,0 z m -5.18254,0 2.59127,0 0,2.60907 -2.59127,0 z" />
      <path
         d="m 223.91459,840.57162 2.59127,0 0,2.60907 -2.59127,0 z m -5.18254,0 2.59127,0 0,2.60907 -2.59127,0 z m -5.18254,0 2.59127,0 0,2.60907 -2.59127,0 z m 7.77381,-2.60907 2.59127,0 0,2.60907 -2.59127,0 z m -5.18254,0 2.59127,0 0,2.60907 -2.59127,0 z m -5.18254,0 2.59127,0 0,2.60907 -2.59127,0 z m 12.95635,-2.60906 2.59127,0 0,2.60906 -2.59127,0 z m -5.18254,0 2.59127,0 0,2.60906 -2.59127,0 z m -5.18254,0 2.59127,0 0,2.60906 -2.59127,0 z m 7.77381,-2.60906 2.59127,0 0,2.60906 -2.59127,0 z m -5.18254,0 2.59127,0 0,2.60906 -2.59127,0 z m -5.18254,0 2.59127,0 0,2.60906 -2.59127,0 z m 12.95635,-2.60907 2.59127,0 0,2.60907 -2.59127,0 z m -5.18254,0 2.59127,0 0,2.60907 -2.59127,0 z m -5.18254,0 2.59127,0 0,2.60907 -2.59127,0 z m 7.77381,-2.60906 2.59127,0 0,2.60906 -2.59127,0 z m -5.18254,0 2.59127,0 0,2.60906 -2.59127,0 z m -5.18254,0 2.59127,0 0,2.60906 -2.59127,0 z m 12.95635,-2.60906 2.59127,0 0,2.60906 -2.59127,0 z m -5.18254,0 2.59127,0 0,2.60906 -2.59127,0 z m -5.18254,0 2.59127,0 0,2.60906 -2.59127,0 z m 7.77381,-2.60908 2.59127,0 0,2.60908 -2.59127,0 z m -5.18254,0 2.59127,0 0,2.60908 -2.59127,0 z m -5.18254,0 2.59127,0 0,2.60908 -2.59127,0 z"
         style="opacity:0.2;color:#000000;fill:url(#linearGradient3065);fill-opacity:1;fill-rule:nonzero;stroke:none;stroke-width:0.98542744;marker:none;visibility:visible;display:inline;overflow:visible;enable-background:accumulate"
         id="path3994"
         inkscape:connector-curvature="0" />
      <path
         inkscape:connector-curvature="0"
         id="path3998"
         style="opacity:0.2;color:#000000;fill:url(#linearGradient3067);fill-opacity:1;fill-rule:nonzero;stroke:none;stroke-width:0.98542744;marker:none;visibility:visible;display:inline;overflow:visible;enable-background:accumulate"
         d="m 159.08367,825.03073 -2.59126,-0.006 0.006,-2.60907 2.59126,0.006 z m 5.18254,0.0125 -2.59127,-0.006 0.006,-2.60907 2.59127,0.006 z m 5.18251,0.0125 -2.59126,-0.006 0.006,-2.60906 2.59126,0.006 z m -7.78008,2.59037 -2.59127,-0.006 0.006,-2.60905 2.59127,0.006 z m 5.18251,0.0125 -2.59126,-0.006 0.006,-2.60905 2.59125,0.006 z m 5.18254,0.0125 -2.59127,-0.006 0.006,-2.60906 2.59127,0.006 z m -12.96262,2.5779 -2.59127,-0.006 0.006,-2.60905 2.59126,0.006 z m 5.18251,0.0125 -2.59126,-0.006 0.006,-2.60905 2.59125,0.006 z m 5.18254,0.0125 -2.59127,-0.006 0.006,-2.60907 2.59127,0.006 z m -7.78011,2.59037 -2.59126,-0.006 0.006,-2.60906 2.59125,0.006 z m 5.18254,0.0125 -2.59127,-0.006 0.006,-2.60906 2.59127,0.006 z m 5.18251,0.0125 -2.59125,-0.006 0.006,-2.60905 2.59126,0.006 z m -12.96262,2.57791 -2.59126,-0.006 0.006,-2.60906 2.59125,0.006 z m 5.18254,0.0125 -2.59127,-0.006 0.006,-2.60906 2.59127,0.006 z m 5.18251,0.0125 -2.59125,-0.006 0.006,-2.60905 2.59126,0.006 z m -7.78008,2.59036 -2.59127,-0.006 0.006,-2.60906 2.59127,0.006 z m 5.18251,0.0125 -2.59125,-0.006 0.006,-2.60906 2.59126,0.006 z m 5.18253,0.0125 -2.59126,-0.006 0.006,-2.60905 2.59127,0.006 z m -12.96261,2.57789 -2.59127,-0.006 0.006,-2.60906 2.59127,0.006 z m 5.18251,0.0125 -2.59125,-0.006 0.006,-2.60905 2.59126,0.006 z m 5.18254,0.0125 -2.59127,-0.006 0.006,-2.60905 2.59127,0.006 z m -7.7801,2.59037 -2.59126,-0.006 0.006,-2.60908 2.59126,0.006 z m 5.18253,0.0125 -2.59127,-0.006 0.006,-2.60906 2.59127,0.006 z m 5.18252,0.0125 -2.59126,-0.006 0.006,-2.60908 2.59126,0.006 z" />
      <path
         d="m 159.08367,804.0971 -2.59126,-0.006 0.006,-2.60906 2.59126,0.006 z m 5.18254,0.0125 -2.59127,-0.006 0.006,-2.60907 2.59127,0.006 z m 5.18251,0.0125 -2.59126,-0.006 0.006,-2.60907 2.59126,0.006 z m -7.78008,2.59036 -2.59127,-0.006 0.006,-2.60905 2.59127,0.006 z m 5.18251,0.0125 -2.59126,-0.006 0.006,-2.60906 2.59125,0.006 z m 5.18254,0.0125 -2.59127,-0.006 0.006,-2.60905 2.59127,0.006 z m -12.96262,2.57789 -2.59127,-0.006 0.006,-2.60905 2.59126,0.006 z m 5.18251,0.0125 -2.59126,-0.006 0.006,-2.60906 2.59125,0.006 z m 5.18254,0.0125 -2.59127,-0.006 0.006,-2.60906 2.59127,0.006 z m -7.78011,2.59036 -2.59126,-0.006 0.006,-2.60907 2.59125,0.006 z m 5.18254,0.0125 -2.59127,-0.006 0.006,-2.60905 2.59127,0.006 z m 5.18251,0.0125 -2.59125,-0.006 0.006,-2.60905 2.59126,0.006 z m -12.96262,2.57791 -2.59126,-0.006 0.006,-2.60907 2.59125,0.006 z m 5.18254,0.0125 -2.59127,-0.006 0.006,-2.60905 2.59127,0.006 z m 5.18251,0.0125 -2.59125,-0.006 0.006,-2.60905 2.59126,0.006 z m -7.78008,2.59037 -2.59127,-0.006 0.006,-2.60905 2.59127,0.006 z m 5.18251,0.0125 -2.59125,-0.006 0.006,-2.60906 2.59126,0.006 z m 5.18253,0.0125 -2.59126,-0.006 0.006,-2.60906 2.59127,0.006 z m -12.96261,2.5779 -2.59127,-0.006 0.006,-2.60905 2.59127,0.006 z m 5.18251,0.0125 -2.59125,-0.006 0.006,-2.60905 2.59126,0.006 z m 5.18254,0.0125 -2.59127,-0.006 0.006,-2.60906 2.59127,0.006 z m -7.7801,2.59037 -2.59126,-0.006 0.006,-2.60907 2.59126,0.006 z m 5.18253,0.0125 -2.59127,-0.006 0.006,-2.60907 2.59127,0.006 z m 5.18252,0.0125 -2.59126,-0.006 0.006,-2.60907 2.59126,0.006 z"
         style="opacity:0.2;color:#000000;fill:url(#linearGradient3069);fill-opacity:1;fill-rule:nonzero;stroke:none;stroke-width:0.98542744;marker:none;visibility:visible;display:inline;overflow:visible;enable-background:accumulate"
         id="path4002"
         inkscape:connector-curvature="0" />
    </g>
    <path
       inkscape:connector-curvature="0"
       style="fill:url(#linearGradient1696);fill-opacity:1;stroke:none"
       d="m 153.40657,849.4932 0,18.07594 c 0,2.58697 1.22534,4.68635 2.78144,4.68635 l 70.53711,0 c 1.55614,0 2.78145,-2.09938 2.78145,-4.68635 l 0,-18.07594 -76.1,0 z"
       id="path874" />
    <g
       id="g3087"
       transform="translate(-41.687695,-1.052)">
      <g
         id="g3017"
         transform="translate(39.599725,0)">
        <path
           style="font-size:7.5px;font-style:normal;font-variant:normal;font-weight:bold;font-stretch:normal;line-height:125%;letter-spacing:0px;word-spacing:0px;fill:#ffffff;fill-opacity:1;stroke:none;font-family:Impact;-inkscape-font-specification:Impact Bold"
           inkscape:connector-curvature="0"
           id="path1006"
           d="m 180.01754,854.59446 3.88167,0 q 1.57463,0 2.4169,0.24724 0.85139,0.24723 1.27252,0.71409 0.43028,0.46691 0.57675,1.1352 0.15575,0.65915 0.15575,2.0507 l 0,1.29084 q 0,1.41902 -0.29294,2.06902 -0.29297,0.65 -1.08028,0.99788 -0.77817,0.34789 -2.04154,0.34789 l -1.03451,0 0,5.96898 -3.85422,0 0,-14.82179 z m 3.85419,2.53592 0,3.77182 q 0.16475,0.01 0.28382,0.01 0.53097,0 0.73239,-0.25634 0.2105,-0.26549 0.2105,-1.08943 l 0,-1.2176 q 0,-0.75987 -0.238,-0.98873 -0.23799,-0.22899 -0.98876,-0.22899 z" />
        <path
           style="font-size:7.5px;font-style:normal;font-weight:normal;line-height:125%;letter-spacing:0px;word-spacing:0px;fill:#ffffff;fill-opacity:1;stroke:none;font-family:Impact;-inkscape-font-specification:Impact"
           inkscape:connector-curvature="0"
           id="path849"
           d="m 207.47725,860.12954 -3.69889,0 0,-1.29153 q 0,-1.22124 -0.10533,-1.52874 -0.10532,-0.30752 -0.50079,-0.30752 -0.34265,0 -0.46566,0.26357 -0.12307,0.26359 -0.12307,1.35305 l 0,6.82669 q 0,0.95767 0.12307,1.26517 0.12308,0.29871 0.49202,0.29871 0.40416,0 0.54473,-0.34264 0.14947,-0.34265 0.14947,-1.33547 l 0,-1.68689 -0.74681,0 0,-2.16135 4.33148,0 0,7.63499 -2.32829,0 -0.34264,-1.01916 q -0.3778,0.65893 -0.95767,0.9928 -0.5711,0.32508 -1.35303,0.32508 -0.93132,0 -1.7484,-0.44809 -0.80832,-0.45687 -1.23005,-1.1246 -0.42172,-0.66773 -0.52716,-1.39696 -0.10533,-0.73802 -0.10533,-2.20527 l 0,-4.22606 q 0,-2.03832 0.21977,-2.96086 0.21952,-0.92253 1.25641,-1.68689 1.04552,-0.77318 2.69727,-0.77318 1.6254,0 2.69729,0.66773 1.0719,0.66773 1.39698,1.59028 0.32506,0.91372 0.32506,2.66212 l 0,0.61502 z" />
        <path
           inkscape:connector-curvature="0"
           id="path4866"
           style="font-size:7.5px;font-style:normal;font-variant:normal;font-weight:bold;font-stretch:normal;line-height:125%;letter-spacing:0px;word-spacing:0px;fill:#ffffff;fill-opacity:1;stroke:none;font-family:Impact;-inkscape-font-specification:Impact Bold"
           d="m 197.92574,854.59372 0,14.82258 -3.37832,0 -2.00501,-6.73829 0,6.73829 -3.22267,0 0,-14.82258 3.22267,0 2.16066,6.67429 0,-6.67429 3.22267,0 z" />
      </g>
    </g>
    <path
       inkscape:connector-curvature="0"
       style="opacity:0.75;fill:#ff0000;fill-opacity:1;stroke:#ffffff;stroke-width:0.61135972;stroke-miterlimit:4;stroke-opacity:1;stroke-dasharray:none"
       d="m 193.42861,799.10903 c -2.33298,0 -4.22426,3.7724 -4.22426,8.42588 0,0.77427 0.034,1.52595 0.13201,2.23811 -0.50138,-0.50522 -0.97627,-1.04762 -1.5841,-1.51402 -3.69806,-2.83766 -7.88388,-3.62143 -9.30654,-1.77733 -1.42264,1.8441 0.46019,5.65405 4.15824,8.49172 0.70172,0.53843 1.39957,0.92864 2.11213,1.31652 -0.8072,0.1029 -1.65591,0.27876 -2.50815,0.52664 -4.47938,1.30282 -7.58354,4.21734 -6.9304,6.45105 0.65316,2.2337 4.82716,2.94851 9.30654,1.64569 0.83988,-0.24427 1.6488,-0.51601 2.37614,-0.85578 -0.17762,0.32237 -0.36734,0.63837 -0.52802,0.98741 -8.80201,7.83473 -16.03895,22.84202 -16.03895,22.84202 l 3.03617,0.0657 c 1.64869,-3.94749 5.72595,-12.61566 12.0127,-19.87978 -0.88976,3.69191 -0.31429,6.95316 1.58411,7.63594 2.19465,0.78937 5.28147,-2.13937 6.86439,-6.51689 0.14243,-0.39372 0.221,-0.79654 0.33004,-1.18489 0.17088,0.37573 0.32162,0.74306 0.52803,1.11906 2.24074,4.08174 5.74211,6.51521 7.78845,5.39784 2.04638,-1.11738 1.84474,-5.33156 -0.39603,-9.41329 -0.12775,-0.23285 -0.26066,-0.43667 -0.39601,-0.65827 0.24825,0.077 0.4687,0.13062 0.72603,0.19736 4.51485,1.17484 8.65159,0.3424 9.24054,-1.90898 0.58902,-2.25136 -2.61356,-5.01292 -7.12842,-6.18774 -0.069,-0.019 -0.12907,-0.0488 -0.1979,-0.0656 0.061,-0.034 0.13729,-0.0308 0.1979,-0.0657 4.04087,-2.32674 6.38082,-5.88421 5.21431,-7.89925 -1.16648,-2.01502 -5.39769,-1.73429 -9.43855,0.59244 -1.29432,0.74528 -2.34957,1.60002 -3.23419,2.50143 0.33548,-1.20806 0.52803,-2.60245 0.52803,-4.08128 0,-4.65348 -1.89124,-8.42588 -4.22424,-8.42588 z m 0.132,14.08702 c 2.91623,0 5.28031,2.35774 5.28031,5.26616 0,2.90842 -2.36408,5.26618 -5.28031,5.26618 -2.91623,0 -5.28031,-2.35776 -5.28031,-5.26618 0,-2.90842 2.36408,-5.26616 5.28031,-5.26616 z"
       id="path4019" />
  </g>
</svg>
