<?xml version="1.0" encoding="UTF-8" standalone="no"?>
<!-- Created with Inkscape (http://www.inkscape.org/) -->

<svg
   xmlns:dc="http://purl.org/dc/elements/1.1/"
   xmlns:cc="http://creativecommons.org/ns#"
   xmlns:rdf="http://www.w3.org/1999/02/22-rdf-syntax-ns#"
   xmlns:svg="http://www.w3.org/2000/svg"
   xmlns="http://www.w3.org/2000/svg"
   xmlns:xlink="http://www.w3.org/1999/xlink"
   xmlns:sodipodi="http://sodipodi.sourceforge.net/DTD/sodipodi-0.dtd"
   xmlns:inkscape="http://www.inkscape.org/namespaces/inkscape"
   width="80.001999"
   height="80.000214"
   id="svg4214"
   version="1.1"
   inkscape:version="0.48.3.1 r9886"
   sodipodi:docname="powerpoint.svg"
   inkscape:export-filename="/home/christian/Dokumente/eLearning/Moodle/theme/moodle-theme_anomalyblackred/pix_core/f/powerpoint-256.png"
   inkscape:export-xdpi="287.99924"
   inkscape:export-ydpi="287.99924"
   preserveAspectRatio="xMinYMid meet">
  <defs
     id="defs4216">
    <linearGradient
       id="linearGradient4790">
      <stop
         style="stop-color:#cd0000;stop-opacity:1;"
         offset="0"
         id="stop4792" />
      <stop
         style="stop-color:#ff0000;stop-opacity:1;"
         offset="1"
         id="stop4794" />
    </linearGradient>
    <linearGradient
       id="linearGradient6707-5">
      <stop
         id="stop6709-0"
         offset="0"
         style="stop-color:#000000;stop-opacity:1;" />
      <stop
         id="stop6711-5"
         offset="1"
         style="stop-color:#ffffff;stop-opacity:1;" />
    </linearGradient>
    <linearGradient
       inkscape:collect="always"
       xlink:href="#linearGradient4790"
       id="linearGradient4788"
       x1="25.253813"
       y1="1049.8368"
       x2="25.253813"
       y2="1003.8749"
       gradientUnits="userSpaceOnUse"
       gradientTransform="matrix(1.8104756,0,0,1.7482736,-19.451415,-770.83584)" />
    <linearGradient
       inkscape:collect="always"
       xlink:href="#linearGradient918-1"
       id="linearGradient912"
       x1="462.37933"
       y1="837.0611"
       x2="463.75925"
       y2="835.67212"
       gradientUnits="userSpaceOnUse"
       gradientTransform="matrix(1.8102357,-0.02946975,0.02946975,1.8102357,-812.8496,-500.88944)" />
    <linearGradient
       id="linearGradient918-1">
      <stop
         id="stop920-5"
         offset="0"
         style="stop-color:#f6f6f6;stop-opacity:1" />
      <stop
         id="stop922-7"
         offset="1"
         style="stop-color:#e2e2e2;stop-opacity:1" />
    </linearGradient>
    <linearGradient
       inkscape:collect="always"
       xlink:href="#linearGradient6707"
       id="linearGradient3077"
       gradientUnits="userSpaceOnUse"
       gradientTransform="matrix(1.8114204,0,0,2.6689195,-211.88361,-765.76882)"
       x1="262.01361"
       y1="471.95245"
       x2="262.01361"
       y2="442.7843" />
    <linearGradient
       id="linearGradient6707">
      <stop
         id="stop6709"
         offset="0"
         style="stop-color:#000000;stop-opacity:1;" />
      <stop
         id="stop6711"
         offset="1"
         style="stop-color:#ffffff;stop-opacity:1;" />
    </linearGradient>
    <linearGradient
       inkscape:collect="always"
       xlink:href="#linearGradient6707"
       id="linearGradient3806"
       gradientUnits="userSpaceOnUse"
       gradientTransform="matrix(1.8114204,0,0,2.6689195,-448.9685,-185.20458)"
       x1="262.01361"
       y1="471.95245"
       x2="262.01361"
       y2="442.7843" />
    <linearGradient
       inkscape:collect="always"
       xlink:href="#linearGradient4790"
       id="linearGradient3795"
       gradientUnits="userSpaceOnUse"
       gradientTransform="matrix(1.8104756,0,0,1.7482736,-19.451415,-770.83584)"
       x1="25.253813"
       y1="1049.8368"
       x2="25.253813"
       y2="1003.8749" />
    <linearGradient
       inkscape:collect="always"
       xlink:href="#linearGradient918-1"
       id="linearGradient3797"
       gradientUnits="userSpaceOnUse"
       gradientTransform="matrix(1.8102357,-0.02946975,0.02946975,1.8102357,-812.8496,-500.88944)"
       x1="462.37933"
       y1="837.0611"
       x2="463.75925"
       y2="835.67212" />
    <linearGradient
       inkscape:collect="always"
       xlink:href="#linearGradient6707"
       id="linearGradient3799"
       gradientUnits="userSpaceOnUse"
       gradientTransform="matrix(1.8114204,0,0,2.6689195,-448.9685,-185.20458)"
       x1="262.01361"
       y1="471.95245"
       x2="262.01361"
       y2="442.7843" />
    <linearGradient
       inkscape:collect="always"
       xlink:href="#linearGradient6707"
       id="linearGradient3020"
       gradientUnits="userSpaceOnUse"
       gradientTransform="matrix(1.698152,0,0,2.6689195,-419.41556,-185.20458)"
       x1="262.01361"
       y1="471.95245"
       x2="262.01361"
       y2="442.7843" />
    <linearGradient
       inkscape:collect="always"
       xlink:href="#linearGradient918-1"
       id="linearGradient3023"
       gradientUnits="userSpaceOnUse"
       gradientTransform="matrix(1.6226917,-0.02781917,0.02641663,1.7088458,-724.59467,-416.89522)"
       x1="462.37933"
       y1="837.0611"
       x2="463.75925"
       y2="835.67212" />
    <linearGradient
       inkscape:collect="always"
       xlink:href="#linearGradient918-1"
       id="linearGradient3790"
       gradientUnits="userSpaceOnUse"
       gradientTransform="matrix(1.6226917,-0.02781917,0.02641663,1.7088458,-724.59467,-416.89522)"
       x1="462.37933"
       y1="837.0611"
       x2="463.75925"
       y2="835.67212" />
    <linearGradient
       inkscape:collect="always"
       xlink:href="#linearGradient1069-5"
       id="linearGradient3044"
       gradientUnits="userSpaceOnUse"
       gradientTransform="matrix(1.5984329,0,0,1.7416466,-151.84249,-455.08615)"
       x1="314.34872"
       y1="425.61682"
       x2="314.34872"
       y2="468.35892" />
    <linearGradient
       id="linearGradient1069-5">
      <stop
         style="stop-color:#ffffff;stop-opacity:1"
         offset="0"
         id="stop1071-6" />
      <stop
         style="stop-color:#e6e6e6;stop-opacity:1"
         offset="1"
         id="stop1073-0" />
    </linearGradient>
    <linearGradient
       y2="468.35892"
       x2="314.34872"
       y1="425.61682"
       x1="314.34872"
       gradientTransform="matrix(1.6958125,0,0,1.7244906,-510.04221,254.83137)"
       gradientUnits="userSpaceOnUse"
       id="linearGradient3043"
       xlink:href="#linearGradient1069-5"
       inkscape:collect="always" />
    <linearGradient
       inkscape:collect="always"
       xlink:href="#linearGradient918-1"
       id="linearGradient3038"
       gradientUnits="userSpaceOnUse"
       gradientTransform="matrix(1.6738623,-0.02853947,0.02724966,1.7530916,-749.30463,-453.57139)"
       x1="462.37933"
       y1="837.0611"
       x2="463.75925"
       y2="835.67212" />
  </defs>
  <sodipodi:namedview
     id="base"
     pagecolor="#ffffff"
     bordercolor="#666666"
     borderopacity="1.0"
     inkscape:pageopacity="0.0"
     inkscape:pageshadow="2"
     inkscape:zoom="2.8"
     inkscape:cx="0.30512867"
     inkscape:cy="31.077716"
     inkscape:document-units="px"
     inkscape:current-layer="layer1"
     showgrid="true"
     width="0px"
     height="0px"
     fit-margin-top="0"
     fit-margin-left="0.51"
     fit-margin-right="0.51"
     fit-margin-bottom="0"
     inkscape:window-width="998"
     inkscape:window-height="547"
     inkscape:window-x="0"
     inkscape:window-y="28"
     inkscape:window-maximized="1">
    <inkscape:grid
       type="xygrid"
       id="grid3016" />
  </sodipodi:namedview>
  <metadata
     id="metadata4219">
    <rdf:RDF>
      <cc:Work
         rdf:about="">
        <dc:format>image/svg+xml</dc:format>
        <dc:type
           rdf:resource="http://purl.org/dc/dcmitype/StillImage" />
        <dc:title></dc:title>
      </cc:Work>
    </rdf:RDF>
  </metadata>
  <g
     inkscape:label="Capa 1"
     inkscape:groupmode="layer"
     id="layer1"
     transform="translate(16.001,-988.36209)">
    <path
       style="opacity:0.7;fill:#000000;fill-opacity:1;stroke:none"
       d="m -10.706304,988.36209 c -1.541983,0 -2.793696,1.48695 -2.793696,3.28149 l 0,73.43722 c 0,1.7946 1.251713,3.2815 2.793696,3.2815 l 69.412608,0 c 1.542,0 2.793696,-1.4869 2.793696,-3.2815 l 0,-57.935 -17.890401,-18.78371 -54.315903,0 z"
       id="rect3922-2"
       inkscape:connector-curvature="0" />
    <path
       style="fill:url(#linearGradient3043);fill-opacity:1;stroke:none"
       d="m -9.598294,989.8923 c -1.482384,0 -2.649706,1.35192 -2.649706,3.01787 l 0,68.22513 c 0,1.666 1.167322,3.018 2.649706,3.018 l 67.196586,0 c 1.48239,0 2.64971,-1.352 2.64971,-3.018 l 0,-53.6748 -17.32909,-17.5682 -52.517206,0 z"
       id="path869-2"
       inkscape:connector-curvature="0" />
    <path
       inkscape:connector-curvature="0"
       style="opacity:0.7;fill:#000000;fill-opacity:1;stroke:none"
       d="m 60.284548,1008.3518 -0.0083,-0.9539 -17.413476,-17.60803 -0.623677,0.0456 0.02657,15.26083 c 0.0032,1.8498 1.310453,3.3293 2.908529,3.302 z"
       id="path914"
       sodipodi:nodetypes="ccccscc" />
    <g
       transform="translate(-327.68125,703.24802)"
       id="g3105">
      <path
         sodipodi:nodetypes="ssscccs"
         inkscape:connector-curvature="0"
         id="path848"
         d="m 339.21231,301.0919 c -8.56495,0 -15.53206,6.92535 -15.53206,15.49033 0,8.56494 6.96711,15.53205 15.53206,15.53205 6.86513,0 12.65602,-4.46577 14.69705,-10.64695 l -9.68669,-4.8851 9.68669,-4.84338 c -2.04103,-6.18118 -7.83192,-10.64695 -14.69705,-10.64695 z"
         style="fill:#ff0000;fill-opacity:1;stroke:none" />
      <path
         sodipodi:nodetypes="cccsc"
         inkscape:connector-curvature="0"
         id="path858"
         d="m 355.42708,312.56025 -7.14841,4.02551 7.14841,4.06017 c 0.42003,-1.27205 0.65938,-2.64741 0.65938,-4.06017 0,-1.41278 -0.23935,-2.75346 -0.65938,-4.02551 z"
         style="fill:#000000;fill-opacity:1;stroke:none" />
      <path
         inkscape:connector-curvature="0"
         id="rect864"
         d="m 355.94329,322.23078 -0.54277,0.12523 1.00205,3.75777 0,0.16703 0.0418,0 11.31501,0 0,-0.58452 -10.89752,0 -0.91857,-3.46551 z"
         style="fill:#4d4d4d;fill-opacity:1;stroke:none" />
      <path
         sodipodi:nodetypes="ccccccccc"
         style="fill:#4d4d4d;fill-opacity:1;stroke:none"
         d="m 343.0298,300.6113 -0.54278,-0.12523 1.00205,-3.75776 0,-0.16703 0.0418,0 19.97649,0 0,0.58452 -19.559,0 z"
         id="path869"
         inkscape:connector-curvature="0" />
      <path
         d="m 348.91376,299.02682 0,1.3941 0.27559,0 0,0.34881 -0.72881,0 0,-1.74291 0.45322,0 z"
         style="font-size:1.25px;font-style:normal;font-variant:normal;font-weight:bold;font-stretch:normal;line-height:125%;letter-spacing:0px;word-spacing:0px;fill:#4d4d4d;fill-opacity:1;stroke:none;font-family:Impact;-inkscape-font-specification:Impact Bold"
         id="path970"
         inkscape:connector-curvature="0" />
      <path
         d="m 350.27127,299.84284 0,0.34986 q 0,0.1927 -0.0194,0.28313 -0.0194,0.0894 -0.0829,0.16791 -0.0635,0.0774 -0.16368,0.11518 -0.0991,0.0367 -0.22824,0.0367 -0.14428,0 -0.24437,-0.0312 -0.10019,-0.0323 -0.1561,-0.0958 -0.0548,-0.0646 -0.0787,-0.15504 -0.0236,-0.0915 -0.0236,-0.27342 l 0,-0.36602 q 0,-0.19917 0.043,-0.31114 0.043,-0.112 0.15503,-0.17976 0.11201,-0.0679 0.28637,-0.0679 0.1464,0 0.25083,0.0441 0.10548,0.043 0.16263,0.11306 0.0571,0.07 0.0776,0.14428 0.0215,0.0743 0.0215,0.22609 z m -0.43492,-0.1076 q 0,-0.10988 -0.0123,-0.13775 -0.0123,-0.0291 -0.0506,-0.0291 -0.0388,0 -0.0517,0.0291 -0.0123,0.0281 -0.0123,0.13775 l 0,0.64485 q 0,0.10124 0.0123,0.13246 0.0124,0.0302 0.0506,0.0302 0.0388,0 0.0506,-0.0281 0.0123,-0.028 0.0123,-0.12064 l 0.001,-0.65885 z"
         style="font-size:1.25px;font-style:normal;font-variant:normal;font-weight:bold;font-stretch:normal;line-height:125%;letter-spacing:0px;word-spacing:0px;fill:#4d4d4d;fill-opacity:1;stroke:none;font-family:Impact;-inkscape-font-specification:Impact Bold"
         id="path972"
         inkscape:connector-curvature="0" />
      <path
         d="m 350.85044,299.34116 -0.0176,0.18731 q 0.0947,-0.2013 0.27452,-0.21315 l 0,0.50275 q -0.11941,0 -0.1755,0.0323 -0.0559,0.0323 -0.069,0.0905 -0.0124,0.057 -0.0124,0.26482 l 0,0.56411 -0.43491,0 0,-1.42857 0.43484,-3e-5 z"
         style="font-size:1.25px;font-style:normal;font-variant:normal;font-weight:bold;font-stretch:normal;line-height:125%;letter-spacing:0px;word-spacing:0px;fill:#4d4d4d;fill-opacity:1;stroke:none;font-family:Impact;-inkscape-font-specification:Impact Bold"
         id="path974"
         inkscape:connector-curvature="0" />
      <path
         d="m 352.18858,300.08074 -0.56302,0 0,0.30896 q 0,0.0968 0.0141,0.12488 0.0141,0.028 0.0538,0.028 0.0496,0 0.0656,-0.0365 0.0176,-0.0377 0.0176,-0.14428 l 0,-0.18839 0.41232,0 0,0.10548 q 0,0.13246 -0.0176,0.20345 -0.0159,0.0711 -0.0774,0.15186 -0.0614,0.0808 -0.1561,0.1217 -0.0936,0.0399 -0.23576,0.0399 -0.13775,0 -0.2433,-0.0399 -0.10547,-0.0399 -0.16474,-0.10865 -0.0582,-0.07 -0.0808,-0.15292 -0.0226,-0.0839 -0.0226,-0.24329 l 0,-0.41663 q 0,-0.18732 0.0506,-0.29496 0.0506,-0.10865 0.1658,-0.1658 0.11518,-0.0582 0.26484,-0.0582 0.18301,0 0.30143,0.07 0.11941,0.069 0.16685,0.18409 0.0485,0.11412 0.0485,0.32187 l -1.8e-4,0.18928 z m -0.43599,-0.23252 0,-0.10442 q 0,-0.11094 -0.0124,-0.14322 -0.0123,-0.0323 -0.0485,-0.0323 -0.0452,0 -0.0559,0.028 -0.0106,0.027 -0.0106,0.14745 l 0,0.10442 0.12735,0 z"
         style="font-size:1.25px;font-style:normal;font-variant:normal;font-weight:bold;font-stretch:normal;line-height:125%;letter-spacing:0px;word-spacing:0px;fill:#4d4d4d;fill-opacity:1;stroke:none;font-family:Impact;-inkscape-font-specification:Impact Bold"
         id="path976"
         inkscape:connector-curvature="0" />
      <path
         d="m 352.7613,299.34116 -0.007,0.13564 q 0.0506,-0.0808 0.12064,-0.12065 0.07,-0.0409 0.15927,-0.0409 0.17444,0 0.2745,0.16157 0.0549,-0.0808 0.12382,-0.12065 0.069,-0.0409 0.15292,-0.0409 0.11094,0 0.18299,0.0538 0.0732,0.0538 0.0937,0.13246 0.0205,0.0774 0.0205,0.253 l 0,1.01517 -0.422,0 0,-0.93122 q 0,-0.18301 -0.0124,-0.22606 -0.0123,-0.0441 -0.0571,-0.0441 -0.0462,0 -0.0603,0.043 -0.0124,0.043 -0.0124,0.22714 l 0,0.93121 -0.422,0 0,-0.90752 q 0,-0.20993 -0.0106,-0.25191 -0.009,-0.042 -0.0559,-0.042 -0.0291,0 -0.0496,0.0226 -0.0205,0.0215 -0.0226,0.0538 -0.002,0.0312 -0.002,0.13458 l 0,0.99042 -0.42199,0 0,-1.42857 0.42735,9e-5 z"
         style="font-size:1.25px;font-style:normal;font-variant:normal;font-weight:bold;font-stretch:normal;line-height:125%;letter-spacing:0px;word-spacing:0px;fill:#4d4d4d;fill-opacity:1;stroke:none;font-family:Impact;-inkscape-font-specification:Impact Bold"
         id="path978"
         inkscape:connector-curvature="0" />
      <path
         d="m 354.86807,299.02682 0,0.22714 -0.44783,0 0,-0.22714 0.44783,0 z m 0,0.31434 0,1.42857 -0.44783,0 0,-1.42857 0.44783,0 z"
         style="font-size:1.25px;font-style:normal;font-variant:normal;font-weight:bold;font-stretch:normal;line-height:125%;letter-spacing:0px;word-spacing:0px;fill:#4d4d4d;fill-opacity:1;stroke:none;font-family:Impact;-inkscape-font-specification:Impact Bold"
         id="path980"
         inkscape:connector-curvature="0" />
      <path
         d="m 355.46555,299.34116 -0.007,0.12593 q 0.0582,-0.0764 0.12805,-0.11411 0.07,-0.0378 0.15292,-0.0378 0.10124,0 0.17444,0.0549 0.0743,0.0538 0.0926,0.12487 0.0183,0.0711 0.0183,0.24115 l 0,0.60179 q 0,0.19484 -0.0236,0.27774 -0.0226,0.0818 -0.0947,0.1314 -0.0711,0.0485 -0.17215,0.0485 -0.0808,0 -0.14957,-0.0378 -0.069,-0.0377 -0.12593,-0.112 l 0,0.32726 -0.43493,0 0,-1.63202 0.44163,1.2e-4 z m 0.12382,0.41555 q 0,-0.13246 -0.009,-0.16051 -0.009,-0.028 -0.0538,-0.028 -0.043,0 -0.0559,0.0323 -0.0123,0.0323 -0.0123,0.15609 l 0,0.59209 q 0,0.12911 0.0123,0.16139 0.0123,0.0323 0.0559,0.0323 0.042,0 0.0517,-0.0291 0.0106,-0.0302 0.0106,-0.14428 l 3.3e-4,-0.61219 z"
         style="font-size:1.25px;font-style:normal;font-variant:normal;font-weight:bold;font-stretch:normal;line-height:125%;letter-spacing:0px;word-spacing:0px;fill:#4d4d4d;fill-opacity:1;stroke:none;font-family:Impact;-inkscape-font-specification:Impact Bold"
         id="path982"
         inkscape:connector-curvature="0" />
      <path
         d="m 357.05667,299.79761 -0.38541,0 0,-0.0774 q 0,-0.0991 -0.0123,-0.12488 -0.0106,-0.0268 -0.0559,-0.0268 -0.0367,0 -0.0549,0.0247 -0.0183,0.0236 -0.0183,0.0721 0,0.0656 0.009,0.0968 0.009,0.0302 0.0548,0.0667 0.0462,0.0367 0.18839,0.10653 0.18947,0.0926 0.24868,0.17444 0.0593,0.0818 0.0593,0.23792 0,0.17444 -0.0451,0.26376 -0.0452,0.0882 -0.15186,0.13669 -0.10548,0.0474 -0.25515,0.0474 -0.1658,0 -0.2842,-0.0517 -0.1173,-0.0517 -0.16157,-0.13987 -0.0441,-0.0882 -0.0441,-0.26697 l 0,-0.069 0.3854,0 0,0.0905 q 0,0.11518 0.0141,0.14957 0.0159,0.0344 0.0582,0.0344 0.0464,0 0.0645,-0.0226 0.0183,-0.0236 0.0183,-0.0979 0,-0.1023 -0.0236,-0.12805 -0.0247,-0.0257 -0.25298,-0.15292 -0.19162,-0.1076 -0.23361,-0.19485 -0.042,-0.0882 -0.042,-0.20885 0,-0.17127 0.0452,-0.25191 0.0452,-0.0818 0.15292,-0.12593 0.10883,-0.0441 0.25193,-0.0441 0.14216,0 0.24112,0.0367 0.10019,0.0355 0.15293,0.0947 0.0538,0.0593 0.0645,0.10988 0.0123,0.0506 0.0123,0.15821 l -4.8e-4,0.0825 z"
         style="font-size:1.25px;font-style:normal;font-variant:normal;font-weight:bold;font-stretch:normal;line-height:125%;letter-spacing:0px;word-spacing:0px;fill:#4d4d4d;fill-opacity:1;stroke:none;font-family:Impact;-inkscape-font-specification:Impact Bold"
         id="path984"
         inkscape:connector-curvature="0" />
      <path
         d="m 358.2021,299.34116 0,1.42857 -0.44245,0 0.007,-0.11835 q -0.0452,0.0721 -0.112,0.10865 -0.0656,0.0356 -0.15186,0.0356 -0.0979,0 -0.16262,-0.0344 -0.0646,-0.0344 -0.0958,-0.0915 -0.0302,-0.0571 -0.0377,-0.11835 -0.007,-0.0624 -0.007,-0.24653 l 0,-0.9635 0.43492,0 0,0.97211 q 0,0.16686 0.009,0.19808 0.0106,0.0312 0.0559,0.0312 0.0485,0 0.0571,-0.0323 0.009,-0.0323 0.009,-0.20776 l 0,-0.96136 0.43684,-1.9e-4 z"
         style="font-size:1.25px;font-style:normal;font-variant:normal;font-weight:bold;font-stretch:normal;line-height:125%;letter-spacing:0px;word-spacing:0px;fill:#4d4d4d;fill-opacity:1;stroke:none;font-family:Impact;-inkscape-font-specification:Impact Bold"
         id="path986"
         inkscape:connector-curvature="0" />
      <path
         d="m 358.78988,299.34116 -0.007,0.13564 q 0.0506,-0.0808 0.12064,-0.12065 0.07,-0.0409 0.15927,-0.0409 0.17444,0 0.27452,0.16157 0.0548,-0.0808 0.12382,-0.12065 0.069,-0.0409 0.15292,-0.0409 0.11094,0 0.18301,0.0538 0.0732,0.0538 0.0937,0.13246 0.0205,0.0774 0.0205,0.253 l 0,1.01517 -0.42201,0 0,-0.93122 q 0,-0.18301 -0.0124,-0.22606 -0.0123,-0.0441 -0.0571,-0.0441 -0.0462,0 -0.0603,0.043 -0.0123,0.043 -0.0123,0.22714 l 0,0.93121 -0.42201,0 0,-0.90752 q 0,-0.20993 -0.0106,-0.25191 -0.009,-0.042 -0.0559,-0.042 -0.0291,0 -0.0496,0.0226 -0.0205,0.0215 -0.0226,0.0538 -0.002,0.0312 -0.002,0.13458 l 0,0.99042 -0.422,0 0,-1.42857 0.42733,9e-5 z"
         style="font-size:1.25px;font-style:normal;font-variant:normal;font-weight:bold;font-stretch:normal;line-height:125%;letter-spacing:0px;word-spacing:0px;fill:#4d4d4d;fill-opacity:1;stroke:none;font-family:Impact;-inkscape-font-specification:Impact Bold"
         id="path988"
         inkscape:connector-curvature="0" />
      <path
         d="m 361.43817,299.02682 0,1.74291 -0.43492,0 0,-0.10336 q -0.0624,0.0646 -0.1314,0.0968 -0.069,0.0323 -0.14428,0.0323 -0.10124,0 -0.1755,-0.0527 -0.0743,-0.0538 -0.0958,-0.12382 -0.0205,-0.07 -0.0205,-0.22823 l 0,-0.66852 q 0,-0.16473 0.0205,-0.23361 0.0215,-0.069 0.0968,-0.12064 0.0753,-0.0527 0.17978,-0.0527 0.0808,0 0.14746,0.0291 0.0677,0.0291 0.12276,0.0871 l 0,-0.40477 0.43504,1.8e-4 z m -0.43492,0.67391 q 0,-0.0787 -0.0141,-0.10548 -0.0124,-0.0268 -0.0527,-0.0268 -0.0388,0 -0.0527,0.0247 -0.0123,0.0236 -0.0123,0.10759 l 0,0.69975 q 0,0.0871 0.0123,0.11517 0.0123,0.0268 0.0496,0.0268 0.042,0 0.0559,-0.0302 0.0141,-0.0312 0.0141,-0.15063 l 0,-0.66094 z"
         style="font-size:1.25px;font-style:normal;font-variant:normal;font-weight:bold;font-stretch:normal;line-height:125%;letter-spacing:0px;word-spacing:0px;fill:#4d4d4d;fill-opacity:1;stroke:none;font-family:Impact;-inkscape-font-specification:Impact Bold"
         id="path990"
         inkscape:connector-curvature="0" />
      <path
         d="m 362.57821,299.84284 0,0.34986 q 0,0.1927 -0.0194,0.28313 -0.0194,0.0894 -0.0829,0.16791 -0.0635,0.0774 -0.16368,0.11518 -0.0991,0.0367 -0.22823,0.0367 -0.14428,0 -0.24438,-0.0312 -0.10018,-0.0323 -0.15609,-0.0958 -0.0549,-0.0646 -0.0787,-0.15504 -0.0236,-0.0915 -0.0236,-0.27342 l 0,-0.36602 q 0,-0.19917 0.043,-0.31114 0.043,-0.112 0.15504,-0.17976 0.112,-0.0679 0.28635,-0.0679 0.1464,0 0.25085,0.0441 0.10548,0.043 0.16262,0.11306 0.0571,0.07 0.0774,0.14428 0.0217,0.0743 0.0217,0.22609 z m -0.43491,-0.1076 q 0,-0.10988 -0.0124,-0.13775 -0.0123,-0.0291 -0.0506,-0.0291 -0.0388,0 -0.0517,0.0291 -0.0124,0.0281 -0.0124,0.13775 l 0,0.64485 q 0,0.10124 0.0124,0.13246 0.0123,0.0302 0.0506,0.0302 0.0388,0 0.0506,-0.0281 0.0124,-0.028 0.0124,-0.12064 l 10e-4,-0.65885 z"
         style="font-size:1.25px;font-style:normal;font-variant:normal;font-weight:bold;font-stretch:normal;line-height:125%;letter-spacing:0px;word-spacing:0px;fill:#4d4d4d;fill-opacity:1;stroke:none;font-family:Impact;-inkscape-font-specification:Impact Bold"
         id="path992"
         inkscape:connector-curvature="0" />
      <path
         d="m 363.17032,299.02682 0,1.74291 -0.44785,0 0,-1.74291 0.44785,0 z"
         style="font-size:1.25px;font-style:normal;font-variant:normal;font-weight:bold;font-stretch:normal;line-height:125%;letter-spacing:0px;word-spacing:0px;fill:#4d4d4d;fill-opacity:1;stroke:none;font-family:Impact;-inkscape-font-specification:Impact Bold"
         id="path994"
         inkscape:connector-curvature="0" />
      <path
         d="m 364.30929,299.84284 0,0.34986 q 0,0.1927 -0.0194,0.28313 -0.0194,0.0894 -0.0829,0.16791 -0.0635,0.0774 -0.16368,0.11518 -0.0991,0.0367 -0.22822,0.0367 -0.14428,0 -0.24437,-0.0312 -0.10019,-0.0323 -0.1561,-0.0958 -0.0548,-0.0646 -0.0787,-0.15504 -0.0236,-0.0915 -0.0236,-0.27342 l 0,-0.36602 q 0,-0.19917 0.043,-0.31114 0.043,-0.112 0.15503,-0.17976 0.11201,-0.0679 0.28636,-0.0679 0.14639,0 0.25083,0.0441 0.10547,0.043 0.16262,0.11306 0.057,0.07 0.0774,0.14428 0.0217,0.0743 0.0217,0.22609 z m -0.43492,-0.1076 q 0,-0.10988 -0.0123,-0.13775 -0.0124,-0.0291 -0.0506,-0.0291 -0.0388,0 -0.0517,0.0291 -0.0123,0.0281 -0.0123,0.13775 l 0,0.64485 q 0,0.10124 0.0123,0.13246 0.0123,0.0302 0.0506,0.0302 0.0388,0 0.0506,-0.0281 0.0123,-0.028 0.0123,-0.12064 l 0.001,-0.65885 z"
         style="font-size:1.25px;font-style:normal;font-variant:normal;font-weight:bold;font-stretch:normal;line-height:125%;letter-spacing:0px;word-spacing:0px;fill:#4d4d4d;fill-opacity:1;stroke:none;font-family:Impact;-inkscape-font-specification:Impact Bold"
         id="path996"
         inkscape:connector-curvature="0" />
      <path
         d="m 364.88847,299.34116 -0.0176,0.18731 q 0.0947,-0.2013 0.27451,-0.21315 l 0,0.50275 q -0.1194,0 -0.17549,0.0323 -0.0559,0.0323 -0.069,0.0905 -0.0123,0.057 -0.0123,0.26482 l 0,0.56411 -0.43494,0 0,-1.42857 0.43487,-3e-5 z"
         style="font-size:1.25px;font-style:normal;font-variant:normal;font-weight:bold;font-stretch:normal;line-height:125%;letter-spacing:0px;word-spacing:0px;fill:#4d4d4d;fill-opacity:1;stroke:none;font-family:Impact;-inkscape-font-specification:Impact Bold"
         id="path998"
         inkscape:connector-curvature="0" />
      <path
         d="m 366.51726,299.79761 -0.38541,0 0,-0.0774 q 0,-0.0991 -0.0123,-0.12488 -0.0106,-0.0268 -0.0559,-0.0268 -0.0367,0 -0.0548,0.0247 -0.0183,0.0236 -0.0183,0.0721 0,0.0656 0.009,0.0968 0.009,0.0302 0.0549,0.0667 0.0462,0.0367 0.18839,0.10653 0.18947,0.0926 0.24868,0.17444 0.0593,0.0818 0.0593,0.23792 0,0.17444 -0.0452,0.26376 -0.0452,0.0882 -0.15187,0.13669 -0.10547,0.0474 -0.25513,0.0474 -0.16579,0 -0.2842,-0.0517 -0.11729,-0.0517 -0.16139,-0.13987 -0.0441,-0.0882 -0.0441,-0.26697 l 0,-0.069 0.38541,0 0,0.0905 q 0,0.11518 0.0141,0.14957 0.0159,0.0344 0.0582,0.0344 0.0464,0 0.0646,-0.0226 0.0183,-0.0236 0.0183,-0.0979 0,-0.1023 -0.0236,-0.12805 -0.0247,-0.0257 -0.25299,-0.15292 -0.19161,-0.1076 -0.23361,-0.19485 -0.042,-0.0882 -0.042,-0.20885 0,-0.17127 0.0452,-0.25191 0.0452,-0.0818 0.15293,-0.12593 0.10865,-0.0441 0.2519,-0.0441 0.14216,0 0.24115,0.0367 0.10018,0.0355 0.15292,0.0947 0.0538,0.0593 0.0645,0.10988 0.0123,0.0506 0.0123,0.15821 l -6.7e-4,0.0825 z"
         style="font-size:1.25px;font-style:normal;font-variant:normal;font-weight:bold;font-stretch:normal;line-height:125%;letter-spacing:0px;word-spacing:0px;fill:#4d4d4d;fill-opacity:1;stroke:none;font-family:Impact;-inkscape-font-specification:Impact Bold"
         id="path1000"
         inkscape:connector-curvature="0" />
      <path
         d="m 367.11473,299.02682 0,0.22714 -0.44783,0 0,-0.22714 0.44783,0 z m 0,0.31434 0,1.42857 -0.44783,0 0,-1.42857 0.44783,0 z"
         style="font-size:1.25px;font-style:normal;font-variant:normal;font-weight:bold;font-stretch:normal;line-height:125%;letter-spacing:0px;word-spacing:0px;fill:#4d4d4d;fill-opacity:1;stroke:none;font-family:Impact;-inkscape-font-specification:Impact Bold"
         id="path1002"
         inkscape:connector-curvature="0" />
      <path
         d="m 367.72835,299.15062 0,0.22499 0.11729,0 0,0.22608 -0.11729,0 0,0.76434 q 0,0.14093 0.0141,0.15715 0.0159,0.0159 0.1217,0.0159 l 0,0.23039 -0.17549,0 q -0.14852,0 -0.21208,-0.0124 -0.0635,-0.0123 -0.112,-0.057 -0.0485,-0.0452 -0.0603,-0.1023 -0.0123,-0.0582 -0.0123,-0.27129 l 0,-0.72557 -0.0937,0 0,-0.22609 0.0937,0 0,-0.22499 0.43643,7.3e-4 z"
         style="font-size:1.25px;font-style:normal;font-variant:normal;font-weight:bold;font-stretch:normal;line-height:125%;letter-spacing:0px;word-spacing:0px;fill:#4d4d4d;fill-opacity:1;stroke:none;font-family:Impact;-inkscape-font-specification:Impact Bold"
         id="path1004"
         inkscape:connector-curvature="0" />
      <path
         d="m 368.7177,299.8945 -0.40802,0 0,-0.0958 q 0,-0.16579 0.0377,-0.25513 0.0388,-0.0905 0.15397,-0.15927 0.11518,-0.069 0.29927,-0.069 0.2207,0 0.33265,0.0787 0.112,0.0774 0.13458,0.19162 0.0226,0.11306 0.0226,0.46721 l 0,0.71698 -0.42306,0 0,-0.12699 q -0.0399,0.0764 -0.10336,0.11518 -0.0624,0.0377 -0.14957,0.0377 -0.11412,0 -0.20993,-0.0635 -0.0947,-0.0645 -0.0947,-0.28099 l 0,-0.11729 q 0,-0.1605 0.0506,-0.21855 0.0506,-0.0582 0.25083,-0.13564 0.21423,-0.0839 0.22931,-0.11306 0.0159,-0.0291 0.0159,-0.11835 0,-0.112 -0.0176,-0.14533 -0.0159,-0.0344 -0.0549,-0.0344 -0.0441,0 -0.0548,0.0291 -0.0106,0.028 -0.0106,0.14745 l -8.5e-4,0.14922 z m 0.13775,0.19594 q -0.10442,0.0764 -0.1217,0.12805 -0.0159,0.0517 -0.0159,0.14851 0,0.11094 0.0141,0.14322 0.0159,0.0323 0.0582,0.0323 0.0409,0 0.0527,-0.0247 0.0123,-0.0258 0.0123,-0.13351 l 2.2e-4,-0.29385 z"
         style="font-size:1.25px;font-style:normal;font-variant:normal;font-weight:bold;font-stretch:normal;line-height:125%;letter-spacing:0px;word-spacing:0px;fill:#4d4d4d;fill-opacity:1;stroke:none;font-family:Impact;-inkscape-font-specification:Impact Bold"
         id="path1006"
         inkscape:connector-curvature="0" />
      <path
         d="m 369.86958,299.34116 -0.007,0.13564 q 0.0506,-0.0808 0.12065,-0.12065 0.07,-0.0409 0.15927,-0.0409 0.17444,0 0.27452,0.16157 0.0548,-0.0808 0.12381,-0.12065 0.069,-0.0409 0.15293,-0.0409 0.11094,0 0.18301,0.0538 0.0732,0.0538 0.0937,0.13246 0.0205,0.0774 0.0205,0.253 l 0,1.01517 -0.422,0 0,-0.93122 q 0,-0.18301 -0.0124,-0.22606 -0.0123,-0.0441 -0.0571,-0.0441 -0.0464,0 -0.0603,0.043 -0.0123,0.043 -0.0123,0.22714 l 0,0.93121 -0.42199,0 0,-0.90752 q 0,-0.20993 -0.0106,-0.25191 -0.009,-0.042 -0.0559,-0.042 -0.0291,0 -0.0496,0.0226 -0.0205,0.0215 -0.0226,0.0538 -0.002,0.0312 -0.002,0.13458 l 0,0.99042 -0.422,0 0,-1.42857 0.42731,9e-5 z"
         style="font-size:1.25px;font-style:normal;font-variant:normal;font-weight:bold;font-stretch:normal;line-height:125%;letter-spacing:0px;word-spacing:0px;fill:#4d4d4d;fill-opacity:1;stroke:none;font-family:Impact;-inkscape-font-specification:Impact Bold"
         id="path1008"
         inkscape:connector-curvature="0" />
      <path
         d="m 372.126,300.08074 -0.56302,0 0,0.30896 q 0,0.0968 0.0141,0.12488 0.0141,0.028 0.0538,0.028 0.0496,0 0.0656,-0.0365 0.0176,-0.0377 0.0176,-0.14428 l 0,-0.18839 0.4123,0 0,0.10548 q 0,0.13246 -0.0176,0.20345 -0.0159,0.0711 -0.0774,0.15186 -0.0614,0.0808 -0.15609,0.1217 -0.0937,0.0399 -0.23577,0.0399 -0.13775,0 -0.2433,-0.0399 -0.10547,-0.0399 -0.16473,-0.10865 -0.0582,-0.07 -0.0808,-0.15292 -0.0226,-0.0839 -0.0226,-0.24329 l 0,-0.41663 q 0,-0.18732 0.0506,-0.29496 0.0506,-0.10865 0.1658,-0.1658 0.11517,-0.0582 0.26483,-0.0582 0.18301,0 0.30143,0.07 0.11941,0.069 0.16686,0.18409 0.0485,0.11412 0.0485,0.32187 l -1.6e-4,0.18928 z m -0.43599,-0.23252 0,-0.10442 q 0,-0.11094 -0.0123,-0.14322 -0.0123,-0.0323 -0.0485,-0.0323 -0.0452,0 -0.0559,0.028 -0.0106,0.027 -0.0106,0.14745 l 0,0.10442 0.12735,0 z"
         style="font-size:1.25px;font-style:normal;font-variant:normal;font-weight:bold;font-stretch:normal;line-height:125%;letter-spacing:0px;word-spacing:0px;fill:#4d4d4d;fill-opacity:1;stroke:none;font-family:Impact;-inkscape-font-specification:Impact Bold"
         id="path1010"
         inkscape:connector-curvature="0" />
      <path
         d="m 372.72779,299.15062 0,0.22499 0.11729,0 0,0.22608 -0.11729,0 0,0.76434 q 0,0.14093 0.0141,0.15715 0.0159,0.0159 0.1217,0.0159 l 0,0.23039 -0.17549,0 q -0.14852,0 -0.21208,-0.0124 -0.0635,-0.0123 -0.112,-0.057 -0.0485,-0.0452 -0.0603,-0.1023 -0.0123,-0.0582 -0.0123,-0.27129 l 0,-0.72557 -0.0937,0 0,-0.22609 0.0937,0 0,-0.22499 0.43643,7.3e-4 z"
         style="font-size:1.25px;font-style:normal;font-variant:normal;font-weight:bold;font-stretch:normal;line-height:125%;letter-spacing:0px;word-spacing:0px;fill:#4d4d4d;fill-opacity:1;stroke:none;font-family:Impact;-inkscape-font-specification:Impact Bold"
         id="path1012"
         inkscape:connector-curvature="0" />
      <path
         d="m 373.25852,300.42847 0,0.15609 q 0,0.12276 -0.0291,0.20131 -0.0291,0.0787 -0.10124,0.13352 -0.0711,0.0548 -0.16156,0.0732 l 0,-0.12487 q 0.0645,-0.0367 0.0732,-0.0979 l -0.0732,0 0,-0.34126 0.29191,-9e-5 z"
         style="font-size:1.25px;font-style:normal;font-variant:normal;font-weight:bold;font-stretch:normal;line-height:125%;letter-spacing:0px;word-spacing:0px;fill:#4d4d4d;fill-opacity:1;stroke:none;font-family:Impact;-inkscape-font-specification:Impact Bold"
         id="path1014"
         inkscape:connector-curvature="0" />
      <path
         d="m 349.40896,302.63644 -0.41015,0 0,-0.16474 q 0,-0.0861 -0.0141,-0.11623 -0.0141,-0.0312 -0.0517,-0.0312 -0.0377,0 -0.0506,0.0268 -0.0124,0.027 -0.0124,0.12064 l 0,0.67391 q 0,0.0764 0.0194,0.11518 0.0194,0.0377 0.0571,0.0377 0.0441,0 0.0593,-0.0399 0.0159,-0.0399 0.0159,-0.1508 l 0,-0.17003 0.38756,0 q -10e-4,0.17108 -0.0123,0.25728 -0.0106,0.085 -0.0721,0.1755 -0.0603,0.0894 -0.15821,0.13563 -0.0979,0.0452 -0.24222,0.0452 -0.18409,0 -0.29173,-0.0624 -0.10759,-0.0635 -0.15292,-0.17656 -0.0441,-0.11411 -0.0441,-0.32297 l 0,-0.40584 q 0,-0.18194 0.0367,-0.27452 0.0367,-0.0926 0.15609,-0.16474 0.11941,-0.0732 0.29066,-0.0732 0.17003,0 0.29067,0.0721 0.12065,0.0721 0.16033,0.18194 0.0388,0.10988 0.0388,0.31122 z"
         style="font-size:1.25px;font-style:normal;font-variant:normal;font-weight:bold;font-stretch:normal;line-height:125%;letter-spacing:0px;word-spacing:0px;fill:#4d4d4d;fill-opacity:1;stroke:none;font-family:Impact;-inkscape-font-specification:Impact Bold"
         id="path1016"
         inkscape:connector-curvature="0" />
      <path
         d="m 350.52102,302.59876 0,0.34987 q 0,0.1927 -0.0194,0.28313 -0.0194,0.0894 -0.0829,0.16791 -0.0635,0.0774 -0.16368,0.11517 -0.0991,0.0367 -0.22824,0.0367 -0.14428,0 -0.24437,-0.0312 -0.10018,-0.0323 -0.1561,-0.0958 -0.0548,-0.0646 -0.0787,-0.15504 -0.0236,-0.0915 -0.0236,-0.27342 l 0,-0.36603 q 0,-0.19916 0.043,-0.31113 0.043,-0.112 0.15504,-0.17977 0.112,-0.0679 0.28637,-0.0679 0.14639,0 0.25083,0.0441 0.10547,0.043 0.16262,0.11306 0.0572,0.07 0.0774,0.14428 0.0217,0.0743 0.0217,0.22608 z m -0.43492,-0.10759 q 0,-0.10988 -0.0123,-0.13775 -0.0123,-0.0291 -0.0506,-0.0291 -0.0388,0 -0.0517,0.0291 -0.0123,0.028 -0.0123,0.13775 l 0,0.64485 q 0,0.10124 0.0123,0.13246 0.0123,0.0302 0.0506,0.0302 0.0388,0 0.0506,-0.028 0.0123,-0.028 0.0123,-0.12064 l 0.001,-0.65885 z"
         style="font-size:1.25px;font-style:normal;font-variant:normal;font-weight:bold;font-stretch:normal;line-height:125%;letter-spacing:0px;word-spacing:0px;fill:#4d4d4d;fill-opacity:1;stroke:none;font-family:Impact;-inkscape-font-specification:Impact Bold"
         id="path1018"
         inkscape:connector-curvature="0" />
      <path
         d="m 351.10774,302.09709 -0.007,0.1314 q 0.0475,-0.0787 0.11518,-0.11729 0.069,-0.0399 0.15821,-0.0399 0.112,0 0.18301,0.0527 0.0711,0.0527 0.0915,0.13352 0.0205,0.0797 0.0205,0.26699 l 0,1.00118 -0.43492,0 0,-0.98935 q 0,-0.14745 -0.009,-0.17976 -0.009,-0.0323 -0.0538,-0.0323 -0.0464,0 -0.0582,0.0378 -0.0123,0.0365 -0.0123,0.19807 l 0,0.96566 -0.43492,0 0,-1.42857 0.44165,-1.9e-4 z"
         style="font-size:1.25px;font-style:normal;font-variant:normal;font-weight:bold;font-stretch:normal;line-height:125%;letter-spacing:0px;word-spacing:0px;fill:#4d4d4d;fill-opacity:1;stroke:none;font-family:Impact;-inkscape-font-specification:Impact Bold"
         id="path1020"
         inkscape:connector-curvature="0" />
      <path
         d="m 352.70747,302.55354 -0.38541,0 0,-0.0774 q 0,-0.0991 -0.0123,-0.12488 -0.0106,-0.0268 -0.0559,-0.0268 -0.0367,0 -0.0549,0.0247 -0.0183,0.0236 -0.0183,0.0721 0,0.0656 0.009,0.0968 0.009,0.0302 0.0548,0.0667 0.0462,0.0367 0.18839,0.10653 0.18947,0.0926 0.24868,0.17444 0.0593,0.0818 0.0593,0.23792 0,0.17444 -0.0451,0.26376 -0.0452,0.0882 -0.15186,0.13669 -0.10548,0.0475 -0.25515,0.0475 -0.1658,0 -0.2842,-0.0517 -0.1173,-0.0517 -0.16157,-0.13987 -0.0441,-0.0882 -0.0441,-0.26697 l 0,-0.069 0.3854,0 0,0.0905 q 0,0.11518 0.0141,0.14957 0.0159,0.0344 0.0582,0.0344 0.0464,0 0.0646,-0.0226 0.0183,-0.0236 0.0183,-0.0979 0,-0.1023 -0.0236,-0.12805 -0.0247,-0.0258 -0.25298,-0.15292 -0.19162,-0.1076 -0.23361,-0.19485 -0.042,-0.0882 -0.042,-0.20885 0,-0.17127 0.0452,-0.25191 0.0452,-0.0818 0.15292,-0.12593 0.10865,-0.0441 0.25191,-0.0441 0.14216,0 0.24114,0.0367 0.10019,0.0354 0.15293,0.0947 0.0538,0.0593 0.0645,0.10988 0.0123,0.0506 0.0123,0.15821 l -4.8e-4,0.0826 z"
         style="font-size:1.25px;font-style:normal;font-variant:normal;font-weight:bold;font-stretch:normal;line-height:125%;letter-spacing:0px;word-spacing:0px;fill:#4d4d4d;fill-opacity:1;stroke:none;font-family:Impact;-inkscape-font-specification:Impact Bold"
         id="path1022"
         inkscape:connector-curvature="0" />
      <path
         d="m 353.84214,302.83667 -0.56302,0 0,0.30896 q 0,0.0968 0.0141,0.12488 0.0141,0.028 0.0538,0.028 0.0496,0 0.0656,-0.0365 0.0176,-0.0378 0.0176,-0.14428 l 0,-0.18839 0.41233,0 0,0.10548 q 0,0.13246 -0.0176,0.20345 -0.0159,0.0711 -0.0774,0.15186 -0.0614,0.0808 -0.1561,0.1217 -0.0937,0.0399 -0.23576,0.0399 -0.13776,0 -0.2433,-0.0399 -0.10548,-0.0399 -0.16474,-0.10865 -0.0582,-0.07 -0.0808,-0.15292 -0.0226,-0.084 -0.0226,-0.2433 l 0,-0.41662 q 0,-0.18732 0.0506,-0.29496 0.0506,-0.10865 0.1658,-0.1658 0.11517,-0.0582 0.26483,-0.0582 0.18301,0 0.30143,0.07 0.11941,0.069 0.16686,0.18409 0.0485,0.11411 0.0485,0.32187 l -1.7e-4,0.18928 z m -0.43599,-0.23253 0,-0.10441 q 0,-0.11095 -0.0124,-0.14322 -0.0124,-0.0323 -0.0485,-0.0323 -0.0451,0 -0.0559,0.028 -0.0106,0.027 -0.0106,0.14746 l 0,0.10441 0.12735,0 z"
         style="font-size:1.25px;font-style:normal;font-variant:normal;font-weight:bold;font-stretch:normal;line-height:125%;letter-spacing:0px;word-spacing:0px;fill:#4d4d4d;fill-opacity:1;stroke:none;font-family:Impact;-inkscape-font-specification:Impact Bold"
         id="path1024"
         inkscape:connector-curvature="0" />
      <path
         d="m 354.94666,302.63644 -0.41015,0 0,-0.16474 q 0,-0.0861 -0.0141,-0.11623 -0.0141,-0.0312 -0.0517,-0.0312 -0.0377,0 -0.0506,0.0268 -0.0123,0.027 -0.0123,0.12064 l 0,0.67391 q 0,0.0764 0.0194,0.11518 0.0194,0.0377 0.0572,0.0377 0.0441,0 0.0593,-0.0399 0.0159,-0.0399 0.0159,-0.1508 l 0,-0.17003 0.38756,0 q -0.001,0.17108 -0.0124,0.25728 -0.0106,0.085 -0.0721,0.1755 -0.0603,0.0894 -0.15821,0.13563 -0.0979,0.0452 -0.24222,0.0452 -0.18409,0 -0.29174,-0.0624 -0.10759,-0.0635 -0.15292,-0.17656 -0.0441,-0.11411 -0.0441,-0.32297 l 0,-0.40584 q 0,-0.18194 0.0365,-0.27452 0.0367,-0.0926 0.1561,-0.16474 0.1194,-0.0732 0.29067,-0.0732 0.17003,0 0.29065,0.0721 0.12065,0.0721 0.16051,0.18194 0.039,0.10988 0.039,0.31122 z"
         style="font-size:1.25px;font-style:normal;font-variant:normal;font-weight:bold;font-stretch:normal;line-height:125%;letter-spacing:0px;word-spacing:0px;fill:#4d4d4d;fill-opacity:1;stroke:none;font-family:Impact;-inkscape-font-specification:Impact Bold"
         id="path1026"
         inkscape:connector-curvature="0" />
      <path
         d="m 355.53337,301.90655 0,0.22499 0.11729,0 0,0.22608 -0.11729,0 0,0.76434 q 0,0.14093 0.0141,0.15715 0.0159,0.0159 0.1217,0.0159 l 0,0.23038 -0.1755,0 q -0.14851,0 -0.21207,-0.0123 -0.0635,-0.0124 -0.11201,-0.057 -0.0485,-0.0452 -0.0603,-0.1023 -0.0123,-0.0582 -0.0123,-0.27129 l 0,-0.72557 -0.0937,0 0,-0.22609 0.0937,0 0,-0.22499 0.43643,7.3e-4 z"
         style="font-size:1.25px;font-style:normal;font-variant:normal;font-weight:bold;font-stretch:normal;line-height:125%;letter-spacing:0px;word-spacing:0px;fill:#4d4d4d;fill-opacity:1;stroke:none;font-family:Impact;-inkscape-font-specification:Impact Bold"
         id="path1028"
         inkscape:connector-curvature="0" />
      <path
         d="m 356.73155,302.83667 -0.56302,0 0,0.30896 q 0,0.0968 0.0141,0.12488 0.0141,0.028 0.0538,0.028 0.0496,0 0.0656,-0.0365 0.0176,-0.0378 0.0176,-0.14428 l 0,-0.18839 0.4123,0 0,0.10548 q 0,0.13246 -0.0176,0.20345 -0.0159,0.0711 -0.0774,0.15186 -0.0614,0.0808 -0.15609,0.1217 -0.0937,0.0399 -0.23577,0.0399 -0.13775,0 -0.2433,-0.0399 -0.10547,-0.0399 -0.16474,-0.10865 -0.0582,-0.07 -0.0808,-0.15292 -0.0226,-0.084 -0.0226,-0.2433 l 0,-0.41662 q 0,-0.18732 0.0506,-0.29496 0.0506,-0.10865 0.16579,-0.1658 0.11518,-0.0582 0.26482,-0.0582 0.18301,0 0.30143,0.07 0.11941,0.069 0.16686,0.18409 0.0485,0.11411 0.0485,0.32187 l -1.4e-4,0.18928 z m -0.43599,-0.23253 0,-0.10441 q 0,-0.11095 -0.0124,-0.14322 -0.0123,-0.0323 -0.0485,-0.0323 -0.0452,0 -0.0559,0.028 -0.0106,0.027 -0.0106,0.14746 l 0,0.10441 0.12735,0 z"
         style="font-size:1.25px;font-style:normal;font-variant:normal;font-weight:bold;font-stretch:normal;line-height:125%;letter-spacing:0px;word-spacing:0px;fill:#4d4d4d;fill-opacity:1;stroke:none;font-family:Impact;-inkscape-font-specification:Impact Bold"
         id="path1030"
         inkscape:connector-curvature="0" />
      <path
         d="m 357.33334,301.90655 0,0.22499 0.11729,0 0,0.22608 -0.11729,0 0,0.76434 q 0,0.14093 0.0141,0.15715 0.0159,0.0159 0.1217,0.0159 l 0,0.23038 -0.1755,0 q -0.14851,0 -0.21207,-0.0123 -0.0635,-0.0124 -0.11201,-0.057 -0.0485,-0.0452 -0.0603,-0.1023 -0.0123,-0.0582 -0.0123,-0.27129 l 0,-0.72557 -0.0937,0 0,-0.22609 0.0937,0 0,-0.22499 0.43643,7.3e-4 z"
         style="font-size:1.25px;font-style:normal;font-variant:normal;font-weight:bold;font-stretch:normal;line-height:125%;letter-spacing:0px;word-spacing:0px;fill:#4d4d4d;fill-opacity:1;stroke:none;font-family:Impact;-inkscape-font-specification:Impact Bold"
         id="path1032"
         inkscape:connector-curvature="0" />
      <path
         d="m 358.54228,302.09709 0,1.42857 -0.44245,0 0.007,-0.11835 q -0.0452,0.0721 -0.112,0.10865 -0.0656,0.0356 -0.15187,0.0356 -0.0979,0 -0.16262,-0.0344 -0.0645,-0.0344 -0.0958,-0.0915 -0.0302,-0.0572 -0.0378,-0.11835 -0.007,-0.0624 -0.007,-0.24653 l 0,-0.96351 0.43491,0 0,0.97212 q 0,0.16686 0.009,0.19807 0.0106,0.0312 0.0559,0.0312 0.0485,0 0.0571,-0.0323 0.009,-0.0323 0.009,-0.20776 l 0,-0.96136 0.43684,-1.9e-4 z"
         style="font-size:1.25px;font-style:normal;font-variant:normal;font-weight:bold;font-stretch:normal;line-height:125%;letter-spacing:0px;word-spacing:0px;fill:#4d4d4d;fill-opacity:1;stroke:none;font-family:Impact;-inkscape-font-specification:Impact Bold"
         id="path1034"
         inkscape:connector-curvature="0" />
      <path
         d="m 359.13546,302.09709 -0.0176,0.18731 q 0.0947,-0.2013 0.27452,-0.21315 l 0,0.50275 q -0.11941,0 -0.1755,0.0323 -0.0559,0.0323 -0.069,0.0905 -0.0123,0.057 -0.0123,0.26482 l 0,0.56411 -0.43491,0 0,-1.42857 0.43484,-3e-5 z"
         style="font-size:1.25px;font-style:normal;font-variant:normal;font-weight:bold;font-stretch:normal;line-height:125%;letter-spacing:0px;word-spacing:0px;fill:#4d4d4d;fill-opacity:1;stroke:none;font-family:Impact;-inkscape-font-specification:Impact Bold"
         id="path1036"
         inkscape:connector-curvature="0" />
      <path
         d="m 360.26475,302.65043 -0.40802,0 0,-0.0958 q 0,-0.16579 0.0377,-0.25513 0.0388,-0.0905 0.15397,-0.15927 0.11518,-0.069 0.29927,-0.069 0.2207,0 0.33265,0.0787 0.112,0.0774 0.13458,0.19162 0.0226,0.11306 0.0226,0.46721 l 0,0.71698 -0.42306,0 0,-0.12699 q -0.0399,0.0764 -0.10336,0.11517 -0.0624,0.0378 -0.14957,0.0378 -0.11412,0 -0.20993,-0.0635 -0.0947,-0.0645 -0.0947,-0.28099 l 0,-0.11729 q 0,-0.1605 0.0506,-0.21855 0.0506,-0.0582 0.25083,-0.13564 0.21423,-0.084 0.22931,-0.11306 0.0159,-0.0291 0.0159,-0.11835 0,-0.112 -0.0176,-0.14533 -0.0159,-0.0344 -0.0549,-0.0344 -0.0441,0 -0.0548,0.0291 -0.0106,0.028 -0.0106,0.14745 l -8.5e-4,0.14922 z m 0.13775,0.19594 q -0.10442,0.0764 -0.1217,0.12805 -0.0159,0.0517 -0.0159,0.14851 0,0.11094 0.0141,0.14322 0.0159,0.0323 0.0582,0.0323 0.0409,0 0.0527,-0.0247 0.0123,-0.0258 0.0123,-0.13352 l 2.2e-4,-0.29384 z"
         style="font-size:1.25px;font-style:normal;font-variant:normal;font-weight:bold;font-stretch:normal;line-height:125%;letter-spacing:0px;word-spacing:0px;fill:#4d4d4d;fill-opacity:1;stroke:none;font-family:Impact;-inkscape-font-specification:Impact Bold"
         id="path1038"
         inkscape:connector-curvature="0" />
      <path
         d="m 361.97644,301.78274 0,1.74292 -0.43493,0 0,-0.10336 q -0.0624,0.0645 -0.13141,0.0968 -0.069,0.0323 -0.14427,0.0323 -0.10125,0 -0.1755,-0.0527 -0.0743,-0.0538 -0.0958,-0.12382 -0.0205,-0.07 -0.0205,-0.22823 l 0,-0.66852 q 0,-0.16474 0.0205,-0.23361 0.0215,-0.069 0.0968,-0.12064 0.0753,-0.0527 0.17978,-0.0527 0.0808,0 0.14745,0.0291 0.0679,0.0291 0.12276,0.0871 l 0,-0.40477 0.43506,1.7e-4 z m -0.43493,0.67392 q 0,-0.0787 -0.0141,-0.10548 -0.0124,-0.0268 -0.0527,-0.0268 -0.0388,0 -0.0527,0.0247 -0.0124,0.0236 -0.0124,0.1076 l 0,0.69975 q 0,0.0871 0.0124,0.11517 0.0124,0.0268 0.0496,0.0268 0.042,0 0.0559,-0.0302 0.0141,-0.0312 0.0141,-0.15063 l 0,-0.66094 z"
         style="font-size:1.25px;font-style:normal;font-variant:normal;font-weight:bold;font-stretch:normal;line-height:125%;letter-spacing:0px;word-spacing:0px;fill:#4d4d4d;fill-opacity:1;stroke:none;font-family:Impact;-inkscape-font-specification:Impact Bold"
         id="path1040"
         inkscape:connector-curvature="0" />
      <path
         d="m 362.58036,301.78274 0,0.22715 -0.44782,0 0,-0.22715 0.44782,0 z m 0,0.31435 0,1.42857 -0.44782,0 0,-1.42857 0.44782,0 z"
         style="font-size:1.25px;font-style:normal;font-variant:normal;font-weight:bold;font-stretch:normal;line-height:125%;letter-spacing:0px;word-spacing:0px;fill:#4d4d4d;fill-opacity:1;stroke:none;font-family:Impact;-inkscape-font-specification:Impact Bold"
         id="path1042"
         inkscape:connector-curvature="0" />
      <path
         d="m 363.17785,302.09709 -0.007,0.12593 q 0.0582,-0.0764 0.12806,-0.11411 0.07,-0.0377 0.15292,-0.0377 0.10124,0 0.17444,0.0548 0.0743,0.0538 0.0926,0.12488 0.0183,0.0711 0.0183,0.24115 l 0,0.60179 q 0,0.19484 -0.0236,0.27774 -0.0226,0.0818 -0.0947,0.1314 -0.0711,0.0485 -0.17232,0.0485 -0.0808,0 -0.14957,-0.0378 -0.069,-0.0377 -0.12594,-0.112 l 0,0.32726 -0.43493,0 0,-1.63203 0.44181,1.3e-4 z m 0.12382,0.41555 q 0,-0.13246 -0.009,-0.16051 -0.0106,-0.028 -0.0538,-0.028 -0.043,0 -0.0559,0.0323 -0.0123,0.0323 -0.0123,0.15609 l 0,0.59209 q 0,0.12911 0.0123,0.16139 0.0124,0.0323 0.0559,0.0323 0.042,0 0.0517,-0.0291 0.0106,-0.0302 0.0106,-0.14428 l 3.4e-4,-0.61219 z"
         style="font-size:1.25px;font-style:normal;font-variant:normal;font-weight:bold;font-stretch:normal;line-height:125%;letter-spacing:0px;word-spacing:0px;fill:#4d4d4d;fill-opacity:1;stroke:none;font-family:Impact;-inkscape-font-specification:Impact Bold"
         id="path1044"
         inkscape:connector-curvature="0" />
      <path
         d="m 364.32865,301.78274 0,0.22715 -0.44782,0 0,-0.22715 0.44782,0 z m 0,0.31435 0,1.42857 -0.44782,0 0,-1.42857 0.44782,0 z"
         style="font-size:1.25px;font-style:normal;font-variant:normal;font-weight:bold;font-stretch:normal;line-height:125%;letter-spacing:0px;word-spacing:0px;fill:#4d4d4d;fill-opacity:1;stroke:none;font-family:Impact;-inkscape-font-specification:Impact Bold"
         id="path1046"
         inkscape:connector-curvature="0" />
      <path
         d="m 365.37182,302.55354 -0.38539,0 0,-0.0774 q 0,-0.0991 -0.0123,-0.12488 -0.0106,-0.0268 -0.0559,-0.0268 -0.0367,0 -0.0549,0.0247 -0.0183,0.0236 -0.0183,0.0721 0,0.0656 0.009,0.0968 0.009,0.0302 0.0548,0.0667 0.0464,0.0367 0.18839,0.10653 0.18949,0.0926 0.2487,0.17444 0.0593,0.0818 0.0593,0.23792 0,0.17444 -0.0451,0.26376 -0.0452,0.0882 -0.15186,0.13669 -0.10548,0.0475 -0.25514,0.0475 -0.16579,0 -0.28421,-0.0517 -0.1173,-0.0517 -0.16139,-0.13987 -0.0441,-0.0882 -0.0441,-0.26697 l 0,-0.069 0.38539,0 0,0.0905 q 0,0.11518 0.0141,0.14957 0.0159,0.0344 0.0582,0.0344 0.0462,0 0.0646,-0.0226 0.0183,-0.0236 0.0183,-0.0979 0,-0.1023 -0.0236,-0.12805 -0.0247,-0.0258 -0.253,-0.15292 -0.19162,-0.1076 -0.23359,-0.19485 -0.042,-0.0882 -0.042,-0.20885 0,-0.17127 0.0451,-0.25191 0.0451,-0.0818 0.15292,-0.12593 0.10865,-0.0441 0.25191,-0.0441 0.14216,0 0.24114,0.0367 0.10019,0.0354 0.15292,0.0947 0.0538,0.0593 0.0646,0.10988 0.0124,0.0506 0.0124,0.15821 l -6.7e-4,0.0826 z"
         style="font-size:1.25px;font-style:normal;font-variant:normal;font-weight:bold;font-stretch:normal;line-height:125%;letter-spacing:0px;word-spacing:0px;fill:#4d4d4d;fill-opacity:1;stroke:none;font-family:Impact;-inkscape-font-specification:Impact Bold"
         id="path1048"
         inkscape:connector-curvature="0" />
      <path
         d="m 366.48281,302.63644 -0.41017,0 0,-0.16474 q 0,-0.0861 -0.0141,-0.11623 -0.0141,-0.0312 -0.0517,-0.0312 -0.0377,0 -0.0506,0.0268 -0.0124,0.027 -0.0124,0.12064 l 0,0.67391 q 0,0.0764 0.0194,0.11518 0.0194,0.0377 0.0571,0.0377 0.0441,0 0.0593,-0.0399 0.0159,-0.0399 0.0159,-0.1508 l 0,-0.17003 0.38756,0 q -10e-4,0.17108 -0.0124,0.25728 -0.0106,0.085 -0.0721,0.1755 -0.0603,0.0894 -0.15821,0.13563 -0.0979,0.0452 -0.24222,0.0452 -0.18409,0 -0.29175,-0.0624 -0.10759,-0.0635 -0.15292,-0.17656 -0.0441,-0.11411 -0.0441,-0.32297 l 0,-0.40584 q 0,-0.18194 0.0365,-0.27452 0.0367,-0.0926 0.1561,-0.16474 0.11941,-0.0732 0.29067,-0.0732 0.17003,0 0.29066,0.0721 0.12064,0.0721 0.16033,0.18194 0.0392,0.10988 0.0392,0.31122 z"
         style="font-size:1.25px;font-style:normal;font-variant:normal;font-weight:bold;font-stretch:normal;line-height:125%;letter-spacing:0px;word-spacing:0px;fill:#4d4d4d;fill-opacity:1;stroke:none;font-family:Impact;-inkscape-font-specification:Impact Bold"
         id="path1050"
         inkscape:connector-curvature="0" />
      <path
         d="m 367.05876,301.78274 0,0.22715 -0.44784,0 0,-0.22715 0.44784,0 z m 0,0.31435 0,1.42857 -0.44784,0 0,-1.42857 0.44784,0 z"
         style="font-size:1.25px;font-style:normal;font-variant:normal;font-weight:bold;font-stretch:normal;line-height:125%;letter-spacing:0px;word-spacing:0px;fill:#4d4d4d;fill-opacity:1;stroke:none;font-family:Impact;-inkscape-font-specification:Impact Bold"
         id="path1052"
         inkscape:connector-curvature="0" />
      <path
         d="m 367.65623,302.09709 -0.007,0.1314 q 0.0474,-0.0787 0.11518,-0.11729 0.069,-0.0399 0.15821,-0.0399 0.112,0 0.18301,0.0527 0.0711,0.0527 0.0915,0.13352 0.0205,0.0797 0.0205,0.26699 l 0,1.00118 -0.43491,0 0,-0.98935 q 0,-0.14745 -0.009,-0.17976 -0.009,-0.0323 -0.0538,-0.0323 -0.0462,0 -0.0582,0.0378 -0.0123,0.0365 -0.0123,0.19807 l 0,0.96566 -0.43491,0 0,-1.42857 0.44165,-1.9e-4 z"
         style="font-size:1.25px;font-style:normal;font-variant:normal;font-weight:bold;font-stretch:normal;line-height:125%;letter-spacing:0px;word-spacing:0px;fill:#4d4d4d;fill-opacity:1;stroke:none;font-family:Impact;-inkscape-font-specification:Impact Bold"
         id="path1054"
         inkscape:connector-curvature="0" />
      <path
         d="m 369.35609,302.09709 0,1.10022 q 0,0.22284 -0.0106,0.28852 -0.009,0.0645 -0.0721,0.13669 -0.0624,0.0732 -0.17444,0.11095 -0.11094,0.0388 -0.27989,0.0388 -0.20778,0 -0.33373,-0.0711 -0.12593,-0.07 -0.13017,-0.27669 l 0.42201,0 q 0,0.0947 0.069,0.0947 0.0496,0 0.0656,-0.0291 0.0159,-0.0291 0.0159,-0.12171 l 0,-0.10759 q -0.0559,0.0506 -0.11835,0.0764 -0.0614,0.0258 -0.12911,0.0258 -0.11729,0 -0.19377,-0.0475 -0.0753,-0.0474 -0.10336,-0.12382 -0.028,-0.0774 -0.028,-0.21961 l 0,-0.51889 q 0,-0.20347 0.0732,-0.29282 0.0732,-0.0894 0.22286,-0.0894 0.0818,0 0.14851,0.0333 0.0679,0.0333 0.12064,0.10018 l 0.0312,-0.10759 0.40471,2.3e-4 z m -0.43601,0.37895 q 0,-0.0979 -0.0123,-0.12488 -0.0106,-0.0268 -0.0496,-0.0268 -0.0377,0 -0.0538,0.0312 -0.0159,0.0302 -0.0159,0.12065 l 0,0.48012 q 0,0.0958 0.0123,0.12488 0.0124,0.028 0.0496,0.028 0.043,0 0.0559,-0.0344 0.0124,-0.0344 0.0124,-0.1561 l 0.001,-0.44273 z"
         style="font-size:1.25px;font-style:normal;font-variant:normal;font-weight:bold;font-stretch:normal;line-height:125%;letter-spacing:0px;word-spacing:0px;fill:#4d4d4d;fill-opacity:1;stroke:none;font-family:Impact;-inkscape-font-specification:Impact Bold"
         id="path1056"
         inkscape:connector-curvature="0" />
      <path
         d="m 370.88583,302.83667 -0.56303,0 0,0.30896 q 0,0.0968 0.0141,0.12488 0.0141,0.028 0.0538,0.028 0.0496,0 0.0656,-0.0365 0.0176,-0.0378 0.0176,-0.14428 l 0,-0.18839 0.41231,0 0,0.10548 q 0,0.13246 -0.0176,0.20345 -0.0159,0.0711 -0.0774,0.15186 -0.0614,0.0808 -0.1561,0.1217 -0.0937,0.0399 -0.23575,0.0399 -0.13775,0 -0.24329,-0.0399 -0.10548,-0.0399 -0.16474,-0.10865 -0.0582,-0.07 -0.0808,-0.15292 -0.0226,-0.084 -0.0226,-0.2433 l 0,-0.41662 q 0,-0.18732 0.0506,-0.29496 0.0506,-0.10865 0.1658,-0.1658 0.11517,-0.0582 0.26483,-0.0582 0.18301,0 0.30141,0.07 0.11941,0.069 0.16686,0.18409 0.0485,0.11411 0.0485,0.32187 l -1.5e-4,0.18928 z m -0.436,-0.23253 0,-0.10441 q 0,-0.11095 -0.0123,-0.14322 -0.0124,-0.0323 -0.0485,-0.0323 -0.0451,0 -0.0559,0.028 -0.0106,0.027 -0.0106,0.14746 l 0,0.10441 0.12734,0 z"
         style="font-size:1.25px;font-style:normal;font-variant:normal;font-weight:bold;font-stretch:normal;line-height:125%;letter-spacing:0px;word-spacing:0px;fill:#4d4d4d;fill-opacity:1;stroke:none;font-family:Impact;-inkscape-font-specification:Impact Bold"
         id="path1058"
         inkscape:connector-curvature="0" />
      <path
         d="m 371.47686,301.78274 0,1.74292 -0.44785,0 0,-1.74292 0.44785,0 z"
         style="font-size:1.25px;font-style:normal;font-variant:normal;font-weight:bold;font-stretch:normal;line-height:125%;letter-spacing:0px;word-spacing:0px;fill:#4d4d4d;fill-opacity:1;stroke:none;font-family:Impact;-inkscape-font-specification:Impact Bold"
         id="path1060"
         inkscape:connector-curvature="0" />
      <path
         d="m 372.0797,301.78274 0,0.22715 -0.44783,0 0,-0.22715 0.44783,0 z m 0,0.31435 0,1.42857 -0.44783,0 0,-1.42857 0.44783,0 z"
         style="font-size:1.25px;font-style:normal;font-variant:normal;font-weight:bold;font-stretch:normal;line-height:125%;letter-spacing:0px;word-spacing:0px;fill:#4d4d4d;fill-opacity:1;stroke:none;font-family:Impact;-inkscape-font-specification:Impact Bold"
         id="path1062"
         inkscape:connector-curvature="0" />
      <path
         d="m 372.69334,301.90655 0,0.22499 0.1173,0 0,0.22608 -0.1173,0 0,0.76434 q 0,0.14093 0.0141,0.15715 0.0159,0.0159 0.12171,0.0159 l 0,0.23038 -0.1755,0 q -0.14851,0 -0.21208,-0.0123 -0.0635,-0.0124 -0.112,-0.057 -0.0485,-0.0452 -0.0603,-0.1023 -0.0123,-0.0582 -0.0123,-0.27129 l 0,-0.72557 -0.0937,0 0,-0.22609 0.0937,0 0,-0.22499 0.43643,7.3e-4 z"
         style="font-size:1.25px;font-style:normal;font-variant:normal;font-weight:bold;font-stretch:normal;line-height:125%;letter-spacing:0px;word-spacing:0px;fill:#4d4d4d;fill-opacity:1;stroke:none;font-family:Impact;-inkscape-font-specification:Impact Bold"
         id="path1064"
         inkscape:connector-curvature="0" />
      <path
         d="m 359.43666,319.07098 0,1.74291 -0.39724,0 -0.23575,-0.79233 0,0.79233 -0.37895,0 0,-1.74291 0.37895,0 0.25406,0.78479 0,-0.78479 0.37893,0 z"
         style="font-size:1.25px;font-style:normal;font-variant:normal;font-weight:bold;font-stretch:normal;line-height:125%;letter-spacing:0px;word-spacing:0px;fill:#4d4d4d;fill-opacity:1;stroke:none;font-family:Impact;-inkscape-font-specification:Impact Bold"
         id="path896"
         inkscape:connector-curvature="0" />
      <path
         d="m 360.6004,319.38533 0,1.42856 -0.44245,0 0.007,-0.11835 q -0.0452,0.0721 -0.112,0.10865 -0.0656,0.0354 -0.15187,0.0354 -0.0981,0 -0.16262,-0.0344 -0.0645,-0.0344 -0.0958,-0.0915 -0.0302,-0.0571 -0.0377,-0.11835 -0.007,-0.0624 -0.007,-0.24653 l 0,-0.96349 0.43491,0 0,0.97212 q 0,0.16685 0.009,0.19807 0.0106,0.0312 0.0559,0.0312 0.0485,0 0.057,-0.0323 0.009,-0.0323 0.009,-0.20777 l 0,-0.96134 0.43702,-3e-5 z"
         style="font-size:1.25px;font-style:normal;font-variant:normal;font-weight:bold;font-stretch:normal;line-height:125%;letter-spacing:0px;word-spacing:0px;fill:#4d4d4d;fill-opacity:1;stroke:none;font-family:Impact;-inkscape-font-specification:Impact Bold"
         id="path898"
         inkscape:connector-curvature="0" />
      <path
         d="m 361.20649,319.07098 0,1.74291 -0.44783,0 0,-1.74291 0.44783,0 z"
         style="font-size:1.25px;font-style:normal;font-variant:normal;font-weight:bold;font-stretch:normal;line-height:125%;letter-spacing:0px;word-spacing:0px;fill:#4d4d4d;fill-opacity:1;stroke:none;font-family:Impact;-inkscape-font-specification:Impact Bold"
         id="path900"
         inkscape:connector-curvature="0" />
      <path
         d="m 361.80936,319.07098 0,1.74291 -0.44785,0 0,-1.74291 0.44785,0 z"
         style="font-size:1.25px;font-style:normal;font-variant:normal;font-weight:bold;font-stretch:normal;line-height:125%;letter-spacing:0px;word-spacing:0px;fill:#4d4d4d;fill-opacity:1;stroke:none;font-family:Impact;-inkscape-font-specification:Impact Bold"
         id="path903"
         inkscape:connector-curvature="0" />
      <path
         d="m 362.35301,319.93866 -0.40802,0 0,-0.0958 q 0,-0.1658 0.0377,-0.25515 0.0388,-0.0905 0.15398,-0.15927 0.11517,-0.069 0.29926,-0.069 0.2207,0 0.33265,0.0787 0.112,0.0774 0.13458,0.19162 0.0226,0.11306 0.0226,0.46721 l 0,0.71698 -0.42307,0 0,-0.12699 q -0.0399,0.0764 -0.10336,0.11517 -0.0624,0.0377 -0.14957,0.0377 -0.11411,0 -0.20992,-0.0635 -0.0947,-0.0645 -0.0947,-0.28097 l 0,-0.11729 q 0,-0.16033 0.0506,-0.21854 0.0506,-0.0582 0.25083,-0.13563 0.21423,-0.084 0.22931,-0.11306 0.0159,-0.0291 0.0159,-0.11835 0,-0.112 -0.0176,-0.14534 -0.0159,-0.0344 -0.0549,-0.0344 -0.0441,0 -0.0548,0.0291 -0.0106,0.028 -0.0106,0.14745 l -8.5e-4,0.14922 z m 0.13775,0.19593 q -0.10441,0.0764 -0.1217,0.12805 -0.0159,0.0517 -0.0159,0.14851 0,0.11094 0.0141,0.14322 0.0159,0.0323 0.0582,0.0323 0.0409,0 0.0527,-0.0247 0.0123,-0.0258 0.0123,-0.13352 l 2.1e-4,-0.29384 z"
         style="font-size:1.25px;font-style:normal;font-variant:normal;font-weight:bold;font-stretch:normal;line-height:125%;letter-spacing:0px;word-spacing:0px;fill:#4d4d4d;fill-opacity:1;stroke:none;font-family:Impact;-inkscape-font-specification:Impact Bold"
         id="path905"
         inkscape:connector-curvature="0" />
      <path
         d="m 364.44902,319.38533 0,1.63202 -0.43492,0 0,-0.31865 q -0.0635,0.0926 -0.11729,0.11623 -0.0527,0.0247 -0.13141,0.0247 -0.11411,0 -0.18946,-0.0538 -0.0743,-0.0538 -0.10019,-0.13881 -0.0259,-0.0861 -0.0259,-0.26266 l 0,-0.62978 q 0,-0.14534 0.0194,-0.21639 0.0194,-0.0721 0.0926,-0.12487 0.0743,-0.0538 0.17549,-0.0538 0.0818,0 0.15081,0.0367 0.069,0.0367 0.12593,0.11094 l 0.007,-0.1217 0.4279,-1.2e-4 z m -0.43492,0.38863 q 0,-0.0947 -0.0159,-0.12805 -0.0141,-0.0333 -0.0517,-0.0333 -0.0367,0 -0.0496,0.0291 -0.0123,0.0291 -0.0123,0.13246 l 0,0.63622 q 0,0.11517 0.0123,0.14639 0.0124,0.0302 0.0527,0.0302 0.0377,0 0.0506,-0.0312 0.0124,-0.0323 0.0124,-0.13881 l 10e-4,-0.64292 z"
         style="font-size:1.25px;font-style:normal;font-variant:normal;font-weight:bold;font-stretch:normal;line-height:125%;letter-spacing:0px;word-spacing:0px;fill:#4d4d4d;fill-opacity:1;stroke:none;font-family:Impact;-inkscape-font-specification:Impact Bold"
         id="path907"
         inkscape:connector-curvature="0" />
      <path
         d="m 365.59984,319.38533 0,1.42856 -0.44247,0 0.007,-0.11835 q -0.0451,0.0721 -0.112,0.10865 -0.0656,0.0354 -0.15187,0.0354 -0.0979,0 -0.16262,-0.0344 -0.0645,-0.0344 -0.0958,-0.0915 -0.0302,-0.0571 -0.0378,-0.11835 -0.007,-0.0624 -0.007,-0.24653 l 0,-0.96349 0.43492,0 0,0.97212 q 0,0.16685 0.009,0.19807 0.0106,0.0312 0.0559,0.0312 0.0485,0 0.0571,-0.0323 0.009,-0.0323 0.009,-0.20777 l 0,-0.96134 0.43686,-3e-5 z"
         style="font-size:1.25px;font-style:normal;font-variant:normal;font-weight:bold;font-stretch:normal;line-height:125%;letter-spacing:0px;word-spacing:0px;fill:#4d4d4d;fill-opacity:1;stroke:none;font-family:Impact;-inkscape-font-specification:Impact Bold"
         id="path909"
         inkscape:connector-curvature="0" />
      <path
         d="m 366.20591,319.07098 0,0.22714 -0.44782,0 0,-0.22714 0.44782,0 z m 0,0.31435 0,1.42856 -0.44782,0 0,-1.42856 0.44782,0 z"
         style="font-size:1.25px;font-style:normal;font-variant:normal;font-weight:bold;font-stretch:normal;line-height:125%;letter-spacing:0px;word-spacing:0px;fill:#4d4d4d;fill-opacity:1;stroke:none;font-family:Impact;-inkscape-font-specification:Impact Bold"
         id="path911"
         inkscape:connector-curvature="0" />
      <path
         d="m 367.24909,319.84178 -0.3854,0 0,-0.0776 q 0,-0.0991 -0.0124,-0.12488 -0.0106,-0.027 -0.0559,-0.027 -0.0365,0 -0.0549,0.0247 -0.0183,0.0236 -0.0183,0.0721 0,0.0656 0.009,0.0968 0.009,0.0302 0.0549,0.0667 0.0464,0.0365 0.18841,0.10654 0.18947,0.0926 0.24868,0.17444 0.0593,0.0818 0.0593,0.23792 0,0.17443 -0.0451,0.26374 -0.0451,0.0882 -0.15186,0.13669 -0.10548,0.0475 -0.25514,0.0475 -0.16579,0 -0.2842,-0.0517 -0.11729,-0.0517 -0.16156,-0.14005 -0.0441,-0.0882 -0.0441,-0.26698 l 0,-0.069 0.38539,0 0,0.0905 q 0,0.11518 0.0141,0.14957 0.0159,0.0344 0.0582,0.0344 0.0462,0 0.0645,-0.0226 0.0183,-0.0236 0.0183,-0.0979 0,-0.1023 -0.0236,-0.12805 -0.0247,-0.0259 -0.253,-0.15292 -0.19161,-0.10759 -0.23359,-0.19485 -0.042,-0.0882 -0.042,-0.20885 0,-0.17109 0.0451,-0.2519 0.0452,-0.0818 0.15292,-0.12594 0.10865,-0.0441 0.25191,-0.0441 0.14216,0 0.24114,0.0367 0.10019,0.0355 0.15292,0.0947 0.0538,0.0593 0.0646,0.10988 0.0124,0.0506 0.0124,0.15822 l -5e-4,0.0832 z"
         style="font-size:1.25px;font-style:normal;font-variant:normal;font-weight:bold;font-stretch:normal;line-height:125%;letter-spacing:0px;word-spacing:0px;fill:#4d4d4d;fill-opacity:1;stroke:none;font-family:Impact;-inkscape-font-specification:Impact Bold"
         id="path913"
         inkscape:connector-curvature="0" />
      <path
         d="m 368.21581,319.38533 -0.007,0.13563 q 0.0506,-0.0808 0.12064,-0.12064 0.07,-0.0409 0.15927,-0.0409 0.17444,0 0.27452,0.16156 0.0548,-0.0808 0.12382,-0.12064 0.069,-0.0409 0.15292,-0.0409 0.11094,0 0.18301,0.0538 0.0732,0.0538 0.0937,0.13246 0.0205,0.0774 0.0205,0.25299 l 0,1.01518 -0.422,0 0,-0.93121 q 0,-0.18301 -0.0124,-0.22607 -0.0123,-0.0441 -0.057,-0.0441 -0.0464,0 -0.0603,0.043 -0.0124,0.043 -0.0124,0.22714 l 0,0.93121 -0.422,0 0,-0.90752 q 0,-0.20993 -0.0106,-0.25191 -0.009,-0.042 -0.0559,-0.042 -0.0291,0 -0.0496,0.0226 -0.0205,0.0215 -0.0226,0.0538 -0.002,0.0312 -0.002,0.13458 l 0,0.99043 -0.42201,0 0,-1.42857 0.42716,9e-5 z"
         style="font-size:1.25px;font-style:normal;font-variant:normal;font-weight:bold;font-stretch:normal;line-height:125%;letter-spacing:0px;word-spacing:0px;fill:#4d4d4d;fill-opacity:1;stroke:none;font-family:Impact;-inkscape-font-specification:Impact Bold"
         id="path915"
         inkscape:connector-curvature="0" />
      <path
         d="m 370.47223,320.1249 -0.56304,0 0,0.30897 q 0,0.0968 0.0141,0.12487 0.0141,0.0281 0.0538,0.0281 0.0496,0 0.0656,-0.0367 0.0176,-0.0377 0.0176,-0.14428 l 0,-0.18839 0.41232,0 0,0.10548 q 0,0.13246 -0.0176,0.20345 -0.0159,0.0711 -0.0774,0.15186 -0.0614,0.0808 -0.1561,0.1217 -0.0937,0.0399 -0.23577,0.0399 -0.13775,0 -0.24329,-0.0399 -0.10548,-0.0399 -0.16474,-0.10865 -0.0582,-0.07 -0.0808,-0.15292 -0.0226,-0.0839 -0.0226,-0.24329 l 0,-0.41663 q 0,-0.18732 0.0506,-0.29498 0.0506,-0.10865 0.1658,-0.16579 0.11517,-0.0582 0.26483,-0.0582 0.18301,0 0.30143,0.07 0.11941,0.069 0.16686,0.18409 0.0485,0.11412 0.0485,0.32189 l -1.6e-4,0.18945 z m -0.43599,-0.23254 0,-0.10441 q 0,-0.11095 -0.0124,-0.14322 -0.0123,-0.0323 -0.0485,-0.0323 -0.0451,0 -0.0559,0.028 -0.0106,0.027 -0.0106,0.14746 l 0,0.10441 0.12735,0 z"
         style="font-size:1.25px;font-style:normal;font-variant:normal;font-weight:bold;font-stretch:normal;line-height:125%;letter-spacing:0px;word-spacing:0px;fill:#4d4d4d;fill-opacity:1;stroke:none;font-family:Impact;-inkscape-font-specification:Impact Bold"
         id="path917"
         inkscape:connector-curvature="0" />
      <path
         d="m 371.074,319.19478 0,0.22499 0.1173,0 0,0.22607 -0.1173,0 0,0.76434 q 0,0.1411 0.0141,0.15715 0.0159,0.0159 0.12171,0.0159 l 0,0.23038 -0.1755,0 q -0.14851,0 -0.21208,-0.0123 -0.0635,-0.0123 -0.112,-0.0571 -0.0485,-0.0451 -0.0603,-0.1023 -0.0124,-0.0582 -0.0124,-0.27129 l 0,-0.72559 -0.0937,0 0,-0.22606 0.0937,0 0,-0.22499 0.43643,9.1e-4 z"
         style="font-size:1.25px;font-style:normal;font-variant:normal;font-weight:bold;font-stretch:normal;line-height:125%;letter-spacing:0px;word-spacing:0px;fill:#4d4d4d;fill-opacity:1;stroke:none;font-family:Impact;-inkscape-font-specification:Impact Bold"
         id="path919"
         inkscape:connector-curvature="0" />
      <path
         d="m 372.28296,319.38533 0,1.42856 -0.44246,0 0.007,-0.11835 q -0.0452,0.0721 -0.112,0.10865 -0.0656,0.0354 -0.15186,0.0354 -0.0979,0 -0.16262,-0.0344 -0.0646,-0.0344 -0.0958,-0.0915 -0.0302,-0.0571 -0.0377,-0.11835 -0.007,-0.0624 -0.007,-0.24653 l 0,-0.96349 0.43492,0 0,0.97212 q 0,0.16685 0.009,0.19807 0.0106,0.0312 0.0559,0.0312 0.0485,0 0.057,-0.0323 0.009,-0.0323 0.009,-0.20777 l 0,-0.96134 0.43703,-3e-5 z"
         style="font-size:1.25px;font-style:normal;font-variant:normal;font-weight:bold;font-stretch:normal;line-height:125%;letter-spacing:0px;word-spacing:0px;fill:#4d4d4d;fill-opacity:1;stroke:none;font-family:Impact;-inkscape-font-specification:Impact Bold"
         id="path921"
         inkscape:connector-curvature="0" />
      <path
         d="m 373.32935,319.84178 -0.38539,0 0,-0.0776 q 0,-0.0991 -0.0123,-0.12488 -0.0106,-0.027 -0.0559,-0.027 -0.0367,0 -0.0548,0.0247 -0.0183,0.0236 -0.0183,0.0721 0,0.0656 0.009,0.0968 0.009,0.0302 0.0549,0.0667 0.0462,0.0365 0.18839,0.10654 0.18947,0.0926 0.24868,0.17444 0.0593,0.0818 0.0593,0.23792 0,0.17443 -0.0451,0.26374 -0.0452,0.0882 -0.15187,0.13669 -0.10547,0.0475 -0.25515,0.0475 -0.16579,0 -0.2842,-0.0517 -0.11729,-0.0517 -0.16138,-0.14005 -0.0441,-0.0882 -0.0441,-0.26698 l 0,-0.069 0.38541,0 0,0.0905 q 0,0.11518 0.0141,0.14957 0.0159,0.0344 0.0582,0.0344 0.0464,0 0.0646,-0.0226 0.0183,-0.0236 0.0183,-0.0979 0,-0.1023 -0.0236,-0.12805 -0.0247,-0.0259 -0.25298,-0.15292 -0.19162,-0.10759 -0.23362,-0.19485 -0.042,-0.0882 -0.042,-0.20885 0,-0.17109 0.0452,-0.2519 0.0451,-0.0818 0.15292,-0.12594 0.10865,-0.0441 0.2519,-0.0441 0.14216,0 0.24115,0.0367 0.10018,0.0355 0.15292,0.0947 0.0538,0.0593 0.0645,0.10988 0.0123,0.0506 0.0123,0.15822 l -6.7e-4,0.0832 z"
         style="font-size:1.25px;font-style:normal;font-variant:normal;font-weight:bold;font-stretch:normal;line-height:125%;letter-spacing:0px;word-spacing:0px;fill:#4d4d4d;fill-opacity:1;stroke:none;font-family:Impact;-inkscape-font-specification:Impact Bold"
         id="path923"
         inkscape:connector-curvature="0" />
      <path
         d="m 374.85588,319.07098 0,1.74291 -0.43492,0 0,-0.10335 q -0.0624,0.0645 -0.1314,0.0968 -0.069,0.0323 -0.14428,0.0323 -0.10124,0 -0.1755,-0.0527 -0.0743,-0.0538 -0.0958,-0.12382 -0.0205,-0.07 -0.0205,-0.22824 l 0,-0.66853 q 0,-0.16474 0.0205,-0.23359 0.0215,-0.069 0.0968,-0.12065 0.0753,-0.0527 0.17979,-0.0527 0.0808,0 0.14745,0.0291 0.0679,0.0291 0.12276,0.0871 l 0,-0.40477 0.43504,1.7e-4 z m -0.43492,0.67391 q 0,-0.0787 -0.0141,-0.10547 -0.0123,-0.027 -0.0527,-0.027 -0.0388,0 -0.0527,0.0247 -0.0123,0.0236 -0.0123,0.10759 l 0,0.69973 q 0,0.0871 0.0123,0.11517 0.0123,0.027 0.0496,0.027 0.042,0 0.0559,-0.0302 0.0141,-0.0312 0.0141,-0.15063 l 0,-0.66093 z"
         style="font-size:1.25px;font-style:normal;font-variant:normal;font-weight:bold;font-stretch:normal;line-height:125%;letter-spacing:0px;word-spacing:0px;fill:#4d4d4d;fill-opacity:1;stroke:none;font-family:Impact;-inkscape-font-specification:Impact Bold"
         id="path925"
         inkscape:connector-curvature="0" />
      <path
         d="m 375.45982,319.07098 0,0.22714 -0.44784,0 0,-0.22714 0.44784,0 z m 0,0.31435 0,1.42856 -0.44784,0 0,-1.42856 0.44784,0 z"
         style="font-size:1.25px;font-style:normal;font-variant:normal;font-weight:bold;font-stretch:normal;line-height:125%;letter-spacing:0px;word-spacing:0px;fill:#4d4d4d;fill-opacity:1;stroke:none;font-family:Impact;-inkscape-font-specification:Impact Bold"
         id="path927"
         inkscape:connector-curvature="0" />
      <path
         d="m 376.00346,319.93866 -0.408,0 0,-0.0958 q 0,-0.1658 0.0377,-0.25515 0.0388,-0.0905 0.15398,-0.15927 0.11518,-0.069 0.29928,-0.069 0.22069,0 0.33265,0.0787 0.112,0.0774 0.13458,0.19162 0.0226,0.11306 0.0226,0.46721 l 0,0.71698 -0.42308,0 0,-0.12699 q -0.0399,0.0764 -0.10336,0.11517 -0.0624,0.0377 -0.14957,0.0377 -0.11412,0 -0.20993,-0.0635 -0.0947,-0.0645 -0.0947,-0.28097 l 0,-0.11729 q 0,-0.16033 0.0506,-0.21854 0.0506,-0.0582 0.25083,-0.13563 0.21423,-0.084 0.22929,-0.11306 0.0159,-0.0291 0.0159,-0.11835 0,-0.112 -0.0176,-0.14534 -0.0159,-0.0344 -0.0548,-0.0344 -0.0441,0 -0.0549,0.0291 -0.0106,0.028 -0.0106,0.14745 l -8.4e-4,0.14922 z m 0.13775,0.19593 q -0.10442,0.0764 -0.1217,0.12805 -0.0159,0.0517 -0.0159,0.14851 0,0.11094 0.0141,0.14322 0.0159,0.0323 0.0582,0.0323 0.0409,0 0.0527,-0.0247 0.0123,-0.0258 0.0123,-0.13352 l 2.3e-4,-0.29384 z"
         style="font-size:1.25px;font-style:normal;font-variant:normal;font-weight:bold;font-stretch:normal;line-height:125%;letter-spacing:0px;word-spacing:0px;fill:#4d4d4d;fill-opacity:1;stroke:none;font-family:Impact;-inkscape-font-specification:Impact Bold"
         id="path929"
         inkscape:connector-curvature="0" />
      <path
         d="m 377.15536,319.38533 -0.007,0.13563 q 0.0506,-0.0808 0.12064,-0.12064 0.07,-0.0409 0.15928,-0.0409 0.17443,0 0.27451,0.16156 0.0549,-0.0808 0.12382,-0.12064 0.069,-0.0409 0.15292,-0.0409 0.11094,0 0.18301,0.0538 0.0732,0.0538 0.0937,0.13246 0.0205,0.0774 0.0205,0.25299 l 0,1.01518 -0.42201,0 0,-0.93121 q 0,-0.18301 -0.0123,-0.22607 -0.0123,-0.0441 -0.057,-0.0441 -0.0464,0 -0.0603,0.043 -0.0124,0.043 -0.0124,0.22714 l 0,0.93121 -0.42201,0 0,-0.90752 q 0,-0.20993 -0.0106,-0.25191 -0.009,-0.042 -0.0559,-0.042 -0.0291,0 -0.0496,0.0226 -0.0205,0.0215 -0.0226,0.0538 -0.002,0.0312 -0.002,0.13458 l 0,0.99043 -0.42201,0 0,-1.42857 0.42716,9e-5 z"
         style="font-size:1.25px;font-style:normal;font-variant:normal;font-weight:bold;font-stretch:normal;line-height:125%;letter-spacing:0px;word-spacing:0px;fill:#4d4d4d;fill-opacity:1;stroke:none;font-family:Impact;-inkscape-font-specification:Impact Bold"
         id="path931"
         inkscape:connector-curvature="0" />
      <path
         d="m 378.67973,320.47262 0,0.15609 q 0,0.12276 -0.0291,0.20132 -0.0291,0.0787 -0.10124,0.13352 -0.0711,0.0549 -0.16156,0.0732 l 0,-0.12488 q 0.0645,-0.0365 0.0732,-0.0979 l -0.0732,0 0,-0.34127 0.2919,-9e-5 z"
         style="font-size:1.25px;font-style:normal;font-variant:normal;font-weight:bold;font-stretch:normal;line-height:125%;letter-spacing:0px;word-spacing:0px;fill:#4d4d4d;fill-opacity:1;stroke:none;font-family:Impact;-inkscape-font-specification:Impact Bold"
         id="path933"
         inkscape:connector-curvature="0" />
      <path
         d="m 358.85426,322.14125 -0.007,0.13141 q 0.0475,-0.0785 0.11518,-0.11729 0.069,-0.0399 0.15821,-0.0399 0.112,0 0.18301,0.0527 0.0711,0.0527 0.0915,0.13352 0.0205,0.0797 0.0205,0.26699 l 0,1.00118 -0.43493,0 0,-0.98935 q 0,-0.14745 -0.009,-0.17978 -0.009,-0.0323 -0.0538,-0.0323 -0.0462,0 -0.058,0.0377 -0.0123,0.0367 -0.0123,0.19808 l 0,0.96566 -0.43492,0 0,-1.42857 0.4415,-1.8e-4 z"
         style="font-size:1.25px;font-style:normal;font-variant:normal;font-weight:bold;font-stretch:normal;line-height:125%;letter-spacing:0px;word-spacing:0px;fill:#4d4d4d;fill-opacity:1;stroke:none;font-family:Impact;-inkscape-font-specification:Impact Bold"
         id="path935"
         inkscape:connector-curvature="0" />
      <path
         d="m 360.55089,322.88083 -0.56304,0 0,0.30897 q 0,0.0968 0.0141,0.12487 0.0141,0.0281 0.0538,0.0281 0.0496,0 0.0656,-0.0367 0.0176,-0.0378 0.0176,-0.14428 l 0,-0.18839 0.41232,0 0,0.10548 q 0,0.13246 -0.0176,0.20345 -0.0159,0.0711 -0.0774,0.15186 -0.0614,0.0808 -0.15609,0.1217 -0.0937,0.0399 -0.23577,0.0399 -0.13775,0 -0.2433,-0.0399 -0.10547,-0.0399 -0.16474,-0.10865 -0.0582,-0.07 -0.0808,-0.15292 -0.0226,-0.084 -0.0226,-0.2433 l 0,-0.41662 q 0,-0.18732 0.0506,-0.29498 0.0506,-0.10865 0.16579,-0.16579 0.11518,-0.0582 0.26484,-0.0582 0.18301,0 0.30143,0.07 0.11941,0.069 0.16685,0.18409 0.0485,0.11412 0.0485,0.32189 l -1.6e-4,0.18945 z m -0.43599,-0.23254 0,-0.10441 q 0,-0.11095 -0.0123,-0.14322 -0.0124,-0.0323 -0.0485,-0.0323 -0.0452,0 -0.0559,0.028 -0.0106,0.027 -0.0106,0.14746 l 0,0.10441 0.12735,0 z"
         style="font-size:1.25px;font-style:normal;font-variant:normal;font-weight:bold;font-stretch:normal;line-height:125%;letter-spacing:0px;word-spacing:0px;fill:#4d4d4d;fill-opacity:1;stroke:none;font-family:Impact;-inkscape-font-specification:Impact Bold"
         id="path937"
         inkscape:connector-curvature="0" />
      <path
         d="m 361.65541,322.68059 -0.41017,0 0,-0.16474 q 0,-0.0861 -0.0141,-0.11623 -0.0141,-0.0312 -0.0517,-0.0312 -0.0377,0 -0.0506,0.027 -0.0123,0.027 -0.0123,0.12065 l 0,0.67391 q 0,0.0764 0.0194,0.11517 0.0194,0.0377 0.0571,0.0377 0.0441,0 0.0593,-0.0399 0.0159,-0.0399 0.0159,-0.15063 l 0,-0.17003 0.38756,0 q -10e-4,0.17126 -0.0124,0.2573 -0.0106,0.085 -0.0721,0.1755 -0.0603,0.0894 -0.15821,0.13563 -0.0979,0.0452 -0.24222,0.0452 -0.18409,0 -0.29175,-0.0624 -0.10759,-0.0635 -0.15292,-0.17654 -0.0441,-0.11412 -0.0441,-0.32297 l 0,-0.40585 q 0,-0.18193 0.0365,-0.27451 0.0367,-0.0926 0.15609,-0.16474 0.11941,-0.0732 0.29067,-0.0732 0.17003,0 0.29066,0.0721 0.12064,0.0721 0.16051,0.18193 0.039,0.10954 0.039,0.31084 z"
         style="font-size:1.25px;font-style:normal;font-variant:normal;font-weight:bold;font-stretch:normal;line-height:125%;letter-spacing:0px;word-spacing:0px;fill:#4d4d4d;fill-opacity:1;stroke:none;font-family:Impact;-inkscape-font-specification:Impact Bold"
         id="path939"
         inkscape:connector-curvature="0" />
      <path
         d="m 363.16041,321.82691 0,1.74291 -0.43492,0 0,-0.10336 q -0.0624,0.0646 -0.1314,0.0968 -0.069,0.0323 -0.14428,0.0323 -0.10124,0 -0.1755,-0.0527 -0.0743,-0.0538 -0.0958,-0.12382 -0.0205,-0.07 -0.0205,-0.22824 l 0,-0.66853 q 0,-0.16474 0.0205,-0.23359 0.0215,-0.069 0.0968,-0.12065 0.0753,-0.0527 0.17978,-0.0527 0.0808,0 0.14746,0.0291 0.0679,0.0291 0.12276,0.0871 l 0,-0.40478 0.43504,1.8e-4 z m -0.43492,0.67391 q 0,-0.0787 -0.0141,-0.10547 -0.0124,-0.027 -0.0527,-0.027 -0.0388,0 -0.0527,0.0247 -0.0123,0.0236 -0.0123,0.1076 l 0,0.69973 q 0,0.0871 0.0123,0.11517 0.0123,0.027 0.0496,0.027 0.042,0 0.0559,-0.0302 0.0141,-0.0312 0.0141,-0.15063 l 0,-0.66093 z"
         style="font-size:1.25px;font-style:normal;font-variant:normal;font-weight:bold;font-stretch:normal;line-height:125%;letter-spacing:0px;word-spacing:0px;fill:#4d4d4d;fill-opacity:1;stroke:none;font-family:Impact;-inkscape-font-specification:Impact Bold"
         id="path941"
         inkscape:connector-curvature="0" />
      <path
         d="m 363.76435,321.82691 0,0.22714 -0.44785,0 0,-0.22714 0.44785,0 z m 0,0.31434 0,1.42857 -0.44785,0 0,-1.42857 0.44785,0 z"
         style="font-size:1.25px;font-style:normal;font-variant:normal;font-weight:bold;font-stretch:normal;line-height:125%;letter-spacing:0px;word-spacing:0px;fill:#4d4d4d;fill-opacity:1;stroke:none;font-family:Impact;-inkscape-font-specification:Impact Bold"
         id="path943"
         inkscape:connector-curvature="0" />
      <path
         d="m 364.90762,322.14125 0,1.10022 q 0,0.22284 -0.0106,0.28851 -0.009,0.0645 -0.0721,0.13669 -0.0624,0.0732 -0.17444,0.11095 -0.11094,0.0388 -0.2799,0.0388 -0.20777,0 -0.33373,-0.0711 -0.12593,-0.07 -0.13034,-0.27667 l 0.42201,0 q 0,0.0947 0.069,0.0947 0.0496,0 0.0656,-0.0291 0.0159,-0.0291 0.0159,-0.1217 l 0,-0.10759 q -0.0559,0.0506 -0.11835,0.0764 -0.0614,0.0259 -0.12911,0.0259 -0.1173,0 -0.19377,-0.0474 -0.0753,-0.0474 -0.10336,-0.12382 -0.0281,-0.0774 -0.0281,-0.21962 l 0,-0.51888 q 0,-0.20347 0.0732,-0.29282 0.0732,-0.0894 0.22284,-0.0894 0.0818,0 0.14851,0.0333 0.0679,0.0333 0.12064,0.10018 l 0.0312,-0.10759 0.4049,5e-5 z m -0.43599,0.37894 q 0,-0.0979 -0.0124,-0.12488 -0.0106,-0.027 -0.0496,-0.027 -0.0378,0 -0.0538,0.0312 -0.0159,0.0302 -0.0159,0.12065 l 0,0.48014 q 0,0.0958 0.0123,0.12488 0.0123,0.028 0.0496,0.028 0.043,0 0.0559,-0.0344 0.0123,-0.0344 0.0123,-0.1561 l 10e-4,-0.44257 z"
         style="font-size:1.25px;font-style:normal;font-variant:normal;font-weight:bold;font-stretch:normal;line-height:125%;letter-spacing:0px;word-spacing:0px;fill:#4d4d4d;fill-opacity:1;stroke:none;font-family:Impact;-inkscape-font-specification:Impact Bold"
         id="path945"
         inkscape:connector-curvature="0" />
      <path
         d="m 365.50726,322.14125 -0.007,0.13141 q 0.0474,-0.0785 0.11518,-0.11729 0.069,-0.0399 0.15821,-0.0399 0.112,0 0.18301,0.0527 0.0711,0.0527 0.0915,0.13352 0.0205,0.0797 0.0205,0.26699 l 0,1.00118 -0.43491,0 0,-0.98935 q 0,-0.14745 -0.009,-0.17978 -0.009,-0.0323 -0.0538,-0.0323 -0.0464,0 -0.0582,0.0377 -0.0124,0.0367 -0.0124,0.19808 l 0,0.96566 -0.43492,0 0,-1.42857 0.44166,-1.8e-4 z"
         style="font-size:1.25px;font-style:normal;font-variant:normal;font-weight:bold;font-stretch:normal;line-height:125%;letter-spacing:0px;word-spacing:0px;fill:#4d4d4d;fill-opacity:1;stroke:none;font-family:Impact;-inkscape-font-specification:Impact Bold"
         id="path947"
         inkscape:connector-curvature="0" />
      <path
         d="m 366.66669,321.82691 0,0.22714 -0.44785,0 0,-0.22714 0.44785,0 z m 0,0.31434 0,1.42857 -0.44785,0 0,-1.42857 0.44785,0 z"
         style="font-size:1.25px;font-style:normal;font-variant:normal;font-weight:bold;font-stretch:normal;line-height:125%;letter-spacing:0px;word-spacing:0px;fill:#4d4d4d;fill-opacity:1;stroke:none;font-family:Impact;-inkscape-font-specification:Impact Bold"
         id="path949"
         inkscape:connector-curvature="0" />
      <path
         d="m 367.70985,322.59771 -0.38541,0 0,-0.0776 q 0,-0.0991 -0.0123,-0.12488 -0.0106,-0.027 -0.0559,-0.027 -0.0367,0 -0.0548,0.0247 -0.0183,0.0236 -0.0183,0.0721 0,0.0656 0.009,0.0968 0.009,0.0302 0.0549,0.0667 0.0464,0.0365 0.18841,0.10654 0.18946,0.0926 0.24867,0.17444 0.0593,0.0818 0.0593,0.23791 0,0.17444 -0.0452,0.26374 -0.0452,0.0882 -0.15186,0.1367 -0.10547,0.0474 -0.25513,0.0474 -0.1658,0 -0.2842,-0.0517 -0.11729,-0.0517 -0.16156,-0.14005 -0.0441,-0.0882 -0.0441,-0.26699 l 0,-0.069 0.38539,0 0,0.0905 q 0,0.11518 0.0141,0.14957 0.0159,0.0344 0.0582,0.0344 0.0462,0 0.0645,-0.0226 0.0183,-0.0236 0.0183,-0.0979 0,-0.1023 -0.0236,-0.12805 -0.0247,-0.0259 -0.25298,-0.15292 -0.19164,-0.10759 -0.23362,-0.19485 -0.042,-0.0882 -0.042,-0.20885 0,-0.17109 0.0452,-0.25191 0.0452,-0.0818 0.15292,-0.12593 0.10865,-0.0441 0.2519,-0.0441 0.14217,0 0.24115,0.0367 0.10018,0.0355 0.15292,0.0947 0.0538,0.0593 0.0646,0.10988 0.0123,0.0506 0.0123,0.15821 l -4.9e-4,0.0833 z"
         style="font-size:1.25px;font-style:normal;font-variant:normal;font-weight:bold;font-stretch:normal;line-height:125%;letter-spacing:0px;word-spacing:0px;fill:#4d4d4d;fill-opacity:1;stroke:none;font-family:Impact;-inkscape-font-specification:Impact Bold"
         id="path951"
         inkscape:connector-curvature="0" />
      <path
         d="m 368.74761,322.59771 -0.38539,0 0,-0.0776 q 0,-0.0991 -0.0123,-0.12488 -0.0106,-0.027 -0.0559,-0.027 -0.0367,0 -0.0549,0.0247 -0.0183,0.0236 -0.0183,0.0721 0,0.0656 0.009,0.0968 0.009,0.0302 0.0549,0.0667 0.0464,0.0365 0.18841,0.10654 0.18947,0.0926 0.24868,0.17444 0.0593,0.0818 0.0593,0.23791 0,0.17444 -0.0452,0.26374 -0.0452,0.0882 -0.15187,0.1367 -0.10547,0.0474 -0.25513,0.0474 -0.1658,0 -0.2842,-0.0517 -0.11729,-0.0517 -0.16156,-0.14005 -0.0441,-0.0882 -0.0441,-0.26699 l 0,-0.069 0.38539,0 0,0.0905 q 0,0.11518 0.0141,0.14957 0.0159,0.0344 0.0582,0.0344 0.0462,0 0.0645,-0.0226 0.0183,-0.0236 0.0183,-0.0979 0,-0.1023 -0.0236,-0.12805 -0.0247,-0.0259 -0.253,-0.15292 -0.19162,-0.10759 -0.2336,-0.19485 -0.042,-0.0882 -0.042,-0.20885 0,-0.17109 0.0451,-0.25191 0.0452,-0.0818 0.15292,-0.12593 0.10865,-0.0441 0.25191,-0.0441 0.14216,0 0.24114,0.0367 0.10018,0.0355 0.15292,0.0947 0.0538,0.0593 0.0646,0.10988 0.0123,0.0506 0.0123,0.15821 l -5.1e-4,0.0833 z"
         style="font-size:1.25px;font-style:normal;font-variant:normal;font-weight:bold;font-stretch:normal;line-height:125%;letter-spacing:0px;word-spacing:0px;fill:#4d4d4d;fill-opacity:1;stroke:none;font-family:Impact;-inkscape-font-specification:Impact Bold"
         id="path953"
         inkscape:connector-curvature="0" />
      <path
         d="m 369.3451,321.82691 0,0.22714 -0.44785,0 0,-0.22714 0.44785,0 z m 0,0.31434 0,1.42857 -0.44785,0 0,-1.42857 0.44785,0 z"
         style="font-size:1.25px;font-style:normal;font-variant:normal;font-weight:bold;font-stretch:normal;line-height:125%;letter-spacing:0px;word-spacing:0px;fill:#4d4d4d;fill-opacity:1;stroke:none;font-family:Impact;-inkscape-font-specification:Impact Bold"
         id="path955"
         inkscape:connector-curvature="0" />
      <path
         d="m 369.92965,322.14125 -0.007,0.13564 q 0.0506,-0.0808 0.12064,-0.12064 0.07,-0.0409 0.15927,-0.0409 0.17444,0 0.27452,0.16156 0.0548,-0.0808 0.12382,-0.12064 0.069,-0.0409 0.15292,-0.0409 0.11094,0 0.18301,0.0538 0.0732,0.0538 0.0937,0.13246 0.0205,0.0774 0.0205,0.25298 l 0,1.01519 -0.42201,0 0,-0.93121 q 0,-0.18301 -0.0123,-0.22607 -0.0124,-0.0441 -0.057,-0.0441 -0.0464,0 -0.0603,0.043 -0.0123,0.043 -0.0123,0.22714 l 0,0.93121 -0.42201,0 0,-0.90753 q 0,-0.20992 -0.0106,-0.2519 -0.009,-0.042 -0.0559,-0.042 -0.0291,0 -0.0496,0.0226 -0.0205,0.0215 -0.0226,0.0538 -0.002,0.0312 -0.002,0.13458 l 0,0.99042 -0.422,0 0,-1.42856 0.42715,8e-5 z"
         style="font-size:1.25px;font-style:normal;font-variant:normal;font-weight:bold;font-stretch:normal;line-height:125%;letter-spacing:0px;word-spacing:0px;fill:#4d4d4d;fill-opacity:1;stroke:none;font-family:Impact;-inkscape-font-specification:Impact Bold"
         id="path957"
         inkscape:connector-curvature="0" />
      <path
         d="m 372.04935,321.82691 0,0.22714 -0.44783,0 0,-0.22714 0.44783,0 z m 0,0.31434 0,1.13037 q 0,0.19915 -0.009,0.27021 -0.007,0.07 -0.0496,0.12276 -0.0409,0.0538 -0.11095,0.0797 -0.069,0.0258 -0.20777,0.0258 l -0.16792,0 0,-0.22822 q 0.0774,0 0.0871,-0.0176 0.009,-0.0176 0.009,-0.21531 l 0,-1.16803 0.44906,3.8e-4 z"
         style="font-size:1.25px;font-style:normal;font-variant:normal;font-weight:bold;font-stretch:normal;line-height:125%;letter-spacing:0px;word-spacing:0px;fill:#4d4d4d;fill-opacity:1;stroke:none;font-family:Impact;-inkscape-font-specification:Impact Bold"
         id="path959"
         inkscape:connector-curvature="0" />
      <path
         d="m 373.20017,322.14125 0,1.42857 -0.44247,0 0.007,-0.11835 q -0.0452,0.0721 -0.112,0.10865 -0.0656,0.0355 -0.15186,0.0355 -0.0979,0 -0.16263,-0.0344 -0.0645,-0.0344 -0.0958,-0.0915 -0.0302,-0.0572 -0.0377,-0.11835 -0.007,-0.0624 -0.007,-0.24653 l 0,-0.96349 0.43492,0 0,0.97212 q 0,0.16685 0.009,0.19807 0.0106,0.0312 0.0559,0.0312 0.0485,0 0.057,-0.0323 0.0106,-0.0323 0.0106,-0.20777 l 0,-0.96134 0.43527,-4e-5 z"
         style="font-size:1.25px;font-style:normal;font-variant:normal;font-weight:bold;font-stretch:normal;line-height:125%;letter-spacing:0px;word-spacing:0px;fill:#4d4d4d;fill-opacity:1;stroke:none;font-family:Impact;-inkscape-font-specification:Impact Bold"
         id="path961"
         inkscape:connector-curvature="0" />
      <path
         d="m 374.24656,322.59771 -0.38541,0 0,-0.0776 q 0,-0.0991 -0.0123,-0.12488 -0.0106,-0.027 -0.0559,-0.027 -0.0367,0 -0.0548,0.0247 -0.0183,0.0236 -0.0183,0.0721 0,0.0656 0.009,0.0968 0.009,0.0302 0.0548,0.0667 0.0462,0.0365 0.18839,0.10654 0.18947,0.0926 0.24868,0.17444 0.0593,0.0818 0.0593,0.23791 0,0.17444 -0.0451,0.26374 -0.0452,0.0882 -0.15186,0.1367 -0.10548,0.0474 -0.25516,0.0474 -0.16579,0 -0.2842,-0.0517 -0.11729,-0.0517 -0.16156,-0.14005 -0.0441,-0.0882 -0.0441,-0.26699 l 0,-0.069 0.3854,0 0,0.0905 q 0,0.11518 0.0141,0.14957 0.0159,0.0344 0.0582,0.0344 0.0464,0 0.0646,-0.0226 0.0183,-0.0236 0.0183,-0.0979 0,-0.1023 -0.0236,-0.12805 -0.0247,-0.0259 -0.25298,-0.15292 -0.19162,-0.10759 -0.23361,-0.19485 -0.042,-0.0882 -0.042,-0.20885 0,-0.17109 0.0451,-0.25191 0.0451,-0.0818 0.15292,-0.12593 0.10883,-0.0441 0.25192,-0.0441 0.14217,0 0.24115,0.0367 0.10018,0.0355 0.15292,0.0947 0.0538,0.0593 0.0646,0.10988 0.0123,0.0506 0.0123,0.15821 l -4.9e-4,0.0833 z"
         style="font-size:1.25px;font-style:normal;font-variant:normal;font-weight:bold;font-stretch:normal;line-height:125%;letter-spacing:0px;word-spacing:0px;fill:#4d4d4d;fill-opacity:1;stroke:none;font-family:Impact;-inkscape-font-specification:Impact Bold"
         id="path963"
         inkscape:connector-curvature="0" />
      <path
         d="m 374.8548,321.95071 0,0.22499 0.1173,0 0,0.22607 -0.1173,0 0,0.76434 q 0,0.1411 0.0141,0.15715 0.0159,0.0159 0.12171,0.0159 l 0,0.23038 -0.1755,0 q -0.14851,0 -0.21208,-0.0123 -0.0635,-0.0124 -0.112,-0.0572 -0.0485,-0.0451 -0.0603,-0.1023 -0.0124,-0.0582 -0.0124,-0.27129 l 0,-0.72559 -0.0937,0 0,-0.22607 0.0937,0 0,-0.22499 0.43643,9.2e-4 z"
         style="font-size:1.25px;font-style:normal;font-variant:normal;font-weight:bold;font-stretch:normal;line-height:125%;letter-spacing:0px;word-spacing:0px;fill:#4d4d4d;fill-opacity:1;stroke:none;font-family:Impact;-inkscape-font-specification:Impact Bold"
         id="path965"
         inkscape:connector-curvature="0" />
      <path
         d="m 376.05191,322.64291 0,0.34989 q 0,0.19269 -0.0194,0.28312 -0.0194,0.0894 -0.0829,0.16791 -0.0635,0.0774 -0.16368,0.11518 -0.0991,0.0367 -0.22822,0.0367 -0.14428,0 -0.24437,-0.0312 -0.10019,-0.0323 -0.1561,-0.0958 -0.0548,-0.0645 -0.0787,-0.15503 -0.0236,-0.0915 -0.0236,-0.27344 l 0,-0.36603 q 0,-0.19915 0.043,-0.31111 0.043,-0.112 0.15504,-0.17979 0.112,-0.0679 0.28635,-0.0679 0.14639,0 0.25083,0.0441 0.10547,0.043 0.16262,0.11306 0.057,0.07 0.0774,0.14428 0.0217,0.0743 0.0217,0.22608 z m -0.43492,-0.10759 q 0,-0.10988 -0.0123,-0.13775 -0.0123,-0.0291 -0.0506,-0.0291 -0.0388,0 -0.0517,0.0291 -0.0123,0.028 -0.0123,0.13775 l 0,0.64485 q 0,0.10124 0.0123,0.13246 0.0123,0.0302 0.0506,0.0302 0.0388,0 0.0506,-0.0281 0.0123,-0.028 0.0123,-0.12064 l 0.001,-0.65883 z"
         style="font-size:1.25px;font-style:normal;font-variant:normal;font-weight:bold;font-stretch:normal;line-height:125%;letter-spacing:0px;word-spacing:0px;fill:#4d4d4d;fill-opacity:1;stroke:none;font-family:Impact;-inkscape-font-specification:Impact Bold"
         id="path967"
         inkscape:connector-curvature="0" />
    </g>
    <path
       id="path902"
       d="m 60.238501,1007.3988 -17.382386,-17.56783 0.229917,14.79163 c 0.02633,1.6935 1.199874,3.0483 2.663099,3.0233 l 14.48937,-0.2471 z"
       style="fill:url(#linearGradient3038);fill-opacity:1;stroke:none"
       inkscape:connector-curvature="0" />
    <path
       inkscape:connector-curvature="0"
       style="fill:url(#linearGradient3020);fill-opacity:1;stroke:none"
       d="m -12.301,1044.6554 0,18.0152 c 0,2.5783 1.168922,4.6706 2.6533683,4.6706 l 67.2892747,0 c 1.484473,0 2.653357,-2.0923 2.653357,-4.6706 l 0,-18.0152 -72.596,0 z"
       id="path874" />
    <g
       id="g841"
       transform="matrix(2.4999142,0,0,2.4999142,-22.426671,-1558.871)">
      <path
         d="m 13.513532,1042.679 1.552734,0 q 0.629883,0 0.966797,0.099 0.340576,0.099 0.509033,0.2857 0.172119,0.1867 0.230713,0.4541 0.06226,0.2637 0.06226,0.8203 l 0,0.5163 q 0,0.5677 -0.117188,0.8277 -0.117187,0.26 -0.432129,0.3992 -0.311279,0.1391 -0.81665,0.1391 l -0.413818,0 0,2.3877 -1.541748,0 -4e-6,-5.9291 z m 1.541748,1.0144 0,1.5087 q 0.06592,0 0.113525,0 0.212402,0 0.292969,-0.1025 0.08423,-0.1062 0.08423,-0.4358 l 0,-0.4871 q 0,-0.3039 -0.09521,-0.3955 -0.09522,-0.088 -0.395514,-0.088 z"
         id="path2670"
         inkscape:connector-curvature="0"
         style="font-size:7.5px;font-style:normal;font-variant:normal;font-weight:bold;font-stretch:normal;line-height:125%;letter-spacing:0px;word-spacing:0px;fill:#ffffff;fill-opacity:1;stroke:none;font-family:Impact;-inkscape-font-specification:Impact Bold" />
      <path
         d="m 17.27818,1042.679 1.552734,0 q 0.629883,0 0.966797,0.099 0.340576,0.099 0.509033,0.2857 0.17212,0.1867 0.230713,0.4541 0.06226,0.2637 0.06226,0.8203 l 0,0.5163 q 0,0.5677 -0.117187,0.8277 -0.117188,0.26 -0.432129,0.3992 -0.31128,0.1391 -0.816651,0.1391 l -0.413818,0 0,2.3877 -1.541748,0 -4e-6,-5.9291 z m 1.541748,1.0144 0,1.5087 q 0.06592,0 0.113525,0 0.212403,0 0.292969,-0.1025 0.08423,-0.1062 0.08423,-0.4358 l 0,-0.4871 q 0,-0.3039 -0.09521,-0.3955 -0.09522,-0.088 -0.395514,-0.088 z"
         id="path2672"
         inkscape:connector-curvature="0"
         style="font-size:7.5px;font-style:normal;font-variant:normal;font-weight:bold;font-stretch:normal;line-height:125%;letter-spacing:0px;word-spacing:0px;fill:#ffffff;fill-opacity:1;stroke:none;font-family:Impact;-inkscape-font-specification:Impact Bold" />
      <path
         d="m 24.148297,1042.679 0,1.1865 -0.915527,0 0,4.7424 -1.541748,0 0,-4.7424 -0.911865,0 0,-1.1865 3.36914,0 z"
         id="path2674"
         inkscape:connector-curvature="0"
         style="font-size:7.5px;font-style:normal;font-variant:normal;font-weight:bold;font-stretch:normal;line-height:125%;letter-spacing:0px;word-spacing:0px;fill:#ffffff;fill-opacity:1;stroke:none;font-family:Impact;-inkscape-font-specification:Impact Bold" />
    </g>
  </g>
</svg>
