<?xml version="1.0" encoding="UTF-8" standalone="no"?>
<!-- Created with Inkscape (http://www.inkscape.org/) -->

<svg
   xmlns:dc="http://purl.org/dc/elements/1.1/"
   xmlns:cc="http://creativecommons.org/ns#"
   xmlns:rdf="http://www.w3.org/1999/02/22-rdf-syntax-ns#"
   xmlns:svg="http://www.w3.org/2000/svg"
   xmlns="http://www.w3.org/2000/svg"
   xmlns:xlink="http://www.w3.org/1999/xlink"
   xmlns:sodipodi="http://sodipodi.sourceforge.net/DTD/sodipodi-0.dtd"
   xmlns:inkscape="http://www.inkscape.org/namespaces/inkscape"
   width="80.001999"
   height="80.000214"
   id="svg4214"
   version="1.1"
   inkscape:version="0.48.3.1 r9886"
   sodipodi:docname="sourcecode.svg"
   inkscape:export-filename="/tmp/moodle-theme_anomalyred/pix_core/f/pdf-32.png"
   inkscape:export-xdpi="35.9991"
   inkscape:export-ydpi="35.9991"
   preserveAspectRatio="xMinYMid meet">
  <defs
     id="defs4216">
    <linearGradient
       id="linearGradient4790">
      <stop
         style="stop-color:#cd0000;stop-opacity:1;"
         offset="0"
         id="stop4792" />
      <stop
         style="stop-color:#ff0000;stop-opacity:1;"
         offset="1"
         id="stop4794" />
    </linearGradient>
    <linearGradient
       id="linearGradient6707-5">
      <stop
         id="stop6709-0"
         offset="0"
         style="stop-color:#000000;stop-opacity:1;" />
      <stop
         id="stop6711-5"
         offset="1"
         style="stop-color:#ffffff;stop-opacity:1;" />
    </linearGradient>
    <linearGradient
       inkscape:collect="always"
       xlink:href="#linearGradient4790"
       id="linearGradient4788"
       x1="25.253813"
       y1="1049.8368"
       x2="25.253813"
       y2="1003.8749"
       gradientUnits="userSpaceOnUse"
       gradientTransform="matrix(1.8104756,0,0,1.7482736,-19.451415,-770.83584)" />
    <linearGradient
       inkscape:collect="always"
       xlink:href="#linearGradient918-1"
       id="linearGradient912"
       x1="462.37933"
       y1="837.0611"
       x2="463.75925"
       y2="835.67212"
       gradientUnits="userSpaceOnUse"
       gradientTransform="matrix(1.8102357,-0.02946975,0.02946975,1.8102357,-812.8496,-500.88944)" />
    <linearGradient
       id="linearGradient918-1">
      <stop
         id="stop920-5"
         offset="0"
         style="stop-color:#f6f6f6;stop-opacity:1" />
      <stop
         id="stop922-7"
         offset="1"
         style="stop-color:#e2e2e2;stop-opacity:1" />
    </linearGradient>
    <linearGradient
       inkscape:collect="always"
       xlink:href="#linearGradient6707"
       id="linearGradient3077"
       gradientUnits="userSpaceOnUse"
       gradientTransform="matrix(1.8114204,0,0,2.6689195,-211.88361,-765.76882)"
       x1="262.01361"
       y1="471.95245"
       x2="262.01361"
       y2="442.7843" />
    <linearGradient
       id="linearGradient6707">
      <stop
         id="stop6709"
         offset="0"
         style="stop-color:#000000;stop-opacity:1;" />
      <stop
         id="stop6711"
         offset="1"
         style="stop-color:#ffffff;stop-opacity:1;" />
    </linearGradient>
    <linearGradient
       inkscape:collect="always"
       xlink:href="#linearGradient6707"
       id="linearGradient3806"
       gradientUnits="userSpaceOnUse"
       gradientTransform="matrix(1.8114204,0,0,2.6689195,-448.9685,-185.20458)"
       x1="262.01361"
       y1="471.95245"
       x2="262.01361"
       y2="442.7843" />
    <linearGradient
       inkscape:collect="always"
       xlink:href="#linearGradient4790"
       id="linearGradient3795"
       gradientUnits="userSpaceOnUse"
       gradientTransform="matrix(1.8104756,0,0,1.7482736,-19.451415,-770.83584)"
       x1="25.253813"
       y1="1049.8368"
       x2="25.253813"
       y2="1003.8749" />
    <linearGradient
       inkscape:collect="always"
       xlink:href="#linearGradient918-1"
       id="linearGradient3797"
       gradientUnits="userSpaceOnUse"
       gradientTransform="matrix(1.8102357,-0.02946975,0.02946975,1.8102357,-812.8496,-500.88944)"
       x1="462.37933"
       y1="837.0611"
       x2="463.75925"
       y2="835.67212" />
    <linearGradient
       inkscape:collect="always"
       xlink:href="#linearGradient6707"
       id="linearGradient3799"
       gradientUnits="userSpaceOnUse"
       gradientTransform="matrix(1.8114204,0,0,2.6689195,-448.9685,-185.20458)"
       x1="262.01361"
       y1="471.95245"
       x2="262.01361"
       y2="442.7843" />
    <linearGradient
       inkscape:collect="always"
       xlink:href="#linearGradient6707"
       id="linearGradient3020"
       gradientUnits="userSpaceOnUse"
       gradientTransform="matrix(1.698152,0,0,2.6689195,-419.41556,-185.20458)"
       x1="262.01361"
       y1="471.95245"
       x2="262.01361"
       y2="442.7843" />
    <linearGradient
       inkscape:collect="always"
       xlink:href="#linearGradient918-1"
       id="linearGradient3023"
       gradientUnits="userSpaceOnUse"
       gradientTransform="matrix(1.6226917,-0.02781917,0.02641663,1.7088458,-724.59467,-416.89522)"
       x1="462.37933"
       y1="837.0611"
       x2="463.75925"
       y2="835.67212" />
    <linearGradient
       inkscape:collect="always"
       xlink:href="#linearGradient918-1"
       id="linearGradient3790"
       gradientUnits="userSpaceOnUse"
       gradientTransform="matrix(1.6226917,-0.02781917,0.02641663,1.7088458,-724.59467,-416.89522)"
       x1="462.37933"
       y1="837.0611"
       x2="463.75925"
       y2="835.67212" />
  </defs>
  <sodipodi:namedview
     id="base"
     pagecolor="#ffffff"
     bordercolor="#666666"
     borderopacity="1.0"
     inkscape:pageopacity="0.0"
     inkscape:pageshadow="2"
     inkscape:zoom="5.5999999"
     inkscape:cx="63.792249"
     inkscape:cy="25.970261"
     inkscape:document-units="px"
     inkscape:current-layer="layer1"
     showgrid="true"
     width="0px"
     height="0px"
     fit-margin-top="0"
     fit-margin-left="0.51"
     fit-margin-right="0.51"
     fit-margin-bottom="0"
     inkscape:window-width="1881"
     inkscape:window-height="1029"
     inkscape:window-x="0"
     inkscape:window-y="26"
     inkscape:window-maximized="1">
    <inkscape:grid
       type="xygrid"
       id="grid3016" />
  </sodipodi:namedview>
  <metadata
     id="metadata4219">
    <rdf:RDF>
      <cc:Work
         rdf:about="">
        <dc:format>image/svg+xml</dc:format>
        <dc:type
           rdf:resource="http://purl.org/dc/dcmitype/StillImage" />
        <dc:title></dc:title>
      </cc:Work>
    </rdf:RDF>
  </metadata>
  <g
     inkscape:label="Capa 1"
     inkscape:groupmode="layer"
     id="layer1"
     transform="translate(16.001,-988.36209)">
    <path
       style="opacity:0.7;fill:#000000;fill-opacity:1;stroke:none"
       d="m -10.706304,988.36209 c -1.541983,0 -2.793696,1.48695 -2.793696,3.28149 l 0,73.43722 c 0,1.7946 1.251713,3.2815 2.793696,3.2815 l 69.412608,0 c 1.542,0 2.793696,-1.4869 2.793696,-3.2815 l 0,-57.935 -17.890401,-18.78371 -54.315903,0 z"
       id="rect3922-2"
       inkscape:connector-curvature="0" />
    <path
       style="fill:#ff0000;fill-opacity:1;stroke:none"
       d="m -9.5982928,989.89242 c -1.4824112,0 -2.6497072,1.35217 -2.6497072,3.01786 l 0,68.22532 c 0,1.6658 1.167296,3.0178 2.6497072,3.0178 l 67.1965858,0 c 1.482411,0 2.649707,-1.3518 2.649707,-3.0178 l 0,-53.0821 -17.912024,-18.16108 -51.9342688,0 z"
       id="path869"
       inkscape:connector-curvature="0" />
    <g
       style="font-size:17.99625015px;font-style:normal;font-variant:normal;font-weight:bold;font-stretch:normal;line-height:125%;letter-spacing:0px;word-spacing:0px;fill:#ffffff;fill-opacity:1;stroke:none;font-family:Anonymous;-inkscape-font-specification:Anonymous Bold"
       id="text1179"
       transform="matrix(2.0066276,0,0,2.0066276,-1352.0731,-325.88042)">
      <path
         d="m 680.79993,670.47494 -5.49703,5.48067 -0.83437,-0.85073 4.6463,-4.62994 -4.6463,-4.64631 0.83437,-0.85073 5.49703,5.49704 z"
         id="path870"
         inkscape:connector-curvature="0" />
      <path
         d="m 696.96,677.46075 -12.0084,0 0,-1.19429 12.0084,0 0,1.19429 z"
         id="path872"
         inkscape:connector-curvature="0" />
    </g>
    <g
       id="g1202"
       transform="matrix(2.6240742,0,0,2.6240742,-519.89751,690.34602)">
      <g
         style="fill:#ffffff"
         transform="matrix(0.11299348,0,0,0.11299348,191.7182,114.81305)"
         id="g2313">
        <g
           style="fill:#ffffff"
           id="g2155">
          <g
             style="fill:#ffffff"
             id="g2099">
            <path
               id="path1242-3"
               d="m 184.658,7.218 c 0,-0.496 0.095,-0.875 0.284,-1.137 0.189,-0.262 0.423,-0.447 0.7,-0.557 l 0.287,0.445 c -0.438,0.188 -0.658,0.604 -0.662,1.248 l 0.592,0 0,1.443 -1.201,0 0,-1.442 z m 2.362,0 c 0,-0.496 0.095,-0.875 0.284,-1.137 0.189,-0.262 0.423,-0.447 0.7,-0.557 l 0.287,0.445 c -0.438,0.188 -0.656,0.604 -0.656,1.248 l 0.586,0 0,1.443 -1.201,0 0,-1.442 z"
               inkscape:connector-curvature="0"
               style="fill:#ffffff" />
            <path
               id="path1244-4"
               d="m 195.422,9.386 0,0.984 -3.721,0 0,-0.984 3.721,0 z"
               inkscape:connector-curvature="0"
               style="fill:#ffffff" />
            <path
               id="path1246-0"
               d="m 202.43,5.525 -2.484,8.877 -0.85,0 2.484,-8.877 0.85,0 z"
               inkscape:connector-curvature="0"
               style="fill:#ffffff" />
            <path
               id="path1248-2"
               d="m 209.631,5.525 -2.484,8.877 -0.85,0 2.484,-8.877 0.85,0 z"
               inkscape:connector-curvature="0"
               style="fill:#ffffff" />
            <path
               id="path1324-6"
               d="m 189.182,55.985 -5.689,-2.426 0,-0.984 5.689,-2.402 0,1.049 -4.512,1.846 4.512,1.869 0,1.048 z"
               inkscape:connector-curvature="0"
               style="fill:#ffffff" />
            <path
               id="path1326-1"
               d="m 195.229,48.725 -2.484,8.877 -0.85,0 2.484,-8.877 0.85,0 z"
               inkscape:connector-curvature="0"
               style="fill:#ffffff" />
            <path
               id="path1328-5"
               d="m 203.232,57.157 c -0.348,0.16 -0.871,0.24 -1.57,0.24 -0.684,0 -1.211,-0.176 -1.582,-0.527 -0.371,-0.351 -0.557,-0.832 -0.557,-1.441 l 0,-3.516 -1.547,0 0,-0.814 1.547,0 0,-1.547 1.061,-0.639 0,2.186 2.191,0 0,0.814 -2.191,0 0,3.434 c 0,0.371 0.102,0.654 0.305,0.85 0.203,0.196 0.488,0.293 0.855,0.293 0.48,0 0.926,-0.072 1.336,-0.217 l 0.152,0.884 z"
               inkscape:connector-curvature="0"
               style="fill:#ffffff" />
            <path
               id="path1330-7"
               d="m 208.746,57.315 -1.061,0 0,-5.402 -2.051,0 0,-0.814 3.111,0 0,6.216 z m 0.059,-7.272 -1.178,0 0,-1.318 1.178,0 0,1.318 z"
               inkscape:connector-curvature="0"
               style="fill:#ffffff" />
            <path
               id="path1332-5"
               d="m 217.635,57.157 c -0.348,0.16 -0.871,0.24 -1.57,0.24 -0.684,0 -1.211,-0.176 -1.582,-0.527 -0.371,-0.351 -0.557,-0.832 -0.557,-1.441 l 0,-3.516 -1.547,0 0,-0.814 1.547,0 0,-1.547 1.061,-0.639 0,2.186 2.191,0 0,0.814 -2.191,0 0,3.434 c 0,0.371 0.102,0.654 0.305,0.85 0.203,0.196 0.488,0.293 0.855,0.293 0.48,0 0.926,-0.072 1.336,-0.217 l 0.152,0.884 z"
               inkscape:connector-curvature="0"
               style="fill:#ffffff" />
            <path
               id="path1334-3"
               d="m 223.061,57.315 -1.055,0 0,-7.775 -2.051,0 0,-0.814 3.105,0 0,8.589 z"
               inkscape:connector-curvature="0"
               style="fill:#ffffff" />
            <path
               id="path1336-5"
               d="m 232.494,54.473 -4.658,0 c 0.047,0.688 0.245,1.213 0.595,1.576 0.35,0.363 0.784,0.545 1.304,0.545 0.805,0 1.354,-0.428 1.646,-1.283 l 1.078,0.135 c -0.176,0.648 -0.498,1.146 -0.967,1.494 -0.469,0.348 -1.055,0.521 -1.758,0.521 -0.934,0 -1.663,-0.286 -2.188,-0.858 -0.525,-0.572 -0.788,-1.354 -0.788,-2.347 0,-1 0.261,-1.8 0.782,-2.399 0.521,-0.599 1.233,-0.899 2.136,-0.899 0.855,0 1.539,0.284 2.051,0.853 0.512,0.569 0.768,1.411 0.768,2.528 l 0,0.134 z m -1.078,-0.867 c -0.047,-0.633 -0.244,-1.089 -0.592,-1.368 -0.348,-0.279 -0.73,-0.419 -1.148,-0.419 -0.496,0 -0.904,0.166 -1.225,0.498 -0.321,0.332 -0.504,0.762 -0.551,1.289 l 3.516,0 z"
               inkscape:connector-curvature="0"
               style="fill:#ffffff" />
            <path
               id="path1338-9"
               d="m 233.947,55.985 0,-1.049 4.512,-1.869 -4.512,-1.846 0,-1.049 5.689,2.402 0,0.984 -5.689,2.427 z"
               inkscape:connector-curvature="0"
               style="fill:#ffffff" />
            <path
               id="path1366-0"
               d="m 189.311,66.23 -0.621,0.791 c -0.352,-0.473 -0.863,-0.709 -1.535,-0.709 -0.484,0 -0.89,0.187 -1.216,0.56 -0.326,0.373 -0.489,0.815 -0.489,1.327 l 0,3.516 -1.055,0 0,-4.453 c 0,-0.621 -0.16,-1.105 -0.48,-1.453 l 0.896,-0.451 c 0.309,0.344 0.48,0.723 0.516,1.137 l 0.023,0 c 0.215,-0.336 0.499,-0.609 0.853,-0.82 0.354,-0.211 0.71,-0.316 1.069,-0.316 0.843,-0.002 1.523,0.289 2.039,0.871 z"
               inkscape:connector-curvature="0"
               style="fill:#ffffff" />
            <path
               id="path1368-3"
               d="m 196.488,68.873 -4.658,0 c 0.047,0.688 0.245,1.213 0.595,1.576 0.35,0.363 0.784,0.545 1.304,0.545 0.805,0 1.354,-0.428 1.646,-1.283 l 1.078,0.135 c -0.176,0.648 -0.498,1.146 -0.967,1.494 -0.469,0.348 -1.055,0.521 -1.758,0.521 -0.934,0 -1.663,-0.286 -2.188,-0.858 -0.525,-0.572 -0.788,-1.354 -0.788,-2.347 0,-1 0.261,-1.8 0.782,-2.399 0.521,-0.599 1.233,-0.899 2.136,-0.899 0.855,0 1.539,0.284 2.051,0.853 0.512,0.569 0.768,1.411 0.768,2.528 l 0,0.134 z m -1.078,-0.867 c -0.047,-0.633 -0.244,-1.089 -0.592,-1.368 -0.348,-0.279 -0.73,-0.419 -1.148,-0.419 -0.496,0 -0.904,0.166 -1.225,0.498 -0.321,0.332 -0.504,0.762 -0.551,1.289 l 3.516,0 z"
               inkscape:connector-curvature="0"
               style="fill:#ffffff" />
            <path
               id="path1370-1"
               d="m 203.689,68.873 -4.658,0 c 0.047,0.688 0.245,1.213 0.595,1.576 0.35,0.363 0.784,0.545 1.304,0.545 0.805,0 1.354,-0.428 1.646,-1.283 l 1.078,0.135 c -0.176,0.648 -0.498,1.146 -0.967,1.494 -0.469,0.348 -1.055,0.521 -1.758,0.521 -0.934,0 -1.663,-0.286 -2.188,-0.858 -0.525,-0.572 -0.788,-1.354 -0.788,-2.347 0,-1 0.261,-1.8 0.782,-2.399 0.521,-0.599 1.233,-0.899 2.136,-0.899 0.855,0 1.539,0.284 2.051,0.853 0.512,0.569 0.768,1.411 0.768,2.528 l 0,0.134 z m -1.078,-0.867 c -0.047,-0.633 -0.244,-1.089 -0.592,-1.368 -0.348,-0.279 -0.73,-0.419 -1.148,-0.419 -0.496,0 -0.904,0.166 -1.225,0.498 -0.321,0.332 -0.504,0.762 -0.551,1.289 l 3.516,0 z"
               inkscape:connector-curvature="0"
               style="fill:#ffffff" />
            <path
               id="path1372-9"
               d="m 210.51,71.715 -1.061,0 0,-3.779 c 0,-0.637 -0.114,-1.074 -0.343,-1.313 -0.229,-0.239 -0.546,-0.357 -0.952,-0.357 -0.523,0 -0.933,0.188 -1.228,0.565 -0.295,0.377 -0.442,0.872 -0.442,1.485 l 0,3.398 -1.055,0 0,-6.217 0.949,0 0,0.879 0.023,0 c 0.449,-0.68 1.105,-1.02 1.969,-1.02 0.328,0 0.652,0.059 0.973,0.176 0.321,0.117 0.571,0.293 0.753,0.527 0.182,0.234 0.296,0.484 0.343,0.75 0.047,0.266 0.07,0.625 0.07,1.078 l 0,3.828 z"
               inkscape:connector-curvature="0"
               style="fill:#ffffff" />
            <path
               id="path1374-5"
               d="m 215.883,69.986 0,1.729 -1.436,0 0,-1.729 1.436,0 z"
               inkscape:connector-curvature="0"
               style="fill:#ffffff" />
            <path
               id="path1376-7"
               d="m 225.223,69.564 c -0.109,0.723 -0.415,1.286 -0.917,1.69 -0.502,0.404 -1.101,0.606 -1.796,0.606 -0.906,0 -1.625,-0.292 -2.156,-0.876 -0.531,-0.584 -0.797,-1.372 -0.797,-2.364 0,-1.051 0.271,-1.857 0.814,-2.42 0.543,-0.563 1.256,-0.844 2.139,-0.844 0.711,0 1.3,0.178 1.767,0.533 0.467,0.355 0.745,0.832 0.835,1.43 l -1.02,0.158 c -0.207,-0.84 -0.719,-1.26 -1.535,-1.26 -0.625,0 -1.102,0.214 -1.43,0.642 -0.328,0.428 -0.492,1.007 -0.492,1.737 0,0.691 0.163,1.264 0.489,1.717 0.326,0.453 0.784,0.68 1.374,0.68 0.477,0 0.86,-0.14 1.151,-0.419 0.291,-0.279 0.468,-0.659 0.53,-1.14 l 1.044,0.13 z"
               inkscape:connector-curvature="0"
               style="fill:#ffffff" />
            <path
               id="path1378-0"
               d="m 230.865,67.238 c -0.098,-0.68 -0.555,-1.02 -1.371,-1.02 -0.398,0 -0.722,0.068 -0.97,0.205 -0.248,0.137 -0.372,0.336 -0.372,0.598 0,0.246 0.099,0.422 0.296,0.527 0.197,0.105 0.587,0.234 1.169,0.387 0.652,0.168 1.142,0.316 1.468,0.445 0.326,0.129 0.581,0.31 0.765,0.542 0.184,0.232 0.275,0.556 0.275,0.97 0,0.555 -0.228,1.021 -0.683,1.4 -0.455,0.379 -1.06,0.568 -1.813,0.568 -1.574,0 -2.463,-0.668 -2.666,-2.004 l 1.043,-0.158 c 0.113,0.863 0.65,1.295 1.611,1.295 0.457,0 0.809,-0.097 1.055,-0.29 0.246,-0.193 0.369,-0.429 0.369,-0.706 0,-0.188 -0.057,-0.338 -0.17,-0.451 -0.113,-0.113 -0.254,-0.198 -0.422,-0.255 -0.168,-0.057 -0.551,-0.157 -1.148,-0.302 -0.883,-0.211 -1.465,-0.467 -1.746,-0.768 -0.281,-0.301 -0.422,-0.66 -0.422,-1.078 0,-0.52 0.206,-0.947 0.618,-1.283 0.412,-0.336 0.97,-0.504 1.673,-0.504 1.48,0 2.305,0.58 2.473,1.74 l -1.032,0.142 z"
               inkscape:connector-curvature="0"
               style="fill:#ffffff" />
            <path
               id="path1380-3"
               d="m 238.066,67.238 c -0.098,-0.68 -0.555,-1.02 -1.371,-1.02 -0.398,0 -0.722,0.068 -0.97,0.205 -0.248,0.137 -0.372,0.336 -0.372,0.598 0,0.246 0.099,0.422 0.296,0.527 0.197,0.105 0.587,0.234 1.169,0.387 0.652,0.168 1.142,0.316 1.468,0.445 0.326,0.129 0.581,0.31 0.765,0.542 0.184,0.232 0.275,0.556 0.275,0.97 0,0.555 -0.228,1.021 -0.683,1.4 -0.455,0.379 -1.06,0.568 -1.813,0.568 -1.574,0 -2.463,-0.668 -2.666,-2.004 l 1.043,-0.158 c 0.113,0.863 0.65,1.295 1.611,1.295 0.457,0 0.809,-0.097 1.055,-0.29 0.246,-0.193 0.369,-0.429 0.369,-0.706 0,-0.188 -0.057,-0.338 -0.17,-0.451 -0.113,-0.113 -0.254,-0.198 -0.422,-0.255 -0.168,-0.057 -0.551,-0.157 -1.148,-0.302 -0.883,-0.211 -1.465,-0.467 -1.746,-0.768 -0.281,-0.301 -0.422,-0.66 -0.422,-1.078 0,-0.52 0.206,-0.947 0.618,-1.283 0.412,-0.336 0.97,-0.504 1.673,-0.504 1.48,0 2.305,0.58 2.473,1.74 l -1.032,0.142 z"
               inkscape:connector-curvature="0"
               style="fill:#ffffff" />
            <path
               id="path1382-5"
               d="m 243.311,64.566 c 0,0.496 -0.095,0.875 -0.284,1.137 -0.189,0.262 -0.423,0.447 -0.7,0.557 l -0.287,-0.445 c 0.438,-0.188 0.656,-0.604 0.656,-1.248 l -0.586,0 0,-1.441 1.201,0 0,1.44 z m 2.361,0 c 0,0.496 -0.095,0.875 -0.284,1.137 -0.189,0.262 -0.423,0.447 -0.7,0.557 l -0.287,-0.445 c 0.438,-0.188 0.658,-0.604 0.662,-1.248 l -0.592,0 0,-1.441 1.201,0 0,1.44 z"
               inkscape:connector-curvature="0"
               style="fill:#ffffff" />
            <path
               id="path1392-8"
               d="m 286.518,64.566 c 0,0.496 -0.095,0.875 -0.284,1.137 -0.189,0.262 -0.423,0.447 -0.7,0.557 l -0.287,-0.445 c 0.438,-0.188 0.656,-0.604 0.656,-1.248 l -0.586,0 0,-1.441 1.201,0 0,1.44 z m 2.361,0 c 0,0.496 -0.095,0.875 -0.284,1.137 -0.189,0.262 -0.423,0.447 -0.7,0.557 l -0.287,-0.445 c 0.438,-0.188 0.658,-0.604 0.662,-1.248 l -0.592,0 0,-1.441 1.201,0 0,1.44 z"
               inkscape:connector-curvature="0"
               style="fill:#ffffff" />
          </g>
          <g
             style="fill:#ffffff"
             id="g2141">
            <path
               id="path1452-1"
               d="m 185.701,122.167 c 0,0.496 -0.095,0.875 -0.284,1.137 -0.189,0.262 -0.423,0.447 -0.7,0.557 l -0.287,-0.445 c 0.438,-0.188 0.656,-0.604 0.656,-1.248 l -0.586,0 0,-1.441 1.201,0 0,1.44 z m 2.362,0 c 0,0.496 -0.095,0.875 -0.284,1.137 -0.189,0.262 -0.423,0.447 -0.7,0.557 l -0.287,-0.445 c 0.438,-0.188 0.658,-0.604 0.662,-1.248 l -0.592,0 0,-1.441 1.201,0 0,1.44 z"
               inkscape:connector-curvature="0"
               style="fill:#ffffff" />
            <path
               id="path1454-8"
               d="m 190.74,127.985 0,-1.049 4.512,-1.869 -4.512,-1.846 0,-1.049 5.689,2.402 0,0.984 -5.689,2.427 z"
               inkscape:connector-curvature="0"
               style="fill:#ffffff" />
            <path
               style="fill:#ffffff"
               id="path1456-9"
               d="m 203.402,129.315 -1.143,0 0,-4.043 -3,0 0,4.043 -1.137,0 0,-8.59 1.137,0 0,3.527 3,0 0,-3.527 1.143,0 0,8.59 z"
               inkscape:connector-curvature="0" />
            <path
               style="fill:#ffffff"
               id="path1458-4"
               d="m 210.891,126.473 -4.658,0 c 0.047,0.688 0.245,1.213 0.595,1.576 0.35,0.363 0.784,0.545 1.304,0.545 0.805,0 1.354,-0.428 1.646,-1.283 l 1.078,0.135 c -0.176,0.648 -0.498,1.146 -0.967,1.494 -0.469,0.348 -1.055,0.521 -1.758,0.521 -0.934,0 -1.663,-0.286 -2.188,-0.858 -0.525,-0.572 -0.788,-1.354 -0.788,-2.347 0,-1 0.261,-1.8 0.782,-2.399 0.521,-0.599 1.233,-0.899 2.136,-0.899 0.855,0 1.539,0.284 2.051,0.853 0.512,0.569 0.768,1.411 0.768,2.528 l 0,0.134 z m -1.078,-0.867 c -0.047,-0.633 -0.244,-1.089 -0.592,-1.368 -0.348,-0.279 -0.73,-0.419 -1.148,-0.419 -0.496,0 -0.904,0.166 -1.225,0.498 -0.321,0.332 -0.504,0.762 -0.551,1.289 l 3.516,0 z"
               inkscape:connector-curvature="0" />
            <path
               style="fill:#ffffff"
               id="path1460-3"
               d="m 218.08,129.315 -1.102,0 c -0.105,-0.195 -0.178,-0.451 -0.217,-0.768 -0.711,0.609 -1.475,0.914 -2.291,0.914 -0.656,0 -1.175,-0.164 -1.556,-0.492 -0.381,-0.328 -0.571,-0.762 -0.571,-1.301 0,-0.516 0.183,-0.94 0.548,-1.274 0.365,-0.334 0.999,-0.556 1.901,-0.665 l 0.984,-0.146 c 0.371,-0.059 0.674,-0.131 0.908,-0.217 0,-0.316 -0.009,-0.54 -0.026,-0.671 -0.017,-0.131 -0.074,-0.267 -0.17,-0.407 -0.096,-0.14 -0.25,-0.254 -0.463,-0.34 -0.213,-0.086 -0.497,-0.129 -0.853,-0.129 -0.453,0 -0.812,0.084 -1.075,0.252 -0.263,0.168 -0.444,0.48 -0.542,0.938 l -1.031,-0.135 c 0.234,-1.277 1.17,-1.916 2.807,-1.916 0.746,0 1.295,0.11 1.646,0.331 0.351,0.221 0.567,0.487 0.647,0.8 0.08,0.313 0.12,0.715 0.12,1.207 l 0,1.418 c 0,0.863 0.016,1.442 0.047,1.737 0.031,0.295 0.129,0.583 0.289,0.864 z m -1.394,-2.736 0,-0.381 c -0.551,0.184 -1.224,0.329 -2.019,0.437 -0.795,0.108 -1.192,0.444 -1.192,1.011 0,0.285 0.107,0.521 0.322,0.706 0.215,0.185 0.523,0.278 0.926,0.278 0.52,0 0.977,-0.155 1.371,-0.466 0.394,-0.311 0.592,-0.839 0.592,-1.585 z"
               inkscape:connector-curvature="0" />
            <path
               style="fill:#ffffff"
               id="path1462-4"
               d="m 224.871,129.315 -0.984,0 0,-0.791 -0.023,0 c -0.379,0.625 -0.949,0.938 -1.711,0.938 -0.762,0 -1.398,-0.302 -1.91,-0.905 -0.512,-0.603 -0.768,-1.386 -0.768,-2.347 0,-1.004 0.24,-1.797 0.721,-2.379 0.481,-0.582 1.115,-0.873 1.904,-0.873 0.742,0 1.307,0.283 1.693,0.85 l 0.023,0 0,-3.082 1.055,0 0,8.589 z m -2.613,-0.721 c 0.461,0 0.853,-0.189 1.175,-0.568 0.322,-0.379 0.483,-0.953 0.483,-1.723 0,-0.758 -0.147,-1.361 -0.442,-1.811 -0.295,-0.45 -0.716,-0.674 -1.263,-0.674 -0.543,0 -0.955,0.22 -1.236,0.659 -0.281,0.439 -0.422,1.017 -0.422,1.731 0,0.785 0.166,1.379 0.498,1.781 0.332,0.402 0.734,0.605 1.207,0.605 z"
               inkscape:connector-curvature="0" />
            <path
               style="fill:#ffffff"
               id="path1464-6"
               d="m 232.494,126.473 -4.658,0 c 0.047,0.688 0.245,1.213 0.595,1.576 0.35,0.363 0.784,0.545 1.304,0.545 0.805,0 1.354,-0.428 1.646,-1.283 l 1.078,0.135 c -0.176,0.648 -0.498,1.146 -0.967,1.494 -0.469,0.348 -1.055,0.521 -1.758,0.521 -0.934,0 -1.663,-0.286 -2.188,-0.858 -0.525,-0.572 -0.788,-1.354 -0.788,-2.347 0,-1 0.261,-1.8 0.782,-2.399 0.521,-0.599 1.233,-0.899 2.136,-0.899 0.855,0 1.539,0.284 2.051,0.853 0.512,0.569 0.768,1.411 0.768,2.528 l 0,0.134 z m -1.078,-0.867 c -0.047,-0.633 -0.244,-1.089 -0.592,-1.368 -0.348,-0.279 -0.73,-0.419 -1.148,-0.419 -0.496,0 -0.904,0.166 -1.225,0.498 -0.321,0.332 -0.504,0.762 -0.551,1.289 l 3.516,0 z"
               inkscape:connector-curvature="0" />
            <path
               style="fill:#ffffff"
               id="path1466-4"
               d="m 239.719,123.831 -0.621,0.791 c -0.352,-0.473 -0.863,-0.709 -1.535,-0.709 -0.484,0 -0.89,0.187 -1.216,0.56 -0.326,0.373 -0.489,0.815 -0.489,1.327 l 0,3.516 -1.055,0 0,-4.453 c 0,-0.621 -0.16,-1.105 -0.48,-1.453 l 0.896,-0.451 c 0.309,0.344 0.48,0.723 0.516,1.137 l 0.023,0 c 0.215,-0.336 0.499,-0.609 0.853,-0.82 0.354,-0.211 0.71,-0.316 1.069,-0.316 0.843,-0.002 1.523,0.289 2.039,0.871 z"
               inkscape:connector-curvature="0" />
            <path
               id="path1468-7"
               d="m 246.791,127.985 -5.689,-2.426 0,-0.984 5.689,-2.402 0,1.049 -4.512,1.846 4.512,1.869 0,1.048 z"
               inkscape:connector-curvature="0"
               style="fill:#ffffff" />
            <path
               id="path1470-8"
               d="m 252.838,120.725 -2.484,8.877 -0.85,0 2.484,-8.877 0.85,0 z"
               inkscape:connector-curvature="0"
               style="fill:#ffffff" />
          </g>
          <g
             style="fill:#ffffff"
             id="g1996">
            <path
               id="path1204-1"
               d="m 30.756,12.785 -5.689,-2.426 0,-0.984 5.689,-2.402 0,1.049 -4.512,1.846 4.512,1.869 0,1.048 z"
               inkscape:connector-curvature="0"
               style="fill:#ffffff" />
            <path
               id="path1206-1"
               d="m 35.795,7.429 -0.299,4.547 -0.686,0 -0.322,-4.547 0,-1.904 1.307,0 0,1.904 z m -0.058,6.686 -1.201,0 0,-1.201 1.201,0 0,1.201 z"
               inkscape:connector-curvature="0"
               style="fill:#ffffff" />
            <path
               id="path1208-8"
               d="m 39.698,5.525 1.729,0 c 1.43,0 2.463,0.354 3.1,1.061 0.637,0.707 0.955,1.77 0.955,3.188 0,1.43 -0.341,2.511 -1.022,3.243 -0.681,0.732 -1.677,1.099 -2.985,1.099 l -1.775,0 0,-8.591 z m 1.136,7.57 0.516,0 c 0.379,0 0.716,-0.023 1.011,-0.07 0.295,-0.047 0.594,-0.174 0.896,-0.381 0.302,-0.207 0.553,-0.545 0.75,-1.014 0.197,-0.469 0.296,-1.096 0.296,-1.881 C 44.303,8.62 44.072,7.804 43.609,7.3 43.146,6.796 42.381,6.544 41.315,6.544 l -0.48,0 0,6.551 z"
               inkscape:connector-curvature="0"
               style="fill:#ffffff" />
            <path
               id="path1210-2"
               d="m 49.536,5.402 c 1.027,0 1.784,0.354 2.271,1.061 0.487,0.707 0.729,1.818 0.729,3.334 0,1.418 -0.262,2.519 -0.785,3.302 -0.523,0.783 -1.262,1.175 -2.215,1.175 -1.023,0 -1.779,-0.353 -2.268,-1.058 -0.489,-0.705 -0.732,-1.813 -0.732,-3.325 0,-2.993 1,-4.489 3,-4.489 z M 49.524,13.3 c 0.664,0 1.137,-0.286 1.418,-0.858 0.281,-0.572 0.422,-1.462 0.422,-2.669 0,-2.266 -0.605,-3.398 -1.816,-3.398 -0.664,0 -1.136,0.283 -1.415,0.85 -0.279,0.567 -0.419,1.451 -0.419,2.654 0,1.25 0.134,2.133 0.401,2.648 0.267,0.515 0.737,0.773 1.409,0.773 z"
               inkscape:connector-curvature="0"
               style="fill:#ffffff" />
            <path
               id="path1212-3"
               d="m 59.836,11.871 c -0.199,0.672 -0.557,1.236 -1.072,1.693 -0.515,0.457 -1.119,0.686 -1.811,0.686 -1.063,0 -1.866,-0.371 -2.411,-1.113 -0.545,-0.742 -0.817,-1.832 -0.817,-3.27 0,-1.453 0.278,-2.564 0.835,-3.334 0.557,-0.77 1.343,-1.154 2.358,-1.154 0.758,0 1.385,0.189 1.881,0.568 0.496,0.379 0.834,0.906 1.014,1.582 l -1.02,0.287 C 58.508,6.839 57.887,6.351 56.93,6.351 c -0.691,0 -1.202,0.291 -1.532,0.873 -0.33,0.582 -0.495,1.459 -0.495,2.631 0,1.203 0.168,2.074 0.504,2.613 0.336,0.539 0.848,0.809 1.535,0.809 0.445,0 0.836,-0.152 1.172,-0.457 0.336,-0.305 0.594,-0.721 0.773,-1.248 l 0.949,0.299 z"
               inkscape:connector-curvature="0"
               style="fill:#ffffff" />
            <path
               id="path1214-8"
               d="m 67.12,6.544 -2.602,0 0,7.57 -1.143,0 0,-7.57 -2.578,0 0,-1.02 6.322,0 0,1.02 z"
               inkscape:connector-curvature="0"
               style="fill:#ffffff" />
            <path
               id="path1216-5"
               d="m 74.731,5.525 -3.012,4.951 0,3.639 -1.143,0 0,-3.639 -3.012,-4.951 1.33,0 c 1.492,2.531 2.248,3.838 2.268,3.92 0.145,-0.344 0.508,-0.998 1.09,-1.963 l 1.195,-1.957 1.284,0 z"
               inkscape:connector-curvature="0"
               style="fill:#ffffff" />
            <path
               id="path1218-3"
               d="m 75.704,5.525 2.385,0 c 0.512,0 0.953,0.025 1.324,0.076 0.371,0.051 0.715,0.183 1.031,0.396 0.316,0.213 0.556,0.502 0.718,0.867 0.162,0.365 0.243,0.747 0.243,1.146 0,0.793 -0.255,1.429 -0.765,1.907 -0.51,0.478 -1.327,0.718 -2.452,0.718 l -1.348,0 0,3.48 -1.137,0 0,-8.59 z m 1.136,4.09 1.36,0 c 1.352,0 2.027,-0.523 2.027,-1.57 0,-0.344 -0.088,-0.647 -0.264,-0.911 C 79.787,6.87 79.571,6.706 79.316,6.642 79.061,6.578 78.68,6.545 78.176,6.545 l -1.336,0 0,3.07 z"
               inkscape:connector-curvature="0"
               style="fill:#ffffff" />
            <path
               id="path1220-3"
               d="m 88.459,14.115 -5.338,0 0,-8.59 5.133,0 0,1.02 -3.996,0 0,2.625 3.674,0 0,1.02 -3.674,0 0,2.906 4.201,0 0,1.019 z"
               inkscape:connector-curvature="0"
               style="fill:#ffffff" />
            <path
               id="path1222-5"
               d="m 102.493,14.115 -1.061,0 0,-3.926 c 0,-1.016 -0.436,-1.523 -1.307,-1.523 -0.43,0 -0.813,0.149 -1.151,0.448 -0.338,0.299 -0.507,0.833 -0.507,1.603 l 0,3.398 -1.055,0 0,-8.59 1.055,0 0,3.082 c 0.5,-0.566 1.125,-0.85 1.875,-0.85 0.402,0 0.787,0.082 1.154,0.246 0.367,0.164 0.625,0.416 0.773,0.756 0.148,0.34 0.223,0.813 0.223,1.418 l 0,3.938 z"
               inkscape:connector-curvature="0"
               style="fill:#ffffff" />
            <path
               id="path1224-5"
               d="m 109.618,13.957 c -0.348,0.16 -0.871,0.24 -1.57,0.24 -0.684,0 -1.211,-0.176 -1.582,-0.527 -0.371,-0.351 -0.557,-0.832 -0.557,-1.441 l 0,-3.517 -1.547,0 0,-0.814 1.547,0 0,-1.547 1.061,-0.639 0,2.186 2.191,0 0,0.814 -2.191,0 0,3.434 c 0,0.371 0.102,0.654 0.305,0.85 0.203,0.196 0.488,0.293 0.855,0.293 0.48,0 0.926,-0.072 1.336,-0.217 l 0.152,0.885 z"
               inkscape:connector-curvature="0"
               style="fill:#ffffff" />
            <path
               id="path1226-6"
               d="m 117.252,14.115 -1.055,0 0,-3.996 c 0,-0.57 -0.045,-0.955 -0.135,-1.154 -0.09,-0.199 -0.221,-0.299 -0.393,-0.299 -0.211,0 -0.396,0.212 -0.554,0.636 -0.158,0.424 -0.237,0.864 -0.237,1.321 l 0,3.492 -1.061,0 0,-4.043 c 0,-0.555 -0.045,-0.928 -0.135,-1.119 -0.09,-0.191 -0.221,-0.287 -0.393,-0.287 -0.238,0 -0.43,0.194 -0.574,0.583 -0.144,0.389 -0.217,0.839 -0.217,1.351 l 0,3.516 -1.055,0 0,-6.218 0.949,0 0,0.867 0.023,0 c 0.316,-0.672 0.695,-1.008 1.137,-1.008 0.316,0 0.559,0.078 0.727,0.234 0.168,0.156 0.314,0.441 0.439,0.855 0.305,-0.727 0.713,-1.09 1.225,-1.09 0.422,0 0.745,0.15 0.97,0.451 0.225,0.301 0.337,0.846 0.337,1.635 l 0,4.273 z"
               inkscape:connector-curvature="0"
               style="fill:#ffffff" />
            <path
               id="path1228-1"
               d="m 122.245,14.115 -1.055,0 0,-7.776 -2.051,0 0,-0.814 3.105,0 0,8.59 z"
               inkscape:connector-curvature="0"
               style="fill:#ffffff" />
            <path
               id="path1230-2"
               d="m 133.313,5.525 2.385,0 c 0.512,0 0.953,0.025 1.324,0.076 0.371,0.051 0.715,0.183 1.031,0.396 0.316,0.213 0.556,0.502 0.718,0.867 0.162,0.365 0.243,0.747 0.243,1.146 0,0.793 -0.255,1.429 -0.765,1.907 -0.51,0.478 -1.327,0.718 -2.452,0.718 l -1.348,0 0,3.48 -1.137,0 0,-8.59 z m 1.137,4.09 1.359,0 c 1.352,0 2.027,-0.523 2.027,-1.57 0,-0.344 -0.088,-0.647 -0.264,-0.911 -0.176,-0.264 -0.392,-0.428 -0.647,-0.492 -0.255,-0.064 -0.636,-0.097 -1.14,-0.097 l -1.336,0 0,3.07 z"
               inkscape:connector-curvature="0"
               style="fill:#ffffff" />
            <path
               id="path1232-0"
               d="m 145.793,10.611 c 0,0.422 -0.021,0.818 -0.064,1.189 -0.043,0.371 -0.148,0.747 -0.316,1.128 -0.168,0.381 -0.439,0.698 -0.814,0.952 -0.375,0.254 -0.873,0.381 -1.494,0.381 -0.758,0 -1.327,-0.185 -1.708,-0.554 -0.381,-0.369 -0.623,-0.809 -0.727,-1.318 -0.104,-0.509 -0.155,-1.103 -0.155,-1.778 l 0,-5.086 1.137,0 0,5.074 c 0,0.984 0.123,1.67 0.369,2.057 0.246,0.387 0.615,0.58 1.107,0.58 0.516,0 0.898,-0.168 1.148,-0.504 0.25,-0.336 0.375,-1.047 0.375,-2.133 l 0,-5.074 1.143,0 0,5.086 z"
               inkscape:connector-curvature="0"
               style="fill:#ffffff" />
            <path
               id="path1234-1"
               d="m 151.805,9.544 c 0.539,0.164 0.942,0.431 1.21,0.8 0.267,0.369 0.401,0.794 0.401,1.274 0,0.664 -0.229,1.246 -0.688,1.746 -0.459,0.5 -1.298,0.75 -2.517,0.75 l -2.496,0 0,-8.59 2.438,0 c 1.043,0 1.777,0.227 2.203,0.68 0.426,0.453 0.639,0.957 0.639,1.512 0,0.375 -0.098,0.722 -0.293,1.04 -0.195,0.318 -0.494,0.581 -0.897,0.788 z m -2.953,-0.421 1.072,0 c 0.383,0 0.704,-0.021 0.964,-0.064 0.26,-0.043 0.489,-0.156 0.688,-0.34 0.199,-0.184 0.299,-0.469 0.299,-0.855 0,-0.406 -0.101,-0.706 -0.302,-0.899 -0.201,-0.193 -0.441,-0.312 -0.721,-0.354 -0.28,-0.042 -0.638,-0.064 -1.075,-0.064 l -0.926,0 0,2.576 z m 0,3.972 1.348,0 c 0.766,0 1.297,-0.131 1.594,-0.393 0.297,-0.262 0.445,-0.623 0.445,-1.084 0,-0.465 -0.158,-0.827 -0.475,-1.087 -0.317,-0.26 -0.887,-0.39 -1.711,-0.39 l -1.201,0 0,2.954 z"
               inkscape:connector-curvature="0"
               style="fill:#ffffff" />
            <path
               id="path1236-1"
               d="m 160.711,14.115 -5.373,0 0,-8.59 1.137,0 0,7.57 4.236,0 0,1.02 z"
               inkscape:connector-curvature="0"
               style="fill:#ffffff" />
            <path
               id="path1238-2"
               d="m 166.787,14.115 -4.072,0 0,-1.02 1.465,0 0,-6.551 -1.465,0 0,-1.02 4.072,0 0,1.02 -1.465,0 0,6.551 1.465,0 0,1.02 z"
               inkscape:connector-curvature="0"
               style="fill:#ffffff" />
            <path
               id="path1240-7"
               d="m 175.055,11.871 c -0.199,0.672 -0.557,1.236 -1.072,1.693 -0.515,0.457 -1.119,0.686 -1.811,0.686 -1.063,0 -1.866,-0.371 -2.411,-1.113 -0.545,-0.742 -0.817,-1.832 -0.817,-3.27 0,-1.453 0.278,-2.564 0.835,-3.334 0.557,-0.77 1.343,-1.154 2.358,-1.154 0.758,0 1.385,0.189 1.881,0.568 0.496,0.379 0.834,0.906 1.014,1.582 l -1.02,0.287 c -0.285,-0.977 -0.906,-1.465 -1.863,-1.465 -0.691,0 -1.202,0.291 -1.532,0.873 -0.33,0.582 -0.495,1.459 -0.495,2.631 0,1.203 0.168,2.074 0.504,2.613 0.336,0.539 0.848,0.809 1.535,0.809 0.445,0 0.836,-0.152 1.172,-0.457 0.336,-0.305 0.594,-0.721 0.773,-1.248 l 0.949,0.299 z"
               inkscape:connector-curvature="0"
               style="fill:#ffffff" />
            <path
               id="path1272-7"
               d="m 30.756,27.185 -5.689,-2.426 0,-0.984 5.689,-2.402 0,1.049 -4.512,1.846 4.512,1.869 0,1.048 z"
               inkscape:connector-curvature="0"
               style="fill:#ffffff" />
            <path
               id="path1274-6"
               d="m 37.682,28.515 -1.061,0 0,-3.926 c 0,-1.016 -0.436,-1.523 -1.307,-1.523 -0.43,0 -0.813,0.149 -1.151,0.448 -0.338,0.299 -0.507,0.833 -0.507,1.603 l 0,3.398 -1.055,0 0,-8.59 1.055,0 0,3.082 c 0.5,-0.566 1.125,-0.85 1.875,-0.85 0.402,0 0.787,0.082 1.154,0.246 0.367,0.164 0.625,0.416 0.773,0.756 0.148,0.34 0.223,0.813 0.223,1.418 l 0,3.938 z"
               inkscape:connector-curvature="0"
               style="fill:#ffffff" />
            <path
               id="path1276-2"
               d="m 44.807,28.356 c -0.348,0.16 -0.871,0.24 -1.57,0.24 -0.684,0 -1.211,-0.176 -1.582,-0.527 -0.371,-0.351 -0.557,-0.832 -0.557,-1.441 l 0,-3.516 -1.547,0 0,-0.814 1.547,0 0,-1.547 1.061,-0.639 0,2.186 2.191,0 0,0.814 -2.191,0 0,3.434 c 0,0.371 0.102,0.654 0.305,0.85 0.203,0.196 0.488,0.293 0.855,0.293 0.48,0 0.926,-0.072 1.336,-0.217 l 0.152,0.884 z"
               inkscape:connector-curvature="0"
               style="fill:#ffffff" />
            <path
               id="path1278-4"
               d="m 52.442,28.515 -1.055,0 0,-3.996 c 0,-0.57 -0.045,-0.955 -0.135,-1.154 -0.09,-0.199 -0.221,-0.299 -0.393,-0.299 -0.211,0 -0.396,0.212 -0.554,0.636 -0.158,0.424 -0.237,0.864 -0.237,1.321 l 0,3.492 -1.061,0 0,-4.043 c 0,-0.555 -0.045,-0.928 -0.135,-1.119 -0.09,-0.191 -0.221,-0.287 -0.393,-0.287 -0.238,0 -0.43,0.194 -0.574,0.583 -0.144,0.389 -0.217,0.839 -0.217,1.351 l 0,3.516 -1.055,0 0,-6.217 0.949,0 0,0.867 0.023,0 c 0.316,-0.672 0.695,-1.008 1.137,-1.008 0.316,0 0.559,0.078 0.727,0.234 0.168,0.156 0.314,0.441 0.439,0.855 0.305,-0.727 0.713,-1.09 1.225,-1.09 0.422,0 0.745,0.15 0.97,0.451 0.225,0.301 0.337,0.846 0.337,1.635 l 0,4.272 z"
               inkscape:connector-curvature="0"
               style="fill:#ffffff" />
            <path
               id="path1280-1"
               d="m 57.434,28.515 -1.055,0 0,-7.775 -2.051,0 0,-0.814 3.105,0 0,8.589 z"
               inkscape:connector-curvature="0"
               style="fill:#ffffff" />
            <path
               id="path1282-7"
               d="m 61.12,27.185 0,-1.049 4.512,-1.869 -4.512,-1.846 0,-1.049 5.689,2.402 0,0.984 -5.689,2.427 z"
               inkscape:connector-curvature="0"
               style="fill:#ffffff" />
            <path
               id="path1284-2"
               d="m 59.561,41.584 -5.689,-2.426 0,-0.984 5.689,-2.402 0,1.049 -4.512,1.846 4.512,1.869 0,1.048 z"
               inkscape:connector-curvature="0"
               style="fill:#ffffff" />
            <path
               id="path1286-6"
               d="m 66.487,42.915 -1.061,0 0,-3.926 c 0,-1.016 -0.436,-1.523 -1.307,-1.523 -0.43,0 -0.813,0.149 -1.151,0.448 -0.338,0.299 -0.507,0.833 -0.507,1.603 l 0,3.398 -1.055,0 0,-8.59 1.055,0 0,3.082 c 0.5,-0.566 1.125,-0.85 1.875,-0.85 0.402,0 0.787,0.082 1.154,0.246 0.367,0.164 0.625,0.416 0.773,0.756 0.148,0.34 0.223,0.813 0.223,1.418 l 0,3.938 z"
               inkscape:connector-curvature="0"
               style="fill:#ffffff" />
            <path
               id="path1288-5"
               d="m 74.069,40.073 -4.658,0 c 0.047,0.688 0.245,1.213 0.595,1.576 0.35,0.363 0.784,0.545 1.304,0.545 0.805,0 1.354,-0.428 1.646,-1.283 l 1.078,0.135 c -0.176,0.648 -0.498,1.146 -0.967,1.494 -0.469,0.348 -1.055,0.521 -1.758,0.521 -0.934,0 -1.663,-0.286 -2.188,-0.858 -0.525,-0.572 -0.788,-1.354 -0.788,-2.347 0,-1 0.261,-1.8 0.782,-2.399 0.521,-0.599 1.233,-0.899 2.136,-0.899 0.855,0 1.539,0.284 2.051,0.853 0.512,0.569 0.768,1.411 0.768,2.528 l 0,0.134 z m -1.078,-0.867 c -0.047,-0.633 -0.244,-1.089 -0.592,-1.368 -0.348,-0.279 -0.73,-0.419 -1.148,-0.419 -0.496,0 -0.904,0.166 -1.225,0.498 -0.321,0.332 -0.504,0.762 -0.551,1.289 l 3.516,0 z"
               inkscape:connector-curvature="0"
               style="fill:#ffffff" />
            <path
               id="path1290-3"
               d="m 81.258,42.915 -1.102,0 c -0.105,-0.195 -0.178,-0.451 -0.217,-0.768 -0.711,0.609 -1.475,0.914 -2.291,0.914 -0.656,0 -1.175,-0.164 -1.556,-0.492 -0.381,-0.328 -0.571,-0.762 -0.571,-1.301 0,-0.516 0.183,-0.94 0.548,-1.274 0.365,-0.334 0.999,-0.556 1.901,-0.665 l 0.984,-0.146 c 0.371,-0.059 0.674,-0.131 0.908,-0.217 0,-0.316 -0.009,-0.54 -0.026,-0.671 -0.017,-0.131 -0.074,-0.267 -0.17,-0.407 -0.096,-0.14 -0.25,-0.254 -0.463,-0.34 -0.213,-0.086 -0.497,-0.129 -0.853,-0.129 -0.453,0 -0.812,0.084 -1.075,0.252 -0.263,0.168 -0.444,0.48 -0.542,0.938 l -1.031,-0.135 c 0.234,-1.277 1.17,-1.916 2.807,-1.916 0.746,0 1.295,0.11 1.646,0.331 0.351,0.221 0.567,0.487 0.647,0.8 0.08,0.313 0.12,0.715 0.12,1.207 l 0,1.418 c 0,0.863 0.016,1.442 0.047,1.737 0.031,0.295 0.129,0.582 0.289,0.864 z m -1.394,-2.737 0,-0.381 c -0.551,0.184 -1.224,0.329 -2.019,0.437 -0.795,0.108 -1.192,0.444 -1.192,1.011 0,0.285 0.107,0.521 0.322,0.706 0.215,0.185 0.523,0.278 0.926,0.278 0.52,0 0.977,-0.155 1.371,-0.466 0.394,-0.311 0.592,-0.839 0.592,-1.585 z"
               inkscape:connector-curvature="0"
               style="fill:#ffffff" />
            <path
               id="path1292-8"
               d="m 88.049,42.915 -0.984,0 0,-0.791 -0.023,0 c -0.379,0.625 -0.949,0.938 -1.711,0.938 -0.762,0 -1.398,-0.302 -1.91,-0.905 -0.512,-0.603 -0.768,-1.386 -0.768,-2.347 0,-1.004 0.24,-1.797 0.721,-2.379 0.481,-0.582 1.115,-0.873 1.904,-0.873 0.742,0 1.307,0.283 1.693,0.85 l 0.023,0 0,-3.082 1.055,0 0,8.589 z m -2.613,-0.721 c 0.461,0 0.853,-0.189 1.175,-0.568 0.322,-0.379 0.483,-0.953 0.483,-1.723 0,-0.758 -0.147,-1.361 -0.442,-1.811 -0.295,-0.45 -0.716,-0.674 -1.263,-0.674 -0.543,0 -0.955,0.22 -1.236,0.659 -0.281,0.439 -0.422,1.017 -0.422,1.731 0,0.785 0.166,1.379 0.498,1.781 0.332,0.402 0.734,0.605 1.207,0.605 z"
               inkscape:connector-curvature="0"
               style="fill:#ffffff" />
            <path
               id="path1294-6"
               d="m 89.924,41.584 0,-1.049 4.512,-1.869 -4.512,-1.846 0,-1.049 5.689,2.402 0,0.984 -5.689,2.427 z"
               inkscape:connector-curvature="0"
               style="fill:#ffffff" />
            <path
               id="path1296-4"
               d="m 88.366,55.985 -5.689,-2.426 0,-0.984 5.689,-2.402 0,1.049 -4.512,1.846 4.512,1.869 0,1.048 z"
               inkscape:connector-curvature="0"
               style="fill:#ffffff" />
            <path
               id="path1298-1"
               d="m 95.215,57.157 c -0.348,0.16 -0.871,0.24 -1.57,0.24 -0.684,0 -1.211,-0.176 -1.582,-0.527 -0.371,-0.351 -0.557,-0.832 -0.557,-1.441 l 0,-3.516 -1.547,0 0,-0.814 1.547,0 0,-1.547 1.061,-0.639 0,2.186 2.191,0 0,0.814 -2.191,0 0,3.434 c 0,0.371 0.102,0.654 0.305,0.85 0.203,0.196 0.488,0.293 0.855,0.293 0.48,0 0.926,-0.072 1.336,-0.217 l 0.152,0.884 z"
               inkscape:connector-curvature="0"
               style="fill:#ffffff" />
            <path
               id="path1300-8"
               d="m 100.729,57.315 -1.061,0 0,-5.402 -2.051,0 0,-0.814 3.111,0 0,6.216 z m 0.059,-7.272 -1.178,0 0,-1.318 1.178,0 0,1.318 z"
               inkscape:connector-curvature="0"
               style="fill:#ffffff" />
            <path
               id="path1302-4"
               d="m 109.618,57.157 c -0.348,0.16 -0.871,0.24 -1.57,0.24 -0.684,0 -1.211,-0.176 -1.582,-0.527 -0.371,-0.351 -0.557,-0.832 -0.557,-1.441 l 0,-3.516 -1.547,0 0,-0.814 1.547,0 0,-1.547 1.061,-0.639 0,2.186 2.191,0 0,0.814 -2.191,0 0,3.434 c 0,0.371 0.102,0.654 0.305,0.85 0.203,0.196 0.488,0.293 0.855,0.293 0.48,0 0.926,-0.072 1.336,-0.217 l 0.152,0.884 z"
               inkscape:connector-curvature="0"
               style="fill:#ffffff" />
            <path
               id="path1304-7"
               d="m 115.043,57.315 -1.055,0 0,-7.775 -2.051,0 0,-0.814 3.105,0 0,8.589 z"
               inkscape:connector-curvature="0"
               style="fill:#ffffff" />
            <path
               id="path1306-4"
               d="m 124.477,54.473 -4.658,0 c 0.047,0.688 0.245,1.213 0.595,1.576 0.35,0.363 0.784,0.545 1.304,0.545 0.805,0 1.354,-0.428 1.646,-1.283 l 1.078,0.135 c -0.176,0.648 -0.498,1.146 -0.967,1.494 -0.469,0.348 -1.055,0.521 -1.758,0.521 -0.934,0 -1.663,-0.286 -2.188,-0.858 -0.525,-0.572 -0.788,-1.354 -0.788,-2.347 0,-1 0.261,-1.8 0.782,-2.399 0.521,-0.599 1.233,-0.899 2.136,-0.899 0.855,0 1.539,0.284 2.051,0.853 0.512,0.569 0.768,1.411 0.768,2.528 l 0,0.134 z m -1.078,-0.867 c -0.047,-0.633 -0.244,-1.089 -0.592,-1.368 -0.348,-0.279 -0.73,-0.419 -1.148,-0.419 -0.496,0 -0.904,0.166 -1.225,0.498 -0.321,0.332 -0.504,0.762 -0.551,1.289 l 3.516,0 z"
               inkscape:connector-curvature="0"
               style="fill:#ffffff" />
            <path
               id="path1308-4"
               d="m 125.93,55.985 0,-1.049 4.512,-1.869 -4.512,-1.846 0,-1.049 5.689,2.402 0,0.984 -5.689,2.427 z"
               inkscape:connector-curvature="0"
               style="fill:#ffffff" />
            <path
               style="fill:#ffffff"
               id="path1310-9"
               d="m 138.868,57.315 -5.338,0 0,-8.59 5.133,0 0,1.02 -3.996,0 0,2.625 3.674,0 0,1.02 -3.674,0 0,2.906 4.201,0 0,1.019 z"
               inkscape:connector-curvature="0" />
            <path
               style="fill:#ffffff"
               id="path1312-1"
               d="m 146.069,57.315 -1.295,0 -1.623,-2.461 -1.629,2.461 -1.283,0 2.279,-3.24 -2.104,-2.977 1.313,0 c 0.848,1.285 1.311,2.002 1.389,2.15 l 1.523,-2.15 1.26,0 -2.145,2.918 2.315,3.299 z"
               inkscape:connector-curvature="0" />
            <path
               style="fill:#ffffff"
               id="path1314-3"
               d="m 153.27,57.315 -1.101,0 c -0.105,-0.195 -0.178,-0.451 -0.217,-0.768 -0.711,0.609 -1.475,0.914 -2.291,0.914 -0.656,0 -1.175,-0.164 -1.556,-0.492 -0.381,-0.328 -0.571,-0.762 -0.571,-1.301 0,-0.516 0.183,-0.94 0.548,-1.274 0.365,-0.334 0.999,-0.556 1.901,-0.665 l 0.984,-0.146 c 0.371,-0.059 0.674,-0.131 0.908,-0.217 0,-0.316 -0.009,-0.54 -0.026,-0.671 -0.017,-0.131 -0.074,-0.267 -0.17,-0.407 -0.096,-0.14 -0.25,-0.254 -0.463,-0.34 -0.213,-0.086 -0.497,-0.129 -0.853,-0.129 -0.453,0 -0.812,0.084 -1.075,0.252 -0.263,0.168 -0.444,0.48 -0.542,0.938 l -1.031,-0.135 c 0.234,-1.277 1.17,-1.916 2.807,-1.916 0.746,0 1.295,0.11 1.646,0.331 0.351,0.221 0.567,0.487 0.647,0.8 0.08,0.313 0.12,0.715 0.12,1.207 l 0,1.418 c 0,0.863 0.016,1.442 0.047,1.737 0.031,0.295 0.128,0.583 0.288,0.864 z m -1.395,-2.736 0,-0.381 c -0.551,0.184 -1.224,0.329 -2.019,0.437 -0.795,0.108 -1.192,0.444 -1.192,1.011 0,0.285 0.107,0.521 0.322,0.706 0.215,0.185 0.523,0.278 0.926,0.278 0.52,0 0.977,-0.155 1.371,-0.466 0.394,-0.311 0.592,-0.839 0.592,-1.585 z"
               inkscape:connector-curvature="0" />
            <path
               style="fill:#ffffff"
               id="path1316-8"
               d="m 160.459,57.315 -1.055,0 0,-3.996 c 0,-0.57 -0.045,-0.955 -0.135,-1.154 -0.09,-0.199 -0.221,-0.299 -0.393,-0.299 -0.211,0 -0.396,0.212 -0.554,0.636 -0.158,0.424 -0.237,0.864 -0.237,1.321 l 0,3.492 -1.061,0 0,-4.043 c 0,-0.555 -0.045,-0.928 -0.135,-1.119 -0.09,-0.191 -0.221,-0.287 -0.393,-0.287 -0.238,0 -0.43,0.194 -0.574,0.583 -0.144,0.389 -0.217,0.839 -0.217,1.351 l 0,3.516 -1.055,0 0,-6.217 0.949,0 0,0.867 0.023,0 c 0.316,-0.672 0.695,-1.008 1.137,-1.008 0.316,0 0.559,0.078 0.727,0.234 0.168,0.156 0.314,0.441 0.439,0.855 0.305,-0.727 0.713,-1.09 1.225,-1.09 0.422,0 0.745,0.15 0.97,0.451 0.225,0.301 0.337,0.846 0.337,1.635 l 0,4.272 z"
               inkscape:connector-curvature="0" />
            <path
               style="fill:#ffffff"
               id="path1318-6"
               d="m 163.23,51.901 c 0.395,-0.629 0.986,-0.943 1.775,-0.943 0.816,0 1.461,0.296 1.934,0.888 0.473,0.592 0.709,1.362 0.709,2.312 0,1.012 -0.261,1.815 -0.782,2.411 -0.521,0.596 -1.165,0.894 -1.931,0.894 -0.668,0 -1.203,-0.266 -1.605,-0.797 l -0.023,0 0,3.041 -1.061,0 0,-8.607 0.961,0 0,0.803 0.023,0 z m 1.635,4.693 c 0.492,0 0.899,-0.204 1.222,-0.612 0.323,-0.408 0.483,-1.017 0.483,-1.825 0,-0.808 -0.163,-1.406 -0.489,-1.793 -0.326,-0.387 -0.716,-0.58 -1.169,-0.58 -0.5,0 -0.911,0.229 -1.233,0.686 -0.322,0.457 -0.483,1.049 -0.483,1.775 0,0.508 0.069,0.938 0.208,1.289 0.139,0.351 0.337,0.616 0.595,0.794 0.258,0.178 0.546,0.266 0.866,0.266 z"
               inkscape:connector-curvature="0" />
            <path
               style="fill:#ffffff"
               id="path1320-8"
               d="m 172.652,57.315 -1.055,0 0,-7.775 -2.051,0 0,-0.814 3.105,0 0,8.589 z"
               inkscape:connector-curvature="0" />
            <path
               style="fill:#ffffff"
               id="path1322-0"
               d="m 182.086,54.473 -4.658,0 c 0.047,0.688 0.245,1.213 0.595,1.576 0.35,0.363 0.784,0.545 1.304,0.545 0.805,0 1.354,-0.428 1.646,-1.283 l 1.078,0.135 c -0.176,0.648 -0.498,1.146 -0.967,1.494 -0.469,0.348 -1.055,0.521 -1.758,0.521 -0.934,0 -1.663,-0.286 -2.188,-0.858 -0.525,-0.572 -0.788,-1.354 -0.788,-2.347 0,-1 0.261,-1.8 0.782,-2.399 0.521,-0.599 1.233,-0.899 2.136,-0.899 0.855,0 1.539,0.284 2.051,0.853 0.512,0.569 0.768,1.411 0.768,2.528 l 0,0.134 z m -1.078,-0.867 c -0.047,-0.633 -0.244,-1.089 -0.592,-1.368 -0.348,-0.279 -0.73,-0.419 -1.148,-0.419 -0.496,0 -0.904,0.166 -1.225,0.498 -0.321,0.332 -0.504,0.762 -0.551,1.289 l 3.516,0 z"
               inkscape:connector-curvature="0" />
            <path
               id="path1340-7"
               d="m 88.366,70.385 -5.689,-2.426 0,-0.984 5.689,-2.402 0,1.049 -4.512,1.846 4.512,1.869 0,1.048 z"
               inkscape:connector-curvature="0"
               style="fill:#ffffff" />
            <path
               id="path1342-6"
               d="m 93.44,71.715 -1.055,0 0,-7.775 -2.051,0 0,-0.814 3.105,0 0,8.589 z"
               inkscape:connector-curvature="0"
               style="fill:#ffffff" />
            <path
               id="path1344-6"
               d="m 100.729,71.715 -1.061,0 0,-5.402 -2.051,0 0,-0.814 3.111,0 0,6.216 z m 0.059,-7.272 -1.178,0 0,-1.318 1.178,0 0,1.318 z"
               inkscape:connector-curvature="0"
               style="fill:#ffffff" />
            <path
               id="path1346-9"
               d="m 109.694,71.715 -1.061,0 0,-3.779 c 0,-0.637 -0.114,-1.074 -0.343,-1.313 -0.229,-0.239 -0.546,-0.357 -0.952,-0.357 -0.523,0 -0.933,0.188 -1.228,0.565 -0.295,0.377 -0.442,0.872 -0.442,1.485 l 0,3.398 -1.055,0 0,-6.217 0.949,0 0,0.879 0.023,0 c 0.449,-0.68 1.105,-1.02 1.969,-1.02 0.328,0 0.652,0.059 0.973,0.176 0.321,0.117 0.571,0.293 0.753,0.527 0.182,0.234 0.296,0.484 0.343,0.75 0.047,0.266 0.07,0.625 0.07,1.078 l 0,3.828 z"
               inkscape:connector-curvature="0"
               style="fill:#ffffff" />
            <path
               id="path1348-2"
               d="m 117.698,71.715 -1.348,0 -2.496,-3.299 -0.996,0.885 0,2.414 -1.055,0 0,-8.59 1.055,0 0,4.98 2.895,-2.607 1.418,0 -2.596,2.279 3.123,3.938 z"
               inkscape:connector-curvature="0"
               style="fill:#ffffff" />
            <path
               id="path1350-1"
               d="m 131.297,71.715 -1.061,0 0,-3.926 c 0,-1.016 -0.436,-1.523 -1.307,-1.523 -0.43,0 -0.813,0.149 -1.151,0.448 -0.338,0.299 -0.507,0.833 -0.507,1.603 l 0,3.398 -1.055,0 0,-8.59 1.055,0 0,3.082 c 0.5,-0.566 1.125,-0.85 1.875,-0.85 0.402,0 0.787,0.082 1.154,0.246 0.367,0.164 0.625,0.416 0.773,0.756 0.148,0.34 0.223,0.813 0.223,1.418 l 0,3.938 z"
               inkscape:connector-curvature="0"
               style="fill:#ffffff" />
            <path
               id="path1352-5"
               d="m 138.903,66.23 -0.621,0.791 c -0.352,-0.473 -0.863,-0.709 -1.535,-0.709 -0.484,0 -0.89,0.187 -1.216,0.56 -0.326,0.373 -0.489,0.815 -0.489,1.327 l 0,3.516 -1.055,0 0,-4.453 c 0,-0.621 -0.16,-1.105 -0.48,-1.453 l 0.896,-0.451 c 0.309,0.344 0.48,0.723 0.516,1.137 l 0.023,0 c 0.215,-0.336 0.499,-0.609 0.853,-0.82 0.354,-0.211 0.71,-0.316 1.069,-0.316 0.844,-0.002 1.523,0.289 2.039,0.871 z"
               inkscape:connector-curvature="0"
               style="fill:#ffffff" />
            <path
               id="path1354-0"
               d="m 146.081,68.873 -4.658,0 c 0.047,0.688 0.245,1.213 0.595,1.576 0.35,0.363 0.784,0.545 1.304,0.545 0.805,0 1.354,-0.428 1.646,-1.283 l 1.078,0.135 c -0.176,0.648 -0.498,1.146 -0.967,1.494 -0.469,0.348 -1.055,0.521 -1.758,0.521 -0.934,0 -1.663,-0.286 -2.188,-0.858 -0.525,-0.572 -0.788,-1.354 -0.788,-2.347 0,-1 0.261,-1.8 0.782,-2.399 0.521,-0.599 1.233,-0.899 2.136,-0.899 0.855,0 1.539,0.284 2.051,0.853 0.512,0.569 0.768,1.411 0.768,2.528 l 0,0.134 z m -1.079,-0.867 c -0.047,-0.633 -0.244,-1.089 -0.592,-1.368 -0.348,-0.279 -0.73,-0.419 -1.148,-0.419 -0.496,0 -0.904,0.166 -1.225,0.498 -0.321,0.332 -0.504,0.762 -0.551,1.289 l 3.516,0 z"
               inkscape:connector-curvature="0"
               style="fill:#ffffff" />
            <path
               id="path1356-9"
               d="m 153.199,63.102 -0.158,0.885 c -0.566,-0.063 -1.059,-0.094 -1.477,-0.094 -0.68,0 -1.02,0.34 -1.02,1.02 l 0,0.586 2.197,0 0,0.814 -2.197,0 0,5.402 -1.055,0 0,-5.402 -1.705,0 0,-0.814 1.705,0 0,-0.633 c 0,-0.586 0.173,-1.047 0.519,-1.383 0.346,-0.336 0.845,-0.504 1.497,-0.504 0.517,0 1.081,0.041 1.694,0.123 z"
               inkscape:connector-curvature="0"
               style="fill:#ffffff" />
            <path
               id="path1358-1"
               d="m 160.4,66.664 -5.689,0 0,-0.984 5.689,0 0,0.984 z m 0,2.613 -5.689,0 0,-0.984 5.689,0 0,0.984 z"
               inkscape:connector-curvature="0"
               style="fill:#ffffff" />
            <path
               id="path1360-3"
               d="m 164.098,64.566 c 0,0.496 -0.095,0.875 -0.284,1.137 -0.189,0.262 -0.423,0.447 -0.7,0.557 l -0.287,-0.445 c 0.438,-0.188 0.656,-0.604 0.656,-1.248 l -0.586,0 0,-1.441 1.201,0 0,1.44 z m 2.361,0 c 0,0.496 -0.095,0.875 -0.284,1.137 -0.189,0.262 -0.423,0.447 -0.7,0.557 l -0.287,-0.445 c 0.438,-0.188 0.658,-0.604 0.662,-1.248 l -0.592,0 0,-1.441 1.201,0 0,1.44 z"
               inkscape:connector-curvature="0"
               style="fill:#ffffff" />
            <path
               id="path1362-7"
               d="m 173.256,67.238 c -0.098,-0.68 -0.555,-1.02 -1.371,-1.02 -0.398,0 -0.722,0.068 -0.97,0.205 -0.248,0.137 -0.372,0.336 -0.372,0.598 0,0.246 0.099,0.422 0.296,0.527 0.197,0.105 0.587,0.234 1.169,0.387 0.652,0.168 1.142,0.316 1.468,0.445 0.326,0.129 0.581,0.31 0.765,0.542 0.184,0.232 0.275,0.556 0.275,0.97 0,0.555 -0.228,1.021 -0.683,1.4 -0.455,0.379 -1.06,0.568 -1.813,0.568 -1.574,0 -2.463,-0.668 -2.666,-2.004 l 1.043,-0.158 c 0.113,0.863 0.65,1.295 1.611,1.295 0.457,0 0.809,-0.097 1.055,-0.29 0.246,-0.193 0.369,-0.429 0.369,-0.706 0,-0.188 -0.057,-0.338 -0.17,-0.451 -0.113,-0.113 -0.254,-0.198 -0.422,-0.255 -0.168,-0.057 -0.551,-0.157 -1.148,-0.302 -0.883,-0.211 -1.465,-0.467 -1.746,-0.768 -0.281,-0.301 -0.422,-0.66 -0.422,-1.078 0,-0.52 0.206,-0.947 0.618,-1.283 0.412,-0.336 0.97,-0.504 1.673,-0.504 1.48,0 2.305,0.58 2.473,1.74 l -1.032,0.142 z"
               inkscape:connector-curvature="0"
               style="fill:#ffffff" />
            <path
               id="path1364-5"
               d="m 182.016,69.564 c -0.109,0.723 -0.415,1.286 -0.917,1.69 -0.502,0.404 -1.101,0.606 -1.796,0.606 -0.906,0 -1.625,-0.292 -2.156,-0.876 -0.531,-0.584 -0.797,-1.372 -0.797,-2.364 0,-1.051 0.271,-1.857 0.814,-2.42 0.543,-0.563 1.256,-0.844 2.139,-0.844 0.711,0 1.3,0.178 1.767,0.533 0.467,0.355 0.745,0.832 0.835,1.43 l -1.02,0.158 c -0.207,-0.84 -0.719,-1.26 -1.535,-1.26 -0.625,0 -1.102,0.214 -1.43,0.642 -0.328,0.428 -0.492,1.007 -0.492,1.737 0,0.691 0.163,1.264 0.489,1.717 0.326,0.453 0.784,0.68 1.374,0.68 0.477,0 0.86,-0.14 1.151,-0.419 0.291,-0.279 0.468,-0.659 0.53,-1.14 l 1.044,0.13 z"
               inkscape:connector-curvature="0"
               style="fill:#ffffff" />
            <path
               id="path1400-5"
               d="m 59.561,84.785 -5.689,-2.426 0,-0.984 5.689,-2.402 0,1.049 -4.512,1.846 4.512,1.869 0,1.048 z"
               inkscape:connector-curvature="0"
               style="fill:#ffffff" />
            <path
               id="path1402-0"
               d="m 65.608,77.525 -2.484,8.877 -0.85,0 2.484,-8.877 0.85,0 z"
               inkscape:connector-curvature="0"
               style="fill:#ffffff" />
            <path
               id="path1404-9"
               d="m 73.688,86.115 -1.061,0 0,-3.926 c 0,-1.016 -0.436,-1.523 -1.307,-1.523 -0.43,0 -0.813,0.149 -1.151,0.448 -0.338,0.299 -0.507,0.833 -0.507,1.603 l 0,3.398 -1.055,0 0,-8.59 1.055,0 0,3.082 c 0.5,-0.566 1.125,-0.85 1.875,-0.85 0.402,0 0.787,0.082 1.154,0.246 0.367,0.164 0.625,0.416 0.773,0.756 0.148,0.34 0.223,0.813 0.223,1.418 l 0,3.938 z"
               inkscape:connector-curvature="0"
               style="fill:#ffffff" />
            <path
               id="path1406-3"
               d="m 81.27,83.273 -4.658,0 c 0.047,0.688 0.245,1.213 0.595,1.576 0.35,0.363 0.784,0.545 1.304,0.545 0.805,0 1.354,-0.428 1.646,-1.283 l 1.078,0.135 c -0.176,0.648 -0.498,1.146 -0.967,1.494 -0.469,0.348 -1.055,0.521 -1.758,0.521 -0.934,0 -1.663,-0.286 -2.188,-0.858 -0.525,-0.572 -0.788,-1.354 -0.788,-2.347 0,-1 0.261,-1.8 0.782,-2.399 0.521,-0.599 1.233,-0.899 2.136,-0.899 0.855,0 1.539,0.284 2.051,0.853 0.512,0.569 0.768,1.411 0.768,2.528 l 0,0.134 z m -1.078,-0.867 c -0.047,-0.633 -0.244,-1.089 -0.592,-1.368 -0.348,-0.279 -0.73,-0.419 -1.148,-0.419 -0.496,0 -0.904,0.166 -1.225,0.498 -0.321,0.332 -0.504,0.762 -0.551,1.289 l 3.516,0 z"
               inkscape:connector-curvature="0"
               style="fill:#ffffff" />
            <path
               id="path1408-2"
               d="m 88.459,86.115 -1.102,0 c -0.105,-0.195 -0.178,-0.451 -0.217,-0.768 -0.711,0.609 -1.475,0.914 -2.291,0.914 -0.656,0 -1.175,-0.164 -1.556,-0.492 -0.381,-0.328 -0.571,-0.762 -0.571,-1.301 0,-0.516 0.183,-0.94 0.548,-1.274 0.365,-0.334 0.999,-0.556 1.901,-0.665 l 0.984,-0.146 c 0.371,-0.059 0.674,-0.131 0.908,-0.217 0,-0.316 -0.009,-0.54 -0.026,-0.671 -0.017,-0.131 -0.074,-0.267 -0.17,-0.407 -0.096,-0.14 -0.25,-0.254 -0.463,-0.34 -0.213,-0.086 -0.497,-0.129 -0.853,-0.129 -0.453,0 -0.812,0.084 -1.075,0.252 -0.263,0.168 -0.444,0.48 -0.542,0.938 l -1.031,-0.135 c 0.234,-1.277 1.17,-1.916 2.807,-1.916 0.746,0 1.295,0.11 1.646,0.331 0.351,0.221 0.567,0.487 0.647,0.8 0.08,0.313 0.12,0.715 0.12,1.207 l 0,1.418 c 0,0.863 0.016,1.442 0.047,1.737 0.031,0.295 0.129,0.582 0.289,0.864 z m -1.394,-2.737 0,-0.381 c -0.551,0.184 -1.224,0.329 -2.019,0.437 -0.795,0.108 -1.192,0.444 -1.192,1.011 0,0.285 0.107,0.521 0.322,0.706 0.215,0.185 0.523,0.278 0.926,0.278 0.52,0 0.977,-0.155 1.371,-0.466 0.394,-0.311 0.592,-0.838 0.592,-1.585 z"
               inkscape:connector-curvature="0"
               style="fill:#ffffff" />
            <path
               id="path1410-3"
               d="m 95.25,86.115 -0.984,0 0,-0.791 -0.023,0 c -0.379,0.625 -0.949,0.938 -1.711,0.938 -0.762,0 -1.398,-0.302 -1.91,-0.905 -0.512,-0.603 -0.768,-1.386 -0.768,-2.347 0,-1.004 0.24,-1.797 0.721,-2.379 0.481,-0.582 1.115,-0.873 1.904,-0.873 0.742,0 1.307,0.283 1.693,0.85 l 0.023,0 0,-3.082 1.055,0 0,8.589 z m -2.613,-0.721 c 0.461,0 0.853,-0.189 1.175,-0.568 0.322,-0.379 0.483,-0.953 0.483,-1.723 0,-0.758 -0.147,-1.361 -0.442,-1.811 -0.295,-0.45 -0.716,-0.674 -1.263,-0.674 -0.543,0 -0.955,0.22 -1.236,0.659 -0.281,0.439 -0.422,1.017 -0.422,1.731 0,0.785 0.166,1.379 0.498,1.781 0.332,0.402 0.735,0.605 1.207,0.605 z"
               inkscape:connector-curvature="0"
               style="fill:#ffffff" />
            <path
               id="path1412-4"
               d="m 97.125,84.785 0,-1.049 4.512,-1.869 -4.512,-1.846 0,-1.049 5.689,2.402 0,0.984 -5.689,2.427 z"
               inkscape:connector-curvature="0"
               style="fill:#ffffff" />
            <path
               id="path1414-7"
               d="m 59.561,99.185 -5.689,-2.426 0,-0.984 5.689,-2.402 0,1.049 -4.512,1.846 4.512,1.869 0,1.048 z"
               inkscape:connector-curvature="0"
               style="fill:#ffffff" />
            <path
               id="path1416-5"
               d="m 62.514,94.995 c 0.391,-0.559 0.949,-0.838 1.676,-0.838 0.801,0 1.441,0.291 1.922,0.873 0.481,0.582 0.721,1.342 0.721,2.279 0,1.082 -0.268,1.911 -0.803,2.487 -0.535,0.576 -1.164,0.864 -1.887,0.864 -0.73,0 -1.299,-0.309 -1.705,-0.926 l -0.023,0 0,0.779 -0.985,0 0,-8.59 1.061,0 0,3.07 0.023,0 z m 1.547,4.799 c 0.488,0 0.893,-0.21 1.213,-0.63 0.32,-0.42 0.48,-1.009 0.48,-1.767 0,-0.711 -0.144,-1.285 -0.431,-1.723 -0.287,-0.438 -0.696,-0.656 -1.228,-0.656 -0.508,0 -0.917,0.221 -1.228,0.662 -0.311,0.441 -0.466,1 -0.466,1.676 0,0.66 0.065,1.13 0.196,1.409 0.131,0.279 0.325,0.521 0.583,0.724 0.258,0.203 0.553,0.305 0.881,0.305 z"
               inkscape:connector-curvature="0"
               style="fill:#ffffff" />
            <path
               id="path1418-4"
               d="m 71.139,94.157 c 0.84,0 1.536,0.273 2.089,0.82 0.553,0.547 0.829,1.324 0.829,2.332 0,1.223 -0.299,2.087 -0.896,2.593 -0.597,0.506 -1.271,0.759 -2.021,0.759 -0.785,0 -1.467,-0.26 -2.045,-0.779 -0.578,-0.519 -0.867,-1.344 -0.867,-2.473 0,-0.715 0.121,-1.313 0.363,-1.793 0.242,-0.48 0.595,-0.844 1.058,-1.09 0.463,-0.246 0.959,-0.369 1.49,-0.369 z m 0,5.637 c 0.602,0 1.059,-0.223 1.371,-0.668 0.312,-0.445 0.469,-1.031 0.469,-1.758 0,-0.742 -0.171,-1.319 -0.513,-1.731 -0.342,-0.412 -0.784,-0.618 -1.327,-0.618 -0.535,0 -0.975,0.2 -1.318,0.601 -0.343,0.401 -0.516,0.997 -0.516,1.79 0,0.789 0.175,1.384 0.524,1.784 0.349,0.4 0.787,0.6 1.31,0.6 z"
               inkscape:connector-curvature="0"
               style="fill:#ffffff" />
            <path
               id="path1420-0"
               d="m 80.848,100.515 -0.984,0 0,-0.791 -0.024,0 c -0.379,0.625 -0.949,0.938 -1.711,0.938 -0.762,0 -1.398,-0.302 -1.91,-0.905 -0.512,-0.603 -0.768,-1.386 -0.768,-2.347 0,-1.004 0.24,-1.797 0.721,-2.379 0.481,-0.582 1.115,-0.873 1.904,-0.873 0.742,0 1.307,0.283 1.693,0.85 l 0.023,0 0,-3.082 1.055,0 0,8.589 z m -2.613,-0.721 c 0.461,0 0.853,-0.189 1.175,-0.568 0.322,-0.379 0.483,-0.953 0.483,-1.723 0,-0.758 -0.147,-1.361 -0.442,-1.811 -0.295,-0.45 -0.716,-0.674 -1.263,-0.674 -0.543,0 -0.955,0.22 -1.236,0.659 -0.281,0.439 -0.422,1.017 -0.422,1.731 0,0.785 0.166,1.379 0.498,1.781 0.332,0.402 0.734,0.605 1.207,0.605 z"
               inkscape:connector-curvature="0"
               style="fill:#ffffff" />
            <path
               id="path1422-8"
               d="m 88.506,94.298 -2.496,6.322 c -0.375,0.961 -0.741,1.604 -1.099,1.928 -0.358,0.324 -0.751,0.486 -1.181,0.486 -0.164,0 -0.371,-0.039 -0.621,-0.117 l -0.111,-0.996 c 0.203,0.063 0.404,0.094 0.604,0.094 0.633,0 1.107,-0.512 1.424,-1.535 l -2.473,-6.182 1.143,0 c 0.977,2.484 1.505,3.84 1.585,4.066 0.08,0.226 0.171,0.551 0.272,0.973 l 0.029,0 c 0.113,-0.531 0.246,-0.99 0.398,-1.377 l 1.459,-3.662 1.067,0 z"
               inkscape:connector-curvature="0"
               style="fill:#ffffff" />
            <path
               id="path1424-3"
               d="m 89.924,99.185 0,-1.049 4.512,-1.869 -4.512,-1.846 0,-1.049 5.689,2.402 0,0.984 -5.689,2.427 z"
               inkscape:connector-curvature="0"
               style="fill:#ffffff" />
            <path
               id="path1426-6"
               d="m 88.366,113.584 -5.689,-2.426 0,-0.984 5.689,-2.402 0,1.049 -4.512,1.846 4.512,1.869 0,1.048 z"
               inkscape:connector-curvature="0"
               style="fill:#ffffff" />
            <path
               id="path1428-9"
               d="m 95.292,114.915 -1.061,0 0,-3.926 c 0,-1.016 -0.436,-1.523 -1.307,-1.523 -0.43,0 -0.813,0.149 -1.151,0.448 -0.338,0.299 -0.507,0.833 -0.507,1.603 l 0,3.398 -1.055,0 0,-8.59 1.055,0 0,3.082 c 0.5,-0.566 1.125,-0.85 1.875,-0.85 0.402,0 0.787,0.082 1.154,0.246 0.367,0.164 0.625,0.416 0.773,0.756 0.148,0.34 0.223,0.813 0.223,1.418 l 0,3.938 z"
               inkscape:connector-curvature="0"
               style="fill:#ffffff" />
            <path
               id="path1430-9"
               d="m 100.846,114.915 -1.055,0 0,-6.721 c -0.527,0.5 -1.232,0.924 -2.115,1.271 l 0,-1.02 c 1.215,-0.582 2.043,-1.303 2.484,-2.162 l 0.686,0 0,8.632 z"
               inkscape:connector-curvature="0"
               style="fill:#ffffff" />
            <path
               id="path1432-9"
               d="m 104.327,113.584 0,-1.049 4.512,-1.869 -4.512,-1.846 0,-1.049 5.689,2.402 0,0.984 -5.689,2.427 z"
               inkscape:connector-curvature="0"
               style="fill:#ffffff" />
            <path
               id="path1434-0"
               d="m 117.17,127.985 -5.689,-2.426 0,-0.984 5.689,-2.402 0,1.049 -4.512,1.846 4.512,1.869 0,1.048 z"
               inkscape:connector-curvature="0"
               style="fill:#ffffff" />
            <path
               id="path1436-6"
               d="m 124.465,129.315 -1.102,0 c -0.105,-0.195 -0.178,-0.451 -0.217,-0.768 -0.711,0.609 -1.475,0.914 -2.291,0.914 -0.656,0 -1.175,-0.164 -1.556,-0.492 -0.381,-0.328 -0.571,-0.762 -0.571,-1.301 0,-0.516 0.183,-0.94 0.548,-1.274 0.365,-0.334 0.999,-0.556 1.901,-0.665 l 0.984,-0.146 c 0.371,-0.059 0.674,-0.131 0.908,-0.217 0,-0.316 -0.009,-0.54 -0.026,-0.671 -0.017,-0.131 -0.074,-0.267 -0.17,-0.407 -0.096,-0.14 -0.25,-0.254 -0.463,-0.34 -0.213,-0.086 -0.497,-0.129 -0.853,-0.129 -0.453,0 -0.812,0.084 -1.075,0.252 -0.263,0.168 -0.444,0.48 -0.542,0.938 l -1.031,-0.135 c 0.234,-1.277 1.17,-1.916 2.807,-1.916 0.746,0 1.295,0.11 1.646,0.331 0.351,0.221 0.567,0.487 0.647,0.8 0.08,0.313 0.12,0.715 0.12,1.207 l 0,1.418 c 0,0.863 0.016,1.442 0.047,1.737 0.031,0.295 0.129,0.583 0.289,0.864 z m -1.394,-2.736 0,-0.381 c -0.551,0.184 -1.224,0.329 -2.019,0.437 -0.795,0.108 -1.192,0.444 -1.192,1.011 0,0.285 0.107,0.521 0.322,0.706 0.215,0.185 0.523,0.278 0.926,0.278 0.52,0 0.977,-0.155 1.371,-0.466 0.394,-0.311 0.592,-0.839 0.592,-1.585 z"
               inkscape:connector-curvature="0"
               style="fill:#ffffff" />
            <path
               id="path1438-6"
               d="m 138.499,129.315 -1.061,0 0,-3.926 c 0,-1.016 -0.436,-1.523 -1.307,-1.523 -0.43,0 -0.813,0.149 -1.151,0.448 -0.338,0.299 -0.507,0.833 -0.507,1.603 l 0,3.398 -1.055,0 0,-8.59 1.055,0 0,3.082 c 0.5,-0.566 1.125,-0.85 1.875,-0.85 0.402,0 0.787,0.082 1.154,0.246 0.367,0.164 0.625,0.416 0.773,0.756 0.148,0.34 0.223,0.813 0.223,1.418 l 0,3.938 z"
               inkscape:connector-curvature="0"
               style="fill:#ffffff" />
            <path
               id="path1440-0"
               d="m 146.104,123.831 -0.621,0.791 c -0.352,-0.473 -0.863,-0.709 -1.535,-0.709 -0.484,0 -0.89,0.187 -1.216,0.56 -0.326,0.373 -0.489,0.815 -0.489,1.327 l 0,3.516 -1.055,0 0,-4.453 c 0,-0.621 -0.16,-1.105 -0.48,-1.453 l 0.896,-0.451 c 0.309,0.344 0.48,0.723 0.516,1.137 l 0.023,0 c 0.215,-0.336 0.499,-0.609 0.853,-0.82 0.354,-0.211 0.71,-0.316 1.069,-0.316 0.844,-0.002 1.523,0.289 2.039,0.871 z"
               inkscape:connector-curvature="0"
               style="fill:#ffffff" />
            <path
               id="path1442-9"
               d="m 153.281,126.473 -4.658,0 c 0.047,0.688 0.245,1.213 0.595,1.576 0.35,0.363 0.784,0.545 1.304,0.545 0.805,0 1.354,-0.428 1.646,-1.283 l 1.078,0.135 c -0.175,0.648 -0.498,1.146 -0.966,1.494 -0.468,0.348 -1.055,0.521 -1.758,0.521 -0.934,0 -1.663,-0.286 -2.188,-0.858 -0.525,-0.572 -0.788,-1.354 -0.788,-2.347 0,-1 0.261,-1.8 0.782,-2.399 0.521,-0.599 1.233,-0.899 2.136,-0.899 0.855,0 1.539,0.284 2.051,0.853 0.512,0.569 0.767,1.411 0.767,2.528 l 0,0.134 z m -1.077,-0.867 c -0.047,-0.633 -0.244,-1.089 -0.592,-1.368 -0.348,-0.279 -0.73,-0.419 -1.148,-0.419 -0.496,0 -0.904,0.166 -1.225,0.498 -0.321,0.332 -0.504,0.762 -0.551,1.289 l 3.516,0 z"
               inkscape:connector-curvature="0"
               style="fill:#ffffff" />
            <path
               id="path1444-2"
               d="m 160.4,120.702 -0.158,0.885 c -0.566,-0.063 -1.059,-0.094 -1.477,-0.094 -0.68,0 -1.02,0.34 -1.02,1.02 l 0,0.586 2.197,0 0,0.814 -2.197,0 0,5.402 -1.055,0 0,-5.402 -1.705,0 0,-0.814 1.705,0 0,-0.633 c 0,-0.586 0.173,-1.047 0.519,-1.383 0.346,-0.336 0.845,-0.504 1.497,-0.504 0.517,0 1.081,0.041 1.694,0.123 z"
               inkscape:connector-curvature="0"
               style="fill:#ffffff" />
            <path
               id="path1446-3"
               d="m 167.602,124.264 -5.689,0 0,-0.984 5.689,0 0,0.984 z m 0,2.613 -5.689,0 0,-0.984 5.689,0 0,0.984 z"
               inkscape:connector-curvature="0"
               style="fill:#ffffff" />
            <path
               id="path1448-0"
               d="m 171.299,122.167 c 0,0.496 -0.095,0.875 -0.284,1.137 -0.189,0.262 -0.423,0.447 -0.7,0.557 l -0.287,-0.445 c 0.438,-0.188 0.656,-0.604 0.656,-1.248 l -0.586,0 0,-1.441 1.201,0 0,1.44 z m 2.361,0 c 0,0.496 -0.095,0.875 -0.284,1.137 -0.189,0.262 -0.423,0.447 -0.7,0.557 l -0.287,-0.445 c 0.438,-0.188 0.658,-0.604 0.662,-1.248 l -0.592,0 0,-1.441 1.201,0 0,1.44 z"
               inkscape:connector-curvature="0"
               style="fill:#ffffff" />
            <path
               id="path1450-3"
               d="m 180.826,120.725 -2.484,8.877 -0.85,0 2.484,-8.877 0.85,0 z"
               inkscape:connector-curvature="0"
               style="fill:#ffffff" />
            <path
               id="path1476-7"
               d="m 88.366,142.385 -5.689,-2.426 0,-0.984 5.689,-2.402 0,1.049 -4.512,1.846 4.512,1.869 0,1.048 z"
               inkscape:connector-curvature="0"
               style="fill:#ffffff" />
            <path
               id="path1478-2"
               d="m 94.413,135.125 -2.484,8.877 -0.85,0 2.484,-8.877 0.85,0 z"
               inkscape:connector-curvature="0"
               style="fill:#ffffff" />
            <path
               id="path1480-9"
               d="m 102.493,143.715 -1.061,0 0,-3.926 c 0,-1.016 -0.436,-1.523 -1.307,-1.523 -0.43,0 -0.813,0.149 -1.151,0.448 -0.338,0.299 -0.507,0.833 -0.507,1.603 l 0,3.398 -1.055,0 0,-8.59 1.055,0 0,3.082 c 0.5,-0.566 1.125,-0.85 1.875,-0.85 0.402,0 0.787,0.082 1.154,0.246 0.367,0.164 0.625,0.416 0.773,0.756 0.148,0.34 0.223,0.813 0.223,1.418 l 0,3.938 z"
               inkscape:connector-curvature="0"
               style="fill:#ffffff" />
            <path
               id="path1482-8"
               d="m 108.047,143.715 -1.055,0 0,-6.721 c -0.527,0.5 -1.232,0.924 -2.115,1.271 l 0,-1.02 c 1.215,-0.582 2.043,-1.303 2.484,-2.162 l 0.686,0 0,8.632 z"
               inkscape:connector-curvature="0"
               style="fill:#ffffff" />
            <path
               id="path1484-2"
               d="m 111.528,142.385 0,-1.049 4.512,-1.869 -4.512,-1.846 0,-1.049 5.689,2.402 0,0.984 -5.689,2.427 z"
               inkscape:connector-curvature="0"
               style="fill:#ffffff" />
            <path
               id="path1486-5"
               d="m 88.366,156.785 -5.689,-2.426 0,-0.984 5.689,-2.402 0,1.049 -4.512,1.846 4.512,1.869 0,1.048 z"
               inkscape:connector-curvature="0"
               style="fill:#ffffff" />
            <path
               id="path1488-4"
               d="m 95.262,158.115 -0.943,0 0,-0.914 -0.023,0 c -0.477,0.707 -1.129,1.061 -1.957,1.061 -0.434,0 -0.835,-0.102 -1.204,-0.303 -0.369,-0.201 -0.615,-0.479 -0.738,-0.832 -0.123,-0.353 -0.185,-0.811 -0.185,-1.373 l 0,-3.855 1.055,0 0,3.445 c 0,0.551 0.026,0.945 0.079,1.184 0.053,0.239 0.19,0.434 0.413,0.588 0.223,0.154 0.488,0.232 0.797,0.232 0.398,0 0.773,-0.139 1.125,-0.414 0.352,-0.275 0.527,-0.846 0.527,-1.713 l 0,-3.322 1.055,0 0,6.216 z"
               inkscape:connector-curvature="0"
               style="fill:#ffffff" />
            <path
               id="path1490-1"
               d="m 100.641,158.115 -1.055,0 0,-7.775 -2.051,0 0,-0.814 3.105,0 0,8.589 z"
               inkscape:connector-curvature="0"
               style="fill:#ffffff" />
            <path
               id="path1492-4"
               d="m 115.131,158.115 -1.061,0 0,-5.402 -2.051,0 0,-0.814 3.111,0 0,6.216 z m 0.059,-7.271 -1.178,0 0,-1.318 1.178,0 0,1.318 z"
               inkscape:connector-curvature="0"
               style="fill:#ffffff" />
            <path
               id="path1494-5"
               d="m 124.055,158.115 -0.984,0 0,-0.791 -0.023,0 c -0.379,0.625 -0.949,0.938 -1.711,0.938 -0.762,0 -1.398,-0.303 -1.91,-0.906 -0.512,-0.603 -0.768,-1.385 -0.768,-2.346 0,-1.004 0.24,-1.797 0.721,-2.379 0.481,-0.582 1.115,-0.873 1.904,-0.873 0.742,0 1.307,0.283 1.693,0.85 l 0.023,0 0,-3.082 1.055,0 0,8.589 z m -2.613,-0.72 c 0.461,0 0.853,-0.189 1.175,-0.568 0.322,-0.379 0.483,-0.953 0.483,-1.723 0,-0.758 -0.147,-1.361 -0.442,-1.811 -0.295,-0.45 -0.716,-0.674 -1.263,-0.674 -0.543,0 -0.955,0.219 -1.236,0.658 -0.281,0.439 -0.422,1.018 -0.422,1.732 0,0.785 0.166,1.379 0.498,1.781 0.332,0.402 0.734,0.605 1.207,0.605 z"
               inkscape:connector-curvature="0"
               style="fill:#ffffff" />
            <path
               id="path1496-2"
               d="m 131.596,153.064 -5.689,0 0,-0.984 5.689,0 0,0.984 z m 0,2.614 -5.689,0 0,-0.984 5.689,0 0,0.984 z"
               inkscape:connector-curvature="0"
               style="fill:#ffffff" />
            <path
               id="path1498-0"
               d="m 135.293,150.967 c 0,0.496 -0.095,0.875 -0.284,1.137 -0.189,0.262 -0.423,0.447 -0.7,0.557 l -0.287,-0.445 c 0.438,-0.188 0.656,-0.604 0.656,-1.248 l -0.586,0 0,-1.441 1.201,0 0,1.44 z m 2.362,0 c 0,0.496 -0.095,0.875 -0.284,1.137 -0.189,0.262 -0.423,0.447 -0.7,0.557 l -0.287,-0.445 c 0.438,-0.188 0.658,-0.604 0.662,-1.248 l -0.592,0 0,-1.441 1.201,0 0,1.44 z"
               inkscape:connector-curvature="0"
               style="fill:#ffffff" />
            <path
               id="path1500-2"
               d="m 145.7,158.115 -1.061,0 0,-3.779 c 0,-0.637 -0.114,-1.074 -0.343,-1.313 -0.229,-0.239 -0.546,-0.357 -0.952,-0.357 -0.523,0 -0.933,0.188 -1.228,0.564 -0.295,0.376 -0.442,0.873 -0.442,1.486 l 0,3.398 -1.055,0 0,-6.217 0.949,0 0,0.879 0.023,0 c 0.449,-0.68 1.105,-1.02 1.969,-1.02 0.328,0 0.652,0.059 0.973,0.176 0.321,0.117 0.571,0.293 0.753,0.527 0.182,0.234 0.296,0.484 0.343,0.75 0.047,0.266 0.07,0.625 0.07,1.078 l 0,3.828 z"
               inkscape:connector-curvature="0"
               style="fill:#ffffff" />
            <path
               id="path1502-4"
               d="m 153.27,158.115 -1.101,0 c -0.105,-0.195 -0.178,-0.451 -0.217,-0.768 -0.711,0.609 -1.475,0.914 -2.291,0.914 -0.656,0 -1.175,-0.164 -1.556,-0.492 -0.381,-0.328 -0.571,-0.762 -0.571,-1.301 0,-0.516 0.183,-0.941 0.548,-1.275 0.365,-0.334 0.999,-0.555 1.901,-0.664 l 0.984,-0.146 c 0.371,-0.059 0.674,-0.131 0.908,-0.217 0,-0.316 -0.009,-0.541 -0.026,-0.672 -0.017,-0.131 -0.074,-0.266 -0.17,-0.406 -0.096,-0.14 -0.25,-0.254 -0.463,-0.34 -0.213,-0.086 -0.497,-0.129 -0.853,-0.129 -0.453,0 -0.812,0.084 -1.075,0.252 -0.263,0.168 -0.444,0.48 -0.542,0.938 l -1.031,-0.135 c 0.234,-1.277 1.17,-1.916 2.807,-1.916 0.746,0 1.295,0.109 1.646,0.33 0.351,0.221 0.567,0.488 0.647,0.801 0.08,0.313 0.12,0.715 0.12,1.207 l 0,1.418 c 0,0.863 0.016,1.441 0.047,1.736 0.031,0.295 0.128,0.584 0.288,0.865 z m -1.395,-2.736 0,-0.381 c -0.551,0.184 -1.224,0.328 -2.019,0.436 -0.795,0.108 -1.192,0.445 -1.192,1.012 0,0.285 0.107,0.52 0.322,0.705 0.215,0.185 0.523,0.279 0.926,0.279 0.52,0 0.977,-0.156 1.371,-0.467 0.394,-0.311 0.592,-0.838 0.592,-1.584 z"
               inkscape:connector-curvature="0"
               style="fill:#ffffff" />
            <path
               id="path1504-1"
               d="m 160.518,151.898 -2.473,6.217 -0.984,0 -2.484,-6.217 1.119,0 1.359,3.492 c 0.25,0.648 0.408,1.145 0.475,1.488 l 0.023,0 c 0.102,-0.398 0.236,-0.811 0.404,-1.236 l 1.482,-3.744 1.079,0 z"
               inkscape:connector-curvature="0"
               style="fill:#ffffff" />
            <path
               id="path1506-6"
               d="m 164.098,150.967 c 0,0.496 -0.095,0.875 -0.284,1.137 -0.189,0.262 -0.423,0.447 -0.7,0.557 l -0.287,-0.445 c 0.438,-0.188 0.656,-0.604 0.656,-1.248 l -0.586,0 0,-1.441 1.201,0 0,1.44 z m 2.361,0 c 0,0.496 -0.095,0.875 -0.284,1.137 -0.189,0.262 -0.423,0.447 -0.7,0.557 l -0.287,-0.445 c 0.438,-0.188 0.658,-0.604 0.662,-1.248 l -0.592,0 0,-1.441 1.201,0 0,1.44 z"
               inkscape:connector-curvature="0"
               style="fill:#ffffff" />
            <path
               id="path1508-9"
               d="m 169.137,156.785 0,-1.049 4.512,-1.869 -4.512,-1.846 0,-1.049 5.689,2.402 0,0.984 -5.689,2.427 z"
               inkscape:connector-curvature="0"
               style="fill:#ffffff" />
          </g>
        </g>
        <g
           style="fill:#ffffff"
           id="g1934">
          <path
             style="fill:#ffffff"
             inkscape:connector-curvature="0"
             d="m 117.17,171.185 -5.689,-2.426 0,-0.984 5.689,-2.402 0,1.049 -4.512,1.846 4.512,1.869 0,1.048 z"
             id="path1510-1" />
          <path
             style="fill:#ffffff"
             inkscape:connector-curvature="0"
             d="m 122.245,172.515 -1.055,0 0,-7.775 -2.051,0 0,-0.814 3.105,0 0,8.589 z"
             id="path1512-9" />
          <path
             style="fill:#ffffff"
             inkscape:connector-curvature="0"
             d="m 129.534,172.515 -1.061,0 0,-5.402 -2.051,0 0,-0.814 3.111,0 0,6.216 z m 0.058,-7.272 -1.178,0 0,-1.318 1.178,0 0,1.318 z"
             id="path1514-2" />
          <path
             style="fill:#ffffff"
             inkscape:connector-curvature="0"
             d="m 133.131,171.185 0,-1.049 4.512,-1.869 -4.512,-1.846 0,-1.049 5.689,2.402 0,0.984 -5.689,2.427 z"
             id="path1516-1" />
          <path
             style="fill:#ffffff"
             inkscape:connector-curvature="0"
             d="m 145.975,185.584 -5.689,-2.426 0,-0.984 5.689,-2.402 0,1.049 -4.512,1.846 4.512,1.869 0,1.048 z"
             id="path1518-8" />
          <path
             style="fill:#ffffff"
             inkscape:connector-curvature="0"
             d="m 153.27,186.914 -1.101,0 c -0.105,-0.195 -0.178,-0.451 -0.217,-0.768 -0.711,0.609 -1.475,0.914 -2.291,0.914 -0.656,0 -1.175,-0.164 -1.556,-0.492 -0.381,-0.328 -0.571,-0.762 -0.571,-1.301 0,-0.516 0.183,-0.939 0.548,-1.273 0.365,-0.334 0.999,-0.557 1.901,-0.666 l 0.984,-0.146 c 0.371,-0.059 0.674,-0.131 0.908,-0.217 0,-0.316 -0.009,-0.539 -0.026,-0.67 -0.017,-0.131 -0.074,-0.268 -0.17,-0.408 -0.096,-0.14 -0.25,-0.254 -0.463,-0.34 -0.213,-0.086 -0.497,-0.129 -0.853,-0.129 -0.453,0 -0.812,0.084 -1.075,0.252 -0.263,0.168 -0.444,0.48 -0.542,0.938 l -1.031,-0.135 c 0.234,-1.277 1.17,-1.916 2.807,-1.916 0.746,0 1.295,0.111 1.646,0.332 0.351,0.221 0.567,0.486 0.647,0.799 0.08,0.313 0.12,0.715 0.12,1.207 l 0,1.418 c 0,0.863 0.016,1.443 0.047,1.738 0.031,0.295 0.128,0.582 0.288,0.863 z m -1.395,-2.736 0,-0.381 c -0.551,0.184 -1.224,0.33 -2.019,0.438 -0.795,0.108 -1.192,0.443 -1.192,1.01 0,0.285 0.107,0.521 0.322,0.707 0.215,0.186 0.523,0.277 0.926,0.277 0.52,0 0.977,-0.154 1.371,-0.465 0.394,-0.311 0.592,-0.84 0.592,-1.586 z"
             id="path1520-6" />
          <path
             style="fill:#ffffff"
             inkscape:connector-curvature="0"
             d="m 174.908,181.43 -0.621,0.791 c -0.352,-0.473 -0.863,-0.709 -1.535,-0.709 -0.484,0 -0.89,0.188 -1.216,0.561 -0.326,0.373 -0.489,0.814 -0.489,1.326 l 0,3.516 -1.055,0 0,-4.453 c 0,-0.621 -0.16,-1.105 -0.48,-1.453 l 0.896,-0.451 c 0.309,0.344 0.48,0.723 0.516,1.137 l 0.023,0 c 0.215,-0.336 0.499,-0.609 0.853,-0.82 0.354,-0.211 0.71,-0.316 1.069,-0.316 0.844,-0.002 1.524,0.289 2.039,0.871 z"
             id="path1524-4" />
          <path
             style="fill:#ffffff"
             inkscape:connector-curvature="0"
             d="m 182.086,184.072 -4.658,0 c 0.047,0.688 0.245,1.213 0.595,1.576 0.35,0.363 0.784,0.545 1.304,0.545 0.805,0 1.354,-0.428 1.646,-1.283 l 1.078,0.135 c -0.176,0.648 -0.498,1.146 -0.967,1.494 -0.469,0.348 -1.055,0.521 -1.758,0.521 -0.934,0 -1.663,-0.285 -2.188,-0.857 -0.525,-0.572 -0.788,-1.355 -0.788,-2.348 0,-1 0.261,-1.799 0.782,-2.398 0.521,-0.599 1.233,-0.9 2.136,-0.9 0.855,0 1.539,0.285 2.051,0.854 0.512,0.569 0.768,1.41 0.768,2.527 l 0,0.134 z m -1.078,-0.867 c -0.047,-0.633 -0.244,-1.088 -0.592,-1.367 -0.348,-0.279 -0.73,-0.42 -1.148,-0.42 -0.496,0 -0.904,0.166 -1.225,0.498 -0.321,0.332 -0.504,0.762 -0.551,1.289 l 3.516,0 z"
             id="path1526-3" />
          <path
             style="fill:#ffffff"
             inkscape:connector-curvature="0"
             d="m 196.406,181.863 -5.689,0 0,-0.984 5.689,0 0,0.984 z m 0,2.614 -5.689,0 0,-0.984 5.689,0 0,0.984 z"
             id="path1530-1" />
          <path
             style="fill:#ffffff"
             inkscape:connector-curvature="0"
             d="m 207.961,180.557 c 0.84,0 1.536,0.273 2.089,0.82 0.553,0.547 0.829,1.324 0.829,2.332 0,1.223 -0.299,2.088 -0.896,2.594 -0.597,0.506 -1.271,0.758 -2.021,0.758 -0.785,0 -1.467,-0.26 -2.045,-0.779 -0.578,-0.519 -0.867,-1.344 -0.867,-2.473 0,-0.715 0.121,-1.313 0.363,-1.793 0.242,-0.48 0.595,-0.844 1.058,-1.09 0.463,-0.246 0.959,-0.369 1.49,-0.369 z m 0,5.636 c 0.602,0 1.059,-0.223 1.371,-0.668 0.312,-0.445 0.469,-1.031 0.469,-1.758 0,-0.742 -0.171,-1.318 -0.513,-1.73 -0.342,-0.412 -0.784,-0.619 -1.327,-0.619 -0.535,0 -0.975,0.201 -1.318,0.602 -0.343,0.401 -0.516,0.996 -0.516,1.789 0,0.789 0.175,1.385 0.524,1.785 0.349,0.4 0.787,0.599 1.31,0.599 z"
             id="path1534-9" />
          <path
             style="fill:#ffffff"
             inkscape:connector-curvature="0"
             d="m 217.711,186.914 -1.061,0 0,-3.779 c 0,-0.637 -0.114,-1.074 -0.343,-1.313 -0.229,-0.239 -0.546,-0.357 -0.952,-0.357 -0.523,0 -0.933,0.189 -1.228,0.566 -0.295,0.377 -0.442,0.871 -0.442,1.484 l 0,3.398 -1.055,0 0,-6.217 0.949,0 0,0.879 0.023,0 c 0.449,-0.68 1.105,-1.02 1.969,-1.02 0.328,0 0.652,0.059 0.973,0.176 0.321,0.117 0.571,0.293 0.753,0.527 0.182,0.234 0.296,0.484 0.343,0.75 0.047,0.266 0.07,0.625 0.07,1.078 l 0,3.828 z"
             id="path1536-6" />
          <path
             style="fill:#ffffff"
             inkscape:connector-curvature="0"
             d="m 225.293,184.072 -4.658,0 c 0.047,0.688 0.245,1.213 0.595,1.576 0.35,0.363 0.784,0.545 1.304,0.545 0.805,0 1.354,-0.428 1.646,-1.283 l 1.078,0.135 c -0.176,0.648 -0.498,1.146 -0.967,1.494 -0.469,0.348 -1.055,0.521 -1.758,0.521 -0.934,0 -1.663,-0.285 -2.188,-0.857 -0.525,-0.572 -0.788,-1.355 -0.788,-2.348 0,-1 0.261,-1.799 0.782,-2.398 0.521,-0.599 1.233,-0.9 2.136,-0.9 0.855,0 1.539,0.285 2.051,0.854 0.512,0.569 0.768,1.41 0.768,2.527 l 0,0.134 z m -1.078,-0.867 c -0.047,-0.633 -0.244,-1.088 -0.592,-1.367 -0.348,-0.279 -0.73,-0.42 -1.148,-0.42 -0.496,0 -0.904,0.166 -1.225,0.498 -0.321,0.332 -0.504,0.762 -0.551,1.289 l 3.516,0 z"
             id="path1538-1" />
          <path
             style="fill:#ffffff"
             inkscape:connector-curvature="0"
             d="m 241.148,185.584 0,-1.049 4.512,-1.869 -4.512,-1.846 0,-1.049 5.689,2.402 0,0.984 -5.689,2.427 z"
             id="path1544-9" />
          <path
             style="fill:#ffffff"
             inkscape:connector-curvature="0"
             d="m 117.17,199.984 -5.689,-2.426 0,-0.984 5.689,-2.402 0,1.049 -4.512,1.846 4.512,1.869 0,1.048 z"
             id="path1560-9" />
          <path
             style="fill:#ffffff"
             inkscape:connector-curvature="0"
             d="m 123.217,192.725 -2.484,8.877 -0.85,0 2.484,-8.877 0.85,0 z"
             id="path1562-2" />
          <path
             style="fill:#ffffff"
             inkscape:connector-curvature="0"
             d="m 129.446,201.314 -1.055,0 0,-7.775 -2.051,0 0,-0.814 3.105,0 0,8.589 z"
             id="path1564-7" />
          <path
             style="fill:#ffffff"
             inkscape:connector-curvature="0"
             d="m 136.735,201.314 -1.061,0 0,-5.402 -2.051,0 0,-0.814 3.111,0 0,6.216 z m 0.058,-7.271 -1.178,0 0,-1.318 1.178,0 0,1.318 z"
             id="path1566-0" />
          <path
             style="fill:#ffffff"
             inkscape:connector-curvature="0"
             d="m 140.333,199.984 0,-1.049 4.512,-1.869 -4.512,-1.846 0,-1.049 5.689,2.402 0,0.984 -5.689,2.427 z"
             id="path1568-0" />
          <path
             style="fill:#ffffff"
             inkscape:connector-curvature="0"
             d="m 117.17,214.385 -5.689,-2.426 0,-0.984 5.689,-2.402 0,1.049 -4.512,1.846 4.512,1.869 0,1.048 z"
             id="path1570-7" />
          <path
             style="fill:#ffffff"
             inkscape:connector-curvature="0"
             d="m 122.245,215.715 -1.055,0 0,-7.775 -2.051,0 0,-0.814 3.105,0 0,8.589 z"
             id="path1572-3" />
          <path
             style="fill:#ffffff"
             inkscape:connector-curvature="0"
             d="m 129.534,215.715 -1.061,0 0,-5.402 -2.051,0 0,-0.814 3.111,0 0,6.216 z m 0.058,-7.272 -1.178,0 0,-1.318 1.178,0 0,1.318 z"
             id="path1574-9" />
          <path
             style="fill:#ffffff"
             inkscape:connector-curvature="0"
             d="m 133.131,214.385 0,-1.049 4.512,-1.869 -4.512,-1.846 0,-1.049 5.689,2.402 0,0.984 -5.689,2.427 z"
             id="path1576-9" />
          <path
             style="fill:#ffffff"
             inkscape:connector-curvature="0"
             d="m 145.975,228.785 -5.689,-2.426 0,-0.984 5.689,-2.402 0,1.049 -4.512,1.846 4.512,1.869 0,1.048 z"
             id="path1578-6" />
          <path
             style="fill:#ffffff"
             inkscape:connector-curvature="0"
             d="m 153.27,230.115 -1.101,0 c -0.105,-0.195 -0.178,-0.451 -0.217,-0.768 -0.711,0.609 -1.475,0.914 -2.291,0.914 -0.656,0 -1.175,-0.164 -1.556,-0.492 -0.381,-0.328 -0.571,-0.762 -0.571,-1.301 0,-0.516 0.183,-0.941 0.548,-1.275 0.365,-0.334 0.999,-0.555 1.901,-0.664 l 0.984,-0.146 c 0.371,-0.059 0.674,-0.131 0.908,-0.217 0,-0.316 -0.009,-0.541 -0.026,-0.672 -0.017,-0.131 -0.074,-0.266 -0.17,-0.406 -0.096,-0.14 -0.25,-0.254 -0.463,-0.34 -0.213,-0.086 -0.497,-0.129 -0.853,-0.129 -0.453,0 -0.812,0.084 -1.075,0.252 -0.263,0.168 -0.444,0.48 -0.542,0.938 l -1.031,-0.135 c 0.234,-1.277 1.17,-1.916 2.807,-1.916 0.746,0 1.295,0.109 1.646,0.33 0.351,0.221 0.567,0.488 0.647,0.801 0.08,0.313 0.12,0.715 0.12,1.207 l 0,1.418 c 0,0.863 0.016,1.441 0.047,1.736 0.031,0.295 0.128,0.584 0.288,0.865 z m -1.395,-2.736 0,-0.381 c -0.551,0.184 -1.224,0.328 -2.019,0.436 -0.795,0.108 -1.192,0.445 -1.192,1.012 0,0.285 0.107,0.52 0.322,0.705 0.215,0.185 0.523,0.279 0.926,0.279 0.52,0 0.977,-0.156 1.371,-0.467 0.394,-0.311 0.592,-0.838 0.592,-1.584 z"
             id="path1580-9" />
          <path
             style="fill:#ffffff"
             inkscape:connector-curvature="0"
             d="m 167.303,230.115 -1.061,0 0,-3.926 c 0,-1.016 -0.436,-1.523 -1.307,-1.523 -0.43,0 -0.813,0.148 -1.151,0.447 -0.338,0.299 -0.507,0.834 -0.507,1.604 l 0,3.398 -1.055,0 0,-8.59 1.055,0 0,3.082 c 0.5,-0.566 1.125,-0.85 1.875,-0.85 0.402,0 0.787,0.082 1.154,0.246 0.367,0.164 0.625,0.416 0.773,0.756 0.148,0.34 0.223,0.813 0.223,1.418 l 0,3.938 z"
             id="path1582-8" />
          <path
             style="fill:#ffffff"
             inkscape:connector-curvature="0"
             d="m 174.908,224.631 -0.621,0.791 c -0.352,-0.473 -0.863,-0.709 -1.535,-0.709 -0.484,0 -0.89,0.186 -1.216,0.559 -0.326,0.373 -0.489,0.816 -0.489,1.328 l 0,3.516 -1.055,0 0,-4.453 c 0,-0.621 -0.16,-1.105 -0.48,-1.453 l 0.896,-0.451 c 0.309,0.344 0.48,0.723 0.516,1.137 l 0.023,0 c 0.215,-0.336 0.499,-0.609 0.853,-0.82 0.354,-0.211 0.71,-0.316 1.069,-0.316 0.844,-0.002 1.524,0.289 2.039,0.871 z"
             id="path1584-4" />
          <path
             style="fill:#ffffff"
             inkscape:connector-curvature="0"
             d="m 182.086,227.273 -4.658,0 c 0.047,0.688 0.245,1.213 0.595,1.576 0.35,0.363 0.784,0.545 1.304,0.545 0.805,0 1.354,-0.428 1.646,-1.283 l 1.078,0.135 c -0.176,0.648 -0.498,1.146 -0.967,1.494 -0.469,0.348 -1.055,0.521 -1.758,0.521 -0.934,0 -1.663,-0.287 -2.188,-0.859 -0.525,-0.572 -0.788,-1.354 -0.788,-2.346 0,-1 0.261,-1.801 0.782,-2.4 0.521,-0.599 1.233,-0.898 2.136,-0.898 0.855,0 1.539,0.283 2.051,0.852 0.512,0.569 0.768,1.412 0.768,2.529 l 0,0.134 z m -1.078,-0.867 c -0.047,-0.633 -0.244,-1.09 -0.592,-1.369 -0.348,-0.279 -0.73,-0.418 -1.148,-0.418 -0.496,0 -0.904,0.166 -1.225,0.498 -0.321,0.332 -0.504,0.762 -0.551,1.289 l 3.516,0 z"
             id="path1586-3" />
          <path
             style="fill:#ffffff"
             inkscape:connector-curvature="0"
             d="m 189.205,221.502 -0.158,0.885 c -0.566,-0.063 -1.059,-0.094 -1.477,-0.094 -0.68,0 -1.02,0.34 -1.02,1.02 l 0,0.586 2.197,0 0,0.814 -2.197,0 0,5.402 -1.055,0 0,-5.402 -1.705,0 0,-0.814 1.705,0 0,-0.633 c 0,-0.586 0.173,-1.047 0.519,-1.383 0.346,-0.336 0.845,-0.504 1.497,-0.504 0.516,0 1.081,0.041 1.694,0.123 z"
             id="path1588-1" />
          <path
             style="fill:#ffffff"
             inkscape:connector-curvature="0"
             d="m 196.406,225.064 -5.689,0 0,-0.984 5.689,0 0,0.984 z m 0,2.614 -5.689,0 0,-0.984 5.689,0 0,0.984 z"
             id="path1590-6" />
          <path
             style="fill:#ffffff"
             inkscape:connector-curvature="0"
             d="m 200.104,222.967 c 0,0.496 -0.095,0.875 -0.284,1.137 -0.189,0.262 -0.423,0.447 -0.7,0.557 l -0.287,-0.445 c 0.438,-0.188 0.656,-0.604 0.656,-1.248 l -0.586,0 0,-1.441 1.201,0 0,1.44 z m 2.361,0 c 0,0.496 -0.095,0.875 -0.284,1.137 -0.189,0.262 -0.423,0.447 -0.7,0.557 l -0.287,-0.445 c 0.438,-0.188 0.658,-0.604 0.662,-1.248 l -0.592,0 0,-1.441 1.201,0 0,1.44 z"
             id="path1592-6" />
          <path
             style="fill:#ffffff"
             inkscape:connector-curvature="0"
             d="m 210.434,229.957 c -0.348,0.16 -0.871,0.24 -1.57,0.24 -0.684,0 -1.211,-0.176 -1.582,-0.527 -0.371,-0.351 -0.557,-0.832 -0.557,-1.441 l 0,-3.516 -1.547,0 0,-0.814 1.547,0 0,-1.547 1.061,-0.639 0,2.186 2.191,0 0,0.814 -2.191,0 0,3.434 c 0,0.371 0.102,0.654 0.305,0.85 0.203,0.196 0.488,0.293 0.855,0.293 0.48,0 0.926,-0.072 1.336,-0.217 l 0.152,0.884 z"
             id="path1594-6" />
          <path
             style="fill:#ffffff"
             inkscape:connector-curvature="0"
             d="m 218.719,223.898 -1.43,6.217 -1.066,0 -1.061,-4.887 -0.984,4.887 -1.09,0 -1.477,-6.217 1.031,0 c 0.488,2.395 0.752,3.709 0.791,3.943 l 0.17,1.049 c 0.109,-0.742 0.186,-1.205 0.229,-1.389 l 0.814,-3.604 1.096,0 c 0.539,2.449 0.822,3.754 0.85,3.916 0.028,0.162 0.068,0.518 0.123,1.064 0.098,-0.664 0.152,-1.027 0.164,-1.09 l 0.879,-3.891 0.961,0 z"
             id="path1596" />
          <path
             style="fill:#ffffff"
             inkscape:connector-curvature="0"
             d="m 222.363,223.758 c 0.84,0 1.536,0.273 2.089,0.82 0.553,0.547 0.829,1.324 0.829,2.332 0,1.223 -0.299,2.086 -0.896,2.592 -0.597,0.506 -1.271,0.76 -2.021,0.76 -0.785,0 -1.467,-0.26 -2.045,-0.779 -0.578,-0.519 -0.867,-1.344 -0.867,-2.473 0,-0.715 0.121,-1.313 0.363,-1.793 0.242,-0.48 0.595,-0.844 1.058,-1.09 0.463,-0.246 0.959,-0.369 1.49,-0.369 z m 0,5.637 c 0.602,0 1.059,-0.223 1.371,-0.668 0.312,-0.445 0.469,-1.031 0.469,-1.758 0,-0.742 -0.171,-1.32 -0.513,-1.732 -0.342,-0.412 -0.784,-0.617 -1.327,-0.617 -0.535,0 -0.975,0.199 -1.318,0.6 -0.343,0.401 -0.516,0.998 -0.516,1.791 0,0.789 0.175,1.383 0.524,1.783 0.349,0.4 0.787,0.601 1.31,0.601 z"
             id="path1598" />
          <path
             style="fill:#ffffff"
             inkscape:connector-curvature="0"
             d="m 231.234,221.525 -2.484,8.877 -0.85,0 2.484,-8.877 0.85,0 z"
             id="path1600" />
          <path
             style="fill:#ffffff"
             inkscape:connector-curvature="0"
             d="m 236.109,222.967 c 0,0.496 -0.095,0.875 -0.284,1.137 -0.189,0.262 -0.423,0.447 -0.7,0.557 l -0.287,-0.445 c 0.438,-0.188 0.656,-0.604 0.656,-1.248 l -0.586,0 0,-1.441 1.201,0 0,1.44 z m 2.362,0 c 0,0.496 -0.095,0.875 -0.284,1.137 -0.189,0.262 -0.423,0.447 -0.7,0.557 l -0.287,-0.445 c 0.438,-0.188 0.658,-0.604 0.662,-1.248 l -0.592,0 0,-1.441 1.201,0 0,1.44 z"
             id="path1602" />
          <path
             style="fill:#ffffff"
             inkscape:connector-curvature="0"
             d="m 241.148,228.785 0,-1.049 4.512,-1.869 -4.512,-1.846 0,-1.049 5.689,2.402 0,0.984 -5.689,2.427 z"
             id="path1604" />
          <path
             style="fill:#ffffff"
             inkscape:connector-curvature="0"
             d="m 254.35,222.545 -2.602,0 0,7.57 -1.143,0 0,-7.57 -2.578,0 0,-1.02 6.322,0 0,1.02 z"
             id="path1606" />
          <path
             style="fill:#ffffff"
             inkscape:connector-curvature="0"
             d="m 117.17,243.186 -5.689,-2.426 0,-0.984 5.689,-2.402 0,1.049 -4.512,1.846 4.512,1.869 0,1.048 z"
             id="path1620" />
          <path
             style="fill:#ffffff"
             inkscape:connector-curvature="0"
             d="m 123.217,235.926 -2.484,8.877 -0.85,0 2.484,-8.877 0.85,0 z"
             id="path1622" />
          <path
             style="fill:#ffffff"
             inkscape:connector-curvature="0"
             d="m 129.446,244.516 -1.055,0 0,-7.775 -2.051,0 0,-0.814 3.105,0 0,8.589 z"
             id="path1624" />
          <path
             style="fill:#ffffff"
             inkscape:connector-curvature="0"
             d="m 136.735,244.516 -1.061,0 0,-5.402 -2.051,0 0,-0.814 3.111,0 0,6.216 z m 0.058,-7.272 -1.178,0 0,-1.318 1.178,0 0,1.318 z"
             id="path1626" />
          <path
             style="fill:#ffffff"
             inkscape:connector-curvature="0"
             d="m 140.333,243.186 0,-1.049 4.512,-1.869 -4.512,-1.846 0,-1.049 5.689,2.402 0,0.984 -5.689,2.427 z"
             id="path1628" />
        </g>
      </g>
    </g>
    <g
       id="g3786"
       transform="translate(-0.50507627,0.25253814)">
      <path
         id="path914"
         d="m 60.894229,1007.9568 -18.40394,-18.70263 0.24343,15.74693 c 0.02787,1.803 1.270392,3.2453 2.819614,3.2187 l 15.340896,-0.263 z"
         style="opacity:0.7;fill:#000000;fill-opacity:1;stroke:none"
         inkscape:connector-curvature="0" />
      <path
         inkscape:connector-curvature="0"
         style="fill:url(#linearGradient3790);fill-opacity:1;stroke:none"
         d="m 60.200418,1007.202 -16.851,-17.12448 0.222888,14.41828 c 0.02553,1.6508 1.163194,2.9714 2.581687,2.947 l 14.046425,-0.2408 z"
         id="path902" />
    </g>
    <path
       inkscape:connector-curvature="0"
       style="fill:url(#linearGradient3020);fill-opacity:1;stroke:none"
       d="m -12.301,1044.6554 0,18.0152 c 0,2.5783 1.168922,4.6706 2.6533683,4.6706 l 67.2892747,0 c 1.484473,0 2.653357,-2.0923 2.653357,-4.6706 l 0,-18.0152 -72.596,0 z"
       id="path874" />
    <g
       transform="matrix(2.399176,0,0,2.399176,-49.308456,964.06487)"
       style="font-size:7.5px;font-style:normal;font-variant:normal;font-weight:bold;font-stretch:normal;line-height:125%;letter-spacing:0px;word-spacing:0px;fill:#ffffff;fill-opacity:1;stroke:none;font-family:Impact;-inkscape-font-specification:Impact Bold"
       id="text2541">
      <path
         d="m 22.388309,36.794411 -1.431884,0 0,-0.439453 q 0,-0.307618 -0.05493,-0.391846 -0.05493,-0.08423 -0.183105,-0.08423 -0.139161,0 -0.212403,0.113526 -0.06958,0.113525 -0.06958,0.344238 0,0.296631 0.08057,0.446777 0.0769,0.150147 0.435791,0.362549 1.029052,0.611572 1.296386,1.003418 0.267334,0.391846 0.267334,1.263428 0,0.633545 -0.150146,0.933838 -0.146485,0.300293 -0.571289,0.505371 -0.424805,0.201416 -0.98877,0.201416 -0.618896,0 -1.058349,-0.234375 -0.435791,-0.234375 -0.571289,-0.596924 -0.135498,-0.362549 -0.135498,-1.029053 l 0,-0.388183 1.431884,0 0,0.721435 q 0,0.333252 0.05859,0.428467 0.06226,0.09522 0.216064,0.09522 0.153809,0 0.227051,-0.12085 0.07691,-0.120849 0.07691,-0.358886 0,-0.523682 -0.142823,-0.684815 -0.146484,-0.161133 -0.721435,-0.53833 -0.574951,-0.380859 -0.761719,-0.552978 -0.186768,-0.17212 -0.311279,-0.476075 -0.12085,-0.303955 -0.12085,-0.776367 0,-0.681152 0.172119,-0.996094 0.175781,-0.314941 0.563965,-0.490722 0.388184,-0.179444 0.9375,-0.179444 0.600586,0 1.021729,0.194092 0.424804,0.194092 0.560302,0.490723 0.13916,0.292969 0.13916,0.999756 l -6e-6,0.234371 z"
         id="path2546"
         inkscape:connector-curvature="0" />
      <path
         d="m 26.526493,38.471657 q 0,0.893554 -0.04394,1.26709 -0.04028,0.369873 -0.263672,0.67749 -0.219727,0.307617 -0.596924,0.472412 -0.377197,0.164795 -0.878906,0.164795 -0.476074,0 -0.856934,-0.153809 -0.377197,-0.15747 -0.60791,-0.46875 -0.230713,-0.311279 -0.274658,-0.67749 -0.04395,-0.366211 -0.04395,-1.281738 l 0,-1.014404 q 0,-0.893555 0.04028,-1.263428 0.04395,-0.373535 0.263672,-0.681153 0.223388,-0.307617 0.600586,-0.472412 0.377197,-0.164795 0.878906,-0.164795 0.476074,0 0.853271,0.157471 0.38086,0.153809 0.611573,0.465088 0.230712,0.311279 0.274658,0.67749 0.04394,0.366211 0.04394,1.281739 l 8e-6,1.014404 z m -1.541748,-1.948242 q 0,-0.413819 -0.04761,-0.527344 -0.04395,-0.117188 -0.186768,-0.117188 -0.12085,0 -0.186768,0.09521 -0.06226,0.09155 -0.06226,0.549317 l 0,2.768554 q 0,0.516358 0.04028,0.637207 0.04394,0.12085 0.197754,0.12085 0.15747,0 0.201416,-0.13916 0.04395,-0.13916 0.04395,-0.662842 l 6e-6,-2.724604 z"
         id="path2548"
         inkscape:connector-curvature="0" />
      <path
         d="m 30.609745,34.999977 0,3.962402 q 0,0.673829 -0.04395,0.948487 -0.04395,0.270996 -0.26001,0.560303 -0.216065,0.285644 -0.571289,0.435791 -0.351563,0.146484 -0.831299,0.146484 -0.531006,0 -0.9375,-0.175781 -0.406494,-0.175782 -0.60791,-0.457764 -0.201416,-0.281982 -0.238037,-0.593262 -0.03662,-0.314941 -0.03662,-1.318359 l 0,-3.508301 1.541748,0 0,4.445801 q 0,0.388183 0.04028,0.498047 0.04395,0.106201 0.172119,0.106201 0.146484,0 0.186768,-0.117188 0.04394,-0.120849 0.04394,-0.563964 l 0,-4.368897 1.54176,0 z"
         id="path2550"
         inkscape:connector-curvature="0" />
      <path
         d="m 31.206669,34.999977 1.091308,0 q 1.091309,0 1.475831,0.08423 0.388183,0.08423 0.629882,0.432129 0.245362,0.344238 0.245362,1.102294 0,0.692139 -0.172119,0.930176 -0.17212,0.238037 -0.677491,0.285645 0.457764,0.113525 0.615235,0.303955 0.15747,0.19043 0.194091,0.351562 0.04028,0.157471 0.04028,0.875244 l 0,1.563721 -1.431885,0 0,-1.970215 q 0,-0.476074 -0.0769,-0.589599 -0.07324,-0.113526 -0.391846,-0.113526 l 0,2.67334 -1.541748,0 0,-5.928956 z m 1.541748,1.014404 0,1.31836 q 0.26001,0 0.362549,-0.06958 0.106201,-0.07324 0.106201,-0.465088 l 0,-0.325928 q 0,-0.281982 -0.102539,-0.369873 -0.09888,-0.08789 -0.366211,-0.08789 z"
         id="path2552"
         inkscape:connector-curvature="0" />
      <path
         d="m 38.849491,37.585426 -1.541748,0 0,-1.032715 q 0,-0.450439 -0.05127,-0.560302 -0.04761,-0.113526 -0.216065,-0.113526 -0.19043,0 -0.241699,0.135498 -0.05127,0.135498 -0.05127,0.585938 l 0,2.753906 q 0,0.432129 0.05127,0.563965 0.05127,0.131836 0.230713,0.131836 0.172119,0 0.223388,-0.131836 0.05493,-0.131836 0.05493,-0.618896 l 0,-0.743409 1.541748,0 0,0.230713 q 0,0.91919 -0.131836,1.303711 -0.128174,0.384522 -0.574951,0.673828 -0.443115,0.289307 -1.094971,0.289307 -0.67749,0 -1.116943,-0.245361 -0.439453,-0.245362 -0.582275,-0.677491 -0.142823,-0.435791 -0.142823,-1.307373 l 0,-1.732177 q 0,-0.64087 0.04395,-0.959473 0.04395,-0.322266 0.260009,-0.618897 0.219727,-0.29663 0.604248,-0.465087 0.388184,-0.17212 0.889893,-0.17212 0.681152,0 1.124268,0.263672 0.443115,0.263672 0.582275,0.65918 0.13916,0.391846 0.13916,1.223144 l -10e-7,0.563965 z"
         id="path2554"
         inkscape:connector-curvature="0" />
      <path
         d="m 39.409794,34.999977 2.570801,0 0,1.186524 -1.029053,0 0,1.124267 0.963135,0 0,1.12793 -0.963135,0 0,1.303711 1.131592,0 0,1.186523 -2.67334,0 0,-5.928955 z"
         id="path2556"
         inkscape:connector-curvature="0" />
    </g>
  </g>
</svg>
