<?xml version="1.0" encoding="UTF-8" standalone="no"?>
<!-- Created with Inkscape (http://www.inkscape.org/) -->

<svg
   xmlns:dc="http://purl.org/dc/elements/1.1/"
   xmlns:cc="http://creativecommons.org/ns#"
   xmlns:rdf="http://www.w3.org/1999/02/22-rdf-syntax-ns#"
   xmlns:svg="http://www.w3.org/2000/svg"
   xmlns="http://www.w3.org/2000/svg"
   xmlns:xlink="http://www.w3.org/1999/xlink"
   xmlns:sodipodi="http://sodipodi.sourceforge.net/DTD/sodipodi-0.dtd"
   xmlns:inkscape="http://www.inkscape.org/namespaces/inkscape"
   width="80.001999"
   height="80.000214"
   id="svg4214"
   version="1.1"
   inkscape:version="0.48.3.1 r9886"
   sodipodi:docname="unkown.svg"
   inkscape:export-filename="/home/christian/Dokumente/eLearning/Moodle/theme/moodle-theme_anomalyblackred/pix_core/f/unkown-256.png"
   inkscape:export-xdpi="287.9928"
   inkscape:export-ydpi="287.9928"
   preserveAspectRatio="xMinYMid meet">
  <defs
     id="defs4216">
    <linearGradient
       id="linearGradient4790">
      <stop
         style="stop-color:#cd0000;stop-opacity:1;"
         offset="0"
         id="stop4792" />
      <stop
         style="stop-color:#ff0000;stop-opacity:1;"
         offset="1"
         id="stop4794" />
    </linearGradient>
    <linearGradient
       id="linearGradient6707-5">
      <stop
         id="stop6709-0"
         offset="0"
         style="stop-color:#000000;stop-opacity:1;" />
      <stop
         id="stop6711-5"
         offset="1"
         style="stop-color:#ffffff;stop-opacity:1;" />
    </linearGradient>
    <linearGradient
       inkscape:collect="always"
       xlink:href="#linearGradient4790"
       id="linearGradient4788"
       x1="25.253813"
       y1="1049.8368"
       x2="25.253813"
       y2="1003.8749"
       gradientUnits="userSpaceOnUse"
       gradientTransform="matrix(1.8104756,0,0,1.7482736,-19.451415,-770.83584)" />
    <linearGradient
       inkscape:collect="always"
       xlink:href="#linearGradient918-1"
       id="linearGradient912"
       x1="462.37933"
       y1="837.0611"
       x2="463.75925"
       y2="835.67212"
       gradientUnits="userSpaceOnUse"
       gradientTransform="matrix(1.8102357,-0.02946975,0.02946975,1.8102357,-812.8496,-500.88944)" />
    <linearGradient
       id="linearGradient918-1">
      <stop
         id="stop920-5"
         offset="0"
         style="stop-color:#f6f6f6;stop-opacity:1" />
      <stop
         id="stop922-7"
         offset="1"
         style="stop-color:#e2e2e2;stop-opacity:1" />
    </linearGradient>
    <linearGradient
       inkscape:collect="always"
       xlink:href="#linearGradient6707"
       id="linearGradient3077"
       gradientUnits="userSpaceOnUse"
       gradientTransform="matrix(1.8114204,0,0,2.6689195,-211.88361,-765.76882)"
       x1="262.01361"
       y1="471.95245"
       x2="262.01361"
       y2="442.7843" />
    <linearGradient
       id="linearGradient6707">
      <stop
         id="stop6709"
         offset="0"
         style="stop-color:#000000;stop-opacity:1;" />
      <stop
         id="stop6711"
         offset="1"
         style="stop-color:#ffffff;stop-opacity:1;" />
    </linearGradient>
    <linearGradient
       inkscape:collect="always"
       xlink:href="#linearGradient6707"
       id="linearGradient3806"
       gradientUnits="userSpaceOnUse"
       gradientTransform="matrix(1.8114204,0,0,2.6689195,-448.9685,-185.20458)"
       x1="262.01361"
       y1="471.95245"
       x2="262.01361"
       y2="442.7843" />
    <linearGradient
       inkscape:collect="always"
       xlink:href="#linearGradient4790"
       id="linearGradient3795"
       gradientUnits="userSpaceOnUse"
       gradientTransform="matrix(1.8104756,0,0,1.7482736,-19.451415,-770.83584)"
       x1="25.253813"
       y1="1049.8368"
       x2="25.253813"
       y2="1003.8749" />
    <linearGradient
       inkscape:collect="always"
       xlink:href="#linearGradient918-1"
       id="linearGradient3797"
       gradientUnits="userSpaceOnUse"
       gradientTransform="matrix(1.8102357,-0.02946975,0.02946975,1.8102357,-812.8496,-500.88944)"
       x1="462.37933"
       y1="837.0611"
       x2="463.75925"
       y2="835.67212" />
    <linearGradient
       inkscape:collect="always"
       xlink:href="#linearGradient6707"
       id="linearGradient3799"
       gradientUnits="userSpaceOnUse"
       gradientTransform="matrix(1.8114204,0,0,2.6689195,-448.9685,-185.20458)"
       x1="262.01361"
       y1="471.95245"
       x2="262.01361"
       y2="442.7843" />
    <linearGradient
       inkscape:collect="always"
       xlink:href="#linearGradient6707"
       id="linearGradient3020"
       gradientUnits="userSpaceOnUse"
       gradientTransform="matrix(1.698152,0,0,2.6689195,-419.41556,-185.20458)"
       x1="262.01361"
       y1="471.95245"
       x2="262.01361"
       y2="442.7843" />
    <linearGradient
       inkscape:collect="always"
       xlink:href="#linearGradient918-1"
       id="linearGradient3023"
       gradientUnits="userSpaceOnUse"
       gradientTransform="matrix(1.6226917,-0.02781917,0.02641663,1.7088458,-724.59467,-416.89522)"
       x1="462.37933"
       y1="837.0611"
       x2="463.75925"
       y2="835.67212" />
    <linearGradient
       inkscape:collect="always"
       xlink:href="#linearGradient918-1"
       id="linearGradient3790"
       gradientUnits="userSpaceOnUse"
       gradientTransform="matrix(1.6226917,-0.02781917,0.02641663,1.7088458,-724.59467,-416.89522)"
       x1="462.37933"
       y1="837.0611"
       x2="463.75925"
       y2="835.67212" />
  </defs>
  <sodipodi:namedview
     id="base"
     pagecolor="#ffffff"
     bordercolor="#666666"
     borderopacity="1.0"
     inkscape:pageopacity="0.0"
     inkscape:pageshadow="2"
     inkscape:zoom="0.98994949"
     inkscape:cx="48.973468"
     inkscape:cy="43.917141"
     inkscape:document-units="px"
     inkscape:current-layer="layer1"
     showgrid="false"
     width="0px"
     height="0px"
     fit-margin-top="0"
     fit-margin-left="0.51"
     fit-margin-right="0.51"
     fit-margin-bottom="0"
     inkscape:window-width="1881"
     inkscape:window-height="1029"
     inkscape:window-x="0"
     inkscape:window-y="26"
     inkscape:window-maximized="1">
    <inkscape:grid
       type="xygrid"
       id="grid3016" />
  </sodipodi:namedview>
  <metadata
     id="metadata4219">
    <rdf:RDF>
      <cc:Work
         rdf:about="">
        <dc:format>image/svg+xml</dc:format>
        <dc:type
           rdf:resource="http://purl.org/dc/dcmitype/StillImage" />
        <dc:title></dc:title>
      </cc:Work>
    </rdf:RDF>
  </metadata>
  <g
     inkscape:label="Capa 1"
     inkscape:groupmode="layer"
     id="layer1"
     transform="translate(16.001,-988.36209)">
    <path
       style="opacity:0.7;fill:#000000;fill-opacity:1;stroke:none"
       d="m -10.706304,988.36209 c -1.541983,0 -2.793696,1.48695 -2.793696,3.28149 l 0,73.43722 c 0,1.7946 1.251713,3.2815 2.793696,3.2815 l 69.412608,0 c 1.542,0 2.793696,-1.4869 2.793696,-3.2815 l 0,-57.935 -17.890401,-18.78371 -54.315903,0 z"
       id="rect3922-2"
       inkscape:connector-curvature="0" />
    <path
       style="fill:#ff0000;fill-opacity:1;stroke:none"
       d="m -9.5982928,989.89242 c -1.4824112,0 -2.6497072,1.40744 -2.6497072,3.14122 l 0,71.01426 c 0,1.7339 1.167296,3.1412 2.6497072,3.1412 l 67.1965858,0 c 1.482411,0 2.649707,-1.4071 2.649707,-3.1412 l 0,-55.252 -17.912024,-18.90348 -51.9342688,0 z"
       id="path869"
       inkscape:connector-curvature="0" />
    <g
       id="g3786"
       transform="translate(-0.50507627,0.25253814)">
      <path
         id="path914"
         d="m 60.894229,1007.9568 -18.40394,-18.70263 0.24343,15.74693 c 0.02787,1.803 1.270392,3.2453 2.819614,3.2187 l 15.340896,-0.263 z"
         style="opacity:0.7;fill:#000000;fill-opacity:1;stroke:none"
         inkscape:connector-curvature="0" />
      <path
         inkscape:connector-curvature="0"
         style="fill:url(#linearGradient3790);fill-opacity:1;stroke:none"
         d="m 60.200418,1007.202 -16.851,-17.12448 0.222888,14.41828 c 0.02553,1.6508 1.163194,2.9714 2.581687,2.947 l 14.046425,-0.2408 z"
         id="path902" />
    </g>
    <path
       inkscape:connector-curvature="0"
       d="m 25.354558,1040.2359 c -0.1239,-4.4227 0.866951,-8.7161 5.04538,-11.7574 4.413487,-3.4394 8.664028,-7.7426 8.214836,-12.8151 -0.09808,-4.892 -5.797952,-8.7254 -11.939149,-9.2766 -6.907849,-0.957 -15.266302,1.4095 -17.5810761,6.8043 -1.1740013,2.6238 -0.085312,7.3313 3.8546161,7.3313 2.304472,0 3.362928,-1.4887 3.536816,-2.8504 0.131569,-1.0303 -0.291439,-1.9504 -0.541249,-2.8015 -0.284644,-0.9697 0.930476,-2.8492 2.253908,-3.6149 1.105878,-0.6399 2.262911,-0.8545 2.433463,-0.8955 3.971522,-0.9544 7.930556,1.1538 9.582335,3.7199 1.651782,2.566 -0.166331,6.4581 -2.780353,10.2431 -2.614025,3.785 -5.41934,8.084 -5.408134,12.6502 0,1.7383 -0.154893,2.3289 -0.04483,3.0322 0.08792,0.5619 1.948549,0.494 3.373442,0.2304 z m -1.812478,5.9527 c -3.797402,-0.2061 -6.425732,4.0987 -4.14444,6.8415 2.037302,3.0284 7.749424,2.2808 8.72848,-1.1485 1.017864,-2.6667 -1.431642,-5.7375 -4.584038,-5.693 l -2e-6,0 z"
       id="path9053"
       style="font-size:72px;font-style:normal;font-weight:bold;opacity:0.4;fill:#000000;fill-opacity:1;stroke:none;font-family:Standard Symbols L" />
    <path
       inkscape:connector-curvature="0"
       d="m 25.354558,1042.1109 c -0.1239,-4.4227 0.866951,-8.7161 5.04538,-11.7574 4.413487,-3.4394 8.664028,-7.7426 8.214836,-12.8151 -0.09808,-4.892 -5.797952,-8.7254 -11.939149,-9.2766 -6.907849,-0.957 -15.266302,1.4095 -17.5810761,6.8043 -1.1740013,2.6238 -0.085312,7.3313 3.8546161,7.3313 2.304472,0 3.362928,-1.4887 3.536816,-2.8504 0.131569,-1.0303 -0.291439,-1.9504 -0.541249,-2.8015 -0.284644,-0.9697 0.930476,-2.8492 2.253908,-3.6149 1.105878,-0.6399 2.262911,-0.8545 2.433463,-0.8955 3.971522,-0.9544 7.930556,1.1538 9.582335,3.7199 1.651782,2.566 -0.166331,6.4581 -2.780353,10.2431 -2.614025,3.785 -5.41934,8.084 -5.408134,12.6502 0,1.7383 -0.154893,2.3289 -0.04483,3.0322 0.08792,0.5619 1.948549,0.494 3.373442,0.2304 z m -1.812478,5.9527 c -3.797402,-0.2061 -6.425732,4.0987 -4.14444,6.8415 2.037302,3.0284 7.749424,2.2808 8.72848,-1.1485 1.017864,-2.6667 -1.431642,-5.7375 -4.584038,-5.693 l -2e-6,0 z"
       id="path3298"
       style="font-size:72px;font-style:normal;font-weight:bold;opacity:1;fill:#ffffff;fill-opacity:1;stroke:none;font-family:Standard Symbols L" />
  </g>
</svg>
