<?xml version="1.0" encoding="UTF-8" standalone="no"?>
<!-- Created with Inkscape (http://www.inkscape.org/) -->

<svg
   xmlns:dc="http://purl.org/dc/elements/1.1/"
   xmlns:cc="http://creativecommons.org/ns#"
   xmlns:rdf="http://www.w3.org/1999/02/22-rdf-syntax-ns#"
   xmlns:svg="http://www.w3.org/2000/svg"
   xmlns="http://www.w3.org/2000/svg"
   xmlns:xlink="http://www.w3.org/1999/xlink"
   xmlns:sodipodi="http://sodipodi.sourceforge.net/DTD/sodipodi-0.dtd"
   xmlns:inkscape="http://www.inkscape.org/namespaces/inkscape"
   width="24"
   height="24"
   id="svg6399"
   version="1.1"
   inkscape:version="0.48.3.1 r9886"
   sodipodi:docname="video-small.svg"
   inkscape:export-filename="/tmp/moodle-theme_anomalyred/pix_core/f/video.png"
   inkscape:export-xdpi="60"
   inkscape:export-ydpi="60" preserveAspectRatio="xMinYMid meet">
  <defs
     id="defs6401">
    <linearGradient
       y2="468.35892"
       x2="314.34872"
       y1="425.61682"
       x1="314.34872"
       gradientTransform="translate(-53.785477,-0.003684)"
       gradientUnits="userSpaceOnUse"
       id="linearGradient1187"
       xlink:href="#linearGradient1069"
       inkscape:collect="always" />
    <linearGradient
       id="linearGradient1069">
      <stop
         style="stop-color:#ffffff;stop-opacity:1"
         offset="0"
         id="stop1071" />
      <stop
         style="stop-color:#e6e6e6;stop-opacity:1"
         offset="1"
         id="stop1073" />
    </linearGradient>
    <linearGradient
       gradientTransform="translate(218.88524,181.71843)"
       inkscape:collect="always"
       xlink:href="#linearGradient6707"
       id="linearGradient1110"
       x1="262.01361"
       y1="471.95245"
       x2="262.01361"
       y2="442.7843"
       gradientUnits="userSpaceOnUse" />
    <linearGradient
       id="linearGradient6707">
      <stop
         id="stop6709"
         offset="0"
         style="stop-color:#000000;stop-opacity:1;" />
      <stop
         id="stop6711"
         offset="1"
         style="stop-color:#ffffff;stop-opacity:1;" />
    </linearGradient>
    <linearGradient
       y2="468.35892"
       x2="314.34872"
       y1="425.61682"
       x1="314.34872"
       gradientTransform="translate(-53.785477,-0.003684)"
       gradientUnits="userSpaceOnUse"
       id="linearGradient1758"
       xlink:href="#linearGradient1069-4"
       inkscape:collect="always" />
    <linearGradient
       id="linearGradient1069-4">
      <stop
         style="stop-color:#ffffff;stop-opacity:1"
         offset="0"
         id="stop1071-6" />
      <stop
         style="stop-color:#e6e6e6;stop-opacity:1"
         offset="1"
         id="stop1073-5" />
    </linearGradient>
    <linearGradient
       x1="64"
       y1="60"
       x2="62"
       y2="7"
       id="linearGradient3769"
       xlink:href="#linearGradient3763"
       gradientUnits="userSpaceOnUse"
       gradientTransform="matrix(1.231823,0,0,1.231823,-27.816151,7.1708322)" />
    <linearGradient
       id="linearGradient3763">
      <stop
         id="stop3765"
         style="stop-color:#ff7700;stop-opacity:1"
         offset="0" />
      <stop
         id="stop3767"
         style="stop-color:#ffb15d;stop-opacity:1"
         offset="1" />
    </linearGradient>
    <filter
       color-interpolation-filters="sRGB"
       inkscape:collect="always"
       id="filter3861">
      <feGaussianBlur
         inkscape:collect="always"
         stdDeviation="0.34341048"
         id="feGaussianBlur3863" />
    </filter>
  </defs>
  <sodipodi:namedview
     id="base"
     pagecolor="#ffffff"
     bordercolor="#666666"
     borderopacity="1.0"
     inkscape:pageopacity="0.0"
     inkscape:pageshadow="2"
     inkscape:zoom="31.678384"
     inkscape:cx="0.32897626"
     inkscape:cy="13.919314"
     inkscape:document-units="px"
     inkscape:current-layer="layer1"
     showgrid="true"
     fit-margin-top="0"
     fit-margin-left="1"
     fit-margin-right="1"
     fit-margin-bottom="0"
     inkscape:window-width="1881"
     inkscape:window-height="1029"
     inkscape:window-x="0"
     inkscape:window-y="26"
     inkscape:window-maximized="1"
     showguides="false">
    <inkscape:grid
       type="xygrid"
       id="grid3013" />
  </sodipodi:namedview>
  <metadata
     id="metadata6404">
    <rdf:RDF>
      <cc:Work
         rdf:about="">
        <dc:format>image/svg+xml</dc:format>
        <dc:type
           rdf:resource="http://purl.org/dc/dcmitype/StillImage" />
        <dc:title />
      </cc:Work>
    </rdf:RDF>
  </metadata>
  <g
     inkscape:label="Capa 1"
     inkscape:groupmode="layer"
     id="layer1"
     transform="translate(-468,-617.50507)">
    <path
       style="opacity:0.85;fill:#000000;fill-opacity:1;stroke:none"
       d="m 468.89035,617.50507 22.21928,0 c 0.49327,0 0.89037,0.43363 0.89037,0.97227 l 0,22.05546 c 0,0.53865 -0.3971,0.97227 -0.89037,0.97227 l -22.21928,0 c -0.49326,0 -0.89035,-0.43363 -0.89035,-0.97227 l 0,-22.05546 c 0,-0.53864 0.39709,-0.97227 0.89035,-0.97227 z"
       id="rect3922"
       inkscape:connector-curvature="0" />
    <path
       inkscape:connector-curvature="0"
       id="path869"
       d="m 469.34892,618.00507 21.30215,0 c 0.47031,0 0.84893,0.41557 0.84893,0.93176 l 0,21.13648 c 0,0.51619 -0.37862,0.93176 -0.84893,0.93176 l -21.30215,0 c -0.47031,0 -0.84892,-0.41557 -0.84892,-0.93176 l 0,-21.13648 c 0,-0.51619 0.37861,-0.93176 0.84892,-0.93176 z"
       style="fill:#ff0000;fill-opacity:1;stroke:none" />
    <g
       id="g3865"
       transform="matrix(0.37584231,0,0,0.37584231,382.81663,465.37527)">
      <g
         style="opacity:0.75;filter:url(#filter3861)"
         id="g3855"
         transform="matrix(1.897429,0,0,1.897429,212.64551,-1510.1636)">
        <path
           inkscape:connector-curvature="0"
           id="path3857"
           d="m 17.518123,1015.0151 -0.34456,0.6125 -2.603337,0 c -0.368845,0 -0.400407,-0.3319 -0.535981,-0.5743 -0.237528,0.021 -0.395201,0.028 -0.689118,0.1532 -0.276889,0.1449 -0.394876,0.5593 -0.497697,0.9571 l 0,21.4392 c 0.04214,0.2368 -0.06598,0.5031 0.267991,0.6891 l 0.88054,0.3829 0.382844,-0.7274 2.871327,0 0.306275,0.6125 12.863547,0 0.306275,-0.5359 2.603337,0 0.421128,0.4594 0.803972,0 c 0.256743,-0.1385 0.412715,-0.3927 0.421128,-0.7657 l 0,-21.7073 c -0.03577,-0.4047 -0.169837,-0.7184 -0.535981,-0.8805 -0.216047,-0.076 -0.416403,-0.1103 -0.574266,0 -0.154611,0.3347 -0.297414,0.3041 -0.535981,0.536 l -2.526768,0 c -0.43584,-0.1623 -0.448222,-0.2871 -0.61255,-0.6508 l -1.110247,0 c 0.09827,0 0.153138,0.093 0.153138,0.1914 l 0,3.8667 c 0,0.098 -0.05486,0.1531 -0.153138,0.1531 l -10.5282,0 c -0.09827,0 -0.191422,-0.055 -0.191422,-0.1531 l 0,-3.8667 c 0,-0.098 0.09315,-0.1914 0.191422,-0.1914 l -1.033678,0 z m -2.909612,1.8376 2.297062,0 c 0.268341,0 0.497697,0.2294 0.497697,0.4977 l 0,0.6891 c 0,0.2684 -0.229356,0.4977 -0.497697,0.4977 l -2.297062,0 c -0.26834,0 -0.497697,-0.2293 -0.497697,-0.4977 l 0,-0.6891 c 0,-0.2683 0.229357,-0.4977 0.497697,-0.4977 z m 16.347424,0 2.297062,0 c 0.26834,0 0.459413,0.2294 0.459413,0.4977 l 0,0.6891 c 0,0.2684 -0.191073,0.4977 -0.459413,0.4977 l -2.297062,0 c -0.268339,0 -0.497696,-0.2293 -0.497696,-0.4977 l 0,-0.6891 c 0,-0.2683 0.229357,-0.4977 0.497696,-0.4977 z m -16.347424,2.9862 2.297062,0 c 0.268341,0 0.497697,0.2294 0.497697,0.4977 l 0,0.6891 c 0,0.2683 -0.229356,0.4977 -0.497697,0.4977 l -2.297062,0 c -0.26834,0 -0.497697,-0.2294 -0.497697,-0.4977 l 0,-0.6891 c 0,-0.2683 0.229357,-0.4977 0.497697,-0.4977 z m 16.347424,0 2.297062,0 c 0.26834,0 0.459413,0.2294 0.459413,0.4977 l 0,0.6891 c 0,0.2683 -0.191073,0.4977 -0.459413,0.4977 l -2.297062,0 c -0.268339,0 -0.497696,-0.2294 -0.497696,-0.4977 l 0,-0.6891 c 0,-0.2683 0.229357,-0.4977 0.497696,-0.4977 z m -12.059575,0.5742 9.839082,0 c 0.28599,0 0.497697,0.25 0.497697,0.536 l 0,11.2556 c 0,0.286 -0.211707,0.4977 -0.497697,0.4977 l -9.839082,0 c -0.28599,0 -0.535981,-0.2117 -0.535981,-0.4977 l 0,-11.2556 c 0,-0.286 0.249991,-0.536 0.535981,-0.536 z m -4.287849,2.3737 2.297062,0 c 0.268341,0 0.497697,0.2294 0.497697,0.4977 l 0,0.6891 c 0,0.2683 -0.229356,0.4977 -0.497697,0.4977 l -2.297062,0 c -0.26834,0 -0.497697,-0.2294 -0.497697,-0.4977 l 0,-0.6891 c 0,-0.2683 0.229357,-0.4977 0.497697,-0.4977 z m 16.347424,0 2.297062,0 c 0.26834,0 0.459413,0.2294 0.459413,0.4977 l 0,0.6891 c 0,0.2683 -0.191073,0.4977 -0.459413,0.4977 l -2.297062,0 c -0.268339,0 -0.497696,-0.2294 -0.497696,-0.4977 l 0,-0.6891 c 0,-0.2683 0.229357,-0.4977 0.497696,-0.4977 z m -16.347424,2.9862 2.297062,0 c 0.268341,0 0.497697,0.2294 0.497697,0.4977 l 0,0.6891 c 0,0.2684 -0.229356,0.4977 -0.497697,0.4977 l -2.297062,0 c -0.26834,0 -0.497697,-0.2293 -0.497697,-0.4977 l 0,-0.6891 c 0,-0.2683 0.229357,-0.4977 0.497697,-0.4977 z m 16.347424,0 2.297062,0 c 0.26834,0 0.459413,0.2294 0.459413,0.4977 l 0,0.6891 c 0,0.2684 -0.191073,0.4977 -0.459413,0.4977 l -2.297062,0 c -0.268339,0 -0.497696,-0.2293 -0.497696,-0.4977 l 0,-0.6891 c 0,-0.2683 0.229357,-0.4977 0.497696,-0.4977 z m -16.347424,2.9479 2.297062,0 c 0.268341,0 0.497697,0.2292 0.497697,0.4976 l 0,0.6892 c 0,0.2683 -0.229356,0.4977 -0.497697,0.4977 l -2.297062,0 c -0.26834,0 -0.497697,-0.2294 -0.497697,-0.4977 l 0,-0.6892 c 0,-0.2684 0.229357,-0.4976 0.497697,-0.4976 z m 16.347424,0 2.297062,0 c 0.26834,0 0.459413,0.2292 0.459413,0.4976 l 0,0.6892 c 0,0.2683 -0.191073,0.4977 -0.459413,0.4977 l -2.297062,0 c -0.268339,0 -0.497696,-0.2294 -0.497696,-0.4977 l 0,-0.6892 c 0,-0.2684 0.229357,-0.4976 0.497696,-0.4976 z m -16.347424,2.9861 2.297062,0 c 0.268341,0 0.497697,0.1911 0.497697,0.4594 l 0,0.7274 c 0,0.2683 -0.229356,0.4977 -0.497697,0.4977 l -2.297062,0 c -0.26834,0 -0.497697,-0.2294 -0.497697,-0.4977 l 0,-0.7274 c 0,-0.2683 0.229357,-0.4594 0.497697,-0.4594 z m 16.347424,0 2.297062,0 c 0.26834,0 0.459413,0.1911 0.459413,0.4594 l 0,0.7274 c 0,0.2683 -0.191073,0.4977 -0.459413,0.4977 l -2.297062,0 c -0.268339,0 -0.497696,-0.2294 -0.497696,-0.4977 l 0,-0.7274 c 0,-0.2683 0.229357,-0.4594 0.497696,-0.4594 z m -12.404134,2.4885 10.5282,0 c 0.09827,0 0.153138,0.093 0.153138,0.1914 l 0,3.8668 c 0,0.098 -0.05486,0.1531 -0.153138,0.1531 l -10.5282,0 c -0.09827,0 -0.191422,-0.055 -0.191422,-0.1531 l 0,-3.8668 c 0,-0.098 0.09315,-0.1914 0.191422,-0.1914 z m -3.94329,0.4594 2.297062,0 c 0.268341,0 0.497697,0.2294 0.497697,0.4977 l 0,0.6891 c 0,0.2685 -0.229356,0.4977 -0.497697,0.4977 l -2.297062,0 c -0.26834,0 -0.497697,-0.2292 -0.497697,-0.4977 l 0,-0.6891 c 0,-0.2683 0.229357,-0.4977 0.497697,-0.4977 z m 16.347424,0 2.297062,0 c 0.26834,0 0.459413,0.2294 0.459413,0.4977 l 0,0.6891 c 0,0.2685 -0.191073,0.4977 -0.459413,0.4977 l -2.297062,0 c -0.268339,0 -0.497696,-0.2292 -0.497696,-0.4977 l 0,-0.6891 c 0,-0.2683 0.229357,-0.4977 0.497696,-0.4977 z"
           style="fill:#4d4d4d;stroke:none" />
        <path
           inkscape:transform-center-y="3.3729638e-05"
           inkscape:transform-center-x="-2.1622796"
           transform="matrix(0.15156836,0.26252407,-0.26252407,0.15156836,25.248112,1019.4995)"
           d="M 23.63759,32.570201 11.993705,25.847601 0.34981918,19.124999 11.993705,12.4024 23.637591,5.6797994 23.63759,19.125 z"
           inkscape:randomized="0"
           inkscape:rounded="0"
           inkscape:flatsided="false"
           sodipodi:arg2="2.0943951"
           sodipodi:arg1="1.0471976"
           sodipodi:r2="7.7625904"
           sodipodi:r1="15.525181"
           sodipodi:cy="19.125"
           sodipodi:cx="15.875"
           sodipodi:sides="3"
           id="path3859"
           style="fill:#4d4d4d;fill-opacity:1;stroke:none"
           sodipodi:type="star" />
      </g>
      <g
         style="fill:#ffffff;fill-opacity:1"
         transform="matrix(1.897429,0,0,1.897429,213.25367,-1511.8356)"
         id="g3032">
        <path
           style="fill:#ffffff;fill-opacity:1;stroke:none"
           d="m 17.518123,1015.0151 -0.34456,0.6125 -2.603337,0 c -0.368845,0 -0.400407,-0.3319 -0.535981,-0.5743 -0.237528,0.021 -0.395201,0.028 -0.689118,0.1532 -0.276889,0.1449 -0.394876,0.5593 -0.497697,0.9571 l 0,21.4392 c 0.04214,0.2368 -0.06598,0.5031 0.267991,0.6891 l 0.88054,0.3829 0.382844,-0.7274 2.871327,0 0.306275,0.6125 12.863547,0 0.306275,-0.5359 2.603337,0 0.421128,0.4594 0.803972,0 c 0.256743,-0.1385 0.412715,-0.3927 0.421128,-0.7657 l 0,-21.7073 c -0.03577,-0.4047 -0.169837,-0.7184 -0.535981,-0.8805 -0.216047,-0.076 -0.416403,-0.1103 -0.574266,0 -0.154611,0.3347 -0.297414,0.3041 -0.535981,0.536 l -2.526768,0 c -0.43584,-0.1623 -0.448222,-0.2871 -0.61255,-0.6508 l -1.110247,0 c 0.09827,0 0.153138,0.093 0.153138,0.1914 l 0,3.8667 c 0,0.098 -0.05486,0.1531 -0.153138,0.1531 l -10.5282,0 c -0.09827,0 -0.191422,-0.055 -0.191422,-0.1531 l 0,-3.8667 c 0,-0.098 0.09315,-0.1914 0.191422,-0.1914 l -1.033678,0 z m -2.909612,1.8376 2.297062,0 c 0.268341,0 0.497697,0.2294 0.497697,0.4977 l 0,0.6891 c 0,0.2684 -0.229356,0.4977 -0.497697,0.4977 l -2.297062,0 c -0.26834,0 -0.497697,-0.2293 -0.497697,-0.4977 l 0,-0.6891 c 0,-0.2683 0.229357,-0.4977 0.497697,-0.4977 z m 16.347424,0 2.297062,0 c 0.26834,0 0.459413,0.2294 0.459413,0.4977 l 0,0.6891 c 0,0.2684 -0.191073,0.4977 -0.459413,0.4977 l -2.297062,0 c -0.268339,0 -0.497696,-0.2293 -0.497696,-0.4977 l 0,-0.6891 c 0,-0.2683 0.229357,-0.4977 0.497696,-0.4977 z m -16.347424,2.9862 2.297062,0 c 0.268341,0 0.497697,0.2294 0.497697,0.4977 l 0,0.6891 c 0,0.2683 -0.229356,0.4977 -0.497697,0.4977 l -2.297062,0 c -0.26834,0 -0.497697,-0.2294 -0.497697,-0.4977 l 0,-0.6891 c 0,-0.2683 0.229357,-0.4977 0.497697,-0.4977 z m 16.347424,0 2.297062,0 c 0.26834,0 0.459413,0.2294 0.459413,0.4977 l 0,0.6891 c 0,0.2683 -0.191073,0.4977 -0.459413,0.4977 l -2.297062,0 c -0.268339,0 -0.497696,-0.2294 -0.497696,-0.4977 l 0,-0.6891 c 0,-0.2683 0.229357,-0.4977 0.497696,-0.4977 z m -12.059575,0.5742 9.839082,0 c 0.28599,0 0.497697,0.25 0.497697,0.536 l 0,11.2556 c 0,0.286 -0.211707,0.4977 -0.497697,0.4977 l -9.839082,0 c -0.28599,0 -0.535981,-0.2117 -0.535981,-0.4977 l 0,-11.2556 c 0,-0.286 0.249991,-0.536 0.535981,-0.536 z m -4.287849,2.3737 2.297062,0 c 0.268341,0 0.497697,0.2294 0.497697,0.4977 l 0,0.6891 c 0,0.2683 -0.229356,0.4977 -0.497697,0.4977 l -2.297062,0 c -0.26834,0 -0.497697,-0.2294 -0.497697,-0.4977 l 0,-0.6891 c 0,-0.2683 0.229357,-0.4977 0.497697,-0.4977 z m 16.347424,0 2.297062,0 c 0.26834,0 0.459413,0.2294 0.459413,0.4977 l 0,0.6891 c 0,0.2683 -0.191073,0.4977 -0.459413,0.4977 l -2.297062,0 c -0.268339,0 -0.497696,-0.2294 -0.497696,-0.4977 l 0,-0.6891 c 0,-0.2683 0.229357,-0.4977 0.497696,-0.4977 z m -16.347424,2.9862 2.297062,0 c 0.268341,0 0.497697,0.2294 0.497697,0.4977 l 0,0.6891 c 0,0.2684 -0.229356,0.4977 -0.497697,0.4977 l -2.297062,0 c -0.26834,0 -0.497697,-0.2293 -0.497697,-0.4977 l 0,-0.6891 c 0,-0.2683 0.229357,-0.4977 0.497697,-0.4977 z m 16.347424,0 2.297062,0 c 0.26834,0 0.459413,0.2294 0.459413,0.4977 l 0,0.6891 c 0,0.2684 -0.191073,0.4977 -0.459413,0.4977 l -2.297062,0 c -0.268339,0 -0.497696,-0.2293 -0.497696,-0.4977 l 0,-0.6891 c 0,-0.2683 0.229357,-0.4977 0.497696,-0.4977 z m -16.347424,2.9479 2.297062,0 c 0.268341,0 0.497697,0.2292 0.497697,0.4976 l 0,0.6892 c 0,0.2683 -0.229356,0.4977 -0.497697,0.4977 l -2.297062,0 c -0.26834,0 -0.497697,-0.2294 -0.497697,-0.4977 l 0,-0.6892 c 0,-0.2684 0.229357,-0.4976 0.497697,-0.4976 z m 16.347424,0 2.297062,0 c 0.26834,0 0.459413,0.2292 0.459413,0.4976 l 0,0.6892 c 0,0.2683 -0.191073,0.4977 -0.459413,0.4977 l -2.297062,0 c -0.268339,0 -0.497696,-0.2294 -0.497696,-0.4977 l 0,-0.6892 c 0,-0.2684 0.229357,-0.4976 0.497696,-0.4976 z m -16.347424,2.9861 2.297062,0 c 0.268341,0 0.497697,0.1911 0.497697,0.4594 l 0,0.7274 c 0,0.2683 -0.229356,0.4977 -0.497697,0.4977 l -2.297062,0 c -0.26834,0 -0.497697,-0.2294 -0.497697,-0.4977 l 0,-0.7274 c 0,-0.2683 0.229357,-0.4594 0.497697,-0.4594 z m 16.347424,0 2.297062,0 c 0.26834,0 0.459413,0.1911 0.459413,0.4594 l 0,0.7274 c 0,0.2683 -0.191073,0.4977 -0.459413,0.4977 l -2.297062,0 c -0.268339,0 -0.497696,-0.2294 -0.497696,-0.4977 l 0,-0.7274 c 0,-0.2683 0.229357,-0.4594 0.497696,-0.4594 z m -12.404134,2.4885 10.5282,0 c 0.09827,0 0.153138,0.093 0.153138,0.1914 l 0,3.8668 c 0,0.098 -0.05486,0.1531 -0.153138,0.1531 l -10.5282,0 c -0.09827,0 -0.191422,-0.055 -0.191422,-0.1531 l 0,-3.8668 c 0,-0.098 0.09315,-0.1914 0.191422,-0.1914 z m -3.94329,0.4594 2.297062,0 c 0.268341,0 0.497697,0.2294 0.497697,0.4977 l 0,0.6891 c 0,0.2685 -0.229356,0.4977 -0.497697,0.4977 l -2.297062,0 c -0.26834,0 -0.497697,-0.2292 -0.497697,-0.4977 l 0,-0.6891 c 0,-0.2683 0.229357,-0.4977 0.497697,-0.4977 z m 16.347424,0 2.297062,0 c 0.26834,0 0.459413,0.2294 0.459413,0.4977 l 0,0.6891 c 0,0.2685 -0.191073,0.4977 -0.459413,0.4977 l -2.297062,0 c -0.268339,0 -0.497696,-0.2292 -0.497696,-0.4977 l 0,-0.6891 c 0,-0.2683 0.229357,-0.4977 0.497696,-0.4977 z"
           id="path3803-3-5"
           inkscape:connector-curvature="0" />
        <path
           sodipodi:type="star"
           style="fill:#ffffff;fill-opacity:1;stroke:none"
           id="path3817-8-2"
           sodipodi:sides="3"
           sodipodi:cx="15.875"
           sodipodi:cy="19.125"
           sodipodi:r1="15.525181"
           sodipodi:r2="7.7625904"
           sodipodi:arg1="1.0471976"
           sodipodi:arg2="2.0943951"
           inkscape:flatsided="false"
           inkscape:rounded="0"
           inkscape:randomized="0"
           d="M 23.63759,32.570201 11.993705,25.847601 0.34981918,19.124999 11.993705,12.4024 23.637591,5.6797994 23.63759,19.125 z"
           transform="matrix(0.15156836,0.26252407,-0.26252407,0.15156836,25.248112,1019.4995)"
           inkscape:transform-center-x="-2.1622796"
           inkscape:transform-center-y="3.3729638e-05" />
      </g>
    </g>
  </g>
</svg>
