<?xml version="1.0" encoding="UTF-8" standalone="no"?>
<!-- Created with Inkscape (http://www.inkscape.org/) -->

<svg
   xmlns:dc="http://purl.org/dc/elements/1.1/"
   xmlns:cc="http://creativecommons.org/ns#"
   xmlns:rdf="http://www.w3.org/1999/02/22-rdf-syntax-ns#"
   xmlns:svg="http://www.w3.org/2000/svg"
   xmlns="http://www.w3.org/2000/svg"
   xmlns:xlink="http://www.w3.org/1999/xlink"
   xmlns:sodipodi="http://sodipodi.sourceforge.net/DTD/sodipodi-0.dtd"
   xmlns:inkscape="http://www.inkscape.org/namespaces/inkscape"
   width="24.00042"
   height="24"
   id="svg6389"
   version="1.1"
   inkscape:version="0.48.3.1 r9886"
   sodipodi:docname="icon.svg"
   inkscape:export-filename="/home/christian/Arbeitsfläche/icon.png"
   inkscape:export-xdpi="90"
   inkscape:export-ydpi="90" preserveAspectRatio="xMinYMid meet">
  <defs
     id="defs6391">
    <linearGradient
       gradientTransform="matrix(1.1002865,0,0,1.1002865,64.232046,-167.79161)"
       inkscape:collect="always"
       xlink:href="#linearGradient6707"
       id="linearGradient1110"
       x1="262.01361"
       y1="471.95245"
       x2="262.01361"
       y2="442.7843"
       gradientUnits="userSpaceOnUse" />
    <linearGradient
       id="linearGradient6707">
      <stop
         id="stop6709"
         offset="0"
         style="stop-color:#000000;stop-opacity:1;" />
      <stop
         id="stop6711"
         offset="1"
         style="stop-color:#ffffff;stop-opacity:1;" />
    </linearGradient>
    <linearGradient
       y2="468.35892"
       x2="314.34872"
       y1="425.61682"
       x1="314.34872"
       gradientTransform="matrix(1.1002865,0,0,1.1002865,5.0328438,-167.7943)"
       gradientUnits="userSpaceOnUse"
       id="linearGradient887"
       xlink:href="#linearGradient1069-5"
       inkscape:collect="always" />
    <linearGradient
       id="linearGradient1069-5">
      <stop
         style="stop-color:#ffffff;stop-opacity:1"
         offset="0"
         id="stop1071-6" />
      <stop
         style="stop-color:#e6e6e6;stop-opacity:1"
         offset="1"
         id="stop1073-0" />
    </linearGradient>
    <linearGradient
       inkscape:collect="always"
       xlink:href="#linearGradient918-1"
       id="linearGradient912"
       x1="462.37933"
       y1="837.0611"
       x2="463.75925"
       y2="835.67212"
       gradientUnits="userSpaceOnUse" />
    <linearGradient
       id="linearGradient918-1">
      <stop
         id="stop920-5"
         offset="0"
         style="stop-color:#f6f6f6;stop-opacity:1" />
      <stop
         id="stop922-7"
         offset="1"
         style="stop-color:#e2e2e2;stop-opacity:1" />
    </linearGradient>
    <linearGradient
       inkscape:collect="always"
       xlink:href="#linearGradient1069-5"
       id="linearGradient3993"
       gradientUnits="userSpaceOnUse"
       gradientTransform="matrix(1.1002865,0,0,1.1002865,5.0328438,-167.7943)"
       x1="314.34872"
       y1="425.61682"
       x2="314.34872"
       y2="468.35892" />
    <linearGradient
       inkscape:collect="always"
       xlink:href="#linearGradient6707"
       id="linearGradient3995"
       gradientUnits="userSpaceOnUse"
       gradientTransform="matrix(1.1002865,0,0,1.1002865,64.232046,-167.79161)"
       x1="262.01361"
       y1="471.95245"
       x2="262.01361"
       y2="442.7843" />
    <linearGradient
       inkscape:collect="always"
       xlink:href="#linearGradient918-1"
       id="linearGradient3997"
       gradientUnits="userSpaceOnUse"
       x1="462.37933"
       y1="837.0611"
       x2="463.75925"
       y2="835.67212" />
    <linearGradient
       inkscape:collect="always"
       xlink:href="#linearGradient918-1"
       id="linearGradient4029"
       gradientUnits="userSpaceOnUse"
       x1="462.37933"
       y1="837.0611"
       x2="463.75925"
       y2="835.67212" />
    <linearGradient
       inkscape:collect="always"
       xlink:href="#linearGradient6707-9"
       id="linearGradient3077"
       gradientUnits="userSpaceOnUse"
       gradientTransform="matrix(1.8114204,0,0,2.6689195,-211.88361,-765.76882)"
       x1="262.01361"
       y1="471.95245"
       x2="262.01361"
       y2="442.7843" />
    <linearGradient
       id="linearGradient6707-9">
      <stop
         id="stop6709-3"
         offset="0"
         style="stop-color:#000000;stop-opacity:1;" />
      <stop
         id="stop6711-5"
         offset="1"
         style="stop-color:#ffffff;stop-opacity:1;" />
    </linearGradient>
    <linearGradient
       inkscape:collect="always"
       xlink:href="#linearGradient1069-5"
       id="linearGradient3044"
       gradientUnits="userSpaceOnUse"
       gradientTransform="matrix(0.47953204,0,0,0.52249635,200.51975,91.009688)"
       x1="314.34872"
       y1="425.61682"
       x2="314.34872"
       y2="468.35892" />
    <linearGradient
       inkscape:collect="always"
       xlink:href="#linearGradient918-1"
       id="linearGradient3788"
       gradientUnits="userSpaceOnUse"
       x1="462.37933"
       y1="837.0611"
       x2="463.75925"
       y2="835.67212"
       gradientTransform="matrix(0.43041821,-0.04185019,0.05077017,0.56715852,116.81242,-138.26421)" />
  </defs>
  <sodipodi:namedview
     id="base"
     pagecolor="#ffffff"
     bordercolor="#666666"
     borderopacity="1.0"
     inkscape:pageopacity="0.0"
     inkscape:pageshadow="2"
     inkscape:zoom="3.959798"
     inkscape:cx="12.549787"
     inkscape:cy="9.467535"
     inkscape:document-units="px"
     inkscape:current-layer="layer1"
     showgrid="false"
     fit-margin-top="0"
     fit-margin-left="2.5"
     fit-margin-right="2.5"
     fit-margin-bottom="0"
     inkscape:window-width="1881"
     inkscape:window-height="1029"
     inkscape:window-x="0"
     inkscape:window-y="26"
     inkscape:window-maximized="1">
    <inkscape:grid
       type="xygrid"
       id="grid3017"
       empspacing="5"
       visible="true"
       enabled="true"
       snapvisiblegridlinesonly="true"
       originx="-27.99579px"
       originy="-27.999772px" />
  </sodipodi:namedview>
  <metadata
     id="metadata6394">
    <rdf:RDF>
      <cc:Work
         rdf:about="">
        <dc:format>image/svg+xml</dc:format>
        <dc:type
           rdf:resource="http://purl.org/dc/dcmitype/StillImage" />
        <dc:title></dc:title>
      </cc:Work>
    </rdf:RDF>
  </metadata>
  <g
     inkscape:label="Capa 1"
     inkscape:groupmode="layer"
     id="layer1"
     transform="translate(-339.53291,-313.05228)">
    <path
       style="opacity:0.85;fill:#000000;fill-opacity:1;stroke:none"
       d="m 341.3526,313.05228 c -0.45231,0 -0.81948,0.44609 -0.81948,0.98444 l 0,22.03112 c 0,0.53835 0.36717,0.98444 0.81948,0.98444 l 20.36104,0 c 0.45231,0 0.81948,-0.44608 0.81948,-0.98444 l 0,-17.38048 -5.24785,-5.63508 -15.93267,0 z"
       id="rect3922-2"
       inkscape:connector-curvature="0" />
    <path
       style="fill:url(#linearGradient3044);fill-opacity:1;stroke:none"
       d="m 342.03239,313.72279 c -0.41918,0 -0.74927,0.40961 -0.74927,0.91437 l 0,20.67125 c 0,0.50477 0.33009,0.91438 0.74927,0.91438 l 19.00146,0 c 0.41918,0 0.74927,-0.40961 0.74927,-0.91438 l 0,-16.26269 -4.90022,-5.32293 -14.85051,0 z"
       id="path869-2"
       inkscape:connector-curvature="0" />
    <path
       inkscape:connector-curvature="0"
       style="opacity:0.85;fill:#000000;fill-opacity:1;stroke:none"
       d="m 361.7881,319.05514 -4.91418,-5.3462 -0.39385,4.2e-4 0.44547,5.08836 c 0.0578,0.64114 0.4528,1.12772 0.89515,1.08494 l 3.9687,-0.37528 z"
       id="path3940"
       sodipodi:nodetypes="ccccccc" />
    <path
       id="path902"
       d="m 361.78456,319.0592 -4.91555,-5.35027 0.42837,4.78541 c 0.0491,0.54789 0.38514,0.96371 0.76139,0.92714 l 3.72579,-0.36228 z"
       style="fill:url(#linearGradient3788);fill-opacity:1;stroke:none"
       inkscape:connector-curvature="0" />
    <rect
       style="fill:none;stroke:#000000;stroke-width:0.83026451;stroke-miterlimit:4;stroke-opacity:1;stroke-dasharray:none;overflow:visible"
       id="rect3067"
       width="3.6697354"
       height="3.1039562"
       x="345.33405"
       y="329.22491" />
    <rect
       y="329.22491"
       x="353.33405"
       height="3.1039562"
       width="3.6697354"
       id="rect3789"
       style="fill:none;stroke:#000000;stroke-width:0.83026451;stroke-miterlimit:4;stroke-opacity:1;stroke-dasharray:none;overflow:visible" />
    <rect
       y="321.22488"
       x="345.33405"
       height="3.1039562"
       width="3.6697354"
       id="rect3791"
       style="fill:none;stroke:#000000;stroke-width:0.83026451;stroke-miterlimit:4;stroke-opacity:1;stroke-dasharray:none;overflow:visible" />
    <rect
       style="fill:none;stroke:#000000;stroke-width:0.83026451;stroke-miterlimit:4;stroke-opacity:1;stroke-dasharray:none;overflow:visible"
       id="rect3793"
       width="3.6697354"
       height="3.1039562"
       x="353.33405"
       y="321.22488" />
    <g
       transform="matrix(0.05029463,-0.01673803,0.01713797,0.05149638,328.18729,298.91301)"
       id="g3814"
       style="fill:#ff0000;fill-opacity:1;stroke:#ff0000;stroke-width:11.36524296;stroke-miterlimit:4;stroke-opacity:1;stroke-dasharray:none;overflow:visible">
      <path
         style="fill:#ff0000;fill-opacity:1;fill-rule:evenodd;stroke:#ff0000;stroke-width:11.36524296;stroke-miterlimit:4;stroke-opacity:1;stroke-dasharray:none"
         id="path3816"
         d="m 200.42052,515.04521 c 4.17666,19.92451 10.15764,39.4398 15.70954,59.01661 1.55467,5.05639 3.10935,10.11278 4.66402,15.16916 0,0 -17.31389,9.6263 -17.31389,9.6263 l 0,0 c -1.47076,-5.10258 -2.94152,-10.20514 -4.41229,-15.30772 -5.99473,-19.11428 -12.33556,-38.14754 -20.44554,-56.48856 0,0 21.79816,-12.01579 21.79816,-12.01579 z"
         inkscape:connector-curvature="0" />
      <path
         inkscape:connector-curvature="0"
         d="m 300.18565,516.11581 c -24.25446,16.1001 -50.5569,30.94007 -76.3388,46.04709 -6.82166,3.84256 -13.64332,7.68509 -20.465,11.52767 0,0 14.32278,17.28524 14.32278,17.28524 l 0,0 c 6.75181,-3.92588 13.50364,-7.85178 20.25546,-11.77768 25.94601,-14.46782 52.28248,-28.69162 80.35489,-41.41468 0,0 -18.12933,-21.66764 -18.12933,-21.66764 z"
         id="path3818"
         style="fill:#ff0000;fill-opacity:1;fill-rule:evenodd;stroke:#ff0000;stroke-width:11.36524296;stroke-miterlimit:4;stroke-opacity:1;stroke-dasharray:none"
         inkscape:transform-center-x="6.9314329"
         inkscape:transform-center-y="-0.4563248" />
    </g>
    <g
       style="fill:#ff0000;fill-opacity:1;stroke:#ff0000;stroke-width:11.36524296;stroke-miterlimit:4;stroke-opacity:1;stroke-dasharray:none;overflow:visible"
       id="g3820"
       transform="matrix(0.05029463,-0.01673803,0.01713797,0.05149638,336.20538,307.05736)">
      <path
         inkscape:connector-curvature="0"
         d="m 200.42052,515.04521 c 4.17666,19.92451 10.15764,39.4398 15.70954,59.01661 1.55467,5.05639 3.10935,10.11278 4.66402,15.16916 0,0 -17.31389,9.6263 -17.31389,9.6263 l 0,0 c -1.47076,-5.10258 -2.94152,-10.20514 -4.41229,-15.30772 -5.99473,-19.11428 -12.33556,-38.14754 -20.44554,-56.48856 0,0 21.79816,-12.01579 21.79816,-12.01579 z"
         id="path3822"
         style="fill:#ff0000;fill-opacity:1;fill-rule:evenodd;stroke:#ff0000;stroke-width:11.36524296;stroke-miterlimit:4;stroke-opacity:1;stroke-dasharray:none" />
      <path
         inkscape:transform-center-y="-0.4563248"
         inkscape:transform-center-x="6.9314329"
         style="fill:#ff0000;fill-opacity:1;fill-rule:evenodd;stroke:#ff0000;stroke-width:11.36524296;stroke-miterlimit:4;stroke-opacity:1;stroke-dasharray:none"
         id="path3824"
         d="m 300.18565,516.11581 c -24.25446,16.1001 -50.5569,30.94007 -76.3388,46.04709 -6.82166,3.84256 -13.64332,7.68509 -20.465,11.52767 0,0 14.32278,17.28524 14.32278,17.28524 l 0,0 c 6.75181,-3.92588 13.50364,-7.85178 20.25546,-11.77768 25.94601,-14.46782 52.28248,-28.69162 80.35489,-41.41468 0,0 -18.12933,-21.66764 -18.12933,-21.66764 z"
         inkscape:connector-curvature="0" />
    </g>
  </g>
</svg>
