<?xml version="1.0" encoding="UTF-8" standalone="no"?>
<!-- Created with Inkscape (http://www.inkscape.org/) -->

<svg
   xmlns:dc="http://purl.org/dc/elements/1.1/"
   xmlns:cc="http://creativecommons.org/ns#"
   xmlns:rdf="http://www.w3.org/1999/02/22-rdf-syntax-ns#"
   xmlns:svg="http://www.w3.org/2000/svg"
   xmlns="http://www.w3.org/2000/svg"
   xmlns:xlink="http://www.w3.org/1999/xlink"
   xmlns:sodipodi="http://sodipodi.sourceforge.net/DTD/sodipodi-0.dtd"
   xmlns:inkscape="http://www.inkscape.org/namespaces/inkscape"
   width="24.00042"
   height="24"
   id="svg6389"
   version="1.1"
   inkscape:version="0.48.3.1 r9886"
   sodipodi:docname="icon.svg"
   inkscape:export-filename="/home/christian/Arbeitsfläche/icon.png"
   inkscape:export-xdpi="90"
   inkscape:export-ydpi="90" preserveAspectRatio="xMinYMid meet">
  <defs
     id="defs6391">
    <linearGradient
       gradientTransform="matrix(1.1002865,0,0,1.1002865,64.232046,-167.79161)"
       inkscape:collect="always"
       xlink:href="#linearGradient6707"
       id="linearGradient1110"
       x1="262.01361"
       y1="471.95245"
       x2="262.01361"
       y2="442.7843"
       gradientUnits="userSpaceOnUse" />
    <linearGradient
       id="linearGradient6707">
      <stop
         id="stop6709"
         offset="0"
         style="stop-color:#000000;stop-opacity:1;" />
      <stop
         id="stop6711"
         offset="1"
         style="stop-color:#ffffff;stop-opacity:1;" />
    </linearGradient>
    <linearGradient
       y2="468.35892"
       x2="314.34872"
       y1="425.61682"
       x1="314.34872"
       gradientTransform="matrix(1.1002865,0,0,1.1002865,5.0328438,-167.7943)"
       gradientUnits="userSpaceOnUse"
       id="linearGradient887"
       xlink:href="#linearGradient1069-5"
       inkscape:collect="always" />
    <linearGradient
       id="linearGradient1069-5">
      <stop
         style="stop-color:#ffffff;stop-opacity:1"
         offset="0"
         id="stop1071-6" />
      <stop
         style="stop-color:#e6e6e6;stop-opacity:1"
         offset="1"
         id="stop1073-0" />
    </linearGradient>
    <linearGradient
       inkscape:collect="always"
       xlink:href="#linearGradient918-1"
       id="linearGradient912"
       x1="462.37933"
       y1="837.0611"
       x2="463.75925"
       y2="835.67212"
       gradientUnits="userSpaceOnUse" />
    <linearGradient
       id="linearGradient918-1">
      <stop
         id="stop920-5"
         offset="0"
         style="stop-color:#f6f6f6;stop-opacity:1" />
      <stop
         id="stop922-7"
         offset="1"
         style="stop-color:#e2e2e2;stop-opacity:1" />
    </linearGradient>
    <linearGradient
       inkscape:collect="always"
       xlink:href="#linearGradient1069-5"
       id="linearGradient3993"
       gradientUnits="userSpaceOnUse"
       gradientTransform="matrix(1.1002865,0,0,1.1002865,5.0328438,-167.7943)"
       x1="314.34872"
       y1="425.61682"
       x2="314.34872"
       y2="468.35892" />
    <linearGradient
       inkscape:collect="always"
       xlink:href="#linearGradient6707"
       id="linearGradient3995"
       gradientUnits="userSpaceOnUse"
       gradientTransform="matrix(1.1002865,0,0,1.1002865,64.232046,-167.79161)"
       x1="262.01361"
       y1="471.95245"
       x2="262.01361"
       y2="442.7843" />
    <linearGradient
       inkscape:collect="always"
       xlink:href="#linearGradient918-1"
       id="linearGradient3997"
       gradientUnits="userSpaceOnUse"
       x1="462.37933"
       y1="837.0611"
       x2="463.75925"
       y2="835.67212" />
    <linearGradient
       inkscape:collect="always"
       xlink:href="#linearGradient918-1"
       id="linearGradient4029"
       gradientUnits="userSpaceOnUse"
       x1="462.37933"
       y1="837.0611"
       x2="463.75925"
       y2="835.67212" />
    <linearGradient
       inkscape:collect="always"
       xlink:href="#linearGradient6707-9"
       id="linearGradient3077"
       gradientUnits="userSpaceOnUse"
       gradientTransform="matrix(1.8114204,0,0,2.6689195,-211.88361,-765.76882)"
       x1="262.01361"
       y1="471.95245"
       x2="262.01361"
       y2="442.7843" />
    <linearGradient
       id="linearGradient6707-9">
      <stop
         id="stop6709-3"
         offset="0"
         style="stop-color:#000000;stop-opacity:1;" />
      <stop
         id="stop6711-5"
         offset="1"
         style="stop-color:#ffffff;stop-opacity:1;" />
    </linearGradient>
    <linearGradient
       inkscape:collect="always"
       xlink:href="#linearGradient1069-5"
       id="linearGradient3044"
       gradientUnits="userSpaceOnUse"
       gradientTransform="matrix(0.36256876,0,0,0.39505359,240.35344,145.34541)"
       x1="314.34872"
       y1="425.61682"
       x2="314.34872"
       y2="468.35892" />
    <linearGradient
       inkscape:collect="always"
       xlink:href="#linearGradient918-1"
       id="linearGradient3788"
       gradientUnits="userSpaceOnUse"
       x1="462.37933"
       y1="837.0611"
       x2="463.75925"
       y2="835.67212"
       gradientTransform="matrix(0.30646964,-0.02979848,0.03614976,0.40383251,187.8784,-8.1055333)" />
  </defs>
  <sodipodi:namedview
     id="base"
     pagecolor="#ffffff"
     bordercolor="#666666"
     borderopacity="1.0"
     inkscape:pageopacity="0.0"
     inkscape:pageshadow="2"
     inkscape:zoom="22.4"
     inkscape:cx="2.9244657"
     inkscape:cy="19.56906"
     inkscape:document-units="px"
     inkscape:current-layer="layer1"
     showgrid="false"
     fit-margin-top="0"
     fit-margin-left="2.5"
     fit-margin-right="2.5"
     fit-margin-bottom="0"
     inkscape:window-width="1881"
     inkscape:window-height="1029"
     inkscape:window-x="0"
     inkscape:window-y="26"
     inkscape:window-maximized="1">
    <inkscape:grid
       type="xygrid"
       id="grid3017"
       empspacing="5"
       visible="true"
       enabled="true"
       snapvisiblegridlinesonly="true"
       originx="-27.99579px"
       originy="-27.999772px" />
  </sodipodi:namedview>
  <metadata
     id="metadata6394">
    <rdf:RDF>
      <cc:Work
         rdf:about="">
        <dc:format>image/svg+xml</dc:format>
        <dc:type
           rdf:resource="http://purl.org/dc/dcmitype/StillImage" />
        <dc:title></dc:title>
      </cc:Work>
    </rdf:RDF>
  </metadata>
  <g
     inkscape:label="Capa 1"
     inkscape:groupmode="layer"
     id="layer1"
     transform="translate(-339.53291,-313.05228)">
    <path
       style="opacity:0.85;fill:#000000;fill-opacity:1;stroke:none"
       d="m 346.66619,313.03097 c -0.34952,0 -0.63324,0.3447 -0.63324,0.7607 l 0,17.02404 c 0,0.416 0.28372,0.7607 0.63324,0.7607 l 15.73352,0 c 0.34952,0 0.63324,-0.34469 0.63324,-0.7607 l 0,-13.43036 -4.05516,-4.35438 -12.3116,0 z"
       id="rect3922-2"
       inkscape:connector-curvature="0" />
    <path
       style="fill:url(#linearGradient3044);fill-opacity:1;stroke:none"
       d="m 347.34956,313.73627 c -0.31695,0 -0.56652,0.30969 -0.56652,0.69134 l 0,15.6293 c 0,0.38166 0.24957,0.69136 0.56652,0.69136 l 14.36678,0 c 0.31695,0 0.56652,-0.3097 0.56652,-0.69136 l 0,-12.29603 -3.70501,-4.02461 -11.22829,0 z"
       id="path869-2"
       inkscape:connector-curvature="0" />
    <path
       inkscape:connector-curvature="0"
       style="opacity:0.85;fill:#000000;fill-opacity:1;stroke:none"
       d="m 362.45725,317.66954 -3.79731,-4.13116 -0.30434,3.3e-4 0.34422,3.93191 c 0.0446,0.49543 0.34989,0.87142 0.6917,0.83836 l 3.06673,-0.28999 z"
       id="path3940"
       sodipodi:nodetypes="ccccccc" />
    <path
       id="path902"
       d="m 362.30533,317.52136 -3.5,-3.80954 0.30499,3.40735 c 0.035,0.39011 0.27425,0.68618 0.54215,0.66014 l 2.65286,-0.25795 z"
       style="fill:url(#linearGradient3788);fill-opacity:1;stroke:none"
       inkscape:connector-curvature="0" />
    <g
       transform="translate(338.93448,312.97126)"
       style="overflow:visible"
       id="g3022">
      <path
         id="path3"
         d="m 2.9321139,15.799226 -0.02294,0.0054 c 0,0 -0.0065,0.0081 -0.015957,0.01982 0.012883,-0.0083 0.02565,-0.01631 0.038538,-0.02458 0,0 8.34e-5,-3.46e-4 3.595e-4,-5.77e-4 z"
         inkscape:connector-curvature="0"
         style="fill:#000000" />
      <path
         style="fill:#000000;fill-opacity:1;stroke:#000000;stroke-width:0.39160353;stroke-miterlimit:4;stroke-opacity:1;stroke-dasharray:none"
         id="path5"
         d="M 14.58528,12.367901 C 13.160156,9.2410174 11.144202,7.0985576 10.082246,7.582659 9.6206711,7.792804 9.4157514,8.4650739 9.4481393,9.4141538 9.017338,10.218648 7.2166631,13.224834 3.2366482,15.611895 c -0.1012099,0.06068 -0.2030408,0.123631 -0.3048212,0.188219 -1.8774742,2.853951 1.136971,4.318327 1.136971,4.318327 l -0.00246,4.9e-4 c 0.0219,-0.0035 0.043796,-0.007 0.066429,-0.01 0.3592688,-0.04724 1.0474149,-0.157856 1.3134647,0.175439 0,0 0.9281266,0.767726 1.4382152,2.523828 0,0 0.6341896,1.556722 2.6686079,0.777559 0,0 0.2170397,-0.45929 -0.1999026,-0.566917 0,0 -0.1920016,-0.313318 0.03325,-0.297367 0,0 0.056508,-0.712151 -0.5509597,-0.758432 L 8.5418994,21.213284 c 0,0 -0.4034083,-0.19597 -0.6552155,-0.546553 L 7.7639655,20.064679 c 0,0 -0.8688869,-0.292325 -0.3275733,-1.116724 0,0 4.2957978,-1.091607 6.8621088,-0.142598 0.09354,0.04655 0.184398,0.08367 0.272819,0.111 0.0054,0.0025 0.01134,0.0043 0.01672,0.0069 0.06004,0.02766 0.12313,0.03866 0.186934,0.03931 0.170014,0.02385 0.327111,0.007 0.467045,-0.05698 1.062028,-0.48379 0.767847,-3.410943 -0.656732,-6.537619 z m -2.267185,5.721645 c -0.499475,-0.02745 -1.000803,-0.0048 -1.498512,0.03842 -1.017138,0.0885 -2.0341751,0.270214 -3.0228678,0.52513 C 7.5164621,18.725409 6.9685214,18.531743 6.7044738,18.433021 6.3852417,18.313393 6.0973705,18.129087 5.8563162,17.887851 5.2318787,17.262769 5.0080198,16.414894 5.2029179,15.562055 5.299807,15.138557 5.4323937,14.712202 5.725108,14.38189 6.1150373,13.941834 6.6022323,13.594814 7.0146848,13.176663 7.7089494,12.47333 8.3525426,11.721071 8.9586792,10.940668 9.0810706,10.782804 9.611218,9.792737 9.5965365,9.5680162 c 0.00386,0.059794 0.010439,0.1186311 0.015384,0.1781737 0.00157,-0.013845 0.00333,-0.027422 0.00262,-0.037769 0.016601,0.2584881 0.045233,0.5135231 0.080665,0.7659911 0.4919785,3.239946 2.3769195,5.935211 3.3481235,7.143439 0.291515,0.355834 0.479226,0.552219 0.479226,0.552219 -0.01175,-0.01094 -0.02563,-0.02118 -0.03979,-0.03106 0.09294,0.1049 0.146832,0.161304 0.146832,0.161304 -0.227736,-0.217187 -1.01553,-0.194293 -1.311469,-0.21077 z m 1.364621,-1.054888 c -0.03809,0.01872 -0.08214,0.02236 -0.129078,0.01928 -9.58e-4,3.61e-4 -0.0013,0.0014 -0.0023,0.0018 -0.436039,0.214577 -1.497875,-1.048922 -2.372053,-2.822455 -0.874009,-1.77355 -1.2290113,-3.385233 -0.793394,-3.600206 0.03793,-0.01867 0.08215,-0.02236 0.129077,-0.01928 9.59e-4,-4.13e-4 0.0015,-0.0014 0.0023,-0.0017 0.435886,-0.214541 1.497721,1.048957 2.372092,2.822609 0.873985,1.773413 1.228834,3.385132 0.793335,3.599912 z"
         inkscape:connector-curvature="0" />
      <path
         style="fill:#000000;fill-opacity:1;stroke:#fbfbfb;stroke-width:0.09391993;stroke-miterlimit:4;stroke-opacity:1;stroke-dasharray:none"
         id="path7"
         d="M 3.9261564,20.142351 C 3.0464331,20.346631 2.1082664,19.54275 1.8305654,18.346845 1.5637726,17.197914 2.0048226,16.107483 2.8199285,15.842382 2.6124458,15.809472 2.4002722,15.813012 2.1895878,15.861942 1.131173,16.107717 0.51746685,17.359134 0.81879597,18.656793 1.120161,19.954606 2.2225164,20.807536 3.2809313,20.56176 3.6042922,20.48667 3.8854096,20.316787 4.1123628,20.081517 4.0522588,20.105997 3.99061,20.127387 3.9261564,20.142357 z"
         inkscape:connector-curvature="0" />
      <path
         inkscape:connector-curvature="0"
         id="path3001"
         d="m 13.160715,18.139725 c -0.212755,-0.05549 -1.249687,-0.100377 -1.823161,-0.07884 -0.738741,0.02773 -1.7416333,0.162131 -2.8268719,0.37882 -0.9267056,0.185028 -0.9598419,0.188184 -1.2603545,0.12008 C 6.2325288,18.329123 5.5411249,17.729721 5.2824221,16.853729 5.1512885,16.409698 5.1499883,16.014973 5.2779023,15.483542 5.4441827,14.792749 5.6271516,14.53623 6.5394884,13.714829 7.0945111,13.215125 7.7788099,12.485622 8.3750003,11.758067 8.9108548,11.104141 9.0721165,10.863274 9.3229134,10.342215 l 0.1953904,-0.4059432 0.030949,0.3046552 c 0.017021,0.167559 0.1463463,0.793187 0.2873787,1.390286 0.2738195,1.159423 0.4686145,1.707091 0.9844825,2.768348 0.564516,1.161332 1.472095,2.562633 2.229479,3.442322 0.146665,0.170347 0.2631,0.315315 0.25874,0.322145 -0.0043,0.007 -0.07123,-0.0042 -0.148625,-0.02431 l 0,0 z"
         style="fill:#ffffff;fill-opacity:1;fill-rule:evenodd;stroke:none" />
      <path
         inkscape:connector-curvature="0"
         id="path3003"
         d="m 13.154064,16.878318 c -0.64877,-0.391201 -1.614573,-1.854614 -2.314522,-3.50703 -0.183293,-0.432713 -0.289426,-0.767125 -0.424931,-1.338889 -0.17159,-0.724122 -0.177582,-0.774974 -0.118704,-1.020152 0.04927,-0.205364 0.08756,-0.26718 0.187634,-0.30285 0.274444,-0.09784 0.639355,0.149733 1.140914,0.774042 1.203893,1.498527 2.363,4.328898 2.140105,5.225818 -0.04734,0.190447 -0.06884,0.214024 -0.229147,0.251251 -0.139665,0.03244 -0.219969,0.01512 -0.381338,-0.08224 z"
         style="fill:#ffffff;fill-opacity:1;fill-rule:evenodd;stroke:none" />
      <path
         sodipodi:nodetypes="cssccsccc"
         inkscape:connector-curvature="0"
         id="path3005"
         d="M 3.862994,20.380806 C 3.016132,20.270176 2.1010963,19.41917 1.8408143,18.163159 c -0.1261469,-0.608723 -0.00341,-1.007716 0.106556,-1.596708 0.1309375,-0.701255 0.6495802,-1.274278 1.0480318,-1.383995 0.1183063,-0.03257 -0.21523,0.737533 -0.01,0.233729 -0.8987028,1.789412 -0.4784372,3.53267 1.1590192,4.776279 l 0.2026504,0.153911 -0.1307229,0.03174 c -0.071889,0.01751 -0.2309121,0.01866 -0.3533581,0.0027 z"
         style="fill:#ffffff;fill-opacity:1;fill-rule:evenodd;stroke:#ffffff;stroke-width:0.2392026;stroke-miterlimit:4;stroke-opacity:1;stroke-dasharray:none" />
      <path
         inkscape:transform-center-y="-8.4203812"
         inkscape:transform-center-x="-7.898152"
         style="fill:#ff0000;fill-opacity:1;fill-rule:evenodd;stroke:#fbfbfb;stroke-width:0.0875856;stroke-miterlimit:4;stroke-opacity:1;stroke-dasharray:none"
         id="path3840"
         d="m 18.54129,7.3098108 c -0.575338,0.2873505 -1.134959,0.6059339 -1.690256,0.9338571 -0.448643,0.2676908 -0.884403,0.5576384 -1.318804,0.849546 0,0 -0.424128,-0.2418579 -0.424128,-0.2418579 l 0,0 c 0.449853,-0.2751432 0.898833,-0.5518687 1.343075,-0.8369054 0.523925,-0.3324207 1.052673,-0.6568274 1.571299,-0.9982381 0,0 0.518815,0.2936003 0.518815,0.2936003 z"
         inkscape:connector-curvature="0" />
      <path
         inkscape:connector-curvature="0"
         d="m 20.013505,12.335954 c -0.592856,-0.0038 -1.186876,0.03813 -1.781546,0.0934 -0.481677,0.04785 -0.962822,0.129186 -1.443739,0.213598 0,0 -0.23553,-0.530781 -0.23553,-0.530781 l 0,0 c 0.485965,-0.05582 0.971925,-0.113991 1.45775,-0.184621 0.5713,-0.07895 1.14294,-0.145726 1.713951,-0.238246 0,0 0.289114,0.646657 0.289114,0.646657 z"
         id="path3947"
         style="fill:#ff0000;fill-opacity:1;fill-rule:evenodd;stroke:#fbfbfb;stroke-width:0.09603243;stroke-miterlimit:4;stroke-opacity:1;stroke-dasharray:none"
         inkscape:transform-center-x="-10.114999"
         inkscape:transform-center-y="-5.1858533" />
      <path
         inkscape:transform-center-y="2.4686062"
         inkscape:transform-center-x="-12.388863"
         style="fill:#ff0000;fill-opacity:1;fill-rule:evenodd;stroke:#fbfbfb;stroke-width:0.09881094;stroke-miterlimit:4;stroke-opacity:1;stroke-dasharray:none"
         id="path3949"
         d="m 20.405262,17.726206 c -0.594359,-0.38143 -1.209626,-0.728142 -1.831358,-1.064831 -0.504934,-0.270314 -1.023832,-0.514233 -1.543833,-0.755615 0,0 -0.0069,-0.563382 -0.0069,-0.563382 l 0,0 c 0.512694,0.266853 1.026402,0.531871 1.545369,0.787108 0.608493,0.303344 1.212061,0.61637 1.826142,0.908965 0,0 0.01057,0.687757 0.01057,0.687757 z"
         inkscape:connector-curvature="0" />
      <path
         inkscape:connector-curvature="0"
         d="m 12.3472,6.4563573 c 0.424577,-0.5610174 0.81051,-1.1417679 1.185285,-1.7286226 0.300891,-0.4766076 0.572404,-0.9663967 0.841089,-1.4572279 0,0 0.627113,-0.00652 0.627113,-0.00652 l 0,0 c -0.29704,0.4839391 -0.592036,0.9688295 -0.876145,1.4586836 -0.337659,0.5743573 -0.686095,1.1440666 -1.011789,1.7236981 0,0 -0.765556,0.00999 -0.765556,0.00999 z"
         id="path3951"
         style="fill:#ff0000;fill-opacity:1;fill-rule:evenodd;stroke:#fbfbfb;stroke-width:0.10128369;stroke-miterlimit:4;stroke-opacity:1;stroke-dasharray:none"
         inkscape:transform-center-x="2.7478559"
         inkscape:transform-center-y="11.69383" />
    </g>
  </g>
</svg>
